G04 Layer_Physical_Order=1*
G04 Layer_Color=255*
%FSLAX24Y24*%
%MOIN*%
G70*
G01*
G75*
%ADD10R,0.0394X0.0551*%
%ADD11R,0.0591X0.0492*%
%ADD12R,0.0701X0.1240*%
%ADD13R,0.0433X0.0492*%
%ADD14C,0.0110*%
%ADD15C,0.0300*%
%ADD16C,0.0120*%
%ADD17C,0.0150*%
%ADD18C,0.0350*%
%ADD19C,0.0100*%
%ADD20C,0.0200*%
%ADD21C,0.0560*%
%ADD22R,0.0560X0.0560*%
%ADD23C,0.0920*%
%ADD24O,0.1600X0.1900*%
%ADD25C,0.1260*%
%ADD26C,0.1400*%
%ADD27O,0.1500X0.1750*%
%ADD28C,0.0591*%
%ADD29R,0.0591X0.0591*%
%ADD30C,0.0900*%
%ADD31C,0.0720*%
%ADD32C,0.0700*%
%ADD33C,0.0350*%
%ADD34C,0.0500*%
%ADD35C,0.0400*%
G36*
X-11617Y10817D02*
X-11606Y10787D01*
X-11589Y10761D01*
X-11564Y10738D01*
X-11533Y10719D01*
X-11494Y10703D01*
X-11449Y10691D01*
X-11396Y10682D01*
X-11337Y10677D01*
X-11270Y10675D01*
Y10325D01*
X-11337Y10323D01*
X-11396Y10318D01*
X-11449Y10309D01*
X-11494Y10297D01*
X-11533Y10281D01*
X-11564Y10262D01*
X-11589Y10239D01*
X-11606Y10213D01*
X-11617Y10183D01*
X-11620Y10150D01*
Y10850D01*
X-11617Y10817D01*
D02*
G37*
G36*
X4256Y11439D02*
X4243Y11435D01*
X4232Y11427D01*
X4222Y11417D01*
X4214Y11403D01*
X4207Y11387D01*
X4202Y11367D01*
X4198Y11345D01*
X4196Y11319D01*
X4195Y11291D01*
X4045D01*
X4045Y11319D01*
X4042Y11345D01*
X4039Y11367D01*
X4033Y11387D01*
X4027Y11403D01*
X4018Y11417D01*
X4009Y11427D01*
X3997Y11435D01*
X3985Y11439D01*
X3970Y11441D01*
X4270D01*
X4256Y11439D01*
D02*
G37*
G36*
X-24773Y10531D02*
X-24790D01*
Y10497D01*
X-24807D01*
Y10464D01*
X-24823D01*
Y10397D01*
X-24840D01*
Y10364D01*
X-24857D01*
Y10314D01*
X-24873D01*
Y10264D01*
X-24890D01*
Y10197D01*
X-24907D01*
Y10180D01*
X-24923D01*
Y10114D01*
X-24940D01*
Y10080D01*
X-27275D01*
Y10097D01*
X-27259D01*
Y10147D01*
X-27242D01*
Y10180D01*
X-27225D01*
Y10230D01*
X-27209D01*
Y10297D01*
X-27192D01*
Y10364D01*
X-27175D01*
Y10381D01*
X-27159D01*
Y10447D01*
X-27142D01*
Y10514D01*
X-27125D01*
Y10547D01*
X-24773D01*
Y10531D01*
D02*
G37*
G36*
X-20803D02*
X-20820D01*
Y10497D01*
X-20837D01*
Y10464D01*
X-20854D01*
Y10397D01*
X-20870D01*
Y10364D01*
X-20887D01*
Y10314D01*
X-20904D01*
Y10264D01*
X-20920D01*
Y10230D01*
X-20937D01*
Y10164D01*
X-20954D01*
Y10130D01*
X-20970D01*
Y10097D01*
X-23305D01*
Y10114D01*
X-23289D01*
Y10164D01*
X-23272D01*
Y10197D01*
X-23255D01*
Y10230D01*
X-23239D01*
Y10280D01*
X-23222D01*
Y10347D01*
X-23205D01*
Y10397D01*
X-23189D01*
Y10414D01*
X-23172D01*
Y10481D01*
X-23155D01*
Y10547D01*
X-23139D01*
Y10564D01*
X-20803D01*
Y10531D01*
D02*
G37*
G36*
X-19603Y11398D02*
X-19586D01*
Y11331D01*
X-19569D01*
Y11298D01*
X-19552D01*
Y11265D01*
X-19536D01*
Y11181D01*
X-19519D01*
Y11114D01*
X-19502D01*
Y11081D01*
X-19486D01*
Y11031D01*
X-19469D01*
Y10981D01*
X-19452D01*
Y10931D01*
X-19436D01*
Y10864D01*
X-19419D01*
Y10814D01*
X-19402D01*
Y10798D01*
X-19336D01*
Y10814D01*
X-19319D01*
Y10831D01*
X-19302D01*
Y10848D01*
X-19286D01*
Y10864D01*
X-19269D01*
Y10881D01*
X-19252D01*
Y10898D01*
X-19236D01*
Y10914D01*
X-19202D01*
Y10931D01*
X-19186D01*
Y10948D01*
X-19169D01*
Y10964D01*
X-19152D01*
Y10981D01*
X-19136D01*
Y10998D01*
X-19119D01*
Y11014D01*
X-19085D01*
Y11031D01*
X-19069D01*
Y11048D01*
X-19052D01*
Y11064D01*
X-19035D01*
Y11081D01*
X-19019D01*
Y11098D01*
X-19002D01*
Y11114D01*
X-18985D01*
Y11131D01*
X-18952D01*
Y11148D01*
X-18935D01*
Y11164D01*
X-18919D01*
Y11181D01*
X-18902D01*
Y11198D01*
X-18885D01*
Y11215D01*
X-18869D01*
Y11231D01*
X-18835D01*
Y11248D01*
X-18819D01*
Y11265D01*
X-18802D01*
Y11281D01*
X-18785D01*
Y11298D01*
X-18769D01*
Y11315D01*
X-18752D01*
Y11331D01*
X-18735D01*
Y11348D01*
X-18702D01*
Y11365D01*
X-18685D01*
Y11381D01*
X-17885D01*
Y11365D01*
X-17901D01*
Y11348D01*
X-17918D01*
Y11331D01*
X-17935D01*
Y11315D01*
X-17968D01*
Y11298D01*
X-17985D01*
Y11281D01*
X-18001D01*
Y11265D01*
X-18018D01*
Y11248D01*
X-18035D01*
Y11231D01*
X-18051D01*
Y11215D01*
X-18085D01*
Y11198D01*
X-18101D01*
Y11181D01*
X-18118D01*
Y11164D01*
X-18135D01*
Y11148D01*
X-18151D01*
Y11131D01*
X-18168D01*
Y11114D01*
X-18185D01*
Y11098D01*
X-18201D01*
Y11081D01*
X-18235D01*
Y11064D01*
X-18251D01*
Y11048D01*
X-18268D01*
Y11031D01*
X-18285D01*
Y11014D01*
X-18302D01*
Y10998D01*
X-18318D01*
Y10981D01*
X-18335D01*
Y10964D01*
X-18352D01*
Y10948D01*
X-18368D01*
Y10931D01*
X-18385D01*
Y10914D01*
X-18418D01*
Y10898D01*
X-18435D01*
Y10881D01*
X-18452D01*
Y10864D01*
X-18468D01*
Y10848D01*
X-18485D01*
Y10831D01*
X-18518D01*
Y10814D01*
X-18535D01*
Y10798D01*
X-18552D01*
Y10781D01*
X-18568D01*
Y10764D01*
X-18585D01*
Y10747D01*
X-18602D01*
Y10731D01*
X-18618D01*
Y10714D01*
X-18635D01*
Y10697D01*
X-18652D01*
Y10681D01*
X-18668D01*
Y10664D01*
X-18685D01*
Y10647D01*
X-18702D01*
Y10631D01*
X-18735D01*
Y10614D01*
X-18752D01*
Y10597D01*
X-18769D01*
Y10581D01*
X-18785D01*
Y10564D01*
X-18802D01*
Y10547D01*
X-18835D01*
Y10531D01*
X-18852D01*
Y10514D01*
X-18869D01*
Y10497D01*
X-18885D01*
Y10481D01*
X-18902D01*
Y10464D01*
X-18919D01*
Y10447D01*
X-18952D01*
Y10414D01*
X-18969D01*
Y10397D01*
X-19002D01*
Y10381D01*
X-19019D01*
Y10364D01*
X-19035D01*
Y10347D01*
X-19052D01*
Y10330D01*
X-19085D01*
Y10247D01*
X-19069D01*
Y10230D01*
X-19052D01*
Y10180D01*
X-19035D01*
Y10147D01*
X-19019D01*
Y10114D01*
X-19002D01*
Y10097D01*
X-18985D01*
Y10047D01*
X-18969D01*
Y10014D01*
X-18952D01*
Y9980D01*
X-18935D01*
Y9930D01*
X-18919D01*
Y9897D01*
X-18902D01*
Y9863D01*
X-18885D01*
Y9830D01*
X-18869D01*
Y9797D01*
X-18852D01*
Y9747D01*
X-18835D01*
Y9713D01*
X-18819D01*
Y9680D01*
X-18802D01*
Y9663D01*
X-18785D01*
Y9630D01*
X-18769D01*
Y9580D01*
X-18752D01*
Y9547D01*
X-18735D01*
Y9530D01*
X-18719D01*
Y9480D01*
X-18702D01*
Y9430D01*
X-18685D01*
Y9396D01*
X-18668D01*
Y9380D01*
X-18652D01*
Y9330D01*
X-18635D01*
Y9280D01*
X-18618D01*
Y9246D01*
X-18602D01*
Y9230D01*
X-18585D01*
Y9180D01*
X-18568D01*
Y9146D01*
X-18552D01*
Y9113D01*
X-19386D01*
Y9146D01*
X-19402D01*
Y9196D01*
X-19419D01*
Y9230D01*
X-19436D01*
Y9263D01*
X-19452D01*
Y9313D01*
X-19469D01*
Y9346D01*
X-19486D01*
Y9380D01*
X-19502D01*
Y9430D01*
X-19519D01*
Y9463D01*
X-19536D01*
Y9513D01*
X-19552D01*
Y9563D01*
X-19569D01*
Y9597D01*
X-19586D01*
Y9630D01*
X-19603D01*
Y9663D01*
X-19619D01*
Y9730D01*
X-19636D01*
Y9780D01*
X-19653D01*
Y9797D01*
X-19719D01*
Y9780D01*
X-19736D01*
Y9763D01*
X-19753D01*
Y9747D01*
X-19769D01*
Y9730D01*
X-19786D01*
Y9713D01*
X-19803D01*
Y9697D01*
X-19819D01*
Y9680D01*
X-19836D01*
Y9663D01*
X-19853D01*
Y9647D01*
X-19886D01*
Y9630D01*
X-19903D01*
Y9613D01*
X-19919D01*
Y9580D01*
X-19953D01*
Y9563D01*
X-19969D01*
Y9547D01*
X-19986D01*
Y9530D01*
X-20003D01*
Y9513D01*
X-20020D01*
Y9496D01*
X-20036D01*
Y9480D01*
X-20053D01*
Y9463D01*
X-20070D01*
Y9446D01*
X-20086D01*
Y9430D01*
X-20103D01*
Y9413D01*
X-20136D01*
Y9380D01*
X-20153D01*
Y9363D01*
X-20170D01*
Y9346D01*
X-20203D01*
Y9330D01*
X-20220D01*
Y9313D01*
X-20236D01*
Y9296D01*
X-20253D01*
Y9280D01*
X-20270D01*
Y9263D01*
X-20286D01*
Y9246D01*
X-20303D01*
Y9230D01*
X-20320D01*
Y9213D01*
X-20336D01*
Y9196D01*
X-20370D01*
Y9180D01*
X-20386D01*
Y9163D01*
X-20403D01*
Y9146D01*
X-20420D01*
Y9130D01*
X-20437D01*
Y9113D01*
X-23606D01*
Y9130D01*
X-23589D01*
Y9196D01*
X-23572D01*
Y9246D01*
X-23556D01*
Y9313D01*
X-23539D01*
Y9380D01*
X-23522D01*
Y9396D01*
X-23506D01*
Y9480D01*
X-23489D01*
Y9563D01*
X-23472D01*
Y9613D01*
X-21120D01*
Y9597D01*
X-21137D01*
Y9530D01*
X-21154D01*
Y9480D01*
X-21170D01*
Y9463D01*
X-21187D01*
Y9413D01*
X-21204D01*
Y9330D01*
X-21220D01*
Y9296D01*
X-21237D01*
Y9280D01*
X-21254D01*
Y9213D01*
X-21204D01*
Y9230D01*
X-21170D01*
Y9246D01*
X-21154D01*
Y9263D01*
X-21137D01*
Y9280D01*
X-21120D01*
Y9296D01*
X-21087D01*
Y9313D01*
X-21070D01*
Y9330D01*
X-21054D01*
Y9346D01*
X-21037D01*
Y9363D01*
X-21020D01*
Y9380D01*
X-21004D01*
Y9396D01*
X-20987D01*
Y9413D01*
X-20970D01*
Y9430D01*
X-20954D01*
Y9446D01*
X-20920D01*
Y9463D01*
X-20904D01*
Y9480D01*
X-20887D01*
Y9496D01*
X-20870D01*
Y9513D01*
X-20837D01*
Y9530D01*
X-20820D01*
Y9547D01*
X-20803D01*
Y9563D01*
X-20787D01*
Y9580D01*
X-20770D01*
Y9597D01*
X-20753D01*
Y9613D01*
X-20737D01*
Y9630D01*
X-20703D01*
Y9647D01*
X-20687D01*
Y9663D01*
X-20670D01*
Y9680D01*
X-20637D01*
Y9697D01*
X-20620D01*
Y9730D01*
X-20603D01*
Y9747D01*
X-20570D01*
Y9763D01*
X-20553D01*
Y9780D01*
X-20537D01*
Y9797D01*
X-20503D01*
Y9813D01*
X-20487D01*
Y9830D01*
X-20470D01*
Y9847D01*
X-20453D01*
Y9863D01*
X-20437D01*
Y9880D01*
X-20420D01*
Y9897D01*
X-20386D01*
Y9913D01*
X-20370D01*
Y9930D01*
X-20353D01*
Y9947D01*
X-20336D01*
Y9964D01*
X-20320D01*
Y9980D01*
X-20286D01*
Y10014D01*
X-20253D01*
Y10030D01*
X-20236D01*
Y10047D01*
X-20220D01*
Y10064D01*
X-20203D01*
Y10080D01*
X-20170D01*
Y10097D01*
X-20153D01*
Y10114D01*
X-20136D01*
Y10130D01*
X-20103D01*
Y10164D01*
X-20086D01*
Y10180D01*
X-20053D01*
Y10197D01*
X-20036D01*
Y10214D01*
X-20020D01*
Y10230D01*
X-20003D01*
Y10247D01*
X-19969D01*
Y10264D01*
X-19936D01*
Y10330D01*
X-19953D01*
Y10347D01*
X-19969D01*
Y10381D01*
X-19986D01*
Y10414D01*
X-20003D01*
Y10464D01*
X-20020D01*
Y10481D01*
X-20036D01*
Y10531D01*
X-20053D01*
Y10564D01*
X-20070D01*
Y10581D01*
X-20086D01*
Y10631D01*
X-20103D01*
Y10664D01*
X-20120D01*
Y10697D01*
X-20136D01*
Y10731D01*
X-20153D01*
Y10764D01*
X-20170D01*
Y10798D01*
X-20186D01*
Y10831D01*
X-20203D01*
Y10864D01*
X-20220D01*
Y10914D01*
X-20236D01*
Y10931D01*
X-20253D01*
Y10948D01*
X-20270D01*
Y10998D01*
X-20286D01*
Y11048D01*
X-20303D01*
Y11064D01*
X-20320D01*
Y11081D01*
X-20336D01*
Y11131D01*
X-20353D01*
Y11181D01*
X-20370D01*
Y11198D01*
X-20386D01*
Y11231D01*
X-20403D01*
Y11281D01*
X-20420D01*
Y11315D01*
X-20437D01*
Y11331D01*
X-20453D01*
Y11365D01*
X-20470D01*
Y11381D01*
X-20520D01*
Y11331D01*
X-20537D01*
Y11265D01*
X-20553D01*
Y11231D01*
X-20570D01*
Y11198D01*
X-20587D01*
Y11131D01*
X-20603D01*
Y11064D01*
X-20620D01*
Y11031D01*
X-20637D01*
Y10998D01*
X-20653D01*
Y10931D01*
X-20670D01*
Y10914D01*
X-23422D01*
Y10898D01*
X-23439D01*
Y10864D01*
X-23456D01*
Y10814D01*
X-23472D01*
Y10747D01*
X-23489D01*
Y10697D01*
X-23506D01*
Y10664D01*
X-23522D01*
Y10614D01*
X-23539D01*
Y10564D01*
X-23556D01*
Y10514D01*
X-23572D01*
Y10464D01*
X-23589D01*
Y10414D01*
X-23606D01*
Y10381D01*
X-23622D01*
Y10330D01*
X-23639D01*
Y10264D01*
X-23656D01*
Y10214D01*
X-23672D01*
Y10164D01*
X-23689D01*
Y10097D01*
X-23706D01*
Y10064D01*
X-23722D01*
Y10030D01*
X-23739D01*
Y9980D01*
X-23756D01*
Y9913D01*
X-23773D01*
Y9863D01*
X-23789D01*
Y9830D01*
X-23806D01*
Y9780D01*
X-23823D01*
Y9713D01*
X-23839D01*
Y9663D01*
X-23856D01*
Y9613D01*
X-23873D01*
Y9580D01*
X-23889D01*
Y9496D01*
X-23906D01*
Y9446D01*
X-23923D01*
Y9413D01*
X-23939D01*
Y9363D01*
X-23956D01*
Y9280D01*
X-23973D01*
Y9230D01*
X-23989D01*
Y9213D01*
X-24006D01*
Y9163D01*
X-24023D01*
Y9113D01*
X-24823D01*
Y9146D01*
X-24807D01*
Y9196D01*
X-24790D01*
Y9246D01*
X-24773D01*
Y9296D01*
X-24757D01*
Y9363D01*
X-24740D01*
Y9413D01*
X-24723D01*
Y9430D01*
X-24707D01*
Y9513D01*
X-24690D01*
Y9563D01*
X-24673D01*
Y9613D01*
X-24657D01*
Y9647D01*
X-24640D01*
Y9713D01*
X-24623D01*
Y9763D01*
X-24607D01*
Y9797D01*
X-24590D01*
Y9830D01*
X-24573D01*
Y9913D01*
X-24556D01*
Y9947D01*
X-24540D01*
Y9997D01*
X-24523D01*
Y10047D01*
X-24506D01*
Y10114D01*
X-24490D01*
Y10147D01*
X-24473D01*
Y10197D01*
X-24456D01*
Y10247D01*
X-24440D01*
Y10297D01*
X-24423D01*
Y10347D01*
X-24406D01*
Y10414D01*
X-24390D01*
Y10481D01*
X-24373D01*
Y10531D01*
X-24356D01*
Y10564D01*
X-24340D01*
Y10614D01*
X-24323D01*
Y10697D01*
X-24306D01*
Y10731D01*
X-24290D01*
Y10781D01*
X-24273D01*
Y10831D01*
X-24256D01*
Y10898D01*
X-25324D01*
Y10914D01*
X-25641D01*
Y10898D01*
X-25657D01*
Y10914D01*
X-26975D01*
Y10931D01*
X-26958D01*
Y10964D01*
X-26942D01*
Y11014D01*
X-26925D01*
Y11081D01*
X-26908D01*
Y11114D01*
X-26892D01*
Y11164D01*
X-26875D01*
Y11231D01*
X-26858D01*
Y11281D01*
X-26842D01*
Y11331D01*
X-26825D01*
Y11365D01*
X-26808D01*
Y11415D01*
X-26775D01*
Y11398D01*
X-19619D01*
Y11415D01*
X-19603D01*
Y11398D01*
D02*
G37*
G36*
X-22287Y20507D02*
X-22303Y20489D01*
X-22317Y20469D01*
X-22329Y20448D01*
X-22340Y20425D01*
X-22349Y20401D01*
X-22357Y20375D01*
X-22363Y20347D01*
X-22366Y20317D01*
X-22369Y20286D01*
X-22369Y20253D01*
X-22646Y20530D01*
X-22613Y20531D01*
X-22582Y20533D01*
X-22552Y20537D01*
X-22524Y20542D01*
X-22498Y20550D01*
X-22474Y20559D01*
X-22451Y20570D01*
X-22430Y20582D01*
X-22410Y20597D01*
X-22393Y20613D01*
X-22287Y20507D01*
D02*
G37*
G36*
X-22888Y19597D02*
X-22869Y19582D01*
X-22847Y19570D01*
X-22825Y19559D01*
X-22800Y19550D01*
X-22774Y19542D01*
X-22746Y19537D01*
X-22716Y19533D01*
X-22685Y19531D01*
X-22652Y19530D01*
X-22929Y19253D01*
X-22930Y19286D01*
X-22932Y19317D01*
X-22936Y19347D01*
X-22942Y19375D01*
X-22949Y19401D01*
X-22958Y19425D01*
X-22969Y19448D01*
X-22982Y19469D01*
X-22996Y19489D01*
X-23012Y19507D01*
X-22906Y19613D01*
X-22888Y19597D01*
D02*
G37*
G36*
X-28176Y11415D02*
X-27942D01*
Y11398D01*
X-27792D01*
Y11381D01*
X-27726D01*
Y11365D01*
X-27676D01*
Y11348D01*
X-27609D01*
Y11331D01*
X-27576D01*
Y11315D01*
X-27559D01*
Y11298D01*
X-27509D01*
Y11281D01*
X-27492D01*
Y11265D01*
X-27475D01*
Y11248D01*
X-27442D01*
Y11231D01*
X-27425D01*
Y11215D01*
X-27409D01*
Y11198D01*
X-27392D01*
Y11164D01*
X-27375D01*
Y11131D01*
X-27359D01*
Y11098D01*
X-27342D01*
Y11081D01*
X-27325D01*
Y10981D01*
X-27309D01*
Y10781D01*
X-27325D01*
Y10664D01*
X-27342D01*
Y10631D01*
X-27359D01*
Y10581D01*
X-27375D01*
Y10531D01*
X-27392D01*
Y10464D01*
X-27409D01*
Y10447D01*
X-27425D01*
Y10397D01*
X-27442D01*
Y10330D01*
X-27459D01*
Y10297D01*
X-27475D01*
Y10264D01*
X-27492D01*
Y10214D01*
X-27509D01*
Y10180D01*
X-27525D01*
Y10114D01*
X-27542D01*
Y10080D01*
X-27559D01*
Y10047D01*
X-27576D01*
Y9997D01*
X-27592D01*
Y9964D01*
X-27609D01*
Y9897D01*
X-27626D01*
Y9863D01*
X-27642D01*
Y9830D01*
X-27659D01*
Y9780D01*
X-27676D01*
Y9747D01*
X-27692D01*
Y9713D01*
X-27709D01*
Y9680D01*
X-27726D01*
Y9647D01*
X-27742D01*
Y9597D01*
X-27759D01*
Y9580D01*
X-27776D01*
Y9563D01*
X-27792D01*
Y9530D01*
X-27809D01*
Y9513D01*
X-27826D01*
Y9496D01*
X-27842D01*
Y9463D01*
X-27859D01*
Y9446D01*
X-27876D01*
Y9430D01*
X-27892D01*
Y9413D01*
X-27909D01*
Y9396D01*
X-27926D01*
Y9380D01*
X-27942D01*
Y9363D01*
X-27959D01*
Y9346D01*
X-27993D01*
Y9330D01*
X-28026D01*
Y9313D01*
X-28043D01*
Y9296D01*
X-28076D01*
Y9280D01*
X-28126D01*
Y9263D01*
X-28159D01*
Y9246D01*
X-28193D01*
Y9230D01*
X-28276D01*
Y9213D01*
X-28326D01*
Y9196D01*
X-28393D01*
Y9180D01*
X-28510D01*
Y9163D01*
X-28626D01*
Y9146D01*
X-28760D01*
Y9130D01*
X-28927D01*
Y9113D01*
X-29494D01*
Y9130D01*
X-30461D01*
Y9146D01*
X-30745D01*
Y9196D01*
X-30728D01*
Y9230D01*
X-30711D01*
Y9263D01*
X-30695D01*
Y9313D01*
X-30678D01*
Y9380D01*
X-30661D01*
Y9430D01*
X-30645D01*
Y9446D01*
X-30628D01*
Y9530D01*
X-30611D01*
Y9563D01*
X-30595D01*
Y9613D01*
X-30578D01*
Y9647D01*
X-30561D01*
Y9697D01*
X-30545D01*
Y9747D01*
X-30528D01*
Y9797D01*
X-30511D01*
Y9830D01*
X-30495D01*
Y9897D01*
X-30478D01*
Y9947D01*
X-30461D01*
Y9997D01*
X-30444D01*
Y10047D01*
X-30428D01*
Y10114D01*
X-30411D01*
Y10147D01*
X-30394D01*
Y10180D01*
X-30378D01*
Y10230D01*
X-30361D01*
Y10314D01*
X-30344D01*
Y10330D01*
X-30328D01*
Y10381D01*
X-30311D01*
Y10431D01*
X-30294D01*
Y10497D01*
X-30278D01*
Y10531D01*
X-30261D01*
Y10581D01*
X-30244D01*
Y10631D01*
X-30228D01*
Y10664D01*
X-30211D01*
Y10731D01*
X-30194D01*
Y10764D01*
X-30178D01*
Y10814D01*
X-30161D01*
Y10864D01*
X-30144D01*
Y10914D01*
X-30128D01*
Y10964D01*
X-30111D01*
Y10998D01*
X-30094D01*
Y11048D01*
X-30078D01*
Y11114D01*
X-30061D01*
Y11164D01*
X-30044D01*
Y11181D01*
X-30027D01*
Y11248D01*
X-30011D01*
Y11315D01*
X-29994D01*
Y11365D01*
X-29977D01*
Y11398D01*
X-29961D01*
Y11431D01*
X-29944D01*
Y11415D01*
X-28276D01*
Y11431D01*
X-28209D01*
Y11415D01*
X-28193D01*
Y11431D01*
X-28176D01*
Y11415D01*
D02*
G37*
G36*
X-21573Y26664D02*
X-21569Y26640D01*
X-21563Y26616D01*
X-21555Y26593D01*
X-21544Y26569D01*
X-21531Y26545D01*
X-21515Y26521D01*
X-21497Y26497D01*
X-21476Y26474D01*
X-21453Y26450D01*
X-21845D01*
X-21822Y26474D01*
X-21802Y26497D01*
X-21783Y26521D01*
X-21768Y26545D01*
X-21754Y26569D01*
X-21744Y26593D01*
X-21735Y26616D01*
X-21729Y26640D01*
X-21725Y26664D01*
X-21724Y26688D01*
X-21574D01*
X-21573Y26664D01*
D02*
G37*
G36*
X34751Y29789D02*
Y11739D01*
X33937Y11100D01*
X32698D01*
X32669Y11135D01*
X32558Y11226D01*
X32431Y11294D01*
X32294Y11336D01*
X32151Y11350D01*
X32008Y11336D01*
X31870Y11294D01*
X31743Y11226D01*
X31632Y11135D01*
X31603Y11100D01*
X16698D01*
X16669Y11135D01*
X16558Y11226D01*
X16431Y11294D01*
X16294Y11336D01*
X16151Y11350D01*
X16008Y11336D01*
X15870Y11294D01*
X15743Y11226D01*
X15632Y11135D01*
X15603Y11100D01*
X4299D01*
Y11323D01*
X4300Y11332D01*
X4301Y11340D01*
X4437D01*
Y12032D01*
X3804D01*
Y11340D01*
X3940D01*
X3941Y11332D01*
X3942Y11323D01*
Y11100D01*
X1094D01*
X551Y11526D01*
Y29959D01*
X985Y30300D01*
X15402D01*
X15413Y30285D01*
X15430Y30250D01*
X15417Y30117D01*
X15431Y29973D01*
X15473Y29836D01*
X15541Y29709D01*
X15632Y29598D01*
X15743Y29507D01*
X15870Y29439D01*
X16008Y29397D01*
X16151Y29383D01*
X16294Y29397D01*
X16431Y29439D01*
X16558Y29507D01*
X16669Y29598D01*
X16761Y29709D01*
X16828Y29836D01*
X16870Y29973D01*
X16884Y30117D01*
X16871Y30250D01*
X16889Y30285D01*
X16900Y30300D01*
X31402D01*
X31413Y30285D01*
X31430Y30250D01*
X31417Y30117D01*
X31431Y29973D01*
X31473Y29836D01*
X31541Y29709D01*
X31632Y29598D01*
X31743Y29507D01*
X31870Y29439D01*
X32008Y29397D01*
X32151Y29383D01*
X32294Y29397D01*
X32431Y29439D01*
X32558Y29507D01*
X32669Y29598D01*
X32761Y29709D01*
X32828Y29836D01*
X32870Y29973D01*
X32884Y30117D01*
X32871Y30250D01*
X32889Y30285D01*
X32900Y30300D01*
X34099D01*
X34751Y29789D01*
D02*
G37*
G36*
X8011Y5084D02*
X8013Y5056D01*
X8017Y5032D01*
X8022Y5011D01*
X8029Y4993D01*
X8037Y4978D01*
X8047Y4967D01*
X8058Y4958D01*
X8071Y4954D01*
X8085Y4952D01*
X7786D01*
X7800Y4954D01*
X7813Y4958D01*
X7824Y4967D01*
X7834Y4978D01*
X7842Y4993D01*
X7848Y5011D01*
X7854Y5032D01*
X7857Y5056D01*
X7860Y5084D01*
X7860Y5115D01*
X8010D01*
X8011Y5084D01*
D02*
G37*
G36*
X-3604Y6945D02*
X-3552Y6900D01*
X-3503Y6863D01*
X-3457Y6835D01*
X-3416Y6816D01*
X-3378Y6805D01*
X-3344Y6803D01*
X-3314Y6810D01*
X-3287Y6825D01*
X-3264Y6849D01*
X-3684Y6281D01*
X-3667Y6311D01*
X-3658Y6344D01*
X-3657Y6380D01*
X-3664Y6419D01*
X-3679Y6461D01*
X-3702Y6506D01*
X-3733Y6555D01*
X-3772Y6606D01*
X-3819Y6660D01*
X-3874Y6718D01*
X-3661Y6999D01*
X-3604Y6945D01*
D02*
G37*
G36*
X-23984Y31014D02*
X-24063Y30924D01*
X-24095Y30881D01*
X-24122Y30840D01*
X-24145Y30801D01*
X-24162Y30763D01*
X-24174Y30727D01*
X-24182Y30693D01*
X-24184Y30660D01*
X-24334D01*
X-24337Y30693D01*
X-24344Y30727D01*
X-24356Y30763D01*
X-24374Y30801D01*
X-24396Y30840D01*
X-24423Y30881D01*
X-24455Y30924D01*
X-24534Y31014D01*
X-24581Y31061D01*
X-23937D01*
X-23984Y31014D01*
D02*
G37*
G36*
X-24984D02*
X-25063Y30924D01*
X-25095Y30881D01*
X-25122Y30840D01*
X-25145Y30801D01*
X-25162Y30763D01*
X-25174Y30727D01*
X-25182Y30693D01*
X-25184Y30660D01*
X-25334D01*
X-25337Y30693D01*
X-25344Y30727D01*
X-25356Y30763D01*
X-25374Y30801D01*
X-25396Y30840D01*
X-25423Y30881D01*
X-25455Y30924D01*
X-25534Y31014D01*
X-25581Y31061D01*
X-24937D01*
X-24984Y31014D01*
D02*
G37*
G36*
X3112Y5219D02*
X3126Y5085D01*
X3138Y5031D01*
X3154Y4985D01*
X3173Y4947D01*
X3196Y4918D01*
X3222Y4897D01*
X3252Y4885D01*
X3285Y4881D01*
X2586D01*
X2619Y4885D01*
X2649Y4897D01*
X2675Y4918D01*
X2698Y4947D01*
X2717Y4985D01*
X2733Y5031D01*
X2745Y5085D01*
X2753Y5148D01*
X2759Y5219D01*
X2760Y5298D01*
X3110D01*
X3112Y5219D01*
D02*
G37*
G36*
X-25090Y9597D02*
X-25107D01*
Y9530D01*
X-25124D01*
Y9496D01*
X-25140D01*
Y9463D01*
X-25157D01*
Y9413D01*
X-25174D01*
Y9346D01*
X-25190D01*
Y9313D01*
X-25207D01*
Y9280D01*
X-25224D01*
Y9213D01*
X-25240D01*
Y9146D01*
X-27576D01*
Y9196D01*
X-27559D01*
Y9230D01*
X-27542D01*
Y9313D01*
X-27525D01*
Y9330D01*
X-27509D01*
Y9380D01*
X-27492D01*
Y9446D01*
X-27475D01*
Y9463D01*
X-27459D01*
Y9547D01*
X-27442D01*
Y9597D01*
X-27425D01*
Y9613D01*
X-25090D01*
Y9597D01*
D02*
G37*
G36*
X-1108Y32812D02*
X-926Y32736D01*
X-762Y32627D01*
X-622Y32487D01*
X-513Y32324D01*
X-438Y32142D01*
X-399Y31948D01*
Y31850D01*
Y9850D01*
Y9752D01*
X-438Y9558D01*
X-513Y9376D01*
X-622Y9213D01*
X-762Y9073D01*
X-926Y8964D01*
X-1108Y8888D01*
X-1301Y8850D01*
X-5367D01*
X-7213Y10696D01*
X-7271Y10740D01*
X-7337Y10768D01*
X-7409Y10777D01*
X-11285D01*
X-11331Y10779D01*
X-11384Y10783D01*
X-11427Y10790D01*
X-11462Y10800D01*
X-11487Y10810D01*
X-11503Y10820D01*
X-11511Y10827D01*
X-11515Y10833D01*
X-11517Y10839D01*
X-11519Y10861D01*
X-11519Y10861D01*
Y11220D01*
X-12420D01*
Y9780D01*
X-11519D01*
Y10139D01*
X-11519Y10139D01*
X-11517Y10161D01*
X-11515Y10167D01*
X-11511Y10173D01*
X-11503Y10180D01*
X-11487Y10190D01*
X-11462Y10200D01*
X-11427Y10209D01*
X-11384Y10217D01*
X-11331Y10221D01*
X-11285Y10223D01*
X-7524D01*
X-6198Y8896D01*
X-6217Y8850D01*
X-17612D01*
X-17654Y8896D01*
Y11626D01*
X-17662Y11667D01*
X-17685Y11702D01*
X-17720Y11725D01*
X-17761Y11733D01*
X-30846D01*
X-30887Y11725D01*
X-30921Y11702D01*
X-30945Y11667D01*
X-30953Y11626D01*
Y8896D01*
X-30995Y8850D01*
X-32783D01*
X-32977Y8888D01*
X-33159Y8964D01*
X-33322Y9073D01*
X-33392Y9143D01*
X-34306Y10057D01*
X-34376Y10127D01*
X-34485Y10291D01*
X-34561Y10473D01*
X-34599Y10666D01*
Y10764D01*
Y31086D01*
Y31184D01*
X-34561Y31377D01*
X-34485Y31559D01*
X-34376Y31723D01*
X-34306Y31793D01*
Y31793D01*
X-33542Y32557D01*
X-33472Y32627D01*
X-33309Y32736D01*
X-33127Y32812D01*
X-32933Y32850D01*
X-26657D01*
X-26641Y32803D01*
X-26659Y32789D01*
X-26748Y32672D01*
X-26789Y32574D01*
X-26768Y32583D01*
X-26730Y32602D01*
X-26693Y32624D01*
X-26657Y32650D01*
X-26622Y32679D01*
X-26588Y32712D01*
Y32440D01*
X-26259D01*
Y32340D01*
X-26588D01*
Y32068D01*
X-26622Y32101D01*
X-26657Y32130D01*
X-26693Y32156D01*
X-26730Y32178D01*
X-26768Y32197D01*
X-26789Y32206D01*
X-26748Y32108D01*
X-26659Y31991D01*
X-26567Y31920D01*
Y31860D01*
X-26659Y31789D01*
X-26748Y31672D01*
X-26805Y31536D01*
X-26824Y31390D01*
X-26805Y31244D01*
X-26748Y31108D01*
X-26659Y30991D01*
X-26542Y30901D01*
X-26405Y30844D01*
X-26259Y30825D01*
X-26113Y30844D01*
X-25977Y30901D01*
X-25860Y30991D01*
X-25789Y31082D01*
X-25729D01*
X-25659Y30991D01*
X-25642Y30978D01*
X-25609Y30944D01*
X-25534Y30859D01*
X-25506Y30822D01*
X-25483Y30787D01*
X-25465Y30754D01*
X-25451Y30725D01*
X-25442Y30700D01*
X-25438Y30678D01*
X-25438Y30676D01*
Y30410D01*
X-25424Y30342D01*
X-25385Y30284D01*
X-23778Y28676D01*
Y20200D01*
X-23764Y20132D01*
X-23725Y20074D01*
X-23072Y19421D01*
X-23067Y19413D01*
X-23059Y19400D01*
X-23052Y19386D01*
X-23046Y19369D01*
X-23041Y19351D01*
X-23037Y19330D01*
X-23033Y19307D01*
X-23032Y19281D01*
X-23031Y19259D01*
X-23032Y19250D01*
X-23019Y19151D01*
X-22981Y19058D01*
X-22920Y18979D01*
X-22841Y18918D01*
X-22748Y18880D01*
X-22649Y18867D01*
X-22550Y18880D01*
X-22458Y18918D01*
X-22378Y18979D01*
X-22317Y19058D01*
X-22279Y19151D01*
X-22266Y19250D01*
X-22279Y19349D01*
X-22317Y19442D01*
X-22378Y19521D01*
X-22458Y19582D01*
X-22550Y19620D01*
X-22649Y19633D01*
X-22658Y19632D01*
X-22681Y19632D01*
X-22706Y19634D01*
X-22729Y19637D01*
X-22750Y19642D01*
X-22768Y19647D01*
X-22785Y19653D01*
X-22799Y19660D01*
X-22812Y19667D01*
X-22820Y19673D01*
X-23421Y20274D01*
Y28750D01*
X-23421Y28750D01*
X-23434Y28818D01*
X-23473Y28876D01*
X-23473Y28876D01*
X-25081Y30484D01*
Y30676D01*
X-25081Y30678D01*
X-25076Y30700D01*
X-25067Y30725D01*
X-25054Y30754D01*
X-25036Y30787D01*
X-25012Y30822D01*
X-24984Y30859D01*
X-24909Y30944D01*
X-24877Y30978D01*
X-24860Y30991D01*
X-24789Y31082D01*
X-24729D01*
X-24659Y30991D01*
X-24642Y30978D01*
X-24609Y30944D01*
X-24534Y30859D01*
X-24506Y30822D01*
X-24483Y30787D01*
X-24465Y30754D01*
X-24451Y30725D01*
X-24442Y30700D01*
X-24438Y30678D01*
X-24438Y30676D01*
Y30505D01*
X-24424Y30437D01*
X-24385Y30379D01*
X-21828Y27821D01*
Y26670D01*
X-21829Y26660D01*
X-21833Y26646D01*
X-21838Y26631D01*
X-21845Y26615D01*
X-21855Y26598D01*
X-21867Y26580D01*
X-21881Y26562D01*
X-21897Y26543D01*
X-21913Y26527D01*
X-21920Y26521D01*
X-21981Y26442D01*
X-22019Y26349D01*
X-22032Y26250D01*
X-22019Y26151D01*
X-21981Y26058D01*
X-21920Y25979D01*
X-21841Y25918D01*
X-21748Y25880D01*
X-21649Y25867D01*
X-21550Y25880D01*
X-21458Y25918D01*
X-21378Y25979D01*
X-21317Y26058D01*
X-21279Y26151D01*
X-21266Y26250D01*
X-21279Y26349D01*
X-21317Y26442D01*
X-21378Y26521D01*
X-21386Y26527D01*
X-21401Y26543D01*
X-21418Y26562D01*
X-21432Y26580D01*
X-21444Y26598D01*
X-21453Y26615D01*
X-21460Y26631D01*
X-21466Y26646D01*
X-21469Y26660D01*
X-21471Y26670D01*
Y27895D01*
X-21484Y27963D01*
X-21523Y28021D01*
X-21523Y28021D01*
X-24081Y30579D01*
Y30676D01*
X-24081Y30678D01*
X-24076Y30700D01*
X-24067Y30725D01*
X-24054Y30754D01*
X-24035Y30787D01*
X-24012Y30822D01*
X-23984Y30859D01*
X-23909Y30944D01*
X-23877Y30978D01*
X-23860Y30991D01*
X-23770Y31108D01*
X-23714Y31244D01*
X-23694Y31390D01*
X-23714Y31536D01*
X-23770Y31672D01*
X-23860Y31789D01*
X-23952Y31860D01*
Y31920D01*
X-23860Y31991D01*
X-23770Y32108D01*
X-23714Y32244D01*
X-23694Y32390D01*
X-23714Y32536D01*
X-23770Y32672D01*
X-23860Y32789D01*
X-23877Y32803D01*
X-23861Y32850D01*
X-22951D01*
X-22945Y32840D01*
X-20378Y30273D01*
Y21474D01*
X-20923Y20928D01*
X-21366D01*
X-21382Y20976D01*
X-21378Y20979D01*
X-21317Y21058D01*
X-21279Y21151D01*
X-21273Y21200D01*
X-22026D01*
X-22019Y21151D01*
X-21981Y21058D01*
X-21920Y20979D01*
X-21916Y20976D01*
X-21932Y20928D01*
X-22149D01*
X-22149Y20928D01*
X-22217Y20915D01*
X-22275Y20876D01*
X-22275Y20876D01*
X-22478Y20673D01*
X-22486Y20667D01*
X-22499Y20660D01*
X-22513Y20653D01*
X-22530Y20647D01*
X-22549Y20642D01*
X-22569Y20637D01*
X-22592Y20634D01*
X-22618Y20632D01*
X-22640Y20632D01*
X-22649Y20633D01*
X-22748Y20620D01*
X-22841Y20582D01*
X-22920Y20521D01*
X-22981Y20442D01*
X-23019Y20349D01*
X-23032Y20250D01*
X-23019Y20151D01*
X-22981Y20058D01*
X-22920Y19979D01*
X-22841Y19918D01*
X-22748Y19880D01*
X-22649Y19867D01*
X-22550Y19880D01*
X-22458Y19918D01*
X-22378Y19979D01*
X-22317Y20058D01*
X-22279Y20151D01*
X-22266Y20250D01*
X-22267Y20259D01*
X-22267Y20281D01*
X-22265Y20307D01*
X-22262Y20330D01*
X-22258Y20351D01*
X-22252Y20369D01*
X-22246Y20386D01*
X-22239Y20400D01*
X-22232Y20413D01*
X-22226Y20421D01*
X-22075Y20572D01*
X-21932D01*
X-21916Y20524D01*
X-21920Y20521D01*
X-21981Y20442D01*
X-22019Y20349D01*
X-22032Y20250D01*
X-22019Y20151D01*
X-21981Y20058D01*
X-21920Y19979D01*
X-21841Y19918D01*
X-21748Y19880D01*
X-21649Y19867D01*
X-21550Y19880D01*
X-21458Y19918D01*
X-21378Y19979D01*
X-21317Y20058D01*
X-21279Y20151D01*
X-21266Y20250D01*
X-21279Y20349D01*
X-21317Y20442D01*
X-21378Y20521D01*
X-21382Y20524D01*
X-21366Y20572D01*
X-20849D01*
X-20781Y20585D01*
X-20723Y20624D01*
X-20073Y21274D01*
X-20034Y21332D01*
X-20021Y21400D01*
X-20021Y21400D01*
Y30325D01*
X-20034Y30393D01*
X-20073Y30451D01*
X-20131Y30490D01*
X-20134Y30490D01*
X-22447Y32804D01*
X-22428Y32850D01*
X-1301D01*
X-1108Y32812D01*
D02*
G37*
G36*
X-7748Y7159D02*
X-7743Y7101D01*
X-7736Y7049D01*
X-7725Y7004D01*
X-7712Y6967D01*
X-7695Y6936D01*
X-7676Y6912D01*
X-7653Y6894D01*
X-7628Y6884D01*
X-7600Y6881D01*
X-8199D01*
X-8170Y6884D01*
X-8145Y6894D01*
X-8123Y6912D01*
X-8103Y6936D01*
X-8087Y6967D01*
X-8073Y7004D01*
X-8063Y7049D01*
X-8055Y7101D01*
X-8051Y7159D01*
X-8049Y7225D01*
X-7749D01*
X-7748Y7159D01*
D02*
G37*
%LPC*%
G36*
X-28460Y10948D02*
X-29310D01*
Y10931D01*
X-29327D01*
Y10898D01*
X-29344D01*
Y10848D01*
X-29360D01*
Y10814D01*
X-29377D01*
Y10764D01*
X-29394D01*
Y10714D01*
X-29410D01*
Y10647D01*
X-29427D01*
Y10597D01*
X-29444D01*
Y10564D01*
X-29460D01*
Y10497D01*
X-29477D01*
Y10464D01*
X-29494D01*
Y10397D01*
X-29510D01*
Y10347D01*
X-29527D01*
Y10280D01*
X-29544D01*
Y10247D01*
X-29560D01*
Y10197D01*
X-29577D01*
Y10130D01*
X-29594D01*
Y10064D01*
X-29610D01*
Y10047D01*
X-29627D01*
Y9980D01*
X-29644D01*
Y9930D01*
X-29661D01*
Y9897D01*
X-29677D01*
Y9830D01*
X-29694D01*
Y9780D01*
X-29711D01*
Y9730D01*
X-29727D01*
Y9713D01*
X-29744D01*
Y9647D01*
X-28843D01*
Y9663D01*
X-28743D01*
Y9680D01*
X-28676D01*
Y9697D01*
X-28643D01*
Y9713D01*
X-28610D01*
Y9730D01*
X-28593D01*
Y9747D01*
X-28560D01*
Y9763D01*
X-28543D01*
Y9780D01*
X-28526D01*
Y9797D01*
X-28510D01*
Y9813D01*
X-28476D01*
Y9863D01*
X-28460D01*
Y9880D01*
X-28426D01*
Y9930D01*
X-28410D01*
Y9964D01*
X-28393D01*
Y9997D01*
X-28376D01*
Y10030D01*
X-28359D01*
Y10080D01*
X-28343D01*
Y10147D01*
X-28326D01*
Y10180D01*
X-28309D01*
Y10230D01*
X-28293D01*
Y10297D01*
X-28276D01*
Y10364D01*
X-28259D01*
Y10414D01*
X-28243D01*
Y10464D01*
X-28226D01*
Y10497D01*
X-28209D01*
Y10547D01*
X-28193D01*
Y10631D01*
X-28176D01*
Y10764D01*
X-28193D01*
Y10814D01*
X-28209D01*
Y10848D01*
X-28243D01*
Y10864D01*
X-28259D01*
Y10881D01*
X-28276D01*
Y10898D01*
X-28326D01*
Y10914D01*
X-28376D01*
Y10931D01*
X-28460D01*
Y10948D01*
D02*
G37*
G36*
X5048Y19515D02*
X4781D01*
Y19219D01*
X5048D01*
Y19515D01*
D02*
G37*
G36*
X17701Y18392D02*
Y18050D01*
X18043D01*
X18036Y18103D01*
X17996Y18199D01*
X17933Y18282D01*
X17850Y18345D01*
X17754Y18385D01*
X17701Y18392D01*
D02*
G37*
G36*
X5414Y19515D02*
X5148D01*
Y19219D01*
X5414D01*
Y19515D01*
D02*
G37*
G36*
X17651Y19399D02*
X17548Y19385D01*
X17451Y19345D01*
X17369Y19282D01*
X17306Y19199D01*
X17266Y19103D01*
X17252Y19000D01*
X17266Y18897D01*
X17306Y18801D01*
X17369Y18718D01*
X17451Y18655D01*
X17548Y18615D01*
X17651Y18601D01*
X17754Y18615D01*
X17850Y18655D01*
X17933Y18718D01*
X17996Y18801D01*
X18036Y18897D01*
X18049Y19000D01*
X18036Y19103D01*
X17996Y19199D01*
X17933Y19282D01*
X17850Y19345D01*
X17754Y19385D01*
X17651Y19399D01*
D02*
G37*
G36*
X18651D02*
X18548Y19385D01*
X18451Y19345D01*
X18369Y19282D01*
X18306Y19199D01*
X18266Y19103D01*
X18252Y19000D01*
X18266Y18897D01*
X18306Y18801D01*
X18369Y18718D01*
X18451Y18655D01*
X18548Y18615D01*
X18651Y18601D01*
X18754Y18615D01*
X18850Y18655D01*
X18933Y18718D01*
X18996Y18801D01*
X19036Y18897D01*
X19049Y19000D01*
X19036Y19103D01*
X18996Y19199D01*
X18933Y19282D01*
X18850Y19345D01*
X18754Y19385D01*
X18651Y19399D01*
D02*
G37*
G36*
Y21399D02*
X18548Y21385D01*
X18451Y21345D01*
X18369Y21282D01*
X18306Y21199D01*
X18266Y21103D01*
X18252Y21000D01*
X18266Y20897D01*
X18306Y20801D01*
X18369Y20718D01*
X18451Y20655D01*
X18548Y20615D01*
X18651Y20601D01*
X18754Y20615D01*
X18850Y20655D01*
X18933Y20718D01*
X18938Y20726D01*
X18985Y20769D01*
X19007Y20787D01*
X19028Y20802D01*
X19048Y20815D01*
X19066Y20824D01*
X19082Y20831D01*
X19096Y20835D01*
X19106Y20837D01*
X19233D01*
X19595Y20475D01*
X19597Y20472D01*
X19602Y20465D01*
X19606Y20457D01*
X19610Y20448D01*
X19613Y20437D01*
X19615Y20426D01*
X19617Y20413D01*
X19619Y20399D01*
X19619Y20384D01*
X19618Y20380D01*
X19629Y20302D01*
X19659Y20229D01*
X19707Y20166D01*
X19769Y20118D01*
X19842Y20088D01*
X19921Y20077D01*
X19999Y20088D01*
X20072Y20118D01*
X20135Y20166D01*
X20183Y20229D01*
X20213Y20302D01*
X20223Y20380D01*
X20213Y20458D01*
X20183Y20531D01*
X20135Y20594D01*
X20072Y20642D01*
X19999Y20672D01*
X19921Y20683D01*
X19916Y20682D01*
X19902Y20682D01*
X19888Y20683D01*
X19875Y20685D01*
X19863Y20688D01*
X19853Y20691D01*
X19844Y20695D01*
X19836Y20699D01*
X19829Y20703D01*
X19826Y20705D01*
X19416Y21115D01*
X19363Y21151D01*
X19301Y21163D01*
X19106D01*
X19096Y21165D01*
X19082Y21169D01*
X19066Y21176D01*
X19048Y21185D01*
X19028Y21198D01*
X19008Y21212D01*
X18959Y21254D01*
X18939Y21273D01*
X18933Y21282D01*
X18850Y21345D01*
X18754Y21385D01*
X18651Y21399D01*
D02*
G37*
G36*
X5043Y21050D02*
X4776D01*
Y20754D01*
X5043D01*
Y21050D01*
D02*
G37*
G36*
X5409D02*
X5143D01*
Y20754D01*
X5409D01*
Y21050D01*
D02*
G37*
G36*
X5414Y19911D02*
X5148D01*
Y19615D01*
X5414D01*
Y19911D01*
D02*
G37*
G36*
X5301Y29054D02*
X5183Y29038D01*
X5074Y28993D01*
X4980Y28921D01*
X4908Y28827D01*
X4862Y28717D01*
X4847Y28600D01*
X4862Y28483D01*
X4908Y28373D01*
X4980Y28279D01*
X5074Y28207D01*
X5183Y28162D01*
X5301Y28146D01*
X5418Y28162D01*
X5528Y28207D01*
X5622Y28279D01*
X5629Y28289D01*
X5689Y28345D01*
X5717Y28369D01*
X5745Y28390D01*
X5770Y28406D01*
X5793Y28419D01*
X5814Y28428D01*
X5831Y28434D01*
X5844Y28437D01*
X7799D01*
X9688Y26548D01*
Y22350D01*
X9700Y22288D01*
X9735Y22235D01*
X11285Y20685D01*
X11338Y20649D01*
X11401Y20637D01*
X14308D01*
X14311Y20636D01*
X14319Y20634D01*
X14328Y20632D01*
X14337Y20628D01*
X14346Y20623D01*
X14356Y20617D01*
X14367Y20609D01*
X14378Y20600D01*
X14388Y20590D01*
X14391Y20586D01*
X14434Y20553D01*
X14417Y20503D01*
X6613D01*
X6610Y20503D01*
X6603Y20505D01*
X6595Y20508D01*
X6586Y20513D01*
X6575Y20519D01*
X6565Y20526D01*
X6537Y20549D01*
X6525Y20560D01*
X6523Y20564D01*
X6460Y20612D01*
X6387Y20642D01*
X6309Y20653D01*
X6230Y20642D01*
X6157Y20612D01*
X6095Y20564D01*
X6047Y20501D01*
X6016Y20428D01*
X6006Y20350D01*
X6016Y20272D01*
X6047Y20199D01*
X6095Y20136D01*
X6157Y20088D01*
X6230Y20058D01*
X6309Y20047D01*
X6387Y20058D01*
X6460Y20088D01*
X6523Y20136D01*
X6525Y20140D01*
X6538Y20152D01*
X6551Y20164D01*
X6564Y20173D01*
X6575Y20181D01*
X6586Y20187D01*
X6595Y20192D01*
X6603Y20195D01*
X6610Y20197D01*
X6613Y20197D01*
X15047D01*
X15105Y20209D01*
X15155Y20242D01*
X16260Y21347D01*
X17372D01*
X17389Y21297D01*
X17369Y21282D01*
X17306Y21199D01*
X17266Y21103D01*
X17252Y21000D01*
X17266Y20897D01*
X17306Y20801D01*
X17369Y20718D01*
X17451Y20655D01*
X17548Y20615D01*
X17651Y20601D01*
X17754Y20615D01*
X17850Y20655D01*
X17933Y20718D01*
X17996Y20801D01*
X18036Y20897D01*
X18049Y21000D01*
X18036Y21103D01*
X17996Y21199D01*
X17933Y21282D01*
X17913Y21297D01*
X17930Y21347D01*
X18001D01*
X18059Y21359D01*
X18109Y21392D01*
X18269Y21552D01*
X18302Y21601D01*
X18314Y21660D01*
Y21712D01*
X18361Y21728D01*
X18369Y21718D01*
X18451Y21655D01*
X18548Y21615D01*
X18651Y21601D01*
X18754Y21615D01*
X18850Y21655D01*
X18933Y21718D01*
X18938Y21725D01*
X18985Y21769D01*
X19007Y21787D01*
X19028Y21802D01*
X19048Y21815D01*
X19066Y21824D01*
X19082Y21831D01*
X19096Y21835D01*
X19106Y21837D01*
X21505D01*
X21887Y21455D01*
X21889Y21452D01*
X21894Y21445D01*
X21898Y21437D01*
X21901Y21428D01*
X21904Y21417D01*
X21907Y21406D01*
X21909Y21393D01*
X21910Y21379D01*
X21910Y21364D01*
X21910Y21360D01*
X21920Y21282D01*
X21950Y21209D01*
X21999Y21146D01*
X22061Y21098D01*
X22134Y21068D01*
X22212Y21057D01*
X22291Y21068D01*
X22364Y21098D01*
X22426Y21146D01*
X22475Y21209D01*
X22505Y21282D01*
X22515Y21360D01*
X22505Y21438D01*
X22475Y21511D01*
X22426Y21574D01*
X22364Y21622D01*
X22291Y21652D01*
X22212Y21663D01*
X22208Y21662D01*
X22194Y21662D01*
X22179Y21663D01*
X22166Y21665D01*
X22155Y21668D01*
X22145Y21671D01*
X22136Y21675D01*
X22128Y21679D01*
X22120Y21683D01*
X22118Y21685D01*
X21688Y22115D01*
X21635Y22151D01*
X21572Y22163D01*
X19106D01*
X19096Y22165D01*
X19082Y22169D01*
X19066Y22176D01*
X19048Y22185D01*
X19028Y22198D01*
X19008Y22212D01*
X18959Y22254D01*
X18939Y22273D01*
X18933Y22282D01*
X18850Y22345D01*
X18754Y22385D01*
X18651Y22399D01*
X18548Y22385D01*
X18451Y22345D01*
X18369Y22282D01*
X18361Y22272D01*
X18314Y22288D01*
Y22447D01*
X18433Y22566D01*
X18441Y22571D01*
X18453Y22577D01*
X18469Y22583D01*
X18489Y22589D01*
X18513Y22594D01*
X18540Y22598D01*
X18609Y22602D01*
X18640Y22603D01*
X18651Y22601D01*
X18754Y22615D01*
X18850Y22655D01*
X18933Y22718D01*
X18996Y22801D01*
X19036Y22897D01*
X19049Y23000D01*
X19048Y23010D01*
X19049Y23026D01*
X19051Y23047D01*
X19054Y23067D01*
X19059Y23085D01*
X19065Y23102D01*
X19072Y23119D01*
X19080Y23135D01*
X19090Y23150D01*
X19096Y23157D01*
X20525Y24586D01*
X24350D01*
X24373Y24582D01*
X24400Y24574D01*
X24429Y24562D01*
X24460Y24547D01*
X24492Y24527D01*
X24526Y24504D01*
X24601Y24440D01*
X24628Y24413D01*
X24640Y24398D01*
X24755Y24309D01*
X24889Y24254D01*
X25033Y24235D01*
X25176Y24254D01*
X25310Y24309D01*
X25425Y24398D01*
X25503Y24500D01*
X25520Y24504D01*
X25545D01*
X25562Y24500D01*
X25640Y24398D01*
X25657Y24385D01*
X25692Y24350D01*
X25769Y24263D01*
X25799Y24225D01*
X25823Y24190D01*
X25842Y24158D01*
X25856Y24130D01*
X25865Y24106D01*
X25869Y24088D01*
X25870Y24083D01*
Y23179D01*
X19853Y17163D01*
X19106D01*
X19096Y17165D01*
X19082Y17169D01*
X19066Y17176D01*
X19048Y17185D01*
X19028Y17198D01*
X19008Y17212D01*
X18959Y17254D01*
X18939Y17273D01*
X18933Y17282D01*
X18850Y17345D01*
X18754Y17385D01*
X18651Y17399D01*
X18548Y17385D01*
X18451Y17345D01*
X18374Y17286D01*
X18330Y17295D01*
X18324Y17297D01*
Y17442D01*
X18445Y17563D01*
X18453Y17569D01*
X18466Y17576D01*
X18482Y17582D01*
X18501Y17588D01*
X18523Y17593D01*
X18548Y17597D01*
X18613Y17602D01*
X18640Y17603D01*
X18651Y17601D01*
X18754Y17615D01*
X18850Y17655D01*
X18933Y17718D01*
X18996Y17801D01*
X19036Y17897D01*
X19049Y18000D01*
X19036Y18103D01*
X18996Y18199D01*
X18933Y18282D01*
X18850Y18345D01*
X18754Y18385D01*
X18651Y18399D01*
X18548Y18385D01*
X18451Y18345D01*
X18369Y18282D01*
X18306Y18199D01*
X18266Y18103D01*
X18252Y18000D01*
X18253Y17991D01*
X18251Y17927D01*
X18248Y17899D01*
X18244Y17873D01*
X18239Y17850D01*
X18233Y17831D01*
X18226Y17815D01*
X18220Y17802D01*
X18214Y17794D01*
X18045Y17625D01*
X18010Y17572D01*
X17998Y17510D01*
Y17279D01*
X17948Y17262D01*
X17933Y17282D01*
X17850Y17345D01*
X17754Y17385D01*
X17651Y17399D01*
X17642Y17397D01*
X17578Y17399D01*
X17549Y17402D01*
X17523Y17407D01*
X17501Y17412D01*
X17482Y17418D01*
X17466Y17424D01*
X17453Y17431D01*
X17445Y17437D01*
X17064Y17818D01*
Y19182D01*
X17445Y19563D01*
X17453Y19569D01*
X17466Y19576D01*
X17482Y19582D01*
X17501Y19588D01*
X17523Y19593D01*
X17548Y19597D01*
X17613Y19602D01*
X17640Y19603D01*
X17651Y19601D01*
X17754Y19615D01*
X17850Y19655D01*
X17933Y19718D01*
X17996Y19801D01*
X18036Y19897D01*
X18049Y20000D01*
X18036Y20103D01*
X17996Y20199D01*
X17933Y20282D01*
X17850Y20345D01*
X17754Y20385D01*
X17651Y20399D01*
X17548Y20385D01*
X17451Y20345D01*
X17369Y20282D01*
X17306Y20199D01*
X17266Y20103D01*
X17252Y20000D01*
X17253Y19991D01*
X17251Y19927D01*
X17248Y19899D01*
X17244Y19873D01*
X17239Y19850D01*
X17233Y19831D01*
X17226Y19815D01*
X17220Y19802D01*
X17214Y19794D01*
X17188Y19768D01*
X17180Y19761D01*
X17168Y19753D01*
X17156Y19746D01*
X17143Y19741D01*
X17130Y19736D01*
X17117Y19732D01*
X17102Y19729D01*
X17092Y19728D01*
X7186D01*
X7124Y19716D01*
X7071Y19680D01*
X6504Y19113D01*
X3680D01*
X3617Y19101D01*
X3565Y19065D01*
X2385Y17886D01*
X2350Y17833D01*
X2338Y17771D01*
Y15332D01*
X2291Y15313D01*
X1464Y16141D01*
Y27041D01*
X1467Y27055D01*
X1473Y27072D01*
X1483Y27093D01*
X1496Y27117D01*
X1513Y27144D01*
X1534Y27171D01*
X1591Y27236D01*
X1617Y27263D01*
X1629Y27272D01*
X1703Y27368D01*
X1749Y27480D01*
X1765Y27600D01*
X1749Y27720D01*
X1703Y27832D01*
X1629Y27928D01*
X1533Y28002D01*
X1421Y28048D01*
X1301Y28064D01*
X1181Y28048D01*
X1069Y28002D01*
X973Y27928D01*
X899Y27832D01*
X853Y27720D01*
X837Y27600D01*
X853Y27480D01*
X899Y27368D01*
X973Y27272D01*
X985Y27263D01*
X1011Y27236D01*
X1067Y27171D01*
X1088Y27144D01*
X1106Y27117D01*
X1119Y27093D01*
X1129Y27072D01*
X1135Y27055D01*
X1138Y27041D01*
Y16073D01*
X1150Y16011D01*
X1185Y15958D01*
X2385Y14758D01*
X3768Y13375D01*
X3777Y13365D01*
X3790Y13349D01*
X3797Y13339D01*
Y12915D01*
X4430D01*
Y13607D01*
X4003D01*
X3970Y13635D01*
X2704Y14901D01*
X2697Y14909D01*
X2689Y14921D01*
X2682Y14933D01*
X2676Y14946D01*
X2672Y14959D01*
X2668Y14972D01*
X2665Y14987D01*
X2664Y14997D01*
Y17703D01*
X3747Y18787D01*
X6041D01*
X6066Y18737D01*
X6039Y18701D01*
X6037Y18698D01*
X6031Y18688D01*
X6024Y18678D01*
X6017Y18670D01*
X6010Y18664D01*
X6005Y18659D01*
X6000Y18657D01*
X5996Y18655D01*
X5991Y18653D01*
X5989Y18653D01*
X4628D01*
X4570Y18641D01*
X4520Y18608D01*
X4266Y18354D01*
X4249Y18338D01*
X4240Y18331D01*
X3797D01*
Y17639D01*
X4430D01*
Y18080D01*
X4432Y18084D01*
X4452Y18108D01*
X4692Y18347D01*
X4738D01*
X4781Y18331D01*
X4781Y18297D01*
Y17639D01*
X5414D01*
Y17822D01*
X9848D01*
X10375Y17295D01*
X10377Y17292D01*
X10382Y17285D01*
X10386Y17277D01*
X10390Y17268D01*
X10393Y17257D01*
X10395Y17246D01*
X10397Y17233D01*
X10398Y17219D01*
X10399Y17204D01*
X10398Y17200D01*
X10409Y17122D01*
X10439Y17049D01*
X10487Y16986D01*
X10549Y16938D01*
X10622Y16908D01*
X10701Y16897D01*
X10779Y16908D01*
X10852Y16938D01*
X10915Y16986D01*
X10963Y17049D01*
X10993Y17122D01*
X11003Y17200D01*
X10993Y17278D01*
X10963Y17351D01*
X10915Y17414D01*
X10852Y17462D01*
X10779Y17492D01*
X10701Y17503D01*
X10696Y17502D01*
X10682Y17502D01*
X10668Y17503D01*
X10655Y17505D01*
X10643Y17508D01*
X10633Y17511D01*
X10624Y17515D01*
X10616Y17519D01*
X10609Y17523D01*
X10606Y17525D01*
X10031Y18100D01*
X9978Y18136D01*
X9916Y18148D01*
X5414D01*
X5414Y18331D01*
X5458Y18347D01*
X6017D01*
X6021Y18347D01*
X6029Y18345D01*
X6056Y18336D01*
X6068Y18331D01*
X6126Y18303D01*
X6145Y18291D01*
X6149Y18288D01*
X6222Y18258D01*
X6301Y18247D01*
X6379Y18258D01*
X6452Y18288D01*
X6515Y18336D01*
X6563Y18399D01*
X6593Y18472D01*
X6603Y18550D01*
X6593Y18628D01*
X6563Y18701D01*
X6536Y18737D01*
X6560Y18787D01*
X6571D01*
X6634Y18799D01*
X6687Y18835D01*
X7254Y19402D01*
X16757D01*
X16776Y19352D01*
X16750Y19312D01*
X16738Y19250D01*
Y17750D01*
X16750Y17688D01*
X16785Y17635D01*
X17214Y17206D01*
X17220Y17198D01*
X17226Y17185D01*
X17233Y17169D01*
X17239Y17150D01*
X17244Y17127D01*
X17248Y17103D01*
X17253Y17038D01*
X17253Y17011D01*
X17252Y17000D01*
X17266Y16897D01*
X17306Y16801D01*
X17369Y16718D01*
X17379Y16710D01*
X17363Y16663D01*
X13401D01*
X13401Y16663D01*
X13338Y16651D01*
X13285Y16615D01*
X10933Y14263D01*
X4568D01*
X4388Y14443D01*
X4407Y14489D01*
X4430D01*
Y15181D01*
X4003D01*
X3970Y15210D01*
X3626Y15553D01*
X3624Y15556D01*
X3620Y15563D01*
X3616Y15571D01*
X3612Y15580D01*
X3609Y15591D01*
X3606Y15602D01*
X3604Y15615D01*
X3603Y15629D01*
X3603Y15644D01*
X3603Y15648D01*
X3593Y15726D01*
X3563Y15799D01*
X3515Y15862D01*
X3452Y15910D01*
X3379Y15940D01*
X3301Y15951D01*
X3222Y15940D01*
X3149Y15910D01*
X3087Y15862D01*
X3039Y15799D01*
X3009Y15726D01*
X2998Y15648D01*
X3009Y15570D01*
X3039Y15497D01*
X3087Y15434D01*
X3149Y15386D01*
X3222Y15356D01*
X3301Y15345D01*
X3305Y15346D01*
X3320Y15346D01*
X3334Y15345D01*
X3347Y15343D01*
X3358Y15340D01*
X3368Y15337D01*
X3377Y15333D01*
X3386Y15329D01*
X3393Y15325D01*
X3396Y15323D01*
X3768Y14950D01*
X3777Y14940D01*
X3790Y14924D01*
X3797Y14914D01*
Y14489D01*
X3950D01*
Y14487D01*
X3963Y14425D01*
X3998Y14372D01*
X4385Y13985D01*
X4438Y13949D01*
X4501Y13937D01*
X11001D01*
X11063Y13949D01*
X11116Y13985D01*
X13468Y16337D01*
X17256D01*
Y16050D01*
X17651D01*
X18046D01*
Y16371D01*
X18066Y16385D01*
X18276Y16595D01*
X18312Y16648D01*
X18321Y16698D01*
X18356Y16713D01*
X18374Y16714D01*
X18451Y16655D01*
X18548Y16615D01*
X18651Y16601D01*
X18754Y16615D01*
X18850Y16655D01*
X18933Y16718D01*
X18938Y16725D01*
X18985Y16769D01*
X19007Y16787D01*
X19028Y16802D01*
X19048Y16815D01*
X19066Y16824D01*
X19082Y16831D01*
X19096Y16835D01*
X19106Y16837D01*
X19921D01*
X19983Y16849D01*
X20036Y16885D01*
X26148Y22997D01*
X26183Y23049D01*
X26196Y23112D01*
Y24083D01*
X26196Y24088D01*
X26201Y24106D01*
X26209Y24130D01*
X26223Y24158D01*
X26242Y24190D01*
X26267Y24225D01*
X26296Y24263D01*
X26374Y24350D01*
X26408Y24385D01*
X26425Y24398D01*
X26503Y24500D01*
X26520Y24504D01*
X26545D01*
X26562Y24500D01*
X26640Y24398D01*
X26755Y24309D01*
X26889Y24254D01*
X26983Y24242D01*
Y24790D01*
X27033D01*
Y24840D01*
X27581D01*
X27569Y24933D01*
X27513Y25067D01*
X27425Y25182D01*
X27323Y25261D01*
X27318Y25277D01*
Y25303D01*
X27323Y25319D01*
X27425Y25398D01*
X27513Y25512D01*
X27569Y25646D01*
X27587Y25790D01*
X27569Y25933D01*
X27513Y26067D01*
X27425Y26182D01*
X27310Y26270D01*
X27176Y26326D01*
X27131Y26332D01*
X27135Y26382D01*
X27647D01*
X28062Y25966D01*
Y22414D01*
X21827Y16178D01*
X19096D01*
X19085Y16180D01*
X19070Y16184D01*
X19054Y16190D01*
X19036Y16198D01*
X19018Y16209D01*
X18998Y16222D01*
X18978Y16238D01*
X18957Y16257D01*
X18939Y16274D01*
X18933Y16282D01*
X18850Y16345D01*
X18754Y16385D01*
X18651Y16399D01*
X18548Y16385D01*
X18451Y16345D01*
X18369Y16282D01*
X18306Y16199D01*
X18266Y16103D01*
X18252Y16000D01*
X18266Y15897D01*
X18306Y15801D01*
X18369Y15718D01*
X18451Y15655D01*
X18548Y15615D01*
X18651Y15601D01*
X18754Y15615D01*
X18850Y15655D01*
X18933Y15718D01*
X18939Y15726D01*
X18957Y15743D01*
X18978Y15762D01*
X18998Y15778D01*
X19018Y15791D01*
X19036Y15802D01*
X19054Y15810D01*
X19070Y15816D01*
X19085Y15820D01*
X19096Y15822D01*
X21901D01*
X21969Y15835D01*
X22027Y15874D01*
X28367Y22214D01*
X28406Y22272D01*
X28419Y22340D01*
X28419Y22340D01*
Y26040D01*
X28406Y26108D01*
X28367Y26166D01*
X27847Y26686D01*
X27789Y26725D01*
X27721Y26738D01*
X26461D01*
X26461Y26738D01*
X26393Y26725D01*
X26335Y26686D01*
X26157Y26508D01*
X25775Y26278D01*
X25755Y26270D01*
X25640Y26182D01*
X25562Y26080D01*
X25545Y26076D01*
X25520D01*
X25503Y26080D01*
X25425Y26182D01*
X25310Y26270D01*
X25176Y26326D01*
X25033Y26345D01*
X24889Y26326D01*
X24755Y26270D01*
X24640Y26182D01*
X24628Y26166D01*
X24600Y26139D01*
X24563Y26105D01*
X24527Y26077D01*
X24492Y26053D01*
X24460Y26033D01*
X24429Y26017D01*
X24400Y26006D01*
X24373Y25998D01*
X24350Y25994D01*
X20441D01*
X20363Y25978D01*
X20296Y25934D01*
X17808Y23445D01*
X17801Y23440D01*
X17785Y23430D01*
X17770Y23421D01*
X17753Y23414D01*
X17736Y23408D01*
X17718Y23403D01*
X17698Y23400D01*
X17677Y23398D01*
X17660Y23397D01*
X17651Y23399D01*
X17548Y23385D01*
X17451Y23345D01*
X17369Y23282D01*
X17306Y23199D01*
X17266Y23103D01*
X17252Y23000D01*
X17266Y22897D01*
X17306Y22801D01*
X17369Y22718D01*
X17451Y22655D01*
X17548Y22615D01*
X17651Y22601D01*
X17754Y22615D01*
X17850Y22655D01*
X17933Y22718D01*
X17996Y22801D01*
X18036Y22897D01*
X18049Y23000D01*
X18048Y23010D01*
X18049Y23026D01*
X18051Y23047D01*
X18054Y23067D01*
X18059Y23085D01*
X18065Y23102D01*
X18072Y23119D01*
X18080Y23135D01*
X18090Y23150D01*
X18096Y23157D01*
X20525Y25586D01*
X24350D01*
X24373Y25582D01*
X24400Y25574D01*
X24429Y25562D01*
X24460Y25547D01*
X24492Y25527D01*
X24526Y25504D01*
X24601Y25440D01*
X24628Y25413D01*
X24640Y25398D01*
X24743Y25319D01*
X24747Y25303D01*
Y25277D01*
X24743Y25261D01*
X24640Y25182D01*
X24628Y25166D01*
X24600Y25139D01*
X24563Y25105D01*
X24527Y25077D01*
X24492Y25053D01*
X24460Y25033D01*
X24429Y25017D01*
X24400Y25006D01*
X24373Y24998D01*
X24350Y24994D01*
X20441D01*
X20363Y24978D01*
X20296Y24934D01*
X18808Y23445D01*
X18801Y23440D01*
X18785Y23430D01*
X18770Y23421D01*
X18753Y23414D01*
X18736Y23408D01*
X18718Y23403D01*
X18698Y23400D01*
X18677Y23398D01*
X18660Y23397D01*
X18651Y23399D01*
X18548Y23385D01*
X18451Y23345D01*
X18369Y23282D01*
X18306Y23199D01*
X18266Y23103D01*
X18252Y23000D01*
X18254Y22989D01*
X18253Y22958D01*
X18249Y22889D01*
X18245Y22863D01*
X18240Y22838D01*
X18234Y22818D01*
X18228Y22802D01*
X18222Y22790D01*
X18217Y22783D01*
X18053Y22618D01*
X18019Y22569D01*
X18008Y22510D01*
Y22266D01*
X17958Y22249D01*
X17933Y22282D01*
X17850Y22345D01*
X17754Y22385D01*
X17651Y22399D01*
X17548Y22385D01*
X17451Y22345D01*
X17369Y22282D01*
X17362Y22273D01*
X17340Y22252D01*
X17288Y22206D01*
X17266Y22190D01*
X17246Y22176D01*
X17228Y22166D01*
X17212Y22159D01*
X17199Y22155D01*
X17190Y22153D01*
X13501D01*
X13442Y22141D01*
X13393Y22108D01*
X13258Y21974D01*
X13256Y21972D01*
X13249Y21968D01*
X13241Y21965D01*
X13232Y21961D01*
X13220Y21958D01*
X13208Y21956D01*
X13172Y21952D01*
X13155Y21952D01*
X13151Y21953D01*
X13072Y21942D01*
X12999Y21912D01*
X12937Y21864D01*
X12889Y21801D01*
X12859Y21728D01*
X12848Y21650D01*
X12859Y21572D01*
X12889Y21499D01*
X12937Y21436D01*
X12999Y21388D01*
X13072Y21358D01*
X13151Y21347D01*
X13229Y21358D01*
X13302Y21388D01*
X13365Y21436D01*
X13413Y21499D01*
X13443Y21572D01*
X13453Y21650D01*
X13453Y21655D01*
X13453Y21672D01*
X13454Y21690D01*
X13456Y21706D01*
X13459Y21719D01*
X13462Y21731D01*
X13465Y21741D01*
X13469Y21748D01*
X13473Y21755D01*
X13474Y21757D01*
X13564Y21847D01*
X17190D01*
X17199Y21845D01*
X17212Y21841D01*
X17228Y21834D01*
X17246Y21824D01*
X17266Y21810D01*
X17288Y21794D01*
X17340Y21748D01*
X17362Y21727D01*
X17369Y21718D01*
X17389Y21703D01*
X17372Y21653D01*
X16197D01*
X16138Y21641D01*
X16089Y21608D01*
X14983Y20503D01*
X14793D01*
X14776Y20553D01*
X14819Y20586D01*
X14867Y20649D01*
X14897Y20722D01*
X14907Y20800D01*
X14897Y20878D01*
X14867Y20951D01*
X14819Y21014D01*
X14756Y21062D01*
X14683Y21092D01*
X14605Y21103D01*
X14526Y21092D01*
X14453Y21062D01*
X14391Y21014D01*
X14388Y21010D01*
X14378Y21000D01*
X14367Y20991D01*
X14356Y20983D01*
X14346Y20977D01*
X14337Y20972D01*
X14328Y20968D01*
X14319Y20966D01*
X14311Y20964D01*
X14308Y20963D01*
X11468D01*
X10014Y22418D01*
Y26616D01*
X10001Y26678D01*
X9966Y26731D01*
X7982Y28715D01*
X7929Y28751D01*
X7867Y28763D01*
X5844D01*
X5831Y28766D01*
X5814Y28772D01*
X5793Y28781D01*
X5770Y28794D01*
X5745Y28810D01*
X5718Y28830D01*
X5656Y28885D01*
X5630Y28910D01*
X5622Y28921D01*
X5528Y28993D01*
X5418Y29038D01*
X5301Y29054D01*
D02*
G37*
G36*
X5048Y19911D02*
X4781D01*
Y19615D01*
X5048D01*
Y19911D01*
D02*
G37*
G36*
X18651Y20399D02*
X18548Y20385D01*
X18451Y20345D01*
X18369Y20282D01*
X18306Y20199D01*
X18266Y20103D01*
X18252Y20000D01*
X18266Y19897D01*
X18306Y19801D01*
X18369Y19718D01*
X18451Y19655D01*
X18548Y19615D01*
X18651Y19601D01*
X18754Y19615D01*
X18850Y19655D01*
X18933Y19718D01*
X18996Y19801D01*
X19036Y19897D01*
X19049Y20000D01*
X19036Y20103D01*
X18996Y20199D01*
X18933Y20282D01*
X18850Y20345D01*
X18754Y20385D01*
X18651Y20399D01*
D02*
G37*
G36*
X17601Y18392D02*
X17548Y18385D01*
X17451Y18345D01*
X17369Y18282D01*
X17306Y18199D01*
X17266Y18103D01*
X17259Y18050D01*
X17601D01*
Y18392D01*
D02*
G37*
G36*
X27831Y15240D02*
X27333D01*
Y14742D01*
X27426Y14754D01*
X27560Y14809D01*
X27675Y14898D01*
X27763Y15012D01*
X27819Y15146D01*
X27831Y15240D01*
D02*
G37*
G36*
X5414Y15181D02*
X4781D01*
Y14489D01*
X5414D01*
Y14682D01*
X9461D01*
X9464Y14682D01*
X9471Y14680D01*
X9479Y14677D01*
X9488Y14673D01*
X9499Y14667D01*
X9509Y14660D01*
X9537Y14637D01*
X9549Y14625D01*
X9551Y14621D01*
X9614Y14573D01*
X9687Y14543D01*
X9765Y14533D01*
X9844Y14543D01*
X9917Y14573D01*
X9979Y14621D01*
X10027Y14684D01*
X10058Y14757D01*
X10068Y14835D01*
X10058Y14914D01*
X10027Y14987D01*
X9979Y15049D01*
X9917Y15097D01*
X9844Y15128D01*
X9765Y15138D01*
X9687Y15128D01*
X9614Y15097D01*
X9551Y15049D01*
X9549Y15046D01*
X9536Y15033D01*
X9523Y15022D01*
X9510Y15012D01*
X9499Y15004D01*
X9488Y14998D01*
X9479Y14994D01*
X9471Y14991D01*
X9464Y14989D01*
X9461Y14988D01*
X5414D01*
Y15181D01*
D02*
G37*
G36*
Y13607D02*
X4781D01*
Y12915D01*
X5414D01*
Y13137D01*
X9504D01*
X9507Y13136D01*
X9515Y13134D01*
X9524Y13132D01*
X9533Y13128D01*
X9542Y13123D01*
X9552Y13117D01*
X9563Y13109D01*
X9574Y13100D01*
X9584Y13090D01*
X9587Y13086D01*
X9649Y13038D01*
X9722Y13008D01*
X9801Y12997D01*
X9879Y13008D01*
X9952Y13038D01*
X10015Y13086D01*
X10063Y13149D01*
X10093Y13222D01*
X10103Y13300D01*
X10093Y13378D01*
X10063Y13451D01*
X10015Y13514D01*
X9952Y13562D01*
X9879Y13592D01*
X9801Y13603D01*
X9722Y13592D01*
X9649Y13562D01*
X9587Y13514D01*
X9584Y13510D01*
X9574Y13500D01*
X9563Y13491D01*
X9552Y13483D01*
X9542Y13477D01*
X9533Y13472D01*
X9524Y13468D01*
X9515Y13466D01*
X9507Y13464D01*
X9504Y13463D01*
X5414D01*
Y13607D01*
D02*
G37*
G36*
X27233Y15240D02*
X26961D01*
Y14975D01*
X26915Y15020D01*
X26827Y15097D01*
X26786Y15128D01*
X26746Y15155D01*
X26747Y15146D01*
X26802Y15012D01*
X26890Y14898D01*
X27005Y14809D01*
X27139Y14754D01*
X27233Y14742D01*
Y15240D01*
D02*
G37*
G36*
X24733Y13045D02*
X24589Y13026D01*
X24455Y12970D01*
X24340Y12882D01*
X24262Y12780D01*
X24245Y12776D01*
X24220D01*
X24203Y12780D01*
X24125Y12882D01*
X24010Y12970D01*
X23876Y13026D01*
X23733Y13045D01*
X23589Y13026D01*
X23455Y12970D01*
X23340Y12882D01*
X23252Y12767D01*
X23197Y12633D01*
X23178Y12490D01*
X23197Y12346D01*
X23252Y12212D01*
X23340Y12098D01*
X23455Y12009D01*
X23589Y11954D01*
X23733Y11935D01*
X23876Y11954D01*
X24010Y12009D01*
X24125Y12098D01*
X24203Y12200D01*
X24220Y12204D01*
X24245D01*
X24262Y12200D01*
X24340Y12098D01*
X24455Y12009D01*
X24589Y11954D01*
X24733Y11935D01*
X24876Y11954D01*
X25010Y12009D01*
X25125Y12098D01*
X25213Y12212D01*
X25269Y12346D01*
X25287Y12490D01*
X25269Y12633D01*
X25213Y12767D01*
X25125Y12882D01*
X25010Y12970D01*
X24876Y13026D01*
X24733Y13045D01*
D02*
G37*
G36*
X5421Y12032D02*
X4788D01*
Y11340D01*
X5421D01*
Y11523D01*
X9989D01*
X9993Y11522D01*
X10001Y11520D01*
X10010Y11517D01*
X10019Y11514D01*
X10028Y11509D01*
X10038Y11502D01*
X10049Y11495D01*
X10060Y11485D01*
X10070Y11475D01*
X10073Y11472D01*
X10135Y11424D01*
X10208Y11394D01*
X10287Y11383D01*
X10365Y11394D01*
X10438Y11424D01*
X10501Y11472D01*
X10549Y11535D01*
X10579Y11608D01*
X10589Y11686D01*
X10579Y11764D01*
X10549Y11837D01*
X10501Y11900D01*
X10438Y11948D01*
X10365Y11978D01*
X10287Y11988D01*
X10208Y11978D01*
X10135Y11948D01*
X10073Y11900D01*
X10070Y11896D01*
X10060Y11886D01*
X10049Y11877D01*
X10038Y11869D01*
X10028Y11863D01*
X10019Y11858D01*
X10010Y11854D01*
X10001Y11851D01*
X9993Y11849D01*
X9989Y11849D01*
X5421D01*
Y12032D01*
D02*
G37*
G36*
X5414Y16756D02*
X5148D01*
Y16460D01*
X5414D01*
Y16756D01*
D02*
G37*
G36*
X5048D02*
X4781D01*
Y16460D01*
X5048D01*
Y16756D01*
D02*
G37*
G36*
X4430D02*
X3797D01*
Y16064D01*
X3955D01*
X3963Y16025D01*
X3998Y15972D01*
X4385Y15585D01*
X4438Y15549D01*
X4501Y15537D01*
X9101D01*
X9163Y15549D01*
X9216Y15585D01*
X9706Y16075D01*
X9709Y16077D01*
X9716Y16081D01*
X9724Y16085D01*
X9733Y16089D01*
X9743Y16092D01*
X9755Y16095D01*
X9768Y16097D01*
X9782Y16098D01*
X9796Y16098D01*
X9801Y16097D01*
X9879Y16108D01*
X9952Y16138D01*
X10015Y16186D01*
X10063Y16249D01*
X10093Y16322D01*
X10103Y16400D01*
X10093Y16478D01*
X10063Y16551D01*
X10015Y16614D01*
X9952Y16662D01*
X9879Y16692D01*
X9801Y16703D01*
X9722Y16692D01*
X9649Y16662D01*
X9587Y16614D01*
X9539Y16551D01*
X9509Y16478D01*
X9498Y16400D01*
X9499Y16396D01*
X9499Y16381D01*
X9497Y16367D01*
X9495Y16354D01*
X9493Y16343D01*
X9490Y16332D01*
X9486Y16323D01*
X9482Y16315D01*
X9477Y16308D01*
X9475Y16305D01*
X9033Y15863D01*
X4568D01*
X4412Y16020D01*
X4430Y16064D01*
X4430D01*
Y16756D01*
D02*
G37*
G36*
X18043Y17950D02*
X17701D01*
Y17608D01*
X17754Y17615D01*
X17850Y17655D01*
X17933Y17718D01*
X17996Y17801D01*
X18036Y17897D01*
X18043Y17950D01*
D02*
G37*
G36*
X17601D02*
X17259D01*
X17266Y17897D01*
X17306Y17801D01*
X17369Y17718D01*
X17451Y17655D01*
X17548Y17615D01*
X17601Y17608D01*
Y17950D01*
D02*
G37*
G36*
X18046Y15950D02*
X17701D01*
Y15605D01*
X18046D01*
Y15950D01*
D02*
G37*
G36*
X17601D02*
X17256D01*
Y15605D01*
X17601D01*
Y15950D01*
D02*
G37*
G36*
X27283Y16845D02*
X27139Y16826D01*
X27005Y16770D01*
X26890Y16682D01*
X26802Y16567D01*
X26747Y16433D01*
X26728Y16290D01*
X26747Y16146D01*
X26802Y16012D01*
X26890Y15898D01*
X26993Y15819D01*
X26997Y15803D01*
Y15777D01*
X26993Y15761D01*
X26890Y15682D01*
X26802Y15567D01*
X26747Y15433D01*
X26746Y15425D01*
X26786Y15451D01*
X26827Y15482D01*
X26915Y15559D01*
X26961Y15605D01*
Y15340D01*
X27831D01*
X27819Y15433D01*
X27763Y15567D01*
X27675Y15682D01*
X27573Y15761D01*
X27568Y15777D01*
Y15803D01*
X27573Y15819D01*
X27675Y15898D01*
X27763Y16012D01*
X27819Y16146D01*
X27837Y16290D01*
X27819Y16433D01*
X27763Y16567D01*
X27675Y16682D01*
X27560Y16770D01*
X27426Y16826D01*
X27283Y16845D01*
D02*
G37*
G36*
X5414Y16360D02*
X5148D01*
Y16064D01*
X5414D01*
Y16360D01*
D02*
G37*
G36*
X5048D02*
X4781D01*
Y16064D01*
X5048D01*
Y16360D01*
D02*
G37*
G36*
X8701Y23603D02*
X8622Y23592D01*
X8549Y23562D01*
X8487Y23514D01*
X8484Y23510D01*
X8474Y23500D01*
X8463Y23491D01*
X8452Y23483D01*
X8442Y23477D01*
X8433Y23472D01*
X8424Y23468D01*
X8415Y23466D01*
X8407Y23464D01*
X8404Y23463D01*
X6309D01*
X6246Y23451D01*
X6193Y23415D01*
X4258Y21480D01*
X4237Y21460D01*
X4220Y21447D01*
X4219Y21446D01*
X3792D01*
Y20754D01*
X4425D01*
Y21178D01*
X4432Y21187D01*
X4457Y21218D01*
X6376Y23137D01*
X8404D01*
X8407Y23136D01*
X8415Y23134D01*
X8424Y23132D01*
X8433Y23128D01*
X8442Y23123D01*
X8452Y23117D01*
X8463Y23109D01*
X8474Y23100D01*
X8484Y23090D01*
X8487Y23086D01*
X8549Y23038D01*
X8622Y23008D01*
X8701Y22997D01*
X8779Y23008D01*
X8852Y23038D01*
X8915Y23086D01*
X8963Y23149D01*
X8993Y23222D01*
X9003Y23300D01*
X8993Y23378D01*
X8963Y23451D01*
X8915Y23514D01*
X8852Y23562D01*
X8779Y23592D01*
X8701Y23603D01*
D02*
G37*
G36*
X3251Y27550D02*
X2843D01*
X2853Y27480D01*
X2899Y27368D01*
X2973Y27272D01*
X3069Y27198D01*
X3181Y27152D01*
X3251Y27143D01*
Y27550D01*
D02*
G37*
G36*
X27083Y24339D02*
Y24242D01*
X27176Y24254D01*
X27310Y24309D01*
X27317Y24315D01*
X27270Y24324D01*
X27219Y24332D01*
X27102Y24339D01*
X27083Y24339D01*
D02*
G37*
G36*
X27437Y24740D02*
X27083D01*
Y24385D01*
X27437Y24740D01*
D02*
G37*
G36*
X27581D02*
X27483D01*
X27483Y24720D01*
X27491Y24604D01*
X27498Y24552D01*
X27508Y24506D01*
X27513Y24512D01*
X27569Y24646D01*
X27581Y24740D01*
D02*
G37*
G36*
X13501Y28203D02*
X13422Y28192D01*
X13349Y28162D01*
X13287Y28114D01*
X13239Y28051D01*
X13209Y27978D01*
X13198Y27900D01*
X13209Y27822D01*
X13239Y27749D01*
X13287Y27686D01*
X13349Y27638D01*
X13422Y27608D01*
X13501Y27597D01*
X13505Y27598D01*
X13514Y27598D01*
X13523Y27597D01*
X13532Y27595D01*
X13540Y27593D01*
X13548Y27589D01*
X13557Y27585D01*
X13565Y27581D01*
X13574Y27575D01*
X13575Y27573D01*
X14322Y26826D01*
Y23683D01*
X14322Y23682D01*
X14320Y23671D01*
X14318Y23662D01*
X14315Y23653D01*
X14311Y23645D01*
X14307Y23638D01*
X14302Y23630D01*
X14296Y23623D01*
X14290Y23616D01*
X14287Y23614D01*
X14239Y23551D01*
X14209Y23478D01*
X14198Y23400D01*
X14209Y23322D01*
X14239Y23249D01*
X14287Y23186D01*
X14349Y23138D01*
X14422Y23108D01*
X14501Y23097D01*
X14579Y23108D01*
X14652Y23138D01*
X14715Y23186D01*
X14763Y23249D01*
X14793Y23322D01*
X14803Y23400D01*
X14793Y23478D01*
X14763Y23551D01*
X14715Y23614D01*
X14711Y23616D01*
X14705Y23623D01*
X14700Y23630D01*
X14695Y23638D01*
X14690Y23645D01*
X14687Y23653D01*
X14684Y23662D01*
X14681Y23671D01*
X14679Y23682D01*
X14679Y23683D01*
Y26900D01*
X14679Y26900D01*
X14666Y26968D01*
X14627Y27026D01*
X14627Y27026D01*
X13827Y27826D01*
X13826Y27827D01*
X13820Y27836D01*
X13815Y27844D01*
X13811Y27852D01*
X13808Y27861D01*
X13806Y27869D01*
X13804Y27878D01*
X13803Y27887D01*
X13803Y27896D01*
X13803Y27900D01*
X13793Y27978D01*
X13763Y28051D01*
X13715Y28114D01*
X13652Y28162D01*
X13579Y28192D01*
X13501Y28203D01*
D02*
G37*
G36*
X2301Y28064D02*
X2181Y28048D01*
X2069Y28002D01*
X1973Y27928D01*
X1899Y27832D01*
X1853Y27720D01*
X1837Y27600D01*
X1853Y27480D01*
X1899Y27368D01*
X1973Y27272D01*
X1985Y27263D01*
X2013Y27234D01*
X2073Y27166D01*
X2096Y27137D01*
X2114Y27110D01*
X2129Y27086D01*
X2139Y27065D01*
X2145Y27048D01*
X2148Y27036D01*
X2148Y27035D01*
Y26450D01*
X2159Y26391D01*
X2193Y26342D01*
X3643Y24892D01*
X3692Y24859D01*
X3751Y24847D01*
X4246D01*
X4249Y24847D01*
X4256Y24845D01*
X4264Y24842D01*
X4274Y24837D01*
X4284Y24831D01*
X4294Y24824D01*
X4322Y24801D01*
X4334Y24790D01*
X4337Y24786D01*
X4399Y24738D01*
X4472Y24708D01*
X4551Y24697D01*
X4604Y24704D01*
X4627Y24657D01*
X3085Y23115D01*
X3050Y23062D01*
X3038Y23000D01*
Y20478D01*
X3050Y20415D01*
X3085Y20362D01*
X3768Y19680D01*
X3777Y19669D01*
X3790Y19654D01*
X3797Y19643D01*
Y19219D01*
X4430D01*
Y19911D01*
X4003D01*
X3970Y19940D01*
X3364Y20545D01*
Y22932D01*
X5368Y24937D01*
X8404D01*
X8407Y24936D01*
X8415Y24934D01*
X8424Y24932D01*
X8433Y24928D01*
X8442Y24923D01*
X8452Y24917D01*
X8463Y24909D01*
X8474Y24900D01*
X8484Y24890D01*
X8487Y24886D01*
X8549Y24838D01*
X8622Y24808D01*
X8701Y24797D01*
X8779Y24808D01*
X8852Y24838D01*
X8915Y24886D01*
X8963Y24949D01*
X8993Y25022D01*
X9003Y25100D01*
X8993Y25178D01*
X8963Y25251D01*
X8915Y25314D01*
X8852Y25362D01*
X8779Y25392D01*
X8701Y25403D01*
X8622Y25392D01*
X8549Y25362D01*
X8487Y25314D01*
X8484Y25310D01*
X8474Y25300D01*
X8463Y25291D01*
X8452Y25283D01*
X8442Y25277D01*
X8433Y25272D01*
X8424Y25268D01*
X8415Y25266D01*
X8407Y25264D01*
X8404Y25263D01*
X5301D01*
X5238Y25251D01*
X5185Y25215D01*
X4894Y24924D01*
X4846Y24947D01*
X4853Y25000D01*
X4843Y25078D01*
X4813Y25151D01*
X4765Y25214D01*
X4702Y25262D01*
X4629Y25292D01*
X4551Y25303D01*
X4472Y25292D01*
X4399Y25262D01*
X4337Y25214D01*
X4334Y25210D01*
X4321Y25198D01*
X4308Y25186D01*
X4296Y25177D01*
X4284Y25169D01*
X4274Y25163D01*
X4264Y25158D01*
X4256Y25155D01*
X4249Y25153D01*
X4246Y25153D01*
X3814D01*
X2454Y26513D01*
Y27035D01*
X2454Y27036D01*
X2457Y27048D01*
X2463Y27065D01*
X2473Y27086D01*
X2487Y27110D01*
X2506Y27137D01*
X2528Y27166D01*
X2589Y27234D01*
X2617Y27263D01*
X2629Y27272D01*
X2703Y27368D01*
X2749Y27480D01*
X2765Y27600D01*
X2749Y27720D01*
X2703Y27832D01*
X2629Y27928D01*
X2533Y28002D01*
X2421Y28048D01*
X2301Y28064D01*
D02*
G37*
G36*
X3758Y27550D02*
X3351D01*
Y27143D01*
X3421Y27152D01*
X3533Y27198D01*
X3629Y27272D01*
X3703Y27368D01*
X3749Y27480D01*
X3758Y27550D01*
D02*
G37*
G36*
X3301Y29064D02*
X3181Y29048D01*
X3069Y29002D01*
X2973Y28928D01*
X2899Y28832D01*
X2853Y28720D01*
X2837Y28600D01*
X2853Y28480D01*
X2899Y28368D01*
X2973Y28272D01*
X3069Y28198D01*
X3181Y28152D01*
X3301Y28136D01*
X3421Y28152D01*
X3533Y28198D01*
X3629Y28272D01*
X3703Y28368D01*
X3749Y28480D01*
X3765Y28600D01*
X3749Y28720D01*
X3703Y28832D01*
X3629Y28928D01*
X3533Y29002D01*
X3421Y29048D01*
X3301Y29064D01*
D02*
G37*
G36*
X3251Y28057D02*
X3181Y28048D01*
X3069Y28002D01*
X2973Y27928D01*
X2899Y27832D01*
X2853Y27720D01*
X2843Y27650D01*
X3251D01*
Y28057D01*
D02*
G37*
G36*
X3351D02*
Y27650D01*
X3758D01*
X3749Y27720D01*
X3703Y27832D01*
X3629Y27928D01*
X3533Y28002D01*
X3421Y28048D01*
X3351Y28057D01*
D02*
G37*
G36*
X1301Y29064D02*
X1181Y29048D01*
X1069Y29002D01*
X973Y28928D01*
X899Y28832D01*
X853Y28720D01*
X837Y28600D01*
X853Y28480D01*
X899Y28368D01*
X973Y28272D01*
X1069Y28198D01*
X1181Y28152D01*
X1301Y28136D01*
X1421Y28152D01*
X1533Y28198D01*
X1629Y28272D01*
X1703Y28368D01*
X1749Y28480D01*
X1765Y28600D01*
X1749Y28720D01*
X1703Y28832D01*
X1629Y28928D01*
X1533Y29002D01*
X1421Y29048D01*
X1301Y29064D01*
D02*
G37*
G36*
X2301D02*
X2181Y29048D01*
X2069Y29002D01*
X1973Y28928D01*
X1899Y28832D01*
X1853Y28720D01*
X1837Y28600D01*
X1853Y28480D01*
X1899Y28368D01*
X1973Y28272D01*
X2069Y28198D01*
X2181Y28152D01*
X2301Y28136D01*
X2421Y28152D01*
X2533Y28198D01*
X2629Y28272D01*
X2703Y28368D01*
X2749Y28480D01*
X2765Y28600D01*
X2749Y28720D01*
X2703Y28832D01*
X2629Y28928D01*
X2533Y29002D01*
X2421Y29048D01*
X2301Y29064D01*
D02*
G37*
G36*
X5043Y21446D02*
X4776D01*
Y21150D01*
X5043D01*
Y21446D01*
D02*
G37*
G36*
X5301Y28054D02*
X5183Y28038D01*
X5074Y27993D01*
X4980Y27921D01*
X4908Y27827D01*
X4862Y27717D01*
X4847Y27600D01*
X4862Y27483D01*
X4908Y27373D01*
X4980Y27279D01*
X5074Y27207D01*
X5183Y27162D01*
X5301Y27146D01*
X5418Y27162D01*
X5528Y27207D01*
X5622Y27279D01*
X5694Y27373D01*
X5739Y27483D01*
X5755Y27600D01*
X5739Y27717D01*
X5694Y27827D01*
X5622Y27921D01*
X5528Y27993D01*
X5418Y28038D01*
X5301Y28054D01*
D02*
G37*
G36*
X5409Y21446D02*
X5143D01*
Y21150D01*
X5409D01*
Y21446D01*
D02*
G37*
%LPD*%
G36*
X19757Y20630D02*
X19771Y20619D01*
X19786Y20610D01*
X19802Y20602D01*
X19819Y20595D01*
X19837Y20589D01*
X19856Y20585D01*
X19876Y20582D01*
X19897Y20580D01*
X19919Y20580D01*
X19721Y20382D01*
X19720Y20404D01*
X19719Y20425D01*
X19716Y20445D01*
X19711Y20464D01*
X19706Y20482D01*
X19699Y20499D01*
X19691Y20515D01*
X19681Y20530D01*
X19671Y20544D01*
X19659Y20557D01*
X19743Y20642D01*
X19757Y20630D01*
D02*
G37*
G36*
X18890Y21179D02*
X18945Y21132D01*
X18972Y21113D01*
X18997Y21097D01*
X19023Y21083D01*
X19047Y21073D01*
X19071Y21066D01*
X19094Y21061D01*
X19117Y21060D01*
Y20940D01*
X19094Y20939D01*
X19071Y20934D01*
X19047Y20927D01*
X19023Y20917D01*
X18997Y20903D01*
X18972Y20887D01*
X18945Y20868D01*
X18918Y20846D01*
X18862Y20793D01*
Y21207D01*
X18890Y21179D01*
D02*
G37*
G36*
X2561Y15018D02*
X2562Y14994D01*
X2564Y14971D01*
X2568Y14949D01*
X2574Y14928D01*
X2582Y14907D01*
X2591Y14887D01*
X2602Y14867D01*
X2615Y14849D01*
X2630Y14831D01*
X2646Y14813D01*
X2458Y14831D01*
X2356Y15103D01*
X2372Y15088D01*
X2386Y15077D01*
X2399Y15070D01*
X2410Y15068D01*
X2420Y15069D01*
X2427Y15075D01*
X2433Y15085D01*
X2437Y15098D01*
X2440Y15116D01*
X2441Y15138D01*
X2561Y15018D01*
D02*
G37*
G36*
X3895Y15140D02*
X3941Y15101D01*
X3961Y15086D01*
X3979Y15076D01*
X3995Y15069D01*
X4008Y15066D01*
X4020Y15067D01*
X4030Y15071D01*
X4038Y15079D01*
X3899Y14881D01*
X3905Y14892D01*
X3907Y14904D01*
X3906Y14917D01*
X3902Y14932D01*
X3895Y14948D01*
X3885Y14966D01*
X3872Y14985D01*
X3855Y15005D01*
X3836Y15027D01*
X3813Y15051D01*
X3869Y15165D01*
X3895Y15140D01*
D02*
G37*
G36*
X5586Y28810D02*
X5654Y28751D01*
X5687Y28727D01*
X5718Y28706D01*
X5748Y28690D01*
X5776Y28677D01*
X5804Y28667D01*
X5830Y28662D01*
X5856Y28660D01*
Y28540D01*
X5830Y28538D01*
X5804Y28533D01*
X5776Y28523D01*
X5748Y28510D01*
X5718Y28494D01*
X5687Y28473D01*
X5654Y28449D01*
X5621Y28422D01*
X5551Y28355D01*
Y28845D01*
X5586Y28810D01*
D02*
G37*
G36*
X24711Y24475D02*
X24669Y24516D01*
X24588Y24584D01*
X24548Y24612D01*
X24509Y24636D01*
X24471Y24655D01*
X24433Y24670D01*
X24396Y24681D01*
X24360Y24688D01*
X24324Y24690D01*
Y24890D01*
X24360Y24892D01*
X24396Y24898D01*
X24433Y24909D01*
X24471Y24924D01*
X24509Y24944D01*
X24548Y24967D01*
X24588Y24995D01*
X24628Y25027D01*
X24669Y25064D01*
X24711Y25105D01*
Y24475D01*
D02*
G37*
G36*
X18887Y16182D02*
X18913Y16159D01*
X18939Y16140D01*
X18964Y16122D01*
X18989Y16108D01*
X19014Y16096D01*
X19039Y16087D01*
X19064Y16080D01*
X19089Y16076D01*
X19114Y16075D01*
Y15925D01*
X19089Y15924D01*
X19064Y15920D01*
X19039Y15913D01*
X19014Y15904D01*
X18989Y15892D01*
X18964Y15878D01*
X18939Y15860D01*
X18913Y15841D01*
X18887Y15818D01*
X18862Y15793D01*
Y16207D01*
X18887Y16182D01*
D02*
G37*
G36*
X3501Y15624D02*
X3503Y15603D01*
X3506Y15583D01*
X3510Y15564D01*
X3516Y15546D01*
X3523Y15529D01*
X3531Y15513D01*
X3540Y15498D01*
X3551Y15484D01*
X3563Y15471D01*
X3478Y15386D01*
X3465Y15398D01*
X3451Y15409D01*
X3436Y15418D01*
X3420Y15426D01*
X3403Y15433D01*
X3385Y15439D01*
X3366Y15443D01*
X3346Y15446D01*
X3325Y15448D01*
X3303Y15448D01*
X3501Y15646D01*
X3501Y15624D01*
D02*
G37*
G36*
X26401Y26394D02*
X26377Y26366D01*
X26358Y26336D01*
X26345Y26305D01*
X26337Y26271D01*
X26335Y26236D01*
X26339Y26200D01*
X26348Y26161D01*
X26363Y26121D01*
X26384Y26079D01*
X26410Y26035D01*
X25818Y26186D01*
X26225Y26431D01*
X26401Y26394D01*
D02*
G37*
G36*
X1516Y27306D02*
X1455Y27236D01*
X1430Y27202D01*
X1409Y27170D01*
X1392Y27140D01*
X1378Y27110D01*
X1368Y27082D01*
X1363Y27055D01*
X1361Y27029D01*
X1241D01*
X1239Y27055D01*
X1233Y27082D01*
X1224Y27110D01*
X1210Y27140D01*
X1193Y27170D01*
X1172Y27202D01*
X1147Y27236D01*
X1085Y27306D01*
X1049Y27343D01*
X1553D01*
X1516Y27306D01*
D02*
G37*
G36*
X24711Y25475D02*
X24669Y25516D01*
X24588Y25584D01*
X24548Y25612D01*
X24509Y25636D01*
X24471Y25655D01*
X24433Y25670D01*
X24396Y25681D01*
X24360Y25688D01*
X24324Y25690D01*
Y25890D01*
X24360Y25892D01*
X24396Y25898D01*
X24433Y25909D01*
X24471Y25924D01*
X24509Y25944D01*
X24548Y25967D01*
X24588Y25995D01*
X24628Y26027D01*
X24669Y26064D01*
X24711Y26105D01*
Y25475D01*
D02*
G37*
G36*
X4222Y14590D02*
X4212Y14586D01*
X4203Y14581D01*
X4195Y14574D01*
X4188Y14565D01*
X4183Y14553D01*
X4179Y14540D01*
X4176Y14525D01*
X4174Y14507D01*
X4173Y14487D01*
X4053D01*
X4053Y14507D01*
X4051Y14525D01*
X4048Y14540D01*
X4044Y14553D01*
X4038Y14565D01*
X4032Y14574D01*
X4024Y14581D01*
X4015Y14586D01*
X4005Y14590D01*
X3993Y14591D01*
X4233D01*
X4222Y14590D01*
D02*
G37*
G36*
X3895Y13565D02*
X3941Y13526D01*
X3961Y13512D01*
X3979Y13501D01*
X3995Y13494D01*
X4008Y13491D01*
X4020Y13492D01*
X4030Y13496D01*
X4038Y13504D01*
X3899Y13306D01*
X3905Y13317D01*
X3907Y13329D01*
X3906Y13342D01*
X3902Y13357D01*
X3895Y13373D01*
X3885Y13391D01*
X3872Y13410D01*
X3855Y13431D01*
X3836Y13453D01*
X3813Y13476D01*
X3869Y13590D01*
X3895Y13565D01*
D02*
G37*
G36*
X17258Y19523D02*
X17173Y19438D01*
X16986Y19420D01*
X17001Y19436D01*
X17012Y19451D01*
X17019Y19463D01*
X17021Y19474D01*
X17020Y19484D01*
X17014Y19491D01*
X17005Y19497D01*
X16991Y19502D01*
X16973Y19504D01*
X16951Y19505D01*
X17071Y19625D01*
X17095Y19626D01*
X17118Y19628D01*
X17140Y19633D01*
X17161Y19639D01*
X17182Y19646D01*
X17202Y19656D01*
X17222Y19667D01*
X17240Y19679D01*
X17258Y19694D01*
X17276Y19710D01*
X17258Y19523D01*
D02*
G37*
G36*
X13408Y21836D02*
X13397Y21824D01*
X13387Y21810D01*
X13378Y21795D01*
X13371Y21779D01*
X13364Y21761D01*
X13359Y21742D01*
X13355Y21722D01*
X13353Y21700D01*
X13351Y21677D01*
X13351Y21652D01*
X13153Y21850D01*
X13177Y21850D01*
X13222Y21855D01*
X13243Y21859D01*
X13262Y21864D01*
X13280Y21870D01*
X13296Y21877D01*
X13311Y21886D01*
X13325Y21896D01*
X13337Y21907D01*
X13408Y21836D01*
D02*
G37*
G36*
X18890Y22179D02*
X18945Y22132D01*
X18972Y22113D01*
X18997Y22097D01*
X19023Y22083D01*
X19047Y22073D01*
X19071Y22066D01*
X19094Y22061D01*
X19117Y22060D01*
Y21940D01*
X19094Y21939D01*
X19071Y21934D01*
X19047Y21927D01*
X19023Y21917D01*
X18997Y21903D01*
X18972Y21887D01*
X18945Y21868D01*
X18918Y21846D01*
X18862Y21793D01*
Y22207D01*
X18890Y22179D01*
D02*
G37*
G36*
X17440Y21793D02*
X17410Y21823D01*
X17352Y21873D01*
X17325Y21894D01*
X17299Y21911D01*
X17274Y21925D01*
X17249Y21936D01*
X17226Y21944D01*
X17204Y21948D01*
X17183Y21950D01*
Y22050D01*
X17204Y22052D01*
X17226Y22056D01*
X17249Y22064D01*
X17274Y22075D01*
X17299Y22089D01*
X17325Y22106D01*
X17352Y22127D01*
X17410Y22177D01*
X17440Y22207D01*
Y21793D01*
D02*
G37*
G36*
X14462Y20660D02*
X14446Y20675D01*
X14430Y20689D01*
X14414Y20701D01*
X14397Y20711D01*
X14381Y20720D01*
X14364Y20727D01*
X14347Y20733D01*
X14329Y20737D01*
X14312Y20739D01*
X14294Y20740D01*
Y20860D01*
X14312Y20861D01*
X14329Y20863D01*
X14347Y20867D01*
X14364Y20873D01*
X14381Y20880D01*
X14397Y20889D01*
X14414Y20899D01*
X14430Y20911D01*
X14446Y20925D01*
X14462Y20940D01*
Y20660D01*
D02*
G37*
G36*
X22048Y21610D02*
X22062Y21599D01*
X22078Y21590D01*
X22094Y21582D01*
X22111Y21575D01*
X22129Y21569D01*
X22148Y21565D01*
X22168Y21562D01*
X22189Y21560D01*
X22210Y21560D01*
X22012Y21362D01*
X22012Y21384D01*
X22010Y21405D01*
X22007Y21425D01*
X22003Y21444D01*
X21997Y21462D01*
X21991Y21479D01*
X21982Y21495D01*
X21973Y21510D01*
X21962Y21524D01*
X21950Y21537D01*
X22035Y21622D01*
X22048Y21610D01*
D02*
G37*
G36*
X17648Y19705D02*
X17608Y19704D01*
X17536Y19699D01*
X17504Y19693D01*
X17474Y19687D01*
X17447Y19678D01*
X17422Y19668D01*
X17400Y19656D01*
X17381Y19643D01*
X17364Y19628D01*
X17279Y19713D01*
X17294Y19730D01*
X17307Y19749D01*
X17319Y19771D01*
X17329Y19796D01*
X17337Y19823D01*
X17344Y19853D01*
X17349Y19885D01*
X17353Y19920D01*
X17356Y19997D01*
X17648Y19705D01*
D02*
G37*
G36*
X6469Y20473D02*
X6504Y20444D01*
X6521Y20432D01*
X6538Y20422D01*
X6555Y20414D01*
X6572Y20408D01*
X6589Y20404D01*
X6606Y20401D01*
X6622Y20400D01*
Y20300D01*
X6606Y20299D01*
X6589Y20296D01*
X6572Y20292D01*
X6555Y20286D01*
X6538Y20278D01*
X6521Y20268D01*
X6504Y20256D01*
X6487Y20242D01*
X6469Y20227D01*
X6451Y20210D01*
Y20490D01*
X6469Y20473D01*
D02*
G37*
G36*
X10537Y17450D02*
X10551Y17439D01*
X10566Y17430D01*
X10582Y17422D01*
X10599Y17415D01*
X10617Y17409D01*
X10636Y17405D01*
X10656Y17402D01*
X10677Y17400D01*
X10699Y17400D01*
X10501Y17202D01*
X10500Y17224D01*
X10499Y17245D01*
X10496Y17265D01*
X10491Y17284D01*
X10486Y17302D01*
X10479Y17319D01*
X10471Y17335D01*
X10461Y17350D01*
X10451Y17364D01*
X10439Y17377D01*
X10523Y17462D01*
X10537Y17450D01*
D02*
G37*
G36*
X26299Y24420D02*
X26218Y24328D01*
X26184Y24285D01*
X26156Y24245D01*
X26133Y24206D01*
X26116Y24170D01*
X26103Y24136D01*
X26095Y24104D01*
X26093Y24074D01*
X25973D01*
X25970Y24104D01*
X25962Y24136D01*
X25950Y24170D01*
X25932Y24206D01*
X25909Y24245D01*
X25881Y24285D01*
X25848Y24328D01*
X25766Y24420D01*
X25718Y24468D01*
X26348D01*
X26299Y24420D01*
D02*
G37*
G36*
X17381Y17357D02*
X17400Y17344D01*
X17422Y17332D01*
X17447Y17322D01*
X17474Y17313D01*
X17504Y17307D01*
X17536Y17301D01*
X17571Y17298D01*
X17648Y17295D01*
X17356Y17003D01*
X17355Y17043D01*
X17349Y17115D01*
X17344Y17147D01*
X17337Y17177D01*
X17329Y17204D01*
X17319Y17229D01*
X17307Y17251D01*
X17294Y17270D01*
X17279Y17287D01*
X17364Y17372D01*
X17381Y17357D01*
D02*
G37*
G36*
X18890Y17179D02*
X18945Y17132D01*
X18972Y17113D01*
X18997Y17097D01*
X19023Y17083D01*
X19047Y17073D01*
X19071Y17066D01*
X19094Y17061D01*
X19117Y17060D01*
Y16940D01*
X19094Y16939D01*
X19071Y16934D01*
X19047Y16927D01*
X19023Y16917D01*
X18997Y16903D01*
X18972Y16887D01*
X18945Y16868D01*
X18918Y16846D01*
X18862Y16793D01*
Y17207D01*
X18890Y17179D01*
D02*
G37*
G36*
X18648Y17705D02*
X18608Y17704D01*
X18536Y17699D01*
X18504Y17693D01*
X18474Y17687D01*
X18447Y17678D01*
X18422Y17668D01*
X18400Y17656D01*
X18381Y17643D01*
X18363Y17628D01*
X18279Y17713D01*
X18294Y17730D01*
X18307Y17749D01*
X18319Y17771D01*
X18329Y17796D01*
X18337Y17823D01*
X18344Y17853D01*
X18349Y17885D01*
X18353Y17920D01*
X18356Y17997D01*
X18648Y17705D01*
D02*
G37*
G36*
X6197Y18379D02*
X6174Y18392D01*
X6110Y18424D01*
X6091Y18432D01*
X6055Y18444D01*
X6038Y18447D01*
X6022Y18449D01*
X6008Y18450D01*
X5981Y18550D01*
X5998Y18551D01*
X6015Y18554D01*
X6031Y18559D01*
X6047Y18566D01*
X6062Y18575D01*
X6076Y18586D01*
X6090Y18599D01*
X6103Y18614D01*
X6116Y18631D01*
X6127Y18650D01*
X6197Y18379D01*
D02*
G37*
G36*
X18651Y22900D02*
X18644Y22899D01*
X18635Y22894D01*
X18623Y22888D01*
X18610Y22878D01*
X18577Y22850D01*
X18538Y22814D01*
X18648Y22705D01*
X18605Y22704D01*
X18529Y22699D01*
X18496Y22694D01*
X18465Y22688D01*
X18437Y22680D01*
X18412Y22671D01*
X18390Y22660D01*
X18371Y22648D01*
X18355Y22634D01*
X18284Y22704D01*
X18298Y22720D01*
X18311Y22739D01*
X18322Y22761D01*
X18331Y22786D01*
X18339Y22814D01*
X18345Y22845D01*
X18350Y22879D01*
X18355Y22955D01*
X18356Y22997D01*
X18464Y22888D01*
X18538Y22973D01*
X18545Y22984D01*
X18549Y22993D01*
X18551Y23000D01*
X18651Y22900D01*
D02*
G37*
G36*
X5313Y18094D02*
X5317Y18083D01*
X5323Y18074D01*
X5331Y18067D01*
X5342Y18060D01*
X5355Y18055D01*
X5371Y18050D01*
X5389Y18047D01*
X5410Y18046D01*
X5433Y18045D01*
Y17925D01*
X5410Y17924D01*
X5389Y17923D01*
X5371Y17920D01*
X5355Y17915D01*
X5342Y17910D01*
X5331Y17903D01*
X5323Y17896D01*
X5317Y17887D01*
X5313Y17876D01*
X5312Y17865D01*
Y18105D01*
X5313Y18094D01*
D02*
G37*
G36*
X19043Y23251D02*
X19024Y23231D01*
X19008Y23210D01*
X18993Y23187D01*
X18980Y23164D01*
X18970Y23140D01*
X18961Y23114D01*
X18954Y23088D01*
X18949Y23061D01*
X18947Y23032D01*
X18946Y23003D01*
X18654Y23295D01*
X18683Y23296D01*
X18711Y23299D01*
X18739Y23303D01*
X18765Y23310D01*
X18790Y23319D01*
X18815Y23330D01*
X18838Y23342D01*
X18860Y23357D01*
X18882Y23374D01*
X18902Y23392D01*
X19043Y23251D01*
D02*
G37*
G36*
X4399Y18200D02*
X4381Y18181D01*
X4351Y18146D01*
X4340Y18130D01*
X4332Y18115D01*
X4326Y18102D01*
X4322Y18089D01*
X4322Y18078D01*
X4323Y18068D01*
X4328Y18059D01*
X4217Y18229D01*
X4223Y18222D01*
X4231Y18218D01*
X4241Y18218D01*
X4253Y18220D01*
X4266Y18226D01*
X4281Y18234D01*
X4298Y18246D01*
X4316Y18261D01*
X4358Y18301D01*
X4399Y18200D01*
D02*
G37*
G36*
X18043Y23251D02*
X18024Y23231D01*
X18008Y23210D01*
X17993Y23187D01*
X17980Y23164D01*
X17970Y23140D01*
X17961Y23114D01*
X17954Y23088D01*
X17949Y23061D01*
X17947Y23032D01*
X17946Y23003D01*
X17654Y23295D01*
X17683Y23296D01*
X17711Y23299D01*
X17739Y23303D01*
X17765Y23310D01*
X17790Y23319D01*
X17815Y23330D01*
X17838Y23342D01*
X17860Y23357D01*
X17882Y23374D01*
X17902Y23392D01*
X18043Y23251D01*
D02*
G37*
G36*
X9623Y14695D02*
X9605Y14713D01*
X9570Y14741D01*
X9553Y14753D01*
X9536Y14763D01*
X9519Y14771D01*
X9502Y14777D01*
X9485Y14782D01*
X9468Y14785D01*
X9452Y14785D01*
Y14885D01*
X9468Y14886D01*
X9485Y14889D01*
X9502Y14894D01*
X9519Y14900D01*
X9536Y14908D01*
X9553Y14918D01*
X9570Y14930D01*
X9587Y14943D01*
X9605Y14958D01*
X9623Y14975D01*
Y14695D01*
D02*
G37*
G36*
X5313Y14926D02*
X5316Y14917D01*
X5321Y14910D01*
X5328Y14903D01*
X5337Y14898D01*
X5348Y14893D01*
X5361Y14890D01*
X5377Y14887D01*
X5394Y14886D01*
X5413Y14885D01*
Y14785D01*
X5394Y14785D01*
X5377Y14783D01*
X5361Y14781D01*
X5348Y14777D01*
X5337Y14773D01*
X5328Y14767D01*
X5321Y14761D01*
X5316Y14753D01*
X5313Y14745D01*
X5312Y14735D01*
Y14935D01*
X5313Y14926D01*
D02*
G37*
G36*
X5313Y13409D02*
X5317Y13398D01*
X5323Y13389D01*
X5331Y13382D01*
X5342Y13375D01*
X5355Y13370D01*
X5371Y13365D01*
X5389Y13362D01*
X5410Y13361D01*
X5433Y13360D01*
Y13240D01*
X5410Y13239D01*
X5389Y13238D01*
X5371Y13235D01*
X5355Y13230D01*
X5342Y13225D01*
X5331Y13218D01*
X5323Y13211D01*
X5317Y13202D01*
X5313Y13191D01*
X5312Y13180D01*
Y13420D01*
X5313Y13409D01*
D02*
G37*
G36*
X9658Y13160D02*
X9642Y13175D01*
X9626Y13189D01*
X9610Y13201D01*
X9593Y13211D01*
X9577Y13220D01*
X9560Y13227D01*
X9543Y13233D01*
X9525Y13237D01*
X9508Y13239D01*
X9490Y13240D01*
Y13360D01*
X9508Y13361D01*
X9525Y13363D01*
X9543Y13367D01*
X9560Y13373D01*
X9577Y13380D01*
X9593Y13389D01*
X9610Y13399D01*
X9626Y13411D01*
X9642Y13425D01*
X9658Y13440D01*
Y13160D01*
D02*
G37*
G36*
X5320Y11794D02*
X5324Y11784D01*
X5330Y11775D01*
X5338Y11767D01*
X5349Y11761D01*
X5362Y11755D01*
X5378Y11751D01*
X5396Y11748D01*
X5417Y11746D01*
X5440Y11746D01*
Y11626D01*
X5417Y11625D01*
X5396Y11623D01*
X5378Y11620D01*
X5362Y11616D01*
X5349Y11611D01*
X5338Y11604D01*
X5330Y11596D01*
X5324Y11587D01*
X5320Y11577D01*
X5319Y11566D01*
Y11806D01*
X5320Y11794D01*
D02*
G37*
G36*
X10144Y11546D02*
X10128Y11561D01*
X10112Y11575D01*
X10096Y11587D01*
X10079Y11597D01*
X10063Y11606D01*
X10046Y11613D01*
X10029Y11619D01*
X10011Y11623D01*
X9994Y11625D01*
X9976Y11626D01*
Y11746D01*
X9994Y11747D01*
X10011Y11749D01*
X10029Y11753D01*
X10046Y11759D01*
X10063Y11766D01*
X10079Y11775D01*
X10096Y11785D01*
X10112Y11797D01*
X10128Y11811D01*
X10144Y11826D01*
Y11546D01*
D02*
G37*
G36*
X4222Y16165D02*
X4212Y16162D01*
X4203Y16158D01*
X4195Y16153D01*
X4188Y16146D01*
X4183Y16137D01*
X4179Y16127D01*
X4176Y16115D01*
X4174Y16102D01*
X4173Y16087D01*
X4053D01*
X4053Y16102D01*
X4051Y16115D01*
X4048Y16127D01*
X4044Y16137D01*
X4038Y16146D01*
X4032Y16153D01*
X4024Y16158D01*
X4015Y16162D01*
X4005Y16165D01*
X3993Y16165D01*
X4233D01*
X4222Y16165D01*
D02*
G37*
G36*
X9799Y16200D02*
X9777Y16200D01*
X9756Y16198D01*
X9736Y16195D01*
X9717Y16191D01*
X9699Y16185D01*
X9682Y16178D01*
X9666Y16170D01*
X9651Y16161D01*
X9637Y16150D01*
X9623Y16138D01*
X9539Y16223D01*
X9551Y16236D01*
X9561Y16250D01*
X9571Y16265D01*
X9579Y16281D01*
X9586Y16298D01*
X9591Y16316D01*
X9596Y16335D01*
X9599Y16355D01*
X9600Y16376D01*
X9601Y16398D01*
X9799Y16200D01*
D02*
G37*
G36*
X4409Y21315D02*
X4386Y21292D01*
X4350Y21249D01*
X4337Y21230D01*
X4327Y21213D01*
X4320Y21196D01*
X4316Y21182D01*
X4315Y21168D01*
X4317Y21156D01*
X4323Y21146D01*
X4184Y21344D01*
X4192Y21336D01*
X4202Y21331D01*
X4214Y21331D01*
X4228Y21334D01*
X4243Y21341D01*
X4261Y21351D01*
X4281Y21365D01*
X4303Y21383D01*
X4354Y21430D01*
X4409Y21315D01*
D02*
G37*
G36*
X8558Y23160D02*
X8542Y23175D01*
X8526Y23189D01*
X8510Y23201D01*
X8493Y23211D01*
X8477Y23220D01*
X8460Y23227D01*
X8443Y23233D01*
X8425Y23237D01*
X8408Y23239D01*
X8390Y23240D01*
Y23360D01*
X8408Y23361D01*
X8425Y23363D01*
X8443Y23367D01*
X8460Y23373D01*
X8477Y23380D01*
X8493Y23389D01*
X8510Y23399D01*
X8526Y23411D01*
X8542Y23425D01*
X8558Y23440D01*
Y23160D01*
D02*
G37*
G36*
X13701Y27880D02*
X13703Y27862D01*
X13707Y27845D01*
X13711Y27829D01*
X13718Y27812D01*
X13725Y27796D01*
X13734Y27781D01*
X13745Y27766D01*
X13757Y27751D01*
X13770Y27737D01*
X13664Y27631D01*
X13650Y27644D01*
X13635Y27656D01*
X13620Y27667D01*
X13604Y27676D01*
X13589Y27683D01*
X13572Y27689D01*
X13556Y27694D01*
X13538Y27698D01*
X13521Y27699D01*
X13503Y27700D01*
X13701Y27898D01*
X13701Y27880D01*
D02*
G37*
G36*
X14576Y23686D02*
X14578Y23667D01*
X14582Y23649D01*
X14586Y23632D01*
X14592Y23615D01*
X14599Y23599D01*
X14608Y23584D01*
X14617Y23570D01*
X14628Y23556D01*
X14641Y23543D01*
X14361D01*
X14373Y23556D01*
X14384Y23570D01*
X14394Y23584D01*
X14402Y23599D01*
X14410Y23615D01*
X14415Y23632D01*
X14420Y23649D01*
X14423Y23667D01*
X14425Y23686D01*
X14426Y23705D01*
X14576D01*
X14576Y23686D01*
D02*
G37*
G36*
X4408Y24860D02*
X4390Y24877D01*
X4356Y24906D01*
X4338Y24918D01*
X4321Y24927D01*
X4304Y24936D01*
X4287Y24942D01*
X4270Y24946D01*
X4254Y24949D01*
X4237Y24950D01*
Y25050D01*
X4254Y25051D01*
X4270Y25054D01*
X4287Y25058D01*
X4304Y25064D01*
X4321Y25073D01*
X4338Y25082D01*
X4356Y25094D01*
X4373Y25108D01*
X4390Y25123D01*
X4408Y25140D01*
Y24860D01*
D02*
G37*
G36*
X2514Y27304D02*
X2450Y27231D01*
X2424Y27197D01*
X2401Y27165D01*
X2383Y27134D01*
X2369Y27105D01*
X2359Y27078D01*
X2353Y27052D01*
X2351Y27027D01*
X2251D01*
X2249Y27052D01*
X2243Y27078D01*
X2233Y27105D01*
X2218Y27134D01*
X2200Y27165D01*
X2178Y27197D01*
X2152Y27231D01*
X2087Y27304D01*
X2049Y27343D01*
X2553D01*
X2514Y27304D01*
D02*
G37*
G36*
X8558Y24960D02*
X8542Y24975D01*
X8526Y24989D01*
X8510Y25001D01*
X8493Y25011D01*
X8477Y25020D01*
X8460Y25027D01*
X8443Y25033D01*
X8425Y25037D01*
X8408Y25039D01*
X8390Y25040D01*
Y25160D01*
X8408Y25161D01*
X8425Y25163D01*
X8443Y25167D01*
X8460Y25173D01*
X8477Y25180D01*
X8493Y25189D01*
X8510Y25199D01*
X8526Y25211D01*
X8542Y25225D01*
X8558Y25240D01*
Y24960D01*
D02*
G37*
G36*
X3895Y19870D02*
X3941Y19830D01*
X3961Y19816D01*
X3979Y19806D01*
X3995Y19799D01*
X4008Y19796D01*
X4020Y19796D01*
X4030Y19801D01*
X4038Y19809D01*
X3899Y19611D01*
X3905Y19621D01*
X3907Y19633D01*
X3906Y19647D01*
X3902Y19661D01*
X3895Y19678D01*
X3885Y19695D01*
X3872Y19714D01*
X3855Y19735D01*
X3836Y19757D01*
X3813Y19780D01*
X3869Y19895D01*
X3895Y19870D01*
D02*
G37*
%LPC*%
G36*
X-16300Y25441D02*
X-16391Y25429D01*
X-16477Y25393D01*
X-16550Y25337D01*
X-16606Y25264D01*
X-16641Y25179D01*
X-16653Y25088D01*
X-16641Y24996D01*
X-16606Y24911D01*
X-16550Y24838D01*
X-16477Y24782D01*
X-16391Y24747D01*
X-16300Y24735D01*
X-16209Y24747D01*
X-16123Y24782D01*
X-16050Y24838D01*
X-16046Y24844D01*
X-16033Y24856D01*
X-16018Y24869D01*
X-16004Y24879D01*
X-15990Y24888D01*
X-15976Y24895D01*
X-15963Y24901D01*
X-15950Y24905D01*
X-15937Y24908D01*
X-15930Y24909D01*
X-11896D01*
X-8628Y21641D01*
Y20374D01*
X-9245Y19758D01*
X-9274Y19731D01*
X-9296Y19712D01*
X-9300Y19709D01*
X-9895D01*
Y19017D01*
X-9105D01*
Y19378D01*
X-9100Y19387D01*
X-9089Y19403D01*
X-9057Y19441D01*
X-8324Y20174D01*
X-8324Y20174D01*
X-8285Y20232D01*
X-8272Y20300D01*
Y21715D01*
X-8285Y21783D01*
X-8324Y21841D01*
X-11696Y25214D01*
X-11754Y25252D01*
X-11823Y25266D01*
X-15930D01*
X-15937Y25267D01*
X-15950Y25270D01*
X-15963Y25274D01*
X-15976Y25280D01*
X-15990Y25287D01*
X-16004Y25296D01*
X-16018Y25306D01*
X-16033Y25319D01*
X-16046Y25331D01*
X-16050Y25337D01*
X-16123Y25393D01*
X-16209Y25429D01*
X-16300Y25441D01*
D02*
G37*
G36*
X-21269Y19200D02*
X-21599D01*
Y18870D01*
X-21269D01*
Y19200D01*
D02*
G37*
G36*
X-10529Y19742D02*
X-11123D01*
Y18991D01*
X-10709D01*
X-10709Y18990D01*
X-10663Y18951D01*
X-10123Y18410D01*
X-10123Y18410D01*
X-10065Y18372D01*
X-9996Y18358D01*
X-9996Y18358D01*
X-9912D01*
X-9902Y18357D01*
X-9895Y18356D01*
Y18191D01*
X-9105D01*
Y18883D01*
X-9895D01*
Y18758D01*
X-9945Y18738D01*
X-10484Y19276D01*
X-10495Y19289D01*
X-10511Y19309D01*
X-10522Y19326D01*
X-10529Y19338D01*
Y19742D01*
D02*
G37*
G36*
X-21699Y19200D02*
X-22029D01*
Y18870D01*
X-21699D01*
Y19200D01*
D02*
G37*
G36*
X-19549Y27253D02*
X-19628Y27242D01*
X-19701Y27212D01*
X-19763Y27164D01*
X-19811Y27101D01*
X-19841Y27028D01*
X-19852Y26950D01*
X-19841Y26872D01*
X-19811Y26799D01*
X-19763Y26736D01*
X-19760Y26734D01*
X-19754Y26727D01*
X-19748Y26720D01*
X-19743Y26712D01*
X-19739Y26705D01*
X-19735Y26697D01*
X-19732Y26688D01*
X-19730Y26679D01*
X-19728Y26668D01*
X-19728Y26667D01*
Y24450D01*
X-19714Y24382D01*
X-19675Y24324D01*
X-12876Y17525D01*
X-12876Y17525D01*
X-12526Y17174D01*
X-12525Y17173D01*
X-12519Y17164D01*
X-12514Y17156D01*
X-12510Y17148D01*
X-12507Y17139D01*
X-12504Y17131D01*
X-12503Y17122D01*
X-12502Y17113D01*
X-12501Y17104D01*
X-12502Y17100D01*
X-12491Y17022D01*
X-12461Y16949D01*
X-12413Y16886D01*
X-12351Y16838D01*
X-12278Y16808D01*
X-12199Y16797D01*
X-12121Y16808D01*
X-12048Y16838D01*
X-11985Y16886D01*
X-11937Y16949D01*
X-11907Y17022D01*
X-11897Y17100D01*
X-11907Y17178D01*
X-11937Y17251D01*
X-11985Y17314D01*
X-12048Y17362D01*
X-12121Y17392D01*
X-12199Y17403D01*
X-12203Y17402D01*
X-12212Y17402D01*
X-12221Y17403D01*
X-12230Y17405D01*
X-12238Y17407D01*
X-12247Y17411D01*
X-12255Y17415D01*
X-12263Y17419D01*
X-12272Y17425D01*
X-12273Y17427D01*
X-12515Y17668D01*
X-12525Y17681D01*
X-12536Y17697D01*
X-12546Y17714D01*
X-12554Y17732D01*
X-12561Y17750D01*
X-12566Y17769D01*
X-12570Y17789D01*
X-12572Y17804D01*
Y18902D01*
X-12522Y18912D01*
X-12506Y18873D01*
X-12450Y18800D01*
X-12377Y18744D01*
X-12291Y18709D01*
X-12200Y18697D01*
X-12109Y18709D01*
X-12023Y18744D01*
X-11950Y18800D01*
X-11894Y18873D01*
X-11859Y18959D01*
X-11855Y18991D01*
X-11277D01*
Y19742D01*
X-11871D01*
Y19529D01*
X-11884D01*
X-11946Y19517D01*
X-11999Y19482D01*
X-12046Y19434D01*
X-12052Y19430D01*
X-12062Y19425D01*
X-12074Y19419D01*
X-12088Y19414D01*
X-12105Y19410D01*
X-12123Y19407D01*
X-12171Y19402D01*
X-12192Y19402D01*
X-12200Y19403D01*
X-12228Y19399D01*
X-12251Y19447D01*
X-11826Y19872D01*
X-9987D01*
X-9918Y19885D01*
X-9860Y19924D01*
X-9637Y20147D01*
X-9624Y20159D01*
X-9603Y20175D01*
X-9586Y20187D01*
X-9580Y20191D01*
X-9105D01*
Y20883D01*
X-9895D01*
Y20402D01*
X-9899Y20397D01*
X-9937Y20352D01*
X-10061Y20228D01*
X-11900D01*
X-11900Y20228D01*
X-11968Y20215D01*
X-12026Y20176D01*
X-12026Y20176D01*
X-12876Y19326D01*
X-12915Y19268D01*
X-12928Y19200D01*
Y18147D01*
X-12975Y18128D01*
X-19371Y24524D01*
Y26667D01*
X-19371Y26668D01*
X-19369Y26679D01*
X-19366Y26688D01*
X-19363Y26697D01*
X-19360Y26705D01*
X-19355Y26712D01*
X-19350Y26720D01*
X-19345Y26727D01*
X-19339Y26734D01*
X-19335Y26736D01*
X-19287Y26799D01*
X-19257Y26872D01*
X-19247Y26950D01*
X-19257Y27028D01*
X-19287Y27101D01*
X-19335Y27164D01*
X-19398Y27212D01*
X-19471Y27242D01*
X-19549Y27253D01*
D02*
G37*
G36*
X-10903Y21326D02*
X-11497D01*
Y20922D01*
X-11504Y20910D01*
X-11515Y20894D01*
X-11546Y20857D01*
X-11707Y20695D01*
X-11980D01*
X-11987Y20696D01*
X-12000Y20699D01*
X-12013Y20703D01*
X-12026Y20709D01*
X-12040Y20716D01*
X-12054Y20725D01*
X-12068Y20736D01*
X-12083Y20749D01*
X-12096Y20761D01*
X-12100Y20767D01*
X-12173Y20823D01*
X-12259Y20858D01*
X-12350Y20870D01*
X-12441Y20858D01*
X-12527Y20823D01*
X-12600Y20767D01*
X-12656Y20693D01*
X-12691Y20608D01*
X-12703Y20517D01*
X-12691Y20426D01*
X-12656Y20340D01*
X-12600Y20267D01*
X-12527Y20211D01*
X-12441Y20176D01*
X-12350Y20164D01*
X-12259Y20176D01*
X-12173Y20211D01*
X-12100Y20267D01*
X-12096Y20273D01*
X-12083Y20285D01*
X-12068Y20298D01*
X-12054Y20309D01*
X-12040Y20318D01*
X-12026Y20325D01*
X-12013Y20330D01*
X-12000Y20335D01*
X-11987Y20338D01*
X-11980Y20338D01*
X-11633D01*
X-11565Y20352D01*
X-11507Y20391D01*
X-11371Y20527D01*
X-11341Y20554D01*
X-11318Y20573D01*
X-11317Y20574D01*
X-10903D01*
Y21326D01*
D02*
G37*
G36*
X-22649Y21633D02*
X-22748Y21620D01*
X-22841Y21582D01*
X-22920Y21521D01*
X-22981Y21442D01*
X-23019Y21349D01*
X-23032Y21250D01*
X-23019Y21151D01*
X-22981Y21058D01*
X-22920Y20979D01*
X-22841Y20918D01*
X-22748Y20880D01*
X-22649Y20867D01*
X-22550Y20880D01*
X-22458Y20918D01*
X-22378Y20979D01*
X-22317Y21058D01*
X-22279Y21151D01*
X-22266Y21250D01*
X-22279Y21349D01*
X-22317Y21442D01*
X-22378Y21521D01*
X-22458Y21582D01*
X-22550Y21620D01*
X-22649Y21633D01*
D02*
G37*
G36*
X-21269Y19630D02*
X-21599D01*
Y19300D01*
X-21269D01*
Y19630D01*
D02*
G37*
G36*
X-21699D02*
X-22029D01*
Y19300D01*
X-21699D01*
Y19630D01*
D02*
G37*
G36*
X-24591Y15650D02*
X-25099D01*
Y15142D01*
X-25003Y15154D01*
X-24867Y15211D01*
X-24750Y15301D01*
X-24660Y15418D01*
X-24604Y15554D01*
X-24591Y15650D01*
D02*
G37*
G36*
X-26149Y16265D02*
X-26295Y16246D01*
X-26432Y16189D01*
X-26549Y16099D01*
X-26638Y15982D01*
X-26695Y15846D01*
X-26714Y15700D01*
X-26695Y15554D01*
X-26638Y15418D01*
X-26549Y15301D01*
X-26432Y15211D01*
X-26295Y15154D01*
X-26149Y15135D01*
X-26003Y15154D01*
X-25867Y15211D01*
X-25750Y15301D01*
X-25679Y15392D01*
X-25619D01*
X-25549Y15301D01*
X-25432Y15211D01*
X-25295Y15154D01*
X-25199Y15142D01*
Y15700D01*
Y16258D01*
X-25295Y16246D01*
X-25432Y16189D01*
X-25549Y16099D01*
X-25619Y16008D01*
X-25679D01*
X-25750Y16099D01*
X-25867Y16189D01*
X-26003Y16246D01*
X-26149Y16265D01*
D02*
G37*
G36*
X-32149Y11349D02*
X-32292Y11334D01*
X-32430Y11293D01*
X-32557Y11225D01*
X-32668Y11134D01*
X-32759Y11023D01*
X-32827Y10896D01*
X-32869Y10758D01*
X-32883Y10615D01*
X-32869Y10472D01*
X-32827Y10334D01*
X-32759Y10207D01*
X-32668Y10096D01*
X-32557Y10005D01*
X-32430Y9937D01*
X-32292Y9896D01*
X-32149Y9881D01*
X-32006Y9896D01*
X-31869Y9937D01*
X-31742Y10005D01*
X-31631Y10096D01*
X-31539Y10207D01*
X-31472Y10334D01*
X-31430Y10472D01*
X-31416Y10615D01*
X-31430Y10758D01*
X-31472Y10896D01*
X-31539Y11023D01*
X-31631Y11134D01*
X-31742Y11225D01*
X-31869Y11293D01*
X-32006Y11334D01*
X-32149Y11349D01*
D02*
G37*
G36*
X-7299Y22453D02*
X-7391Y22441D01*
X-7476Y22406D01*
X-7549Y22350D01*
X-7605Y22277D01*
X-7640Y22191D01*
X-7652Y22100D01*
X-7640Y22009D01*
X-7605Y21923D01*
X-7558Y21863D01*
X-7558Y21862D01*
X-7557Y21854D01*
X-7554Y21814D01*
Y18906D01*
X-14209Y12251D01*
X-14264Y12168D01*
X-14284Y12070D01*
Y11350D01*
X-14286Y11323D01*
X-14292Y11287D01*
X-14300Y11259D01*
X-14308Y11239D01*
X-14315Y11228D01*
X-14319Y11223D01*
X-14321Y11222D01*
X-14323Y11221D01*
X-14330Y11220D01*
X-14479D01*
Y9780D01*
X-13578D01*
Y11220D01*
X-13728D01*
X-13735Y11221D01*
X-13737Y11222D01*
X-13739Y11223D01*
X-13743Y11228D01*
X-13750Y11239D01*
X-13758Y11259D01*
X-13765Y11287D01*
X-13772Y11323D01*
X-13774Y11350D01*
Y11965D01*
X-7119Y18620D01*
X-7064Y18702D01*
X-7044Y18800D01*
Y21829D01*
X-7042Y21852D01*
X-7040Y21862D01*
X-7040Y21863D01*
X-6993Y21923D01*
X-6958Y22009D01*
X-6946Y22100D01*
X-6958Y22191D01*
X-6993Y22277D01*
X-7050Y22350D01*
X-7123Y22406D01*
X-7208Y22441D01*
X-7299Y22453D01*
D02*
G37*
G36*
X-16149Y11349D02*
X-16292Y11334D01*
X-16430Y11293D01*
X-16557Y11225D01*
X-16668Y11134D01*
X-16759Y11023D01*
X-16827Y10896D01*
X-16869Y10758D01*
X-16883Y10615D01*
X-16869Y10472D01*
X-16827Y10334D01*
X-16759Y10207D01*
X-16668Y10096D01*
X-16557Y10005D01*
X-16430Y9937D01*
X-16292Y9896D01*
X-16149Y9881D01*
X-16006Y9896D01*
X-15869Y9937D01*
X-15742Y10005D01*
X-15631Y10096D01*
X-15539Y10207D01*
X-15472Y10334D01*
X-15430Y10472D01*
X-15416Y10615D01*
X-15430Y10758D01*
X-15472Y10896D01*
X-15539Y11023D01*
X-15631Y11134D01*
X-15742Y11225D01*
X-15869Y11293D01*
X-16006Y11334D01*
X-16149Y11349D01*
D02*
G37*
G36*
X-10903Y18876D02*
X-11497D01*
Y18124D01*
X-10903D01*
Y18263D01*
X-10853Y18284D01*
X-10255Y17685D01*
X-10250Y17680D01*
X-10242Y17668D01*
X-10234Y17654D01*
X-10226Y17638D01*
X-10219Y17621D01*
X-10213Y17604D01*
X-10200Y17559D01*
X-10195Y17534D01*
X-10193Y17529D01*
X-10190Y17509D01*
X-10155Y17423D01*
X-10099Y17350D01*
X-10026Y17294D01*
X-9941Y17259D01*
X-9849Y17247D01*
X-9758Y17259D01*
X-9673Y17294D01*
X-9600Y17350D01*
X-9543Y17423D01*
X-9508Y17509D01*
X-9496Y17600D01*
X-9508Y17691D01*
X-9543Y17777D01*
X-9600Y17850D01*
X-9673Y17906D01*
X-9758Y17941D01*
X-9849Y17953D01*
X-9909Y17945D01*
X-9916Y17945D01*
X-9938Y17942D01*
X-9953Y17941D01*
X-9968Y17941D01*
X-9980Y17942D01*
X-9991Y17944D01*
X-10002Y17948D01*
X-10011Y17952D01*
X-10021Y17957D01*
X-10026Y17962D01*
X-10691Y18626D01*
X-10749Y18665D01*
X-10817Y18678D01*
X-10887D01*
X-10896Y18679D01*
X-10903Y18680D01*
Y18876D01*
D02*
G37*
G36*
X-25099Y16258D02*
Y15750D01*
X-24591D01*
X-24604Y15846D01*
X-24660Y15982D01*
X-24750Y16099D01*
X-24867Y16189D01*
X-25003Y16246D01*
X-25099Y16258D01*
D02*
G37*
G36*
X-22649Y23633D02*
X-22748Y23620D01*
X-22841Y23582D01*
X-22920Y23521D01*
X-22981Y23442D01*
X-23019Y23349D01*
X-23032Y23250D01*
X-23019Y23151D01*
X-22981Y23058D01*
X-22920Y22979D01*
X-22841Y22918D01*
X-22748Y22880D01*
X-22649Y22867D01*
X-22550Y22880D01*
X-22458Y22918D01*
X-22378Y22979D01*
X-22317Y23058D01*
X-22279Y23151D01*
X-22266Y23250D01*
X-22279Y23349D01*
X-22317Y23442D01*
X-22378Y23521D01*
X-22458Y23582D01*
X-22550Y23620D01*
X-22649Y23633D01*
D02*
G37*
G36*
X-21649Y22633D02*
X-21748Y22620D01*
X-21841Y22582D01*
X-21920Y22521D01*
X-21981Y22442D01*
X-22019Y22349D01*
X-22032Y22250D01*
X-22019Y22151D01*
X-21981Y22058D01*
X-21920Y21979D01*
X-21841Y21918D01*
X-21748Y21880D01*
X-21649Y21867D01*
X-21550Y21880D01*
X-21458Y21918D01*
X-21378Y21979D01*
X-21317Y22058D01*
X-21279Y22151D01*
X-21266Y22250D01*
X-21279Y22349D01*
X-21317Y22442D01*
X-21378Y22521D01*
X-21458Y22582D01*
X-21550Y22620D01*
X-21649Y22633D01*
D02*
G37*
G36*
Y23633D02*
X-21748Y23620D01*
X-21841Y23582D01*
X-21920Y23521D01*
X-21981Y23442D01*
X-22019Y23349D01*
X-22032Y23250D01*
X-22019Y23151D01*
X-21981Y23058D01*
X-21920Y22979D01*
X-21841Y22918D01*
X-21748Y22880D01*
X-21649Y22867D01*
X-21550Y22880D01*
X-21458Y22918D01*
X-21378Y22979D01*
X-21317Y23058D01*
X-21279Y23151D01*
X-21266Y23250D01*
X-21279Y23349D01*
X-21317Y23442D01*
X-21378Y23521D01*
X-21458Y23582D01*
X-21550Y23620D01*
X-21649Y23633D01*
D02*
G37*
G36*
X-22649Y22633D02*
X-22748Y22620D01*
X-22841Y22582D01*
X-22920Y22521D01*
X-22981Y22442D01*
X-23019Y22349D01*
X-23032Y22250D01*
X-23019Y22151D01*
X-22981Y22058D01*
X-22920Y21979D01*
X-22841Y21918D01*
X-22748Y21880D01*
X-22649Y21867D01*
X-22550Y21880D01*
X-22458Y21918D01*
X-22378Y21979D01*
X-22317Y22058D01*
X-22279Y22151D01*
X-22266Y22250D01*
X-22279Y22349D01*
X-22317Y22442D01*
X-22378Y22521D01*
X-22458Y22582D01*
X-22550Y22620D01*
X-22649Y22633D01*
D02*
G37*
G36*
X-11624Y22192D02*
X-11871D01*
Y21866D01*
X-11624D01*
Y22192D01*
D02*
G37*
G36*
X-11277D02*
X-11524D01*
Y21866D01*
X-11277D01*
Y22192D01*
D02*
G37*
G36*
X-22649Y26633D02*
X-22748Y26620D01*
X-22841Y26582D01*
X-22920Y26521D01*
X-22981Y26442D01*
X-23019Y26349D01*
X-23032Y26250D01*
X-23019Y26151D01*
X-22981Y26058D01*
X-22920Y25979D01*
X-22841Y25918D01*
X-22748Y25880D01*
X-22649Y25867D01*
X-22550Y25880D01*
X-22458Y25918D01*
X-22378Y25979D01*
X-22317Y26058D01*
X-22279Y26151D01*
X-22266Y26250D01*
X-22279Y26349D01*
X-22317Y26442D01*
X-22378Y26521D01*
X-22458Y26582D01*
X-22550Y26620D01*
X-22649Y26633D01*
D02*
G37*
G36*
X-21649Y24633D02*
X-21748Y24620D01*
X-21841Y24582D01*
X-21920Y24521D01*
X-21981Y24442D01*
X-22019Y24349D01*
X-22032Y24250D01*
X-22019Y24151D01*
X-21981Y24058D01*
X-21920Y23979D01*
X-21841Y23918D01*
X-21748Y23880D01*
X-21649Y23867D01*
X-21550Y23880D01*
X-21458Y23918D01*
X-21378Y23979D01*
X-21317Y24058D01*
X-21279Y24151D01*
X-21266Y24250D01*
X-21279Y24349D01*
X-21317Y24442D01*
X-21378Y24521D01*
X-21458Y24582D01*
X-21550Y24620D01*
X-21649Y24633D01*
D02*
G37*
G36*
X-22649D02*
X-22748Y24620D01*
X-22841Y24582D01*
X-22920Y24521D01*
X-22981Y24442D01*
X-23019Y24349D01*
X-23032Y24250D01*
X-23019Y24151D01*
X-22981Y24058D01*
X-22920Y23979D01*
X-22841Y23918D01*
X-22748Y23880D01*
X-22649Y23867D01*
X-22550Y23880D01*
X-22458Y23918D01*
X-22378Y23979D01*
X-22317Y24058D01*
X-22279Y24151D01*
X-22266Y24250D01*
X-22279Y24349D01*
X-22317Y24442D01*
X-22378Y24521D01*
X-22458Y24582D01*
X-22550Y24620D01*
X-22649Y24633D01*
D02*
G37*
G36*
X-21649Y25633D02*
X-21748Y25620D01*
X-21841Y25582D01*
X-21920Y25521D01*
X-21981Y25442D01*
X-22019Y25349D01*
X-22032Y25250D01*
X-22019Y25151D01*
X-21981Y25058D01*
X-21920Y24979D01*
X-21841Y24918D01*
X-21748Y24880D01*
X-21649Y24867D01*
X-21550Y24880D01*
X-21458Y24918D01*
X-21378Y24979D01*
X-21317Y25058D01*
X-21279Y25151D01*
X-21266Y25250D01*
X-21279Y25349D01*
X-21317Y25442D01*
X-21378Y25521D01*
X-21458Y25582D01*
X-21550Y25620D01*
X-21649Y25633D01*
D02*
G37*
G36*
X-22649D02*
X-22748Y25620D01*
X-22841Y25582D01*
X-22920Y25521D01*
X-22981Y25442D01*
X-23019Y25349D01*
X-23032Y25250D01*
X-23019Y25151D01*
X-22981Y25058D01*
X-22920Y24979D01*
X-22841Y24918D01*
X-22748Y24880D01*
X-22649Y24867D01*
X-22550Y24880D01*
X-22458Y24918D01*
X-22378Y24979D01*
X-22317Y25058D01*
X-22279Y25151D01*
X-22266Y25250D01*
X-22279Y25349D01*
X-22317Y25442D01*
X-22378Y25521D01*
X-22458Y25582D01*
X-22550Y25620D01*
X-22649Y25633D01*
D02*
G37*
G36*
X-11624Y21766D02*
X-11871D01*
Y21441D01*
X-11624D01*
Y21766D01*
D02*
G37*
G36*
X-21599Y21627D02*
Y21300D01*
X-21273D01*
X-21279Y21349D01*
X-21317Y21442D01*
X-21378Y21521D01*
X-21458Y21582D01*
X-21550Y21620D01*
X-21599Y21627D01*
D02*
G37*
G36*
X-16149Y30849D02*
X-16292Y30834D01*
X-16430Y30793D01*
X-16557Y30725D01*
X-16668Y30634D01*
X-16759Y30523D01*
X-16827Y30396D01*
X-16869Y30258D01*
X-16883Y30115D01*
X-16869Y29972D01*
X-16827Y29834D01*
X-16759Y29707D01*
X-16668Y29596D01*
X-16557Y29505D01*
X-16430Y29437D01*
X-16292Y29396D01*
X-16149Y29381D01*
X-16006Y29396D01*
X-15869Y29437D01*
X-15742Y29505D01*
X-15631Y29596D01*
X-15539Y29707D01*
X-15472Y29834D01*
X-15430Y29972D01*
X-15416Y30115D01*
X-15430Y30258D01*
X-15472Y30396D01*
X-15539Y30523D01*
X-15631Y30634D01*
X-15742Y30725D01*
X-15869Y30793D01*
X-16006Y30834D01*
X-16149Y30849D01*
D02*
G37*
G36*
X-32149D02*
X-32292Y30834D01*
X-32430Y30793D01*
X-32557Y30725D01*
X-32668Y30634D01*
X-32759Y30523D01*
X-32827Y30396D01*
X-32869Y30258D01*
X-32883Y30115D01*
X-32869Y29972D01*
X-32827Y29834D01*
X-32759Y29707D01*
X-32668Y29596D01*
X-32557Y29505D01*
X-32430Y29437D01*
X-32292Y29396D01*
X-32149Y29381D01*
X-32006Y29396D01*
X-31869Y29437D01*
X-31742Y29505D01*
X-31631Y29596D01*
X-31539Y29707D01*
X-31472Y29834D01*
X-31430Y29972D01*
X-31416Y30115D01*
X-31430Y30258D01*
X-31472Y30396D01*
X-31539Y30523D01*
X-31631Y30634D01*
X-31742Y30725D01*
X-31869Y30793D01*
X-32006Y30834D01*
X-32149Y30849D01*
D02*
G37*
G36*
X-1092Y32341D02*
X-7974D01*
Y30250D01*
X-1092D01*
Y32341D01*
D02*
G37*
G36*
X-10529Y22192D02*
X-11123D01*
Y21441D01*
X-10529D01*
Y21636D01*
X-10522Y21637D01*
X-10513Y21638D01*
X-10027D01*
X-9945Y21556D01*
X-9918Y21527D01*
X-9900Y21505D01*
X-9895Y21498D01*
Y21454D01*
X-9896Y21452D01*
X-9895Y21447D01*
Y21017D01*
X-9105D01*
Y21709D01*
X-9532D01*
X-9536Y21710D01*
X-9539Y21709D01*
X-9579D01*
X-9586Y21713D01*
X-9602Y21724D01*
X-9641Y21757D01*
X-9827Y21942D01*
X-9884Y21981D01*
X-9953Y21995D01*
X-10513D01*
X-10522Y21995D01*
X-10529Y21997D01*
Y22192D01*
D02*
G37*
G36*
X-21699Y21627D02*
X-21748Y21620D01*
X-21841Y21582D01*
X-21920Y21521D01*
X-21981Y21442D01*
X-22019Y21349D01*
X-22026Y21300D01*
X-21699D01*
Y21627D01*
D02*
G37*
G36*
X-11277Y21766D02*
X-11524D01*
Y21441D01*
X-11277D01*
Y21766D01*
D02*
G37*
%LPD*%
G36*
X-16102Y25244D02*
X-16082Y25227D01*
X-16061Y25212D01*
X-16041Y25199D01*
X-16020Y25188D01*
X-15999Y25179D01*
X-15977Y25172D01*
X-15956Y25167D01*
X-15934Y25164D01*
X-15912Y25163D01*
Y25013D01*
X-15934Y25012D01*
X-15956Y25009D01*
X-15977Y25004D01*
X-15999Y24997D01*
X-16020Y24988D01*
X-16041Y24977D01*
X-16061Y24964D01*
X-16082Y24949D01*
X-16102Y24932D01*
X-16121Y24913D01*
Y25263D01*
X-16102Y25244D01*
D02*
G37*
G36*
X-9100Y19544D02*
X-9127Y19516D01*
X-9170Y19465D01*
X-9186Y19441D01*
X-9199Y19419D01*
X-9207Y19399D01*
X-9213Y19380D01*
X-9215Y19362D01*
X-9213Y19346D01*
X-9207Y19332D01*
X-9354Y19607D01*
X-9345Y19596D01*
X-9334Y19589D01*
X-9319Y19588D01*
X-9302Y19591D01*
X-9283Y19600D01*
X-9260Y19613D01*
X-9235Y19631D01*
X-9206Y19654D01*
X-9142Y19714D01*
X-9100Y19544D01*
D02*
G37*
G36*
X-9793Y18387D02*
X-9794Y18401D01*
X-9799Y18414D01*
X-9806Y18425D01*
X-9817Y18435D01*
X-9831Y18443D01*
X-9847Y18450D01*
X-9867Y18455D01*
X-9890Y18459D01*
X-9915Y18461D01*
X-9944Y18462D01*
Y18612D01*
X-9915Y18612D01*
X-9890Y18615D01*
X-9867Y18618D01*
X-9847Y18624D01*
X-9831Y18630D01*
X-9817Y18639D01*
X-9806Y18648D01*
X-9799Y18660D01*
X-9794Y18672D01*
X-9793Y18687D01*
Y18387D01*
D02*
G37*
G36*
X-10636Y19368D02*
X-10638Y19351D01*
X-10636Y19333D01*
X-10630Y19314D01*
X-10621Y19294D01*
X-10609Y19272D01*
X-10593Y19248D01*
X-10573Y19224D01*
X-10551Y19198D01*
X-10524Y19170D01*
X-10552Y18986D01*
X-10586Y19019D01*
X-10646Y19071D01*
X-10672Y19089D01*
X-10694Y19102D01*
X-10714Y19110D01*
X-10731Y19114D01*
X-10745Y19112D01*
X-10756Y19105D01*
X-10764Y19093D01*
X-10632Y19383D01*
X-10636Y19368D01*
D02*
G37*
G36*
X-19422Y26794D02*
X-19433Y26780D01*
X-19442Y26766D01*
X-19451Y26751D01*
X-19458Y26735D01*
X-19464Y26718D01*
X-19468Y26701D01*
X-19472Y26683D01*
X-19474Y26664D01*
X-19474Y26645D01*
X-19624D01*
X-19625Y26664D01*
X-19627Y26683D01*
X-19630Y26701D01*
X-19635Y26718D01*
X-19640Y26735D01*
X-19648Y26751D01*
X-19656Y26766D01*
X-19666Y26780D01*
X-19677Y26794D01*
X-19689Y26807D01*
X-19409D01*
X-19422Y26794D01*
D02*
G37*
G36*
X-11880Y19285D02*
X-11894Y19270D01*
X-11906Y19253D01*
X-11916Y19234D01*
X-11926Y19214D01*
X-11933Y19191D01*
X-11940Y19167D01*
X-11944Y19141D01*
X-11948Y19113D01*
X-11950Y19084D01*
X-11950Y19052D01*
X-12198Y19300D01*
X-12166Y19300D01*
X-12109Y19306D01*
X-12083Y19310D01*
X-12059Y19317D01*
X-12036Y19324D01*
X-12016Y19334D01*
X-11997Y19344D01*
X-11980Y19356D01*
X-11965Y19370D01*
X-11880Y19285D01*
D02*
G37*
G36*
X-11768Y19246D02*
X-11770Y19258D01*
X-11773Y19268D01*
X-11779Y19277D01*
X-11787Y19285D01*
X-11797Y19291D01*
X-11810Y19297D01*
X-11825Y19301D01*
X-11842Y19304D01*
X-11862Y19306D01*
X-11884Y19306D01*
Y19426D01*
X-11862Y19427D01*
X-11842Y19429D01*
X-11825Y19432D01*
X-11810Y19436D01*
X-11797Y19441D01*
X-11787Y19448D01*
X-11779Y19456D01*
X-11773Y19465D01*
X-11770Y19475D01*
X-11768Y19486D01*
Y19246D01*
D02*
G37*
G36*
X-9533Y20293D02*
X-9546Y20299D01*
X-9562Y20302D01*
X-9579Y20300D01*
X-9598Y20295D01*
X-9618Y20286D01*
X-9640Y20274D01*
X-9664Y20257D01*
X-9689Y20237D01*
X-9716Y20213D01*
X-9745Y20186D01*
X-9900Y20243D01*
X-9868Y20276D01*
X-9818Y20334D01*
X-9800Y20359D01*
X-9787Y20382D01*
X-9779Y20401D01*
X-9775Y20419D01*
X-9776Y20433D01*
X-9782Y20445D01*
X-9793Y20455D01*
X-9533Y20293D01*
D02*
G37*
G36*
X-12348Y17356D02*
X-12333Y17344D01*
X-12318Y17333D01*
X-12303Y17324D01*
X-12287Y17317D01*
X-12271Y17311D01*
X-12254Y17306D01*
X-12237Y17302D01*
X-12219Y17301D01*
X-12201Y17300D01*
X-12399Y17102D01*
X-12400Y17120D01*
X-12402Y17138D01*
X-12405Y17155D01*
X-12410Y17171D01*
X-12416Y17188D01*
X-12424Y17204D01*
X-12433Y17219D01*
X-12443Y17234D01*
X-12455Y17249D01*
X-12468Y17263D01*
X-12362Y17369D01*
X-12348Y17356D01*
D02*
G37*
G36*
X-12675Y17832D02*
X-12674Y17802D01*
X-12671Y17774D01*
X-12665Y17746D01*
X-12658Y17719D01*
X-12648Y17693D01*
X-12637Y17668D01*
X-12623Y17643D01*
X-12607Y17620D01*
X-12589Y17597D01*
X-12569Y17576D01*
X-12803Y17598D01*
X-12931Y17938D01*
X-12911Y17919D01*
X-12893Y17906D01*
X-12877Y17897D01*
X-12863Y17894D01*
X-12852Y17896D01*
X-12842Y17903D01*
X-12835Y17915D01*
X-12829Y17932D01*
X-12826Y17954D01*
X-12825Y17982D01*
X-12675Y17832D01*
D02*
G37*
G36*
X-12152Y20673D02*
X-12132Y20656D01*
X-12111Y20641D01*
X-12091Y20628D01*
X-12070Y20617D01*
X-12049Y20608D01*
X-12027Y20601D01*
X-12006Y20596D01*
X-11984Y20593D01*
X-11962Y20592D01*
Y20442D01*
X-11984Y20441D01*
X-12006Y20438D01*
X-12027Y20433D01*
X-12049Y20426D01*
X-12070Y20417D01*
X-12091Y20406D01*
X-12111Y20393D01*
X-12132Y20378D01*
X-12152Y20361D01*
X-12171Y20342D01*
Y20692D01*
X-12152Y20673D01*
D02*
G37*
G36*
X-11262Y20677D02*
X-11270Y20689D01*
X-11281Y20696D01*
X-11295Y20697D01*
X-11312Y20694D01*
X-11332Y20686D01*
X-11354Y20673D01*
X-11380Y20654D01*
X-11409Y20631D01*
X-11474Y20570D01*
X-11502Y20754D01*
X-11475Y20782D01*
X-11433Y20832D01*
X-11417Y20856D01*
X-11405Y20877D01*
X-11396Y20898D01*
X-11390Y20917D01*
X-11388Y20935D01*
X-11390Y20951D01*
X-11394Y20966D01*
X-11262Y20677D01*
D02*
G37*
G36*
X-13877Y11362D02*
X-13873Y11310D01*
X-13865Y11265D01*
X-13855Y11226D01*
X-13841Y11193D01*
X-13825Y11166D01*
X-13805Y11145D01*
X-13783Y11130D01*
X-13757Y11121D01*
X-13729Y11118D01*
X-14329D01*
X-14300Y11121D01*
X-14275Y11130D01*
X-14252Y11145D01*
X-14233Y11166D01*
X-14216Y11193D01*
X-14203Y11226D01*
X-14192Y11265D01*
X-14185Y11310D01*
X-14180Y11362D01*
X-14179Y11419D01*
X-13879D01*
X-13877Y11362D01*
D02*
G37*
G36*
X-7129Y21915D02*
X-7133Y21907D01*
X-7137Y21896D01*
X-7140Y21882D01*
X-7143Y21866D01*
X-7147Y21827D01*
X-7149Y21778D01*
X-7149Y21750D01*
X-7449D01*
X-7449Y21778D01*
X-7455Y21866D01*
X-7458Y21882D01*
X-7461Y21896D01*
X-7465Y21907D01*
X-7469Y21915D01*
X-7474Y21921D01*
X-7124D01*
X-7129Y21915D01*
D02*
G37*
G36*
X-10095Y17886D02*
X-10077Y17872D01*
X-10058Y17861D01*
X-10038Y17852D01*
X-10017Y17846D01*
X-9996Y17841D01*
X-9973Y17839D01*
X-9949Y17839D01*
X-9925Y17841D01*
X-9900Y17845D01*
X-10095Y17555D01*
X-10101Y17583D01*
X-10115Y17635D01*
X-10124Y17659D01*
X-10134Y17681D01*
X-10144Y17702D01*
X-10156Y17722D01*
X-10168Y17741D01*
X-10182Y17758D01*
X-10196Y17773D01*
X-10112Y17901D01*
X-10095Y17886D01*
D02*
G37*
G36*
X-11004Y18636D02*
X-10999Y18623D01*
X-10992Y18612D01*
X-10981Y18602D01*
X-10968Y18594D01*
X-10951Y18587D01*
X-10931Y18582D01*
X-10909Y18578D01*
X-10883Y18576D01*
X-10854Y18575D01*
Y18425D01*
X-10883Y18424D01*
X-10909Y18422D01*
X-10931Y18418D01*
X-10951Y18413D01*
X-10968Y18406D01*
X-10981Y18398D01*
X-10992Y18388D01*
X-10999Y18377D01*
X-11004Y18364D01*
X-11006Y18350D01*
Y18650D01*
X-11004Y18636D01*
D02*
G37*
G36*
X-10630Y21952D02*
X-10625Y21939D01*
X-10618Y21928D01*
X-10607Y21918D01*
X-10594Y21910D01*
X-10577Y21903D01*
X-10557Y21898D01*
X-10535Y21894D01*
X-10509Y21892D01*
X-10480Y21891D01*
Y21741D01*
X-10509Y21740D01*
X-10535Y21738D01*
X-10557Y21734D01*
X-10577Y21729D01*
X-10594Y21722D01*
X-10607Y21714D01*
X-10618Y21704D01*
X-10625Y21693D01*
X-10630Y21680D01*
X-10632Y21666D01*
Y21966D01*
X-10630Y21952D01*
D02*
G37*
G36*
X-9716Y21687D02*
X-9664Y21643D01*
X-9640Y21627D01*
X-9618Y21614D01*
X-9598Y21606D01*
X-9579Y21601D01*
X-9562Y21599D01*
X-9547Y21602D01*
X-9533Y21608D01*
X-9794Y21445D01*
X-9783Y21455D01*
X-9777Y21467D01*
X-9776Y21482D01*
X-9780Y21499D01*
X-9788Y21519D01*
X-9801Y21541D01*
X-9819Y21566D01*
X-9841Y21594D01*
X-9900Y21657D01*
X-9745Y21714D01*
X-9716Y21687D01*
D02*
G37*
D10*
X-11200Y18500D02*
D03*
X-11574Y19366D02*
D03*
X-10826D02*
D03*
X-11200Y20950D02*
D03*
X-11574Y21816D02*
D03*
X-10826D02*
D03*
D11*
X-9500Y21363D02*
D03*
Y20537D02*
D03*
Y19363D02*
D03*
Y18537D02*
D03*
D12*
X-14029Y10500D02*
D03*
X-11970D02*
D03*
D13*
X5093Y21100D02*
D03*
X4109D02*
D03*
X5098Y17985D02*
D03*
X4113D02*
D03*
X5098Y13261D02*
D03*
X4113D02*
D03*
X5098Y16410D02*
D03*
X4113D02*
D03*
X5098Y14835D02*
D03*
X4113D02*
D03*
X5105Y11686D02*
D03*
X4120D02*
D03*
X5098Y19565D02*
D03*
X4113D02*
D03*
D14*
X-24884Y33015D02*
X-22889D01*
X-25259Y32640D02*
X-24884Y33015D01*
X-22889D02*
X-22829Y32955D01*
X-25259Y32390D02*
Y32640D01*
D15*
X-7299Y18800D02*
Y22100D01*
X-14029Y12070D02*
X-7299Y18800D01*
X-14029Y10500D02*
Y12070D01*
X-27299Y32390D02*
X-26259D01*
X-7899Y5990D02*
Y8950D01*
D16*
X-12200Y19050D02*
X-11884Y19366D01*
X-11574D01*
X5098Y13261D02*
X5158Y13200D01*
X5258Y13300D01*
X9801D01*
X5105Y11686D02*
X10287D01*
X9101Y15700D02*
X9801Y16400D01*
X9916Y17985D02*
X10701Y17200D01*
X5098Y17985D02*
X9916D01*
X4109Y21100D02*
X6309Y23300D01*
X8701D01*
X5301Y25100D02*
X8701D01*
X3201Y23000D02*
X5301Y25100D01*
X3201Y20478D02*
Y23000D01*
Y20478D02*
X4113Y19565D01*
Y14487D02*
Y14835D01*
Y14487D02*
X4501Y14100D01*
X11001D01*
X4113Y16087D02*
Y16410D01*
Y16087D02*
X4501Y15700D01*
X9101D01*
X18651Y17000D02*
X19921D01*
X26033Y23112D01*
Y24790D01*
X21572Y22000D02*
X22212Y21360D01*
X18651Y22000D02*
X21572D01*
X19301Y21000D02*
X19921Y20380D01*
X18651Y21000D02*
X19301D01*
X11001Y14100D02*
X13401Y16500D01*
X17951D01*
X18161Y16710D01*
X16901Y17750D02*
X17651Y17000D01*
X11401Y20800D02*
X14605D01*
X9851Y22350D02*
X11401Y20800D01*
X9851Y22350D02*
Y26616D01*
X7867Y28600D02*
X9851Y26616D01*
X5301Y28600D02*
X7867D01*
X18161Y16710D02*
Y17510D01*
X18651Y18000D01*
X2501Y14873D02*
X4113Y13261D01*
X2501Y14873D02*
Y17771D01*
X3301Y15648D02*
X4113Y14835D01*
X1301Y16073D02*
Y27600D01*
Y16073D02*
X2501Y14873D01*
Y17771D02*
X3680Y18950D01*
X6571D01*
X16901Y17750D02*
Y19250D01*
X17651Y20000D01*
X6571Y18950D02*
X7186Y19565D01*
X17216D01*
X17651Y20000D01*
X-22829Y32955D02*
X-20199Y30325D01*
X-7535Y31997D02*
X-7480Y32024D01*
X-7399Y32105D01*
Y31537D01*
X-6955Y32105D02*
X-7036Y32078D01*
X-7090Y31997D01*
X-7118Y31862D01*
Y31780D01*
X-7090Y31645D01*
X-7036Y31564D01*
X-6955Y31537D01*
X-6901D01*
X-6820Y31564D01*
X-6766Y31645D01*
X-6738Y31780D01*
Y31862D01*
X-6766Y31997D01*
X-6820Y32078D01*
X-6901Y32105D01*
X-6955D01*
X-6584Y31970D02*
Y31997D01*
X-6557Y32051D01*
X-6530Y32078D01*
X-6476Y32105D01*
X-6367D01*
X-6313Y32078D01*
X-6286Y32051D01*
X-6259Y31997D01*
Y31943D01*
X-6286Y31889D01*
X-6340Y31808D01*
X-6611Y31537D01*
X-6232D01*
X-5726Y32105D02*
X-5997Y31537D01*
X-6105Y32105D02*
X-5726D01*
X-5436D02*
X-5517Y32078D01*
X-5571Y31997D01*
X-5598Y31862D01*
Y31780D01*
X-5571Y31645D01*
X-5517Y31564D01*
X-5436Y31537D01*
X-5382D01*
X-5301Y31564D01*
X-5246Y31645D01*
X-5219Y31780D01*
Y31862D01*
X-5246Y31997D01*
X-5301Y32078D01*
X-5382Y32105D01*
X-5436D01*
X-4957D02*
X-5038Y32078D01*
X-5065Y32024D01*
Y31970D01*
X-5038Y31916D01*
X-4984Y31889D01*
X-4876Y31862D01*
X-4794Y31835D01*
X-4740Y31780D01*
X-4713Y31726D01*
Y31645D01*
X-4740Y31591D01*
X-4767Y31564D01*
X-4848Y31537D01*
X-4957D01*
X-5038Y31564D01*
X-5065Y31591D01*
X-5092Y31645D01*
Y31726D01*
X-5065Y31780D01*
X-5011Y31835D01*
X-4930Y31862D01*
X-4821Y31889D01*
X-4767Y31916D01*
X-4740Y31970D01*
Y32024D01*
X-4767Y32078D01*
X-4848Y32105D01*
X-4957D01*
X-4139D02*
Y31537D01*
Y32105D02*
X-3895D01*
X-3814Y32078D01*
X-3787Y32051D01*
X-3760Y31997D01*
Y31943D01*
X-3787Y31889D01*
X-3814Y31862D01*
X-3895Y31835D01*
X-4139D01*
X-3949D02*
X-3760Y31537D01*
X-3281Y32105D02*
X-3633D01*
Y31537D01*
X-3281D01*
X-3633Y31835D02*
X-3416D01*
X-3186Y32105D02*
X-2969Y31537D01*
X-2753Y32105D02*
X-2969Y31537D01*
X-1827Y31970D02*
X-1854Y32024D01*
X-1908Y32078D01*
X-1962Y32105D01*
X-2070D01*
X-2124Y32078D01*
X-2179Y32024D01*
X-2206Y31970D01*
X-2233Y31889D01*
Y31753D01*
X-2206Y31672D01*
X-2179Y31618D01*
X-2124Y31564D01*
X-2070Y31537D01*
X-1962D01*
X-1908Y31564D01*
X-1854Y31618D01*
X-1827Y31672D01*
X-1667Y31997D02*
X-1613Y32024D01*
X-1531Y32105D01*
Y31537D01*
X-7403Y31135D02*
Y30566D01*
Y31135D02*
X-7214D01*
X-7132Y31108D01*
X-7078Y31054D01*
X-7051Y31000D01*
X-7024Y30918D01*
Y30783D01*
X-7051Y30702D01*
X-7078Y30648D01*
X-7132Y30593D01*
X-7214Y30566D01*
X-7403D01*
X-6897Y31135D02*
Y30566D01*
Y31135D02*
X-6680Y30566D01*
X-6464Y31135D02*
X-6680Y30566D01*
X-6464Y31135D02*
Y30566D01*
X-6301Y31135D02*
Y30566D01*
X-5922Y31135D02*
Y30566D01*
X-6301Y30864D02*
X-5922D01*
X-4966Y30945D02*
X-4993Y30864D01*
X-5047Y30810D01*
X-5129Y30783D01*
X-5156D01*
X-5237Y30810D01*
X-5291Y30864D01*
X-5318Y30945D01*
Y30973D01*
X-5291Y31054D01*
X-5237Y31108D01*
X-5156Y31135D01*
X-5129D01*
X-5047Y31108D01*
X-4993Y31054D01*
X-4966Y30945D01*
Y30810D01*
X-4993Y30675D01*
X-5047Y30593D01*
X-5129Y30566D01*
X-5183D01*
X-5264Y30593D01*
X-5291Y30648D01*
X-4812Y30485D02*
X-4433Y31135D01*
X-4260D02*
X-4341Y31108D01*
X-4368Y31054D01*
Y31000D01*
X-4341Y30945D01*
X-4287Y30918D01*
X-4178Y30891D01*
X-4097Y30864D01*
X-4043Y30810D01*
X-4016Y30756D01*
Y30675D01*
X-4043Y30621D01*
X-4070Y30593D01*
X-4151Y30566D01*
X-4260D01*
X-4341Y30593D01*
X-4368Y30621D01*
X-4395Y30675D01*
Y30756D01*
X-4368Y30810D01*
X-4314Y30864D01*
X-4232Y30891D01*
X-4124Y30918D01*
X-4070Y30945D01*
X-4043Y31000D01*
Y31054D01*
X-4070Y31108D01*
X-4151Y31135D01*
X-4260D01*
X-3889Y30485D02*
X-3509Y31135D01*
X-3444Y31000D02*
Y31027D01*
X-3417Y31081D01*
X-3390Y31108D01*
X-3336Y31135D01*
X-3228D01*
X-3174Y31108D01*
X-3147Y31081D01*
X-3120Y31027D01*
Y30973D01*
X-3147Y30918D01*
X-3201Y30837D01*
X-3472Y30566D01*
X-3092D01*
X-2803Y31135D02*
X-2884Y31108D01*
X-2938Y31027D01*
X-2965Y30891D01*
Y30810D01*
X-2938Y30675D01*
X-2884Y30593D01*
X-2803Y30566D01*
X-2749D01*
X-2667Y30593D01*
X-2613Y30675D01*
X-2586Y30810D01*
Y30891D01*
X-2613Y31027D01*
X-2667Y31108D01*
X-2749Y31135D01*
X-2803D01*
X-2459Y31027D02*
X-2405Y31054D01*
X-2323Y31135D01*
Y30566D01*
X-1663Y31135D02*
X-1934Y30566D01*
X-2042Y31135D02*
X-1663D01*
D17*
X-9968Y17651D02*
X-9900D01*
X-10817Y18500D02*
X-9968Y17651D01*
X-11200Y18500D02*
X-10817D01*
X-16300Y25088D02*
X-11823D01*
X-8450Y21715D01*
Y20300D02*
Y21715D01*
X-9387Y19363D02*
X-8450Y20300D01*
X-9500Y19363D02*
X-9387D01*
X-9900Y17651D02*
X-9849Y17600D01*
X-10826Y19366D02*
X-9996Y18537D01*
X-9500D01*
X-12350Y20517D02*
X-11633D01*
X-11200Y20950D01*
X-9953Y21816D02*
X-9500Y21363D01*
X-10826Y21816D02*
X-9953D01*
X-11900Y20050D02*
X-9987D01*
X-12750Y19200D02*
X-11900Y20050D01*
X-12750Y17651D02*
Y19200D01*
X-9987Y20050D02*
X-9500Y20537D01*
X-12750Y17651D02*
X-12199Y17100D01*
X-19549Y24450D02*
X-12750Y17651D01*
X-24259Y30505D02*
X-21649Y27895D01*
Y26250D02*
Y27895D01*
X-22649Y20250D02*
X-22149Y20750D01*
X-20849D01*
X-23599Y20200D02*
X-22649Y19250D01*
X-23599Y20200D02*
Y28750D01*
X-25259Y30410D02*
X-23599Y28750D01*
X-25259Y30410D02*
Y31390D01*
X-24259Y30505D02*
Y31390D01*
X-19549Y24450D02*
Y26950D01*
X13501Y27900D02*
X14501Y26900D01*
Y23400D02*
Y26900D01*
X26033Y25790D02*
Y26132D01*
X26461Y26560D01*
X27721D01*
X28241Y26040D01*
X18651Y16000D02*
X21901D01*
X28241Y22340D01*
Y26040D01*
X4120Y10640D02*
Y11686D01*
Y10640D02*
X7935Y6825D01*
Y4094D02*
Y6825D01*
X27033Y24790D02*
X27587Y24235D01*
X26107Y15290D02*
X27283D01*
X-20849Y20750D02*
X-20199Y21400D01*
Y30325D01*
D18*
X-11970Y10500D02*
X-7409D01*
X-2899Y5990D01*
X2935Y4094D02*
Y11665D01*
D19*
X5098Y14835D02*
X9765D01*
X13151Y21650D02*
X13501Y22000D01*
X17651D01*
X3751Y25000D02*
X4551D01*
X2301Y26450D02*
X3751Y25000D01*
X2301Y26450D02*
Y27600D01*
X18161Y22510D02*
X18651Y23000D01*
X18161Y21660D02*
Y22510D01*
X18001Y21500D02*
X18161Y21660D01*
X4113Y17985D02*
X4628Y18500D01*
X6251D02*
X6301Y18550D01*
X4628Y18500D02*
X6251D01*
X6309Y20350D02*
X15047D01*
X16197Y21500D01*
X18001D01*
D20*
X20441Y25790D02*
X25033D01*
X17651Y23000D02*
X20441Y25790D01*
X18651Y23000D02*
X20441Y24790D01*
X25033D01*
D21*
X-22649Y19250D02*
D03*
Y20250D02*
D03*
X-21649D02*
D03*
X-22649Y21250D02*
D03*
X-21649D02*
D03*
X-22649Y22250D02*
D03*
X-21649D02*
D03*
X-22649Y23250D02*
D03*
X-21649D02*
D03*
X-22649Y24250D02*
D03*
X-21649D02*
D03*
X-22649Y25250D02*
D03*
X-21649D02*
D03*
X-22649Y26250D02*
D03*
X-21649D02*
D03*
D22*
Y19250D02*
D03*
D23*
X-25259Y31390D02*
D03*
X-24259D02*
D03*
Y32390D02*
D03*
X-25259D02*
D03*
X-26259D02*
D03*
Y31390D02*
D03*
X-26149Y15700D02*
D03*
X-25149D02*
D03*
D24*
X-2899Y5990D02*
D03*
X-7899D02*
D03*
D25*
X16151Y30117D02*
D03*
X32151D02*
D03*
Y10617D02*
D03*
X16151D02*
D03*
D26*
X1351Y32000D02*
D03*
X3101D02*
D03*
D27*
X2935Y4094D02*
D03*
X7935D02*
D03*
D28*
X18651Y23000D02*
D03*
X17651D02*
D03*
X18651Y22000D02*
D03*
X17651D02*
D03*
X18651Y21000D02*
D03*
X17651D02*
D03*
X18651Y20000D02*
D03*
X17651D02*
D03*
X18651Y19000D02*
D03*
X17651D02*
D03*
X18651Y18000D02*
D03*
X17651D02*
D03*
X18651Y17000D02*
D03*
X17651D02*
D03*
X18651Y16000D02*
D03*
D29*
X17651D02*
D03*
D30*
X27033Y24790D02*
D03*
Y25790D02*
D03*
X26033D02*
D03*
X25033D02*
D03*
Y24790D02*
D03*
X26033D02*
D03*
X27283Y16290D02*
D03*
Y15290D02*
D03*
X24733Y12490D02*
D03*
X23733D02*
D03*
D31*
X3301Y28600D02*
D03*
Y27600D02*
D03*
X2301Y28600D02*
D03*
Y27600D02*
D03*
X1301Y28600D02*
D03*
Y27600D02*
D03*
D32*
X5301Y28600D02*
D03*
Y27600D02*
D03*
D33*
X-5555Y17132D02*
D03*
X-4743Y18410D02*
D03*
D34*
X-12200Y19050D02*
D03*
X-16300Y25088D02*
D03*
X-9849Y17600D02*
D03*
X-12350Y20517D02*
D03*
X-7299Y22100D02*
D03*
D35*
X-12199Y17100D02*
D03*
X-19549Y26950D02*
D03*
X9801Y13300D02*
D03*
X10287Y11686D02*
D03*
X9765Y14835D02*
D03*
X9801Y16400D02*
D03*
X10701Y17200D02*
D03*
X8701Y23300D02*
D03*
Y25100D02*
D03*
X13501Y27900D02*
D03*
X14501Y23400D02*
D03*
X22212Y21360D02*
D03*
X19921Y20380D02*
D03*
X13151Y21650D02*
D03*
X14605Y20800D02*
D03*
X3301Y15648D02*
D03*
X4551Y25000D02*
D03*
X18974Y13223D02*
D03*
X32751Y13514D02*
D03*
X32828Y27978D02*
D03*
X22501Y29383D02*
D03*
X18472D02*
D03*
X8734Y19000D02*
D03*
X7351Y24167D02*
D03*
X2175Y23630D02*
D03*
X9551Y28368D02*
D03*
X19151Y25744D02*
D03*
X16738Y24600D02*
D03*
X16301Y27300D02*
D03*
X1600Y12450D02*
D03*
X8850Y12500D02*
D03*
X6801Y17050D02*
D03*
X12922Y17800D02*
D03*
X6309Y20350D02*
D03*
X6301Y18550D02*
D03*
X-31430Y24100D02*
D03*
X-30399Y14750D02*
D03*
X-16899Y17200D02*
D03*
X-12899Y24050D02*
D03*
X-10826Y16850D02*
D03*
X-9999Y12850D02*
D03*
X-2399Y10950D02*
D03*
X-9673Y9630D02*
D03*
X-4169Y28450D02*
D03*
X-29499Y29900D02*
D03*
X-21418Y30100D02*
D03*
X-21804Y17081D02*
D03*
X-19411Y12750D02*
D03*
X-3649Y20380D02*
D03*
Y23880D02*
D03*
X-11399Y30114D02*
D03*
X-23126Y27400D02*
D03*
M02*
