G04 Layer_Color=16711935*
%FSLAX24Y24*%
%MOIN*%
G70*
G01*
G75*
%ADD49R,0.0781X0.1320*%
%ADD51C,0.0080*%
%ADD52C,0.0640*%
%ADD53R,0.0640X0.0640*%
%ADD54C,0.1000*%
%ADD55O,0.1680X0.1980*%
%ADD56C,0.1340*%
%ADD57C,0.1480*%
%ADD58O,0.1580X0.1830*%
%ADD59C,0.0671*%
%ADD60R,0.0671X0.0671*%
%ADD61C,0.0980*%
%ADD62C,0.0800*%
%ADD63C,0.0780*%
%ADD64C,0.0480*%
%ADD65R,0.0572X0.0671*%
%ADD66R,0.0671X0.0671*%
%ADD67R,0.0631X0.0474*%
%ADD68R,0.0651X0.0316*%
D49*
X14330Y19000D02*
D03*
X12271D02*
D03*
D51*
X-16149Y30115D02*
D03*
X-32149D02*
D03*
Y10615D02*
D03*
X-16149D02*
D03*
D52*
X-22649Y19250D02*
D03*
Y20250D02*
D03*
X-21649D02*
D03*
X-22649Y21250D02*
D03*
X-21649D02*
D03*
X-22649Y22250D02*
D03*
X-21649D02*
D03*
X-22649Y23250D02*
D03*
X-21649D02*
D03*
X-22649Y24250D02*
D03*
X-21649D02*
D03*
X-22649Y25250D02*
D03*
X-21649D02*
D03*
X-22649Y26250D02*
D03*
X-21649D02*
D03*
D53*
Y19250D02*
D03*
D54*
X-25259Y31390D02*
D03*
X-24259D02*
D03*
Y32390D02*
D03*
X-25259D02*
D03*
X-26259D02*
D03*
Y31390D02*
D03*
X-26149Y15700D02*
D03*
X-25149D02*
D03*
D55*
X-2899Y5990D02*
D03*
X-7899D02*
D03*
D56*
X16151Y30117D02*
D03*
X32151D02*
D03*
Y10617D02*
D03*
X16151D02*
D03*
D57*
X1351Y32000D02*
D03*
X3101D02*
D03*
D58*
X2935Y4094D02*
D03*
X7935D02*
D03*
D59*
X18651Y23000D02*
D03*
X17651D02*
D03*
X18651Y22000D02*
D03*
X17651D02*
D03*
X18651Y21000D02*
D03*
X17651D02*
D03*
X18651Y20000D02*
D03*
X17651D02*
D03*
X18651Y19000D02*
D03*
X17651D02*
D03*
X18651Y18000D02*
D03*
X17651D02*
D03*
X18651Y17000D02*
D03*
X17651D02*
D03*
X18651Y16000D02*
D03*
D60*
X17651D02*
D03*
D61*
X27033Y24790D02*
D03*
Y25790D02*
D03*
X26033D02*
D03*
X25033D02*
D03*
Y24790D02*
D03*
X26033D02*
D03*
X27283Y16290D02*
D03*
Y15290D02*
D03*
X24733Y12490D02*
D03*
X23733D02*
D03*
D62*
X3301Y28600D02*
D03*
Y27600D02*
D03*
X2301Y28600D02*
D03*
Y27600D02*
D03*
X1301Y28600D02*
D03*
Y27600D02*
D03*
D63*
X5301Y28600D02*
D03*
Y27600D02*
D03*
D64*
X-4169Y28450D02*
D03*
D65*
X-5176Y19500D02*
D03*
X-4349D02*
D03*
X-5176Y21250D02*
D03*
X-4349D02*
D03*
X-5176Y23000D02*
D03*
X-4349D02*
D03*
X-5176Y24750D02*
D03*
X-4349D02*
D03*
X12587Y24700D02*
D03*
X13414D02*
D03*
X10437Y23300D02*
D03*
X11264D02*
D03*
X12587Y26050D02*
D03*
X13414D02*
D03*
X16637Y26450D02*
D03*
X17464D02*
D03*
X12914Y16750D02*
D03*
X12087D02*
D03*
X12914Y12812D02*
D03*
X12087D02*
D03*
X16637Y28250D02*
D03*
X17464D02*
D03*
X12914Y14125D02*
D03*
X12087D02*
D03*
X12914Y11500D02*
D03*
X12087D02*
D03*
Y15438D02*
D03*
X12914D02*
D03*
D66*
X-1660Y19500D02*
D03*
X-3038D02*
D03*
X-1660Y21250D02*
D03*
X-3038D02*
D03*
X-1660Y23000D02*
D03*
X-3038D02*
D03*
X-1660Y24750D02*
D03*
X-3038D02*
D03*
D67*
X12568Y23300D02*
D03*
X13434Y22926D02*
D03*
Y23674D02*
D03*
X14585Y27876D02*
D03*
X15451Y27502D02*
D03*
Y28250D02*
D03*
X14618Y26050D02*
D03*
X15484Y25676D02*
D03*
Y26424D02*
D03*
D68*
X13463Y31600D02*
D03*
X12538Y31974D02*
D03*
Y31226D02*
D03*
M02*
