M48
;Layer_Color=9474304
;FILE_FORMAT=2:4
INCH
;TYPE=PLATED
T1F00S00C0.0180
T2F00S00C0.0200
T3F00S00C0.0280
T4F00S00C0.0340
T5F00S00C0.0354
T6F00S00C0.0480
T7F00S00C0.0500
T8F00S00C0.0680
T9F00S00C0.0700
T10F00S00C0.0900
T11F00S00C0.1270
;TYPE=NON_PLATED
T12F00S00C0.1260
%
T01
X-005555Y017132
X-004743Y018410
X-019549Y026950
T02
X-009673Y009630
X-002399Y010950
X010287Y011686
X022212Y021360
X032751Y013514
X018974Y013223
X019921Y020380
X014605Y020800
X013151Y021650
X014501Y023400
X016738Y024600
X016301Y027300
X019151Y025744
X008701Y025100
Y023300
X007351Y024167
X006309Y020350
X006301Y018550
X006801Y017050
X009801Y016400
X009765Y014835
X009801Y013300
X008850Y012500
X010701Y017200
X012922Y017800
X008734Y019000
X003301Y015648
X001600Y012450
X002175Y023630
X004551Y025000
X-003649Y023880
Y020380
X-009999Y012850
X-010826Y016850
X-012199Y017100
X-016899Y017200
X-021804Y017081
X-019411Y012750
X-012899Y024050
X-031430Y024100
X-030399Y014750
X-029499Y029900
X-021418Y030100
X-023126Y027400
X-011399Y030114
X-004169Y028450
X009551Y028368
X013501Y027900
X018472Y029383
X022501
X032828Y027978
T03
X-009849Y017600
X-007299Y022100
X-012350Y020517
X-012200Y019050
X-016300Y025088
T04
X-022649Y019250
X-021649
Y020250
X-022649
Y021250
X-021649
Y022250
X-022649
Y023250
X-021649
Y024250
X-022649
Y025250
X-021649
Y026250
X-022649
T05
X017651Y016000
Y017000
Y018000
Y019000
Y020000
Y021000
Y022000
Y023000
X018651
Y022000
Y021000
Y020000
Y019000
Y018000
Y017000
Y016000
T06
X005301Y027600
Y028600
T07
X001301Y027600
X002301
X003301
Y028600
X002301
X001301
T08
X023733Y012490
X024733
X027283Y015290
Y016290
X027033Y024790
Y025790
X026033
X025033
Y024790
X026033
T09
X-025149Y015700
X-026149
X-026259Y031390
Y032390
X-025259
Y031390
X-024259
Y032390
T10
X-007899Y005990
X-002899
X002935Y004094
X007935
T11
X001351Y032000
X003101
T12
X-032149Y010615
X-016149
X016151Y010617
X032151
X-032149Y030115
X-016149
X016151Y030117
X032151
M30
