G04 Layer_Color=8388736*
%FSLAX24Y24*%
%MOIN*%
G70*
G01*
G75*
%ADD47R,0.0474X0.0631*%
%ADD48R,0.0671X0.0572*%
%ADD49R,0.0781X0.1320*%
%ADD50R,0.0513X0.0572*%
%ADD51C,0.0080*%
%ADD52C,0.0640*%
%ADD53R,0.0640X0.0640*%
%ADD54C,0.1000*%
%ADD55O,0.1680X0.1980*%
%ADD56C,0.1340*%
%ADD57C,0.1480*%
%ADD58O,0.1580X0.1830*%
%ADD59C,0.0671*%
%ADD60R,0.0671X0.0671*%
%ADD61C,0.0980*%
%ADD62C,0.0800*%
%ADD63C,0.0780*%
%ADD64C,0.0480*%
D47*
X-11200Y18500D02*
D03*
X-11574Y19366D02*
D03*
X-10826D02*
D03*
X-11200Y20950D02*
D03*
X-11574Y21816D02*
D03*
X-10826D02*
D03*
D48*
X-9500Y21363D02*
D03*
Y20537D02*
D03*
Y19363D02*
D03*
Y18537D02*
D03*
D49*
X-14029Y10500D02*
D03*
X-11970D02*
D03*
D50*
X5093Y21100D02*
D03*
X4109D02*
D03*
X5098Y17985D02*
D03*
X4113D02*
D03*
X5098Y13261D02*
D03*
X4113D02*
D03*
X5098Y16410D02*
D03*
X4113D02*
D03*
X5098Y14835D02*
D03*
X4113D02*
D03*
X5105Y11686D02*
D03*
X4120D02*
D03*
X5098Y19565D02*
D03*
X4113D02*
D03*
D51*
X-16149Y30115D02*
D03*
X-32149D02*
D03*
Y10615D02*
D03*
X-16149D02*
D03*
D52*
X-22649Y19250D02*
D03*
Y20250D02*
D03*
X-21649D02*
D03*
X-22649Y21250D02*
D03*
X-21649D02*
D03*
X-22649Y22250D02*
D03*
X-21649D02*
D03*
X-22649Y23250D02*
D03*
X-21649D02*
D03*
X-22649Y24250D02*
D03*
X-21649D02*
D03*
X-22649Y25250D02*
D03*
X-21649D02*
D03*
X-22649Y26250D02*
D03*
X-21649D02*
D03*
D53*
Y19250D02*
D03*
D54*
X-25259Y31390D02*
D03*
X-24259D02*
D03*
Y32390D02*
D03*
X-25259D02*
D03*
X-26259D02*
D03*
Y31390D02*
D03*
X-26149Y15700D02*
D03*
X-25149D02*
D03*
D55*
X-2899Y5990D02*
D03*
X-7899D02*
D03*
D56*
X16151Y30117D02*
D03*
X32151D02*
D03*
Y10617D02*
D03*
X16151D02*
D03*
D57*
X1351Y32000D02*
D03*
X3101D02*
D03*
D58*
X2935Y4094D02*
D03*
X7935D02*
D03*
D59*
X18651Y23000D02*
D03*
X17651D02*
D03*
X18651Y22000D02*
D03*
X17651D02*
D03*
X18651Y21000D02*
D03*
X17651D02*
D03*
X18651Y20000D02*
D03*
X17651D02*
D03*
X18651Y19000D02*
D03*
X17651D02*
D03*
X18651Y18000D02*
D03*
X17651D02*
D03*
X18651Y17000D02*
D03*
X17651D02*
D03*
X18651Y16000D02*
D03*
D60*
X17651D02*
D03*
D61*
X27033Y24790D02*
D03*
Y25790D02*
D03*
X26033D02*
D03*
X25033D02*
D03*
Y24790D02*
D03*
X26033D02*
D03*
X27283Y16290D02*
D03*
Y15290D02*
D03*
X24733Y12490D02*
D03*
X23733D02*
D03*
D62*
X3301Y28600D02*
D03*
Y27600D02*
D03*
X2301Y28600D02*
D03*
Y27600D02*
D03*
X1301Y28600D02*
D03*
Y27600D02*
D03*
D63*
X5301Y28600D02*
D03*
Y27600D02*
D03*
D64*
X9551Y28368D02*
D03*
X1600Y12450D02*
D03*
M02*
