G04 Layer_Color=32896*
%FSLAX24Y24*%
%MOIN*%
G70*
G01*
G75*
%ADD16C,0.0120*%
%ADD19C,0.0100*%
%ADD41C,0.0098*%
%ADD43C,0.0079*%
%ADD44C,0.0080*%
%ADD45C,0.0059*%
%ADD46C,0.0070*%
%ADD69C,0.0157*%
G36*
X-2319Y31773D02*
Y31735D01*
X-2280D01*
Y31696D01*
Y31658D01*
Y31620D01*
Y31582D01*
X-2242D01*
Y31543D01*
X-3697D01*
Y31505D01*
Y31467D01*
Y31428D01*
X-3658D01*
Y31390D01*
Y31352D01*
Y31314D01*
X-3620D01*
Y31275D01*
Y31237D01*
Y31199D01*
X-3582D01*
Y31161D01*
Y31122D01*
Y31084D01*
X-3543D01*
Y31046D01*
Y31007D01*
Y30969D01*
Y30931D01*
X-3505D01*
Y30893D01*
Y30854D01*
Y30816D01*
X-3467D01*
Y30778D01*
Y30739D01*
Y30701D01*
X-3429D01*
Y30663D01*
Y30625D01*
Y30586D01*
X-3390D01*
Y30548D01*
Y30510D01*
X-3773D01*
Y30548D01*
X-3811D01*
Y30586D01*
Y30625D01*
Y30663D01*
X-3850D01*
Y30701D01*
Y30739D01*
Y30778D01*
X-3888D01*
Y30816D01*
Y30854D01*
Y30893D01*
X-3926D01*
Y30931D01*
Y30969D01*
Y31007D01*
Y31046D01*
X-3964D01*
Y31084D01*
Y31122D01*
Y31161D01*
X-4003D01*
Y31199D01*
Y31237D01*
Y31275D01*
X-4041D01*
Y31314D01*
Y31352D01*
Y31390D01*
X-4079D01*
Y31428D01*
Y31467D01*
Y31505D01*
X-4118D01*
Y31543D01*
X-5610D01*
Y31582D01*
Y31620D01*
Y31658D01*
Y31696D01*
X-5649D01*
Y31735D01*
Y31773D01*
X-5687D01*
Y31811D01*
X-2319D01*
Y31773D01*
D02*
G37*
G36*
X-634D02*
Y31735D01*
X-596D01*
Y31696D01*
Y31658D01*
Y31620D01*
X-558D01*
Y31582D01*
Y31543D01*
Y31505D01*
X-520D01*
Y31467D01*
Y31428D01*
Y31390D01*
Y31352D01*
X-481D01*
Y31314D01*
Y31275D01*
Y31237D01*
X-443D01*
Y31199D01*
Y31161D01*
Y31122D01*
X-405D01*
Y31084D01*
Y31046D01*
Y31007D01*
X-366D01*
Y30969D01*
Y30931D01*
Y30893D01*
X-328D01*
Y30854D01*
Y30816D01*
Y30778D01*
X-290D01*
Y30739D01*
Y30701D01*
Y30663D01*
X-252D01*
Y30625D01*
Y30586D01*
X-213D01*
Y30548D01*
X-1476D01*
Y30586D01*
X-1591D01*
Y30625D01*
X-1668D01*
Y30663D01*
X-1706D01*
Y30701D01*
X-1744D01*
Y30739D01*
X-1783D01*
Y30778D01*
Y30816D01*
X-1821D01*
Y30854D01*
Y30893D01*
X-1859D01*
Y30931D01*
Y30969D01*
Y31007D01*
X-1898D01*
Y31046D01*
Y31084D01*
X-1936D01*
Y31122D01*
Y31161D01*
Y31199D01*
X-1974D01*
Y31237D01*
Y31275D01*
Y31314D01*
X-2012D01*
Y31352D01*
Y31390D01*
Y31428D01*
Y31467D01*
Y31505D01*
X-2051D01*
Y31543D01*
X-2012D01*
Y31582D01*
Y31620D01*
Y31658D01*
X-1974D01*
Y31696D01*
Y31735D01*
X-1898D01*
Y31773D01*
X-1783D01*
Y31811D01*
X-634D01*
Y31773D01*
D02*
G37*
G36*
X-1974Y30739D02*
Y30701D01*
Y30663D01*
X-1936D01*
Y30625D01*
Y30586D01*
Y30548D01*
X-3161D01*
Y30586D01*
Y30625D01*
Y30663D01*
Y30701D01*
X-3199D01*
Y30739D01*
Y30778D01*
X-1974D01*
Y30739D01*
D02*
G37*
G36*
X-5725Y31773D02*
Y31735D01*
X-5763D01*
Y31696D01*
Y31658D01*
X-5802D01*
Y31620D01*
Y31582D01*
X-5840D01*
Y31543D01*
Y31505D01*
X-5878D01*
Y31467D01*
Y31428D01*
X-5917D01*
Y31390D01*
Y31352D01*
Y31314D01*
X-5955D01*
Y31275D01*
Y31237D01*
X-5993D01*
Y31199D01*
Y31161D01*
X-5955D01*
Y31122D01*
X-5917D01*
Y31084D01*
X-5878D01*
Y31046D01*
X-5840D01*
Y31007D01*
X-5802D01*
Y30969D01*
X-5763D01*
Y30931D01*
X-5725D01*
Y30893D01*
X-5649D01*
Y30854D01*
X-5610D01*
Y30816D01*
X-5572D01*
Y30778D01*
X-5534D01*
Y30739D01*
X-5495D01*
Y30701D01*
X-5457D01*
Y30663D01*
X-5419D01*
Y30625D01*
X-5381D01*
Y30586D01*
X-5304D01*
Y30548D01*
X-5266D01*
Y30586D01*
Y30625D01*
Y30663D01*
X-5304D01*
Y30701D01*
Y30739D01*
X-5342D01*
Y30778D01*
X-4118D01*
Y30739D01*
X-4079D01*
Y30701D01*
Y30663D01*
Y30625D01*
Y30586D01*
X-4039D01*
X-4019Y30510D01*
X-5725D01*
Y30548D01*
X-5763D01*
Y30586D01*
X-5802D01*
Y30625D01*
X-5840D01*
Y30663D01*
X-5878D01*
Y30701D01*
X-5917D01*
Y30739D01*
X-5955D01*
Y30778D01*
X-5993D01*
Y30816D01*
X-6031D01*
Y30854D01*
X-6070D01*
Y30893D01*
X-6146D01*
Y30854D01*
X-6184D01*
Y30816D01*
Y30778D01*
X-6223D01*
Y30739D01*
Y30701D01*
Y30663D01*
X-6261D01*
Y30625D01*
Y30586D01*
Y30548D01*
X-6299D01*
Y30510D01*
X-6720D01*
Y30548D01*
X-6682D01*
Y30586D01*
Y30625D01*
X-6644D01*
Y30663D01*
Y30701D01*
X-6606D01*
Y30739D01*
Y30778D01*
Y30816D01*
X-6567D01*
Y30854D01*
Y30893D01*
X-6529D01*
Y30931D01*
Y30969D01*
X-6491D01*
Y31007D01*
Y31046D01*
Y31084D01*
X-6452D01*
Y31122D01*
X-6414D01*
Y31161D01*
Y31199D01*
Y31237D01*
X-6491D01*
Y31275D01*
X-6529D01*
Y31314D01*
X-6567D01*
Y31352D01*
X-6606D01*
Y31390D01*
X-6644D01*
Y31428D01*
X-6682D01*
Y31467D01*
X-6720D01*
Y31505D01*
X-6759D01*
Y31543D01*
X-6835D01*
Y31582D01*
X-6873D01*
Y31620D01*
X-6912D01*
Y31658D01*
X-6950D01*
Y31696D01*
X-6988D01*
Y31735D01*
X-7027D01*
Y31773D01*
X-6644D01*
Y31735D01*
X-6567D01*
Y31696D01*
X-6529D01*
Y31658D01*
X-6491D01*
Y31620D01*
X-6452D01*
Y31582D01*
X-6414D01*
Y31543D01*
X-6376D01*
Y31505D01*
X-6338D01*
Y31467D01*
X-6261D01*
Y31505D01*
X-6223D01*
Y31543D01*
Y31582D01*
Y31620D01*
X-6184D01*
Y31658D01*
Y31696D01*
Y31735D01*
Y31773D01*
X-6146D01*
Y31811D01*
X-5725D01*
Y31773D01*
D02*
G37*
G36*
X-2165Y31275D02*
X-2127D01*
Y31237D01*
Y31199D01*
Y31161D01*
Y31122D01*
X-2089D01*
Y31084D01*
X-3314D01*
Y31122D01*
Y31161D01*
Y31199D01*
X-3352D01*
Y31237D01*
Y31275D01*
X-3390D01*
Y31314D01*
X-2165D01*
Y31275D01*
D02*
G37*
G36*
X-4259Y31199D02*
X-4232D01*
Y31161D01*
Y31122D01*
X-4194D01*
Y31084D01*
X-5419D01*
Y31122D01*
X-5457D01*
Y31161D01*
Y31199D01*
Y31237D01*
X-5495D01*
Y31275D01*
Y31314D01*
X-4259D01*
Y31199D01*
D02*
G37*
%LPC*%
G36*
X-979Y31582D02*
X-1400D01*
Y31543D01*
X-1553D01*
Y31505D01*
X-1591D01*
Y31467D01*
Y31428D01*
Y31390D01*
Y31352D01*
Y31314D01*
Y31275D01*
X-1553D01*
Y31237D01*
Y31199D01*
Y31161D01*
X-1515D01*
Y31122D01*
Y31084D01*
Y31046D01*
Y31007D01*
X-1476D01*
Y30969D01*
Y30931D01*
X-1438D01*
Y30893D01*
X-1400D01*
Y30854D01*
X-1323D01*
Y30816D01*
X-787D01*
Y30778D01*
X-749D01*
Y30816D01*
Y30854D01*
Y30893D01*
Y30931D01*
X-787D01*
Y30969D01*
Y31007D01*
Y31046D01*
X-826D01*
Y31084D01*
Y31122D01*
Y31161D01*
Y31199D01*
X-864D01*
Y31237D01*
Y31275D01*
Y31314D01*
X-902D01*
Y31352D01*
Y31390D01*
Y31428D01*
Y31467D01*
X-941D01*
Y31505D01*
Y31543D01*
X-979D01*
Y31582D01*
D02*
G37*
%LPD*%
D16*
X-2949Y3310D02*
G03*
X-2949Y8660I17J2675D01*
G01*
X-7899D02*
G03*
X-7899Y3310I-7J-2675D01*
G01*
X-2949D01*
X-7899Y8660D02*
X-2949D01*
X-26849Y30505D02*
X-26897Y30528D01*
X-26968Y30600D01*
Y30100D01*
X-27299Y31600D02*
Y31100D01*
X-27761Y31481D02*
X-27737Y31528D01*
X-27690Y31576D01*
X-27642Y31600D01*
X-27547D01*
X-27499Y31576D01*
X-27452Y31528D01*
X-27428Y31481D01*
X-27404Y31409D01*
Y31290D01*
X-27428Y31219D01*
X-27452Y31171D01*
X-27499Y31124D01*
X-27547Y31100D01*
X-27642D01*
X-27690Y31124D01*
X-27737Y31171D01*
X-27761Y31219D01*
X-28235Y31528D02*
X-28187Y31576D01*
X-28116Y31600D01*
X-28020D01*
X-27949Y31576D01*
X-27901Y31528D01*
Y31481D01*
X-27925Y31433D01*
X-27949Y31409D01*
X-27997Y31386D01*
X-28140Y31338D01*
X-28187Y31314D01*
X-28211Y31290D01*
X-28235Y31243D01*
Y31171D01*
X-28187Y31124D01*
X-28116Y31100D01*
X-28020D01*
X-27949Y31124D01*
X-27901Y31171D01*
X-28347Y31338D02*
X-28561D01*
X-28632Y31362D01*
X-28656Y31386D01*
X-28680Y31433D01*
Y31505D01*
X-28656Y31552D01*
X-28632Y31576D01*
X-28561Y31600D01*
X-28347D01*
Y31100D01*
X-2661Y2883D02*
Y2240D01*
X-2339Y2561D02*
X-2982D01*
X-7859Y2581D02*
X-8502D01*
X8004Y362D02*
Y1004D01*
X8325Y683D02*
X7683D01*
X3375D02*
X2733D01*
D19*
X-3447Y2194D02*
X-3200D01*
Y1794D01*
X-3447D01*
X-3200Y2004D02*
X-3352D01*
X-3819Y1794D02*
X-3666Y2194D01*
X-3514Y1794D01*
X-3571Y1927D02*
X-3762D01*
X-3912Y2194D02*
X-4179Y1794D01*
Y2194D02*
X-3912Y1794D01*
X-4306Y2194D02*
X-4516D01*
X-4401Y2042D01*
X-4459D01*
X-4497Y2023D01*
X-4516Y2004D01*
X-4535Y1946D01*
Y1908D01*
X-4516Y1851D01*
X-4478Y1813D01*
X-4420Y1794D01*
X-4363D01*
X-4306Y1813D01*
X-4287Y1832D01*
X-4268Y1870D01*
X-4739Y2194D02*
X-4681Y2175D01*
X-4643Y2118D01*
X-4624Y2023D01*
Y1965D01*
X-4643Y1870D01*
X-4681Y1813D01*
X-4739Y1794D01*
X-4777D01*
X-4834Y1813D01*
X-4872Y1870D01*
X-4891Y1965D01*
Y2023D01*
X-4872Y2118D01*
X-4834Y2175D01*
X-4777Y2194D01*
X-4739D01*
X-5095D02*
X-5037Y2175D01*
X-4999Y2118D01*
X-4980Y2023D01*
Y1965D01*
X-4999Y1870D01*
X-5037Y1813D01*
X-5095Y1794D01*
X-5133D01*
X-5190Y1813D01*
X-5228Y1870D01*
X-5247Y1965D01*
Y2023D01*
X-5228Y2118D01*
X-5190Y2175D01*
X-5133Y2194D01*
X-5095D01*
X-5336Y1737D02*
X-5603Y2194D01*
X-5877D02*
X-5630D01*
Y1794D01*
X-5877D01*
X-5630Y2004D02*
X-5782D01*
X-6249Y1794D02*
X-6096Y2194D01*
X-5944Y1794D01*
X-6001Y1927D02*
X-6192D01*
X-6342Y2194D02*
X-6609Y1794D01*
Y2194D02*
X-6342Y1794D01*
X-6927Y2194D02*
X-6736D01*
X-6717Y2023D01*
X-6736Y2042D01*
X-6793Y2061D01*
X-6850D01*
X-6908Y2042D01*
X-6946Y2004D01*
X-6965Y1946D01*
Y1908D01*
X-6946Y1851D01*
X-6908Y1813D01*
X-6850Y1794D01*
X-6793D01*
X-6736Y1813D01*
X-6717Y1832D01*
X-6698Y1870D01*
X-7168Y2194D02*
X-7111Y2175D01*
X-7073Y2118D01*
X-7054Y2023D01*
Y1965D01*
X-7073Y1870D01*
X-7111Y1813D01*
X-7168Y1794D01*
X-7207D01*
X-7264Y1813D01*
X-7302Y1870D01*
X-7321Y1965D01*
Y2023D01*
X-7302Y2118D01*
X-7264Y2175D01*
X-7207Y2194D01*
X-7168D01*
X-7525D02*
X-7467Y2175D01*
X-7429Y2118D01*
X-7410Y2023D01*
Y1965D01*
X-7429Y1870D01*
X-7467Y1813D01*
X-7525Y1794D01*
X-7563D01*
X-7620Y1813D01*
X-7658Y1870D01*
X-7677Y1965D01*
Y2023D01*
X-7658Y2118D01*
X-7620Y2175D01*
X-7563Y2194D01*
X-7525D01*
X-3028Y1417D02*
Y1017D01*
X-2895Y1417D02*
X-3162D01*
X-3457D02*
X-3209D01*
Y1017D01*
X-3457D01*
X-3209Y1227D02*
X-3362D01*
X-3790Y1360D02*
X-3752Y1398D01*
X-3695Y1417D01*
X-3619D01*
X-3562Y1398D01*
X-3524Y1360D01*
Y1322D01*
X-3543Y1284D01*
X-3562Y1265D01*
X-3600Y1246D01*
X-3714Y1207D01*
X-3752Y1188D01*
X-3771Y1169D01*
X-3790Y1131D01*
Y1074D01*
X-3752Y1036D01*
X-3695Y1017D01*
X-3619D01*
X-3562Y1036D01*
X-3524Y1074D01*
X-4013Y1417D02*
Y1017D01*
X-3880Y1417D02*
X-4146D01*
X-4194Y960D02*
X-4460Y1417D01*
X-4487Y1207D02*
X-4659D01*
X-4716Y1227D01*
X-4735Y1246D01*
X-4754Y1284D01*
Y1341D01*
X-4735Y1379D01*
X-4716Y1398D01*
X-4659Y1417D01*
X-4487D01*
Y1017D01*
X-5129Y1322D02*
X-5110Y1360D01*
X-5072Y1398D01*
X-5034Y1417D01*
X-4958D01*
X-4919Y1398D01*
X-4881Y1360D01*
X-4862Y1322D01*
X-4843Y1265D01*
Y1169D01*
X-4862Y1112D01*
X-4881Y1074D01*
X-4919Y1036D01*
X-4958Y1017D01*
X-5034D01*
X-5072Y1036D01*
X-5110Y1074D01*
X-5129Y1112D01*
Y1169D01*
X-5034D02*
X-5129D01*
X-5220Y1417D02*
Y1017D01*
Y1417D02*
X-5373Y1017D01*
X-5525Y1417D02*
X-5373Y1017D01*
X-5525Y1417D02*
Y1017D01*
X-5953Y1417D02*
Y1017D01*
Y1417D02*
X-6201D01*
X-5953Y1227D02*
X-6106D01*
X-6247Y1417D02*
Y1017D01*
X-6331Y1417D02*
X-6597Y1017D01*
Y1417D02*
X-6331Y1017D01*
X-6820Y1417D02*
Y1017D01*
X-6687Y1417D02*
X-6953D01*
X-7001D02*
Y1131D01*
X-7020Y1074D01*
X-7058Y1036D01*
X-7115Y1017D01*
X-7153D01*
X-7210Y1036D01*
X-7248Y1074D01*
X-7267Y1131D01*
Y1417D01*
X-7378D02*
Y1017D01*
Y1417D02*
X-7549D01*
X-7606Y1398D01*
X-7626Y1379D01*
X-7645Y1341D01*
Y1303D01*
X-7626Y1265D01*
X-7606Y1246D01*
X-7549Y1227D01*
X-7378D01*
X-7511D02*
X-7645Y1017D01*
X-7982Y1417D02*
X-7734D01*
Y1017D01*
X-7982D01*
X-7734Y1227D02*
X-7886D01*
X-3998Y564D02*
X-4036Y583D01*
X-4093Y640D01*
Y240D01*
X-4405Y640D02*
X-4348Y621D01*
X-4310Y564D01*
X-4291Y469D01*
Y411D01*
X-4310Y316D01*
X-4348Y259D01*
X-4405Y240D01*
X-4443D01*
X-4500Y259D01*
X-4539Y316D01*
X-4558Y411D01*
Y469D01*
X-4539Y564D01*
X-4500Y621D01*
X-4443Y640D01*
X-4405D01*
X-4666Y545D02*
Y564D01*
X-4685Y602D01*
X-4704Y621D01*
X-4742Y640D01*
X-4818D01*
X-4857Y621D01*
X-4876Y602D01*
X-4895Y564D01*
Y526D01*
X-4876Y488D01*
X-4838Y430D01*
X-4647Y240D01*
X-4914D01*
X-5270Y640D02*
X-5079Y240D01*
X-5003Y640D02*
X-5270D01*
X-5474D02*
X-5416Y621D01*
X-5378Y564D01*
X-5359Y469D01*
Y411D01*
X-5378Y316D01*
X-5416Y259D01*
X-5474Y240D01*
X-5512D01*
X-5569Y259D01*
X-5607Y316D01*
X-5626Y411D01*
Y469D01*
X-5607Y564D01*
X-5569Y621D01*
X-5512Y640D01*
X-5474D01*
X-5963Y507D02*
X-5944Y449D01*
X-5906Y411D01*
X-5849Y392D01*
X-5830D01*
X-5773Y411D01*
X-5734Y449D01*
X-5715Y507D01*
Y526D01*
X-5734Y583D01*
X-5773Y621D01*
X-5830Y640D01*
X-5849D01*
X-5906Y621D01*
X-5944Y583D01*
X-5963Y507D01*
Y411D01*
X-5944Y316D01*
X-5906Y259D01*
X-5849Y240D01*
X-5811D01*
X-5754Y259D01*
X-5734Y297D01*
X-6671Y545D02*
X-6652Y583D01*
X-6614Y621D01*
X-6576Y640D01*
X-6500D01*
X-6462Y621D01*
X-6424Y583D01*
X-6405Y545D01*
X-6386Y488D01*
Y392D01*
X-6405Y335D01*
X-6424Y297D01*
X-6462Y259D01*
X-6500Y240D01*
X-6576D01*
X-6614Y259D01*
X-6652Y297D01*
X-6671Y335D01*
X-6784Y564D02*
X-6822Y583D01*
X-6879Y640D01*
Y240D01*
X18918Y24800D02*
X19084D01*
X19001D01*
Y24383D01*
X19084Y24300D01*
X19167D01*
X19251Y24383D01*
X18751Y24300D02*
X18584D01*
X18668D01*
Y24800D01*
X18751Y24717D01*
X13251Y32850D02*
Y32450D01*
X13051D01*
X12984Y32517D01*
Y32783D01*
X13051Y32850D01*
X13251D01*
X12851Y32450D02*
X12718D01*
X12784D01*
Y32850D01*
X12851Y32783D01*
X-650Y26101D02*
Y25501D01*
X-950D01*
X-1050Y25601D01*
Y25701D01*
X-950Y25801D01*
X-650D01*
X-950D01*
X-1050Y25901D01*
Y26001D01*
X-950Y26101D01*
X-650D01*
X-1350Y25901D02*
X-1550D01*
X-1650Y25801D01*
Y25501D01*
X-1350D01*
X-1250Y25601D01*
X-1350Y25701D01*
X-1650D01*
X-1950Y26001D02*
Y25901D01*
X-1850D01*
X-2050D01*
X-1950D01*
Y25601D01*
X-2050Y25501D01*
X-2449Y26001D02*
Y25901D01*
X-2349D01*
X-2549D01*
X-2449D01*
Y25601D01*
X-2549Y25501D01*
X-3149D02*
X-2949D01*
X-2849Y25601D01*
Y25801D01*
X-2949Y25901D01*
X-3149D01*
X-3249Y25801D01*
Y25701D01*
X-2849D01*
X-3449Y25901D02*
Y25501D01*
Y25701D01*
X-3549Y25801D01*
X-3649Y25901D01*
X-3749D01*
X-4049D02*
Y25601D01*
X-4149Y25501D01*
X-4449D01*
Y25401D01*
X-4349Y25301D01*
X-4249D01*
X-4449Y25501D02*
Y25901D01*
X-650Y23600D02*
Y24200D01*
X-950D01*
X-1050Y24100D01*
Y23900D01*
X-950Y23800D01*
X-650D01*
X-1350Y23600D02*
X-1550D01*
X-1650Y23700D01*
Y23900D01*
X-1550Y24000D01*
X-1350D01*
X-1250Y23900D01*
Y23700D01*
X-1350Y23600D01*
X-1850Y24000D02*
Y23700D01*
X-1950Y23600D01*
X-2050Y23700D01*
X-2150Y23600D01*
X-2249Y23700D01*
Y24000D01*
X-2749Y23600D02*
X-2549D01*
X-2449Y23700D01*
Y23900D01*
X-2549Y24000D01*
X-2749D01*
X-2849Y23900D01*
Y23800D01*
X-2449D01*
X-3049Y24000D02*
Y23600D01*
Y23800D01*
X-3149Y23900D01*
X-3249Y24000D01*
X-3349D01*
X-650Y22400D02*
X-1050D01*
X-850D01*
Y21800D01*
X-1550D02*
X-1350D01*
X-1250Y21900D01*
Y22100D01*
X-1350Y22200D01*
X-1550D01*
X-1650Y22100D01*
Y22000D01*
X-1250D01*
X-1850Y21800D02*
X-2150D01*
X-2249Y21900D01*
X-2150Y22000D01*
X-1950D01*
X-1850Y22100D01*
X-1950Y22200D01*
X-2249D01*
X-2549Y22300D02*
Y22200D01*
X-2449D01*
X-2649D01*
X-2549D01*
Y21900D01*
X-2649Y21800D01*
X-650Y20050D02*
Y20650D01*
X-950D01*
X-1050Y20550D01*
Y20350D01*
X-950Y20250D01*
X-650D01*
X-1650Y20550D02*
X-1550Y20650D01*
X-1350D01*
X-1250Y20550D01*
Y20150D01*
X-1350Y20050D01*
X-1550D01*
X-1650Y20150D01*
Y20350D01*
X-1450D01*
X-1850Y20050D02*
Y20650D01*
X-2050Y20450D01*
X-2249Y20650D01*
Y20050D01*
X-20799Y19000D02*
X-20933D01*
X-20866D01*
Y19400D01*
X-20799Y19333D01*
X-3299Y9650D02*
Y9150D01*
Y9650D02*
X-3513D01*
X-3585Y9626D01*
X-3609Y9602D01*
X-3632Y9555D01*
Y9507D01*
X-3609Y9459D01*
X-3585Y9436D01*
X-3513Y9412D01*
X-3299D02*
X-3513D01*
X-3585Y9388D01*
X-3609Y9364D01*
X-3632Y9317D01*
Y9245D01*
X-3609Y9198D01*
X-3585Y9174D01*
X-3513Y9150D01*
X-3299D01*
X-4030Y9483D02*
Y9150D01*
Y9412D02*
X-3982Y9459D01*
X-3935Y9483D01*
X-3863D01*
X-3816Y9459D01*
X-3768Y9412D01*
X-3744Y9340D01*
Y9293D01*
X-3768Y9221D01*
X-3816Y9174D01*
X-3863Y9150D01*
X-3935D01*
X-3982Y9174D01*
X-4030Y9221D01*
X-4235Y9650D02*
Y9245D01*
X-4259Y9174D01*
X-4306Y9150D01*
X-4354D01*
X-4163Y9483D02*
X-4330D01*
X-4497Y9650D02*
Y9245D01*
X-4520Y9174D01*
X-4568Y9150D01*
X-4616D01*
X-4425Y9483D02*
X-4592D01*
X-4687Y9340D02*
X-4973D01*
Y9388D01*
X-4949Y9436D01*
X-4925Y9459D01*
X-4877Y9483D01*
X-4806D01*
X-4758Y9459D01*
X-4711Y9412D01*
X-4687Y9340D01*
Y9293D01*
X-4711Y9221D01*
X-4758Y9174D01*
X-4806Y9150D01*
X-4877D01*
X-4925Y9174D01*
X-4973Y9221D01*
X-5080Y9483D02*
Y9150D01*
Y9340D02*
X-5104Y9412D01*
X-5151Y9459D01*
X-5199Y9483D01*
X-5270D01*
X-5339D02*
X-5482Y9150D01*
X-5625Y9483D02*
X-5482Y9150D01*
X-5434Y9055D01*
X-5387Y9007D01*
X-5339Y8983D01*
X-5315D01*
X-6458Y9531D02*
X-6434Y9578D01*
X-6387Y9626D01*
X-6339Y9650D01*
X-6244D01*
X-6196Y9626D01*
X-6149Y9578D01*
X-6125Y9531D01*
X-6101Y9459D01*
Y9340D01*
X-6125Y9269D01*
X-6149Y9221D01*
X-6196Y9174D01*
X-6244Y9150D01*
X-6339D01*
X-6387Y9174D01*
X-6434Y9221D01*
X-6458Y9269D01*
X-6599Y9650D02*
Y9150D01*
X-6751Y9650D02*
X-6775Y9626D01*
X-6798Y9650D01*
X-6775Y9674D01*
X-6751Y9650D01*
X-6775Y9483D02*
Y9150D01*
X-6887Y9483D02*
Y8983D01*
Y9412D02*
X-6934Y9459D01*
X-6982Y9483D01*
X-7053D01*
X-7101Y9459D01*
X-7148Y9412D01*
X-7172Y9340D01*
Y9293D01*
X-7148Y9221D01*
X-7101Y9174D01*
X-7053Y9150D01*
X-6982D01*
X-6934Y9174D01*
X-6887Y9221D01*
X26363Y13235D02*
X26191D01*
X26134Y13254D01*
X26115Y13273D01*
X26096Y13311D01*
Y13369D01*
X26115Y13407D01*
X26134Y13426D01*
X26191Y13445D01*
X26363D01*
Y13045D01*
X25702D02*
X25854Y13445D01*
X26007Y13045D01*
X25949Y13178D02*
X25759D01*
X25609Y13445D02*
Y13045D01*
Y13445D02*
X25475D01*
X25418Y13426D01*
X25380Y13388D01*
X25361Y13349D01*
X25342Y13292D01*
Y13197D01*
X25361Y13140D01*
X25380Y13102D01*
X25418Y13064D01*
X25475Y13045D01*
X25609D01*
X22848Y13445D02*
X22887Y13426D01*
X22925Y13388D01*
X22944Y13349D01*
X22963Y13292D01*
Y13197D01*
X22944Y13140D01*
X22925Y13102D01*
X22887Y13064D01*
X22848Y13045D01*
X22772D01*
X22734Y13064D01*
X22696Y13102D01*
X22677Y13140D01*
X22658Y13197D01*
Y13292D01*
X22677Y13349D01*
X22696Y13388D01*
X22734Y13426D01*
X22772Y13445D01*
X22848D01*
X22565D02*
Y13045D01*
X22298Y13445D02*
X22565Y13178D01*
X22469Y13273D02*
X22298Y13045D01*
X21923Y13349D02*
X21942Y13388D01*
X21980Y13426D01*
X22018Y13445D01*
X22094D01*
X22132Y13426D01*
X22170Y13388D01*
X22190Y13349D01*
X22209Y13292D01*
Y13197D01*
X22190Y13140D01*
X22170Y13102D01*
X22132Y13064D01*
X22094Y13045D01*
X22018D01*
X21980Y13064D01*
X21942Y13102D01*
X21923Y13140D01*
X26663Y27345D02*
Y26945D01*
X26293Y27250D02*
X26312Y27288D01*
X26350Y27326D01*
X26388Y27345D01*
X26465D01*
X26503Y27326D01*
X26541Y27288D01*
X26560Y27250D01*
X26579Y27192D01*
Y27097D01*
X26560Y27040D01*
X26541Y27002D01*
X26503Y26964D01*
X26465Y26945D01*
X26388D01*
X26350Y26964D01*
X26312Y27002D01*
X26293Y27040D01*
X25914Y27288D02*
X25952Y27326D01*
X26009Y27345D01*
X26086D01*
X26143Y27326D01*
X26181Y27288D01*
Y27250D01*
X26162Y27211D01*
X26143Y27192D01*
X26105Y27173D01*
X25990Y27135D01*
X25952Y27116D01*
X25933Y27097D01*
X25914Y27059D01*
Y27002D01*
X25952Y26964D01*
X26009Y26945D01*
X26086D01*
X26143Y26964D01*
X26181Y27002D01*
X25825Y27135D02*
X25653D01*
X25596Y27154D01*
X25577Y27173D01*
X25558Y27211D01*
Y27269D01*
X25577Y27307D01*
X25596Y27326D01*
X25653Y27345D01*
X25825D01*
Y26945D01*
X30866Y16490D02*
Y16140D01*
X30983Y16490D02*
X30749D01*
X30491D02*
X30708D01*
Y16140D01*
X30491D01*
X30708Y16323D02*
X30574D01*
X30200Y16440D02*
X30233Y16473D01*
X30283Y16490D01*
X30349D01*
X30399Y16473D01*
X30433Y16440D01*
Y16406D01*
X30416Y16373D01*
X30399Y16356D01*
X30366Y16340D01*
X30266Y16306D01*
X30233Y16290D01*
X30216Y16273D01*
X30200Y16240D01*
Y16190D01*
X30233Y16156D01*
X30283Y16140D01*
X30349D01*
X30399Y16156D01*
X30433Y16190D01*
X30005Y16490D02*
Y16140D01*
X30121Y16490D02*
X29888D01*
X29571D02*
Y16140D01*
Y16490D02*
X29438Y16140D01*
X29305Y16490D02*
X29438Y16140D01*
X29305Y16490D02*
Y16140D01*
X29105Y16490D02*
X29138Y16473D01*
X29171Y16440D01*
X29188Y16406D01*
X29205Y16356D01*
Y16273D01*
X29188Y16223D01*
X29171Y16190D01*
X29138Y16156D01*
X29105Y16140D01*
X29038D01*
X29005Y16156D01*
X28971Y16190D01*
X28955Y16223D01*
X28938Y16273D01*
Y16356D01*
X28955Y16406D01*
X28971Y16440D01*
X29005Y16473D01*
X29038Y16490D01*
X29105D01*
X28856D02*
Y16140D01*
Y16490D02*
X28740D01*
X28690Y16473D01*
X28657Y16440D01*
X28640Y16406D01*
X28623Y16356D01*
Y16273D01*
X28640Y16223D01*
X28657Y16190D01*
X28690Y16156D01*
X28740Y16140D01*
X28856D01*
X28328Y16490D02*
X28545D01*
Y16140D01*
X28328D01*
X28545Y16323D02*
X28412D01*
D41*
X13483Y24087D02*
G03*
X13483Y24087I-49J0D01*
G01*
X15500Y28663D02*
G03*
X15500Y28663I-49J0D01*
G01*
X15533Y26837D02*
G03*
X15533Y26837I-49J0D01*
G01*
X12587Y30891D02*
G03*
X12587Y30891I-49J0D01*
G01*
D43*
X-4782Y19244D02*
X-4743D01*
X-4782Y19756D02*
X-4743D01*
X-4782Y20994D02*
X-4743D01*
X-4782Y21506D02*
X-4743D01*
X-4782Y22744D02*
X-4743D01*
X-4782Y23256D02*
X-4743D01*
X-4782Y24494D02*
X-4743D01*
X-4782Y25006D02*
X-4743D01*
X-2587Y19815D02*
X-2112D01*
X-2587Y19185D02*
X-2112D01*
X-2587Y21565D02*
X-2112D01*
X-2587Y20935D02*
X-2112D01*
X-2587Y23315D02*
X-2112D01*
X-2587Y22685D02*
X-2112D01*
X-2587Y25065D02*
X-2112D01*
X-2587Y24435D02*
X-2112D01*
X12981Y24444D02*
X13020D01*
X12981Y24956D02*
X13020D01*
X10831Y23044D02*
X10870D01*
X10831Y23556D02*
X10870D01*
X12981Y25794D02*
X13020D01*
X12981Y26306D02*
X13020D01*
X17031Y26194D02*
X17070D01*
X17031Y26706D02*
X17070D01*
X12706Y22690D02*
Y22946D01*
Y22690D02*
X13006D01*
X12706Y23654D02*
Y23910D01*
X13006D01*
X14722Y27266D02*
Y27522D01*
Y27266D02*
X15023D01*
X14722Y28230D02*
Y28486D01*
X15023D01*
X14756Y25440D02*
Y25696D01*
Y25440D02*
X15056D01*
X14756Y26404D02*
Y26660D01*
X15056D01*
X12769Y19581D02*
X13832D01*
X12769Y18419D02*
X13832D01*
X12481Y17006D02*
X12520D01*
X12481Y16494D02*
X12520D01*
X12481Y13068D02*
X12520D01*
X12481Y12557D02*
X12520D01*
X17031Y27994D02*
X17070D01*
X17031Y28506D02*
X17070D01*
X12481Y14381D02*
X12520D01*
X12481Y13869D02*
X12520D01*
X19151Y15500D02*
Y23500D01*
X17151Y15500D02*
Y23500D01*
Y15500D02*
X19151D01*
X17151Y23500D02*
X19151D01*
X12481Y11756D02*
X12520D01*
X12481Y11244D02*
X12520D01*
X13276Y31876D02*
Y32191D01*
X12961D02*
X13276D01*
Y31009D02*
Y31324D01*
X12961Y31009D02*
X13276D01*
X12481Y15182D02*
X12520D01*
X12481Y15693D02*
X12520D01*
X-26833Y15986D02*
Y15636D01*
X-26716Y15986D02*
X-26949D01*
X-27208D02*
X-26991D01*
Y15636D01*
X-27208D01*
X-26991Y15820D02*
X-27124D01*
X-27499Y15936D02*
X-27466Y15970D01*
X-27416Y15986D01*
X-27349D01*
X-27299Y15970D01*
X-27266Y15936D01*
Y15903D01*
X-27283Y15870D01*
X-27299Y15853D01*
X-27333Y15836D01*
X-27433Y15803D01*
X-27466Y15786D01*
X-27483Y15770D01*
X-27499Y15736D01*
Y15686D01*
X-27466Y15653D01*
X-27416Y15636D01*
X-27349D01*
X-27299Y15653D01*
X-27266Y15686D01*
X-27694Y15986D02*
Y15636D01*
X-27578Y15986D02*
X-27811D01*
X-28127D02*
Y15636D01*
Y15986D02*
X-28261Y15636D01*
X-28394Y15986D02*
X-28261Y15636D01*
X-28394Y15986D02*
Y15636D01*
X-28594Y15986D02*
X-28561Y15970D01*
X-28527Y15936D01*
X-28511Y15903D01*
X-28494Y15853D01*
Y15770D01*
X-28511Y15720D01*
X-28527Y15686D01*
X-28561Y15653D01*
X-28594Y15636D01*
X-28661D01*
X-28694Y15653D01*
X-28727Y15686D01*
X-28744Y15720D01*
X-28761Y15770D01*
Y15853D01*
X-28744Y15903D01*
X-28727Y15936D01*
X-28694Y15970D01*
X-28661Y15986D01*
X-28594D01*
X-28842D02*
Y15636D01*
Y15986D02*
X-28959D01*
X-29009Y15970D01*
X-29042Y15936D01*
X-29059Y15903D01*
X-29076Y15853D01*
Y15770D01*
X-29059Y15720D01*
X-29042Y15686D01*
X-29009Y15653D01*
X-28959Y15636D01*
X-28842D01*
X-29370Y15986D02*
X-29154D01*
Y15636D01*
X-29370D01*
X-29154Y15820D02*
X-29287D01*
X28063Y26463D02*
X28025Y26482D01*
X27969Y26538D01*
Y26145D01*
D44*
X-866Y9050D02*
X-733D01*
X-799D01*
Y8717D01*
X-733Y8650D01*
X-666D01*
X-599Y8717D01*
X-1266Y8650D02*
X-999D01*
X-1266Y8917D01*
Y8983D01*
X-1199Y9050D01*
X-1066D01*
X-999Y8983D01*
X14101Y16500D02*
Y16850D01*
X13926D01*
X13868Y16792D01*
Y16675D01*
X13926Y16617D01*
X14101D01*
X13984D02*
X13868Y16500D01*
X13518Y16850D02*
X13751D01*
Y16675D01*
X13634Y16733D01*
X13576D01*
X13518Y16675D01*
Y16558D01*
X13576Y16500D01*
X13693D01*
X13751Y16558D01*
X14014Y12463D02*
Y12812D01*
X13839D01*
X13781Y12754D01*
Y12637D01*
X13839Y12579D01*
X14014D01*
X13898D02*
X13781Y12463D01*
X13489D02*
Y12812D01*
X13664Y12637D01*
X13431D01*
X18651Y28050D02*
Y28400D01*
X18476D01*
X18418Y28342D01*
Y28225D01*
X18476Y28167D01*
X18651D01*
X18534D02*
X18418Y28050D01*
X18301Y28342D02*
X18243Y28400D01*
X18126D01*
X18068Y28342D01*
Y28283D01*
X18126Y28225D01*
X18184D01*
X18126D01*
X18068Y28167D01*
Y28108D01*
X18126Y28050D01*
X18243D01*
X18301Y28108D01*
X14151Y14000D02*
Y14350D01*
X13976D01*
X13918Y14292D01*
Y14175D01*
X13976Y14117D01*
X14151D01*
X14034D02*
X13918Y14000D01*
X13568D02*
X13801D01*
X13568Y14233D01*
Y14292D01*
X13626Y14350D01*
X13743D01*
X13801Y14292D01*
X13951Y11300D02*
Y11650D01*
X13776D01*
X13718Y11592D01*
Y11475D01*
X13776Y11417D01*
X13951D01*
X13834D02*
X13718Y11300D01*
X13601D02*
X13484D01*
X13543D01*
Y11650D01*
X13601Y11592D01*
X14051Y15237D02*
Y15587D01*
X13876D01*
X13818Y15529D01*
Y15412D01*
X13876Y15354D01*
X14051D01*
X13934D02*
X13818Y15237D01*
X13468Y15587D02*
X13584Y15529D01*
X13701Y15412D01*
Y15296D01*
X13643Y15237D01*
X13526D01*
X13468Y15296D01*
Y15354D01*
X13526Y15412D01*
X13701D01*
X16535Y17260D02*
Y16960D01*
Y17260D02*
X16407D01*
X16364Y17246D01*
X16349Y17231D01*
X16335Y17203D01*
Y17174D01*
X16349Y17146D01*
X16364Y17131D01*
X16407Y17117D01*
X16535D01*
X16435D02*
X16335Y16960D01*
X16082Y17260D02*
X16268D01*
Y16960D01*
X16082D01*
X16268Y17117D02*
X16154D01*
X16032Y17260D02*
Y16960D01*
X15861D01*
X15600D02*
X15714Y17260D01*
X15828Y16960D01*
X15785Y17060D02*
X15642D01*
X15530Y17260D02*
X15415Y17117D01*
Y16960D01*
X15301Y17260D02*
X15415Y17117D01*
X15852Y16109D02*
X15867Y16137D01*
X15895Y16166D01*
X15924Y16180D01*
X15981D01*
X16010Y16166D01*
X16038Y16137D01*
X16052Y16109D01*
X16067Y16066D01*
Y15994D01*
X16052Y15951D01*
X16038Y15923D01*
X16010Y15894D01*
X15981Y15880D01*
X15924D01*
X15895Y15894D01*
X15867Y15923D01*
X15852Y15951D01*
Y15994D01*
X15924D02*
X15852D01*
X15784Y16180D02*
Y15880D01*
Y16180D02*
X15584Y15880D01*
Y16180D02*
Y15880D01*
X15501Y16180D02*
Y15880D01*
Y16180D02*
X15401D01*
X15358Y16166D01*
X15330Y16137D01*
X15315Y16109D01*
X15301Y16066D01*
Y15994D01*
X15315Y15951D01*
X15330Y15923D01*
X15358Y15894D01*
X15401Y15880D01*
X15501D01*
X15625Y22180D02*
X15768D01*
X15782Y22051D01*
X15768Y22066D01*
X15725Y22080D01*
X15682D01*
X15640Y22066D01*
X15611Y22037D01*
X15597Y21994D01*
Y21966D01*
X15611Y21923D01*
X15640Y21894D01*
X15682Y21880D01*
X15725D01*
X15768Y21894D01*
X15782Y21909D01*
X15797Y21937D01*
X15530Y22180D02*
X15415Y21880D01*
X15301Y22180D02*
X15415Y21880D01*
X15995Y21200D02*
X16024Y21186D01*
X16052Y21157D01*
X16067Y21129D01*
X16081Y21086D01*
Y21014D01*
X16067Y20971D01*
X16052Y20943D01*
X16024Y20914D01*
X15995Y20900D01*
X15938D01*
X15910Y20914D01*
X15881Y20943D01*
X15867Y20971D01*
X15852Y21014D01*
Y21086D01*
X15867Y21129D01*
X15881Y21157D01*
X15910Y21186D01*
X15938Y21200D01*
X15995D01*
X15782D02*
Y20900D01*
X15582Y21200D02*
X15782Y21000D01*
X15711Y21071D02*
X15582Y20900D01*
X15301Y21129D02*
X15315Y21157D01*
X15344Y21186D01*
X15373Y21200D01*
X15430D01*
X15458Y21186D01*
X15487Y21157D01*
X15501Y21129D01*
X15515Y21086D01*
Y21014D01*
X15501Y20971D01*
X15487Y20943D01*
X15458Y20914D01*
X15430Y20900D01*
X15373D01*
X15344Y20914D01*
X15315Y20943D01*
X15301Y20971D01*
X20791Y22160D02*
Y21860D01*
X20891Y22160D02*
X20691D01*
X20469D02*
X20655D01*
Y21860D01*
X20469D01*
X20655Y22017D02*
X20541D01*
X20220Y22117D02*
X20248Y22146D01*
X20291Y22160D01*
X20348D01*
X20391Y22146D01*
X20419Y22117D01*
Y22089D01*
X20405Y22060D01*
X20391Y22046D01*
X20362Y22031D01*
X20277Y22003D01*
X20248Y21989D01*
X20234Y21974D01*
X20220Y21946D01*
Y21903D01*
X20248Y21874D01*
X20291Y21860D01*
X20348D01*
X20391Y21874D01*
X20419Y21903D01*
X20052Y22160D02*
Y21860D01*
X20152Y22160D02*
X19952D01*
X20891Y21140D02*
Y20840D01*
Y21140D02*
X20791D01*
X20748Y21126D01*
X20719Y21097D01*
X20705Y21069D01*
X20691Y21026D01*
Y20954D01*
X20705Y20911D01*
X20719Y20883D01*
X20748Y20854D01*
X20791Y20840D01*
X20891D01*
X20538Y21140D02*
X20567Y21126D01*
X20595Y21097D01*
X20609Y21069D01*
X20624Y21026D01*
Y20954D01*
X20609Y20911D01*
X20595Y20883D01*
X20567Y20854D01*
X20538Y20840D01*
X20481D01*
X20452Y20854D01*
X20424Y20883D01*
X20409Y20911D01*
X20395Y20954D01*
Y21026D01*
X20409Y21069D01*
X20424Y21097D01*
X20452Y21126D01*
X20481Y21140D01*
X20538D01*
X20240D02*
X20268Y21126D01*
X20297Y21097D01*
X20311Y21069D01*
X20325Y21026D01*
Y20954D01*
X20311Y20911D01*
X20297Y20883D01*
X20268Y20854D01*
X20240Y20840D01*
X20182D01*
X20154Y20854D01*
X20125Y20883D01*
X20111Y20911D01*
X20097Y20954D01*
Y21026D01*
X20111Y21069D01*
X20125Y21097D01*
X20154Y21126D01*
X20182Y21140D01*
X20240D01*
X20027D02*
Y20840D01*
Y21140D02*
X19898D01*
X19855Y21126D01*
X19841Y21111D01*
X19827Y21083D01*
Y21054D01*
X19841Y21026D01*
X19855Y21011D01*
X19898Y20997D01*
X20027D01*
X19927D02*
X19827Y20840D01*
X16318Y23120D02*
Y22820D01*
Y23120D02*
X16204Y22820D01*
X16090Y23120D02*
X16204Y22820D01*
X16090Y23120D02*
Y22820D01*
X15790Y23049D02*
X15804Y23077D01*
X15832Y23106D01*
X15861Y23120D01*
X15918D01*
X15947Y23106D01*
X15975Y23077D01*
X15990Y23049D01*
X16004Y23006D01*
Y22934D01*
X15990Y22891D01*
X15975Y22863D01*
X15947Y22834D01*
X15918Y22820D01*
X15861D01*
X15832Y22834D01*
X15804Y22863D01*
X15790Y22891D01*
X15705Y23120D02*
Y22820D01*
X15534D01*
X15501Y23120D02*
Y22820D01*
Y23120D02*
X15373D01*
X15330Y23106D01*
X15315Y23091D01*
X15301Y23063D01*
Y23034D01*
X15315Y23006D01*
X15330Y22991D01*
X15373Y22977D01*
X15501D01*
X15401D02*
X15301Y22820D01*
X20662Y18940D02*
X20777Y19240D01*
X20891Y18940D01*
X20848Y19040D02*
X20705D01*
X20378Y19169D02*
X20392Y19197D01*
X20421Y19226D01*
X20449Y19240D01*
X20507D01*
X20535Y19226D01*
X20564Y19197D01*
X20578Y19169D01*
X20592Y19126D01*
Y19054D01*
X20578Y19011D01*
X20564Y18983D01*
X20535Y18954D01*
X20507Y18940D01*
X20449D01*
X20421Y18954D01*
X20392Y18983D01*
X20378Y19011D01*
X20279Y19169D02*
Y19183D01*
X20265Y19211D01*
X20251Y19226D01*
X20222Y19240D01*
X20165D01*
X20137Y19226D01*
X20122Y19211D01*
X20108Y19183D01*
Y19154D01*
X20122Y19126D01*
X20151Y19083D01*
X20294Y18940D01*
X20094D01*
X20612Y17940D02*
X20727Y18240D01*
X20841Y17940D01*
X20798Y18040D02*
X20655D01*
X20328Y18169D02*
X20342Y18197D01*
X20371Y18226D01*
X20399Y18240D01*
X20457D01*
X20485Y18226D01*
X20514Y18197D01*
X20528Y18169D01*
X20542Y18126D01*
Y18054D01*
X20528Y18011D01*
X20514Y17983D01*
X20485Y17954D01*
X20457Y17940D01*
X20399D01*
X20371Y17954D01*
X20342Y17983D01*
X20328Y18011D01*
X20244Y18183D02*
X20215Y18197D01*
X20172Y18240D01*
Y17940D01*
X16535Y20160D02*
Y19860D01*
Y20160D02*
X16407D01*
X16364Y20146D01*
X16349Y20131D01*
X16335Y20103D01*
Y20074D01*
X16349Y20046D01*
X16364Y20031D01*
X16407Y20017D01*
X16535D01*
X16435D02*
X16335Y19860D01*
X16082Y20160D02*
X16268D01*
Y19860D01*
X16082D01*
X16268Y20017D02*
X16154D01*
X16032Y20160D02*
Y19860D01*
X15861D01*
X15600D02*
X15714Y20160D01*
X15828Y19860D01*
X15785Y19960D02*
X15642D01*
X15530Y20160D02*
X15415Y20017D01*
Y19860D01*
X15301Y20160D02*
X15415Y20017D01*
X20891Y20180D02*
Y19880D01*
Y20180D02*
X20762D01*
X20719Y20166D01*
X20705Y20151D01*
X20691Y20123D01*
Y20094D01*
X20705Y20066D01*
X20719Y20051D01*
X20762Y20037D01*
X20891D01*
X20791D02*
X20691Y19880D01*
X20624Y20180D02*
Y19880D01*
Y20180D02*
X20509Y19880D01*
X20395Y20180D02*
X20509Y19880D01*
X20395Y20180D02*
Y19880D01*
X20210Y20180D02*
Y19880D01*
X20309Y20180D02*
X20110D01*
X15852Y18069D02*
X15867Y18097D01*
X15895Y18126D01*
X15924Y18140D01*
X15981D01*
X16010Y18126D01*
X16038Y18097D01*
X16052Y18069D01*
X16067Y18026D01*
Y17954D01*
X16052Y17911D01*
X16038Y17883D01*
X16010Y17854D01*
X15981Y17840D01*
X15924D01*
X15895Y17854D01*
X15867Y17883D01*
X15852Y17911D01*
Y17954D01*
X15924D02*
X15852D01*
X15784Y18140D02*
Y17840D01*
Y18140D02*
X15584Y17840D01*
Y18140D02*
Y17840D01*
X15501Y18140D02*
Y17840D01*
Y18140D02*
X15401D01*
X15358Y18126D01*
X15330Y18097D01*
X15315Y18069D01*
X15301Y18026D01*
Y17954D01*
X15315Y17911D01*
X15330Y17883D01*
X15358Y17854D01*
X15401Y17840D01*
X15501D01*
X16751Y19200D02*
Y18900D01*
Y19200D02*
X16651D01*
X16608Y19186D01*
X16579Y19157D01*
X16565Y19129D01*
X16551Y19086D01*
Y19014D01*
X16565Y18971D01*
X16579Y18943D01*
X16608Y18914D01*
X16651Y18900D01*
X16751D01*
X16269Y19129D02*
X16284Y19157D01*
X16312Y19186D01*
X16341Y19200D01*
X16398D01*
X16427Y19186D01*
X16455Y19157D01*
X16469Y19129D01*
X16484Y19086D01*
Y19014D01*
X16469Y18971D01*
X16455Y18943D01*
X16427Y18914D01*
X16398Y18900D01*
X16341D01*
X16312Y18914D01*
X16284Y18943D01*
X16269Y18971D01*
X15864Y19200D02*
X15892Y19186D01*
X15921Y19157D01*
X15935Y19129D01*
X15950Y19086D01*
Y19014D01*
X15935Y18971D01*
X15921Y18943D01*
X15892Y18914D01*
X15864Y18900D01*
X15807D01*
X15778Y18914D01*
X15750Y18943D01*
X15735Y18971D01*
X15721Y19014D01*
Y19086D01*
X15735Y19129D01*
X15750Y19157D01*
X15778Y19186D01*
X15807Y19200D01*
X15864D01*
X15651Y19100D02*
Y18957D01*
X15637Y18914D01*
X15608Y18900D01*
X15565D01*
X15537Y18914D01*
X15494Y18957D01*
Y19100D02*
Y18900D01*
X15373Y19200D02*
Y18957D01*
X15358Y18914D01*
X15330Y18900D01*
X15301D01*
X15415Y19100D02*
X15315D01*
X20677Y16109D02*
X20691Y16137D01*
X20719Y16166D01*
X20748Y16180D01*
X20805D01*
X20834Y16166D01*
X20862Y16137D01*
X20877Y16109D01*
X20891Y16066D01*
Y15994D01*
X20877Y15951D01*
X20862Y15923D01*
X20834Y15894D01*
X20805Y15880D01*
X20748D01*
X20719Y15894D01*
X20691Y15923D01*
X20677Y15951D01*
X20592Y16180D02*
Y15880D01*
X20421D01*
X20388Y16180D02*
Y15880D01*
X20188Y16180D02*
X20388Y15980D01*
X20317Y16051D02*
X20188Y15880D01*
X20891Y17180D02*
Y16880D01*
Y17180D02*
X20791D01*
X20748Y17166D01*
X20719Y17137D01*
X20705Y17109D01*
X20691Y17066D01*
Y16994D01*
X20705Y16951D01*
X20719Y16923D01*
X20748Y16894D01*
X20791Y16880D01*
X20891D01*
X20395D02*
X20509Y17180D01*
X20624Y16880D01*
X20581Y16980D02*
X20438D01*
X20225Y17180D02*
Y16880D01*
X20325Y17180D02*
X20125D01*
X19861Y16880D02*
X19975Y17180D01*
X20090Y16880D01*
X20047Y16980D02*
X19904D01*
X20891Y23300D02*
X20777Y23000D01*
X20662Y23300D02*
X20777Y23000D01*
X20624Y23300D02*
Y23000D01*
Y23300D02*
X20524D01*
X20481Y23286D01*
X20452Y23257D01*
X20438Y23229D01*
X20424Y23186D01*
Y23114D01*
X20438Y23071D01*
X20452Y23043D01*
X20481Y23014D01*
X20524Y23000D01*
X20624D01*
X20357Y23300D02*
Y23000D01*
Y23300D02*
X20257D01*
X20214Y23286D01*
X20185Y23257D01*
X20171Y23229D01*
X20157Y23186D01*
Y23114D01*
X20171Y23071D01*
X20185Y23043D01*
X20214Y23014D01*
X20257Y23000D01*
X20357D01*
D45*
X-4771Y28513D02*
X-4728Y28556D01*
X-4643D01*
X-4600Y28513D01*
Y28343D01*
X-4643Y28300D01*
X-4728D01*
X-4771Y28343D01*
Y28428D01*
X-4685D01*
X-4856Y28300D02*
Y28556D01*
X-5026Y28300D01*
Y28556D01*
X-5112D02*
Y28300D01*
X-5240D01*
X-5282Y28343D01*
Y28513D01*
X-5240Y28556D01*
X-5112D01*
D46*
X12151Y24550D02*
Y24950D01*
X11951D01*
X11884Y24883D01*
Y24750D01*
X11951Y24683D01*
X12151D01*
X12018D02*
X11884Y24550D01*
X11751D02*
X11618D01*
X11684D01*
Y24950D01*
X11751Y24883D01*
X11418D02*
X11351Y24950D01*
X11218D01*
X11151Y24883D01*
Y24617D01*
X11218Y24550D01*
X11351D01*
X11418Y24617D01*
Y24883D01*
X9901Y23100D02*
Y23500D01*
X9701D01*
X9634Y23433D01*
Y23300D01*
X9701Y23233D01*
X9901D01*
X9768D02*
X9634Y23100D01*
X9501Y23167D02*
X9434Y23100D01*
X9301D01*
X9234Y23167D01*
Y23433D01*
X9301Y23500D01*
X9434D01*
X9501Y23433D01*
Y23367D01*
X9434Y23300D01*
X9234D01*
X12101Y25850D02*
Y26250D01*
X11901D01*
X11834Y26183D01*
Y26050D01*
X11901Y25983D01*
X12101D01*
X11968D02*
X11834Y25850D01*
X11701Y26183D02*
X11634Y26250D01*
X11501D01*
X11434Y26183D01*
Y26117D01*
X11501Y26050D01*
X11434Y25983D01*
Y25917D01*
X11501Y25850D01*
X11634D01*
X11701Y25917D01*
Y25983D01*
X11634Y26050D01*
X11701Y26117D01*
Y26183D01*
X11634Y26050D02*
X11501D01*
X18651Y26150D02*
Y26550D01*
X18451D01*
X18384Y26483D01*
Y26350D01*
X18451Y26283D01*
X18651D01*
X18518D02*
X18384Y26150D01*
X18251Y26550D02*
X17984D01*
Y26483D01*
X18251Y26217D01*
Y26150D01*
X13054Y22207D02*
Y22473D01*
X13121Y22540D01*
X13254D01*
X13321Y22473D01*
Y22207D01*
X13254Y22140D01*
X13121D01*
X13188Y22273D02*
X13054Y22140D01*
X13121D02*
X13054Y22207D01*
X12921Y22473D02*
X12854Y22540D01*
X12721D01*
X12654Y22473D01*
Y22407D01*
X12721Y22340D01*
X12788D01*
X12721D01*
X12654Y22273D01*
Y22207D01*
X12721Y22140D01*
X12854D01*
X12921Y22207D01*
X14784Y28717D02*
Y28983D01*
X14851Y29050D01*
X14984D01*
X15051Y28983D01*
Y28717D01*
X14984Y28650D01*
X14851D01*
X14918Y28783D02*
X14784Y28650D01*
X14851D02*
X14784Y28717D01*
X14384Y28650D02*
X14651D01*
X14384Y28917D01*
Y28983D01*
X14451Y29050D01*
X14584D01*
X14651Y28983D01*
X15134Y24967D02*
Y25233D01*
X15201Y25300D01*
X15334D01*
X15401Y25233D01*
Y24967D01*
X15334Y24900D01*
X15201D01*
X15267Y25033D02*
X15134Y24900D01*
X15201D02*
X15134Y24967D01*
X15001Y24900D02*
X14868D01*
X14934D01*
Y25300D01*
X15001Y25233D01*
X14334Y18180D02*
X14601D01*
Y17980D01*
X14468D01*
X14601D01*
Y17780D01*
X14201D02*
X14068D01*
X14134D01*
Y18180D01*
X14201Y18113D01*
X19091Y23640D02*
X18967D01*
X19029D01*
Y24010D01*
X19091Y23948D01*
X18536Y24010D02*
X18659Y23948D01*
X18783Y23825D01*
Y23702D01*
X18721Y23640D01*
X18598D01*
X18536Y23702D01*
Y23763D01*
X18598Y23825D01*
X18783D01*
X17831Y23600D02*
X17707D01*
X17769D01*
Y23970D01*
X17831Y23908D01*
X17276Y23970D02*
X17523D01*
Y23785D01*
X17399Y23847D01*
X17338D01*
X17276Y23785D01*
Y23662D01*
X17338Y23600D01*
X17461D01*
X17523Y23662D01*
X17411Y14940D02*
X17287D01*
X17349D01*
Y15310D01*
X17411Y15248D01*
X18784Y14940D02*
X19031D01*
X18784Y15187D01*
Y15248D01*
X18846Y15310D01*
X18969D01*
X19031Y15248D01*
D69*
X-3530Y19185D02*
Y19815D01*
Y20935D02*
Y21565D01*
Y22685D02*
Y23315D01*
Y24435D02*
Y25065D01*
M02*
