G04 Layer_Physical_Order=2*
G04 Layer_Color=16711680*
%FSLAX24Y24*%
%MOIN*%
G70*
G01*
G75*
%ADD12R,0.0701X0.1240*%
%ADD15C,0.0300*%
%ADD16C,0.0120*%
%ADD17C,0.0150*%
%ADD18C,0.0350*%
%ADD19C,0.0100*%
%ADD20C,0.0200*%
%ADD21C,0.0560*%
%ADD22R,0.0560X0.0560*%
%ADD23C,0.0920*%
%ADD24O,0.1600X0.1900*%
%ADD25C,0.1260*%
%ADD26C,0.1400*%
%ADD27O,0.1500X0.1750*%
%ADD28C,0.0591*%
%ADD29R,0.0591X0.0591*%
%ADD30C,0.0900*%
%ADD31C,0.0720*%
%ADD32C,0.0700*%
%ADD33C,0.0350*%
%ADD34C,0.0500*%
%ADD35C,0.0400*%
%ADD36R,0.0492X0.0591*%
%ADD37R,0.0591X0.0591*%
%ADD38R,0.0551X0.0394*%
%ADD39R,0.0571X0.0236*%
%ADD40C,0.0180*%
G36*
X14805Y20776D02*
X14807Y20755D01*
X14810Y20735D01*
X14814Y20716D01*
X14820Y20698D01*
X14827Y20681D01*
X14835Y20665D01*
X14844Y20650D01*
X14855Y20636D01*
X14867Y20623D01*
X14782Y20538D01*
X14769Y20550D01*
X14755Y20561D01*
X14740Y20570D01*
X14724Y20578D01*
X14707Y20585D01*
X14689Y20591D01*
X14670Y20595D01*
X14650Y20598D01*
X14629Y20600D01*
X14607Y20600D01*
X14805Y20798D01*
X14805Y20776D01*
D02*
G37*
G36*
X17946Y20955D02*
X17952Y20879D01*
X17956Y20845D01*
X17963Y20814D01*
X17971Y20786D01*
X17980Y20761D01*
X17991Y20739D01*
X18003Y20720D01*
X18017Y20704D01*
X17946Y20634D01*
X17930Y20648D01*
X17911Y20660D01*
X17889Y20671D01*
X17864Y20680D01*
X17837Y20688D01*
X17806Y20694D01*
X17772Y20699D01*
X17696Y20704D01*
X17654Y20705D01*
X17946Y20997D01*
X17946Y20955D01*
D02*
G37*
G36*
X20119Y20342D02*
X20120Y20322D01*
X20121Y20302D01*
X20125Y20283D01*
X20130Y20266D01*
X20136Y20249D01*
X20144Y20233D01*
X20153Y20217D01*
X20164Y20203D01*
X20176Y20190D01*
X20085Y20111D01*
X20072Y20123D01*
X20058Y20134D01*
X20043Y20144D01*
X20027Y20152D01*
X20010Y20160D01*
X19991Y20166D01*
X19972Y20171D01*
X19952Y20175D01*
X19931Y20178D01*
X19909Y20180D01*
X20120Y20364D01*
X20119Y20342D01*
D02*
G37*
G36*
X19031Y20274D02*
X19015Y20256D01*
X19000Y20236D01*
X18987Y20213D01*
X18976Y20189D01*
X18966Y20163D01*
X18959Y20135D01*
X18953Y20105D01*
X18949Y20073D01*
X18947Y20039D01*
X18946Y20003D01*
X18654Y20295D01*
X18690Y20296D01*
X18724Y20298D01*
X18756Y20302D01*
X18786Y20308D01*
X18814Y20316D01*
X18840Y20325D01*
X18864Y20336D01*
X18886Y20349D01*
X18907Y20364D01*
X18925Y20380D01*
X19031Y20274D01*
D02*
G37*
G36*
X-22573Y26664D02*
X-22569Y26640D01*
X-22563Y26616D01*
X-22555Y26593D01*
X-22544Y26569D01*
X-22531Y26545D01*
X-22528Y26542D01*
X-22524Y26542D01*
X-22498Y26550D01*
X-22474Y26559D01*
X-22451Y26570D01*
X-22430Y26582D01*
X-22410Y26597D01*
X-22393Y26613D01*
X-22287Y26507D01*
X-22303Y26489D01*
X-22317Y26469D01*
X-22329Y26448D01*
X-22340Y26425D01*
X-22349Y26401D01*
X-22357Y26375D01*
X-22363Y26347D01*
X-22366Y26317D01*
X-22369Y26286D01*
X-22369Y26253D01*
X-22566Y26450D01*
X-22845D01*
X-22822Y26474D01*
X-22802Y26497D01*
X-22784Y26521D01*
X-22768Y26545D01*
X-22754Y26569D01*
X-22744Y26593D01*
X-22735Y26616D01*
X-22729Y26640D01*
X-22725Y26664D01*
X-22724Y26688D01*
X-22574D01*
X-22573Y26664D01*
D02*
G37*
G36*
X13244Y14370D02*
X13222Y14347D01*
X13188Y14306D01*
X13175Y14287D01*
X13165Y14270D01*
X13157Y14253D01*
X13153Y14238D01*
X13152Y14224D01*
X13153Y14212D01*
X13158Y14200D01*
X13039Y14418D01*
X13046Y14409D01*
X13055Y14404D01*
X13066Y14403D01*
X13080Y14406D01*
X13096Y14412D01*
X13114Y14423D01*
X13134Y14437D01*
X13157Y14456D01*
X13208Y14504D01*
X13244Y14370D01*
D02*
G37*
G36*
X24795Y13176D02*
X24803Y13144D01*
X24816Y13110D01*
X24833Y13073D01*
X24856Y13035D01*
X24884Y12994D01*
X24918Y12952D01*
X24999Y12860D01*
X25048Y12811D01*
X24418D01*
X24466Y12860D01*
X24548Y12952D01*
X24581Y12994D01*
X24609Y13035D01*
X24632Y13073D01*
X24650Y13110D01*
X24662Y13144D01*
X24670Y13176D01*
X24673Y13206D01*
X24793D01*
X24795Y13176D01*
D02*
G37*
G36*
X17440Y20793D02*
X17411Y20821D01*
X17357Y20868D01*
X17330Y20887D01*
X17304Y20903D01*
X17279Y20917D01*
X17254Y20927D01*
X17230Y20934D01*
X17207Y20939D01*
X17185Y20940D01*
Y21060D01*
X17207Y21061D01*
X17230Y21066D01*
X17254Y21073D01*
X17279Y21083D01*
X17304Y21097D01*
X17330Y21113D01*
X17357Y21132D01*
X17384Y21154D01*
X17440Y21207D01*
Y20793D01*
D02*
G37*
G36*
X-1108Y32812D02*
X-926Y32736D01*
X-762Y32627D01*
X-622Y32487D01*
X-513Y32324D01*
X-438Y32142D01*
X-399Y31948D01*
Y31850D01*
Y9850D01*
Y9752D01*
X-438Y9558D01*
X-513Y9376D01*
X-622Y9213D01*
X-762Y9073D01*
X-926Y8964D01*
X-1108Y8888D01*
X-1301Y8850D01*
X-32783D01*
X-32977Y8888D01*
X-33159Y8964D01*
X-33322Y9073D01*
X-33392Y9143D01*
X-34306Y10057D01*
X-34376Y10127D01*
X-34485Y10291D01*
X-34561Y10473D01*
X-34599Y10666D01*
Y10764D01*
Y31086D01*
Y31184D01*
X-34561Y31377D01*
X-34485Y31559D01*
X-34376Y31723D01*
X-34306Y31793D01*
Y31793D01*
X-33542Y32557D01*
X-33472Y32627D01*
X-33309Y32736D01*
X-33127Y32812D01*
X-32933Y32850D01*
X-26657D01*
X-26641Y32803D01*
X-26659Y32789D01*
X-26748Y32672D01*
X-26805Y32536D01*
X-26817Y32440D01*
X-26259D01*
Y32340D01*
X-26817D01*
X-26805Y32244D01*
X-26748Y32108D01*
X-26659Y31991D01*
X-26567Y31920D01*
Y31860D01*
X-26659Y31789D01*
X-26748Y31672D01*
X-26805Y31536D01*
X-26824Y31390D01*
X-26805Y31244D01*
X-26748Y31108D01*
X-26659Y30991D01*
X-26542Y30901D01*
X-26405Y30844D01*
X-26259Y30825D01*
X-26113Y30844D01*
X-25977Y30901D01*
X-25860Y30991D01*
X-25789Y31082D01*
X-25729D01*
X-25659Y30991D01*
X-25542Y30901D01*
X-25405Y30844D01*
X-25259Y30825D01*
X-25113Y30844D01*
X-24977Y30901D01*
X-24860Y30991D01*
X-24789Y31082D01*
X-24729D01*
X-24659Y30991D01*
X-24542Y30901D01*
X-24405Y30844D01*
X-24259Y30825D01*
X-24113Y30844D01*
X-23977Y30901D01*
X-23860Y30991D01*
X-23770Y31108D01*
X-23714Y31244D01*
X-23694Y31390D01*
X-23714Y31536D01*
X-23770Y31672D01*
X-23860Y31789D01*
X-23952Y31860D01*
Y31920D01*
X-23860Y31991D01*
X-23847Y32007D01*
X-23814Y32040D01*
X-23729Y32115D01*
X-23691Y32143D01*
X-23656Y32166D01*
X-23624Y32185D01*
X-23594Y32198D01*
X-23569Y32207D01*
X-23547Y32211D01*
X-23545Y32212D01*
X-23513D01*
X-22828Y31526D01*
Y26670D01*
X-22829Y26660D01*
X-22833Y26646D01*
X-22838Y26631D01*
X-22845Y26615D01*
X-22855Y26598D01*
X-22867Y26580D01*
X-22881Y26562D01*
X-22897Y26543D01*
X-22913Y26527D01*
X-22920Y26521D01*
X-22981Y26442D01*
X-23019Y26349D01*
X-23032Y26250D01*
X-23019Y26151D01*
X-22981Y26058D01*
X-22920Y25979D01*
X-22841Y25918D01*
X-22748Y25880D01*
X-22649Y25867D01*
X-22550Y25880D01*
X-22458Y25918D01*
X-22378Y25979D01*
X-22317Y26058D01*
X-22279Y26151D01*
X-22266Y26250D01*
X-22267Y26259D01*
X-22267Y26281D01*
X-22265Y26307D01*
X-22262Y26330D01*
X-22258Y26351D01*
X-22252Y26369D01*
X-22246Y26386D01*
X-22239Y26400D01*
X-22232Y26413D01*
X-22226Y26421D01*
X-21875Y26772D01*
X-19833D01*
X-19831Y26771D01*
X-19821Y26770D01*
X-19811Y26767D01*
X-19802Y26764D01*
X-19794Y26760D01*
X-19787Y26756D01*
X-19779Y26751D01*
X-19772Y26745D01*
X-19766Y26739D01*
X-19763Y26736D01*
X-19701Y26688D01*
X-19628Y26658D01*
X-19549Y26647D01*
X-19471Y26658D01*
X-19398Y26688D01*
X-19335Y26736D01*
X-19287Y26799D01*
X-19257Y26872D01*
X-19247Y26950D01*
X-19257Y27028D01*
X-19287Y27101D01*
X-19335Y27164D01*
X-19398Y27212D01*
X-19471Y27242D01*
X-19549Y27253D01*
X-19628Y27242D01*
X-19701Y27212D01*
X-19763Y27164D01*
X-19766Y27161D01*
X-19772Y27155D01*
X-19779Y27149D01*
X-19787Y27144D01*
X-19794Y27140D01*
X-19802Y27136D01*
X-19811Y27133D01*
X-19821Y27130D01*
X-19831Y27129D01*
X-19833Y27128D01*
X-21949D01*
X-22017Y27115D01*
X-22075Y27076D01*
X-22075Y27076D01*
X-22425Y26727D01*
X-22471Y26746D01*
Y31600D01*
X-22471Y31600D01*
X-22484Y31668D01*
X-22523Y31726D01*
X-22523Y31726D01*
X-23313Y32516D01*
X-23371Y32555D01*
X-23439Y32568D01*
X-23545D01*
X-23547Y32569D01*
X-23569Y32573D01*
X-23594Y32582D01*
X-23624Y32595D01*
X-23656Y32614D01*
X-23691Y32637D01*
X-23729Y32665D01*
X-23814Y32740D01*
X-23847Y32773D01*
X-23860Y32789D01*
X-23877Y32803D01*
X-23861Y32850D01*
X-1301D01*
X-1108Y32812D01*
D02*
G37*
G36*
X-19692Y26810D02*
X-19705Y26822D01*
X-19719Y26833D01*
X-19733Y26843D01*
X-19749Y26852D01*
X-19765Y26859D01*
X-19781Y26865D01*
X-19798Y26869D01*
X-19816Y26872D01*
X-19835Y26874D01*
X-19855Y26875D01*
Y27025D01*
X-19835Y27026D01*
X-19816Y27028D01*
X-19798Y27031D01*
X-19781Y27035D01*
X-19765Y27041D01*
X-19749Y27048D01*
X-19733Y27057D01*
X-19719Y27067D01*
X-19705Y27078D01*
X-19692Y27090D01*
Y26810D01*
D02*
G37*
G36*
X14681Y19272D02*
X14690Y19246D01*
X14705Y19224D01*
X14727Y19204D01*
X14754Y19188D01*
X14787Y19174D01*
X14826Y19164D01*
X14871Y19156D01*
X14922Y19152D01*
X14980Y19150D01*
Y18850D01*
X14922Y18849D01*
X14871Y18844D01*
X14826Y18836D01*
X14787Y18826D01*
X14754Y18813D01*
X14727Y18796D01*
X14705Y18777D01*
X14690Y18754D01*
X14681Y18728D01*
X14678Y18700D01*
Y19300D01*
X14681Y19272D01*
D02*
G37*
G36*
X12832Y24406D02*
X12833Y24400D01*
X12836Y24394D01*
X12840Y24386D01*
X12845Y24377D01*
X12853Y24367D01*
X12872Y24344D01*
X12899Y24316D01*
X12914Y24300D01*
X12702D01*
X12681Y24320D01*
X12659Y24338D01*
X12638Y24354D01*
X12617Y24368D01*
X12595Y24380D01*
X12574Y24390D01*
X12553Y24397D01*
X12532Y24403D01*
X12511Y24406D01*
X12490Y24407D01*
X12832Y24406D01*
D02*
G37*
G36*
X11922Y18700D02*
X11919Y18728D01*
X11910Y18754D01*
X11895Y18777D01*
X11874Y18796D01*
X11847Y18813D01*
X11814Y18826D01*
X11775Y18836D01*
X11730Y18844D01*
X11679Y18849D01*
X11622Y18850D01*
Y19150D01*
X11679Y19152D01*
X11730Y19156D01*
X11775Y19164D01*
X11814Y19174D01*
X11847Y19188D01*
X11874Y19204D01*
X11895Y19224D01*
X11910Y19246D01*
X11919Y19272D01*
X11922Y19300D01*
Y18700D01*
D02*
G37*
G36*
X13660Y24809D02*
X13664Y24798D01*
X13670Y24789D01*
X13678Y24782D01*
X13689Y24775D01*
X13702Y24770D01*
X13718Y24765D01*
X13736Y24762D01*
X13756Y24761D01*
X13779Y24760D01*
Y24640D01*
X13756Y24639D01*
X13736Y24638D01*
X13718Y24635D01*
X13702Y24630D01*
X13689Y24625D01*
X13678Y24618D01*
X13670Y24611D01*
X13664Y24602D01*
X13660Y24591D01*
X13659Y24580D01*
Y24820D01*
X13660Y24809D01*
D02*
G37*
G36*
X18648Y18705D02*
X18608Y18704D01*
X18536Y18699D01*
X18504Y18693D01*
X18474Y18687D01*
X18447Y18678D01*
X18422Y18668D01*
X18400Y18656D01*
X18381Y18643D01*
X18363Y18628D01*
X18279Y18713D01*
X18294Y18730D01*
X18307Y18749D01*
X18319Y18771D01*
X18329Y18796D01*
X18337Y18823D01*
X18344Y18853D01*
X18349Y18885D01*
X18353Y18920D01*
X18356Y18997D01*
X18648Y18705D01*
D02*
G37*
G36*
X14628Y23244D02*
X14617Y23230D01*
X14608Y23216D01*
X14599Y23201D01*
X14592Y23185D01*
X14586Y23168D01*
X14582Y23151D01*
X14578Y23133D01*
X14576Y23114D01*
X14576Y23095D01*
X14426D01*
X14425Y23114D01*
X14423Y23133D01*
X14420Y23151D01*
X14415Y23168D01*
X14410Y23185D01*
X14402Y23201D01*
X14394Y23216D01*
X14384Y23230D01*
X14373Y23244D01*
X14361Y23257D01*
X14641D01*
X14628Y23244D01*
D02*
G37*
G36*
X13265Y15682D02*
X13238Y15654D01*
X13194Y15602D01*
X13178Y15578D01*
X13165Y15556D01*
X13156Y15536D01*
X13151Y15517D01*
X13150Y15500D01*
X13153Y15484D01*
X13159Y15470D01*
X12996Y15732D01*
X13006Y15721D01*
X13018Y15715D01*
X13032Y15714D01*
X13050Y15717D01*
X13070Y15725D01*
X13092Y15738D01*
X13117Y15756D01*
X13145Y15779D01*
X13208Y15838D01*
X13265Y15682D01*
D02*
G37*
G36*
X18381Y19357D02*
X18400Y19344D01*
X18422Y19332D01*
X18447Y19322D01*
X18474Y19313D01*
X18504Y19307D01*
X18536Y19301D01*
X18571Y19298D01*
X18648Y19295D01*
X18356Y19003D01*
X18355Y19043D01*
X18349Y19115D01*
X18344Y19147D01*
X18337Y19177D01*
X18329Y19204D01*
X18319Y19229D01*
X18307Y19251D01*
X18294Y19270D01*
X18279Y19287D01*
X18363Y19372D01*
X18381Y19357D01*
D02*
G37*
G36*
X17440Y18793D02*
X17428Y18804D01*
X17413Y18814D01*
X17397Y18822D01*
X17378Y18830D01*
X17357Y18836D01*
X17334Y18841D01*
X17308Y18845D01*
X17281Y18848D01*
X17219Y18850D01*
Y19150D01*
X17251Y19151D01*
X17308Y19155D01*
X17334Y19159D01*
X17357Y19164D01*
X17378Y19170D01*
X17397Y19178D01*
X17413Y19186D01*
X17428Y19196D01*
X17440Y19207D01*
Y18793D01*
D02*
G37*
G36*
X13266Y23949D02*
X13316Y23907D01*
X13339Y23891D01*
X13361Y23879D01*
X13382Y23870D01*
X13401Y23864D01*
X13419Y23862D01*
X13435Y23864D01*
X13450Y23868D01*
X13161Y23736D01*
X13173Y23744D01*
X13179Y23755D01*
X13181Y23769D01*
X13178Y23786D01*
X13170Y23806D01*
X13157Y23828D01*
X13138Y23854D01*
X13115Y23883D01*
X13053Y23948D01*
X13238Y23976D01*
X13266Y23949D01*
D02*
G37*
G36*
X2378Y29140D02*
X2383Y29112D01*
X2392Y29082D01*
X2404Y29052D01*
X2420Y29022D01*
X2440Y28990D01*
X2463Y28958D01*
X2489Y28925D01*
X2553Y28857D01*
X2049D01*
X2082Y28891D01*
X2139Y28958D01*
X2162Y28990D01*
X2182Y29022D01*
X2197Y29052D01*
X2210Y29082D01*
X2219Y29112D01*
X2224Y29140D01*
X2226Y29168D01*
X2376D01*
X2378Y29140D01*
D02*
G37*
G36*
X8087Y5187D02*
X8091Y5128D01*
X8099Y5076D01*
X8109Y5031D01*
X8123Y4992D01*
X8139Y4961D01*
X8159Y4937D01*
X8181Y4919D01*
X8207Y4909D01*
X8235Y4905D01*
X7636D01*
X7664Y4909D01*
X7690Y4919D01*
X7712Y4937D01*
X7732Y4961D01*
X7748Y4992D01*
X7762Y5031D01*
X7772Y5076D01*
X7779Y5128D01*
X7784Y5187D01*
X7785Y5253D01*
X8085D01*
X8087Y5187D01*
D02*
G37*
G36*
X1378Y29140D02*
X1383Y29112D01*
X1392Y29082D01*
X1404Y29052D01*
X1420Y29022D01*
X1440Y28990D01*
X1463Y28958D01*
X1489Y28925D01*
X1553Y28857D01*
X1049D01*
X1082Y28891D01*
X1139Y28958D01*
X1162Y28990D01*
X1182Y29022D01*
X1197Y29052D01*
X1210Y29082D01*
X1219Y29112D01*
X1224Y29140D01*
X1226Y29168D01*
X1376D01*
X1378Y29140D01*
D02*
G37*
G36*
X11843Y11380D02*
X11841Y11391D01*
X11838Y11402D01*
X11832Y11411D01*
X11823Y11418D01*
X11813Y11425D01*
X11799Y11430D01*
X11784Y11435D01*
X11766Y11438D01*
X11745Y11439D01*
X11723Y11440D01*
Y11560D01*
X11745Y11561D01*
X11766Y11562D01*
X11784Y11565D01*
X11799Y11570D01*
X11813Y11575D01*
X11823Y11582D01*
X11832Y11589D01*
X11838Y11598D01*
X11841Y11609D01*
X11843Y11620D01*
Y11380D01*
D02*
G37*
G36*
X-7748Y7159D02*
X-7743Y7101D01*
X-7736Y7049D01*
X-7725Y7004D01*
X-7712Y6967D01*
X-7695Y6936D01*
X-7676Y6912D01*
X-7653Y6894D01*
X-7628Y6884D01*
X-7600Y6881D01*
X-8199D01*
X-8170Y6884D01*
X-8145Y6894D01*
X-8123Y6912D01*
X-8103Y6936D01*
X-8087Y6967D01*
X-8073Y7004D01*
X-8063Y7049D01*
X-8055Y7101D01*
X-8051Y7159D01*
X-8049Y7225D01*
X-7749D01*
X-7748Y7159D01*
D02*
G37*
G36*
X3112Y5219D02*
X3126Y5085D01*
X3138Y5031D01*
X3154Y4985D01*
X3173Y4947D01*
X3196Y4918D01*
X3222Y4897D01*
X3252Y4885D01*
X3285Y4881D01*
X2586D01*
X2619Y4885D01*
X2649Y4897D01*
X2675Y4918D01*
X2698Y4947D01*
X2717Y4985D01*
X2733Y5031D01*
X2745Y5085D01*
X2753Y5148D01*
X2759Y5219D01*
X2760Y5298D01*
X3110D01*
X3112Y5219D01*
D02*
G37*
G36*
X12254Y31857D02*
X12252Y31865D01*
X12248Y31872D01*
X12240Y31878D01*
X12230Y31884D01*
X12216Y31889D01*
X12200Y31892D01*
X12180Y31895D01*
X12158Y31897D01*
X12104Y31899D01*
Y32049D01*
X12132Y32049D01*
X12180Y32053D01*
X12200Y32056D01*
X12216Y32059D01*
X12230Y32064D01*
X12240Y32070D01*
X12248Y32076D01*
X12252Y32083D01*
X12254Y32091D01*
Y31857D01*
D02*
G37*
G36*
X-23883Y32665D02*
X-23793Y32586D01*
X-23750Y32554D01*
X-23709Y32527D01*
X-23670Y32505D01*
X-23632Y32487D01*
X-23596Y32475D01*
X-23562Y32467D01*
X-23529Y32465D01*
Y32315D01*
X-23562Y32313D01*
X-23596Y32305D01*
X-23632Y32293D01*
X-23670Y32275D01*
X-23709Y32253D01*
X-23750Y32226D01*
X-23793Y32194D01*
X-23883Y32115D01*
X-23931Y32068D01*
Y32712D01*
X-23883Y32665D01*
D02*
G37*
G36*
X13749Y31709D02*
X13754Y31702D01*
X13761Y31696D01*
X13772Y31690D01*
X13785Y31685D01*
X13802Y31682D01*
X13821Y31679D01*
X13844Y31677D01*
X13898Y31675D01*
Y31525D01*
X13869Y31525D01*
X13821Y31521D01*
X13802Y31518D01*
X13785Y31515D01*
X13772Y31510D01*
X13761Y31504D01*
X13754Y31498D01*
X13749Y31491D01*
X13748Y31483D01*
Y31717D01*
X13749Y31709D01*
D02*
G37*
G36*
X34841Y29740D02*
Y11737D01*
X34027Y11100D01*
X32698D01*
X32669Y11135D01*
X32558Y11226D01*
X32431Y11294D01*
X32294Y11336D01*
X32151Y11350D01*
X32008Y11336D01*
X31870Y11294D01*
X31743Y11226D01*
X31632Y11135D01*
X31603Y11100D01*
X16698D01*
X16669Y11135D01*
X16558Y11226D01*
X16431Y11294D01*
X16294Y11336D01*
X16151Y11350D01*
X16008Y11336D01*
X15870Y11294D01*
X15743Y11226D01*
X15632Y11135D01*
X15603Y11100D01*
X13308D01*
X13260Y11105D01*
X13260Y11150D01*
Y11450D01*
X12914D01*
X12568D01*
X12568Y11105D01*
X12520Y11100D01*
X12482D01*
X12433Y11105D01*
X12433Y11150D01*
Y11895D01*
X11741D01*
Y11663D01*
X10632D01*
X10589Y11686D01*
X10579Y11764D01*
X10549Y11837D01*
X10501Y11900D01*
X10438Y11948D01*
X10365Y11978D01*
X10287Y11988D01*
X10208Y11978D01*
X10135Y11948D01*
X10073Y11900D01*
X10025Y11837D01*
X9994Y11764D01*
X9984Y11686D01*
X9994Y11608D01*
X10025Y11535D01*
X10073Y11472D01*
X10135Y11424D01*
X10208Y11394D01*
X10287Y11383D01*
X10291Y11384D01*
X10307Y11384D01*
X10340Y11382D01*
X10351Y11381D01*
X10360Y11379D01*
X10366Y11378D01*
X10368Y11377D01*
X10410Y11349D01*
X10472Y11337D01*
X11741D01*
X11741Y11105D01*
X11693Y11100D01*
X8190D01*
Y16029D01*
X10906Y18745D01*
X11691D01*
X11717Y18743D01*
X11753Y18737D01*
X11781Y18729D01*
X11801Y18721D01*
X11812Y18714D01*
X11817Y18710D01*
X11818Y18708D01*
X11819Y18706D01*
X11821Y18689D01*
X11821Y18689D01*
Y18280D01*
X12722D01*
Y19720D01*
X11821D01*
Y19311D01*
X11821Y19311D01*
X11819Y19294D01*
X11818Y19292D01*
X11817Y19290D01*
X11812Y19286D01*
X11801Y19279D01*
X11781Y19271D01*
X11753Y19263D01*
X11717Y19257D01*
X11691Y19255D01*
X10801D01*
X10703Y19236D01*
X10621Y19180D01*
X7755Y16315D01*
X7700Y16232D01*
X7681Y16135D01*
Y11100D01*
X1213D01*
X671Y11525D01*
Y29910D01*
X1105Y30250D01*
X2033D01*
X2052Y30204D01*
X1175Y29326D01*
X1136Y29268D01*
X1122Y29200D01*
Y29151D01*
X1119Y29136D01*
X1114Y29117D01*
X1105Y29095D01*
X1093Y29072D01*
X1077Y29047D01*
X1059Y29021D01*
X1007Y28960D01*
X984Y28937D01*
X973Y28928D01*
X899Y28832D01*
X853Y28720D01*
X837Y28600D01*
X853Y28480D01*
X899Y28368D01*
X973Y28272D01*
X1069Y28198D01*
X1181Y28152D01*
X1301Y28136D01*
X1421Y28152D01*
X1533Y28198D01*
X1629Y28272D01*
X1703Y28368D01*
X1749Y28480D01*
X1765Y28600D01*
X1749Y28720D01*
X1703Y28832D01*
X1629Y28928D01*
X1619Y28936D01*
X1566Y28992D01*
X1544Y29020D01*
X1524Y29047D01*
X1509Y29072D01*
X1497Y29095D01*
X1488Y29117D01*
X1484Y29131D01*
X2603Y30250D01*
X3033D01*
X3052Y30204D01*
X2175Y29326D01*
X2136Y29268D01*
X2122Y29200D01*
Y29151D01*
X2119Y29136D01*
X2114Y29117D01*
X2105Y29095D01*
X2093Y29072D01*
X2077Y29047D01*
X2059Y29021D01*
X2007Y28960D01*
X1984Y28937D01*
X1973Y28928D01*
X1899Y28832D01*
X1853Y28720D01*
X1837Y28600D01*
X1853Y28480D01*
X1899Y28368D01*
X1973Y28272D01*
X2069Y28198D01*
X2181Y28152D01*
X2301Y28136D01*
X2421Y28152D01*
X2533Y28198D01*
X2629Y28272D01*
X2703Y28368D01*
X2749Y28480D01*
X2765Y28600D01*
X2749Y28720D01*
X2703Y28832D01*
X2629Y28928D01*
X2619Y28936D01*
X2566Y28992D01*
X2544Y29020D01*
X2524Y29047D01*
X2509Y29072D01*
X2497Y29095D01*
X2488Y29117D01*
X2484Y29131D01*
X3451Y30098D01*
X10377D01*
X10445Y30111D01*
X10503Y30150D01*
X10603Y30250D01*
X15393D01*
X15427Y30213D01*
X15417Y30117D01*
X15431Y29973D01*
X15473Y29836D01*
X15541Y29709D01*
X15632Y29598D01*
X15743Y29507D01*
X15870Y29439D01*
X16008Y29397D01*
X16151Y29383D01*
X16294Y29397D01*
X16431Y29439D01*
X16558Y29507D01*
X16669Y29598D01*
X16761Y29709D01*
X16828Y29836D01*
X16870Y29973D01*
X16884Y30117D01*
X16875Y30213D01*
X16908Y30250D01*
X19198D01*
X20622Y28826D01*
Y22224D01*
X18839Y20441D01*
X18831Y20435D01*
X18817Y20427D01*
X18801Y20419D01*
X18783Y20413D01*
X18763Y20407D01*
X18739Y20403D01*
X18714Y20400D01*
X18685Y20398D01*
X18661Y20397D01*
X18651Y20399D01*
X18548Y20385D01*
X18451Y20345D01*
X18369Y20282D01*
X18361Y20272D01*
X18314Y20288D01*
Y20490D01*
X18302Y20549D01*
X18269Y20598D01*
X18084Y20783D01*
X18080Y20790D01*
X18074Y20802D01*
X18068Y20818D01*
X18062Y20838D01*
X18057Y20863D01*
X18053Y20889D01*
X18048Y20958D01*
X18048Y20989D01*
X18049Y21000D01*
X18036Y21103D01*
X17996Y21199D01*
X17933Y21282D01*
X17850Y21345D01*
X17754Y21385D01*
X17651Y21399D01*
X17548Y21385D01*
X17451Y21345D01*
X17369Y21282D01*
X17363Y21274D01*
X17317Y21231D01*
X17295Y21213D01*
X17273Y21198D01*
X17253Y21185D01*
X17236Y21176D01*
X17220Y21169D01*
X17206Y21165D01*
X17196Y21163D01*
X15768D01*
X15264Y21668D01*
Y23900D01*
X15251Y23962D01*
X15216Y24015D01*
X14416Y24815D01*
X14363Y24851D01*
X14301Y24863D01*
X13760D01*
Y25095D01*
X13068D01*
Y24363D01*
X13018Y24342D01*
X12948Y24412D01*
X12933Y24430D01*
Y25095D01*
X12241D01*
Y24305D01*
X12495D01*
X12500Y24304D01*
X12512Y24303D01*
X12523Y24300D01*
X12536Y24295D01*
X12549Y24289D01*
X12564Y24281D01*
X12579Y24271D01*
X12595Y24259D01*
X12604Y24251D01*
X13011Y23845D01*
X13038Y23815D01*
X13057Y23792D01*
X13058Y23791D01*
Y23377D01*
X13809D01*
Y23971D01*
X13406D01*
X13394Y23978D01*
X13378Y23989D01*
X13341Y24020D01*
X13105Y24255D01*
X13126Y24305D01*
X13760D01*
Y24537D01*
X14233D01*
X14938Y23832D01*
Y21600D01*
X14950Y21538D01*
X14985Y21485D01*
X15585Y20885D01*
X15638Y20849D01*
X15701Y20837D01*
X17196D01*
X17206Y20835D01*
X17220Y20831D01*
X17236Y20824D01*
X17253Y20815D01*
X17273Y20802D01*
X17294Y20788D01*
X17343Y20746D01*
X17362Y20727D01*
X17369Y20718D01*
X17451Y20655D01*
X17548Y20615D01*
X17651Y20601D01*
X17661Y20603D01*
X17692Y20602D01*
X17761Y20598D01*
X17788Y20594D01*
X17812Y20589D01*
X17833Y20583D01*
X17849Y20577D01*
X17861Y20571D01*
X17868Y20566D01*
X18008Y20427D01*
Y20266D01*
X17958Y20249D01*
X17933Y20282D01*
X17850Y20345D01*
X17754Y20385D01*
X17651Y20399D01*
X17548Y20385D01*
X17451Y20345D01*
X17369Y20282D01*
X17306Y20199D01*
X17266Y20103D01*
X17252Y20000D01*
X17266Y19897D01*
X17306Y19801D01*
X17369Y19718D01*
X17379Y19710D01*
X17363Y19663D01*
X15972D01*
X14930Y20705D01*
X14928Y20708D01*
X14924Y20715D01*
X14919Y20723D01*
X14916Y20732D01*
X14913Y20743D01*
X14910Y20754D01*
X14908Y20767D01*
X14907Y20781D01*
X14907Y20796D01*
X14907Y20800D01*
X14897Y20878D01*
X14867Y20951D01*
X14819Y21014D01*
X14756Y21062D01*
X14683Y21092D01*
X14605Y21103D01*
X14526Y21092D01*
X14453Y21062D01*
X14391Y21014D01*
X14343Y20951D01*
X14312Y20878D01*
X14302Y20800D01*
X14312Y20722D01*
X14343Y20649D01*
X14391Y20586D01*
X14453Y20538D01*
X14526Y20508D01*
X14605Y20497D01*
X14609Y20498D01*
X14624Y20498D01*
X14638Y20497D01*
X14651Y20495D01*
X14662Y20492D01*
X14672Y20489D01*
X14681Y20485D01*
X14689Y20481D01*
X14697Y20477D01*
X14699Y20475D01*
X15789Y19385D01*
X15842Y19349D01*
X15905Y19337D01*
X17336D01*
X17358Y19287D01*
X17339Y19265D01*
X17331Y19263D01*
X17315Y19259D01*
X17297Y19256D01*
X17277Y19255D01*
X14910D01*
X14884Y19257D01*
X14848Y19263D01*
X14819Y19271D01*
X14800Y19279D01*
X14788Y19286D01*
X14783Y19290D01*
X14782Y19292D01*
X14781Y19294D01*
X14781Y19301D01*
Y19720D01*
X13929D01*
X13880Y19720D01*
X13879Y19770D01*
Y21326D01*
X14627Y22074D01*
X14666Y22132D01*
X14679Y22200D01*
X14679Y22200D01*
Y23117D01*
X14679Y23118D01*
X14681Y23129D01*
X14684Y23138D01*
X14687Y23147D01*
X14690Y23155D01*
X14695Y23162D01*
X14700Y23170D01*
X14705Y23177D01*
X14711Y23184D01*
X14715Y23186D01*
X14763Y23249D01*
X14793Y23322D01*
X14803Y23400D01*
X14793Y23478D01*
X14763Y23551D01*
X14715Y23614D01*
X14652Y23662D01*
X14579Y23692D01*
X14501Y23703D01*
X14422Y23692D01*
X14349Y23662D01*
X14287Y23614D01*
X14239Y23551D01*
X14209Y23478D01*
X14198Y23400D01*
X14209Y23322D01*
X14239Y23249D01*
X14287Y23186D01*
X14290Y23184D01*
X14296Y23177D01*
X14302Y23170D01*
X14307Y23162D01*
X14311Y23155D01*
X14315Y23147D01*
X14318Y23138D01*
X14320Y23129D01*
X14322Y23118D01*
X14322Y23117D01*
Y22274D01*
X13575Y21526D01*
X13536Y21468D01*
X13522Y21400D01*
Y16298D01*
X13106Y15882D01*
X13078Y15856D01*
X13056Y15838D01*
X13049Y15833D01*
X13005D01*
X13002Y15833D01*
X12998Y15833D01*
X12568D01*
Y15042D01*
X13260D01*
Y15469D01*
X13261Y15473D01*
X13260Y15476D01*
Y15517D01*
X13264Y15524D01*
X13275Y15540D01*
X13308Y15579D01*
X13827Y16098D01*
X13866Y16156D01*
X13879Y16224D01*
Y18230D01*
X13880Y18280D01*
X13929Y18280D01*
X14781D01*
Y18699D01*
X14781Y18706D01*
X14782Y18708D01*
X14783Y18710D01*
X14788Y18714D01*
X14800Y18721D01*
X14819Y18729D01*
X14848Y18737D01*
X14884Y18743D01*
X14910Y18745D01*
X17282D01*
X17295Y18744D01*
X17315Y18741D01*
X17331Y18737D01*
X17339Y18735D01*
X17358Y18713D01*
X17336Y18663D01*
X17289D01*
X17227Y18651D01*
X17174Y18615D01*
X13112Y14553D01*
X13090Y14533D01*
X13075Y14520D01*
X12568D01*
Y13730D01*
X13260D01*
Y14232D01*
X13261Y14233D01*
X13269Y14244D01*
X13293Y14273D01*
X17319Y18299D01*
X17357Y18266D01*
X17306Y18199D01*
X17266Y18103D01*
X17259Y18050D01*
X17651D01*
X18043D01*
X18036Y18103D01*
X17996Y18199D01*
X17933Y18282D01*
X17923Y18290D01*
X17939Y18337D01*
X18151D01*
X18213Y18349D01*
X18266Y18385D01*
X18445Y18563D01*
X18453Y18569D01*
X18466Y18576D01*
X18482Y18582D01*
X18501Y18588D01*
X18523Y18593D01*
X18548Y18597D01*
X18613Y18602D01*
X18640Y18603D01*
X18651Y18601D01*
X18754Y18615D01*
X18850Y18655D01*
X18933Y18718D01*
X18996Y18801D01*
X19036Y18897D01*
X19049Y19000D01*
X19036Y19103D01*
X18996Y19199D01*
X18933Y19282D01*
X18913Y19297D01*
X18930Y19347D01*
X19357D01*
X23580Y15125D01*
Y13201D01*
X23579Y13196D01*
X23575Y13179D01*
X23566Y13157D01*
X23552Y13129D01*
X23532Y13097D01*
X23507Y13062D01*
X23393Y12931D01*
X23357Y12895D01*
X23340Y12882D01*
X23252Y12767D01*
X23197Y12633D01*
X23178Y12490D01*
X23197Y12346D01*
X23252Y12212D01*
X23340Y12098D01*
X23455Y12009D01*
X23589Y11954D01*
X23733Y11935D01*
X23876Y11954D01*
X24010Y12009D01*
X24125Y12098D01*
X24203Y12200D01*
X24220Y12204D01*
X24245D01*
X24262Y12200D01*
X24340Y12098D01*
X24455Y12009D01*
X24589Y11954D01*
X24733Y11935D01*
X24876Y11954D01*
X25010Y12009D01*
X25125Y12098D01*
X25213Y12212D01*
X25269Y12346D01*
X25287Y12490D01*
X25269Y12633D01*
X25213Y12767D01*
X25125Y12882D01*
X25108Y12895D01*
X25074Y12930D01*
X24996Y13017D01*
X24967Y13055D01*
X24942Y13090D01*
X24923Y13122D01*
X24909Y13150D01*
X24901Y13173D01*
X24896Y13192D01*
X24896Y13196D01*
Y15548D01*
X24883Y15611D01*
X24848Y15663D01*
X20239Y20272D01*
X20237Y20275D01*
X20233Y20281D01*
X20230Y20289D01*
X20227Y20297D01*
X20224Y20306D01*
X20223Y20316D01*
X20221Y20328D01*
X20221Y20341D01*
X20222Y20359D01*
X20221Y20364D01*
X20223Y20380D01*
X20213Y20458D01*
X20183Y20531D01*
X20135Y20594D01*
X20072Y20642D01*
X19999Y20672D01*
X19921Y20683D01*
X19842Y20672D01*
X19769Y20642D01*
X19707Y20594D01*
X19659Y20531D01*
X19629Y20458D01*
X19618Y20380D01*
X19629Y20302D01*
X19659Y20229D01*
X19707Y20166D01*
X19769Y20118D01*
X19842Y20088D01*
X19891Y20081D01*
X19900Y20079D01*
X19919Y20077D01*
X19935Y20075D01*
X19949Y20072D01*
X19961Y20069D01*
X19972Y20065D01*
X19982Y20060D01*
X19991Y20056D01*
X19999Y20051D01*
X20002Y20048D01*
X24570Y15481D01*
Y13196D01*
X24569Y13192D01*
X24565Y13173D01*
X24556Y13150D01*
X24542Y13122D01*
X24523Y13090D01*
X24499Y13055D01*
X24469Y13017D01*
X24392Y12930D01*
X24357Y12895D01*
X24340Y12882D01*
X24262Y12780D01*
X24245Y12776D01*
X24220D01*
X24203Y12780D01*
X24125Y12882D01*
X24108Y12895D01*
X24071Y12933D01*
X24029Y12978D01*
X23959Y13062D01*
X23934Y13097D01*
X23914Y13129D01*
X23899Y13157D01*
X23890Y13179D01*
X23886Y13196D01*
X23886Y13201D01*
Y15188D01*
X23874Y15247D01*
X23841Y15296D01*
X19529Y19608D01*
X19479Y19641D01*
X19421Y19653D01*
X18930D01*
X18913Y19703D01*
X18933Y19718D01*
X18996Y19801D01*
X19036Y19897D01*
X19049Y20000D01*
X19048Y20010D01*
X19048Y20035D01*
X19050Y20063D01*
X19054Y20089D01*
X19058Y20112D01*
X19064Y20132D01*
X19070Y20150D01*
X19077Y20166D01*
X19085Y20180D01*
X19092Y20189D01*
X20927Y22024D01*
X20966Y22082D01*
X20979Y22150D01*
Y28900D01*
X20979Y28900D01*
X20966Y28968D01*
X20927Y29026D01*
X20927Y29026D01*
X19749Y30204D01*
X19768Y30250D01*
X31393D01*
X31427Y30213D01*
X31417Y30117D01*
X31431Y29973D01*
X31473Y29836D01*
X31541Y29709D01*
X31632Y29598D01*
X31743Y29507D01*
X31870Y29439D01*
X32008Y29397D01*
X32151Y29383D01*
X32294Y29397D01*
X32431Y29439D01*
X32558Y29507D01*
X32669Y29598D01*
X32761Y29709D01*
X32828Y29836D01*
X32870Y29973D01*
X32884Y30117D01*
X32875Y30213D01*
X32908Y30250D01*
X34190D01*
X34841Y29740D01*
D02*
G37*
G36*
X12254Y31109D02*
X12252Y31117D01*
X12248Y31124D01*
X12240Y31130D01*
X12230Y31136D01*
X12216Y31141D01*
X12200Y31144D01*
X12180Y31147D01*
X12158Y31149D01*
X12104Y31151D01*
Y31301D01*
X12132Y31301D01*
X12180Y31305D01*
X12200Y31308D01*
X12216Y31311D01*
X12230Y31316D01*
X12240Y31322D01*
X12248Y31328D01*
X12252Y31335D01*
X12254Y31343D01*
Y31109D01*
D02*
G37*
G36*
X23785Y13179D02*
X23793Y13148D01*
X23807Y13114D01*
X23825Y13078D01*
X23849Y13040D01*
X23878Y12999D01*
X23952Y12910D01*
X23997Y12862D01*
X24048Y12811D01*
X23418D01*
X23468Y12862D01*
X23587Y12999D01*
X23616Y13040D01*
X23640Y13078D01*
X23659Y13114D01*
X23672Y13148D01*
X23680Y13179D01*
X23683Y13207D01*
X23783D01*
X23785Y13179D01*
D02*
G37*
G36*
X10487Y11662D02*
X10491Y11607D01*
X10493Y11592D01*
X10496Y11579D01*
X10500Y11567D01*
X10504Y11557D01*
X10509Y11549D01*
X10515Y11542D01*
X10430Y11458D01*
X10423Y11463D01*
X10415Y11468D01*
X10405Y11472D01*
X10393Y11476D01*
X10380Y11479D01*
X10365Y11482D01*
X10348Y11484D01*
X10310Y11486D01*
X10289Y11486D01*
X10487Y11684D01*
X10487Y11662D01*
D02*
G37*
%LPC*%
G36*
X-5226Y21645D02*
X-5522D01*
Y21300D01*
X-5226D01*
Y21645D01*
D02*
G37*
G36*
X-22649Y19633D02*
X-22748Y19620D01*
X-22841Y19582D01*
X-22920Y19521D01*
X-22981Y19442D01*
X-23019Y19349D01*
X-23032Y19250D01*
X-23019Y19151D01*
X-22981Y19058D01*
X-22920Y18979D01*
X-22841Y18918D01*
X-22748Y18880D01*
X-22649Y18867D01*
X-22550Y18880D01*
X-22458Y18918D01*
X-22378Y18979D01*
X-22317Y19058D01*
X-22279Y19151D01*
X-22266Y19250D01*
X-22279Y19349D01*
X-22317Y19442D01*
X-22378Y19521D01*
X-22458Y19582D01*
X-22550Y19620D01*
X-22649Y19633D01*
D02*
G37*
G36*
X-21269Y19200D02*
X-21599D01*
Y18870D01*
X-21269D01*
Y19200D01*
D02*
G37*
G36*
X-21699D02*
X-22029D01*
Y18870D01*
X-21699D01*
Y19200D01*
D02*
G37*
G36*
X-5226Y21200D02*
X-5522D01*
Y20855D01*
X-5226D01*
Y21200D01*
D02*
G37*
G36*
X-22649Y21633D02*
X-22748Y21620D01*
X-22841Y21582D01*
X-22920Y21521D01*
X-22981Y21442D01*
X-23019Y21349D01*
X-23032Y21250D01*
X-23019Y21151D01*
X-22981Y21058D01*
X-22920Y20979D01*
X-22841Y20918D01*
X-22748Y20880D01*
X-22649Y20867D01*
X-22550Y20880D01*
X-22458Y20918D01*
X-22378Y20979D01*
X-22317Y21058D01*
X-22279Y21151D01*
X-22266Y21250D01*
X-22279Y21349D01*
X-22317Y21442D01*
X-22378Y21521D01*
X-22458Y21582D01*
X-22550Y21620D01*
X-22649Y21633D01*
D02*
G37*
G36*
X-21699Y21200D02*
X-22026D01*
X-22019Y21151D01*
X-21981Y21058D01*
X-21920Y20979D01*
X-21841Y20918D01*
X-21748Y20880D01*
X-21699Y20873D01*
Y21200D01*
D02*
G37*
G36*
X-21273D02*
X-21599D01*
Y20873D01*
X-21550Y20880D01*
X-21458Y20918D01*
X-21378Y20979D01*
X-21317Y21058D01*
X-21279Y21151D01*
X-21273Y21200D01*
D02*
G37*
G36*
X-4830Y21200D02*
X-5126D01*
Y20855D01*
X-4830D01*
Y21200D01*
D02*
G37*
G36*
Y21645D02*
X-5126D01*
Y21300D01*
X-4830D01*
Y21645D01*
D02*
G37*
G36*
X-22649Y20633D02*
X-22748Y20620D01*
X-22841Y20582D01*
X-22920Y20521D01*
X-22981Y20442D01*
X-23019Y20349D01*
X-23032Y20250D01*
X-23019Y20151D01*
X-22981Y20058D01*
X-22920Y19979D01*
X-22841Y19918D01*
X-22748Y19880D01*
X-22649Y19867D01*
X-22550Y19880D01*
X-22458Y19918D01*
X-22378Y19979D01*
X-22317Y20058D01*
X-22279Y20151D01*
X-22266Y20250D01*
X-22279Y20349D01*
X-22317Y20442D01*
X-22378Y20521D01*
X-22458Y20582D01*
X-22550Y20620D01*
X-22649Y20633D01*
D02*
G37*
G36*
X-21599Y21627D02*
Y21300D01*
X-21273D01*
X-21279Y21349D01*
X-21317Y21442D01*
X-21378Y21521D01*
X-21458Y21582D01*
X-21550Y21620D01*
X-21599Y21627D01*
D02*
G37*
G36*
X-21649Y20633D02*
X-21748Y20620D01*
X-21841Y20582D01*
X-21920Y20521D01*
X-21981Y20442D01*
X-22019Y20349D01*
X-22032Y20250D01*
X-22019Y20151D01*
X-21981Y20058D01*
X-21920Y19979D01*
X-21841Y19918D01*
X-21748Y19880D01*
X-21649Y19867D01*
X-21550Y19880D01*
X-21458Y19918D01*
X-21378Y19979D01*
X-21317Y20058D01*
X-21279Y20151D01*
X-21266Y20250D01*
X-21279Y20349D01*
X-21317Y20442D01*
X-21378Y20521D01*
X-21458Y20582D01*
X-21550Y20620D01*
X-21649Y20633D01*
D02*
G37*
G36*
X-2643Y21645D02*
X-3433D01*
Y21430D01*
X-3441Y21429D01*
X-3450Y21428D01*
X-3987D01*
X-3995Y21429D01*
X-4003Y21430D01*
Y21645D01*
X-4695D01*
Y20855D01*
X-4003D01*
Y21070D01*
X-3995Y21071D01*
X-3987Y21072D01*
X-3450D01*
X-3441Y21071D01*
X-3433Y21070D01*
Y20855D01*
X-2643D01*
Y21645D01*
D02*
G37*
G36*
X-21699Y19630D02*
X-22029D01*
Y19300D01*
X-21699D01*
Y19630D01*
D02*
G37*
G36*
X-12350Y20870D02*
X-12441Y20858D01*
X-12527Y20823D01*
X-12600Y20767D01*
X-12656Y20693D01*
X-12691Y20608D01*
X-12703Y20517D01*
X-12691Y20426D01*
X-12656Y20340D01*
X-12600Y20267D01*
X-12527Y20211D01*
X-12441Y20176D01*
X-12350Y20164D01*
X-12259Y20176D01*
X-12173Y20211D01*
X-12100Y20267D01*
X-12096Y20273D01*
X-12083Y20285D01*
X-12068Y20298D01*
X-12054Y20309D01*
X-12040Y20318D01*
X-12026Y20325D01*
X-12013Y20330D01*
X-12000Y20335D01*
X-11987Y20338D01*
X-11980Y20338D01*
X-6267D01*
X-5566Y19637D01*
X-5554Y19624D01*
X-5537Y19603D01*
X-5525Y19586D01*
X-5522Y19580D01*
Y19105D01*
X-4830D01*
Y19895D01*
X-5311D01*
X-5316Y19899D01*
X-5361Y19937D01*
X-6067Y20643D01*
X-6125Y20682D01*
X-6193Y20695D01*
X-11980D01*
X-11987Y20696D01*
X-12000Y20699D01*
X-12013Y20703D01*
X-12026Y20709D01*
X-12040Y20716D01*
X-12054Y20725D01*
X-12068Y20736D01*
X-12083Y20749D01*
X-12096Y20761D01*
X-12100Y20767D01*
X-12173Y20823D01*
X-12259Y20858D01*
X-12350Y20870D01*
D02*
G37*
G36*
X-21269Y19630D02*
X-21599D01*
Y19300D01*
X-21269D01*
Y19630D01*
D02*
G37*
G36*
X-2643Y19895D02*
X-3433D01*
Y19680D01*
X-3441Y19679D01*
X-3450Y19678D01*
X-3987D01*
X-3995Y19679D01*
X-4003Y19681D01*
Y19895D01*
X-4695D01*
Y19105D01*
X-4003D01*
Y19319D01*
X-3995Y19321D01*
X-3987Y19322D01*
X-3450D01*
X-3441Y19321D01*
X-3433Y19320D01*
Y19105D01*
X-2643D01*
Y19895D01*
D02*
G37*
G36*
X-21699Y21627D02*
X-21748Y21620D01*
X-21841Y21582D01*
X-21920Y21521D01*
X-21981Y21442D01*
X-22019Y21349D01*
X-22026Y21300D01*
X-21699D01*
Y21627D01*
D02*
G37*
G36*
X-24591Y15650D02*
X-25099D01*
Y15142D01*
X-25003Y15154D01*
X-24867Y15211D01*
X-24750Y15301D01*
X-24660Y15418D01*
X-24604Y15554D01*
X-24591Y15650D01*
D02*
G37*
G36*
X-32149Y11349D02*
X-32292Y11334D01*
X-32430Y11293D01*
X-32557Y11225D01*
X-32668Y11134D01*
X-32759Y11023D01*
X-32827Y10896D01*
X-32869Y10758D01*
X-32883Y10615D01*
X-32869Y10472D01*
X-32827Y10334D01*
X-32759Y10207D01*
X-32668Y10096D01*
X-32557Y10005D01*
X-32430Y9937D01*
X-32292Y9896D01*
X-32149Y9881D01*
X-32006Y9896D01*
X-31869Y9937D01*
X-31742Y10005D01*
X-31631Y10096D01*
X-31539Y10207D01*
X-31472Y10334D01*
X-31430Y10472D01*
X-31416Y10615D01*
X-31430Y10758D01*
X-31472Y10896D01*
X-31539Y11023D01*
X-31631Y11134D01*
X-31742Y11225D01*
X-31869Y11293D01*
X-32006Y11334D01*
X-32149Y11349D01*
D02*
G37*
G36*
X-16149D02*
X-16292Y11334D01*
X-16430Y11293D01*
X-16557Y11225D01*
X-16668Y11134D01*
X-16759Y11023D01*
X-16827Y10896D01*
X-16869Y10758D01*
X-16883Y10615D01*
X-16869Y10472D01*
X-16827Y10334D01*
X-16759Y10207D01*
X-16668Y10096D01*
X-16557Y10005D01*
X-16430Y9937D01*
X-16292Y9896D01*
X-16149Y9881D01*
X-16006Y9896D01*
X-15869Y9937D01*
X-15742Y10005D01*
X-15631Y10096D01*
X-15539Y10207D01*
X-15472Y10334D01*
X-15430Y10472D01*
X-15416Y10615D01*
X-15430Y10758D01*
X-15472Y10896D01*
X-15539Y11023D01*
X-15631Y11134D01*
X-15742Y11225D01*
X-15869Y11293D01*
X-16006Y11334D01*
X-16149Y11349D01*
D02*
G37*
G36*
X-12199Y17403D02*
X-12278Y17392D01*
X-12351Y17362D01*
X-12413Y17314D01*
X-12461Y17251D01*
X-12491Y17178D01*
X-12502Y17100D01*
X-12491Y17022D01*
X-12461Y16949D01*
X-12413Y16886D01*
X-12351Y16838D01*
X-12278Y16808D01*
X-12199Y16797D01*
X-12121Y16808D01*
X-12048Y16838D01*
X-11985Y16886D01*
X-11937Y16949D01*
X-11907Y17022D01*
X-11897Y17100D01*
X-11907Y17178D01*
X-11937Y17251D01*
X-11985Y17314D01*
X-12048Y17362D01*
X-12121Y17392D01*
X-12199Y17403D01*
D02*
G37*
G36*
X-1265Y21645D02*
X-2056D01*
Y21117D01*
X-2064Y21104D01*
X-2100Y21063D01*
X-2525Y20637D01*
X-2564Y20579D01*
X-2578Y20511D01*
Y19002D01*
X-3802Y17778D01*
X-9545D01*
X-9600Y17850D01*
X-9673Y17906D01*
X-9758Y17941D01*
X-9849Y17953D01*
X-9941Y17941D01*
X-10026Y17906D01*
X-10099Y17850D01*
X-10155Y17777D01*
X-10190Y17691D01*
X-10202Y17600D01*
X-10190Y17509D01*
X-10155Y17423D01*
X-10099Y17350D01*
X-10026Y17294D01*
X-9941Y17259D01*
X-9849Y17247D01*
X-9758Y17259D01*
X-9673Y17294D01*
X-9600Y17350D01*
X-9545Y17422D01*
X-3728D01*
X-3659Y17435D01*
X-3602Y17474D01*
X-2273Y18802D01*
X-2273Y18802D01*
X-2234Y18860D01*
X-2221Y18929D01*
X-2221Y18929D01*
Y20437D01*
X-1854Y20804D01*
X-1828Y20828D01*
X-1807Y20845D01*
X-1793Y20855D01*
X-1265D01*
Y21645D01*
D02*
G37*
G36*
X-25099Y16258D02*
Y15750D01*
X-24591D01*
X-24604Y15846D01*
X-24660Y15982D01*
X-24750Y16099D01*
X-24867Y16189D01*
X-25003Y16246D01*
X-25099Y16258D01*
D02*
G37*
G36*
X-21649Y23633D02*
X-21748Y23620D01*
X-21841Y23582D01*
X-21920Y23521D01*
X-21981Y23442D01*
X-22019Y23349D01*
X-22032Y23250D01*
X-22019Y23151D01*
X-21981Y23058D01*
X-21920Y22979D01*
X-21841Y22918D01*
X-21748Y22880D01*
X-21649Y22867D01*
X-21550Y22880D01*
X-21458Y22918D01*
X-21378Y22979D01*
X-21317Y23058D01*
X-21279Y23151D01*
X-21266Y23250D01*
X-21279Y23349D01*
X-21317Y23442D01*
X-21378Y23521D01*
X-21458Y23582D01*
X-21550Y23620D01*
X-21649Y23633D01*
D02*
G37*
G36*
X-5226Y23395D02*
X-5522D01*
Y23050D01*
X-5226D01*
Y23395D01*
D02*
G37*
G36*
Y25145D02*
X-5522D01*
Y24800D01*
X-5226D01*
Y25145D01*
D02*
G37*
G36*
X-21649Y26633D02*
X-21748Y26620D01*
X-21841Y26582D01*
X-21920Y26521D01*
X-21981Y26442D01*
X-22019Y26349D01*
X-22032Y26250D01*
X-22019Y26151D01*
X-21981Y26058D01*
X-21920Y25979D01*
X-21841Y25918D01*
X-21748Y25880D01*
X-21649Y25867D01*
X-21550Y25880D01*
X-21458Y25918D01*
X-21378Y25979D01*
X-21317Y26058D01*
X-21279Y26151D01*
X-21266Y26250D01*
X-21279Y26349D01*
X-21317Y26442D01*
X-21378Y26521D01*
X-21458Y26582D01*
X-21550Y26620D01*
X-21649Y26633D01*
D02*
G37*
G36*
X-4830Y25145D02*
X-5126D01*
Y24800D01*
X-4830D01*
Y25145D01*
D02*
G37*
G36*
X-22649Y23633D02*
X-22748Y23620D01*
X-22841Y23582D01*
X-22920Y23521D01*
X-22981Y23442D01*
X-23019Y23349D01*
X-23032Y23250D01*
X-23019Y23151D01*
X-22981Y23058D01*
X-22920Y22979D01*
X-22841Y22918D01*
X-22748Y22880D01*
X-22649Y22867D01*
X-22550Y22880D01*
X-22458Y22918D01*
X-22378Y22979D01*
X-22317Y23058D01*
X-22279Y23151D01*
X-22266Y23250D01*
X-22279Y23349D01*
X-22317Y23442D01*
X-22378Y23521D01*
X-22458Y23582D01*
X-22550Y23620D01*
X-22649Y23633D01*
D02*
G37*
G36*
X-4830Y23395D02*
X-5126D01*
Y23050D01*
X-4830D01*
Y23395D01*
D02*
G37*
G36*
X-22649Y24633D02*
X-22748Y24620D01*
X-22841Y24582D01*
X-22920Y24521D01*
X-22981Y24442D01*
X-23019Y24349D01*
X-23032Y24250D01*
X-23019Y24151D01*
X-22981Y24058D01*
X-22920Y23979D01*
X-22841Y23918D01*
X-22748Y23880D01*
X-22649Y23867D01*
X-22550Y23880D01*
X-22458Y23918D01*
X-22378Y23979D01*
X-22317Y24058D01*
X-22279Y24151D01*
X-22266Y24250D01*
X-22279Y24349D01*
X-22317Y24442D01*
X-22378Y24521D01*
X-22458Y24582D01*
X-22550Y24620D01*
X-22649Y24633D01*
D02*
G37*
G36*
X-4830Y24700D02*
X-5126D01*
Y24355D01*
X-4830D01*
Y24700D01*
D02*
G37*
G36*
X-5226D02*
X-5522D01*
Y24355D01*
X-5226D01*
Y24700D01*
D02*
G37*
G36*
X-22649Y22633D02*
X-22748Y22620D01*
X-22841Y22582D01*
X-22920Y22521D01*
X-22981Y22442D01*
X-23019Y22349D01*
X-23032Y22250D01*
X-23019Y22151D01*
X-22981Y22058D01*
X-22920Y21979D01*
X-22841Y21918D01*
X-22748Y21880D01*
X-22649Y21867D01*
X-22550Y21880D01*
X-22458Y21918D01*
X-22378Y21979D01*
X-22317Y22058D01*
X-22279Y22151D01*
X-22266Y22250D01*
X-22279Y22349D01*
X-22317Y22442D01*
X-22378Y22521D01*
X-22458Y22582D01*
X-22550Y22620D01*
X-22649Y22633D01*
D02*
G37*
G36*
X-2643Y25145D02*
X-3433D01*
Y24930D01*
X-3441Y24929D01*
X-3450Y24928D01*
X-3987D01*
X-3995Y24929D01*
X-4003Y24931D01*
Y25145D01*
X-4695D01*
Y24355D01*
X-4003D01*
Y24569D01*
X-3995Y24571D01*
X-3987Y24572D01*
X-3450D01*
X-3441Y24571D01*
X-3433Y24570D01*
Y24355D01*
X-2643D01*
Y25145D01*
D02*
G37*
G36*
X-16149Y30849D02*
X-16292Y30834D01*
X-16430Y30793D01*
X-16557Y30725D01*
X-16668Y30634D01*
X-16759Y30523D01*
X-16827Y30396D01*
X-16869Y30258D01*
X-16883Y30115D01*
X-16869Y29972D01*
X-16827Y29834D01*
X-16759Y29707D01*
X-16668Y29596D01*
X-16557Y29505D01*
X-16430Y29437D01*
X-16292Y29396D01*
X-16149Y29381D01*
X-16006Y29396D01*
X-15869Y29437D01*
X-15742Y29505D01*
X-15631Y29596D01*
X-15539Y29707D01*
X-15472Y29834D01*
X-15430Y29972D01*
X-15416Y30115D01*
X-15430Y30258D01*
X-15472Y30396D01*
X-15539Y30523D01*
X-15631Y30634D01*
X-15742Y30725D01*
X-15869Y30793D01*
X-16006Y30834D01*
X-16149Y30849D01*
D02*
G37*
G36*
X-32149D02*
X-32292Y30834D01*
X-32430Y30793D01*
X-32557Y30725D01*
X-32668Y30634D01*
X-32759Y30523D01*
X-32827Y30396D01*
X-32869Y30258D01*
X-32883Y30115D01*
X-32869Y29972D01*
X-32827Y29834D01*
X-32759Y29707D01*
X-32668Y29596D01*
X-32557Y29505D01*
X-32430Y29437D01*
X-32292Y29396D01*
X-32149Y29381D01*
X-32006Y29396D01*
X-31869Y29437D01*
X-31742Y29505D01*
X-31631Y29596D01*
X-31539Y29707D01*
X-31472Y29834D01*
X-31430Y29972D01*
X-31416Y30115D01*
X-31430Y30258D01*
X-31472Y30396D01*
X-31539Y30523D01*
X-31631Y30634D01*
X-31742Y30725D01*
X-31869Y30793D01*
X-32006Y30834D01*
X-32149Y30849D01*
D02*
G37*
G36*
X-21169Y25934D02*
X-21247Y25918D01*
X-21313Y25874D01*
X-21313Y25874D01*
X-21511Y25677D01*
X-21517Y25672D01*
X-21531Y25662D01*
X-21546Y25654D01*
X-21560Y25647D01*
X-21576Y25642D01*
X-21592Y25637D01*
X-21609Y25634D01*
X-21626Y25633D01*
X-21641Y25632D01*
X-21649Y25633D01*
X-21748Y25620D01*
X-21841Y25582D01*
X-21920Y25521D01*
X-21981Y25442D01*
X-22019Y25349D01*
X-22032Y25250D01*
X-22019Y25151D01*
X-21981Y25058D01*
X-21920Y24979D01*
X-21916Y24976D01*
X-21932Y24928D01*
X-22075D01*
X-22226Y25079D01*
X-22232Y25087D01*
X-22239Y25100D01*
X-22246Y25114D01*
X-22252Y25131D01*
X-22258Y25149D01*
X-22262Y25170D01*
X-22265Y25193D01*
X-22267Y25219D01*
X-22267Y25241D01*
X-22266Y25250D01*
X-22279Y25349D01*
X-22317Y25442D01*
X-22378Y25521D01*
X-22458Y25582D01*
X-22550Y25620D01*
X-22649Y25633D01*
X-22748Y25620D01*
X-22841Y25582D01*
X-22920Y25521D01*
X-22981Y25442D01*
X-23019Y25349D01*
X-23032Y25250D01*
X-23031Y25241D01*
X-23032Y25219D01*
X-23033Y25193D01*
X-23037Y25170D01*
X-23041Y25149D01*
X-23046Y25131D01*
X-23052Y25114D01*
X-23059Y25100D01*
X-23067Y25087D01*
X-23072Y25079D01*
X-26275Y21876D01*
X-26314Y21818D01*
X-26328Y21750D01*
Y16414D01*
X-26328Y16412D01*
X-26332Y16390D01*
X-26341Y16365D01*
X-26355Y16336D01*
X-26373Y16303D01*
X-26396Y16268D01*
X-26424Y16231D01*
X-26499Y16146D01*
X-26532Y16112D01*
X-26549Y16099D01*
X-26638Y15982D01*
X-26695Y15846D01*
X-26714Y15700D01*
X-26695Y15554D01*
X-26638Y15418D01*
X-26549Y15301D01*
X-26432Y15211D01*
X-26295Y15154D01*
X-26149Y15135D01*
X-26003Y15154D01*
X-25867Y15211D01*
X-25750Y15301D01*
X-25679Y15392D01*
X-25619D01*
X-25549Y15301D01*
X-25432Y15211D01*
X-25295Y15154D01*
X-25199Y15142D01*
Y15700D01*
Y16258D01*
X-25295Y16246D01*
X-25432Y16189D01*
X-25549Y16099D01*
X-25619Y16008D01*
X-25679D01*
X-25750Y16099D01*
X-25767Y16112D01*
X-25799Y16146D01*
X-25874Y16231D01*
X-25902Y16268D01*
X-25926Y16303D01*
X-25944Y16336D01*
X-25957Y16365D01*
X-25966Y16390D01*
X-25971Y16412D01*
X-25971Y16414D01*
Y21676D01*
X-22820Y24827D01*
X-22812Y24833D01*
X-22799Y24840D01*
X-22785Y24847D01*
X-22768Y24853D01*
X-22750Y24858D01*
X-22729Y24863D01*
X-22706Y24866D01*
X-22681Y24868D01*
X-22658Y24868D01*
X-22649Y24867D01*
X-22640Y24868D01*
X-22618Y24868D01*
X-22592Y24866D01*
X-22569Y24863D01*
X-22549Y24858D01*
X-22530Y24853D01*
X-22513Y24847D01*
X-22499Y24840D01*
X-22486Y24833D01*
X-22478Y24827D01*
X-22275Y24624D01*
X-22275Y24624D01*
X-22217Y24585D01*
X-22149Y24572D01*
X-22149Y24572D01*
X-21932D01*
X-21916Y24524D01*
X-21920Y24521D01*
X-21981Y24442D01*
X-22019Y24349D01*
X-22032Y24250D01*
X-22019Y24151D01*
X-21981Y24058D01*
X-21920Y23979D01*
X-21841Y23918D01*
X-21748Y23880D01*
X-21649Y23867D01*
X-21550Y23880D01*
X-21458Y23918D01*
X-21378Y23979D01*
X-21317Y24058D01*
X-21279Y24151D01*
X-21266Y24250D01*
X-21279Y24349D01*
X-21317Y24442D01*
X-21378Y24521D01*
X-21382Y24524D01*
X-21366Y24572D01*
X-16638D01*
X-16569Y24585D01*
X-16511Y24624D01*
X-16435Y24700D01*
X-16430Y24704D01*
X-16419Y24711D01*
X-16406Y24717D01*
X-16393Y24723D01*
X-16378Y24727D01*
X-16362Y24731D01*
X-16344Y24734D01*
X-16325Y24735D01*
X-16307Y24735D01*
X-16300Y24735D01*
X-16209Y24747D01*
X-16123Y24782D01*
X-16050Y24838D01*
X-15994Y24911D01*
X-15959Y24996D01*
X-15947Y25088D01*
X-15959Y25179D01*
X-15994Y25264D01*
X-16050Y25337D01*
X-16123Y25393D01*
X-16209Y25429D01*
X-16300Y25441D01*
X-16391Y25429D01*
X-16477Y25393D01*
X-16550Y25337D01*
X-16606Y25264D01*
X-16641Y25179D01*
X-16653Y25088D01*
X-16652Y25080D01*
X-16652Y25063D01*
X-16654Y25043D01*
X-16657Y25025D01*
X-16660Y25009D01*
X-16665Y24994D01*
X-16670Y24981D01*
X-16676Y24969D01*
X-16683Y24958D01*
X-16688Y24952D01*
X-16711Y24928D01*
X-21366D01*
X-21382Y24976D01*
X-21378Y24979D01*
X-21317Y25058D01*
X-21279Y25151D01*
X-21266Y25250D01*
X-21267Y25259D01*
X-21267Y25273D01*
X-21265Y25291D01*
X-21262Y25307D01*
X-21257Y25323D01*
X-21252Y25339D01*
X-21245Y25354D01*
X-21237Y25368D01*
X-21227Y25383D01*
X-21223Y25388D01*
X-21085Y25526D01*
X-1614D01*
X-1283Y25195D01*
X-1304Y25145D01*
X-2056D01*
Y24661D01*
X-2057Y24658D01*
X-2074Y24633D01*
X-2123Y24575D01*
X-2493Y24205D01*
X-2538Y24139D01*
X-2553Y24061D01*
Y22634D01*
X-2600Y22588D01*
X-2643Y22615D01*
X-2643Y22650D01*
Y23395D01*
X-3433D01*
Y23180D01*
X-3441Y23179D01*
X-3450Y23178D01*
X-3987D01*
X-3995Y23179D01*
X-4003Y23180D01*
Y23395D01*
X-4695D01*
Y22605D01*
X-4003D01*
Y22819D01*
X-3995Y22821D01*
X-3987Y22822D01*
X-3450D01*
X-3441Y22821D01*
X-3433Y22820D01*
Y22605D01*
X-2692D01*
X-2654Y22605D01*
X-2626Y22562D01*
X-2884Y22304D01*
X-6953D01*
X-6956Y22304D01*
X-6971Y22307D01*
X-6985Y22310D01*
X-6998Y22314D01*
X-7010Y22319D01*
X-7020Y22325D01*
X-7030Y22331D01*
X-7039Y22338D01*
X-7046Y22344D01*
X-7050Y22350D01*
X-7123Y22406D01*
X-7208Y22441D01*
X-7299Y22453D01*
X-7391Y22441D01*
X-7476Y22406D01*
X-7549Y22350D01*
X-7553Y22344D01*
X-7559Y22338D01*
X-7569Y22331D01*
X-7578Y22325D01*
X-7589Y22319D01*
X-7600Y22314D01*
X-7613Y22310D01*
X-7627Y22307D01*
X-7643Y22304D01*
X-7645Y22304D01*
X-21234D01*
X-21241Y22305D01*
X-21253Y22308D01*
X-21261Y22311D01*
X-21266Y22313D01*
X-21269Y22315D01*
X-21270Y22317D01*
X-21272Y22319D01*
X-21274Y22323D01*
X-21277Y22336D01*
X-21279Y22349D01*
X-21317Y22442D01*
X-21378Y22521D01*
X-21458Y22582D01*
X-21550Y22620D01*
X-21649Y22633D01*
X-21748Y22620D01*
X-21841Y22582D01*
X-21920Y22521D01*
X-21981Y22442D01*
X-22019Y22349D01*
X-22032Y22250D01*
X-22019Y22151D01*
X-21981Y22058D01*
X-21920Y21979D01*
X-21841Y21918D01*
X-21748Y21880D01*
X-21649Y21867D01*
X-21550Y21880D01*
X-21540Y21884D01*
X-21540Y21884D01*
X-21324Y21896D01*
X-7645D01*
X-7643Y21896D01*
X-7627Y21893D01*
X-7613Y21890D01*
X-7600Y21886D01*
X-7589Y21881D01*
X-7578Y21875D01*
X-7569Y21869D01*
X-7559Y21862D01*
X-7553Y21856D01*
X-7549Y21850D01*
X-7476Y21794D01*
X-7391Y21759D01*
X-7299Y21747D01*
X-7208Y21759D01*
X-7123Y21794D01*
X-7050Y21850D01*
X-7046Y21856D01*
X-7039Y21862D01*
X-7030Y21869D01*
X-7020Y21875D01*
X-7010Y21881D01*
X-6998Y21886D01*
X-6985Y21890D01*
X-6971Y21893D01*
X-6956Y21896D01*
X-6953Y21896D01*
X-2799D01*
X-2721Y21912D01*
X-2655Y21956D01*
X-2205Y22406D01*
X-2161Y22472D01*
X-2145Y22550D01*
Y23977D01*
X-1844Y24278D01*
X-1808Y24311D01*
X-1778Y24335D01*
X-1752Y24353D01*
X-1750Y24355D01*
X-1265Y24355D01*
X-1253Y24310D01*
Y23695D01*
X-1476Y23473D01*
X-1512Y23439D01*
X-1542Y23415D01*
X-1568Y23397D01*
X-1571Y23395D01*
X-1645D01*
X-1649Y23396D01*
X-1653Y23395D01*
X-2056D01*
Y22605D01*
X-1553D01*
X-1532Y22590D01*
X-1480Y22546D01*
X-1193Y22259D01*
Y20241D01*
X-1472Y19962D01*
X-1504Y19932D01*
X-1530Y19911D01*
X-1553Y19896D01*
X-1554Y19895D01*
X-1617D01*
X-1621Y19896D01*
X-1625Y19895D01*
X-2056D01*
Y19105D01*
X-1823D01*
Y18907D01*
X-3868Y16863D01*
X-9882D01*
X-11894Y18875D01*
X-11859Y18959D01*
X-11847Y19050D01*
X-11859Y19141D01*
X-11894Y19227D01*
X-11950Y19300D01*
X-12023Y19356D01*
X-12109Y19391D01*
X-12200Y19403D01*
X-12291Y19391D01*
X-12377Y19356D01*
X-12450Y19300D01*
X-12506Y19227D01*
X-12541Y19141D01*
X-12553Y19050D01*
X-12541Y18959D01*
X-12506Y18873D01*
X-12450Y18800D01*
X-12377Y18744D01*
X-12291Y18709D01*
X-12200Y18697D01*
X-12180Y18700D01*
X-10065Y16585D01*
X-10012Y16549D01*
X-9949Y16537D01*
X-9949Y16537D01*
X-3800D01*
X-3738Y16549D01*
X-3685Y16585D01*
X-1545Y18724D01*
X-1510Y18777D01*
X-1497Y18840D01*
Y19105D01*
X-1265D01*
Y19536D01*
X-1264Y19540D01*
X-1265Y19543D01*
Y19607D01*
X-1265Y19607D01*
X-1250Y19629D01*
X-1206Y19680D01*
X-862Y20024D01*
X-820Y20087D01*
X-805Y20161D01*
Y22339D01*
X-820Y22413D01*
X-862Y22476D01*
X-1198Y22812D01*
X-1228Y22844D01*
X-1249Y22870D01*
X-1265Y22893D01*
Y23007D01*
X-1264Y23011D01*
X-1265Y23015D01*
Y23089D01*
X-1263Y23092D01*
X-1246Y23117D01*
X-1197Y23175D01*
X-905Y23467D01*
X-905Y23467D01*
X-861Y23533D01*
X-845Y23611D01*
Y25250D01*
X-845Y25250D01*
X-861Y25328D01*
X-905Y25394D01*
X-905Y25394D01*
X-1385Y25874D01*
X-1451Y25918D01*
X-1529Y25934D01*
X-21169D01*
X-21169Y25934D01*
D02*
G37*
G36*
X-4830Y22950D02*
X-5126D01*
Y22605D01*
X-4830D01*
Y22950D01*
D02*
G37*
G36*
X-5226D02*
X-5522D01*
Y22605D01*
X-5226D01*
Y22950D01*
D02*
G37*
%LPD*%
G36*
X-4103Y21386D02*
X-4098Y21373D01*
X-4091Y21362D01*
X-4080Y21352D01*
X-4067Y21344D01*
X-4050Y21337D01*
X-4031Y21332D01*
X-4008Y21328D01*
X-3983Y21326D01*
X-3954Y21325D01*
Y21175D01*
X-3983Y21174D01*
X-4008Y21172D01*
X-4031Y21168D01*
X-4050Y21163D01*
X-4067Y21156D01*
X-4080Y21148D01*
X-4091Y21138D01*
X-4098Y21127D01*
X-4103Y21114D01*
X-4104Y21100D01*
Y21400D01*
X-4103Y21386D01*
D02*
G37*
G36*
X-3331Y21100D02*
X-3333Y21114D01*
X-3337Y21127D01*
X-3345Y21138D01*
X-3355Y21148D01*
X-3369Y21156D01*
X-3386Y21163D01*
X-3405Y21168D01*
X-3428Y21172D01*
X-3454Y21174D01*
X-3482Y21175D01*
Y21325D01*
X-3454Y21326D01*
X-3428Y21328D01*
X-3405Y21332D01*
X-3386Y21337D01*
X-3369Y21344D01*
X-3355Y21352D01*
X-3345Y21362D01*
X-3337Y21373D01*
X-3333Y21386D01*
X-3331Y21400D01*
Y21100D01*
D02*
G37*
G36*
X-5437Y19868D02*
X-5379Y19818D01*
X-5354Y19800D01*
X-5331Y19787D01*
X-5311Y19779D01*
X-5294Y19775D01*
X-5279Y19776D01*
X-5267Y19782D01*
X-5258Y19793D01*
X-5420Y19533D01*
X-5413Y19546D01*
X-5411Y19562D01*
X-5412Y19579D01*
X-5418Y19598D01*
X-5426Y19618D01*
X-5439Y19640D01*
X-5455Y19664D01*
X-5475Y19689D01*
X-5499Y19716D01*
X-5527Y19745D01*
X-5470Y19900D01*
X-5437Y19868D01*
D02*
G37*
G36*
X-12152Y20673D02*
X-12132Y20656D01*
X-12111Y20641D01*
X-12091Y20628D01*
X-12070Y20617D01*
X-12049Y20608D01*
X-12027Y20601D01*
X-12006Y20596D01*
X-11984Y20593D01*
X-11962Y20592D01*
Y20442D01*
X-11984Y20441D01*
X-12006Y20438D01*
X-12027Y20433D01*
X-12049Y20426D01*
X-12070Y20417D01*
X-12091Y20406D01*
X-12111Y20393D01*
X-12132Y20378D01*
X-12152Y20361D01*
X-12171Y20342D01*
Y20692D01*
X-12152Y20673D01*
D02*
G37*
G36*
X-3331Y19350D02*
X-3333Y19364D01*
X-3337Y19377D01*
X-3345Y19388D01*
X-3355Y19398D01*
X-3369Y19406D01*
X-3386Y19413D01*
X-3405Y19418D01*
X-3428Y19422D01*
X-3454Y19424D01*
X-3482Y19425D01*
Y19575D01*
X-3454Y19576D01*
X-3428Y19578D01*
X-3405Y19582D01*
X-3386Y19587D01*
X-3369Y19594D01*
X-3355Y19602D01*
X-3345Y19612D01*
X-3337Y19623D01*
X-3333Y19636D01*
X-3331Y19650D01*
Y19350D01*
D02*
G37*
G36*
X-4103Y19636D02*
X-4098Y19623D01*
X-4091Y19612D01*
X-4080Y19602D01*
X-4067Y19594D01*
X-4050Y19587D01*
X-4031Y19582D01*
X-4008Y19578D01*
X-3983Y19576D01*
X-3954Y19575D01*
Y19425D01*
X-3983Y19424D01*
X-4008Y19422D01*
X-4031Y19418D01*
X-4050Y19413D01*
X-4067Y19406D01*
X-4080Y19398D01*
X-4091Y19388D01*
X-4098Y19377D01*
X-4103Y19364D01*
X-4104Y19350D01*
Y19650D01*
X-4103Y19636D01*
D02*
G37*
G36*
X-1742Y20957D02*
X-1754Y20965D01*
X-1767Y20970D01*
X-1783Y20969D01*
X-1801Y20965D01*
X-1821Y20957D01*
X-1844Y20944D01*
X-1868Y20927D01*
X-1895Y20905D01*
X-1954Y20850D01*
X-2060Y20956D01*
X-2031Y20987D01*
X-1984Y21042D01*
X-1967Y21067D01*
X-1954Y21089D01*
X-1945Y21109D01*
X-1941Y21127D01*
X-1941Y21143D01*
X-1945Y21156D01*
X-1953Y21168D01*
X-1742Y20957D01*
D02*
G37*
G36*
X-4103Y24886D02*
X-4098Y24873D01*
X-4091Y24862D01*
X-4080Y24852D01*
X-4067Y24844D01*
X-4050Y24837D01*
X-4031Y24832D01*
X-4008Y24828D01*
X-3983Y24826D01*
X-3954Y24825D01*
Y24675D01*
X-3983Y24674D01*
X-4008Y24672D01*
X-4031Y24668D01*
X-4050Y24663D01*
X-4067Y24656D01*
X-4080Y24648D01*
X-4091Y24638D01*
X-4098Y24627D01*
X-4103Y24614D01*
X-4104Y24600D01*
Y24900D01*
X-4103Y24886D01*
D02*
G37*
G36*
X-3331Y24600D02*
X-3333Y24614D01*
X-3337Y24627D01*
X-3345Y24638D01*
X-3355Y24648D01*
X-3369Y24656D01*
X-3386Y24663D01*
X-3405Y24668D01*
X-3428Y24672D01*
X-3454Y24674D01*
X-3482Y24675D01*
Y24825D01*
X-3454Y24826D01*
X-3428Y24828D01*
X-3405Y24832D01*
X-3386Y24837D01*
X-3369Y24844D01*
X-3355Y24852D01*
X-3345Y24862D01*
X-3337Y24873D01*
X-3333Y24886D01*
X-3331Y24900D01*
Y24600D01*
D02*
G37*
G36*
X-26072Y16397D02*
X-26064Y16363D01*
X-26052Y16327D01*
X-26035Y16289D01*
X-26012Y16250D01*
X-25985Y16209D01*
X-25953Y16166D01*
X-25874Y16076D01*
X-25827Y16029D01*
X-26471D01*
X-26424Y16076D01*
X-26345Y16166D01*
X-26313Y16209D01*
X-26286Y16250D01*
X-26264Y16289D01*
X-26246Y16327D01*
X-26234Y16363D01*
X-26227Y16397D01*
X-26224Y16430D01*
X-26074D01*
X-26072Y16397D01*
D02*
G37*
G36*
X-4103Y23136D02*
X-4098Y23123D01*
X-4091Y23112D01*
X-4080Y23102D01*
X-4067Y23094D01*
X-4050Y23087D01*
X-4031Y23082D01*
X-4008Y23078D01*
X-3983Y23076D01*
X-3954Y23075D01*
Y22925D01*
X-3983Y22924D01*
X-4008Y22922D01*
X-4031Y22918D01*
X-4050Y22913D01*
X-4067Y22906D01*
X-4080Y22898D01*
X-4091Y22888D01*
X-4098Y22877D01*
X-4103Y22864D01*
X-4104Y22850D01*
Y23150D01*
X-4103Y23136D01*
D02*
G37*
G36*
X-1377Y22947D02*
X-1382Y22930D01*
X-1382Y22911D01*
X-1377Y22889D01*
X-1367Y22865D01*
X-1351Y22839D01*
X-1331Y22809D01*
X-1305Y22777D01*
X-1239Y22706D01*
X-1366Y22579D01*
X-1403Y22614D01*
X-1470Y22671D01*
X-1499Y22691D01*
X-1526Y22707D01*
X-1550Y22717D01*
X-1571Y22722D01*
X-1590Y22722D01*
X-1607Y22717D01*
X-1621Y22707D01*
X-1367Y22960D01*
X-1377Y22947D01*
D02*
G37*
G36*
X-1239Y19794D02*
X-1275Y19757D01*
X-1331Y19691D01*
X-1351Y19662D01*
X-1366Y19635D01*
X-1376Y19611D01*
X-1381Y19589D01*
Y19570D01*
X-1376Y19554D01*
X-1366Y19540D01*
X-1621Y19794D01*
X-1607Y19784D01*
X-1590Y19779D01*
X-1571D01*
X-1549Y19784D01*
X-1525Y19794D01*
X-1499Y19809D01*
X-1469Y19830D01*
X-1437Y19855D01*
X-1366Y19921D01*
X-1239Y19794D01*
D02*
G37*
G36*
X-3331Y22850D02*
X-3333Y22864D01*
X-3337Y22877D01*
X-3345Y22888D01*
X-3355Y22898D01*
X-3369Y22906D01*
X-3386Y22913D01*
X-3405Y22918D01*
X-3428Y22922D01*
X-3454Y22924D01*
X-3482Y22925D01*
Y23075D01*
X-3454Y23076D01*
X-3428Y23078D01*
X-3405Y23082D01*
X-3386Y23087D01*
X-3369Y23094D01*
X-3355Y23102D01*
X-3345Y23112D01*
X-3337Y23123D01*
X-3333Y23136D01*
X-3331Y23150D01*
Y22850D01*
D02*
G37*
G36*
X-7105Y22261D02*
X-7089Y22248D01*
X-7072Y22237D01*
X-7053Y22227D01*
X-7034Y22219D01*
X-7013Y22212D01*
X-6992Y22207D01*
X-6969Y22203D01*
X-6945Y22201D01*
X-6920Y22200D01*
Y22000D01*
X-6945Y21999D01*
X-6969Y21997D01*
X-6992Y21993D01*
X-7013Y21988D01*
X-7034Y21981D01*
X-7053Y21973D01*
X-7072Y21963D01*
X-7089Y21952D01*
X-7105Y21939D01*
X-7121Y21925D01*
Y22275D01*
X-7105Y22261D01*
D02*
G37*
G36*
X-21370Y22288D02*
X-21361Y22269D01*
X-21350Y22253D01*
X-21337Y22239D01*
X-21321Y22227D01*
X-21303Y22217D01*
X-21283Y22210D01*
X-21259Y22204D01*
X-21234Y22201D01*
X-21206Y22200D01*
X-21245Y22000D01*
X-21295Y22000D01*
X-21555Y21985D01*
X-21569Y21982D01*
X-21375Y22308D01*
X-21370Y22288D01*
D02*
G37*
G36*
X-7478Y21925D02*
X-7493Y21939D01*
X-7509Y21952D01*
X-7527Y21963D01*
X-7545Y21973D01*
X-7565Y21981D01*
X-7585Y21988D01*
X-7607Y21993D01*
X-7630Y21997D01*
X-7653Y21999D01*
X-7678Y22000D01*
Y22200D01*
X-7653Y22201D01*
X-7630Y22203D01*
X-7607Y22207D01*
X-7585Y22212D01*
X-7565Y22219D01*
X-7545Y22227D01*
X-7527Y22237D01*
X-7509Y22248D01*
X-7493Y22261D01*
X-7478Y22275D01*
Y21925D01*
D02*
G37*
G36*
X-16302Y24838D02*
X-16330Y24837D01*
X-16356Y24835D01*
X-16381Y24831D01*
X-16405Y24826D01*
X-16427Y24819D01*
X-16449Y24810D01*
X-16469Y24800D01*
X-16488Y24788D01*
X-16505Y24775D01*
X-16522Y24760D01*
X-16628Y24866D01*
X-16613Y24882D01*
X-16599Y24900D01*
X-16587Y24919D01*
X-16577Y24939D01*
X-16569Y24960D01*
X-16562Y24983D01*
X-16556Y25007D01*
X-16553Y25031D01*
X-16551Y25058D01*
X-16550Y25085D01*
X-16302Y24838D01*
D02*
G37*
G36*
X-21275Y25483D02*
X-21293Y25463D01*
X-21309Y25443D01*
X-21324Y25422D01*
X-21336Y25400D01*
X-21346Y25378D01*
X-21355Y25354D01*
X-21361Y25330D01*
X-21366Y25305D01*
X-21369Y25279D01*
X-21369Y25253D01*
X-21646Y25530D01*
X-21620Y25531D01*
X-21594Y25533D01*
X-21569Y25538D01*
X-21545Y25544D01*
X-21522Y25553D01*
X-21499Y25563D01*
X-21477Y25576D01*
X-21456Y25590D01*
X-21436Y25606D01*
X-21416Y25624D01*
X-21275Y25483D01*
D02*
G37*
G36*
X-22652Y24970D02*
X-22685Y24969D01*
X-22716Y24967D01*
X-22746Y24963D01*
X-22774Y24958D01*
X-22800Y24950D01*
X-22825Y24941D01*
X-22847Y24930D01*
X-22869Y24918D01*
X-22888Y24903D01*
X-22906Y24887D01*
X-23012Y24993D01*
X-22996Y25011D01*
X-22982Y25031D01*
X-22969Y25052D01*
X-22958Y25075D01*
X-22949Y25099D01*
X-22942Y25125D01*
X-22936Y25153D01*
X-22932Y25183D01*
X-22930Y25214D01*
X-22929Y25247D01*
X-22652Y24970D01*
D02*
G37*
G36*
X-22369Y25214D02*
X-22366Y25183D01*
X-22363Y25153D01*
X-22357Y25125D01*
X-22349Y25099D01*
X-22340Y25075D01*
X-22329Y25052D01*
X-22317Y25031D01*
X-22303Y25011D01*
X-22287Y24993D01*
X-22393Y24887D01*
X-22410Y24903D01*
X-22430Y24918D01*
X-22451Y24930D01*
X-22474Y24941D01*
X-22498Y24950D01*
X-22524Y24958D01*
X-22552Y24963D01*
X-22582Y24967D01*
X-22613Y24969D01*
X-22646Y24970D01*
X-22369Y25247D01*
X-22369Y25214D01*
D02*
G37*
G36*
X-1597Y19434D02*
X-1598Y19428D01*
X-1599Y19405D01*
X-1600Y19253D01*
X-1720D01*
X-1724Y19436D01*
X-1597D01*
X-1597Y19434D01*
D02*
G37*
G36*
X-1671Y24457D02*
X-1687Y24468D01*
X-1705Y24474D01*
X-1726Y24474D01*
X-1750Y24468D01*
X-1777Y24457D01*
X-1807Y24439D01*
X-1840Y24417D01*
X-1875Y24388D01*
X-1954Y24314D01*
X-2096Y24456D01*
X-2056Y24497D01*
X-1994Y24571D01*
X-1971Y24603D01*
X-1954Y24633D01*
X-1942Y24660D01*
X-1937Y24684D01*
X-1936Y24705D01*
X-1942Y24723D01*
X-1953Y24739D01*
X-1671Y24457D01*
D02*
G37*
G36*
X-1225Y23294D02*
X-1264Y23253D01*
X-1327Y23180D01*
X-1349Y23147D01*
X-1366Y23117D01*
X-1377Y23090D01*
X-1383Y23066D01*
Y23045D01*
X-1377Y23027D01*
X-1366Y23011D01*
X-1649Y23294D01*
X-1633Y23283D01*
X-1615Y23277D01*
X-1594D01*
X-1570Y23283D01*
X-1543Y23294D01*
X-1513Y23311D01*
X-1481Y23334D01*
X-1445Y23362D01*
X-1366Y23435D01*
X-1225Y23294D01*
D02*
G37*
G36*
X-1552Y19206D02*
X-1562Y19202D01*
X-1571Y19196D01*
X-1579Y19188D01*
X-1585Y19177D01*
X-1591Y19163D01*
X-1595Y19148D01*
X-1598Y19130D01*
X-1600Y19109D01*
X-1600Y19086D01*
X-1720D01*
X-1721Y19109D01*
X-1723Y19130D01*
X-1726Y19148D01*
X-1730Y19163D01*
X-1735Y19177D01*
X-1742Y19188D01*
X-1750Y19196D01*
X-1759Y19202D01*
X-1769Y19206D01*
X-1780Y19207D01*
X-1540D01*
X-1552Y19206D01*
D02*
G37*
%LPC*%
G36*
X4551Y25303D02*
X4472Y25292D01*
X4399Y25262D01*
X4337Y25214D01*
X4289Y25151D01*
X4259Y25078D01*
X4248Y25000D01*
X4259Y24922D01*
X4289Y24849D01*
X4337Y24786D01*
X4340Y24783D01*
X4353Y24770D01*
X4365Y24757D01*
X4374Y24745D01*
X4382Y24733D01*
X4388Y24723D01*
X4392Y24714D01*
X4395Y24705D01*
X4397Y24698D01*
X4398Y24695D01*
Y23450D01*
X4409Y23391D01*
X4443Y23342D01*
X6243Y21542D01*
X6292Y21509D01*
X6351Y21497D01*
X12846D01*
X12849Y21497D01*
X12856Y21495D01*
X12864Y21492D01*
X12874Y21487D01*
X12884Y21481D01*
X12894Y21474D01*
X12922Y21451D01*
X12934Y21440D01*
X12937Y21436D01*
X12999Y21388D01*
X13072Y21358D01*
X13151Y21347D01*
X13229Y21358D01*
X13302Y21388D01*
X13365Y21436D01*
X13413Y21499D01*
X13443Y21572D01*
X13453Y21650D01*
X13453Y21655D01*
X13453Y21672D01*
X13454Y21690D01*
X13456Y21706D01*
X13459Y21719D01*
X13462Y21731D01*
X13465Y21741D01*
X13469Y21748D01*
X13473Y21755D01*
X13474Y21757D01*
X13542Y21825D01*
X13575Y21875D01*
X13587Y21933D01*
Y22629D01*
X13809D01*
Y23223D01*
X13058D01*
Y22629D01*
X13281D01*
Y21996D01*
X13258Y21974D01*
X13256Y21972D01*
X13249Y21968D01*
X13241Y21965D01*
X13232Y21961D01*
X13220Y21958D01*
X13208Y21956D01*
X13172Y21952D01*
X13155Y21952D01*
X13151Y21953D01*
X13072Y21942D01*
X12999Y21912D01*
X12937Y21864D01*
X12934Y21860D01*
X12921Y21848D01*
X12908Y21836D01*
X12896Y21827D01*
X12884Y21819D01*
X12874Y21813D01*
X12864Y21808D01*
X12856Y21805D01*
X12849Y21803D01*
X12846Y21803D01*
X6414D01*
X4704Y23513D01*
Y24695D01*
X4704Y24698D01*
X4706Y24705D01*
X4709Y24714D01*
X4714Y24723D01*
X4720Y24733D01*
X4727Y24744D01*
X4750Y24771D01*
X4761Y24783D01*
X4765Y24786D01*
X4813Y24849D01*
X4843Y24922D01*
X4853Y25000D01*
X4843Y25078D01*
X4813Y25151D01*
X4765Y25214D01*
X4702Y25262D01*
X4629Y25292D01*
X4551Y25303D01*
D02*
G37*
G36*
X27831Y15240D02*
X27333D01*
Y14742D01*
X27426Y14754D01*
X27560Y14809D01*
X27675Y14898D01*
X27763Y15012D01*
X27819Y15146D01*
X27831Y15240D01*
D02*
G37*
G36*
X9801Y16703D02*
X9722Y16692D01*
X9649Y16662D01*
X9587Y16614D01*
X9539Y16551D01*
X9509Y16478D01*
X9498Y16400D01*
X9509Y16322D01*
X9539Y16249D01*
X9587Y16186D01*
X9649Y16138D01*
X9722Y16108D01*
X9801Y16097D01*
X9805Y16098D01*
X9820Y16098D01*
X9834Y16097D01*
X9847Y16095D01*
X9858Y16092D01*
X9868Y16089D01*
X9877Y16085D01*
X9886Y16081D01*
X9893Y16077D01*
X9896Y16075D01*
X10648Y15322D01*
X10701Y15287D01*
X10763Y15274D01*
X10763Y15274D01*
X11741D01*
Y15042D01*
X12433D01*
Y15833D01*
X11741D01*
Y15601D01*
X10831D01*
X10126Y16305D01*
X10124Y16308D01*
X10120Y16315D01*
X10116Y16323D01*
X10112Y16332D01*
X10109Y16343D01*
X10106Y16354D01*
X10104Y16367D01*
X10103Y16381D01*
X10103Y16396D01*
X10103Y16400D01*
X10093Y16478D01*
X10063Y16551D01*
X10015Y16614D01*
X9952Y16662D01*
X9879Y16692D01*
X9801Y16703D01*
D02*
G37*
G36*
X9765Y15138D02*
X9687Y15128D01*
X9614Y15097D01*
X9551Y15049D01*
X9503Y14987D01*
X9473Y14914D01*
X9463Y14835D01*
X9473Y14757D01*
X9503Y14684D01*
X9551Y14621D01*
X9614Y14573D01*
X9687Y14543D01*
X9765Y14533D01*
X9770Y14533D01*
X9788Y14533D01*
X9805Y14532D01*
X9821Y14530D01*
X9835Y14527D01*
X9846Y14524D01*
X9856Y14521D01*
X9864Y14517D01*
X9870Y14514D01*
X9873Y14512D01*
X10368Y14017D01*
X10417Y13984D01*
X10476Y13972D01*
X11741D01*
Y13730D01*
X12433D01*
Y14520D01*
X11741D01*
Y14278D01*
X10539D01*
X10089Y14728D01*
X10087Y14731D01*
X10084Y14737D01*
X10080Y14745D01*
X10076Y14755D01*
X10073Y14766D01*
X10071Y14778D01*
X10068Y14814D01*
X10067Y14831D01*
X10068Y14835D01*
X10058Y14914D01*
X10027Y14987D01*
X9979Y15049D01*
X9917Y15097D01*
X9844Y15128D01*
X9765Y15138D01*
D02*
G37*
G36*
X27233Y15240D02*
X26735D01*
X26747Y15146D01*
X26802Y15012D01*
X26890Y14898D01*
X27005Y14809D01*
X27139Y14754D01*
X27233Y14742D01*
Y15240D01*
D02*
G37*
G36*
X18651Y16399D02*
X18548Y16385D01*
X18451Y16345D01*
X18369Y16282D01*
X18306Y16199D01*
X18266Y16103D01*
X18252Y16000D01*
X18266Y15897D01*
X18306Y15801D01*
X18369Y15718D01*
X18451Y15655D01*
X18548Y15615D01*
X18651Y15601D01*
X18754Y15615D01*
X18850Y15655D01*
X18933Y15718D01*
X18996Y15801D01*
X19036Y15897D01*
X19049Y16000D01*
X19036Y16103D01*
X18996Y16199D01*
X18933Y16282D01*
X18850Y16345D01*
X18754Y16385D01*
X18651Y16399D01*
D02*
G37*
G36*
X17601Y15950D02*
X17256D01*
Y15605D01*
X17601D01*
Y15950D01*
D02*
G37*
G36*
X22212Y21663D02*
X22134Y21652D01*
X22061Y21622D01*
X21999Y21574D01*
X21950Y21511D01*
X21920Y21438D01*
X21910Y21360D01*
X21920Y21282D01*
X21950Y21209D01*
X21999Y21146D01*
X22061Y21098D01*
X22134Y21068D01*
X22212Y21057D01*
X22217Y21058D01*
X22231Y21058D01*
X22246Y21057D01*
X22258Y21055D01*
X22270Y21052D01*
X22280Y21049D01*
X22289Y21045D01*
X22297Y21041D01*
X22305Y21037D01*
X22307Y21035D01*
X26668Y16674D01*
X26671Y16671D01*
X26681Y16654D01*
X26691Y16632D01*
X26701Y16602D01*
X26710Y16566D01*
X26718Y16524D01*
X26724Y16476D01*
X26730Y16360D01*
X26731Y16311D01*
X26728Y16290D01*
X26747Y16146D01*
X26802Y16012D01*
X26890Y15898D01*
X26993Y15819D01*
X26997Y15803D01*
Y15777D01*
X26993Y15761D01*
X26890Y15682D01*
X26802Y15567D01*
X26747Y15433D01*
X26735Y15340D01*
X27831D01*
X27819Y15433D01*
X27763Y15567D01*
X27675Y15682D01*
X27573Y15761D01*
X27568Y15777D01*
Y15803D01*
X27573Y15819D01*
X27675Y15898D01*
X27763Y16012D01*
X27819Y16146D01*
X27837Y16290D01*
X27819Y16433D01*
X27763Y16567D01*
X27675Y16682D01*
X27560Y16770D01*
X27426Y16826D01*
X27283Y16845D01*
X27262Y16842D01*
X27213Y16842D01*
X27096Y16849D01*
X27049Y16855D01*
X27006Y16862D01*
X26970Y16871D01*
X26941Y16882D01*
X26918Y16892D01*
X26902Y16902D01*
X26898Y16905D01*
X22538Y21265D01*
X22536Y21268D01*
X22531Y21275D01*
X22527Y21283D01*
X22524Y21292D01*
X22520Y21303D01*
X22518Y21314D01*
X22516Y21327D01*
X22515Y21341D01*
X22514Y21356D01*
X22515Y21360D01*
X22505Y21438D01*
X22475Y21511D01*
X22426Y21574D01*
X22364Y21622D01*
X22291Y21652D01*
X22212Y21663D01*
D02*
G37*
G36*
X13260Y13208D02*
X12964D01*
Y12862D01*
X13260D01*
Y13208D01*
D02*
G37*
G36*
X12864Y11895D02*
X12568D01*
Y11550D01*
X12864D01*
Y11895D01*
D02*
G37*
G36*
X13260D02*
X12964D01*
Y11550D01*
X13260D01*
Y11895D01*
D02*
G37*
G36*
Y12762D02*
X12964D01*
Y12417D01*
X13260D01*
Y12762D01*
D02*
G37*
G36*
X12864Y13208D02*
X12568D01*
Y12862D01*
X12864D01*
Y13208D01*
D02*
G37*
G36*
X9801Y13603D02*
X9722Y13592D01*
X9649Y13562D01*
X9587Y13514D01*
X9539Y13451D01*
X9509Y13378D01*
X9498Y13300D01*
X9509Y13222D01*
X9539Y13149D01*
X9587Y13086D01*
X9649Y13038D01*
X9722Y13008D01*
X9801Y12997D01*
X9805Y12998D01*
X9820Y12998D01*
X9834Y12997D01*
X9847Y12995D01*
X9858Y12992D01*
X9868Y12989D01*
X9877Y12985D01*
X9886Y12981D01*
X9893Y12977D01*
X9896Y12975D01*
X10173Y12697D01*
X10226Y12662D01*
X10288Y12649D01*
X11741D01*
Y12417D01*
X12433D01*
Y13208D01*
X11741D01*
Y12976D01*
X10356D01*
X10126Y13205D01*
X10124Y13208D01*
X10120Y13215D01*
X10116Y13223D01*
X10112Y13232D01*
X10109Y13243D01*
X10106Y13254D01*
X10104Y13267D01*
X10103Y13281D01*
X10103Y13296D01*
X10103Y13300D01*
X10093Y13378D01*
X10063Y13451D01*
X10015Y13514D01*
X9952Y13562D01*
X9879Y13592D01*
X9801Y13603D01*
D02*
G37*
G36*
X12864Y12762D02*
X12568D01*
Y12417D01*
X12864D01*
Y12762D01*
D02*
G37*
G36*
X13260Y17145D02*
X12964D01*
Y16800D01*
X13260D01*
Y17145D01*
D02*
G37*
G36*
X18651Y18399D02*
X18548Y18385D01*
X18451Y18345D01*
X18369Y18282D01*
X18306Y18199D01*
X18266Y18103D01*
X18252Y18000D01*
X18266Y17897D01*
X18306Y17801D01*
X18369Y17718D01*
X18451Y17655D01*
X18548Y17615D01*
X18651Y17601D01*
X18754Y17615D01*
X18850Y17655D01*
X18933Y17718D01*
X18996Y17801D01*
X19036Y17897D01*
X19049Y18000D01*
X19036Y18103D01*
X18996Y18199D01*
X18933Y18282D01*
X18850Y18345D01*
X18754Y18385D01*
X18651Y18399D01*
D02*
G37*
G36*
X12864Y17145D02*
X12568D01*
Y16800D01*
X12864D01*
Y17145D01*
D02*
G37*
G36*
X6309Y20653D02*
X6230Y20642D01*
X6157Y20612D01*
X6095Y20564D01*
X6047Y20501D01*
X6016Y20428D01*
X6006Y20350D01*
X6016Y20272D01*
X6047Y20199D01*
X6085Y20149D01*
X6087Y20145D01*
X6093Y20139D01*
X6095Y20136D01*
X6096Y20135D01*
X6102Y20128D01*
X6114Y20114D01*
X6124Y20100D01*
X6132Y20088D01*
X6138Y20077D01*
X6142Y20067D01*
X6145Y20058D01*
X6147Y20051D01*
X6148Y20048D01*
Y18855D01*
X6147Y18852D01*
X6145Y18845D01*
X6142Y18836D01*
X6138Y18827D01*
X6132Y18817D01*
X6125Y18806D01*
X6102Y18779D01*
X6090Y18767D01*
X6087Y18764D01*
X6039Y18701D01*
X6009Y18628D01*
X5998Y18550D01*
X6009Y18472D01*
X6039Y18399D01*
X6087Y18336D01*
X6149Y18288D01*
X6222Y18258D01*
X6301Y18247D01*
X6379Y18258D01*
X6452Y18288D01*
X6515Y18336D01*
X6563Y18399D01*
X6593Y18472D01*
X6603Y18550D01*
X6593Y18628D01*
X6563Y18701D01*
X6515Y18764D01*
X6511Y18767D01*
X6499Y18780D01*
X6487Y18793D01*
X6477Y18805D01*
X6470Y18817D01*
X6464Y18827D01*
X6459Y18836D01*
X6456Y18845D01*
X6454Y18852D01*
X6454Y18855D01*
Y20043D01*
X6454Y20046D01*
X6456Y20053D01*
X6459Y20060D01*
X6463Y20069D01*
X6469Y20079D01*
X6477Y20089D01*
X6486Y20101D01*
X6498Y20113D01*
X6513Y20128D01*
X6515Y20130D01*
X6523Y20136D01*
X6571Y20199D01*
X6601Y20272D01*
X6611Y20350D01*
X6601Y20428D01*
X6571Y20501D01*
X6523Y20564D01*
X6460Y20612D01*
X6387Y20642D01*
X6309Y20653D01*
D02*
G37*
G36*
X17601Y17950D02*
X17259D01*
X17266Y17897D01*
X17306Y17801D01*
X17369Y17718D01*
X17451Y17655D01*
X17548Y17615D01*
X17601Y17608D01*
Y17950D01*
D02*
G37*
G36*
X18043D02*
X17701D01*
Y17608D01*
X17754Y17615D01*
X17850Y17655D01*
X17933Y17718D01*
X17996Y17801D01*
X18036Y17897D01*
X18043Y17950D01*
D02*
G37*
G36*
X18651Y17399D02*
X18548Y17385D01*
X18451Y17345D01*
X18369Y17282D01*
X18306Y17199D01*
X18266Y17103D01*
X18252Y17000D01*
X18266Y16897D01*
X18306Y16801D01*
X18369Y16718D01*
X18451Y16655D01*
X18548Y16615D01*
X18651Y16601D01*
X18754Y16615D01*
X18850Y16655D01*
X18933Y16718D01*
X18996Y16801D01*
X19036Y16897D01*
X19049Y17000D01*
X19036Y17103D01*
X18996Y17199D01*
X18933Y17282D01*
X18850Y17345D01*
X18754Y17385D01*
X18651Y17399D01*
D02*
G37*
G36*
X17601Y16395D02*
X17256D01*
Y16050D01*
X17601D01*
Y16395D01*
D02*
G37*
G36*
X18046D02*
X17701D01*
Y16050D01*
X18046D01*
Y16395D01*
D02*
G37*
G36*
Y15950D02*
X17701D01*
Y15605D01*
X18046D01*
Y15950D01*
D02*
G37*
G36*
X13260Y16700D02*
X12964D01*
Y16355D01*
X13260D01*
Y16700D01*
D02*
G37*
G36*
X17651Y17399D02*
X17548Y17385D01*
X17451Y17345D01*
X17369Y17282D01*
X17306Y17199D01*
X17266Y17103D01*
X17252Y17000D01*
X17266Y16897D01*
X17306Y16801D01*
X17369Y16718D01*
X17451Y16655D01*
X17548Y16615D01*
X17651Y16601D01*
X17754Y16615D01*
X17850Y16655D01*
X17933Y16718D01*
X17996Y16801D01*
X18036Y16897D01*
X18049Y17000D01*
X18036Y17103D01*
X17996Y17199D01*
X17933Y17282D01*
X17850Y17345D01*
X17754Y17385D01*
X17651Y17399D01*
D02*
G37*
G36*
X10701Y17503D02*
X10622Y17492D01*
X10549Y17462D01*
X10487Y17414D01*
X10439Y17351D01*
X10409Y17278D01*
X10398Y17200D01*
X10409Y17122D01*
X10439Y17049D01*
X10487Y16986D01*
X10549Y16938D01*
X10622Y16908D01*
X10701Y16897D01*
X10705Y16898D01*
X10720Y16898D01*
X10734Y16897D01*
X10747Y16895D01*
X10758Y16892D01*
X10768Y16889D01*
X10777Y16885D01*
X10786Y16881D01*
X10793Y16877D01*
X10796Y16875D01*
X11035Y16635D01*
X11088Y16599D01*
X11151Y16587D01*
X11741D01*
Y16355D01*
X12433D01*
Y17145D01*
X11741D01*
Y16913D01*
X11218D01*
X11026Y17105D01*
X11024Y17108D01*
X11020Y17115D01*
X11016Y17123D01*
X11012Y17132D01*
X11009Y17143D01*
X11006Y17154D01*
X11004Y17167D01*
X11003Y17181D01*
X11003Y17196D01*
X11003Y17200D01*
X10993Y17278D01*
X10963Y17351D01*
X10915Y17414D01*
X10852Y17462D01*
X10779Y17492D01*
X10701Y17503D01*
D02*
G37*
G36*
X12864Y16700D02*
X12568D01*
Y16355D01*
X12864D01*
Y16700D01*
D02*
G37*
G36*
X11610Y23695D02*
X10918D01*
Y22905D01*
X11610D01*
Y23119D01*
X11618Y23121D01*
X11627Y23122D01*
X12176D01*
X12185Y23121D01*
X12192Y23120D01*
Y23003D01*
X12943D01*
Y23597D01*
X12192D01*
Y23480D01*
X12185Y23479D01*
X12176Y23478D01*
X11627D01*
X11618Y23479D01*
X11610Y23481D01*
Y23695D01*
D02*
G37*
G36*
X3758Y27550D02*
X3351D01*
Y27143D01*
X3421Y27152D01*
X3533Y27198D01*
X3629Y27272D01*
X3703Y27368D01*
X3749Y27480D01*
X3758Y27550D01*
D02*
G37*
G36*
X5301Y28054D02*
X5183Y28038D01*
X5074Y27993D01*
X4980Y27921D01*
X4908Y27827D01*
X4862Y27717D01*
X4847Y27600D01*
X4849Y27587D01*
X4846Y27506D01*
X4843Y27469D01*
X4838Y27434D01*
X4832Y27405D01*
X4825Y27380D01*
X4817Y27359D01*
X4809Y27343D01*
X4801Y27331D01*
X2535Y25065D01*
X2500Y25012D01*
X2488Y24950D01*
Y16298D01*
X2500Y16236D01*
X2535Y16183D01*
X2975Y15743D01*
X2977Y15740D01*
X2982Y15733D01*
X2986Y15725D01*
X2990Y15716D01*
X2993Y15706D01*
X2995Y15694D01*
X2997Y15681D01*
X2998Y15667D01*
X2999Y15652D01*
X2998Y15648D01*
X3009Y15570D01*
X3039Y15497D01*
X3087Y15434D01*
X3149Y15386D01*
X3222Y15356D01*
X3301Y15345D01*
X3379Y15356D01*
X3452Y15386D01*
X3515Y15434D01*
X3563Y15497D01*
X3593Y15570D01*
X3603Y15648D01*
X3593Y15726D01*
X3563Y15799D01*
X3515Y15862D01*
X3452Y15910D01*
X3379Y15940D01*
X3301Y15951D01*
X3296Y15950D01*
X3282Y15950D01*
X3268Y15951D01*
X3255Y15953D01*
X3243Y15956D01*
X3233Y15959D01*
X3224Y15963D01*
X3216Y15967D01*
X3209Y15971D01*
X3206Y15974D01*
X2814Y16366D01*
Y24882D01*
X5032Y27100D01*
X5043Y27108D01*
X5060Y27116D01*
X5080Y27124D01*
X5106Y27131D01*
X5135Y27137D01*
X5168Y27142D01*
X5251Y27148D01*
X5287Y27148D01*
X5301Y27146D01*
X5418Y27162D01*
X5528Y27207D01*
X5622Y27279D01*
X5694Y27373D01*
X5739Y27483D01*
X5755Y27600D01*
X5739Y27717D01*
X5694Y27827D01*
X5622Y27921D01*
X5528Y27993D01*
X5418Y28038D01*
X5301Y28054D01*
D02*
G37*
G36*
X27581Y24740D02*
X27083D01*
Y24242D01*
X27176Y24254D01*
X27310Y24309D01*
X27425Y24398D01*
X27513Y24512D01*
X27569Y24646D01*
X27581Y24740D01*
D02*
G37*
G36*
X10783Y23695D02*
X10091D01*
Y23463D01*
X8998D01*
X8995Y23464D01*
X8986Y23466D01*
X8978Y23468D01*
X8969Y23472D01*
X8959Y23477D01*
X8949Y23483D01*
X8939Y23491D01*
X8928Y23500D01*
X8917Y23510D01*
X8915Y23514D01*
X8852Y23562D01*
X8779Y23592D01*
X8701Y23603D01*
X8622Y23592D01*
X8549Y23562D01*
X8487Y23514D01*
X8439Y23451D01*
X8409Y23378D01*
X8398Y23300D01*
X8409Y23222D01*
X8439Y23149D01*
X8487Y23086D01*
X8549Y23038D01*
X8622Y23008D01*
X8701Y22997D01*
X8779Y23008D01*
X8852Y23038D01*
X8915Y23086D01*
X8917Y23090D01*
X8928Y23100D01*
X8939Y23109D01*
X8949Y23117D01*
X8959Y23123D01*
X8969Y23128D01*
X8978Y23132D01*
X8986Y23134D01*
X8995Y23136D01*
X8998Y23137D01*
X10091D01*
Y22905D01*
X10783D01*
Y23695D01*
D02*
G37*
G36*
X2301Y28064D02*
X2181Y28048D01*
X2069Y28002D01*
X1973Y27928D01*
X1899Y27832D01*
X1853Y27720D01*
X1837Y27600D01*
X1853Y27480D01*
X1899Y27368D01*
X1973Y27272D01*
X2069Y27198D01*
X2181Y27152D01*
X2301Y27136D01*
X2421Y27152D01*
X2533Y27198D01*
X2629Y27272D01*
X2703Y27368D01*
X2749Y27480D01*
X2765Y27600D01*
X2749Y27720D01*
X2703Y27832D01*
X2629Y27928D01*
X2533Y28002D01*
X2421Y28048D01*
X2301Y28064D01*
D02*
G37*
G36*
X3251Y27550D02*
X2843D01*
X2853Y27480D01*
X2899Y27368D01*
X2973Y27272D01*
X3069Y27198D01*
X3181Y27152D01*
X3251Y27143D01*
Y27550D01*
D02*
G37*
G36*
X27033Y26345D02*
X26889Y26326D01*
X26755Y26270D01*
X26640Y26182D01*
X26562Y26080D01*
X26545Y26076D01*
X26520D01*
X26503Y26080D01*
X26425Y26182D01*
X26310Y26270D01*
X26176Y26326D01*
X26033Y26345D01*
X25889Y26326D01*
X25755Y26270D01*
X25640Y26182D01*
X25562Y26080D01*
X25545Y26076D01*
X25520D01*
X25503Y26080D01*
X25425Y26182D01*
X25310Y26270D01*
X25176Y26326D01*
X25033Y26345D01*
X24889Y26326D01*
X24755Y26270D01*
X24640Y26182D01*
X24552Y26067D01*
X24497Y25933D01*
X24478Y25790D01*
X24497Y25646D01*
X24552Y25512D01*
X24640Y25398D01*
X24743Y25319D01*
X24747Y25303D01*
Y25277D01*
X24743Y25261D01*
X24640Y25182D01*
X24552Y25067D01*
X24497Y24933D01*
X24478Y24790D01*
X24497Y24646D01*
X24552Y24512D01*
X24640Y24398D01*
X24755Y24309D01*
X24889Y24254D01*
X25033Y24235D01*
X25176Y24254D01*
X25310Y24309D01*
X25425Y24398D01*
X25503Y24500D01*
X25520Y24504D01*
X25545D01*
X25562Y24500D01*
X25640Y24398D01*
X25755Y24309D01*
X25889Y24254D01*
X26033Y24235D01*
X26176Y24254D01*
X26310Y24309D01*
X26425Y24398D01*
X26503Y24500D01*
X26520Y24504D01*
X26545D01*
X26562Y24500D01*
X26640Y24398D01*
X26755Y24309D01*
X26889Y24254D01*
X26983Y24242D01*
Y24790D01*
X27033D01*
Y24840D01*
X27581D01*
X27569Y24933D01*
X27513Y25067D01*
X27425Y25182D01*
X27323Y25261D01*
X27318Y25277D01*
Y25303D01*
X27323Y25319D01*
X27425Y25398D01*
X27513Y25512D01*
X27569Y25646D01*
X27587Y25790D01*
X27569Y25933D01*
X27513Y26067D01*
X27425Y26182D01*
X27310Y26270D01*
X27176Y26326D01*
X27033Y26345D01*
D02*
G37*
G36*
X1301Y28064D02*
X1181Y28048D01*
X1069Y28002D01*
X973Y27928D01*
X899Y27832D01*
X853Y27720D01*
X837Y27600D01*
X853Y27480D01*
X899Y27368D01*
X973Y27272D01*
X1069Y27198D01*
X1181Y27152D01*
X1301Y27136D01*
X1421Y27152D01*
X1533Y27198D01*
X1629Y27272D01*
X1703Y27368D01*
X1749Y27480D01*
X1765Y27600D01*
X1749Y27720D01*
X1703Y27832D01*
X1629Y27928D01*
X1533Y28002D01*
X1421Y28048D01*
X1301Y28064D01*
D02*
G37*
G36*
X5301Y29054D02*
X5183Y29038D01*
X5074Y28993D01*
X4980Y28921D01*
X4908Y28827D01*
X4862Y28717D01*
X4847Y28600D01*
X4862Y28483D01*
X4908Y28373D01*
X4980Y28279D01*
X5074Y28207D01*
X5183Y28162D01*
X5301Y28146D01*
X5418Y28162D01*
X5528Y28207D01*
X5622Y28279D01*
X5694Y28373D01*
X5739Y28483D01*
X5755Y28600D01*
X5739Y28717D01*
X5694Y28827D01*
X5622Y28921D01*
X5528Y28993D01*
X5418Y29038D01*
X5301Y29054D01*
D02*
G37*
G36*
X17810Y28645D02*
X17118D01*
Y28143D01*
X17117Y28142D01*
X17110Y28131D01*
X17085Y28102D01*
X17030Y28046D01*
X16983Y28065D01*
Y28645D01*
X16291D01*
Y28403D01*
X15826D01*
Y28547D01*
X15075D01*
Y27953D01*
X15826D01*
Y28097D01*
X16291D01*
Y27855D01*
X16873D01*
X16888Y27837D01*
Y26845D01*
X16291D01*
Y26630D01*
X16284Y26629D01*
X16275Y26628D01*
X15876D01*
X15867Y26629D01*
X15859Y26630D01*
Y26721D01*
X15204D01*
Y27039D01*
X15343Y27178D01*
X15348Y27182D01*
X15357Y27189D01*
X15365Y27194D01*
X15372Y27198D01*
X15379Y27201D01*
X15385Y27203D01*
X15389Y27205D01*
X15393Y27205D01*
X15826D01*
Y27799D01*
X15075D01*
Y27344D01*
X15062Y27329D01*
X14943Y27210D01*
X14909Y27160D01*
X14898Y27102D01*
Y26347D01*
X14242D01*
Y26230D01*
X14235Y26229D01*
X14226Y26228D01*
X13777D01*
X13768Y26229D01*
X13760Y26230D01*
Y26445D01*
X13068D01*
Y25655D01*
X13760D01*
Y25870D01*
X13768Y25871D01*
X13777Y25872D01*
X14226D01*
X14235Y25871D01*
X14242Y25870D01*
Y25753D01*
X14993D01*
Y25885D01*
X15039Y25904D01*
X15108Y25835D01*
Y25379D01*
X15321D01*
Y24167D01*
X15333Y24104D01*
X15368Y24052D01*
X17214Y22206D01*
X17220Y22198D01*
X17226Y22185D01*
X17233Y22169D01*
X17239Y22150D01*
X17244Y22127D01*
X17248Y22103D01*
X17253Y22038D01*
X17253Y22011D01*
X17252Y22000D01*
X17266Y21897D01*
X17306Y21801D01*
X17369Y21718D01*
X17451Y21655D01*
X17548Y21615D01*
X17651Y21601D01*
X17754Y21615D01*
X17850Y21655D01*
X17933Y21718D01*
X17996Y21801D01*
X18036Y21897D01*
X18049Y22000D01*
X18036Y22103D01*
X17996Y22199D01*
X17933Y22282D01*
X17850Y22345D01*
X17754Y22385D01*
X17651Y22399D01*
X17642Y22397D01*
X17578Y22399D01*
X17549Y22402D01*
X17523Y22407D01*
X17501Y22412D01*
X17482Y22418D01*
X17466Y22424D01*
X17453Y22431D01*
X17445Y22437D01*
X15647Y24234D01*
Y25379D01*
X15859D01*
Y25973D01*
X15426D01*
X15422Y25973D01*
X15418Y25975D01*
X15412Y25977D01*
X15405Y25980D01*
X15398Y25984D01*
X15390Y25989D01*
X15381Y25996D01*
X15376Y26000D01*
X15295Y26081D01*
X15314Y26127D01*
X15859D01*
Y26270D01*
X15867Y26271D01*
X15876Y26272D01*
X16275D01*
X16284Y26271D01*
X16291Y26270D01*
Y26055D01*
X16888D01*
Y25950D01*
X16900Y25888D01*
X16935Y25835D01*
X19120Y23650D01*
Y22650D01*
X18885Y22415D01*
X18877Y22410D01*
X18866Y22404D01*
X18852Y22399D01*
X18835Y22394D01*
X18814Y22391D01*
X18791Y22389D01*
X18764Y22389D01*
X18735Y22390D01*
X18700Y22394D01*
X18691Y22393D01*
X18651Y22399D01*
X18548Y22385D01*
X18451Y22345D01*
X18369Y22282D01*
X18306Y22199D01*
X18266Y22103D01*
X18252Y22000D01*
X18266Y21897D01*
X18306Y21801D01*
X18369Y21718D01*
X18451Y21655D01*
X18548Y21615D01*
X18651Y21601D01*
X18754Y21615D01*
X18850Y21655D01*
X18933Y21718D01*
X18996Y21801D01*
X19036Y21897D01*
X19042Y21945D01*
X19045Y21955D01*
X19050Y21995D01*
X19056Y22029D01*
X19070Y22091D01*
X19077Y22114D01*
X19085Y22135D01*
X19093Y22153D01*
X19100Y22166D01*
X19106Y22175D01*
X19398Y22467D01*
X19434Y22520D01*
X19446Y22582D01*
Y23718D01*
X19434Y23780D01*
X19398Y23833D01*
X17227Y26005D01*
X17245Y26055D01*
X17810D01*
Y26287D01*
X19187D01*
X19798Y25676D01*
Y22378D01*
X18857Y21437D01*
X18849Y21431D01*
X18836Y21424D01*
X18820Y21418D01*
X18801Y21412D01*
X18778Y21407D01*
X18753Y21403D01*
X18689Y21398D01*
X18661Y21397D01*
X18651Y21399D01*
X18548Y21385D01*
X18451Y21345D01*
X18369Y21282D01*
X18306Y21199D01*
X18266Y21103D01*
X18252Y21000D01*
X18266Y20897D01*
X18306Y20801D01*
X18369Y20718D01*
X18451Y20655D01*
X18548Y20615D01*
X18651Y20601D01*
X18754Y20615D01*
X18850Y20655D01*
X18933Y20718D01*
X18996Y20801D01*
X19036Y20897D01*
X19049Y21000D01*
X19048Y21009D01*
X19050Y21073D01*
X19053Y21101D01*
X19057Y21127D01*
X19063Y21150D01*
X19069Y21169D01*
X19075Y21185D01*
X19082Y21198D01*
X19088Y21206D01*
X20076Y22195D01*
X20111Y22248D01*
X20124Y22310D01*
Y25744D01*
X20111Y25806D01*
X20076Y25859D01*
X19370Y26565D01*
X19317Y26601D01*
X19254Y26613D01*
X17810D01*
Y26845D01*
X17214D01*
Y27769D01*
X17267Y27822D01*
X17289Y27842D01*
X17304Y27855D01*
X17810D01*
Y28645D01*
D02*
G37*
G36*
X3301Y29064D02*
X3181Y29048D01*
X3069Y29002D01*
X2973Y28928D01*
X2899Y28832D01*
X2853Y28720D01*
X2837Y28600D01*
X2853Y28480D01*
X2899Y28368D01*
X2973Y28272D01*
X3069Y28198D01*
X3181Y28152D01*
X3301Y28136D01*
X3421Y28152D01*
X3533Y28198D01*
X3629Y28272D01*
X3703Y28368D01*
X3749Y28480D01*
X3765Y28600D01*
X3749Y28720D01*
X3703Y28832D01*
X3629Y28928D01*
X3533Y29002D01*
X3421Y29048D01*
X3301Y29064D01*
D02*
G37*
G36*
X18651Y23399D02*
X18548Y23385D01*
X18451Y23345D01*
X18369Y23282D01*
X18306Y23199D01*
X18266Y23103D01*
X18252Y23000D01*
X18266Y22897D01*
X18306Y22801D01*
X18369Y22718D01*
X18451Y22655D01*
X18548Y22615D01*
X18651Y22601D01*
X18754Y22615D01*
X18850Y22655D01*
X18933Y22718D01*
X18996Y22801D01*
X19036Y22897D01*
X19049Y23000D01*
X19036Y23103D01*
X18996Y23199D01*
X18933Y23282D01*
X18850Y23345D01*
X18754Y23385D01*
X18651Y23399D01*
D02*
G37*
G36*
X13501Y28203D02*
X13422Y28192D01*
X13349Y28162D01*
X13287Y28114D01*
X13239Y28051D01*
X13209Y27978D01*
X13198Y27900D01*
X13209Y27822D01*
X13239Y27749D01*
X13287Y27686D01*
X13349Y27638D01*
X13422Y27608D01*
X13501Y27597D01*
X13579Y27608D01*
X13652Y27638D01*
X13678Y27658D01*
X13687Y27662D01*
X13699Y27671D01*
X13708Y27677D01*
X13717Y27682D01*
X13726Y27686D01*
X13736Y27690D01*
X13747Y27693D01*
X13758Y27696D01*
X13769Y27697D01*
X13770Y27698D01*
X14193D01*
X14202Y27697D01*
X14209Y27696D01*
Y27579D01*
X14960D01*
Y28173D01*
X14209D01*
Y28056D01*
X14202Y28055D01*
X14193Y28054D01*
X13794D01*
X13792Y28055D01*
X13783Y28056D01*
X13775Y28059D01*
X13768Y28061D01*
X13762Y28065D01*
X13756Y28068D01*
X13751Y28073D01*
X13746Y28078D01*
X13737Y28088D01*
X13731Y28092D01*
X13715Y28114D01*
X13652Y28162D01*
X13579Y28192D01*
X13501Y28203D01*
D02*
G37*
G36*
X3251Y28057D02*
X3181Y28048D01*
X3069Y28002D01*
X2973Y27928D01*
X2899Y27832D01*
X2853Y27720D01*
X2843Y27650D01*
X3251D01*
Y28057D01*
D02*
G37*
G36*
X3351D02*
Y27650D01*
X3758D01*
X3749Y27720D01*
X3703Y27832D01*
X3629Y27928D01*
X3533Y28002D01*
X3421Y28048D01*
X3351Y28057D01*
D02*
G37*
G36*
X17651Y23399D02*
X17548Y23385D01*
X17451Y23345D01*
X17369Y23282D01*
X17306Y23199D01*
X17266Y23103D01*
X17252Y23000D01*
X17266Y22897D01*
X17306Y22801D01*
X17369Y22718D01*
X17451Y22655D01*
X17548Y22615D01*
X17651Y22601D01*
X17754Y22615D01*
X17850Y22655D01*
X17933Y22718D01*
X17996Y22801D01*
X18036Y22897D01*
X18049Y23000D01*
X18036Y23103D01*
X17996Y23199D01*
X17933Y23282D01*
X17850Y23345D01*
X17754Y23385D01*
X17651Y23399D01*
D02*
G37*
G36*
X12933Y26445D02*
X12241D01*
Y26213D01*
X9651D01*
X9588Y26201D01*
X9535Y26165D01*
X8796Y25425D01*
X8793Y25423D01*
X8786Y25419D01*
X8777Y25415D01*
X8768Y25411D01*
X8758Y25408D01*
X8747Y25405D01*
X8734Y25403D01*
X8720Y25402D01*
X8705Y25402D01*
X8701Y25403D01*
X8622Y25392D01*
X8549Y25362D01*
X8487Y25314D01*
X8439Y25251D01*
X8409Y25178D01*
X8398Y25100D01*
X8409Y25022D01*
X8439Y24949D01*
X8487Y24886D01*
X8549Y24838D01*
X8622Y24808D01*
X8701Y24797D01*
X8779Y24808D01*
X8852Y24838D01*
X8915Y24886D01*
X8963Y24949D01*
X8993Y25022D01*
X9003Y25100D01*
X9003Y25104D01*
X9003Y25119D01*
X9004Y25133D01*
X9006Y25146D01*
X9009Y25157D01*
X9012Y25168D01*
X9016Y25177D01*
X9020Y25185D01*
X9024Y25192D01*
X9026Y25195D01*
X9718Y25887D01*
X12241D01*
Y25655D01*
X12933D01*
Y26445D01*
D02*
G37*
%LPD*%
G36*
X13524Y22731D02*
X13516Y22727D01*
X13508Y22722D01*
X13502Y22715D01*
X13496Y22706D01*
X13492Y22695D01*
X13488Y22682D01*
X13486Y22667D01*
X13484Y22650D01*
X13484Y22630D01*
X13384D01*
X13383Y22650D01*
X13382Y22667D01*
X13379Y22682D01*
X13376Y22695D01*
X13371Y22706D01*
X13366Y22715D01*
X13359Y22722D01*
X13352Y22727D01*
X13343Y22731D01*
X13334Y22732D01*
X13534D01*
X13524Y22731D01*
D02*
G37*
G36*
X13408Y21836D02*
X13397Y21824D01*
X13387Y21810D01*
X13378Y21795D01*
X13371Y21779D01*
X13364Y21761D01*
X13359Y21742D01*
X13355Y21722D01*
X13353Y21700D01*
X13351Y21677D01*
X13351Y21652D01*
X13153Y21850D01*
X13177Y21850D01*
X13222Y21855D01*
X13243Y21859D01*
X13262Y21864D01*
X13280Y21870D01*
X13296Y21877D01*
X13311Y21886D01*
X13325Y21896D01*
X13337Y21907D01*
X13408Y21836D01*
D02*
G37*
G36*
X13008Y21510D02*
X12990Y21527D01*
X12956Y21556D01*
X12938Y21568D01*
X12921Y21577D01*
X12904Y21586D01*
X12887Y21592D01*
X12870Y21596D01*
X12854Y21599D01*
X12837Y21600D01*
Y21700D01*
X12854Y21701D01*
X12870Y21704D01*
X12887Y21708D01*
X12904Y21714D01*
X12921Y21723D01*
X12938Y21732D01*
X12956Y21744D01*
X12973Y21758D01*
X12990Y21773D01*
X13008Y21790D01*
Y21510D01*
D02*
G37*
G36*
X4674Y24840D02*
X4645Y24805D01*
X4633Y24787D01*
X4623Y24770D01*
X4615Y24753D01*
X4609Y24736D01*
X4604Y24720D01*
X4602Y24703D01*
X4601Y24686D01*
X4501D01*
X4500Y24703D01*
X4497Y24720D01*
X4493Y24736D01*
X4486Y24753D01*
X4478Y24770D01*
X4468Y24787D01*
X4457Y24805D01*
X4443Y24822D01*
X4428Y24840D01*
X4411Y24857D01*
X4691D01*
X4674Y24840D01*
D02*
G37*
G36*
X10001Y16376D02*
X10003Y16355D01*
X10006Y16335D01*
X10010Y16316D01*
X10016Y16298D01*
X10023Y16281D01*
X10031Y16265D01*
X10040Y16250D01*
X10051Y16236D01*
X10063Y16223D01*
X9978Y16138D01*
X9965Y16150D01*
X9951Y16161D01*
X9936Y16170D01*
X9920Y16178D01*
X9903Y16185D01*
X9885Y16191D01*
X9866Y16195D01*
X9846Y16198D01*
X9825Y16200D01*
X9803Y16200D01*
X10001Y16398D01*
X10001Y16376D01*
D02*
G37*
G36*
X11844Y15317D02*
X11843Y15329D01*
X11839Y15339D01*
X11833Y15348D01*
X11824Y15356D01*
X11813Y15362D01*
X11800Y15368D01*
X11784Y15372D01*
X11766Y15375D01*
X11746Y15377D01*
X11723Y15378D01*
Y15497D01*
X11746Y15498D01*
X11766Y15500D01*
X11784Y15503D01*
X11800Y15507D01*
X11813Y15512D01*
X11824Y15519D01*
X11833Y15527D01*
X11839Y15536D01*
X11843Y15546D01*
X11844Y15558D01*
Y15317D01*
D02*
G37*
G36*
X11843Y14025D02*
X11842Y14035D01*
X11839Y14043D01*
X11834Y14051D01*
X11827Y14057D01*
X11818Y14062D01*
X11807Y14067D01*
X11794Y14071D01*
X11779Y14073D01*
X11762Y14074D01*
X11743Y14075D01*
Y14175D01*
X11762Y14175D01*
X11779Y14177D01*
X11794Y14180D01*
X11807Y14183D01*
X11818Y14188D01*
X11827Y14193D01*
X11834Y14200D01*
X11839Y14207D01*
X11842Y14216D01*
X11843Y14225D01*
Y14025D01*
D02*
G37*
G36*
X9966Y14809D02*
X9970Y14764D01*
X9974Y14743D01*
X9979Y14724D01*
X9985Y14707D01*
X9993Y14690D01*
X10002Y14675D01*
X10011Y14661D01*
X10022Y14649D01*
X9952Y14578D01*
X9939Y14589D01*
X9926Y14599D01*
X9911Y14608D01*
X9894Y14615D01*
X9876Y14622D01*
X9857Y14627D01*
X9837Y14631D01*
X9815Y14634D01*
X9792Y14635D01*
X9767Y14635D01*
X9965Y14833D01*
X9966Y14809D01*
D02*
G37*
G36*
X26842Y16819D02*
X26870Y16802D01*
X26903Y16787D01*
X26941Y16774D01*
X26985Y16763D01*
X27033Y16754D01*
X27087Y16747D01*
X27209Y16740D01*
X27278Y16740D01*
X26833Y16294D01*
X26832Y16363D01*
X26825Y16486D01*
X26819Y16539D01*
X26810Y16588D01*
X26799Y16631D01*
X26786Y16669D01*
X26771Y16703D01*
X26753Y16731D01*
X26734Y16754D01*
X26819Y16839D01*
X26842Y16819D01*
D02*
G37*
G36*
X22413Y21336D02*
X22415Y21315D01*
X22418Y21295D01*
X22422Y21276D01*
X22427Y21258D01*
X22434Y21241D01*
X22442Y21225D01*
X22452Y21210D01*
X22463Y21196D01*
X22475Y21183D01*
X22390Y21098D01*
X22377Y21110D01*
X22363Y21121D01*
X22347Y21130D01*
X22331Y21138D01*
X22314Y21145D01*
X22296Y21151D01*
X22277Y21155D01*
X22257Y21158D01*
X22236Y21160D01*
X22214Y21160D01*
X22412Y21358D01*
X22413Y21336D01*
D02*
G37*
G36*
X11843Y12693D02*
X11841Y12704D01*
X11838Y12714D01*
X11832Y12723D01*
X11823Y12731D01*
X11813Y12737D01*
X11799Y12743D01*
X11784Y12747D01*
X11766Y12750D01*
X11745Y12752D01*
X11723Y12752D01*
Y12873D01*
X11745Y12873D01*
X11766Y12875D01*
X11784Y12878D01*
X11799Y12882D01*
X11813Y12888D01*
X11823Y12894D01*
X11832Y12902D01*
X11838Y12911D01*
X11841Y12921D01*
X11843Y12932D01*
Y12693D01*
D02*
G37*
G36*
X10001Y13276D02*
X10003Y13255D01*
X10006Y13235D01*
X10010Y13216D01*
X10016Y13198D01*
X10023Y13181D01*
X10031Y13165D01*
X10040Y13150D01*
X10051Y13136D01*
X10063Y13123D01*
X9978Y13038D01*
X9965Y13050D01*
X9951Y13061D01*
X9936Y13070D01*
X9920Y13078D01*
X9903Y13085D01*
X9885Y13091D01*
X9866Y13095D01*
X9846Y13098D01*
X9825Y13100D01*
X9803Y13100D01*
X10001Y13298D01*
X10001Y13276D01*
D02*
G37*
G36*
X6443Y20202D02*
X6425Y20185D01*
X6410Y20168D01*
X6396Y20152D01*
X6384Y20135D01*
X6374Y20118D01*
X6366Y20101D01*
X6359Y20085D01*
X6354Y20068D01*
X6352Y20051D01*
X6351Y20034D01*
X6251Y20039D01*
X6250Y20055D01*
X6247Y20072D01*
X6243Y20088D01*
X6237Y20105D01*
X6229Y20123D01*
X6219Y20140D01*
X6208Y20158D01*
X6195Y20176D01*
X6180Y20194D01*
X6163Y20213D01*
X6443Y20202D01*
D02*
G37*
G36*
X6352Y18847D02*
X6354Y18830D01*
X6359Y18814D01*
X6365Y18797D01*
X6373Y18780D01*
X6383Y18763D01*
X6395Y18745D01*
X6408Y18728D01*
X6424Y18710D01*
X6441Y18693D01*
X6161D01*
X6178Y18710D01*
X6207Y18745D01*
X6218Y18763D01*
X6228Y18780D01*
X6236Y18797D01*
X6243Y18814D01*
X6247Y18830D01*
X6250Y18847D01*
X6251Y18864D01*
X6351D01*
X6352Y18847D01*
D02*
G37*
G36*
X10901Y17176D02*
X10903Y17155D01*
X10906Y17135D01*
X10910Y17116D01*
X10916Y17098D01*
X10923Y17081D01*
X10931Y17065D01*
X10940Y17050D01*
X10951Y17036D01*
X10963Y17023D01*
X10878Y16938D01*
X10865Y16950D01*
X10851Y16961D01*
X10836Y16970D01*
X10820Y16978D01*
X10803Y16985D01*
X10785Y16991D01*
X10766Y16995D01*
X10746Y16998D01*
X10725Y17000D01*
X10703Y17000D01*
X10901Y17198D01*
X10901Y17176D01*
D02*
G37*
G36*
X11843Y16630D02*
X11841Y16641D01*
X11838Y16652D01*
X11832Y16661D01*
X11823Y16668D01*
X11813Y16675D01*
X11799Y16680D01*
X11784Y16685D01*
X11766Y16688D01*
X11745Y16689D01*
X11723Y16690D01*
Y16810D01*
X11745Y16811D01*
X11766Y16812D01*
X11784Y16815D01*
X11799Y16820D01*
X11813Y16825D01*
X11823Y16832D01*
X11832Y16839D01*
X11838Y16848D01*
X11841Y16859D01*
X11843Y16870D01*
Y16630D01*
D02*
G37*
G36*
X12295Y23150D02*
X12293Y23164D01*
X12288Y23177D01*
X12281Y23188D01*
X12270Y23198D01*
X12257Y23206D01*
X12240Y23213D01*
X12220Y23218D01*
X12198Y23222D01*
X12172Y23224D01*
X12143Y23225D01*
Y23375D01*
X12172Y23376D01*
X12198Y23378D01*
X12220Y23382D01*
X12240Y23387D01*
X12257Y23394D01*
X12270Y23402D01*
X12281Y23412D01*
X12288Y23423D01*
X12293Y23436D01*
X12295Y23450D01*
Y23150D01*
D02*
G37*
G36*
X11511Y23436D02*
X11515Y23423D01*
X11523Y23412D01*
X11533Y23402D01*
X11547Y23394D01*
X11563Y23387D01*
X11583Y23382D01*
X11605Y23378D01*
X11631Y23376D01*
X11659Y23375D01*
Y23225D01*
X11631Y23224D01*
X11605Y23222D01*
X11583Y23218D01*
X11563Y23213D01*
X11547Y23206D01*
X11533Y23198D01*
X11523Y23188D01*
X11515Y23177D01*
X11511Y23164D01*
X11509Y23150D01*
Y23450D01*
X11511Y23436D01*
D02*
G37*
G36*
X3137Y15898D02*
X3151Y15887D01*
X3166Y15878D01*
X3182Y15870D01*
X3199Y15863D01*
X3217Y15857D01*
X3236Y15853D01*
X3256Y15850D01*
X3277Y15848D01*
X3299Y15848D01*
X3101Y15650D01*
X3100Y15672D01*
X3099Y15693D01*
X3096Y15713D01*
X3091Y15732D01*
X3086Y15750D01*
X3079Y15767D01*
X3071Y15783D01*
X3061Y15798D01*
X3051Y15812D01*
X3039Y15825D01*
X3123Y15910D01*
X3137Y15898D01*
D02*
G37*
G36*
X5297Y27250D02*
X5247Y27250D01*
X5157Y27243D01*
X5118Y27238D01*
X5081Y27230D01*
X5048Y27221D01*
X5019Y27210D01*
X4993Y27197D01*
X4970Y27182D01*
X4951Y27165D01*
X4866Y27250D01*
X4883Y27269D01*
X4897Y27292D01*
X4910Y27318D01*
X4922Y27347D01*
X4931Y27380D01*
X4938Y27417D01*
X4944Y27457D01*
X4948Y27500D01*
X4951Y27596D01*
X5297Y27250D01*
D02*
G37*
G36*
X8859Y23425D02*
X8875Y23411D01*
X8892Y23399D01*
X8908Y23389D01*
X8925Y23380D01*
X8942Y23373D01*
X8959Y23367D01*
X8976Y23363D01*
X8994Y23361D01*
X9012Y23360D01*
Y23240D01*
X8994Y23239D01*
X8976Y23237D01*
X8959Y23233D01*
X8942Y23227D01*
X8925Y23220D01*
X8908Y23211D01*
X8892Y23201D01*
X8875Y23189D01*
X8859Y23175D01*
X8844Y23160D01*
Y23440D01*
X8859Y23425D01*
D02*
G37*
G36*
X10194Y23180D02*
X10193Y23191D01*
X10189Y23202D01*
X10183Y23211D01*
X10174Y23218D01*
X10163Y23225D01*
X10150Y23230D01*
X10134Y23235D01*
X10116Y23238D01*
X10096Y23239D01*
X10073Y23240D01*
Y23360D01*
X10096Y23361D01*
X10116Y23362D01*
X10134Y23365D01*
X10150Y23370D01*
X10163Y23375D01*
X10174Y23382D01*
X10183Y23389D01*
X10189Y23398D01*
X10193Y23409D01*
X10194Y23420D01*
Y23180D01*
D02*
G37*
G36*
X15592Y25480D02*
X15582Y25477D01*
X15573Y25471D01*
X15565Y25462D01*
X15559Y25451D01*
X15553Y25438D01*
X15549Y25422D01*
X15546Y25404D01*
X15544Y25383D01*
X15544Y25360D01*
X15424D01*
X15423Y25383D01*
X15421Y25404D01*
X15418Y25422D01*
X15414Y25438D01*
X15409Y25451D01*
X15402Y25462D01*
X15394Y25471D01*
X15385Y25477D01*
X15375Y25480D01*
X15364Y25482D01*
X15604D01*
X15592Y25480D01*
D02*
G37*
G36*
X15302Y25929D02*
X15317Y25917D01*
X15331Y25906D01*
X15345Y25897D01*
X15359Y25889D01*
X15373Y25882D01*
X15388Y25877D01*
X15402Y25873D01*
X15416Y25871D01*
X15430Y25870D01*
X15209Y25872D01*
X15210Y25872D01*
X15210Y25874D01*
X15207Y25878D01*
X15203Y25883D01*
X15191Y25897D01*
X15147Y25942D01*
X15288D01*
X15302Y25929D01*
D02*
G37*
G36*
X14345Y25900D02*
X14343Y25914D01*
X14338Y25927D01*
X14331Y25938D01*
X14320Y25948D01*
X14307Y25956D01*
X14290Y25963D01*
X14270Y25968D01*
X14248Y25972D01*
X14222Y25974D01*
X14193Y25975D01*
Y26125D01*
X14222Y26126D01*
X14248Y26128D01*
X14270Y26132D01*
X14290Y26137D01*
X14307Y26144D01*
X14320Y26152D01*
X14331Y26162D01*
X14338Y26173D01*
X14343Y26186D01*
X14345Y26200D01*
Y25900D01*
D02*
G37*
G36*
X13661Y26186D02*
X13665Y26173D01*
X13673Y26162D01*
X13683Y26152D01*
X13697Y26144D01*
X13713Y26137D01*
X13733Y26132D01*
X13755Y26128D01*
X13781Y26126D01*
X13809Y26125D01*
Y25975D01*
X13781Y25974D01*
X13755Y25972D01*
X13733Y25968D01*
X13713Y25963D01*
X13697Y25956D01*
X13683Y25948D01*
X13673Y25938D01*
X13665Y25927D01*
X13661Y25914D01*
X13659Y25900D01*
Y26200D01*
X13661Y26186D01*
D02*
G37*
G36*
X15383Y27307D02*
X15369Y27305D01*
X15354Y27301D01*
X15340Y27296D01*
X15326Y27289D01*
X15312Y27281D01*
X15298Y27272D01*
X15284Y27261D01*
X15269Y27249D01*
X15255Y27236D01*
X15114D01*
X15126Y27248D01*
X15176Y27304D01*
X15176Y27306D01*
X15397Y27308D01*
X15383Y27307D01*
D02*
G37*
G36*
X16394Y28150D02*
X16393Y28159D01*
X16390Y28168D01*
X16385Y28175D01*
X16378Y28182D01*
X16368Y28187D01*
X16357Y28192D01*
X16344Y28196D01*
X16329Y28198D01*
X16312Y28200D01*
X16293Y28200D01*
Y28300D01*
X16312Y28300D01*
X16329Y28302D01*
X16344Y28305D01*
X16357Y28308D01*
X16368Y28312D01*
X16378Y28318D01*
X16385Y28324D01*
X16390Y28332D01*
X16393Y28340D01*
X16394Y28350D01*
Y28150D01*
D02*
G37*
G36*
X15726Y28340D02*
X15729Y28332D01*
X15734Y28324D01*
X15741Y28318D01*
X15750Y28312D01*
X15761Y28308D01*
X15774Y28305D01*
X15789Y28302D01*
X15806Y28300D01*
X15825Y28300D01*
Y28200D01*
X15806Y28200D01*
X15789Y28198D01*
X15774Y28196D01*
X15761Y28192D01*
X15750Y28187D01*
X15741Y28182D01*
X15734Y28175D01*
X15729Y28168D01*
X15726Y28159D01*
X15725Y28150D01*
Y28350D01*
X15726Y28340D01*
D02*
G37*
G36*
X17340Y27957D02*
X17333Y27966D01*
X17324Y27971D01*
X17312Y27972D01*
X17298Y27969D01*
X17283Y27963D01*
X17264Y27952D01*
X17244Y27938D01*
X17222Y27919D01*
X17170Y27871D01*
X17134Y28005D01*
X17156Y28028D01*
X17191Y28069D01*
X17204Y28088D01*
X17214Y28105D01*
X17221Y28122D01*
X17225Y28137D01*
X17227Y28151D01*
X17225Y28163D01*
X17221Y28175D01*
X17340Y27957D01*
D02*
G37*
G36*
X16394Y26300D02*
X16392Y26314D01*
X16388Y26327D01*
X16380Y26338D01*
X16370Y26348D01*
X16356Y26356D01*
X16339Y26363D01*
X16320Y26368D01*
X16297Y26372D01*
X16271Y26374D01*
X16243Y26375D01*
Y26525D01*
X16271Y26526D01*
X16297Y26528D01*
X16320Y26532D01*
X16339Y26537D01*
X16356Y26544D01*
X16370Y26552D01*
X16380Y26562D01*
X16388Y26573D01*
X16392Y26586D01*
X16394Y26600D01*
Y26300D01*
D02*
G37*
G36*
X15760Y26586D02*
X15764Y26573D01*
X15772Y26562D01*
X15782Y26552D01*
X15796Y26544D01*
X15812Y26537D01*
X15832Y26532D01*
X15854Y26528D01*
X15880Y26526D01*
X15908Y26525D01*
Y26375D01*
X15880Y26374D01*
X15854Y26372D01*
X15832Y26368D01*
X15812Y26363D01*
X15796Y26356D01*
X15782Y26348D01*
X15772Y26338D01*
X15764Y26327D01*
X15760Y26314D01*
X15758Y26300D01*
Y26600D01*
X15760Y26586D01*
D02*
G37*
G36*
X17710Y26559D02*
X17714Y26548D01*
X17720Y26539D01*
X17728Y26532D01*
X17739Y26525D01*
X17752Y26520D01*
X17768Y26515D01*
X17786Y26512D01*
X17806Y26511D01*
X17829Y26510D01*
Y26390D01*
X17806Y26389D01*
X17786Y26388D01*
X17768Y26385D01*
X17752Y26380D01*
X17739Y26375D01*
X17728Y26368D01*
X17720Y26361D01*
X17714Y26352D01*
X17710Y26341D01*
X17709Y26330D01*
Y26570D01*
X17710Y26559D01*
D02*
G37*
G36*
X19023Y21287D02*
X19008Y21270D01*
X18995Y21251D01*
X18983Y21229D01*
X18973Y21204D01*
X18964Y21177D01*
X18957Y21147D01*
X18952Y21115D01*
X18948Y21080D01*
X18946Y21003D01*
X18654Y21295D01*
X18694Y21296D01*
X18766Y21301D01*
X18798Y21307D01*
X18828Y21313D01*
X18855Y21322D01*
X18879Y21332D01*
X18901Y21344D01*
X18921Y21357D01*
X18938Y21372D01*
X19023Y21287D01*
D02*
G37*
G36*
X17381Y22357D02*
X17400Y22344D01*
X17422Y22332D01*
X17447Y22322D01*
X17474Y22313D01*
X17504Y22307D01*
X17536Y22301D01*
X17571Y22298D01*
X17648Y22295D01*
X17356Y22003D01*
X17355Y22043D01*
X17349Y22115D01*
X17344Y22147D01*
X17337Y22177D01*
X17329Y22204D01*
X17319Y22229D01*
X17307Y22251D01*
X17294Y22270D01*
X17279Y22287D01*
X17364Y22372D01*
X17381Y22357D01*
D02*
G37*
G36*
X19041Y22255D02*
X19027Y22239D01*
X19014Y22221D01*
X19002Y22199D01*
X18991Y22174D01*
X18980Y22147D01*
X18971Y22117D01*
X18956Y22048D01*
X18950Y22009D01*
X18944Y21968D01*
X18689Y22293D01*
X18727Y22289D01*
X18762Y22287D01*
X18796Y22287D01*
X18827Y22290D01*
X18856Y22295D01*
X18882Y22301D01*
X18907Y22311D01*
X18929Y22322D01*
X18949Y22335D01*
X18967Y22351D01*
X19041Y22255D01*
D02*
G37*
G36*
X14311Y27726D02*
X14310Y27740D01*
X14305Y27753D01*
X14298Y27764D01*
X14287Y27774D01*
X14274Y27782D01*
X14257Y27789D01*
X14237Y27794D01*
X14215Y27798D01*
X14189Y27800D01*
X14160Y27801D01*
Y27951D01*
X14189Y27952D01*
X14215Y27954D01*
X14237Y27958D01*
X14257Y27963D01*
X14274Y27970D01*
X14287Y27978D01*
X14298Y27988D01*
X14305Y27999D01*
X14310Y28012D01*
X14311Y28026D01*
Y27726D01*
D02*
G37*
G36*
X13671Y28008D02*
X13683Y27996D01*
X13696Y27986D01*
X13710Y27976D01*
X13725Y27969D01*
X13741Y27962D01*
X13758Y27957D01*
X13776Y27954D01*
X13795Y27952D01*
X13814Y27951D01*
X13795Y27801D01*
X13775Y27800D01*
X13757Y27799D01*
X13738Y27796D01*
X13721Y27792D01*
X13704Y27787D01*
X13687Y27780D01*
X13671Y27773D01*
X13655Y27764D01*
X13640Y27755D01*
X13626Y27744D01*
X13659Y28022D01*
X13671Y28008D01*
D02*
G37*
G36*
X12344Y25930D02*
X12343Y25941D01*
X12339Y25952D01*
X12333Y25961D01*
X12324Y25968D01*
X12313Y25975D01*
X12300Y25980D01*
X12284Y25985D01*
X12266Y25988D01*
X12246Y25989D01*
X12223Y25990D01*
Y26110D01*
X12246Y26111D01*
X12266Y26112D01*
X12284Y26115D01*
X12300Y26120D01*
X12313Y26125D01*
X12324Y26132D01*
X12333Y26139D01*
X12339Y26148D01*
X12343Y26159D01*
X12344Y26170D01*
Y25930D01*
D02*
G37*
G36*
X8963Y25277D02*
X8951Y25264D01*
X8940Y25250D01*
X8931Y25235D01*
X8923Y25219D01*
X8916Y25202D01*
X8910Y25184D01*
X8906Y25165D01*
X8903Y25145D01*
X8901Y25124D01*
X8901Y25102D01*
X8703Y25300D01*
X8725Y25300D01*
X8746Y25302D01*
X8766Y25305D01*
X8785Y25309D01*
X8803Y25315D01*
X8820Y25322D01*
X8836Y25330D01*
X8851Y25339D01*
X8865Y25350D01*
X8878Y25362D01*
X8963Y25277D01*
D02*
G37*
D12*
X14330Y19000D02*
D03*
X12271D02*
D03*
D15*
X-7899Y5990D02*
Y9100D01*
X14330Y19000D02*
X17651D01*
X7935Y4094D02*
Y16135D01*
X10801Y19000D01*
X12271D01*
D16*
X-3800Y16700D02*
X-1660Y18840D01*
X-9949Y16700D02*
X-3800D01*
X-12200Y18951D02*
X-9949Y16700D01*
X-1660Y18840D02*
Y19500D01*
X-12200Y18951D02*
Y19050D01*
X10288Y12812D02*
X12087D01*
X9801Y13300D02*
X10288Y12812D01*
X10287Y11686D02*
X10472Y11500D01*
X12087D01*
X10763Y15438D02*
X12087D01*
X9801Y16400D02*
X10763Y15438D01*
X11151Y16750D02*
X12087D01*
X10701Y17200D02*
X11151Y16750D01*
X12587Y24520D02*
Y24700D01*
X8701Y23300D02*
X10437D01*
X9651Y26050D02*
X12587D01*
X8701Y25100D02*
X9651Y26050D01*
X12914Y14125D02*
X17289Y18500D01*
X18151D01*
X18651Y19000D01*
X13414Y24700D02*
X14301D01*
X15101Y23900D01*
Y21600D02*
Y23900D01*
Y21600D02*
X15701Y21000D01*
X17651D01*
X17051Y25950D02*
Y27837D01*
X17464Y28250D01*
X18651Y21000D02*
X19961Y22310D01*
X18651Y22000D02*
X18701D01*
X22212Y21360D02*
X27283Y16290D01*
X24733Y12490D02*
Y15548D01*
X19921Y20360D02*
X24733Y15548D01*
X19921Y20360D02*
Y20380D01*
X15484Y24167D02*
X17651Y22000D01*
X15484Y24167D02*
Y25676D01*
X14605Y20800D02*
X15905Y19500D01*
X18151D01*
X18651Y19000D01*
X2651Y16298D02*
X3301Y15648D01*
X2651Y16298D02*
Y24950D01*
X5301Y27600D01*
X17051Y25950D02*
X19283Y23718D01*
X17464Y26450D02*
X19254D01*
X19961Y25744D01*
Y22310D02*
Y25744D01*
X18701Y22000D02*
X19283Y22582D01*
Y23718D01*
X5604Y1794D02*
X5347D01*
X5261Y1822D01*
X5232Y1851D01*
X5204Y1908D01*
Y1994D01*
X5232Y2051D01*
X5261Y2080D01*
X5347Y2108D01*
X5604D01*
Y1508D01*
X4641Y1965D02*
X4670Y2022D01*
X4727Y2080D01*
X4784Y2108D01*
X4898D01*
X4955Y2080D01*
X5012Y2022D01*
X5041Y1965D01*
X5070Y1880D01*
Y1737D01*
X5041Y1651D01*
X5012Y1594D01*
X4955Y1537D01*
X4898Y1508D01*
X4784D01*
X4727Y1537D01*
X4670Y1594D01*
X4641Y1651D01*
X4473Y2108D02*
Y1508D01*
Y2108D02*
X4216D01*
X4130Y2080D01*
X4101Y2051D01*
X4073Y1994D01*
Y1937D01*
X4101Y1880D01*
X4130Y1851D01*
X4216Y1822D01*
X4473D02*
X4216D01*
X4130Y1794D01*
X4101Y1765D01*
X4073Y1708D01*
Y1622D01*
X4101Y1565D01*
X4130Y1537D01*
X4216Y1508D01*
X4473D01*
X3938Y1994D02*
X3881Y2022D01*
X3796Y2108D01*
Y1508D01*
X3327Y2108D02*
X3413Y2080D01*
X3470Y1994D01*
X3499Y1851D01*
Y1765D01*
X3470Y1622D01*
X3413Y1537D01*
X3327Y1508D01*
X3270D01*
X3184Y1537D01*
X3127Y1622D01*
X3099Y1765D01*
Y1851D01*
X3127Y1994D01*
X3184Y2080D01*
X3270Y2108D01*
X3327D01*
X2936Y1965D02*
Y1994D01*
X2907Y2051D01*
X2879Y2080D01*
X2822Y2108D01*
X2707D01*
X2650Y2080D01*
X2622Y2051D01*
X2593Y1994D01*
Y1937D01*
X2622Y1880D01*
X2679Y1794D01*
X2964Y1508D01*
X2564D01*
X2030Y2108D02*
X2316Y1508D01*
X2430Y2108D02*
X2030D01*
X1896Y1994D02*
X1839Y2022D01*
X1753Y2108D01*
Y1508D01*
X1456Y1994D02*
X1399Y2022D01*
X1313Y2108D01*
Y1508D01*
X6047Y1100D02*
Y500D01*
Y1100D02*
X5789D01*
X5704Y1072D01*
X5675Y1043D01*
X5647Y986D01*
Y929D01*
X5675Y872D01*
X5704Y843D01*
X5789Y815D01*
X6047D01*
X5847D02*
X5647Y500D01*
X5141Y1100D02*
X5512D01*
Y500D01*
X5141D01*
X5512Y815D02*
X5284D01*
X5041Y1100D02*
X4813Y500D01*
X4584Y1100D02*
X4813Y500D01*
X3607Y957D02*
X3636Y1015D01*
X3693Y1072D01*
X3750Y1100D01*
X3864D01*
X3921Y1072D01*
X3978Y1015D01*
X4007Y957D01*
X4036Y872D01*
Y729D01*
X4007Y643D01*
X3978Y586D01*
X3921Y529D01*
X3864Y500D01*
X3750D01*
X3693Y529D01*
X3636Y586D01*
X3607Y643D01*
X3267Y1100D02*
X3353Y1072D01*
X3410Y986D01*
X3439Y843D01*
Y757D01*
X3410Y615D01*
X3353Y529D01*
X3267Y500D01*
X3210D01*
X3124Y529D01*
X3067Y615D01*
X3039Y757D01*
Y843D01*
X3067Y986D01*
X3124Y1072D01*
X3210Y1100D01*
X3267D01*
X2433D02*
Y500D01*
Y1100D02*
X2233D01*
X2147Y1072D01*
X2090Y1015D01*
X2062Y957D01*
X2033Y872D01*
Y729D01*
X2062Y643D01*
X2090Y586D01*
X2147Y529D01*
X2233Y500D01*
X2433D01*
X1899Y1100D02*
Y500D01*
Y1100D02*
X1670Y500D01*
X1442Y1100D02*
X1670Y500D01*
X1442Y1100D02*
Y500D01*
X1270Y1100D02*
Y500D01*
X870Y1100D02*
Y500D01*
X1270Y815D02*
X870D01*
D17*
X-2399Y18929D02*
Y20511D01*
X-3728Y17600D02*
X-2399Y18929D01*
X-9849Y17600D02*
X-3728D01*
X-22649Y25250D02*
X-22149Y24750D01*
X-16638D01*
X-16300Y25088D01*
X-2399Y20511D02*
X-1660Y21250D01*
X-6193Y20517D02*
X-5176Y19500D01*
X-12350Y20517D02*
X-6193D01*
X-26149Y21750D02*
X-22649Y25250D01*
X-26149Y15700D02*
Y21750D01*
X-22649Y26250D02*
X-21949Y26950D01*
X-19549D01*
X-24259Y32390D02*
X-23439D01*
X-22649Y31600D01*
Y26250D02*
Y31600D01*
X-4349Y23000D02*
X-3038D01*
X-4349Y24750D02*
X-3038D01*
X-4349Y21250D02*
X-3038D01*
X-4349Y19500D02*
X-3038D01*
X11264Y23300D02*
X12568D01*
X12587Y24520D02*
X13434Y23674D01*
X13414Y26050D02*
X14618D01*
X15484Y26424D02*
X15510Y26450D01*
X16637D01*
X13501Y27900D02*
X13525Y27876D01*
X14585D01*
X12914Y15438D02*
X13701Y16224D01*
Y21400D01*
X14501Y22200D01*
X18651Y20000D02*
X20801Y22150D01*
Y28900D01*
X10377Y30276D02*
X11327Y31226D01*
X12538D01*
X13463Y31600D02*
X18101D01*
X20801Y28900D01*
X11375Y31974D02*
X12538D01*
X10001Y30600D02*
X11375Y31974D01*
X1301Y28600D02*
Y29200D01*
X2701Y30600D01*
X10001D01*
X2301Y28600D02*
Y29200D01*
X3377Y30276D01*
X10377D01*
X14501Y22200D02*
Y23400D01*
D18*
X2935Y4094D02*
Y11565D01*
X2921Y11580D02*
X2935Y11565D01*
D19*
X10476Y14125D02*
X12087D01*
X9765Y14835D02*
X10476Y14125D01*
X9765Y14835D02*
Y14835D01*
X15451Y28250D02*
X16637D01*
X23733Y12490D02*
Y15188D01*
X17651Y21000D02*
X18161Y20490D01*
X15051Y27102D02*
X15451Y27502D01*
X15051Y26109D02*
Y27102D01*
Y26109D02*
X15484Y25676D01*
X13434Y21933D02*
Y22926D01*
X13151Y21650D02*
X13434Y21933D01*
X18161Y19811D02*
Y20490D01*
Y19811D02*
X18472Y19500D01*
X19421D01*
X23733Y15188D01*
X6351Y21650D02*
X13151D01*
X4551Y23450D02*
X6351Y21650D01*
X4551Y23450D02*
Y25000D01*
X6301Y20342D02*
X6309Y20350D01*
X6301Y18550D02*
Y20342D01*
D20*
X-21649Y22250D02*
X-21499Y22100D01*
X-7299D01*
X-21649Y25250D02*
X-21169Y25730D01*
X-1529D01*
X-7299Y22100D02*
X-2799D01*
X-1529Y25730D02*
X-1049Y25250D01*
Y23611D02*
Y25250D01*
X-1660Y23000D02*
X-1049Y23611D01*
X-2799Y22100D02*
X-2349Y22550D01*
Y24061D01*
X-1660Y24750D01*
D21*
X-22649Y19250D02*
D03*
Y20250D02*
D03*
X-21649D02*
D03*
X-22649Y21250D02*
D03*
X-21649D02*
D03*
X-22649Y22250D02*
D03*
X-21649D02*
D03*
X-22649Y23250D02*
D03*
X-21649D02*
D03*
X-22649Y24250D02*
D03*
X-21649D02*
D03*
X-22649Y25250D02*
D03*
X-21649D02*
D03*
X-22649Y26250D02*
D03*
X-21649D02*
D03*
D22*
Y19250D02*
D03*
D23*
X-25259Y31390D02*
D03*
X-24259D02*
D03*
Y32390D02*
D03*
X-25259D02*
D03*
X-26259D02*
D03*
Y31390D02*
D03*
X-26149Y15700D02*
D03*
X-25149D02*
D03*
D24*
X-2899Y5990D02*
D03*
X-7899D02*
D03*
D25*
X16151Y30117D02*
D03*
X32151D02*
D03*
Y10617D02*
D03*
X16151D02*
D03*
D26*
X1351Y32000D02*
D03*
X3101D02*
D03*
D27*
X2935Y4094D02*
D03*
X7935D02*
D03*
D28*
X18651Y23000D02*
D03*
X17651D02*
D03*
X18651Y22000D02*
D03*
X17651D02*
D03*
X18651Y21000D02*
D03*
X17651D02*
D03*
X18651Y20000D02*
D03*
X17651D02*
D03*
X18651Y19000D02*
D03*
X17651D02*
D03*
X18651Y18000D02*
D03*
X17651D02*
D03*
X18651Y17000D02*
D03*
X17651D02*
D03*
X18651Y16000D02*
D03*
D29*
X17651D02*
D03*
D30*
X27033Y24790D02*
D03*
Y25790D02*
D03*
X26033D02*
D03*
X25033D02*
D03*
Y24790D02*
D03*
X26033D02*
D03*
X27283Y16290D02*
D03*
Y15290D02*
D03*
X24733Y12490D02*
D03*
X23733D02*
D03*
D31*
X3301Y28600D02*
D03*
Y27600D02*
D03*
X2301Y28600D02*
D03*
Y27600D02*
D03*
X1301Y28600D02*
D03*
Y27600D02*
D03*
D32*
X5301Y28600D02*
D03*
Y27600D02*
D03*
D33*
X-5555Y17132D02*
D03*
X-4743Y18410D02*
D03*
D34*
X-12200Y19050D02*
D03*
X-16300Y25088D02*
D03*
X-9849Y17600D02*
D03*
X-12350Y20517D02*
D03*
X-7299Y22100D02*
D03*
D35*
X-12199Y17100D02*
D03*
X-19549Y26950D02*
D03*
X9801Y13300D02*
D03*
X10287Y11686D02*
D03*
X9765Y14835D02*
D03*
X9801Y16400D02*
D03*
X10701Y17200D02*
D03*
X8701Y23300D02*
D03*
Y25100D02*
D03*
X13501Y27900D02*
D03*
X14501Y23400D02*
D03*
X22212Y21360D02*
D03*
X19921Y20380D02*
D03*
X13151Y21650D02*
D03*
X14605Y20800D02*
D03*
X3301Y15648D02*
D03*
X4551Y25000D02*
D03*
X18974Y13223D02*
D03*
X32751Y13514D02*
D03*
X32828Y27978D02*
D03*
X22501Y29383D02*
D03*
X18472D02*
D03*
X8734Y19000D02*
D03*
X7351Y24167D02*
D03*
X2175Y23630D02*
D03*
X9551Y28368D02*
D03*
X19151Y25744D02*
D03*
X16738Y24600D02*
D03*
X16301Y27300D02*
D03*
X1600Y12450D02*
D03*
X8850Y12500D02*
D03*
X6801Y17050D02*
D03*
X12922Y17800D02*
D03*
X6309Y20350D02*
D03*
X6301Y18550D02*
D03*
X-31430Y24100D02*
D03*
X-30399Y14750D02*
D03*
X-16899Y17200D02*
D03*
X-12899Y24050D02*
D03*
X-10826Y16850D02*
D03*
X-9999Y12850D02*
D03*
X-2399Y10950D02*
D03*
X-9673Y9630D02*
D03*
X-4169Y28450D02*
D03*
X-29499Y29900D02*
D03*
X-21418Y30100D02*
D03*
X-21804Y17081D02*
D03*
X-19411Y12750D02*
D03*
X-3649Y20380D02*
D03*
Y23880D02*
D03*
X-11399Y30114D02*
D03*
X-23126Y27400D02*
D03*
D36*
X-5176Y19500D02*
D03*
X-4349D02*
D03*
X-5176Y21250D02*
D03*
X-4349D02*
D03*
X-5176Y23000D02*
D03*
X-4349D02*
D03*
X-5176Y24750D02*
D03*
X-4349D02*
D03*
X12587Y24700D02*
D03*
X13414D02*
D03*
X10437Y23300D02*
D03*
X11264D02*
D03*
X12587Y26050D02*
D03*
X13414D02*
D03*
X16637Y26450D02*
D03*
X17464D02*
D03*
X12914Y16750D02*
D03*
X12087D02*
D03*
X12914Y12812D02*
D03*
X12087D02*
D03*
X16637Y28250D02*
D03*
X17464D02*
D03*
X12914Y14125D02*
D03*
X12087D02*
D03*
X12914Y11500D02*
D03*
X12087D02*
D03*
Y15438D02*
D03*
X12914D02*
D03*
D37*
X-1660Y19500D02*
D03*
X-3038D02*
D03*
X-1660Y21250D02*
D03*
X-3038D02*
D03*
X-1660Y23000D02*
D03*
X-3038D02*
D03*
X-1660Y24750D02*
D03*
X-3038D02*
D03*
D38*
X12568Y23300D02*
D03*
X13434Y22926D02*
D03*
Y23674D02*
D03*
X14585Y27876D02*
D03*
X15451Y27502D02*
D03*
Y28250D02*
D03*
X14618Y26050D02*
D03*
X15484Y25676D02*
D03*
Y26424D02*
D03*
D39*
X13463Y31600D02*
D03*
X12538Y31974D02*
D03*
Y31226D02*
D03*
D40*
X-1660Y23000D02*
X-999Y22339D01*
Y20161D02*
Y22339D01*
X-1660Y19500D02*
X-999Y20161D01*
M02*
