G04 Layer_Color=128*
%FSLAX24Y24*%
%MOIN*%
G70*
G01*
G75*
%ADD12R,0.0701X0.1240*%
%ADD36R,0.0492X0.0591*%
%ADD37R,0.0591X0.0591*%
%ADD38R,0.0551X0.0394*%
%ADD39R,0.0571X0.0236*%
D12*
X14330Y19000D02*
D03*
X12271D02*
D03*
D36*
X-5176Y19500D02*
D03*
X-4349D02*
D03*
X-5176Y21250D02*
D03*
X-4349D02*
D03*
X-5176Y23000D02*
D03*
X-4349D02*
D03*
X-5176Y24750D02*
D03*
X-4349D02*
D03*
X12587Y24700D02*
D03*
X13414D02*
D03*
X10437Y23300D02*
D03*
X11264D02*
D03*
X12587Y26050D02*
D03*
X13414D02*
D03*
X16637Y26450D02*
D03*
X17464D02*
D03*
X12914Y16750D02*
D03*
X12087D02*
D03*
X12914Y12812D02*
D03*
X12087D02*
D03*
X16637Y28250D02*
D03*
X17464D02*
D03*
X12914Y14125D02*
D03*
X12087D02*
D03*
X12914Y11500D02*
D03*
X12087D02*
D03*
Y15438D02*
D03*
X12914D02*
D03*
D37*
X-1660Y19500D02*
D03*
X-3038D02*
D03*
X-1660Y21250D02*
D03*
X-3038D02*
D03*
X-1660Y23000D02*
D03*
X-3038D02*
D03*
X-1660Y24750D02*
D03*
X-3038D02*
D03*
D38*
X12568Y23300D02*
D03*
X13434Y22926D02*
D03*
Y23674D02*
D03*
X14585Y27876D02*
D03*
X15451Y27502D02*
D03*
Y28250D02*
D03*
X14618Y26050D02*
D03*
X15484Y25676D02*
D03*
Y26424D02*
D03*
D39*
X13463Y31600D02*
D03*
X12538Y31974D02*
D03*
Y31226D02*
D03*
M02*
