G04 Layer_Color=65535*
%FSLAX24Y24*%
%MOIN*%
G70*
G01*
G75*
%ADD16C,0.0120*%
%ADD19C,0.0100*%
%ADD41C,0.0098*%
%ADD42C,0.0040*%
%ADD43C,0.0079*%
%ADD44C,0.0080*%
%ADD45C,0.0059*%
%ADD46C,0.0070*%
G36*
X1680Y25255D02*
X1705Y25252D01*
X1737Y25245D01*
X1765Y25235D01*
X1797Y25220D01*
X1825Y25203D01*
X1857Y25180D01*
X1883Y25152D01*
X1902Y25130D01*
X1925Y25095D01*
X1943Y25055D01*
X1955Y25013D01*
X1963Y24970D01*
X1960Y24922D01*
X1957Y24887D01*
X1842Y24465D01*
X1832Y24437D01*
X1817Y24410D01*
X1797Y24375D01*
X1772Y24345D01*
X1743Y24320D01*
X1717Y24300D01*
X1695Y24285D01*
X1667Y24275D01*
X1630Y24260D01*
X1587Y24253D01*
X1565Y24250D01*
X695D01*
X965Y25257D01*
X1650D01*
X1680Y25255D01*
D02*
G37*
G36*
X2803Y24250D02*
X1940D01*
X1998Y24460D01*
X2860D01*
X2803Y24250D01*
D02*
G37*
G36*
X6205Y25310D02*
X6209Y25309D01*
X6213Y25309D01*
X6218Y25308D01*
X6223Y25307D01*
X6227Y25306D01*
X6227D01*
X6227Y25306D01*
X6228Y25305D01*
X6230Y25304D01*
X6233Y25303D01*
X6235Y25301D01*
X6238Y25299D01*
X6241Y25296D01*
X6243Y25292D01*
X6243Y25292D01*
X6244Y25290D01*
X6245Y25288D01*
X6246Y25285D01*
X6248Y25282D01*
X6249Y25278D01*
X6249Y25273D01*
X6250Y25268D01*
Y25268D01*
Y25267D01*
Y25266D01*
X6249Y25264D01*
X6249Y25263D01*
X6249Y25261D01*
X6249Y25258D01*
X6248Y25256D01*
X6247Y25251D01*
X6245Y25245D01*
X6243Y25242D01*
X6242Y25239D01*
X6239Y25237D01*
X6237Y25234D01*
X6237Y25234D01*
X6237Y25234D01*
X6236Y25233D01*
X6235Y25232D01*
X6234Y25231D01*
X6232Y25230D01*
X6230Y25229D01*
X6228Y25227D01*
X6226Y25226D01*
X6223Y25224D01*
X6220Y25223D01*
X6217Y25222D01*
X6213Y25221D01*
X6209Y25220D01*
X6205Y25219D01*
X6200Y25218D01*
X6201Y25218D01*
X6202Y25217D01*
X6203Y25216D01*
X6204Y25214D01*
X6206Y25212D01*
X6208Y25209D01*
X6210Y25206D01*
X6212Y25203D01*
X6212Y25203D01*
X6213Y25202D01*
X6213Y25201D01*
X6214Y25200D01*
X6215Y25198D01*
X6216Y25195D01*
X6218Y25193D01*
X6219Y25189D01*
X6221Y25186D01*
X6223Y25182D01*
X6225Y25178D01*
X6227Y25173D01*
X6230Y25168D01*
X6232Y25162D01*
X6234Y25156D01*
X6237Y25150D01*
X6202D01*
Y25150D01*
X6201Y25151D01*
X6201Y25151D01*
X6201Y25153D01*
X6200Y25154D01*
X6199Y25156D01*
X6199Y25158D01*
X6198Y25160D01*
X6197Y25163D01*
X6196Y25166D01*
X6194Y25170D01*
X6193Y25173D01*
X6191Y25178D01*
X6189Y25182D01*
X6187Y25187D01*
X6185Y25192D01*
Y25192D01*
X6184Y25193D01*
X6184Y25194D01*
X6184Y25195D01*
X6182Y25197D01*
X6180Y25200D01*
X6178Y25204D01*
X6176Y25207D01*
X6173Y25211D01*
X6172Y25212D01*
X6170Y25213D01*
X6170Y25213D01*
X6169Y25213D01*
X6168Y25214D01*
X6167Y25215D01*
X6164Y25215D01*
X6162Y25216D01*
X6158Y25216D01*
X6154Y25216D01*
X6141D01*
X6127Y25150D01*
X6094D01*
X6128Y25310D01*
X6203D01*
X6205Y25310D01*
D02*
G37*
G36*
X4342Y24457D02*
X4285Y24248D01*
X3455D01*
X3512Y24460D01*
X4342Y24457D01*
D02*
G37*
G36*
X4500Y25048D02*
X3455D01*
X3240Y24250D01*
X3033D01*
X3245Y25048D01*
X2155D01*
X2210Y25257D01*
X4555D01*
X4500Y25048D01*
D02*
G37*
G36*
X4392Y24648D02*
X3562D01*
X3620Y24857D01*
X4448D01*
X4392Y24648D01*
D02*
G37*
G36*
X5247Y24722D02*
X5602Y24250D01*
X5340D01*
X5085Y24592D01*
X4655Y24250D01*
X4320D01*
X4960Y24760D01*
X4590Y25257D01*
X4852D01*
X5125Y24890D01*
X5585Y25257D01*
X5920D01*
X5247Y24722D01*
D02*
G37*
G36*
X2910Y24648D02*
X2048D01*
X2105Y24857D01*
X2968D01*
X2910Y24648D01*
D02*
G37*
%LPC*%
G36*
X1128Y25053D02*
X965Y24444D01*
X970Y24460D01*
X1560D01*
X1585Y24465D01*
X1595Y24470D01*
X1610Y24480D01*
X1622Y24492D01*
X1632Y24505D01*
X1643Y24525D01*
X1650Y24550D01*
X1752Y24965D01*
X1750Y24978D01*
X1745Y24987D01*
X1737Y25000D01*
X1723Y25015D01*
X1713Y25027D01*
X1685Y25043D01*
X1670Y25048D01*
X1650Y25050D01*
X1128Y25048D01*
X1128Y25053D01*
D02*
G37*
G36*
X6196Y25283D02*
X6155D01*
X6146Y25240D01*
X6170D01*
X6172Y25240D01*
X6178Y25241D01*
X6183Y25241D01*
X6189Y25242D01*
X6192Y25242D01*
X6194Y25242D01*
X6196Y25243D01*
X6198Y25243D01*
X6199Y25243D01*
X6199Y25244D01*
X6201Y25245D01*
X6203Y25246D01*
X6205Y25247D01*
X6208Y25249D01*
X6210Y25251D01*
X6212Y25253D01*
X6212Y25253D01*
X6212Y25254D01*
X6213Y25256D01*
X6214Y25257D01*
X6215Y25260D01*
X6216Y25262D01*
X6217Y25265D01*
X6217Y25267D01*
Y25268D01*
Y25269D01*
X6216Y25270D01*
X6216Y25272D01*
X6215Y25274D01*
X6214Y25276D01*
X6212Y25279D01*
X6210Y25280D01*
X6209Y25281D01*
X6209Y25281D01*
X6208Y25281D01*
X6206Y25282D01*
X6203Y25282D01*
X6200Y25283D01*
X6196Y25283D01*
D02*
G37*
%LPD*%
D16*
X2935Y6774D02*
G03*
X2935Y1424I-7J-2675D01*
G01*
X7885D02*
G03*
X7885Y6774I17J2675D01*
G01*
X2935Y1424D02*
X7885D01*
X2935Y6774D02*
X7885D01*
X-7899Y2581D02*
X-8542D01*
X-2681Y2903D02*
Y2260D01*
X-2359Y2581D02*
X-3002D01*
X-28549Y31600D02*
Y31100D01*
X-28087Y31481D02*
X-28111Y31528D01*
X-28159Y31576D01*
X-28206Y31600D01*
X-28302D01*
X-28349Y31576D01*
X-28397Y31528D01*
X-28421Y31481D01*
X-28444Y31409D01*
Y31290D01*
X-28421Y31219D01*
X-28397Y31171D01*
X-28349Y31124D01*
X-28302Y31100D01*
X-28206D01*
X-28159Y31124D01*
X-28111Y31171D01*
X-28087Y31219D01*
X-27614Y31528D02*
X-27661Y31576D01*
X-27733Y31600D01*
X-27828D01*
X-27899Y31576D01*
X-27947Y31528D01*
Y31481D01*
X-27923Y31433D01*
X-27899Y31409D01*
X-27852Y31386D01*
X-27709Y31338D01*
X-27661Y31314D01*
X-27638Y31290D01*
X-27614Y31243D01*
Y31171D01*
X-27661Y31124D01*
X-27733Y31100D01*
X-27828D01*
X-27899Y31124D01*
X-27947Y31171D01*
X-27502Y31338D02*
X-27288D01*
X-27216Y31362D01*
X-27192Y31386D01*
X-27169Y31433D01*
Y31505D01*
X-27192Y31552D01*
X-27216Y31576D01*
X-27288Y31600D01*
X-27502D01*
Y31100D01*
X-27099Y30505D02*
X-27052Y30528D01*
X-26980Y30600D01*
Y30100D01*
X3375Y683D02*
X2733D01*
X8004Y362D02*
Y1004D01*
X8325Y683D02*
X7683D01*
D19*
X-21149Y18750D02*
Y26750D01*
X-23149Y18750D02*
X-21149D01*
X-23149D02*
Y26750D01*
X-21149D01*
X2301Y29100D02*
Y29600D01*
X1301D02*
X2301D01*
X1301Y29100D02*
Y29600D01*
X1801D02*
Y29973D01*
X-12933Y11750D02*
X-13199D01*
Y11550D01*
X-13066D01*
X-13199D01*
Y11350D01*
X-12799D02*
X-12666D01*
X-12733D01*
Y11750D01*
X-12799Y11683D01*
X634Y6850D02*
X517D01*
X576D01*
Y6558D01*
X517Y6500D01*
X459D01*
X401Y6558D01*
X984Y6850D02*
X751D01*
Y6675D01*
X867Y6733D01*
X926D01*
X984Y6675D01*
Y6558D01*
X926Y6500D01*
X809D01*
X751Y6558D01*
X3327Y29680D02*
X3194D01*
X3261D01*
Y29347D01*
X3194Y29280D01*
X3127D01*
X3061Y29347D01*
X3727Y29280D02*
X3461D01*
X3727Y29547D01*
Y29613D01*
X3661Y29680D01*
X3527D01*
X3461Y29613D01*
X5282Y26942D02*
X5149D01*
X5216D01*
Y26609D01*
X5149Y26542D01*
X5082D01*
X5016Y26609D01*
X5616Y26542D02*
Y26942D01*
X5416Y26742D01*
X5682D01*
X2371Y21380D02*
X2204D01*
X2121Y21297D01*
Y20963D01*
X2204Y20880D01*
X2371D01*
X2454Y20963D01*
Y21297D01*
X2371Y21380D01*
X2621D02*
Y20880D01*
Y21047D01*
X2954Y21380D01*
X2704Y21130D01*
X2954Y20880D01*
X3454Y21297D02*
X3370Y21380D01*
X3204D01*
X3120Y21297D01*
Y20963D01*
X3204Y20880D01*
X3370D01*
X3454Y20963D01*
X6422Y26664D02*
X6189D01*
X6072Y26781D01*
X6189Y26897D01*
X6422D01*
X6247D01*
Y26664D01*
X6130Y27247D02*
X6072Y27189D01*
Y27072D01*
X6130Y27014D01*
X6364D01*
X6422Y27072D01*
Y27189D01*
X6364Y27247D01*
X6422Y27714D02*
X6072D01*
Y27889D01*
X6130Y27947D01*
X6247D01*
X6305Y27889D01*
Y27714D01*
X6072Y28239D02*
Y28122D01*
X6130Y28064D01*
X6364D01*
X6422Y28122D01*
Y28239D01*
X6364Y28297D01*
X6130D01*
X6072Y28239D01*
Y28414D02*
X6422D01*
X6305Y28530D01*
X6422Y28647D01*
X6072D01*
Y28997D02*
Y28763D01*
X6422D01*
Y28997D01*
X6247Y28763D02*
Y28880D01*
X6422Y29113D02*
X6072D01*
Y29288D01*
X6130Y29347D01*
X6247D01*
X6305Y29288D01*
Y29113D01*
Y29230D02*
X6422Y29347D01*
X1551Y11900D02*
Y11400D01*
X1801D01*
X1884Y11484D01*
Y11567D01*
X1801Y11650D01*
X1551D01*
X1801D01*
X1884Y11734D01*
Y11817D01*
X1801Y11900D01*
X1551D01*
X2051Y11400D02*
Y11734D01*
X2217Y11900D01*
X2384Y11734D01*
Y11400D01*
Y11650D01*
X2051D01*
X2550Y11900D02*
X2884D01*
X2717D01*
Y11400D01*
X3050Y11900D02*
X3384D01*
X3217D01*
Y11400D01*
X1151Y13064D02*
Y13564D01*
X1401D01*
X1484Y13480D01*
Y13314D01*
X1401Y13230D01*
X1151D01*
X1317D02*
X1484Y13064D01*
X1984Y13564D02*
X1651D01*
Y13064D01*
X1984D01*
X1651Y13314D02*
X1817D01*
X2150Y13564D02*
Y13064D01*
X2484D01*
X2650D02*
Y13397D01*
X2817Y13564D01*
X2984Y13397D01*
Y13064D01*
Y13314D01*
X2650D01*
X3150Y13564D02*
Y13480D01*
X3317Y13314D01*
X3483Y13480D01*
Y13564D01*
X3317Y13314D02*
Y13064D01*
X751Y14600D02*
Y14933D01*
X917Y15100D01*
X1084Y14933D01*
Y14600D01*
Y14850D01*
X751D01*
X1584Y15017D02*
X1501Y15100D01*
X1334D01*
X1251Y15017D01*
Y14683D01*
X1334Y14600D01*
X1501D01*
X1584Y14683D01*
X2250Y14600D02*
Y15100D01*
X2500D01*
X2584Y15017D01*
Y14850D01*
X2500Y14767D01*
X2250D01*
X2750Y15100D02*
Y14600D01*
X2917Y14767D01*
X3083Y14600D01*
Y15100D01*
X3250Y14600D02*
Y15100D01*
X3500D01*
X3583Y15017D01*
Y14850D01*
X3500Y14767D01*
X3250D01*
X3417D02*
X3583Y14600D01*
X1051Y16164D02*
Y16664D01*
X1301D01*
X1384Y16581D01*
Y16414D01*
X1301Y16331D01*
X1051D01*
X1801Y16664D02*
X1634D01*
X1551Y16581D01*
Y16247D01*
X1634Y16164D01*
X1801D01*
X1884Y16247D01*
Y16581D01*
X1801Y16664D01*
X2050D02*
Y16164D01*
X2217Y16331D01*
X2384Y16164D01*
Y16664D01*
X2884D02*
X2550D01*
Y16164D01*
X2884D01*
X2550Y16414D02*
X2717D01*
X3050Y16164D02*
Y16664D01*
X3300D01*
X3383Y16581D01*
Y16414D01*
X3300Y16331D01*
X3050D01*
X3217D02*
X3383Y16164D01*
X2051Y17700D02*
Y18200D01*
X2301D01*
X2384Y18117D01*
Y17950D01*
X2301Y17867D01*
X2051D01*
X2884Y18117D02*
X2801Y18200D01*
X2634D01*
X2551Y18117D01*
Y17783D01*
X2634Y17700D01*
X2801D01*
X2884Y17783D01*
Y17950D01*
X2717D01*
X3050Y17700D02*
Y18200D01*
X3217Y18033D01*
X3384Y18200D01*
Y17700D01*
X1841Y19860D02*
X2174D01*
X2007D01*
Y19360D01*
X2674Y19860D02*
X2341D01*
Y19360D01*
X2674D01*
X2341Y19610D02*
X2507D01*
X3174Y19777D02*
X3090Y19860D01*
X2924D01*
X2840Y19777D01*
Y19693D01*
X2924Y19610D01*
X3090D01*
X3174Y19527D01*
Y19443D01*
X3090Y19360D01*
X2924D01*
X2840Y19443D01*
X3340Y19860D02*
X3674D01*
X3507D01*
Y19360D01*
X2680Y7744D02*
Y7244D01*
X2930D01*
X3014Y7328D01*
Y7411D01*
X2930Y7494D01*
X2680D01*
X2930D01*
X3014Y7578D01*
Y7661D01*
X2930Y7744D01*
X2680D01*
X3264Y7578D02*
X3430D01*
X3514Y7494D01*
Y7244D01*
X3264D01*
X3180Y7328D01*
X3264Y7411D01*
X3514D01*
X3763Y7661D02*
Y7578D01*
X3680D01*
X3847D01*
X3763D01*
Y7328D01*
X3847Y7244D01*
X4180Y7661D02*
Y7578D01*
X4097D01*
X4263D01*
X4180D01*
Y7328D01*
X4263Y7244D01*
X4763D02*
X4596D01*
X4513Y7328D01*
Y7494D01*
X4596Y7578D01*
X4763D01*
X4846Y7494D01*
Y7411D01*
X4513D01*
X5013Y7578D02*
Y7244D01*
Y7411D01*
X5096Y7494D01*
X5180Y7578D01*
X5263D01*
X5513D02*
Y7328D01*
X5596Y7244D01*
X5846D01*
Y7161D01*
X5763Y7078D01*
X5679D01*
X5846Y7244D02*
Y7578D01*
X6846Y7661D02*
X6762Y7744D01*
X6596D01*
X6513Y7661D01*
Y7328D01*
X6596Y7244D01*
X6762D01*
X6846Y7328D01*
X7012Y7244D02*
X7179D01*
X7096D01*
Y7744D01*
X7012D01*
X7429Y7244D02*
X7596D01*
X7512D01*
Y7578D01*
X7429D01*
X7845Y7078D02*
Y7578D01*
X8095D01*
X8179Y7494D01*
Y7328D01*
X8095Y7244D01*
X7845D01*
X22177Y13445D02*
X22139Y13426D01*
X22101Y13388D01*
X22082Y13349D01*
X22063Y13292D01*
Y13197D01*
X22082Y13140D01*
X22101Y13102D01*
X22139Y13064D01*
X22177Y13045D01*
X22253D01*
X22291Y13064D01*
X22329Y13102D01*
X22348Y13140D01*
X22367Y13197D01*
Y13292D01*
X22348Y13349D01*
X22329Y13388D01*
X22291Y13426D01*
X22253Y13445D01*
X22177D01*
X22461D02*
Y13045D01*
X22727Y13445D02*
X22461Y13178D01*
X22556Y13273D02*
X22727Y13045D01*
X23102Y13349D02*
X23083Y13388D01*
X23045Y13426D01*
X23007Y13445D01*
X22931D01*
X22893Y13426D01*
X22855Y13388D01*
X22836Y13349D01*
X22817Y13292D01*
Y13197D01*
X22836Y13140D01*
X22855Y13102D01*
X22893Y13064D01*
X22931Y13045D01*
X23007D01*
X23045Y13064D01*
X23083Y13102D01*
X23102Y13140D01*
X25463Y13235D02*
X25634D01*
X25691Y13254D01*
X25710Y13273D01*
X25729Y13311D01*
Y13369D01*
X25710Y13407D01*
X25691Y13426D01*
X25634Y13445D01*
X25463D01*
Y13045D01*
X26123D02*
X25971Y13445D01*
X25819Y13045D01*
X25876Y13178D02*
X26066D01*
X26217Y13445D02*
Y13045D01*
Y13445D02*
X26350D01*
X26407Y13426D01*
X26445Y13388D01*
X26464Y13349D01*
X26483Y13292D01*
Y13197D01*
X26464Y13140D01*
X26445Y13102D01*
X26407Y13064D01*
X26350Y13045D01*
X26217D01*
X28196Y16545D02*
Y16145D01*
X28063Y16545D02*
X28329D01*
X28624D02*
X28377D01*
Y16145D01*
X28624D01*
X28377Y16354D02*
X28529D01*
X28958Y16488D02*
X28920Y16526D01*
X28863Y16545D01*
X28786D01*
X28729Y16526D01*
X28691Y16488D01*
Y16450D01*
X28710Y16411D01*
X28729Y16392D01*
X28767Y16373D01*
X28882Y16335D01*
X28920Y16316D01*
X28939Y16297D01*
X28958Y16259D01*
Y16202D01*
X28920Y16164D01*
X28863Y16145D01*
X28786D01*
X28729Y16164D01*
X28691Y16202D01*
X29181Y16545D02*
Y16145D01*
X29047Y16545D02*
X29314D01*
X29676D02*
Y16145D01*
Y16545D02*
X29828Y16145D01*
X29980Y16545D02*
X29828Y16145D01*
X29980Y16545D02*
Y16145D01*
X30209Y16545D02*
X30171Y16526D01*
X30133Y16488D01*
X30114Y16450D01*
X30095Y16392D01*
Y16297D01*
X30114Y16240D01*
X30133Y16202D01*
X30171Y16164D01*
X30209Y16145D01*
X30285D01*
X30323Y16164D01*
X30361Y16202D01*
X30380Y16240D01*
X30399Y16297D01*
Y16392D01*
X30380Y16450D01*
X30361Y16488D01*
X30323Y16526D01*
X30285Y16545D01*
X30209D01*
X30493D02*
Y16145D01*
Y16545D02*
X30626D01*
X30683Y16526D01*
X30721Y16488D01*
X30740Y16450D01*
X30759Y16392D01*
Y16297D01*
X30740Y16240D01*
X30721Y16202D01*
X30683Y16164D01*
X30626Y16145D01*
X30493D01*
X31096Y16545D02*
X30849D01*
Y16145D01*
X31096D01*
X30849Y16354D02*
X31001D01*
D41*
X-10363Y19366D02*
G03*
X-10363Y19366I-49J0D01*
G01*
Y21816D02*
G03*
X-10363Y21816I-49J0D01*
G01*
D42*
X6292Y25230D02*
G03*
X6292Y25230I-120J0D01*
G01*
D43*
X-11810Y18638D02*
X-11554D01*
X-11810D02*
Y18938D01*
X-10846Y18638D02*
X-10590D01*
Y18938D01*
X-9244Y20930D02*
Y20970D01*
X-9756Y20930D02*
Y20970D01*
X-9244Y18930D02*
Y18970D01*
X-9756Y18930D02*
Y18970D01*
X-11810Y21088D02*
X-11554D01*
X-11810D02*
Y21388D01*
X-10846Y21088D02*
X-10590D01*
Y21388D01*
X-13531Y11081D02*
X-12468D01*
X-13531Y9919D02*
X-12468D01*
X4440Y21486D02*
Y21986D01*
Y21486D02*
X4690Y21736D01*
X4440Y21986D02*
X4690Y21736D01*
Y21486D02*
Y21986D01*
X4483Y21346D02*
X4719D01*
X4483Y20854D02*
X4719D01*
X4445Y18371D02*
Y18871D01*
Y18371D02*
X4695Y18621D01*
X4445Y18871D02*
X4695Y18621D01*
Y18371D02*
Y18871D01*
X4487Y18231D02*
X4724D01*
X4487Y17739D02*
X4724D01*
X4445Y13646D02*
Y14146D01*
Y13646D02*
X4695Y13896D01*
X4445Y14146D02*
X4695Y13896D01*
Y13646D02*
Y14146D01*
X4487Y13507D02*
X4724D01*
X4487Y13015D02*
X4724D01*
X4445Y16796D02*
Y17296D01*
Y16796D02*
X4695Y17046D01*
X4445Y17296D02*
X4695Y17046D01*
Y16796D02*
Y17296D01*
X4487Y16656D02*
X4724D01*
X4487Y16164D02*
X4724D01*
X4445Y15221D02*
Y15721D01*
Y15221D02*
X4695Y15471D01*
X4445Y15721D02*
X4695Y15471D01*
Y15221D02*
Y15721D01*
X4487Y15081D02*
X4724D01*
X4487Y14589D02*
X4724D01*
X1884Y27100D02*
X3801D01*
X801D02*
X3801D01*
X801Y29100D02*
X3801D01*
X801Y27100D02*
Y29100D01*
X3801Y27100D02*
Y29100D01*
X4801Y27100D02*
Y29100D01*
Y27100D02*
X5801D01*
Y29100D01*
X4801D02*
X5801D01*
X4452Y12072D02*
Y12572D01*
Y12072D02*
X4702Y12322D01*
X4452Y12572D02*
X4702Y12322D01*
Y12072D02*
Y12572D01*
X4494Y11932D02*
X4731D01*
X4494Y11440D02*
X4731D01*
X4445Y19951D02*
Y20451D01*
Y19951D02*
X4695Y20201D01*
X4445Y20451D02*
X4695Y20201D01*
Y19951D02*
Y20451D01*
X4487Y19811D02*
X4724D01*
X4487Y19319D02*
X4724D01*
X-29333Y16065D02*
Y15715D01*
X-29449Y16065D02*
X-29216D01*
X-28958D02*
X-29174D01*
Y15715D01*
X-28958D01*
X-29174Y15898D02*
X-29041D01*
X-28666Y16015D02*
X-28699Y16048D01*
X-28749Y16065D01*
X-28816D01*
X-28866Y16048D01*
X-28899Y16015D01*
Y15982D01*
X-28883Y15948D01*
X-28866Y15932D01*
X-28833Y15915D01*
X-28733Y15882D01*
X-28699Y15865D01*
X-28683Y15848D01*
X-28666Y15815D01*
Y15765D01*
X-28699Y15732D01*
X-28749Y15715D01*
X-28816D01*
X-28866Y15732D01*
X-28899Y15765D01*
X-28471Y16065D02*
Y15715D01*
X-28588Y16065D02*
X-28354D01*
X-28038D02*
Y15715D01*
Y16065D02*
X-27905Y15715D01*
X-27771Y16065D02*
X-27905Y15715D01*
X-27771Y16065D02*
Y15715D01*
X-27571Y16065D02*
X-27605Y16048D01*
X-27638Y16015D01*
X-27655Y15982D01*
X-27671Y15932D01*
Y15848D01*
X-27655Y15798D01*
X-27638Y15765D01*
X-27605Y15732D01*
X-27571Y15715D01*
X-27505D01*
X-27471Y15732D01*
X-27438Y15765D01*
X-27421Y15798D01*
X-27405Y15848D01*
Y15932D01*
X-27421Y15982D01*
X-27438Y16015D01*
X-27471Y16048D01*
X-27505Y16065D01*
X-27571D01*
X-27323D02*
Y15715D01*
Y16065D02*
X-27206D01*
X-27156Y16048D01*
X-27123Y16015D01*
X-27106Y15982D01*
X-27090Y15932D01*
Y15848D01*
X-27106Y15798D01*
X-27123Y15765D01*
X-27156Y15732D01*
X-27206Y15715D01*
X-27323D01*
X-26795Y16065D02*
X-27011D01*
Y15715D01*
X-26795D01*
X-27011Y15898D02*
X-26878D01*
X27933Y26423D02*
X27970Y26442D01*
X28026Y26498D01*
Y26105D01*
D44*
X632Y24020D02*
Y23753D01*
X765Y23620D01*
X898Y23753D01*
Y24020D01*
X1232Y23620D02*
Y24020D01*
X1032Y23820D01*
X1298D01*
X1432Y23953D02*
X1498Y24020D01*
X1631D01*
X1698Y23953D01*
Y23687D01*
X1631Y23620D01*
X1498D01*
X1432Y23687D01*
Y23953D01*
X2231Y24020D02*
X2498D01*
X2365D01*
Y23620D01*
X2831D02*
X2698D01*
X2631Y23687D01*
Y23820D01*
X2698Y23887D01*
X2831D01*
X2898Y23820D01*
Y23753D01*
X2631D01*
X3031Y23620D02*
X3231D01*
X3298Y23687D01*
X3231Y23753D01*
X3098D01*
X3031Y23820D01*
X3098Y23887D01*
X3298D01*
X3498Y23953D02*
Y23887D01*
X3431D01*
X3564D01*
X3498D01*
Y23687D01*
X3564Y23620D01*
X4164Y24020D02*
Y23620D01*
Y23820D01*
X4431D01*
Y24020D01*
Y23620D01*
X4764D02*
X4631D01*
X4564Y23687D01*
Y23820D01*
X4631Y23887D01*
X4764D01*
X4830Y23820D01*
Y23753D01*
X4564D01*
X5030Y23887D02*
X5164D01*
X5230Y23820D01*
Y23620D01*
X5030D01*
X4964Y23687D01*
X5030Y23753D01*
X5230D01*
X5630Y24020D02*
Y23620D01*
X5430D01*
X5364Y23687D01*
Y23820D01*
X5430Y23887D01*
X5630D01*
X1498Y22948D02*
X1631D01*
X1565D01*
Y23348D01*
X1498Y23281D01*
X1831D02*
X1898Y23348D01*
X2031D01*
X2098Y23281D01*
Y23015D01*
X2031Y22948D01*
X1898D01*
X1831Y23015D01*
Y23281D01*
X2498Y22948D02*
X2231D01*
X2498Y23215D01*
Y23281D01*
X2431Y23348D01*
X2298D01*
X2231Y23281D01*
X2631Y23348D02*
X2898D01*
Y23281D01*
X2631Y23015D01*
Y22948D01*
X3031D02*
X3164D01*
X3098D01*
Y23348D01*
X3031Y23281D01*
X3364Y22948D02*
X3498D01*
X3431D01*
Y23348D01*
X3364Y23281D01*
X4364D02*
X4297Y23348D01*
X4164D01*
X4097Y23281D01*
Y23015D01*
X4164Y22948D01*
X4297D01*
X4364Y23015D01*
X4497Y23281D02*
X4564Y23348D01*
X4697D01*
X4764Y23281D01*
Y23015D01*
X4697Y22948D01*
X4564D01*
X4497Y23015D01*
Y23281D01*
X-9000Y21100D02*
Y21500D01*
X-8800D01*
X-8733Y21433D01*
Y21300D01*
X-8800Y21233D01*
X-9000D01*
X-8867D02*
X-8733Y21100D01*
X-8400D02*
Y21500D01*
X-8600Y21300D01*
X-8334D01*
X-8950Y18713D02*
Y19113D01*
X-8750D01*
X-8683Y19047D01*
Y18913D01*
X-8750Y18847D01*
X-8950D01*
X-8817D02*
X-8683Y18713D01*
X-8550Y19047D02*
X-8483Y19113D01*
X-8350D01*
X-8284Y19047D01*
Y18980D01*
X-8350Y18913D01*
X-8417D01*
X-8350D01*
X-8284Y18847D01*
Y18780D01*
X-8350Y18713D01*
X-8483D01*
X-8550Y18780D01*
X-21533Y27400D02*
X-21666D01*
X-21599D01*
Y27067D01*
X-21666Y27000D01*
X-21733D01*
X-21799Y27067D01*
X-21399Y27000D02*
X-21266D01*
X-21333D01*
Y27400D01*
X-21399Y27333D01*
X-19549Y23387D02*
Y23088D01*
Y23387D02*
X-19421D01*
X-19378Y23373D01*
X-19364Y23359D01*
X-19349Y23330D01*
Y23302D01*
X-19364Y23273D01*
X-19378Y23259D01*
X-19421Y23245D01*
X-19549D01*
X-19449D02*
X-19349Y23088D01*
X-19096Y23387D02*
X-19282D01*
Y23088D01*
X-19096D01*
X-19282Y23245D02*
X-19168D01*
X-19046Y23387D02*
Y23088D01*
X-18875D01*
X-18614D02*
X-18728Y23387D01*
X-18842Y23088D01*
X-18799Y23188D02*
X-18657D01*
X-18544Y23387D02*
X-18429Y23245D01*
Y23088D01*
X-18315Y23387D02*
X-18429Y23245D01*
X-19335Y21316D02*
X-19349Y21345D01*
X-19378Y21373D01*
X-19406Y21387D01*
X-19464D01*
X-19492Y21373D01*
X-19521Y21345D01*
X-19535Y21316D01*
X-19549Y21273D01*
Y21202D01*
X-19535Y21159D01*
X-19521Y21130D01*
X-19492Y21102D01*
X-19464Y21088D01*
X-19406D01*
X-19378Y21102D01*
X-19349Y21130D01*
X-19335Y21159D01*
Y21202D01*
X-19406D02*
X-19335D01*
X-19266Y21387D02*
Y21088D01*
Y21387D02*
X-19066Y21088D01*
Y21387D02*
Y21088D01*
X-18984Y21387D02*
Y21088D01*
Y21387D02*
X-18884D01*
X-18841Y21373D01*
X-18812Y21345D01*
X-18798Y21316D01*
X-18784Y21273D01*
Y21202D01*
X-18798Y21159D01*
X-18812Y21130D01*
X-18841Y21102D01*
X-18884Y21088D01*
X-18984D01*
X-19378Y25387D02*
X-19521D01*
X-19535Y25259D01*
X-19521Y25273D01*
X-19478Y25287D01*
X-19435D01*
X-19392Y25273D01*
X-19364Y25245D01*
X-19349Y25202D01*
Y25173D01*
X-19364Y25130D01*
X-19392Y25102D01*
X-19435Y25088D01*
X-19478D01*
X-19521Y25102D01*
X-19535Y25116D01*
X-19549Y25145D01*
X-19282Y25387D02*
X-19168Y25088D01*
X-19054Y25387D02*
X-19168Y25088D01*
X-19514Y24500D02*
X-19542Y24486D01*
X-19571Y24457D01*
X-19585Y24429D01*
X-19599Y24386D01*
Y24314D01*
X-19585Y24271D01*
X-19571Y24243D01*
X-19542Y24214D01*
X-19514Y24200D01*
X-19456D01*
X-19428Y24214D01*
X-19399Y24243D01*
X-19385Y24271D01*
X-19371Y24314D01*
Y24386D01*
X-19385Y24429D01*
X-19399Y24457D01*
X-19428Y24486D01*
X-19456Y24500D01*
X-19514D01*
X-19301D02*
Y24200D01*
X-19101Y24500D02*
X-19301Y24300D01*
X-19229Y24371D02*
X-19101Y24200D01*
X-18819Y24429D02*
X-18834Y24457D01*
X-18862Y24486D01*
X-18891Y24500D01*
X-18948D01*
X-18976Y24486D01*
X-19005Y24457D01*
X-19019Y24429D01*
X-19034Y24386D01*
Y24314D01*
X-19019Y24271D01*
X-19005Y24243D01*
X-18976Y24214D01*
X-18948Y24200D01*
X-18891D01*
X-18862Y24214D01*
X-18834Y24243D01*
X-18819Y24271D01*
X-25699Y25400D02*
Y25100D01*
X-25799Y25400D02*
X-25599D01*
X-25378D02*
X-25564D01*
Y25100D01*
X-25378D01*
X-25564Y25257D02*
X-25449D01*
X-25128Y25357D02*
X-25156Y25386D01*
X-25199Y25400D01*
X-25256D01*
X-25299Y25386D01*
X-25328Y25357D01*
Y25329D01*
X-25314Y25300D01*
X-25299Y25286D01*
X-25271Y25271D01*
X-25185Y25243D01*
X-25156Y25229D01*
X-25142Y25214D01*
X-25128Y25186D01*
Y25143D01*
X-25156Y25114D01*
X-25199Y25100D01*
X-25256D01*
X-25299Y25114D01*
X-25328Y25143D01*
X-24961Y25400D02*
Y25100D01*
X-25061Y25400D02*
X-24861D01*
X-25925Y24500D02*
Y24200D01*
Y24500D02*
X-25825D01*
X-25782Y24486D01*
X-25754Y24457D01*
X-25739Y24429D01*
X-25725Y24386D01*
Y24314D01*
X-25739Y24271D01*
X-25754Y24243D01*
X-25782Y24214D01*
X-25825Y24200D01*
X-25925D01*
X-25572Y24500D02*
X-25601Y24486D01*
X-25629Y24457D01*
X-25644Y24429D01*
X-25658Y24386D01*
Y24314D01*
X-25644Y24271D01*
X-25629Y24243D01*
X-25601Y24214D01*
X-25572Y24200D01*
X-25515D01*
X-25486Y24214D01*
X-25458Y24243D01*
X-25444Y24271D01*
X-25429Y24314D01*
Y24386D01*
X-25444Y24429D01*
X-25458Y24457D01*
X-25486Y24486D01*
X-25515Y24500D01*
X-25572D01*
X-25274D02*
X-25302Y24486D01*
X-25331Y24457D01*
X-25345Y24429D01*
X-25359Y24386D01*
Y24314D01*
X-25345Y24271D01*
X-25331Y24243D01*
X-25302Y24214D01*
X-25274Y24200D01*
X-25216D01*
X-25188Y24214D01*
X-25159Y24243D01*
X-25145Y24271D01*
X-25131Y24314D01*
Y24386D01*
X-25145Y24429D01*
X-25159Y24457D01*
X-25188Y24486D01*
X-25216Y24500D01*
X-25274D01*
X-25061D02*
Y24200D01*
Y24500D02*
X-24932D01*
X-24889Y24486D01*
X-24875Y24471D01*
X-24861Y24443D01*
Y24414D01*
X-24875Y24386D01*
X-24889Y24371D01*
X-24932Y24357D01*
X-25061D01*
X-24961D02*
X-24861Y24200D01*
X-19549Y26400D02*
Y26100D01*
Y26400D02*
X-19435Y26100D01*
X-19321Y26400D02*
X-19435Y26100D01*
X-19321Y26400D02*
Y26100D01*
X-19021Y26329D02*
X-19035Y26357D01*
X-19064Y26386D01*
X-19092Y26400D01*
X-19149D01*
X-19178Y26386D01*
X-19206Y26357D01*
X-19221Y26329D01*
X-19235Y26286D01*
Y26214D01*
X-19221Y26171D01*
X-19206Y26143D01*
X-19178Y26114D01*
X-19149Y26100D01*
X-19092D01*
X-19064Y26114D01*
X-19035Y26143D01*
X-19021Y26171D01*
X-18936Y26400D02*
Y26100D01*
X-18765D01*
X-18732Y26400D02*
Y26100D01*
Y26400D02*
X-18604D01*
X-18561Y26386D01*
X-18547Y26371D01*
X-18532Y26343D01*
Y26314D01*
X-18547Y26286D01*
X-18561Y26271D01*
X-18604Y26257D01*
X-18732D01*
X-18632D02*
X-18532Y26100D01*
X-25429Y21005D02*
X-25544Y21305D01*
X-25658Y21005D01*
X-25615Y21105D02*
X-25472D01*
X-25145Y21233D02*
X-25159Y21262D01*
X-25188Y21290D01*
X-25216Y21305D01*
X-25274D01*
X-25302Y21290D01*
X-25331Y21262D01*
X-25345Y21233D01*
X-25359Y21190D01*
Y21119D01*
X-25345Y21076D01*
X-25331Y21047D01*
X-25302Y21019D01*
X-25274Y21005D01*
X-25216D01*
X-25188Y21019D01*
X-25159Y21047D01*
X-25145Y21076D01*
X-25047Y21233D02*
Y21247D01*
X-25032Y21276D01*
X-25018Y21290D01*
X-24989Y21305D01*
X-24932D01*
X-24904Y21290D01*
X-24889Y21276D01*
X-24875Y21247D01*
Y21219D01*
X-24889Y21190D01*
X-24918Y21147D01*
X-25061Y21005D01*
X-24861D01*
X-25301Y22005D02*
X-25415Y22305D01*
X-25529Y22005D01*
X-25486Y22105D02*
X-25344D01*
X-25017Y22233D02*
X-25031Y22262D01*
X-25059Y22290D01*
X-25088Y22305D01*
X-25145D01*
X-25174Y22290D01*
X-25202Y22262D01*
X-25216Y22233D01*
X-25231Y22190D01*
Y22119D01*
X-25216Y22076D01*
X-25202Y22048D01*
X-25174Y22019D01*
X-25145Y22005D01*
X-25088D01*
X-25059Y22019D01*
X-25031Y22048D01*
X-25017Y22076D01*
X-24932Y22247D02*
X-24904Y22262D01*
X-24861Y22305D01*
Y22005D01*
X-19549Y20487D02*
Y20188D01*
Y20487D02*
X-19421D01*
X-19378Y20473D01*
X-19364Y20459D01*
X-19349Y20430D01*
Y20402D01*
X-19364Y20373D01*
X-19378Y20359D01*
X-19421Y20345D01*
X-19549D01*
X-19449D02*
X-19349Y20188D01*
X-19096Y20487D02*
X-19282D01*
Y20188D01*
X-19096D01*
X-19282Y20345D02*
X-19168D01*
X-19046Y20487D02*
Y20188D01*
X-18875D01*
X-18614D02*
X-18728Y20487D01*
X-18842Y20188D01*
X-18799Y20288D02*
X-18657D01*
X-18544Y20487D02*
X-18429Y20345D01*
Y20188D01*
X-18315Y20487D02*
X-18429Y20345D01*
X-25642Y23400D02*
Y23100D01*
Y23400D02*
X-25514D01*
X-25471Y23386D01*
X-25456Y23371D01*
X-25442Y23343D01*
Y23314D01*
X-25456Y23286D01*
X-25471Y23271D01*
X-25514Y23257D01*
X-25642D01*
X-25542D02*
X-25442Y23100D01*
X-25375Y23400D02*
Y23100D01*
Y23400D02*
X-25261Y23100D01*
X-25146Y23400D02*
X-25261Y23100D01*
X-25146Y23400D02*
Y23100D01*
X-24961Y23400D02*
Y23100D01*
X-25061Y23400D02*
X-24861D01*
X-19335Y19316D02*
X-19349Y19345D01*
X-19378Y19373D01*
X-19406Y19387D01*
X-19464D01*
X-19492Y19373D01*
X-19521Y19345D01*
X-19535Y19316D01*
X-19549Y19273D01*
Y19202D01*
X-19535Y19159D01*
X-19521Y19130D01*
X-19492Y19102D01*
X-19464Y19088D01*
X-19406D01*
X-19378Y19102D01*
X-19349Y19130D01*
X-19335Y19159D01*
Y19202D01*
X-19406D02*
X-19335D01*
X-19266Y19387D02*
Y19088D01*
Y19387D02*
X-19066Y19088D01*
Y19387D02*
Y19088D01*
X-18984Y19387D02*
Y19088D01*
Y19387D02*
X-18884D01*
X-18841Y19373D01*
X-18812Y19345D01*
X-18798Y19316D01*
X-18784Y19273D01*
Y19202D01*
X-18798Y19159D01*
X-18812Y19130D01*
X-18841Y19102D01*
X-18884Y19088D01*
X-18984D01*
X-19549Y22387D02*
Y22088D01*
Y22387D02*
X-19421D01*
X-19378Y22373D01*
X-19364Y22359D01*
X-19349Y22330D01*
Y22302D01*
X-19364Y22273D01*
X-19378Y22259D01*
X-19421Y22245D01*
X-19549D02*
X-19421D01*
X-19378Y22230D01*
X-19364Y22216D01*
X-19349Y22188D01*
Y22145D01*
X-19364Y22116D01*
X-19378Y22102D01*
X-19421Y22088D01*
X-19549D01*
X-19054D02*
X-19168Y22387D01*
X-19282Y22088D01*
X-19239Y22188D02*
X-19096D01*
X-18884Y22387D02*
Y22088D01*
X-18984Y22387D02*
X-18784D01*
X-25349Y19333D02*
X-25364Y19362D01*
X-25392Y19390D01*
X-25421Y19405D01*
X-25478D01*
X-25506Y19390D01*
X-25535Y19362D01*
X-25549Y19333D01*
X-25564Y19290D01*
Y19219D01*
X-25549Y19176D01*
X-25535Y19147D01*
X-25506Y19119D01*
X-25478Y19105D01*
X-25421D01*
X-25392Y19119D01*
X-25364Y19147D01*
X-25349Y19176D01*
X-25265Y19405D02*
Y19105D01*
X-25094D01*
X-25061Y19405D02*
Y19105D01*
X-24861Y19405D02*
X-25061Y19205D01*
X-24989Y19276D02*
X-24861Y19105D01*
X-25891Y20305D02*
Y20005D01*
Y20305D02*
X-25791D01*
X-25748Y20290D01*
X-25719Y20262D01*
X-25705Y20233D01*
X-25691Y20190D01*
Y20119D01*
X-25705Y20076D01*
X-25719Y20048D01*
X-25748Y20019D01*
X-25791Y20005D01*
X-25891D01*
X-25395D02*
X-25509Y20305D01*
X-25624Y20005D01*
X-25581Y20105D02*
X-25438D01*
X-25225Y20305D02*
Y20005D01*
X-25325Y20305D02*
X-25125D01*
X-24861Y20005D02*
X-24975Y20305D01*
X-25089Y20005D01*
X-25047Y20105D02*
X-24904D01*
X-25595Y26317D02*
X-25481Y26017D01*
X-25366Y26317D02*
X-25481Y26017D01*
X-25328Y26317D02*
Y26017D01*
Y26317D02*
X-25228D01*
X-25185Y26303D01*
X-25156Y26274D01*
X-25142Y26246D01*
X-25128Y26203D01*
Y26131D01*
X-25142Y26089D01*
X-25156Y26060D01*
X-25185Y26031D01*
X-25228Y26017D01*
X-25328D01*
X-25061Y26317D02*
Y26017D01*
Y26317D02*
X-24961D01*
X-24918Y26303D01*
X-24889Y26274D01*
X-24875Y26246D01*
X-24861Y26203D01*
Y26131D01*
X-24875Y26089D01*
X-24889Y26060D01*
X-24918Y26031D01*
X-24961Y26017D01*
X-25061D01*
X16811Y15820D02*
X16944D01*
X16877D01*
Y16220D01*
X16811Y16153D01*
X681Y30120D02*
Y30520D01*
X881D01*
X947Y30453D01*
Y30320D01*
X881Y30253D01*
X681D01*
X814D02*
X947Y30120D01*
X1281D02*
X1147D01*
X1081Y30187D01*
Y30320D01*
X1147Y30387D01*
X1281D01*
X1347Y30320D01*
Y30253D01*
X1081D01*
X1481Y30120D02*
Y30387D01*
X1547D01*
X1614Y30320D01*
Y30120D01*
Y30320D01*
X1680Y30387D01*
X1747Y30320D01*
Y30120D01*
X1947D02*
X2080D01*
X2147Y30187D01*
Y30320D01*
X2080Y30387D01*
X1947D01*
X1880Y30320D01*
Y30187D01*
X1947Y30120D01*
X2347Y30453D02*
Y30387D01*
X2280D01*
X2414D01*
X2347D01*
Y30187D01*
X2414Y30120D01*
X2813D02*
X2680D01*
X2614Y30187D01*
Y30320D01*
X2680Y30387D01*
X2813D01*
X2880Y30320D01*
Y30253D01*
X2614D01*
X2246Y26900D02*
X1980D01*
Y26700D01*
X2113Y26767D01*
X2180D01*
X2246Y26700D01*
Y26567D01*
X2180Y26500D01*
X2046D01*
X1980Y26567D01*
X2380Y26900D02*
Y26633D01*
X2513Y26500D01*
X2646Y26633D01*
Y26900D01*
X3267Y26833D02*
X3201Y26900D01*
X3067D01*
X3001Y26833D01*
Y26567D01*
X3067Y26500D01*
X3201D01*
X3267Y26567D01*
Y26700D01*
X3134D01*
X3401Y26500D02*
Y26900D01*
X3667Y26500D01*
Y26900D01*
X3801D02*
Y26500D01*
X4000D01*
X4067Y26567D01*
Y26833D01*
X4000Y26900D01*
X3801D01*
X671Y26500D02*
Y26900D01*
X871D01*
X937Y26833D01*
Y26700D01*
X871Y26633D01*
X671D01*
X804D02*
X937Y26500D01*
X1071Y26900D02*
Y26500D01*
X1337D01*
X1471Y26900D02*
Y26833D01*
X1604Y26700D01*
X1737Y26833D01*
Y26900D01*
X1604Y26700D02*
Y26500D01*
D45*
X9471Y28929D02*
X9428Y28971D01*
X9343D01*
X9300Y28929D01*
Y28758D01*
X9343Y28715D01*
X9428D01*
X9471Y28758D01*
Y28843D01*
X9385D01*
X9556Y28715D02*
Y28971D01*
X9726Y28715D01*
Y28971D01*
X9812D02*
Y28715D01*
X9940D01*
X9982Y28758D01*
Y28929D01*
X9940Y28971D01*
X9812D01*
D46*
X-11867Y18091D02*
Y18325D01*
X-11925Y18383D01*
X-12042D01*
X-12100Y18325D01*
Y18091D01*
X-12042Y18033D01*
X-11925D01*
X-11983Y18150D02*
X-11867Y18033D01*
X-11925D02*
X-11867Y18091D01*
X-11750Y18033D02*
X-11633D01*
X-11692D01*
Y18383D01*
X-11750Y18325D01*
X-10544Y20591D02*
Y20825D01*
X-10602Y20883D01*
X-10718D01*
X-10777Y20825D01*
Y20591D01*
X-10718Y20533D01*
X-10602D01*
X-10660Y20650D02*
X-10544Y20533D01*
X-10602D02*
X-10544Y20591D01*
X-10194Y20533D02*
X-10427D01*
X-10194Y20766D01*
Y20825D01*
X-10252Y20883D01*
X-10369D01*
X-10427Y20825D01*
X-24149Y26050D02*
X-24016D01*
X-24083D01*
Y26450D01*
X-24149Y26383D01*
X-23549Y26450D02*
X-23683Y26383D01*
X-23816Y26250D01*
Y26117D01*
X-23749Y26050D01*
X-23616D01*
X-23549Y26117D01*
Y26183D01*
X-23616Y26250D01*
X-23816D01*
X-20649Y26100D02*
X-20526D01*
X-20588D01*
Y26470D01*
X-20649Y26408D01*
X-20094Y26470D02*
X-20341D01*
Y26285D01*
X-20218Y26347D01*
X-20156D01*
X-20094Y26285D01*
Y26162D01*
X-20156Y26100D01*
X-20279D01*
X-20341Y26162D01*
X-23783Y19150D02*
X-24049D01*
X-23783Y19417D01*
Y19483D01*
X-23849Y19550D01*
X-23983D01*
X-24049Y19483D01*
X-20549Y19050D02*
X-20416D01*
X-20483D01*
Y19450D01*
X-20549Y19383D01*
M02*
