G04 Layer_Color=16711935*
%FSLAX24Y24*%
%MOIN*%
G70*
G01*
G75*
%ADD44R,0.0781X0.1320*%
%ADD46C,0.0080*%
%ADD47C,0.0640*%
%ADD48R,0.0640X0.0640*%
%ADD49C,0.1000*%
%ADD50O,0.1680X0.1980*%
%ADD51C,0.1340*%
%ADD52C,0.1480*%
%ADD53O,0.1580X0.1830*%
%ADD54C,0.0671*%
%ADD55R,0.0671X0.0671*%
%ADD56C,0.0980*%
%ADD57C,0.0800*%
%ADD58C,0.0780*%
%ADD59R,0.0474X0.0631*%
%ADD60R,0.0671X0.0671*%
%ADD61R,0.0572X0.0671*%
%ADD62R,0.0631X0.0474*%
%ADD63R,0.0651X0.0316*%
D44*
X49430Y19000D02*
D03*
X47370D02*
D03*
D46*
X18950Y30115D02*
D03*
X2950D02*
D03*
Y10615D02*
D03*
X18950D02*
D03*
D47*
X12450Y19250D02*
D03*
Y20250D02*
D03*
X13450D02*
D03*
X12450Y21250D02*
D03*
X13450D02*
D03*
X12450Y22250D02*
D03*
X13450D02*
D03*
X12450Y23250D02*
D03*
X13450D02*
D03*
X12450Y24250D02*
D03*
X13450D02*
D03*
X12450Y25250D02*
D03*
X13450D02*
D03*
X12450Y26250D02*
D03*
X13450D02*
D03*
D48*
Y19250D02*
D03*
D49*
X9840Y31390D02*
D03*
X10840D02*
D03*
Y32390D02*
D03*
X9840D02*
D03*
X8840D02*
D03*
Y31390D02*
D03*
X8950Y15700D02*
D03*
X9950D02*
D03*
D50*
X32200Y5990D02*
D03*
X27200D02*
D03*
D51*
X51250Y30117D02*
D03*
X67250D02*
D03*
Y10617D02*
D03*
X51250D02*
D03*
D52*
X36450Y32000D02*
D03*
X38200D02*
D03*
D53*
X38035Y4094D02*
D03*
X43035D02*
D03*
D54*
X53750Y23000D02*
D03*
X52750D02*
D03*
X53750Y22000D02*
D03*
X52750D02*
D03*
X53750Y21000D02*
D03*
X52750D02*
D03*
X53750Y20000D02*
D03*
X52750D02*
D03*
X53750Y19000D02*
D03*
X52750D02*
D03*
X53750Y18000D02*
D03*
X52750D02*
D03*
X53750Y17000D02*
D03*
X52750D02*
D03*
X53750Y16000D02*
D03*
D55*
X52750D02*
D03*
D56*
X62132Y24790D02*
D03*
Y25790D02*
D03*
X61132D02*
D03*
X60132D02*
D03*
Y24790D02*
D03*
X61132D02*
D03*
X62382Y16290D02*
D03*
Y15290D02*
D03*
X59832Y12490D02*
D03*
X58832D02*
D03*
D57*
X38400Y28600D02*
D03*
Y27600D02*
D03*
X37400Y28600D02*
D03*
Y27600D02*
D03*
X36400Y28600D02*
D03*
Y27600D02*
D03*
D58*
X40400Y28600D02*
D03*
Y27600D02*
D03*
D59*
X27400Y16417D02*
D03*
X27774Y17283D02*
D03*
X27026D02*
D03*
X29500Y16367D02*
D03*
X29874Y17233D02*
D03*
X29126D02*
D03*
D60*
X33439Y24750D02*
D03*
X32061D02*
D03*
X33439Y23000D02*
D03*
X32061D02*
D03*
X33439Y21250D02*
D03*
X32061D02*
D03*
X33439Y19500D02*
D03*
X32061D02*
D03*
D61*
X29923Y24750D02*
D03*
X30750D02*
D03*
X29923Y23000D02*
D03*
X30750D02*
D03*
X26977Y15250D02*
D03*
X27804D02*
D03*
X29087D02*
D03*
X29913D02*
D03*
X29923Y21250D02*
D03*
X30750D02*
D03*
X29923Y19500D02*
D03*
X30750D02*
D03*
X47687Y24700D02*
D03*
X48513D02*
D03*
X45537Y23300D02*
D03*
X46363D02*
D03*
X47687Y26050D02*
D03*
X48513D02*
D03*
X51737Y26450D02*
D03*
X52563D02*
D03*
X48013Y16750D02*
D03*
X47187D02*
D03*
X48013Y12812D02*
D03*
X47187D02*
D03*
X51737Y28250D02*
D03*
X52563D02*
D03*
X48013Y14125D02*
D03*
X47187D02*
D03*
X48013Y11500D02*
D03*
X47187D02*
D03*
Y15438D02*
D03*
X48013D02*
D03*
D62*
X47667Y23300D02*
D03*
X48533Y22926D02*
D03*
Y23674D02*
D03*
X49684Y27876D02*
D03*
X50550Y27502D02*
D03*
Y28250D02*
D03*
X49717Y26050D02*
D03*
X50583Y25676D02*
D03*
Y26424D02*
D03*
D63*
X48563Y31600D02*
D03*
X47637Y31974D02*
D03*
Y31226D02*
D03*
M02*
