G04 Layer_Color=8388736*
%FSLAX24Y24*%
%MOIN*%
G70*
G01*
G75*
%ADD44R,0.0781X0.1320*%
%ADD45R,0.0513X0.0572*%
%ADD46C,0.0080*%
%ADD47C,0.0640*%
%ADD48R,0.0640X0.0640*%
%ADD49C,0.1000*%
%ADD50O,0.1680X0.1980*%
%ADD51C,0.1340*%
%ADD52C,0.1480*%
%ADD53O,0.1580X0.1830*%
%ADD54C,0.0671*%
%ADD55R,0.0671X0.0671*%
%ADD56C,0.0980*%
%ADD57C,0.0800*%
%ADD58C,0.0780*%
D44*
X21070Y10500D02*
D03*
X23130D02*
D03*
D45*
X40192Y21100D02*
D03*
X39208D02*
D03*
X40197Y17985D02*
D03*
X39213D02*
D03*
X40197Y13261D02*
D03*
X39213D02*
D03*
X40197Y16410D02*
D03*
X39213D02*
D03*
X40197Y14835D02*
D03*
X39213D02*
D03*
X40204Y11686D02*
D03*
X39220D02*
D03*
X40197Y19565D02*
D03*
X39213D02*
D03*
D46*
X18950Y30115D02*
D03*
X2950D02*
D03*
Y10615D02*
D03*
X18950D02*
D03*
D47*
X12450Y19250D02*
D03*
Y20250D02*
D03*
X13450D02*
D03*
X12450Y21250D02*
D03*
X13450D02*
D03*
X12450Y22250D02*
D03*
X13450D02*
D03*
X12450Y23250D02*
D03*
X13450D02*
D03*
X12450Y24250D02*
D03*
X13450D02*
D03*
X12450Y25250D02*
D03*
X13450D02*
D03*
X12450Y26250D02*
D03*
X13450D02*
D03*
D48*
Y19250D02*
D03*
D49*
X9840Y31390D02*
D03*
X10840D02*
D03*
Y32390D02*
D03*
X9840D02*
D03*
X8840D02*
D03*
Y31390D02*
D03*
X8950Y15700D02*
D03*
X9950D02*
D03*
D50*
X32200Y5990D02*
D03*
X27200D02*
D03*
D51*
X51250Y30117D02*
D03*
X67250D02*
D03*
Y10617D02*
D03*
X51250D02*
D03*
D52*
X36450Y32000D02*
D03*
X38200D02*
D03*
D53*
X38035Y4094D02*
D03*
X43035D02*
D03*
D54*
X53750Y23000D02*
D03*
X52750D02*
D03*
X53750Y22000D02*
D03*
X52750D02*
D03*
X53750Y21000D02*
D03*
X52750D02*
D03*
X53750Y20000D02*
D03*
X52750D02*
D03*
X53750Y19000D02*
D03*
X52750D02*
D03*
X53750Y18000D02*
D03*
X52750D02*
D03*
X53750Y17000D02*
D03*
X52750D02*
D03*
X53750Y16000D02*
D03*
D55*
X52750D02*
D03*
D56*
X62132Y24790D02*
D03*
Y25790D02*
D03*
X61132D02*
D03*
X60132D02*
D03*
Y24790D02*
D03*
X61132D02*
D03*
X62382Y16290D02*
D03*
Y15290D02*
D03*
X59832Y12490D02*
D03*
X58832D02*
D03*
D57*
X38400Y28600D02*
D03*
Y27600D02*
D03*
X37400Y28600D02*
D03*
Y27600D02*
D03*
X36400Y28600D02*
D03*
Y27600D02*
D03*
D58*
X40400Y28600D02*
D03*
Y27600D02*
D03*
M02*
