M48
;Layer_Color=9474304
;FILE_FORMAT=2:4
INCH
;TYPE=PLATED
T1F00S00C0.0180
T2F00S00C0.0200
T3F00S00C0.0280
T4F00S00C0.0340
T5F00S00C0.0354
T6F00S00C0.0480
T7F00S00C0.0500
T8F00S00C0.0680
T9F00S00C0.0700
T10F00S00C0.0900
T11F00S00C0.1270
;TYPE=NON_PLATED
T12F00S00C0.1260
%
T01
X030980Y018120
X015550Y026950
T02
X025426Y009630
X032700Y010950
X045386Y011686
X057312Y021360
X067850Y013514
X054073Y013223
X055020Y020380
X049704Y020800
X048250Y021650
X049600Y023400
X051837Y024600
X051400Y027300
X054250Y025744
X043800Y025100
Y023300
X042450Y024167
X041408Y020350
X041400Y018550
X041900Y017050
X044900Y016400
X044865Y014835
X044900Y013300
X042050Y012500
X043833Y019000
X045800Y017200
X048021Y017800
X038400Y015648
X036850Y012150
X037274Y023630
X039650Y025000
X031450Y023880
Y020380
X025300Y019097
X025100Y012850
X022900Y017100
X018200Y017200
X013295Y017081
X015689Y012750
X022200Y024050
X003669Y024100
X004700Y014750
X005600Y029900
X013682Y030100
X011973Y027400
X023700Y030114
X030930Y028450
X044650Y028368
X048600Y027900
X053571Y029383
X057600
X067928Y027978
T03
X027800Y022100
T04
X012450Y019250
X013450
Y020250
X012450
Y021250
X013450
Y022250
X012450
Y023250
X013450
Y024250
X012450
Y025250
X013450
Y026250
X012450
T05
X052750Y016000
Y017000
Y018000
Y019000
Y020000
Y021000
Y022000
Y023000
X053750
Y022000
Y021000
Y020000
Y019000
Y018000
Y017000
Y016000
T06
X040400Y027600
Y028600
T07
X036400Y027600
X037400
X038400
Y028600
X037400
X036400
T08
X058832Y012490
X059832
X062382Y015290
Y016290
X062132Y024790
Y025790
X061132
X060132
Y024790
X061132
T09
X009950Y015700
X008950
X008840Y031390
Y032390
X009840
Y031390
X010840
Y032390
T10
X027200Y005990
X032200
X038035Y004094
X043035
T11
X036450Y032000
X038200
T12
X002950Y010615
X018950
X051250Y010617
X067250
X002950Y030115
X018950
X051250Y030117
X067250
M30
