G04 Layer_Color=128*
%FSLAX24Y24*%
%MOIN*%
G70*
G01*
G75*
%ADD10R,0.0701X0.1240*%
%ADD34R,0.0394X0.0551*%
%ADD35R,0.0591X0.0591*%
%ADD36R,0.0492X0.0591*%
%ADD37R,0.0551X0.0394*%
%ADD38R,0.0571X0.0236*%
D10*
X49430Y19000D02*
D03*
X47370D02*
D03*
D34*
X27400Y16417D02*
D03*
X27774Y17283D02*
D03*
X27026D02*
D03*
X29500Y16367D02*
D03*
X29874Y17233D02*
D03*
X29126D02*
D03*
D35*
X33439Y24750D02*
D03*
X32061D02*
D03*
X33439Y23000D02*
D03*
X32061D02*
D03*
X33439Y21250D02*
D03*
X32061D02*
D03*
X33439Y19500D02*
D03*
X32061D02*
D03*
D36*
X29923Y24750D02*
D03*
X30750D02*
D03*
X29923Y23000D02*
D03*
X30750D02*
D03*
X26977Y15250D02*
D03*
X27804D02*
D03*
X29087D02*
D03*
X29913D02*
D03*
X29923Y21250D02*
D03*
X30750D02*
D03*
X29923Y19500D02*
D03*
X30750D02*
D03*
X47687Y24700D02*
D03*
X48513D02*
D03*
X45537Y23300D02*
D03*
X46363D02*
D03*
X47687Y26050D02*
D03*
X48513D02*
D03*
X51737Y26450D02*
D03*
X52563D02*
D03*
X48013Y16750D02*
D03*
X47187D02*
D03*
X48013Y12812D02*
D03*
X47187D02*
D03*
X51737Y28250D02*
D03*
X52563D02*
D03*
X48013Y14125D02*
D03*
X47187D02*
D03*
X48013Y11500D02*
D03*
X47187D02*
D03*
Y15438D02*
D03*
X48013D02*
D03*
D37*
X47667Y23300D02*
D03*
X48533Y22926D02*
D03*
Y23674D02*
D03*
X49684Y27876D02*
D03*
X50550Y27502D02*
D03*
Y28250D02*
D03*
X49717Y26050D02*
D03*
X50583Y25676D02*
D03*
Y26424D02*
D03*
D38*
X48563Y31600D02*
D03*
X47637Y31974D02*
D03*
Y31226D02*
D03*
M02*
