G04 Layer_Color=128*
%FSLAX24Y24*%
%MOIN*%
G70*
G01*
G75*
%ADD11R,0.0701X0.1240*%
%ADD34R,0.0492X0.0591*%
%ADD35R,0.0571X0.0236*%
%ADD36R,0.0551X0.0394*%
%ADD37R,0.0591X0.0591*%
%ADD38R,0.0394X0.0551*%
D11*
X47370Y19000D02*
D03*
X49430D02*
D03*
D34*
X48013Y15438D02*
D03*
X47187D02*
D03*
Y11500D02*
D03*
X48013D02*
D03*
X47187Y14125D02*
D03*
X48013D02*
D03*
X52563Y28250D02*
D03*
X51737D02*
D03*
X47187Y12812D02*
D03*
X48013D02*
D03*
X47187Y16750D02*
D03*
X48013D02*
D03*
X52563Y26450D02*
D03*
X51737D02*
D03*
X48513Y26050D02*
D03*
X47687D02*
D03*
X46363Y23300D02*
D03*
X45537D02*
D03*
X48513Y24700D02*
D03*
X47687D02*
D03*
X30750Y19500D02*
D03*
X29923D02*
D03*
X30750Y21250D02*
D03*
X29923D02*
D03*
X29913Y15250D02*
D03*
X29087D02*
D03*
X27804D02*
D03*
X26977D02*
D03*
X30750Y23000D02*
D03*
X29923D02*
D03*
X30750Y24750D02*
D03*
X29923D02*
D03*
D35*
X47637Y31226D02*
D03*
Y31974D02*
D03*
X48563Y31600D02*
D03*
D36*
X50583Y26424D02*
D03*
Y25676D02*
D03*
X49717Y26050D02*
D03*
X50550Y28250D02*
D03*
Y27502D02*
D03*
X49684Y27876D02*
D03*
X48533Y23674D02*
D03*
Y22926D02*
D03*
X47667Y23300D02*
D03*
D37*
X32061Y19500D02*
D03*
X33439D02*
D03*
X32061Y21250D02*
D03*
X33439D02*
D03*
X32061Y23000D02*
D03*
X33439D02*
D03*
X32061Y24750D02*
D03*
X33439D02*
D03*
D38*
X29126Y17233D02*
D03*
X29874D02*
D03*
X29500Y16367D02*
D03*
X27026Y17283D02*
D03*
X27774D02*
D03*
X27400Y16417D02*
D03*
M02*
