G04 Layer_Color=8388736*
%FSLAX24Y24*%
%MOIN*%
G70*
G01*
G75*
%ADD44R,0.0513X0.0572*%
%ADD45R,0.0781X0.1320*%
%ADD46C,0.0780*%
%ADD47C,0.0800*%
%ADD48C,0.0980*%
%ADD49R,0.0671X0.0671*%
%ADD50C,0.0671*%
%ADD51O,0.1580X0.1830*%
%ADD52C,0.1480*%
%ADD53C,0.1340*%
%ADD54O,0.1680X0.1980*%
%ADD55C,0.1000*%
%ADD56C,0.0640*%
%ADD57R,0.0640X0.0640*%
%ADD58C,0.0080*%
D44*
X39213Y19565D02*
D03*
X40197D02*
D03*
X39220Y11686D02*
D03*
X40204D02*
D03*
X39213Y14835D02*
D03*
X40197D02*
D03*
X39213Y16410D02*
D03*
X40197D02*
D03*
X39213Y13261D02*
D03*
X40197D02*
D03*
X39213Y17985D02*
D03*
X40197D02*
D03*
X39208Y21100D02*
D03*
X40192D02*
D03*
D45*
X23130Y10500D02*
D03*
X21070D02*
D03*
D46*
X40400Y27600D02*
D03*
Y28600D02*
D03*
D47*
X36400Y27600D02*
D03*
Y28600D02*
D03*
X37400Y27600D02*
D03*
Y28600D02*
D03*
X38400Y27600D02*
D03*
Y28600D02*
D03*
D48*
X58832Y12490D02*
D03*
X59832D02*
D03*
X62382Y15290D02*
D03*
Y16290D02*
D03*
X61132Y24790D02*
D03*
X60132D02*
D03*
Y25790D02*
D03*
X61132D02*
D03*
X62132D02*
D03*
Y24790D02*
D03*
D49*
X52750Y16000D02*
D03*
D50*
X53750D02*
D03*
X52750Y17000D02*
D03*
X53750D02*
D03*
X52750Y18000D02*
D03*
X53750D02*
D03*
X52750Y19000D02*
D03*
X53750D02*
D03*
X52750Y20000D02*
D03*
X53750D02*
D03*
X52750Y21000D02*
D03*
X53750D02*
D03*
X52750Y22000D02*
D03*
X53750D02*
D03*
X52750Y23000D02*
D03*
X53750D02*
D03*
D51*
X43035Y4094D02*
D03*
X38035D02*
D03*
D52*
X38200Y32000D02*
D03*
X36450D02*
D03*
D53*
X51250Y10617D02*
D03*
X67250D02*
D03*
Y30117D02*
D03*
X51250D02*
D03*
D54*
X27200Y5990D02*
D03*
X32200D02*
D03*
D55*
X9950Y15700D02*
D03*
X8950D02*
D03*
X8840Y31390D02*
D03*
Y32390D02*
D03*
X9840D02*
D03*
X10840D02*
D03*
Y31390D02*
D03*
X9840D02*
D03*
D56*
X13450Y26250D02*
D03*
X12450D02*
D03*
X13450Y25250D02*
D03*
X12450D02*
D03*
X13450Y24250D02*
D03*
X12450D02*
D03*
X13450Y23250D02*
D03*
X12450D02*
D03*
X13450Y22250D02*
D03*
X12450D02*
D03*
X13450Y21250D02*
D03*
X12450D02*
D03*
X13450Y20250D02*
D03*
X12450D02*
D03*
Y19250D02*
D03*
D57*
X13450D02*
D03*
D58*
X18950Y10615D02*
D03*
X2950D02*
D03*
Y30115D02*
D03*
X18950D02*
D03*
M02*
