G04 Layer_Physical_Order=1*
G04 Layer_Color=255*
%FSLAX24Y24*%
%MOIN*%
G70*
G01*
G75*
%ADD10R,0.0433X0.0492*%
%ADD11R,0.0701X0.1240*%
%ADD12C,0.0150*%
%ADD13C,0.0120*%
%ADD14C,0.0100*%
%ADD15C,0.0350*%
%ADD16C,0.0200*%
%ADD17C,0.0110*%
%ADD18C,0.0300*%
%ADD19C,0.0700*%
%ADD20C,0.0720*%
%ADD21C,0.0900*%
%ADD22R,0.0591X0.0591*%
%ADD23C,0.0591*%
%ADD24O,0.1500X0.1750*%
%ADD25C,0.1400*%
%ADD26C,0.1260*%
%ADD27O,0.1600X0.1900*%
%ADD28C,0.0920*%
%ADD29C,0.0560*%
%ADD30R,0.0560X0.0560*%
%ADD31C,0.0400*%
%ADD32C,0.0500*%
%ADD33C,0.0350*%
G36*
X14296Y10531D02*
X14279D01*
Y10497D01*
X14262D01*
Y10464D01*
X14246D01*
Y10397D01*
X14229D01*
Y10364D01*
X14212D01*
Y10314D01*
X14196D01*
Y10264D01*
X14179D01*
Y10230D01*
X14162D01*
Y10164D01*
X14146D01*
Y10130D01*
X14129D01*
Y10097D01*
X11794D01*
Y10114D01*
X11810D01*
Y10164D01*
X11827D01*
Y10197D01*
X11844D01*
Y10230D01*
X11860D01*
Y10280D01*
X11877D01*
Y10347D01*
X11894D01*
Y10397D01*
X11911D01*
Y10414D01*
X11927D01*
Y10481D01*
X11944D01*
Y10547D01*
X11961D01*
Y10564D01*
X14296D01*
Y10531D01*
D02*
G37*
G36*
X23482Y10817D02*
X23493Y10787D01*
X23510Y10761D01*
X23535Y10738D01*
X23566Y10719D01*
X23605Y10703D01*
X23650Y10691D01*
X23703Y10682D01*
X23762Y10677D01*
X23829Y10675D01*
Y10325D01*
X23762Y10323D01*
X23703Y10318D01*
X23650Y10309D01*
X23605Y10297D01*
X23566Y10281D01*
X23535Y10262D01*
X23510Y10239D01*
X23493Y10213D01*
X23482Y10183D01*
X23479Y10150D01*
Y10850D01*
X23482Y10817D01*
D02*
G37*
G36*
X10326Y10531D02*
X10309D01*
Y10497D01*
X10293D01*
Y10464D01*
X10276D01*
Y10397D01*
X10259D01*
Y10364D01*
X10243D01*
Y10314D01*
X10226D01*
Y10264D01*
X10209D01*
Y10197D01*
X10192D01*
Y10180D01*
X10176D01*
Y10114D01*
X10159D01*
Y10080D01*
X7824D01*
Y10097D01*
X7841D01*
Y10147D01*
X7857D01*
Y10180D01*
X7874D01*
Y10230D01*
X7891D01*
Y10297D01*
X7907D01*
Y10364D01*
X7924D01*
Y10381D01*
X7941D01*
Y10447D01*
X7957D01*
Y10514D01*
X7974D01*
Y10547D01*
X10326D01*
Y10531D01*
D02*
G37*
G36*
X12813Y20507D02*
X12797Y20489D01*
X12782Y20469D01*
X12770Y20448D01*
X12759Y20425D01*
X12750Y20401D01*
X12742Y20375D01*
X12737Y20347D01*
X12733Y20317D01*
X12731Y20286D01*
X12730Y20253D01*
X12453Y20530D01*
X12486Y20531D01*
X12517Y20533D01*
X12547Y20537D01*
X12575Y20542D01*
X12601Y20550D01*
X12625Y20559D01*
X12648Y20570D01*
X12669Y20582D01*
X12689Y20597D01*
X12707Y20613D01*
X12813Y20507D01*
D02*
G37*
G36*
X33992Y32812D02*
X34174Y32736D01*
X34337Y32627D01*
X34477Y32487D01*
X34586Y32324D01*
X34662Y32142D01*
X34700Y31948D01*
Y31850D01*
Y9850D01*
Y9752D01*
X34662Y9558D01*
X34586Y9376D01*
X34477Y9213D01*
X34337Y9073D01*
X34174Y8964D01*
X33992Y8888D01*
X33798Y8850D01*
X29732D01*
X27886Y10696D01*
X27829Y10740D01*
X27762Y10768D01*
X27690Y10777D01*
X23814D01*
X23768Y10779D01*
X23716Y10783D01*
X23672Y10790D01*
X23637Y10800D01*
X23612Y10810D01*
X23597Y10820D01*
X23588Y10827D01*
X23585Y10833D01*
X23582Y10839D01*
X23580Y10861D01*
X23580Y10861D01*
Y11220D01*
X22679D01*
Y9780D01*
X23580D01*
Y10139D01*
X23580Y10139D01*
X23582Y10161D01*
X23585Y10167D01*
X23588Y10173D01*
X23597Y10180D01*
X23612Y10190D01*
X23637Y10200D01*
X23672Y10209D01*
X23716Y10217D01*
X23768Y10221D01*
X23814Y10223D01*
X27575D01*
X28902Y8896D01*
X28882Y8850D01*
X17487D01*
X17446Y8896D01*
Y11626D01*
X17437Y11667D01*
X17414Y11702D01*
X17379Y11725D01*
X17339Y11733D01*
X4254D01*
X4213Y11725D01*
X4178Y11702D01*
X4155Y11667D01*
X4146Y11626D01*
Y8896D01*
X4105Y8850D01*
X2316D01*
X2123Y8888D01*
X1941Y8964D01*
X1777Y9073D01*
X1707Y9143D01*
X793Y10057D01*
X723Y10127D01*
X614Y10291D01*
X538Y10473D01*
X500Y10666D01*
Y10764D01*
Y31086D01*
Y31184D01*
X538Y31377D01*
X614Y31559D01*
X723Y31723D01*
X793Y31793D01*
Y31793D01*
X1557Y32557D01*
X1627Y32627D01*
X1791Y32736D01*
X1973Y32812D01*
X2166Y32850D01*
X8442D01*
X8458Y32803D01*
X8441Y32789D01*
X8351Y32672D01*
X8310Y32574D01*
X8332Y32583D01*
X8369Y32602D01*
X8406Y32624D01*
X8442Y32650D01*
X8477Y32679D01*
X8511Y32712D01*
Y32440D01*
X8840D01*
Y32340D01*
X8511D01*
Y32068D01*
X8477Y32101D01*
X8442Y32130D01*
X8406Y32156D01*
X8369Y32178D01*
X8332Y32197D01*
X8310Y32206D01*
X8351Y32108D01*
X8441Y31991D01*
X8532Y31920D01*
Y31860D01*
X8441Y31789D01*
X8351Y31672D01*
X8294Y31536D01*
X8275Y31390D01*
X8294Y31244D01*
X8351Y31108D01*
X8441Y30991D01*
X8558Y30901D01*
X8694Y30844D01*
X8840Y30825D01*
X8986Y30844D01*
X9122Y30901D01*
X9239Y30991D01*
X9310Y31082D01*
X9370D01*
X9441Y30991D01*
X9457Y30978D01*
X9490Y30944D01*
X9565Y30859D01*
X9593Y30822D01*
X9616Y30787D01*
X9635Y30754D01*
X9648Y30725D01*
X9657Y30700D01*
X9661Y30678D01*
X9662Y30676D01*
Y30410D01*
X9675Y30342D01*
X9714Y30284D01*
X11322Y28676D01*
Y20200D01*
X11335Y20132D01*
X11374Y20074D01*
X12027Y19421D01*
X12033Y19413D01*
X12040Y19400D01*
X12047Y19386D01*
X12053Y19369D01*
X12058Y19351D01*
X12063Y19330D01*
X12066Y19307D01*
X12068Y19281D01*
X12068Y19259D01*
X12067Y19250D01*
X12080Y19151D01*
X12118Y19058D01*
X12179Y18979D01*
X12258Y18918D01*
X12351Y18880D01*
X12450Y18867D01*
X12549Y18880D01*
X12642Y18918D01*
X12721Y18979D01*
X12782Y19058D01*
X12820Y19151D01*
X12833Y19250D01*
X12820Y19349D01*
X12782Y19442D01*
X12721Y19521D01*
X12642Y19582D01*
X12549Y19620D01*
X12450Y19633D01*
X12441Y19632D01*
X12419Y19632D01*
X12393Y19634D01*
X12370Y19637D01*
X12349Y19642D01*
X12331Y19647D01*
X12314Y19653D01*
X12300Y19660D01*
X12287Y19667D01*
X12279Y19673D01*
X11678Y20274D01*
Y28750D01*
X11678Y28750D01*
X11665Y28818D01*
X11626Y28876D01*
X11626Y28876D01*
X10018Y30484D01*
Y30676D01*
X10019Y30678D01*
X10023Y30700D01*
X10032Y30725D01*
X10045Y30754D01*
X10064Y30787D01*
X10087Y30822D01*
X10115Y30859D01*
X10190Y30944D01*
X10223Y30978D01*
X10239Y30991D01*
X10310Y31082D01*
X10370D01*
X10441Y30991D01*
X10457Y30978D01*
X10490Y30944D01*
X10565Y30859D01*
X10593Y30822D01*
X10616Y30787D01*
X10635Y30754D01*
X10648Y30725D01*
X10657Y30700D01*
X10661Y30678D01*
X10662Y30676D01*
Y30505D01*
X10675Y30437D01*
X10714Y30379D01*
X13272Y27821D01*
Y26670D01*
X13270Y26660D01*
X13266Y26646D01*
X13261Y26631D01*
X13254Y26615D01*
X13244Y26598D01*
X13233Y26580D01*
X13218Y26562D01*
X13202Y26543D01*
X13186Y26527D01*
X13179Y26521D01*
X13118Y26442D01*
X13080Y26349D01*
X13067Y26250D01*
X13080Y26151D01*
X13118Y26058D01*
X13179Y25979D01*
X13258Y25918D01*
X13351Y25880D01*
X13450Y25867D01*
X13549Y25880D01*
X13642Y25918D01*
X13721Y25979D01*
X13782Y26058D01*
X13820Y26151D01*
X13833Y26250D01*
X13820Y26349D01*
X13782Y26442D01*
X13721Y26521D01*
X13714Y26527D01*
X13698Y26543D01*
X13682Y26562D01*
X13667Y26580D01*
X13656Y26598D01*
X13646Y26615D01*
X13639Y26631D01*
X13634Y26646D01*
X13630Y26660D01*
X13628Y26670D01*
Y27895D01*
X13615Y27963D01*
X13576Y28021D01*
X13576Y28021D01*
X11018Y30579D01*
Y30676D01*
X11019Y30678D01*
X11023Y30700D01*
X11032Y30725D01*
X11045Y30754D01*
X11064Y30787D01*
X11087Y30822D01*
X11115Y30859D01*
X11190Y30944D01*
X11223Y30978D01*
X11239Y30991D01*
X11329Y31108D01*
X11386Y31244D01*
X11405Y31390D01*
X11386Y31536D01*
X11329Y31672D01*
X11239Y31789D01*
X11148Y31860D01*
Y31920D01*
X11239Y31991D01*
X11329Y32108D01*
X11386Y32244D01*
X11405Y32390D01*
X11386Y32536D01*
X11329Y32672D01*
X11239Y32789D01*
X11222Y32803D01*
X11238Y32850D01*
X12148D01*
X12155Y32840D01*
X14722Y30273D01*
Y21474D01*
X14176Y20928D01*
X13733D01*
X13717Y20976D01*
X13721Y20979D01*
X13782Y21058D01*
X13820Y21151D01*
X13827Y21200D01*
X13073D01*
X13080Y21151D01*
X13118Y21058D01*
X13179Y20979D01*
X13183Y20976D01*
X13167Y20928D01*
X12950D01*
X12950Y20928D01*
X12882Y20915D01*
X12824Y20876D01*
X12824Y20876D01*
X12621Y20673D01*
X12613Y20667D01*
X12600Y20660D01*
X12586Y20653D01*
X12569Y20647D01*
X12551Y20642D01*
X12530Y20637D01*
X12507Y20634D01*
X12481Y20632D01*
X12459Y20632D01*
X12450Y20633D01*
X12351Y20620D01*
X12258Y20582D01*
X12179Y20521D01*
X12118Y20442D01*
X12080Y20349D01*
X12067Y20250D01*
X12080Y20151D01*
X12118Y20058D01*
X12179Y19979D01*
X12258Y19918D01*
X12351Y19880D01*
X12450Y19867D01*
X12549Y19880D01*
X12642Y19918D01*
X12721Y19979D01*
X12782Y20058D01*
X12820Y20151D01*
X12833Y20250D01*
X12832Y20259D01*
X12832Y20281D01*
X12834Y20307D01*
X12837Y20330D01*
X12842Y20351D01*
X12847Y20369D01*
X12853Y20386D01*
X12860Y20400D01*
X12867Y20413D01*
X12873Y20421D01*
X13024Y20572D01*
X13167D01*
X13183Y20524D01*
X13179Y20521D01*
X13118Y20442D01*
X13080Y20349D01*
X13067Y20250D01*
X13080Y20151D01*
X13118Y20058D01*
X13179Y19979D01*
X13258Y19918D01*
X13351Y19880D01*
X13450Y19867D01*
X13549Y19880D01*
X13642Y19918D01*
X13721Y19979D01*
X13782Y20058D01*
X13820Y20151D01*
X13833Y20250D01*
X13820Y20349D01*
X13782Y20442D01*
X13721Y20521D01*
X13717Y20524D01*
X13733Y20572D01*
X14250D01*
X14318Y20585D01*
X14376Y20624D01*
X15026Y21274D01*
X15065Y21332D01*
X15078Y21400D01*
X15078Y21400D01*
Y30325D01*
X15065Y30393D01*
X15026Y30451D01*
X14968Y30490D01*
X14965Y30490D01*
X12652Y32804D01*
X12671Y32850D01*
X33798D01*
X33992Y32812D01*
D02*
G37*
G36*
X13526Y26664D02*
X13530Y26640D01*
X13536Y26616D01*
X13544Y26593D01*
X13555Y26569D01*
X13569Y26545D01*
X13584Y26521D01*
X13602Y26497D01*
X13623Y26474D01*
X13646Y26450D01*
X13254D01*
X13277Y26474D01*
X13298Y26497D01*
X13316Y26521D01*
X13331Y26545D01*
X13345Y26569D01*
X13356Y26593D01*
X13364Y26616D01*
X13370Y26640D01*
X13374Y26664D01*
X13375Y26688D01*
X13525D01*
X13526Y26664D01*
D02*
G37*
G36*
X12211Y19597D02*
X12231Y19582D01*
X12252Y19570D01*
X12275Y19559D01*
X12299Y19550D01*
X12325Y19542D01*
X12353Y19537D01*
X12383Y19533D01*
X12414Y19531D01*
X12447Y19530D01*
X12170Y19253D01*
X12169Y19286D01*
X12167Y19317D01*
X12163Y19347D01*
X12158Y19375D01*
X12150Y19401D01*
X12141Y19425D01*
X12130Y19448D01*
X12118Y19469D01*
X12103Y19489D01*
X12087Y19507D01*
X12193Y19613D01*
X12211Y19597D01*
D02*
G37*
G36*
X6923Y11415D02*
X7157D01*
Y11398D01*
X7307D01*
Y11381D01*
X7374D01*
Y11365D01*
X7424D01*
Y11348D01*
X7490D01*
Y11331D01*
X7524D01*
Y11315D01*
X7540D01*
Y11298D01*
X7590D01*
Y11281D01*
X7607D01*
Y11265D01*
X7624D01*
Y11248D01*
X7657D01*
Y11231D01*
X7674D01*
Y11215D01*
X7690D01*
Y11198D01*
X7707D01*
Y11164D01*
X7724D01*
Y11131D01*
X7741D01*
Y11098D01*
X7757D01*
Y11081D01*
X7774D01*
Y10981D01*
X7791D01*
Y10781D01*
X7774D01*
Y10664D01*
X7757D01*
Y10631D01*
X7741D01*
Y10581D01*
X7724D01*
Y10531D01*
X7707D01*
Y10464D01*
X7690D01*
Y10447D01*
X7674D01*
Y10397D01*
X7657D01*
Y10330D01*
X7640D01*
Y10297D01*
X7624D01*
Y10264D01*
X7607D01*
Y10214D01*
X7590D01*
Y10180D01*
X7574D01*
Y10114D01*
X7557D01*
Y10080D01*
X7540D01*
Y10047D01*
X7524D01*
Y9997D01*
X7507D01*
Y9964D01*
X7490D01*
Y9897D01*
X7474D01*
Y9863D01*
X7457D01*
Y9830D01*
X7440D01*
Y9780D01*
X7424D01*
Y9747D01*
X7407D01*
Y9713D01*
X7390D01*
Y9680D01*
X7374D01*
Y9647D01*
X7357D01*
Y9597D01*
X7340D01*
Y9580D01*
X7324D01*
Y9563D01*
X7307D01*
Y9530D01*
X7290D01*
Y9513D01*
X7273D01*
Y9496D01*
X7257D01*
Y9463D01*
X7240D01*
Y9446D01*
X7223D01*
Y9430D01*
X7207D01*
Y9413D01*
X7190D01*
Y9396D01*
X7173D01*
Y9380D01*
X7157D01*
Y9363D01*
X7140D01*
Y9346D01*
X7107D01*
Y9330D01*
X7073D01*
Y9313D01*
X7057D01*
Y9296D01*
X7023D01*
Y9280D01*
X6973D01*
Y9263D01*
X6940D01*
Y9246D01*
X6907D01*
Y9230D01*
X6823D01*
Y9213D01*
X6773D01*
Y9196D01*
X6706D01*
Y9180D01*
X6590D01*
Y9163D01*
X6473D01*
Y9146D01*
X6339D01*
Y9130D01*
X6173D01*
Y9113D01*
X5605D01*
Y9130D01*
X4638D01*
Y9146D01*
X4354D01*
Y9196D01*
X4371D01*
Y9230D01*
X4388D01*
Y9263D01*
X4405D01*
Y9313D01*
X4421D01*
Y9380D01*
X4438D01*
Y9430D01*
X4455D01*
Y9446D01*
X4471D01*
Y9530D01*
X4488D01*
Y9563D01*
X4505D01*
Y9613D01*
X4521D01*
Y9647D01*
X4538D01*
Y9697D01*
X4555D01*
Y9747D01*
X4571D01*
Y9797D01*
X4588D01*
Y9830D01*
X4605D01*
Y9897D01*
X4621D01*
Y9947D01*
X4638D01*
Y9997D01*
X4655D01*
Y10047D01*
X4671D01*
Y10114D01*
X4688D01*
Y10147D01*
X4705D01*
Y10180D01*
X4721D01*
Y10230D01*
X4738D01*
Y10314D01*
X4755D01*
Y10330D01*
X4771D01*
Y10381D01*
X4788D01*
Y10431D01*
X4805D01*
Y10497D01*
X4822D01*
Y10531D01*
X4838D01*
Y10581D01*
X4855D01*
Y10631D01*
X4872D01*
Y10664D01*
X4888D01*
Y10731D01*
X4905D01*
Y10764D01*
X4922D01*
Y10814D01*
X4938D01*
Y10864D01*
X4955D01*
Y10914D01*
X4972D01*
Y10964D01*
X4988D01*
Y10998D01*
X5005D01*
Y11048D01*
X5022D01*
Y11114D01*
X5038D01*
Y11164D01*
X5055D01*
Y11181D01*
X5072D01*
Y11248D01*
X5088D01*
Y11315D01*
X5105D01*
Y11365D01*
X5122D01*
Y11398D01*
X5138D01*
Y11431D01*
X5155D01*
Y11415D01*
X6823D01*
Y11431D01*
X6890D01*
Y11415D01*
X6907D01*
Y11431D01*
X6923D01*
Y11415D01*
D02*
G37*
G36*
X39355Y11439D02*
X39343Y11435D01*
X39331Y11427D01*
X39322Y11417D01*
X39313Y11403D01*
X39307Y11387D01*
X39301Y11367D01*
X39298Y11345D01*
X39295Y11319D01*
X39295Y11291D01*
X39145D01*
X39144Y11319D01*
X39142Y11345D01*
X39138Y11367D01*
X39133Y11387D01*
X39126Y11403D01*
X39118Y11417D01*
X39108Y11427D01*
X39097Y11435D01*
X39084Y11439D01*
X39070Y11441D01*
X39370D01*
X39355Y11439D01*
D02*
G37*
G36*
X15497Y11398D02*
X15513D01*
Y11331D01*
X15530D01*
Y11298D01*
X15547D01*
Y11265D01*
X15563D01*
Y11181D01*
X15580D01*
Y11114D01*
X15597D01*
Y11081D01*
X15613D01*
Y11031D01*
X15630D01*
Y10981D01*
X15647D01*
Y10931D01*
X15663D01*
Y10864D01*
X15680D01*
Y10814D01*
X15697D01*
Y10798D01*
X15764D01*
Y10814D01*
X15780D01*
Y10831D01*
X15797D01*
Y10848D01*
X15814D01*
Y10864D01*
X15830D01*
Y10881D01*
X15847D01*
Y10898D01*
X15864D01*
Y10914D01*
X15897D01*
Y10931D01*
X15914D01*
Y10948D01*
X15930D01*
Y10964D01*
X15947D01*
Y10981D01*
X15964D01*
Y10998D01*
X15980D01*
Y11014D01*
X16014D01*
Y11031D01*
X16030D01*
Y11048D01*
X16047D01*
Y11064D01*
X16064D01*
Y11081D01*
X16080D01*
Y11098D01*
X16097D01*
Y11114D01*
X16114D01*
Y11131D01*
X16147D01*
Y11148D01*
X16164D01*
Y11164D01*
X16181D01*
Y11181D01*
X16197D01*
Y11198D01*
X16214D01*
Y11215D01*
X16231D01*
Y11231D01*
X16264D01*
Y11248D01*
X16281D01*
Y11265D01*
X16297D01*
Y11281D01*
X16314D01*
Y11298D01*
X16331D01*
Y11315D01*
X16347D01*
Y11331D01*
X16364D01*
Y11348D01*
X16397D01*
Y11365D01*
X16414D01*
Y11381D01*
X17215D01*
Y11365D01*
X17198D01*
Y11348D01*
X17181D01*
Y11331D01*
X17165D01*
Y11315D01*
X17131D01*
Y11298D01*
X17115D01*
Y11281D01*
X17098D01*
Y11265D01*
X17081D01*
Y11248D01*
X17065D01*
Y11231D01*
X17048D01*
Y11215D01*
X17015D01*
Y11198D01*
X16998D01*
Y11181D01*
X16981D01*
Y11164D01*
X16965D01*
Y11148D01*
X16948D01*
Y11131D01*
X16931D01*
Y11114D01*
X16914D01*
Y11098D01*
X16898D01*
Y11081D01*
X16864D01*
Y11064D01*
X16848D01*
Y11048D01*
X16831D01*
Y11031D01*
X16814D01*
Y11014D01*
X16798D01*
Y10998D01*
X16781D01*
Y10981D01*
X16764D01*
Y10964D01*
X16748D01*
Y10948D01*
X16731D01*
Y10931D01*
X16714D01*
Y10914D01*
X16681D01*
Y10898D01*
X16664D01*
Y10881D01*
X16648D01*
Y10864D01*
X16631D01*
Y10848D01*
X16614D01*
Y10831D01*
X16581D01*
Y10814D01*
X16564D01*
Y10798D01*
X16548D01*
Y10781D01*
X16531D01*
Y10764D01*
X16514D01*
Y10747D01*
X16497D01*
Y10731D01*
X16481D01*
Y10714D01*
X16464D01*
Y10697D01*
X16447D01*
Y10681D01*
X16431D01*
Y10664D01*
X16414D01*
Y10647D01*
X16397D01*
Y10631D01*
X16364D01*
Y10614D01*
X16347D01*
Y10597D01*
X16331D01*
Y10581D01*
X16314D01*
Y10564D01*
X16297D01*
Y10547D01*
X16264D01*
Y10531D01*
X16247D01*
Y10514D01*
X16231D01*
Y10497D01*
X16214D01*
Y10481D01*
X16197D01*
Y10464D01*
X16181D01*
Y10447D01*
X16147D01*
Y10414D01*
X16131D01*
Y10397D01*
X16097D01*
Y10381D01*
X16080D01*
Y10364D01*
X16064D01*
Y10347D01*
X16047D01*
Y10330D01*
X16014D01*
Y10247D01*
X16030D01*
Y10230D01*
X16047D01*
Y10180D01*
X16064D01*
Y10147D01*
X16080D01*
Y10114D01*
X16097D01*
Y10097D01*
X16114D01*
Y10047D01*
X16131D01*
Y10014D01*
X16147D01*
Y9980D01*
X16164D01*
Y9930D01*
X16181D01*
Y9897D01*
X16197D01*
Y9863D01*
X16214D01*
Y9830D01*
X16231D01*
Y9797D01*
X16247D01*
Y9747D01*
X16264D01*
Y9713D01*
X16281D01*
Y9680D01*
X16297D01*
Y9663D01*
X16314D01*
Y9630D01*
X16331D01*
Y9580D01*
X16347D01*
Y9547D01*
X16364D01*
Y9530D01*
X16381D01*
Y9480D01*
X16397D01*
Y9430D01*
X16414D01*
Y9396D01*
X16431D01*
Y9380D01*
X16447D01*
Y9330D01*
X16464D01*
Y9280D01*
X16481D01*
Y9246D01*
X16497D01*
Y9230D01*
X16514D01*
Y9180D01*
X16531D01*
Y9146D01*
X16548D01*
Y9113D01*
X15714D01*
Y9146D01*
X15697D01*
Y9196D01*
X15680D01*
Y9230D01*
X15663D01*
Y9263D01*
X15647D01*
Y9313D01*
X15630D01*
Y9346D01*
X15613D01*
Y9380D01*
X15597D01*
Y9430D01*
X15580D01*
Y9463D01*
X15563D01*
Y9513D01*
X15547D01*
Y9563D01*
X15530D01*
Y9597D01*
X15513D01*
Y9630D01*
X15497D01*
Y9663D01*
X15480D01*
Y9730D01*
X15463D01*
Y9780D01*
X15447D01*
Y9797D01*
X15380D01*
Y9780D01*
X15363D01*
Y9763D01*
X15347D01*
Y9747D01*
X15330D01*
Y9730D01*
X15313D01*
Y9713D01*
X15297D01*
Y9697D01*
X15280D01*
Y9680D01*
X15263D01*
Y9663D01*
X15246D01*
Y9647D01*
X15213D01*
Y9630D01*
X15196D01*
Y9613D01*
X15180D01*
Y9580D01*
X15146D01*
Y9563D01*
X15130D01*
Y9547D01*
X15113D01*
Y9530D01*
X15096D01*
Y9513D01*
X15080D01*
Y9496D01*
X15063D01*
Y9480D01*
X15046D01*
Y9463D01*
X15030D01*
Y9446D01*
X15013D01*
Y9430D01*
X14996D01*
Y9413D01*
X14963D01*
Y9380D01*
X14946D01*
Y9363D01*
X14930D01*
Y9346D01*
X14896D01*
Y9330D01*
X14880D01*
Y9313D01*
X14863D01*
Y9296D01*
X14846D01*
Y9280D01*
X14829D01*
Y9263D01*
X14813D01*
Y9246D01*
X14796D01*
Y9230D01*
X14779D01*
Y9213D01*
X14763D01*
Y9196D01*
X14729D01*
Y9180D01*
X14713D01*
Y9163D01*
X14696D01*
Y9146D01*
X14679D01*
Y9130D01*
X14663D01*
Y9113D01*
X11494D01*
Y9130D01*
X11510D01*
Y9196D01*
X11527D01*
Y9246D01*
X11544D01*
Y9313D01*
X11560D01*
Y9380D01*
X11577D01*
Y9396D01*
X11594D01*
Y9480D01*
X11610D01*
Y9563D01*
X11627D01*
Y9613D01*
X13979D01*
Y9597D01*
X13962D01*
Y9530D01*
X13945D01*
Y9480D01*
X13929D01*
Y9463D01*
X13912D01*
Y9413D01*
X13895D01*
Y9330D01*
X13879D01*
Y9296D01*
X13862D01*
Y9280D01*
X13845D01*
Y9213D01*
X13895D01*
Y9230D01*
X13929D01*
Y9246D01*
X13945D01*
Y9263D01*
X13962D01*
Y9280D01*
X13979D01*
Y9296D01*
X14012D01*
Y9313D01*
X14029D01*
Y9330D01*
X14046D01*
Y9346D01*
X14062D01*
Y9363D01*
X14079D01*
Y9380D01*
X14096D01*
Y9396D01*
X14112D01*
Y9413D01*
X14129D01*
Y9430D01*
X14146D01*
Y9446D01*
X14179D01*
Y9463D01*
X14196D01*
Y9480D01*
X14212D01*
Y9496D01*
X14229D01*
Y9513D01*
X14262D01*
Y9530D01*
X14279D01*
Y9547D01*
X14296D01*
Y9563D01*
X14312D01*
Y9580D01*
X14329D01*
Y9597D01*
X14346D01*
Y9613D01*
X14362D01*
Y9630D01*
X14396D01*
Y9647D01*
X14412D01*
Y9663D01*
X14429D01*
Y9680D01*
X14463D01*
Y9697D01*
X14479D01*
Y9730D01*
X14496D01*
Y9747D01*
X14529D01*
Y9763D01*
X14546D01*
Y9780D01*
X14563D01*
Y9797D01*
X14596D01*
Y9813D01*
X14613D01*
Y9830D01*
X14629D01*
Y9847D01*
X14646D01*
Y9863D01*
X14663D01*
Y9880D01*
X14679D01*
Y9897D01*
X14713D01*
Y9913D01*
X14729D01*
Y9930D01*
X14746D01*
Y9947D01*
X14763D01*
Y9964D01*
X14779D01*
Y9980D01*
X14813D01*
Y10014D01*
X14846D01*
Y10030D01*
X14863D01*
Y10047D01*
X14880D01*
Y10064D01*
X14896D01*
Y10080D01*
X14930D01*
Y10097D01*
X14946D01*
Y10114D01*
X14963D01*
Y10130D01*
X14996D01*
Y10164D01*
X15013D01*
Y10180D01*
X15046D01*
Y10197D01*
X15063D01*
Y10214D01*
X15080D01*
Y10230D01*
X15096D01*
Y10247D01*
X15130D01*
Y10264D01*
X15163D01*
Y10330D01*
X15146D01*
Y10347D01*
X15130D01*
Y10381D01*
X15113D01*
Y10414D01*
X15096D01*
Y10464D01*
X15080D01*
Y10481D01*
X15063D01*
Y10531D01*
X15046D01*
Y10564D01*
X15030D01*
Y10581D01*
X15013D01*
Y10631D01*
X14996D01*
Y10664D01*
X14980D01*
Y10697D01*
X14963D01*
Y10731D01*
X14946D01*
Y10764D01*
X14930D01*
Y10798D01*
X14913D01*
Y10831D01*
X14896D01*
Y10864D01*
X14880D01*
Y10914D01*
X14863D01*
Y10931D01*
X14846D01*
Y10948D01*
X14829D01*
Y10998D01*
X14813D01*
Y11048D01*
X14796D01*
Y11064D01*
X14779D01*
Y11081D01*
X14763D01*
Y11131D01*
X14746D01*
Y11181D01*
X14729D01*
Y11198D01*
X14713D01*
Y11231D01*
X14696D01*
Y11281D01*
X14679D01*
Y11315D01*
X14663D01*
Y11331D01*
X14646D01*
Y11365D01*
X14629D01*
Y11381D01*
X14579D01*
Y11331D01*
X14563D01*
Y11265D01*
X14546D01*
Y11231D01*
X14529D01*
Y11198D01*
X14513D01*
Y11131D01*
X14496D01*
Y11064D01*
X14479D01*
Y11031D01*
X14463D01*
Y10998D01*
X14446D01*
Y10931D01*
X14429D01*
Y10914D01*
X11677D01*
Y10898D01*
X11660D01*
Y10864D01*
X11644D01*
Y10814D01*
X11627D01*
Y10747D01*
X11610D01*
Y10697D01*
X11594D01*
Y10664D01*
X11577D01*
Y10614D01*
X11560D01*
Y10564D01*
X11544D01*
Y10514D01*
X11527D01*
Y10464D01*
X11510D01*
Y10414D01*
X11494D01*
Y10381D01*
X11477D01*
Y10330D01*
X11460D01*
Y10264D01*
X11443D01*
Y10214D01*
X11427D01*
Y10164D01*
X11410D01*
Y10097D01*
X11393D01*
Y10064D01*
X11377D01*
Y10030D01*
X11360D01*
Y9980D01*
X11343D01*
Y9913D01*
X11327D01*
Y9863D01*
X11310D01*
Y9830D01*
X11293D01*
Y9780D01*
X11277D01*
Y9713D01*
X11260D01*
Y9663D01*
X11243D01*
Y9613D01*
X11227D01*
Y9580D01*
X11210D01*
Y9496D01*
X11193D01*
Y9446D01*
X11177D01*
Y9413D01*
X11160D01*
Y9363D01*
X11143D01*
Y9280D01*
X11127D01*
Y9230D01*
X11110D01*
Y9213D01*
X11093D01*
Y9163D01*
X11077D01*
Y9113D01*
X10276D01*
Y9146D01*
X10293D01*
Y9196D01*
X10309D01*
Y9246D01*
X10326D01*
Y9296D01*
X10343D01*
Y9363D01*
X10359D01*
Y9413D01*
X10376D01*
Y9430D01*
X10393D01*
Y9513D01*
X10409D01*
Y9563D01*
X10426D01*
Y9613D01*
X10443D01*
Y9647D01*
X10459D01*
Y9713D01*
X10476D01*
Y9763D01*
X10493D01*
Y9797D01*
X10509D01*
Y9830D01*
X10526D01*
Y9913D01*
X10543D01*
Y9947D01*
X10559D01*
Y9997D01*
X10576D01*
Y10047D01*
X10593D01*
Y10114D01*
X10609D01*
Y10147D01*
X10626D01*
Y10197D01*
X10643D01*
Y10247D01*
X10660D01*
Y10297D01*
X10676D01*
Y10347D01*
X10693D01*
Y10414D01*
X10710D01*
Y10481D01*
X10726D01*
Y10531D01*
X10743D01*
Y10564D01*
X10760D01*
Y10614D01*
X10776D01*
Y10697D01*
X10793D01*
Y10731D01*
X10810D01*
Y10781D01*
X10826D01*
Y10831D01*
X10843D01*
Y10898D01*
X9775D01*
Y10914D01*
X9459D01*
Y10898D01*
X9442D01*
Y10914D01*
X8124D01*
Y10931D01*
X8141D01*
Y10964D01*
X8158D01*
Y11014D01*
X8174D01*
Y11081D01*
X8191D01*
Y11114D01*
X8208D01*
Y11164D01*
X8224D01*
Y11231D01*
X8241D01*
Y11281D01*
X8258D01*
Y11331D01*
X8274D01*
Y11365D01*
X8291D01*
Y11415D01*
X8324D01*
Y11398D01*
X15480D01*
Y11415D01*
X15497D01*
Y11398D01*
D02*
G37*
G36*
X38211Y5219D02*
X38225Y5085D01*
X38238Y5031D01*
X38253Y4985D01*
X38272Y4947D01*
X38295Y4918D01*
X38321Y4897D01*
X38351Y4885D01*
X38384Y4881D01*
X37685D01*
X37718Y4885D01*
X37748Y4897D01*
X37774Y4918D01*
X37797Y4947D01*
X37816Y4985D01*
X37832Y5031D01*
X37844Y5085D01*
X37853Y5148D01*
X37858Y5219D01*
X37860Y5298D01*
X38210D01*
X38211Y5219D01*
D02*
G37*
G36*
X69850Y29789D02*
Y11739D01*
X69036Y11100D01*
X67798D01*
X67769Y11135D01*
X67658Y11226D01*
X67531Y11294D01*
X67393Y11336D01*
X67250Y11350D01*
X67107Y11336D01*
X66969Y11294D01*
X66842Y11226D01*
X66731Y11135D01*
X66702Y11100D01*
X51798D01*
X51769Y11135D01*
X51658Y11226D01*
X51531Y11294D01*
X51393Y11336D01*
X51250Y11350D01*
X51107Y11336D01*
X50969Y11294D01*
X50842Y11226D01*
X50731Y11135D01*
X50702Y11100D01*
X39398D01*
Y11323D01*
X39399Y11332D01*
X39400Y11340D01*
X39536D01*
Y12032D01*
X38903D01*
Y11340D01*
X39039D01*
X39040Y11332D01*
X39041Y11323D01*
Y11100D01*
X36193D01*
X35650Y11526D01*
Y29959D01*
X36084Y30300D01*
X50501D01*
X50512Y30285D01*
X50530Y30250D01*
X50516Y30117D01*
X50531Y29973D01*
X50572Y29836D01*
X50640Y29709D01*
X50731Y29598D01*
X50842Y29507D01*
X50969Y29439D01*
X51107Y29397D01*
X51250Y29383D01*
X51393Y29397D01*
X51531Y29439D01*
X51658Y29507D01*
X51769Y29598D01*
X51860Y29709D01*
X51928Y29836D01*
X51969Y29973D01*
X51984Y30117D01*
X51970Y30250D01*
X51988Y30285D01*
X51999Y30300D01*
X66501D01*
X66512Y30285D01*
X66530Y30250D01*
X66516Y30117D01*
X66531Y29973D01*
X66572Y29836D01*
X66640Y29709D01*
X66731Y29598D01*
X66842Y29507D01*
X66969Y29439D01*
X67107Y29397D01*
X67250Y29383D01*
X67393Y29397D01*
X67531Y29439D01*
X67658Y29507D01*
X67769Y29598D01*
X67860Y29709D01*
X67928Y29836D01*
X67969Y29973D01*
X67984Y30117D01*
X67970Y30250D01*
X67988Y30285D01*
X67999Y30300D01*
X69199D01*
X69850Y29789D01*
D02*
G37*
G36*
X10115Y31014D02*
X10036Y30924D01*
X10004Y30881D01*
X9977Y30840D01*
X9955Y30801D01*
X9937Y30763D01*
X9925Y30727D01*
X9917Y30693D01*
X9915Y30660D01*
X9765D01*
X9763Y30693D01*
X9755Y30727D01*
X9743Y30763D01*
X9725Y30801D01*
X9703Y30840D01*
X9676Y30881D01*
X9644Y30924D01*
X9565Y31014D01*
X9518Y31061D01*
X10162D01*
X10115Y31014D01*
D02*
G37*
G36*
X10254Y32976D02*
X10233Y32951D01*
X10217Y32923D01*
X10206Y32891D01*
X10200Y32856D01*
X10199Y32817D01*
X10202Y32775D01*
X10210Y32729D01*
X10223Y32680D01*
X10240Y32627D01*
X10263Y32571D01*
X9667Y32816D01*
X10152Y33030D01*
X10254Y32976D01*
D02*
G37*
G36*
X11115Y31014D02*
X11036Y30924D01*
X11004Y30881D01*
X10977Y30840D01*
X10955Y30801D01*
X10937Y30763D01*
X10925Y30727D01*
X10917Y30693D01*
X10915Y30660D01*
X10765D01*
X10763Y30693D01*
X10755Y30727D01*
X10743Y30763D01*
X10725Y30801D01*
X10703Y30840D01*
X10676Y30881D01*
X10644Y30924D01*
X10565Y31014D01*
X10518Y31061D01*
X11162D01*
X11115Y31014D01*
D02*
G37*
G36*
X43110Y5084D02*
X43113Y5056D01*
X43116Y5032D01*
X43122Y5011D01*
X43128Y4993D01*
X43137Y4978D01*
X43146Y4967D01*
X43158Y4958D01*
X43170Y4954D01*
X43184Y4952D01*
X42885D01*
X42899Y4954D01*
X42912Y4958D01*
X42923Y4967D01*
X42933Y4978D01*
X42941Y4993D01*
X42948Y5011D01*
X42953Y5032D01*
X42957Y5056D01*
X42959Y5084D01*
X42960Y5115D01*
X43110D01*
X43110Y5084D01*
D02*
G37*
G36*
X27352Y7159D02*
X27356Y7101D01*
X27363Y7049D01*
X27374Y7004D01*
X27387Y6967D01*
X27404Y6936D01*
X27423Y6912D01*
X27446Y6894D01*
X27471Y6884D01*
X27500Y6881D01*
X26900D01*
X26929Y6884D01*
X26954Y6894D01*
X26977Y6912D01*
X26996Y6936D01*
X27013Y6967D01*
X27026Y7004D01*
X27037Y7049D01*
X27044Y7101D01*
X27048Y7159D01*
X27050Y7225D01*
X27350D01*
X27352Y7159D01*
D02*
G37*
G36*
X10009Y9597D02*
X9992D01*
Y9530D01*
X9976D01*
Y9496D01*
X9959D01*
Y9463D01*
X9942D01*
Y9413D01*
X9926D01*
Y9346D01*
X9909D01*
Y9313D01*
X9892D01*
Y9280D01*
X9876D01*
Y9213D01*
X9859D01*
Y9146D01*
X7524D01*
Y9196D01*
X7540D01*
Y9230D01*
X7557D01*
Y9313D01*
X7574D01*
Y9330D01*
X7590D01*
Y9380D01*
X7607D01*
Y9446D01*
X7624D01*
Y9463D01*
X7640D01*
Y9547D01*
X7657D01*
Y9597D01*
X7674D01*
Y9613D01*
X10009D01*
Y9597D01*
D02*
G37*
G36*
X31495Y6945D02*
X31548Y6900D01*
X31597Y6863D01*
X31642Y6835D01*
X31683Y6816D01*
X31721Y6805D01*
X31755Y6803D01*
X31786Y6810D01*
X31812Y6825D01*
X31835Y6849D01*
X31415Y6281D01*
X31432Y6311D01*
X31441Y6344D01*
X31442Y6380D01*
X31435Y6419D01*
X31420Y6461D01*
X31397Y6506D01*
X31366Y6555D01*
X31327Y6606D01*
X31280Y6660D01*
X31225Y6718D01*
X31438Y6999D01*
X31495Y6945D01*
D02*
G37*
%LPC*%
G36*
X13830Y19200D02*
X13500D01*
Y18870D01*
X13830D01*
Y19200D01*
D02*
G37*
G36*
X13400D02*
X13070D01*
Y18870D01*
X13400D01*
Y19200D01*
D02*
G37*
G36*
Y19630D02*
X13070D01*
Y19300D01*
X13400D01*
Y19630D01*
D02*
G37*
G36*
X13830D02*
X13500D01*
Y19300D01*
X13830D01*
Y19630D01*
D02*
G37*
G36*
X15550Y27253D02*
X15472Y27242D01*
X15399Y27212D01*
X15336Y27164D01*
X15288Y27101D01*
X15258Y27028D01*
X15247Y26950D01*
X15258Y26872D01*
X15288Y26799D01*
X15336Y26736D01*
X15339Y26734D01*
X15345Y26727D01*
X15351Y26720D01*
X15356Y26712D01*
X15360Y26705D01*
X15364Y26697D01*
X15367Y26688D01*
X15370Y26679D01*
X15371Y26668D01*
X15372Y26667D01*
Y24450D01*
X15385Y24382D01*
X15424Y24324D01*
X22573Y17174D01*
X22575Y17173D01*
X22581Y17164D01*
X22585Y17156D01*
X22589Y17148D01*
X22593Y17139D01*
X22595Y17131D01*
X22597Y17122D01*
X22598Y17113D01*
X22598Y17104D01*
X22597Y17100D01*
X22608Y17022D01*
X22638Y16949D01*
X22686Y16886D01*
X22749Y16838D01*
X22822Y16808D01*
X22900Y16797D01*
X22978Y16808D01*
X23051Y16838D01*
X23114Y16886D01*
X23162Y16949D01*
X23192Y17022D01*
X23203Y17100D01*
X23192Y17178D01*
X23162Y17251D01*
X23114Y17314D01*
X23051Y17362D01*
X22978Y17392D01*
X22900Y17403D01*
X22896Y17402D01*
X22887Y17402D01*
X22878Y17403D01*
X22869Y17405D01*
X22861Y17407D01*
X22852Y17411D01*
X22844Y17415D01*
X22836Y17419D01*
X22827Y17425D01*
X22826Y17427D01*
X15728Y24524D01*
Y26667D01*
X15729Y26668D01*
X15730Y26679D01*
X15733Y26688D01*
X15736Y26697D01*
X15740Y26705D01*
X15744Y26712D01*
X15749Y26720D01*
X15755Y26727D01*
X15761Y26734D01*
X15764Y26736D01*
X15812Y26799D01*
X15842Y26872D01*
X15853Y26950D01*
X15842Y27028D01*
X15812Y27101D01*
X15764Y27164D01*
X15701Y27212D01*
X15628Y27242D01*
X15550Y27253D01*
D02*
G37*
G36*
X27800Y22453D02*
X27709Y22441D01*
X27623Y22406D01*
X27550Y22350D01*
X27494Y22277D01*
X27459Y22191D01*
X27447Y22100D01*
X27459Y22009D01*
X27494Y21923D01*
X27541Y21863D01*
X27541Y21862D01*
X27542Y21854D01*
X27545Y21814D01*
Y18906D01*
X20890Y12251D01*
X20835Y12168D01*
X20816Y12070D01*
Y11350D01*
X20813Y11323D01*
X20807Y11287D01*
X20800Y11259D01*
X20792Y11239D01*
X20785Y11228D01*
X20780Y11223D01*
X20778Y11222D01*
X20776Y11221D01*
X20769Y11220D01*
X20620D01*
Y9780D01*
X21521D01*
Y11220D01*
X21372D01*
X21365Y11221D01*
X21363Y11222D01*
X21361Y11223D01*
X21356Y11228D01*
X21349Y11239D01*
X21341Y11259D01*
X21334Y11287D01*
X21328Y11323D01*
X21325Y11350D01*
Y11965D01*
X27980Y18620D01*
X28036Y18702D01*
X28055Y18800D01*
Y21829D01*
X28057Y21852D01*
X28059Y21862D01*
X28059Y21863D01*
X28106Y21923D01*
X28141Y22009D01*
X28153Y22100D01*
X28141Y22191D01*
X28106Y22277D01*
X28050Y22350D01*
X27977Y22406D01*
X27891Y22441D01*
X27800Y22453D01*
D02*
G37*
G36*
X2950Y11349D02*
X2807Y11334D01*
X2669Y11293D01*
X2542Y11225D01*
X2431Y11134D01*
X2340Y11023D01*
X2272Y10896D01*
X2231Y10758D01*
X2216Y10615D01*
X2231Y10472D01*
X2272Y10334D01*
X2340Y10207D01*
X2431Y10096D01*
X2542Y10005D01*
X2669Y9937D01*
X2807Y9896D01*
X2950Y9881D01*
X3093Y9896D01*
X3231Y9937D01*
X3358Y10005D01*
X3469Y10096D01*
X3560Y10207D01*
X3628Y10334D01*
X3669Y10472D01*
X3684Y10615D01*
X3669Y10758D01*
X3628Y10896D01*
X3560Y11023D01*
X3469Y11134D01*
X3358Y11225D01*
X3231Y11293D01*
X3093Y11334D01*
X2950Y11349D01*
D02*
G37*
G36*
X18950D02*
X18807Y11334D01*
X18669Y11293D01*
X18542Y11225D01*
X18431Y11134D01*
X18340Y11023D01*
X18272Y10896D01*
X18231Y10758D01*
X18216Y10615D01*
X18231Y10472D01*
X18272Y10334D01*
X18340Y10207D01*
X18431Y10096D01*
X18542Y10005D01*
X18669Y9937D01*
X18807Y9896D01*
X18950Y9881D01*
X19093Y9896D01*
X19231Y9937D01*
X19358Y10005D01*
X19469Y10096D01*
X19560Y10207D01*
X19628Y10334D01*
X19669Y10472D01*
X19684Y10615D01*
X19669Y10758D01*
X19628Y10896D01*
X19560Y11023D01*
X19469Y11134D01*
X19358Y11225D01*
X19231Y11293D01*
X19093Y11334D01*
X18950Y11349D01*
D02*
G37*
G36*
X8950Y16265D02*
X8804Y16246D01*
X8668Y16189D01*
X8551Y16099D01*
X8461Y15982D01*
X8404Y15846D01*
X8385Y15700D01*
X8404Y15554D01*
X8461Y15418D01*
X8551Y15301D01*
X8668Y15211D01*
X8804Y15154D01*
X8950Y15135D01*
X9096Y15154D01*
X9232Y15211D01*
X9349Y15301D01*
X9420Y15392D01*
X9480D01*
X9551Y15301D01*
X9668Y15211D01*
X9804Y15154D01*
X9900Y15142D01*
Y15700D01*
Y16258D01*
X9804Y16246D01*
X9668Y16189D01*
X9551Y16099D01*
X9480Y16008D01*
X9420D01*
X9349Y16099D01*
X9232Y16189D01*
X9096Y16246D01*
X8950Y16265D01*
D02*
G37*
G36*
X10508Y15650D02*
X10000D01*
Y15142D01*
X10096Y15154D01*
X10232Y15211D01*
X10349Y15301D01*
X10439Y15418D01*
X10496Y15554D01*
X10508Y15650D01*
D02*
G37*
G36*
X10000Y16258D02*
Y15750D01*
X10508D01*
X10496Y15846D01*
X10439Y15982D01*
X10349Y16099D01*
X10232Y16189D01*
X10096Y16246D01*
X10000Y16258D01*
D02*
G37*
G36*
X12450Y25633D02*
X12351Y25620D01*
X12258Y25582D01*
X12179Y25521D01*
X12118Y25442D01*
X12080Y25349D01*
X12067Y25250D01*
X12080Y25151D01*
X12118Y25058D01*
X12179Y24979D01*
X12258Y24918D01*
X12351Y24880D01*
X12450Y24867D01*
X12549Y24880D01*
X12642Y24918D01*
X12721Y24979D01*
X12782Y25058D01*
X12820Y25151D01*
X12833Y25250D01*
X12820Y25349D01*
X12782Y25442D01*
X12721Y25521D01*
X12642Y25582D01*
X12549Y25620D01*
X12450Y25633D01*
D02*
G37*
G36*
Y26633D02*
X12351Y26620D01*
X12258Y26582D01*
X12179Y26521D01*
X12118Y26442D01*
X12080Y26349D01*
X12067Y26250D01*
X12080Y26151D01*
X12118Y26058D01*
X12179Y25979D01*
X12258Y25918D01*
X12351Y25880D01*
X12450Y25867D01*
X12549Y25880D01*
X12642Y25918D01*
X12721Y25979D01*
X12782Y26058D01*
X12820Y26151D01*
X12833Y26250D01*
X12820Y26349D01*
X12782Y26442D01*
X12721Y26521D01*
X12642Y26582D01*
X12549Y26620D01*
X12450Y26633D01*
D02*
G37*
G36*
X13450Y25633D02*
X13351Y25620D01*
X13258Y25582D01*
X13179Y25521D01*
X13118Y25442D01*
X13080Y25349D01*
X13067Y25250D01*
X13080Y25151D01*
X13118Y25058D01*
X13179Y24979D01*
X13258Y24918D01*
X13351Y24880D01*
X13450Y24867D01*
X13549Y24880D01*
X13642Y24918D01*
X13721Y24979D01*
X13782Y25058D01*
X13820Y25151D01*
X13833Y25250D01*
X13820Y25349D01*
X13782Y25442D01*
X13721Y25521D01*
X13642Y25582D01*
X13549Y25620D01*
X13450Y25633D01*
D02*
G37*
G36*
Y23633D02*
X13351Y23620D01*
X13258Y23582D01*
X13179Y23521D01*
X13118Y23442D01*
X13080Y23349D01*
X13067Y23250D01*
X13080Y23151D01*
X13118Y23058D01*
X13179Y22979D01*
X13258Y22918D01*
X13351Y22880D01*
X13450Y22867D01*
X13549Y22880D01*
X13642Y22918D01*
X13721Y22979D01*
X13782Y23058D01*
X13820Y23151D01*
X13833Y23250D01*
X13820Y23349D01*
X13782Y23442D01*
X13721Y23521D01*
X13642Y23582D01*
X13549Y23620D01*
X13450Y23633D01*
D02*
G37*
G36*
Y24633D02*
X13351Y24620D01*
X13258Y24582D01*
X13179Y24521D01*
X13118Y24442D01*
X13080Y24349D01*
X13067Y24250D01*
X13080Y24151D01*
X13118Y24058D01*
X13179Y23979D01*
X13258Y23918D01*
X13351Y23880D01*
X13450Y23867D01*
X13549Y23880D01*
X13642Y23918D01*
X13721Y23979D01*
X13782Y24058D01*
X13820Y24151D01*
X13833Y24250D01*
X13820Y24349D01*
X13782Y24442D01*
X13721Y24521D01*
X13642Y24582D01*
X13549Y24620D01*
X13450Y24633D01*
D02*
G37*
G36*
X12450D02*
X12351Y24620D01*
X12258Y24582D01*
X12179Y24521D01*
X12118Y24442D01*
X12080Y24349D01*
X12067Y24250D01*
X12080Y24151D01*
X12118Y24058D01*
X12179Y23979D01*
X12258Y23918D01*
X12351Y23880D01*
X12450Y23867D01*
X12549Y23880D01*
X12642Y23918D01*
X12721Y23979D01*
X12782Y24058D01*
X12820Y24151D01*
X12833Y24250D01*
X12820Y24349D01*
X12782Y24442D01*
X12721Y24521D01*
X12642Y24582D01*
X12549Y24620D01*
X12450Y24633D01*
D02*
G37*
G36*
X2950Y30849D02*
X2807Y30834D01*
X2669Y30793D01*
X2542Y30725D01*
X2431Y30634D01*
X2340Y30523D01*
X2272Y30396D01*
X2231Y30258D01*
X2216Y30115D01*
X2231Y29972D01*
X2272Y29834D01*
X2340Y29707D01*
X2431Y29596D01*
X2542Y29505D01*
X2669Y29437D01*
X2807Y29396D01*
X2950Y29381D01*
X3093Y29396D01*
X3231Y29437D01*
X3358Y29505D01*
X3469Y29596D01*
X3560Y29707D01*
X3628Y29834D01*
X3669Y29972D01*
X3684Y30115D01*
X3669Y30258D01*
X3628Y30396D01*
X3560Y30523D01*
X3469Y30634D01*
X3358Y30725D01*
X3231Y30793D01*
X3093Y30834D01*
X2950Y30849D01*
D02*
G37*
G36*
X34007Y32341D02*
X27125D01*
Y30250D01*
X34007D01*
Y32341D01*
D02*
G37*
G36*
X18950Y30849D02*
X18807Y30834D01*
X18669Y30793D01*
X18542Y30725D01*
X18431Y30634D01*
X18340Y30523D01*
X18272Y30396D01*
X18231Y30258D01*
X18216Y30115D01*
X18231Y29972D01*
X18272Y29834D01*
X18340Y29707D01*
X18431Y29596D01*
X18542Y29505D01*
X18669Y29437D01*
X18807Y29396D01*
X18950Y29381D01*
X19093Y29396D01*
X19231Y29437D01*
X19358Y29505D01*
X19469Y29596D01*
X19560Y29707D01*
X19628Y29834D01*
X19669Y29972D01*
X19684Y30115D01*
X19669Y30258D01*
X19628Y30396D01*
X19560Y30523D01*
X19469Y30634D01*
X19358Y30725D01*
X19231Y30793D01*
X19093Y30834D01*
X18950Y30849D01*
D02*
G37*
G36*
X12450Y23633D02*
X12351Y23620D01*
X12258Y23582D01*
X12179Y23521D01*
X12118Y23442D01*
X12080Y23349D01*
X12067Y23250D01*
X12080Y23151D01*
X12118Y23058D01*
X12179Y22979D01*
X12258Y22918D01*
X12351Y22880D01*
X12450Y22867D01*
X12549Y22880D01*
X12642Y22918D01*
X12721Y22979D01*
X12782Y23058D01*
X12820Y23151D01*
X12833Y23250D01*
X12820Y23349D01*
X12782Y23442D01*
X12721Y23521D01*
X12642Y23582D01*
X12549Y23620D01*
X12450Y23633D01*
D02*
G37*
G36*
Y21633D02*
X12351Y21620D01*
X12258Y21582D01*
X12179Y21521D01*
X12118Y21442D01*
X12080Y21349D01*
X12067Y21250D01*
X12080Y21151D01*
X12118Y21058D01*
X12179Y20979D01*
X12258Y20918D01*
X12351Y20880D01*
X12450Y20867D01*
X12549Y20880D01*
X12642Y20918D01*
X12721Y20979D01*
X12782Y21058D01*
X12820Y21151D01*
X12833Y21250D01*
X12820Y21349D01*
X12782Y21442D01*
X12721Y21521D01*
X12642Y21582D01*
X12549Y21620D01*
X12450Y21633D01*
D02*
G37*
G36*
Y22633D02*
X12351Y22620D01*
X12258Y22582D01*
X12179Y22521D01*
X12118Y22442D01*
X12080Y22349D01*
X12067Y22250D01*
X12080Y22151D01*
X12118Y22058D01*
X12179Y21979D01*
X12258Y21918D01*
X12351Y21880D01*
X12450Y21867D01*
X12549Y21880D01*
X12642Y21918D01*
X12721Y21979D01*
X12782Y22058D01*
X12820Y22151D01*
X12833Y22250D01*
X12820Y22349D01*
X12782Y22442D01*
X12721Y22521D01*
X12642Y22582D01*
X12549Y22620D01*
X12450Y22633D01*
D02*
G37*
G36*
X13500Y21627D02*
Y21300D01*
X13827D01*
X13820Y21349D01*
X13782Y21442D01*
X13721Y21521D01*
X13642Y21582D01*
X13549Y21620D01*
X13500Y21627D01*
D02*
G37*
G36*
X13400D02*
X13351Y21620D01*
X13258Y21582D01*
X13179Y21521D01*
X13118Y21442D01*
X13080Y21349D01*
X13073Y21300D01*
X13400D01*
Y21627D01*
D02*
G37*
G36*
X13450Y22633D02*
X13351Y22620D01*
X13258Y22582D01*
X13179Y22521D01*
X13118Y22442D01*
X13080Y22349D01*
X13067Y22250D01*
X13080Y22151D01*
X13118Y22058D01*
X13179Y21979D01*
X13258Y21918D01*
X13351Y21880D01*
X13450Y21867D01*
X13549Y21880D01*
X13642Y21918D01*
X13721Y21979D01*
X13782Y22058D01*
X13820Y22151D01*
X13833Y22250D01*
X13820Y22349D01*
X13782Y22442D01*
X13721Y22521D01*
X13642Y22582D01*
X13549Y22620D01*
X13450Y22633D01*
D02*
G37*
%LPD*%
G36*
X15678Y26794D02*
X15667Y26780D01*
X15657Y26766D01*
X15648Y26751D01*
X15641Y26735D01*
X15635Y26718D01*
X15631Y26701D01*
X15628Y26683D01*
X15626Y26664D01*
X15625Y26645D01*
X15475D01*
X15474Y26664D01*
X15472Y26683D01*
X15469Y26701D01*
X15465Y26718D01*
X15459Y26735D01*
X15452Y26751D01*
X15443Y26766D01*
X15433Y26780D01*
X15422Y26794D01*
X15410Y26807D01*
X15690D01*
X15678Y26794D01*
D02*
G37*
G36*
X22751Y17356D02*
X22766Y17344D01*
X22781Y17333D01*
X22796Y17324D01*
X22812Y17317D01*
X22829Y17311D01*
X22845Y17306D01*
X22862Y17302D01*
X22880Y17301D01*
X22898Y17300D01*
X22700Y17102D01*
X22699Y17120D01*
X22698Y17138D01*
X22694Y17155D01*
X22689Y17171D01*
X22683Y17188D01*
X22676Y17204D01*
X22667Y17219D01*
X22656Y17234D01*
X22644Y17249D01*
X22631Y17263D01*
X22737Y17369D01*
X22751Y17356D01*
D02*
G37*
G36*
X21222Y11362D02*
X21226Y11310D01*
X21234Y11265D01*
X21244Y11226D01*
X21258Y11193D01*
X21274Y11166D01*
X21294Y11145D01*
X21316Y11130D01*
X21342Y11121D01*
X21370Y11118D01*
X20770D01*
X20799Y11121D01*
X20824Y11130D01*
X20847Y11145D01*
X20866Y11166D01*
X20883Y11193D01*
X20896Y11226D01*
X20907Y11265D01*
X20914Y11310D01*
X20919Y11362D01*
X20920Y11419D01*
X21220D01*
X21222Y11362D01*
D02*
G37*
G36*
X27970Y21915D02*
X27966Y21907D01*
X27962Y21896D01*
X27959Y21882D01*
X27956Y21866D01*
X27952Y21827D01*
X27950Y21778D01*
X27950Y21750D01*
X27650D01*
X27650Y21778D01*
X27644Y21866D01*
X27641Y21882D01*
X27638Y21896D01*
X27634Y21907D01*
X27630Y21915D01*
X27625Y21921D01*
X27975D01*
X27970Y21915D01*
D02*
G37*
%LPC*%
G36*
X6640Y10948D02*
X5789D01*
Y10931D01*
X5772D01*
Y10898D01*
X5756D01*
Y10848D01*
X5739D01*
Y10814D01*
X5722D01*
Y10764D01*
X5706D01*
Y10714D01*
X5689D01*
Y10647D01*
X5672D01*
Y10597D01*
X5656D01*
Y10564D01*
X5639D01*
Y10497D01*
X5622D01*
Y10464D01*
X5605D01*
Y10397D01*
X5589D01*
Y10347D01*
X5572D01*
Y10280D01*
X5555D01*
Y10247D01*
X5539D01*
Y10197D01*
X5522D01*
Y10130D01*
X5505D01*
Y10064D01*
X5489D01*
Y10047D01*
X5472D01*
Y9980D01*
X5455D01*
Y9930D01*
X5439D01*
Y9897D01*
X5422D01*
Y9830D01*
X5405D01*
Y9780D01*
X5389D01*
Y9730D01*
X5372D01*
Y9713D01*
X5355D01*
Y9647D01*
X6256D01*
Y9663D01*
X6356D01*
Y9680D01*
X6423D01*
Y9697D01*
X6456D01*
Y9713D01*
X6490D01*
Y9730D01*
X6506D01*
Y9747D01*
X6540D01*
Y9763D01*
X6556D01*
Y9780D01*
X6573D01*
Y9797D01*
X6590D01*
Y9813D01*
X6623D01*
Y9863D01*
X6640D01*
Y9880D01*
X6673D01*
Y9930D01*
X6690D01*
Y9964D01*
X6706D01*
Y9997D01*
X6723D01*
Y10030D01*
X6740D01*
Y10080D01*
X6756D01*
Y10147D01*
X6773D01*
Y10180D01*
X6790D01*
Y10230D01*
X6806D01*
Y10297D01*
X6823D01*
Y10364D01*
X6840D01*
Y10414D01*
X6856D01*
Y10464D01*
X6873D01*
Y10497D01*
X6890D01*
Y10547D01*
X6907D01*
Y10631D01*
X6923D01*
Y10764D01*
X6907D01*
Y10814D01*
X6890D01*
Y10848D01*
X6856D01*
Y10864D01*
X6840D01*
Y10881D01*
X6823D01*
Y10898D01*
X6773D01*
Y10914D01*
X6723D01*
Y10931D01*
X6640D01*
Y10948D01*
D02*
G37*
G36*
X40147Y19515D02*
X39880D01*
Y19219D01*
X40147D01*
Y19515D01*
D02*
G37*
G36*
X52700Y17950D02*
X52358D01*
X52365Y17897D01*
X52405Y17801D01*
X52468Y17718D01*
X52551Y17655D01*
X52647Y17615D01*
X52700Y17608D01*
Y17950D01*
D02*
G37*
G36*
X53750Y19399D02*
X53647Y19385D01*
X53551Y19345D01*
X53468Y19282D01*
X53405Y19199D01*
X53365Y19103D01*
X53351Y19000D01*
X53365Y18897D01*
X53405Y18801D01*
X53468Y18718D01*
X53551Y18655D01*
X53647Y18615D01*
X53750Y18601D01*
X53853Y18615D01*
X53949Y18655D01*
X54032Y18718D01*
X54095Y18801D01*
X54135Y18897D01*
X54149Y19000D01*
X54135Y19103D01*
X54095Y19199D01*
X54032Y19282D01*
X53949Y19345D01*
X53853Y19385D01*
X53750Y19399D01*
D02*
G37*
G36*
X53142Y17950D02*
X52800D01*
Y17608D01*
X52853Y17615D01*
X52949Y17655D01*
X53032Y17718D01*
X53095Y17801D01*
X53135Y17897D01*
X53142Y17950D01*
D02*
G37*
G36*
X52700Y18392D02*
X52647Y18385D01*
X52551Y18345D01*
X52468Y18282D01*
X52405Y18199D01*
X52365Y18103D01*
X52358Y18050D01*
X52700D01*
Y18392D01*
D02*
G37*
G36*
X52750Y19399D02*
X52647Y19385D01*
X52551Y19345D01*
X52468Y19282D01*
X52405Y19199D01*
X52365Y19103D01*
X52351Y19000D01*
X52365Y18897D01*
X52405Y18801D01*
X52468Y18718D01*
X52551Y18655D01*
X52647Y18615D01*
X52750Y18601D01*
X52853Y18615D01*
X52949Y18655D01*
X53032Y18718D01*
X53095Y18801D01*
X53135Y18897D01*
X53149Y19000D01*
X53135Y19103D01*
X53095Y19199D01*
X53032Y19282D01*
X52949Y19345D01*
X52853Y19385D01*
X52750Y19399D01*
D02*
G37*
G36*
X52800Y18392D02*
Y18050D01*
X53142D01*
X53135Y18103D01*
X53095Y18199D01*
X53032Y18282D01*
X52949Y18345D01*
X52853Y18385D01*
X52800Y18392D01*
D02*
G37*
G36*
X40513Y19911D02*
X40247D01*
Y19615D01*
X40513D01*
Y19911D01*
D02*
G37*
G36*
X40147D02*
X39880D01*
Y19615D01*
X40147D01*
Y19911D01*
D02*
G37*
G36*
X40142Y21050D02*
X39876D01*
Y20754D01*
X40142D01*
Y21050D01*
D02*
G37*
G36*
X53750Y21399D02*
X53647Y21385D01*
X53551Y21345D01*
X53468Y21282D01*
X53405Y21199D01*
X53365Y21103D01*
X53351Y21000D01*
X53365Y20897D01*
X53405Y20801D01*
X53468Y20718D01*
X53551Y20655D01*
X53647Y20615D01*
X53750Y20601D01*
X53853Y20615D01*
X53949Y20655D01*
X54032Y20718D01*
X54038Y20726D01*
X54084Y20769D01*
X54106Y20787D01*
X54128Y20802D01*
X54147Y20815D01*
X54165Y20824D01*
X54181Y20831D01*
X54195Y20835D01*
X54205Y20837D01*
X54332D01*
X54695Y20475D01*
X54697Y20472D01*
X54701Y20465D01*
X54705Y20457D01*
X54709Y20448D01*
X54712Y20437D01*
X54715Y20426D01*
X54717Y20413D01*
X54718Y20399D01*
X54718Y20384D01*
X54717Y20380D01*
X54728Y20302D01*
X54758Y20229D01*
X54806Y20166D01*
X54869Y20118D01*
X54942Y20088D01*
X55020Y20077D01*
X55098Y20088D01*
X55171Y20118D01*
X55234Y20166D01*
X55282Y20229D01*
X55312Y20302D01*
X55323Y20380D01*
X55312Y20458D01*
X55282Y20531D01*
X55234Y20594D01*
X55171Y20642D01*
X55098Y20672D01*
X55020Y20683D01*
X55016Y20682D01*
X55001Y20682D01*
X54987Y20683D01*
X54974Y20685D01*
X54963Y20688D01*
X54952Y20691D01*
X54943Y20695D01*
X54935Y20699D01*
X54928Y20703D01*
X54925Y20705D01*
X54515Y21115D01*
X54462Y21151D01*
X54400Y21163D01*
X54205D01*
X54195Y21165D01*
X54181Y21169D01*
X54165Y21176D01*
X54147Y21185D01*
X54128Y21198D01*
X54107Y21212D01*
X54058Y21254D01*
X54038Y21273D01*
X54032Y21282D01*
X53949Y21345D01*
X53853Y21385D01*
X53750Y21399D01*
D02*
G37*
G36*
Y20399D02*
X53647Y20385D01*
X53551Y20345D01*
X53468Y20282D01*
X53405Y20199D01*
X53365Y20103D01*
X53351Y20000D01*
X53365Y19897D01*
X53405Y19801D01*
X53468Y19718D01*
X53551Y19655D01*
X53647Y19615D01*
X53750Y19601D01*
X53853Y19615D01*
X53949Y19655D01*
X54032Y19718D01*
X54095Y19801D01*
X54135Y19897D01*
X54149Y20000D01*
X54135Y20103D01*
X54095Y20199D01*
X54032Y20282D01*
X53949Y20345D01*
X53853Y20385D01*
X53750Y20399D01*
D02*
G37*
G36*
X40513Y19515D02*
X40247D01*
Y19219D01*
X40513D01*
Y19515D01*
D02*
G37*
G36*
X40400Y29054D02*
X40283Y29038D01*
X40173Y28993D01*
X40079Y28921D01*
X40007Y28827D01*
X39962Y28717D01*
X39946Y28600D01*
X39962Y28483D01*
X40007Y28373D01*
X40079Y28279D01*
X40173Y28207D01*
X40283Y28162D01*
X40400Y28146D01*
X40517Y28162D01*
X40627Y28207D01*
X40721Y28279D01*
X40729Y28289D01*
X40788Y28345D01*
X40817Y28369D01*
X40844Y28390D01*
X40870Y28406D01*
X40893Y28419D01*
X40913Y28428D01*
X40930Y28434D01*
X40943Y28437D01*
X42898D01*
X44787Y26548D01*
Y22350D01*
X44799Y22288D01*
X44835Y22235D01*
X46385Y20685D01*
X46438Y20649D01*
X46500Y20637D01*
X49407D01*
X49410Y20636D01*
X49419Y20634D01*
X49427Y20632D01*
X49436Y20628D01*
X49446Y20623D01*
X49455Y20617D01*
X49466Y20609D01*
X49477Y20600D01*
X49487Y20590D01*
X49490Y20586D01*
X49533Y20553D01*
X49516Y20503D01*
X41713D01*
X41710Y20503D01*
X41703Y20505D01*
X41694Y20508D01*
X41685Y20513D01*
X41675Y20519D01*
X41664Y20526D01*
X41636Y20549D01*
X41625Y20560D01*
X41622Y20564D01*
X41559Y20612D01*
X41486Y20642D01*
X41408Y20653D01*
X41330Y20642D01*
X41257Y20612D01*
X41194Y20564D01*
X41146Y20501D01*
X41116Y20428D01*
X41105Y20350D01*
X41116Y20272D01*
X41146Y20199D01*
X41194Y20136D01*
X41257Y20088D01*
X41330Y20058D01*
X41408Y20047D01*
X41486Y20058D01*
X41559Y20088D01*
X41622Y20136D01*
X41625Y20140D01*
X41637Y20152D01*
X41651Y20164D01*
X41663Y20173D01*
X41675Y20181D01*
X41685Y20187D01*
X41694Y20192D01*
X41703Y20195D01*
X41710Y20197D01*
X41713Y20197D01*
X50146D01*
X50204Y20209D01*
X50254Y20242D01*
X51359Y21347D01*
X52471D01*
X52488Y21297D01*
X52468Y21282D01*
X52405Y21199D01*
X52365Y21103D01*
X52351Y21000D01*
X52365Y20897D01*
X52405Y20801D01*
X52468Y20718D01*
X52551Y20655D01*
X52647Y20615D01*
X52750Y20601D01*
X52853Y20615D01*
X52949Y20655D01*
X53032Y20718D01*
X53095Y20801D01*
X53135Y20897D01*
X53149Y21000D01*
X53135Y21103D01*
X53095Y21199D01*
X53032Y21282D01*
X53012Y21297D01*
X53029Y21347D01*
X53100D01*
X53159Y21359D01*
X53208Y21392D01*
X53368Y21552D01*
X53401Y21601D01*
X53413Y21660D01*
Y21712D01*
X53460Y21728D01*
X53468Y21718D01*
X53551Y21655D01*
X53647Y21615D01*
X53750Y21601D01*
X53853Y21615D01*
X53949Y21655D01*
X54032Y21718D01*
X54038Y21725D01*
X54084Y21769D01*
X54106Y21787D01*
X54128Y21802D01*
X54147Y21815D01*
X54165Y21824D01*
X54181Y21831D01*
X54195Y21835D01*
X54205Y21837D01*
X56604D01*
X56986Y21455D01*
X56988Y21452D01*
X56993Y21445D01*
X56997Y21437D01*
X57001Y21428D01*
X57004Y21417D01*
X57006Y21406D01*
X57008Y21393D01*
X57009Y21379D01*
X57010Y21364D01*
X57009Y21360D01*
X57019Y21282D01*
X57050Y21209D01*
X57098Y21146D01*
X57160Y21098D01*
X57233Y21068D01*
X57312Y21057D01*
X57390Y21068D01*
X57463Y21098D01*
X57526Y21146D01*
X57574Y21209D01*
X57604Y21282D01*
X57614Y21360D01*
X57604Y21438D01*
X57574Y21511D01*
X57526Y21574D01*
X57463Y21622D01*
X57390Y21652D01*
X57312Y21663D01*
X57307Y21662D01*
X57293Y21662D01*
X57279Y21663D01*
X57266Y21665D01*
X57254Y21668D01*
X57244Y21671D01*
X57235Y21675D01*
X57227Y21679D01*
X57220Y21683D01*
X57217Y21685D01*
X56787Y22115D01*
X56734Y22151D01*
X56672Y22163D01*
X54205D01*
X54195Y22165D01*
X54181Y22169D01*
X54165Y22176D01*
X54147Y22185D01*
X54128Y22198D01*
X54107Y22212D01*
X54058Y22254D01*
X54038Y22273D01*
X54032Y22282D01*
X53949Y22345D01*
X53853Y22385D01*
X53750Y22399D01*
X53647Y22385D01*
X53551Y22345D01*
X53468Y22282D01*
X53460Y22272D01*
X53413Y22288D01*
Y22447D01*
X53533Y22566D01*
X53540Y22571D01*
X53552Y22577D01*
X53568Y22583D01*
X53588Y22589D01*
X53613Y22594D01*
X53639Y22598D01*
X53708Y22602D01*
X53739Y22603D01*
X53750Y22601D01*
X53853Y22615D01*
X53949Y22655D01*
X54032Y22718D01*
X54095Y22801D01*
X54135Y22897D01*
X54149Y23000D01*
X54147Y23010D01*
X54148Y23026D01*
X54150Y23047D01*
X54153Y23067D01*
X54158Y23085D01*
X54164Y23102D01*
X54171Y23119D01*
X54180Y23135D01*
X54190Y23150D01*
X54195Y23157D01*
X55624Y24586D01*
X59449D01*
X59472Y24582D01*
X59499Y24574D01*
X59528Y24562D01*
X59559Y24547D01*
X59592Y24527D01*
X59625Y24504D01*
X59700Y24440D01*
X59727Y24413D01*
X59740Y24398D01*
X59855Y24309D01*
X59988Y24254D01*
X60132Y24235D01*
X60275Y24254D01*
X60409Y24309D01*
X60524Y24398D01*
X60603Y24500D01*
X60619Y24504D01*
X60645D01*
X60661Y24500D01*
X60740Y24398D01*
X60756Y24385D01*
X60791Y24350D01*
X60869Y24263D01*
X60898Y24225D01*
X60922Y24190D01*
X60941Y24158D01*
X60955Y24130D01*
X60964Y24106D01*
X60968Y24088D01*
X60969Y24083D01*
Y23179D01*
X54952Y17163D01*
X54205D01*
X54195Y17165D01*
X54181Y17169D01*
X54165Y17176D01*
X54147Y17185D01*
X54128Y17198D01*
X54107Y17212D01*
X54058Y17254D01*
X54038Y17273D01*
X54032Y17282D01*
X53949Y17345D01*
X53853Y17385D01*
X53750Y17399D01*
X53647Y17385D01*
X53551Y17345D01*
X53473Y17286D01*
X53429Y17295D01*
X53423Y17297D01*
Y17442D01*
X53544Y17563D01*
X53552Y17569D01*
X53565Y17576D01*
X53581Y17582D01*
X53600Y17588D01*
X53623Y17593D01*
X53647Y17597D01*
X53712Y17602D01*
X53739Y17603D01*
X53750Y17601D01*
X53853Y17615D01*
X53949Y17655D01*
X54032Y17718D01*
X54095Y17801D01*
X54135Y17897D01*
X54149Y18000D01*
X54135Y18103D01*
X54095Y18199D01*
X54032Y18282D01*
X53949Y18345D01*
X53853Y18385D01*
X53750Y18399D01*
X53647Y18385D01*
X53551Y18345D01*
X53468Y18282D01*
X53405Y18199D01*
X53365Y18103D01*
X53351Y18000D01*
X53353Y17991D01*
X53351Y17927D01*
X53348Y17899D01*
X53343Y17873D01*
X53338Y17850D01*
X53332Y17831D01*
X53326Y17815D01*
X53319Y17802D01*
X53313Y17794D01*
X53145Y17625D01*
X53109Y17572D01*
X53097Y17510D01*
Y17279D01*
X53047Y17262D01*
X53032Y17282D01*
X52949Y17345D01*
X52853Y17385D01*
X52750Y17399D01*
X52741Y17397D01*
X52677Y17399D01*
X52649Y17402D01*
X52623Y17407D01*
X52600Y17412D01*
X52581Y17418D01*
X52565Y17424D01*
X52552Y17431D01*
X52544Y17437D01*
X52163Y17818D01*
Y19182D01*
X52544Y19563D01*
X52552Y19569D01*
X52565Y19576D01*
X52581Y19582D01*
X52600Y19588D01*
X52623Y19593D01*
X52647Y19597D01*
X52712Y19602D01*
X52739Y19603D01*
X52750Y19601D01*
X52853Y19615D01*
X52949Y19655D01*
X53032Y19718D01*
X53095Y19801D01*
X53135Y19897D01*
X53149Y20000D01*
X53135Y20103D01*
X53095Y20199D01*
X53032Y20282D01*
X52949Y20345D01*
X52853Y20385D01*
X52750Y20399D01*
X52647Y20385D01*
X52551Y20345D01*
X52468Y20282D01*
X52405Y20199D01*
X52365Y20103D01*
X52351Y20000D01*
X52353Y19991D01*
X52351Y19927D01*
X52348Y19899D01*
X52343Y19873D01*
X52338Y19850D01*
X52332Y19831D01*
X52326Y19815D01*
X52319Y19802D01*
X52313Y19794D01*
X52287Y19768D01*
X52279Y19761D01*
X52267Y19753D01*
X52255Y19746D01*
X52242Y19741D01*
X52229Y19736D01*
X52216Y19732D01*
X52202Y19729D01*
X52191Y19728D01*
X42285D01*
X42223Y19716D01*
X42170Y19680D01*
X41603Y19113D01*
X38779D01*
X38717Y19101D01*
X38664Y19065D01*
X37485Y17886D01*
X37449Y17833D01*
X37437Y17771D01*
Y15332D01*
X37391Y15313D01*
X36563Y16141D01*
Y27041D01*
X36566Y27055D01*
X36572Y27072D01*
X36582Y27093D01*
X36595Y27117D01*
X36613Y27144D01*
X36633Y27171D01*
X36690Y27236D01*
X36716Y27263D01*
X36728Y27272D01*
X36802Y27368D01*
X36848Y27480D01*
X36864Y27600D01*
X36848Y27720D01*
X36802Y27832D01*
X36728Y27928D01*
X36632Y28002D01*
X36520Y28048D01*
X36400Y28064D01*
X36280Y28048D01*
X36168Y28002D01*
X36072Y27928D01*
X35998Y27832D01*
X35952Y27720D01*
X35936Y27600D01*
X35952Y27480D01*
X35998Y27368D01*
X36072Y27272D01*
X36084Y27263D01*
X36110Y27236D01*
X36167Y27171D01*
X36187Y27144D01*
X36205Y27117D01*
X36218Y27093D01*
X36228Y27072D01*
X36234Y27055D01*
X36237Y27041D01*
Y16073D01*
X36249Y16011D01*
X36285Y15958D01*
X37485Y14758D01*
X38867Y13375D01*
X38876Y13365D01*
X38889Y13349D01*
X38896Y13339D01*
Y12915D01*
X39529D01*
Y13607D01*
X39102D01*
X39069Y13635D01*
X37803Y14901D01*
X37796Y14909D01*
X37788Y14921D01*
X37781Y14933D01*
X37775Y14946D01*
X37771Y14959D01*
X37767Y14972D01*
X37764Y14987D01*
X37763Y14997D01*
Y17703D01*
X38847Y18787D01*
X41141D01*
X41165Y18737D01*
X41138Y18701D01*
X41137Y18698D01*
X41130Y18688D01*
X41123Y18678D01*
X41116Y18670D01*
X41109Y18664D01*
X41104Y18659D01*
X41099Y18657D01*
X41095Y18655D01*
X41090Y18653D01*
X41088Y18653D01*
X39728D01*
X39669Y18641D01*
X39619Y18608D01*
X39366Y18354D01*
X39348Y18338D01*
X39340Y18331D01*
X38896D01*
Y17639D01*
X39529D01*
Y18080D01*
X39532Y18084D01*
X39552Y18108D01*
X39791Y18347D01*
X39837D01*
X39880Y18331D01*
X39880Y18297D01*
Y17639D01*
X40513D01*
Y17822D01*
X44947D01*
X45475Y17295D01*
X45477Y17292D01*
X45481Y17285D01*
X45485Y17277D01*
X45489Y17268D01*
X45492Y17257D01*
X45495Y17246D01*
X45497Y17233D01*
X45498Y17219D01*
X45498Y17204D01*
X45497Y17200D01*
X45508Y17122D01*
X45538Y17049D01*
X45586Y16986D01*
X45649Y16938D01*
X45722Y16908D01*
X45800Y16897D01*
X45878Y16908D01*
X45951Y16938D01*
X46014Y16986D01*
X46062Y17049D01*
X46092Y17122D01*
X46103Y17200D01*
X46092Y17278D01*
X46062Y17351D01*
X46014Y17414D01*
X45951Y17462D01*
X45878Y17492D01*
X45800Y17503D01*
X45796Y17502D01*
X45781Y17502D01*
X45767Y17503D01*
X45754Y17505D01*
X45743Y17508D01*
X45732Y17511D01*
X45723Y17515D01*
X45715Y17519D01*
X45708Y17523D01*
X45705Y17525D01*
X45130Y18100D01*
X45077Y18136D01*
X45015Y18148D01*
X40513D01*
X40513Y18331D01*
X40557Y18347D01*
X41117D01*
X41120Y18347D01*
X41128Y18345D01*
X41156Y18336D01*
X41168Y18331D01*
X41225Y18303D01*
X41245Y18291D01*
X41249Y18288D01*
X41322Y18258D01*
X41400Y18247D01*
X41478Y18258D01*
X41551Y18288D01*
X41614Y18336D01*
X41662Y18399D01*
X41692Y18472D01*
X41703Y18550D01*
X41692Y18628D01*
X41662Y18701D01*
X41635Y18737D01*
X41659Y18787D01*
X41670D01*
X41733Y18799D01*
X41786Y18835D01*
X42353Y19402D01*
X51856D01*
X51876Y19352D01*
X51849Y19312D01*
X51837Y19250D01*
Y17750D01*
X51849Y17688D01*
X51885Y17635D01*
X52313Y17206D01*
X52319Y17198D01*
X52326Y17185D01*
X52332Y17169D01*
X52338Y17150D01*
X52343Y17127D01*
X52347Y17103D01*
X52352Y17038D01*
X52353Y17011D01*
X52351Y17000D01*
X52365Y16897D01*
X52405Y16801D01*
X52468Y16718D01*
X52478Y16710D01*
X52462Y16663D01*
X48500D01*
X48500Y16663D01*
X48438Y16651D01*
X48385Y16615D01*
X46032Y14263D01*
X39668D01*
X39488Y14443D01*
X39507Y14489D01*
X39529D01*
Y15181D01*
X39102D01*
X39069Y15210D01*
X38725Y15553D01*
X38723Y15556D01*
X38719Y15563D01*
X38715Y15571D01*
X38711Y15580D01*
X38708Y15591D01*
X38705Y15602D01*
X38703Y15615D01*
X38702Y15629D01*
X38702Y15644D01*
X38703Y15648D01*
X38692Y15726D01*
X38662Y15799D01*
X38614Y15862D01*
X38551Y15910D01*
X38478Y15940D01*
X38400Y15951D01*
X38322Y15940D01*
X38249Y15910D01*
X38186Y15862D01*
X38138Y15799D01*
X38108Y15726D01*
X38097Y15648D01*
X38108Y15570D01*
X38138Y15497D01*
X38186Y15434D01*
X38249Y15386D01*
X38322Y15356D01*
X38400Y15345D01*
X38404Y15346D01*
X38419Y15346D01*
X38433Y15345D01*
X38446Y15343D01*
X38457Y15340D01*
X38468Y15337D01*
X38477Y15333D01*
X38485Y15329D01*
X38492Y15325D01*
X38495Y15323D01*
X38867Y14950D01*
X38876Y14940D01*
X38889Y14924D01*
X38896Y14914D01*
Y14489D01*
X39049D01*
Y14487D01*
X39062Y14425D01*
X39097Y14372D01*
X39485Y13985D01*
X39538Y13949D01*
X39600Y13937D01*
X46100D01*
X46162Y13949D01*
X46215Y13985D01*
X48568Y16337D01*
X52355D01*
Y16050D01*
X52750D01*
X53145D01*
Y16371D01*
X53165Y16385D01*
X53375Y16595D01*
X53411Y16648D01*
X53421Y16698D01*
X53456Y16713D01*
X53473Y16714D01*
X53551Y16655D01*
X53647Y16615D01*
X53750Y16601D01*
X53853Y16615D01*
X53949Y16655D01*
X54032Y16718D01*
X54038Y16725D01*
X54084Y16769D01*
X54106Y16787D01*
X54128Y16802D01*
X54147Y16815D01*
X54165Y16824D01*
X54181Y16831D01*
X54195Y16835D01*
X54205Y16837D01*
X55020D01*
X55082Y16849D01*
X55135Y16885D01*
X61247Y22997D01*
X61283Y23049D01*
X61295Y23112D01*
Y24083D01*
X61295Y24088D01*
X61300Y24106D01*
X61309Y24130D01*
X61322Y24158D01*
X61341Y24190D01*
X61366Y24225D01*
X61395Y24263D01*
X61473Y24350D01*
X61508Y24385D01*
X61524Y24398D01*
X61603Y24500D01*
X61619Y24504D01*
X61645D01*
X61661Y24500D01*
X61740Y24398D01*
X61855Y24309D01*
X61988Y24254D01*
X62082Y24242D01*
Y24790D01*
X62132D01*
Y24840D01*
X62680D01*
X62668Y24933D01*
X62612Y25067D01*
X62524Y25182D01*
X62422Y25261D01*
X62418Y25277D01*
Y25303D01*
X62422Y25319D01*
X62524Y25398D01*
X62612Y25512D01*
X62668Y25646D01*
X62687Y25790D01*
X62668Y25933D01*
X62612Y26067D01*
X62524Y26182D01*
X62409Y26270D01*
X62275Y26326D01*
X62230Y26332D01*
X62234Y26382D01*
X62746D01*
X63162Y25966D01*
Y22414D01*
X56926Y16178D01*
X54195D01*
X54185Y16180D01*
X54169Y16184D01*
X54153Y16190D01*
X54136Y16198D01*
X54117Y16209D01*
X54098Y16222D01*
X54077Y16238D01*
X54056Y16257D01*
X54038Y16274D01*
X54032Y16282D01*
X53949Y16345D01*
X53853Y16385D01*
X53750Y16399D01*
X53647Y16385D01*
X53551Y16345D01*
X53468Y16282D01*
X53405Y16199D01*
X53365Y16103D01*
X53351Y16000D01*
X53365Y15897D01*
X53405Y15801D01*
X53468Y15718D01*
X53551Y15655D01*
X53647Y15615D01*
X53750Y15601D01*
X53853Y15615D01*
X53949Y15655D01*
X54032Y15718D01*
X54038Y15726D01*
X54056Y15743D01*
X54077Y15762D01*
X54098Y15778D01*
X54117Y15791D01*
X54136Y15802D01*
X54153Y15810D01*
X54169Y15816D01*
X54185Y15820D01*
X54195Y15822D01*
X57000D01*
X57068Y15835D01*
X57126Y15874D01*
X63466Y22214D01*
X63505Y22272D01*
X63518Y22340D01*
X63518Y22340D01*
Y26040D01*
X63505Y26108D01*
X63466Y26166D01*
X62946Y26686D01*
X62888Y26725D01*
X62820Y26738D01*
X61560D01*
X61560Y26738D01*
X61492Y26725D01*
X61434Y26686D01*
X61256Y26508D01*
X60874Y26278D01*
X60855Y26270D01*
X60740Y26182D01*
X60661Y26080D01*
X60645Y26076D01*
X60619D01*
X60603Y26080D01*
X60524Y26182D01*
X60409Y26270D01*
X60275Y26326D01*
X60132Y26345D01*
X59988Y26326D01*
X59855Y26270D01*
X59740Y26182D01*
X59727Y26166D01*
X59699Y26139D01*
X59662Y26105D01*
X59626Y26077D01*
X59592Y26053D01*
X59559Y26033D01*
X59528Y26017D01*
X59499Y26006D01*
X59472Y25998D01*
X59449Y25994D01*
X55540D01*
X55462Y25978D01*
X55396Y25934D01*
X52907Y23445D01*
X52900Y23440D01*
X52885Y23430D01*
X52869Y23421D01*
X52852Y23414D01*
X52835Y23408D01*
X52817Y23403D01*
X52797Y23400D01*
X52776Y23398D01*
X52760Y23397D01*
X52750Y23399D01*
X52647Y23385D01*
X52551Y23345D01*
X52468Y23282D01*
X52405Y23199D01*
X52365Y23103D01*
X52351Y23000D01*
X52365Y22897D01*
X52405Y22801D01*
X52468Y22718D01*
X52551Y22655D01*
X52647Y22615D01*
X52750Y22601D01*
X52853Y22615D01*
X52949Y22655D01*
X53032Y22718D01*
X53095Y22801D01*
X53135Y22897D01*
X53149Y23000D01*
X53147Y23010D01*
X53148Y23026D01*
X53150Y23047D01*
X53153Y23067D01*
X53158Y23085D01*
X53164Y23102D01*
X53171Y23119D01*
X53180Y23135D01*
X53190Y23150D01*
X53195Y23157D01*
X55624Y25586D01*
X59449D01*
X59472Y25582D01*
X59499Y25574D01*
X59528Y25562D01*
X59559Y25547D01*
X59592Y25527D01*
X59625Y25504D01*
X59700Y25440D01*
X59727Y25413D01*
X59740Y25398D01*
X59842Y25319D01*
X59846Y25303D01*
Y25277D01*
X59842Y25261D01*
X59740Y25182D01*
X59727Y25166D01*
X59699Y25139D01*
X59662Y25105D01*
X59626Y25077D01*
X59592Y25053D01*
X59559Y25033D01*
X59528Y25017D01*
X59499Y25006D01*
X59472Y24998D01*
X59449Y24994D01*
X55540D01*
X55462Y24978D01*
X55396Y24934D01*
X53907Y23445D01*
X53900Y23440D01*
X53885Y23430D01*
X53869Y23421D01*
X53852Y23414D01*
X53835Y23408D01*
X53817Y23403D01*
X53797Y23400D01*
X53776Y23398D01*
X53760Y23397D01*
X53750Y23399D01*
X53647Y23385D01*
X53551Y23345D01*
X53468Y23282D01*
X53405Y23199D01*
X53365Y23103D01*
X53351Y23000D01*
X53353Y22989D01*
X53352Y22958D01*
X53348Y22889D01*
X53344Y22863D01*
X53339Y22838D01*
X53333Y22818D01*
X53327Y22802D01*
X53321Y22790D01*
X53316Y22783D01*
X53152Y22618D01*
X53119Y22569D01*
X53107Y22510D01*
Y22266D01*
X53057Y22249D01*
X53032Y22282D01*
X52949Y22345D01*
X52853Y22385D01*
X52750Y22399D01*
X52647Y22385D01*
X52551Y22345D01*
X52468Y22282D01*
X52462Y22273D01*
X52440Y22252D01*
X52387Y22206D01*
X52366Y22190D01*
X52345Y22176D01*
X52327Y22166D01*
X52311Y22159D01*
X52298Y22155D01*
X52290Y22153D01*
X48600D01*
X48541Y22141D01*
X48492Y22108D01*
X48357Y21974D01*
X48355Y21972D01*
X48348Y21968D01*
X48341Y21965D01*
X48331Y21961D01*
X48319Y21958D01*
X48307Y21956D01*
X48271Y21952D01*
X48255Y21952D01*
X48250Y21953D01*
X48172Y21942D01*
X48099Y21912D01*
X48036Y21864D01*
X47988Y21801D01*
X47958Y21728D01*
X47947Y21650D01*
X47958Y21572D01*
X47988Y21499D01*
X48036Y21436D01*
X48099Y21388D01*
X48172Y21358D01*
X48250Y21347D01*
X48328Y21358D01*
X48401Y21388D01*
X48464Y21436D01*
X48512Y21499D01*
X48542Y21572D01*
X48553Y21650D01*
X48552Y21655D01*
X48552Y21672D01*
X48553Y21690D01*
X48555Y21706D01*
X48558Y21719D01*
X48561Y21731D01*
X48565Y21741D01*
X48568Y21748D01*
X48572Y21755D01*
X48574Y21757D01*
X48663Y21847D01*
X52290D01*
X52298Y21845D01*
X52311Y21841D01*
X52327Y21834D01*
X52345Y21824D01*
X52366Y21810D01*
X52387Y21794D01*
X52440Y21748D01*
X52462Y21727D01*
X52468Y21718D01*
X52488Y21703D01*
X52471Y21653D01*
X51296D01*
X51237Y21641D01*
X51188Y21608D01*
X50083Y20503D01*
X49892D01*
X49875Y20553D01*
X49918Y20586D01*
X49966Y20649D01*
X49996Y20722D01*
X50007Y20800D01*
X49996Y20878D01*
X49966Y20951D01*
X49918Y21014D01*
X49855Y21062D01*
X49782Y21092D01*
X49704Y21103D01*
X49626Y21092D01*
X49553Y21062D01*
X49490Y21014D01*
X49487Y21010D01*
X49477Y21000D01*
X49466Y20991D01*
X49455Y20983D01*
X49446Y20977D01*
X49436Y20972D01*
X49427Y20968D01*
X49419Y20966D01*
X49410Y20964D01*
X49407Y20963D01*
X46568D01*
X45113Y22418D01*
Y26616D01*
X45101Y26678D01*
X45065Y26731D01*
X43081Y28715D01*
X43028Y28751D01*
X42966Y28763D01*
X40943D01*
X40930Y28766D01*
X40913Y28772D01*
X40893Y28781D01*
X40870Y28794D01*
X40844Y28810D01*
X40818Y28830D01*
X40755Y28885D01*
X40730Y28910D01*
X40721Y28921D01*
X40627Y28993D01*
X40517Y29038D01*
X40400Y29054D01*
D02*
G37*
G36*
X40513Y13607D02*
X39880D01*
Y12915D01*
X40513D01*
Y13137D01*
X44603D01*
X44606Y13136D01*
X44615Y13134D01*
X44623Y13132D01*
X44632Y13128D01*
X44642Y13123D01*
X44652Y13117D01*
X44662Y13109D01*
X44673Y13100D01*
X44683Y13090D01*
X44686Y13086D01*
X44749Y13038D01*
X44822Y13008D01*
X44900Y12997D01*
X44978Y13008D01*
X45051Y13038D01*
X45114Y13086D01*
X45162Y13149D01*
X45192Y13222D01*
X45203Y13300D01*
X45192Y13378D01*
X45162Y13451D01*
X45114Y13514D01*
X45051Y13562D01*
X44978Y13592D01*
X44900Y13603D01*
X44822Y13592D01*
X44749Y13562D01*
X44686Y13514D01*
X44683Y13510D01*
X44673Y13500D01*
X44662Y13491D01*
X44652Y13483D01*
X44642Y13477D01*
X44632Y13472D01*
X44623Y13468D01*
X44615Y13466D01*
X44606Y13464D01*
X44603Y13463D01*
X40513D01*
Y13607D01*
D02*
G37*
G36*
X59832Y13045D02*
X59688Y13026D01*
X59555Y12970D01*
X59440Y12882D01*
X59361Y12780D01*
X59345Y12776D01*
X59319D01*
X59303Y12780D01*
X59224Y12882D01*
X59109Y12970D01*
X58975Y13026D01*
X58832Y13045D01*
X58688Y13026D01*
X58555Y12970D01*
X58440Y12882D01*
X58351Y12767D01*
X58296Y12633D01*
X58277Y12490D01*
X58296Y12346D01*
X58351Y12212D01*
X58440Y12098D01*
X58555Y12009D01*
X58688Y11954D01*
X58832Y11935D01*
X58975Y11954D01*
X59109Y12009D01*
X59224Y12098D01*
X59303Y12200D01*
X59319Y12204D01*
X59345D01*
X59361Y12200D01*
X59440Y12098D01*
X59555Y12009D01*
X59688Y11954D01*
X59832Y11935D01*
X59975Y11954D01*
X60109Y12009D01*
X60224Y12098D01*
X60312Y12212D01*
X60368Y12346D01*
X60387Y12490D01*
X60368Y12633D01*
X60312Y12767D01*
X60224Y12882D01*
X60109Y12970D01*
X59975Y13026D01*
X59832Y13045D01*
D02*
G37*
G36*
X40513Y15181D02*
X39880D01*
Y14489D01*
X40513D01*
Y14682D01*
X44560D01*
X44563Y14682D01*
X44570Y14680D01*
X44578Y14677D01*
X44587Y14673D01*
X44598Y14667D01*
X44608Y14660D01*
X44636Y14637D01*
X44648Y14625D01*
X44651Y14621D01*
X44713Y14573D01*
X44786Y14543D01*
X44865Y14533D01*
X44943Y14543D01*
X45016Y14573D01*
X45079Y14621D01*
X45127Y14684D01*
X45157Y14757D01*
X45167Y14835D01*
X45157Y14914D01*
X45127Y14987D01*
X45079Y15049D01*
X45016Y15097D01*
X44943Y15128D01*
X44865Y15138D01*
X44786Y15128D01*
X44713Y15097D01*
X44651Y15049D01*
X44648Y15046D01*
X44635Y15033D01*
X44622Y15022D01*
X44609Y15012D01*
X44598Y15004D01*
X44587Y14998D01*
X44578Y14994D01*
X44570Y14991D01*
X44563Y14989D01*
X44560Y14988D01*
X40513D01*
Y15181D01*
D02*
G37*
G36*
X62930Y15240D02*
X62432D01*
Y14742D01*
X62525Y14754D01*
X62659Y14809D01*
X62774Y14898D01*
X62862Y15012D01*
X62918Y15146D01*
X62930Y15240D01*
D02*
G37*
G36*
X62332D02*
X61834D01*
X61846Y15146D01*
X61901Y15012D01*
X61990Y14898D01*
X62105Y14809D01*
X62238Y14754D01*
X62332Y14742D01*
Y15240D01*
D02*
G37*
G36*
X40520Y12032D02*
X39887D01*
Y11340D01*
X40520D01*
Y11523D01*
X45089D01*
X45092Y11522D01*
X45100Y11520D01*
X45109Y11517D01*
X45118Y11514D01*
X45127Y11509D01*
X45137Y11502D01*
X45148Y11495D01*
X45159Y11485D01*
X45169Y11475D01*
X45172Y11472D01*
X45235Y11424D01*
X45308Y11394D01*
X45386Y11383D01*
X45464Y11394D01*
X45537Y11424D01*
X45600Y11472D01*
X45648Y11535D01*
X45678Y11608D01*
X45688Y11686D01*
X45678Y11764D01*
X45648Y11837D01*
X45600Y11900D01*
X45537Y11948D01*
X45464Y11978D01*
X45386Y11988D01*
X45308Y11978D01*
X45235Y11948D01*
X45172Y11900D01*
X45169Y11896D01*
X45159Y11886D01*
X45148Y11877D01*
X45137Y11869D01*
X45127Y11863D01*
X45118Y11858D01*
X45109Y11854D01*
X45100Y11851D01*
X45092Y11849D01*
X45089Y11849D01*
X40520D01*
Y12032D01*
D02*
G37*
G36*
X40513Y16360D02*
X40247D01*
Y16064D01*
X40513D01*
Y16360D01*
D02*
G37*
G36*
X40147D02*
X39880D01*
Y16064D01*
X40147D01*
Y16360D01*
D02*
G37*
G36*
X39529Y16756D02*
X38896D01*
Y16064D01*
X39054D01*
X39062Y16025D01*
X39097Y15972D01*
X39485Y15585D01*
X39538Y15549D01*
X39600Y15537D01*
X44200D01*
X44262Y15549D01*
X44315Y15585D01*
X44805Y16075D01*
X44808Y16077D01*
X44815Y16081D01*
X44823Y16085D01*
X44832Y16089D01*
X44843Y16092D01*
X44854Y16095D01*
X44867Y16097D01*
X44881Y16098D01*
X44896Y16098D01*
X44900Y16097D01*
X44978Y16108D01*
X45051Y16138D01*
X45114Y16186D01*
X45162Y16249D01*
X45192Y16322D01*
X45203Y16400D01*
X45192Y16478D01*
X45162Y16551D01*
X45114Y16614D01*
X45051Y16662D01*
X44978Y16692D01*
X44900Y16703D01*
X44822Y16692D01*
X44749Y16662D01*
X44686Y16614D01*
X44638Y16551D01*
X44608Y16478D01*
X44597Y16400D01*
X44598Y16396D01*
X44598Y16381D01*
X44597Y16367D01*
X44595Y16354D01*
X44592Y16343D01*
X44589Y16332D01*
X44585Y16323D01*
X44581Y16315D01*
X44577Y16308D01*
X44575Y16305D01*
X44132Y15863D01*
X39668D01*
X39511Y16020D01*
X39529Y16064D01*
X39529D01*
Y16756D01*
D02*
G37*
G36*
X40513D02*
X40247D01*
Y16460D01*
X40513D01*
Y16756D01*
D02*
G37*
G36*
X40147D02*
X39880D01*
Y16460D01*
X40147D01*
Y16756D01*
D02*
G37*
G36*
X62382Y16845D02*
X62238Y16826D01*
X62105Y16770D01*
X61990Y16682D01*
X61901Y16567D01*
X61846Y16433D01*
X61827Y16290D01*
X61846Y16146D01*
X61901Y16012D01*
X61990Y15898D01*
X62092Y15819D01*
X62096Y15803D01*
Y15777D01*
X62092Y15761D01*
X61990Y15682D01*
X61901Y15567D01*
X61846Y15433D01*
X61834Y15340D01*
X62930D01*
X62918Y15433D01*
X62862Y15567D01*
X62774Y15682D01*
X62672Y15761D01*
X62668Y15777D01*
Y15803D01*
X62672Y15819D01*
X62774Y15898D01*
X62862Y16012D01*
X62918Y16146D01*
X62937Y16290D01*
X62918Y16433D01*
X62862Y16567D01*
X62774Y16682D01*
X62659Y16770D01*
X62525Y16826D01*
X62382Y16845D01*
D02*
G37*
G36*
X52700Y15950D02*
X52355D01*
Y15605D01*
X52700D01*
Y15950D01*
D02*
G37*
G36*
X53145D02*
X52800D01*
Y15605D01*
X53145D01*
Y15950D01*
D02*
G37*
G36*
X37400Y28064D02*
X37280Y28048D01*
X37168Y28002D01*
X37072Y27928D01*
X36998Y27832D01*
X36952Y27720D01*
X36936Y27600D01*
X36952Y27480D01*
X36998Y27368D01*
X37072Y27272D01*
X37084Y27263D01*
X37112Y27234D01*
X37172Y27166D01*
X37195Y27137D01*
X37214Y27110D01*
X37228Y27086D01*
X37238Y27065D01*
X37244Y27048D01*
X37247Y27036D01*
X37247Y27035D01*
Y26450D01*
X37259Y26391D01*
X37292Y26342D01*
X38742Y24892D01*
X38791Y24859D01*
X38850Y24847D01*
X39345D01*
X39348Y24847D01*
X39355Y24845D01*
X39364Y24842D01*
X39373Y24837D01*
X39383Y24831D01*
X39394Y24824D01*
X39421Y24801D01*
X39433Y24790D01*
X39436Y24786D01*
X39499Y24738D01*
X39572Y24708D01*
X39650Y24697D01*
X39703Y24704D01*
X39726Y24657D01*
X38185Y23115D01*
X38149Y23062D01*
X38137Y23000D01*
Y20478D01*
X38149Y20415D01*
X38185Y20362D01*
X38867Y19680D01*
X38876Y19669D01*
X38889Y19654D01*
X38896Y19643D01*
Y19219D01*
X39529D01*
Y19911D01*
X39102D01*
X39069Y19940D01*
X38463Y20545D01*
Y22932D01*
X40468Y24937D01*
X43503D01*
X43506Y24936D01*
X43515Y24934D01*
X43523Y24932D01*
X43532Y24928D01*
X43542Y24923D01*
X43552Y24917D01*
X43562Y24909D01*
X43573Y24900D01*
X43583Y24890D01*
X43586Y24886D01*
X43649Y24838D01*
X43722Y24808D01*
X43800Y24797D01*
X43878Y24808D01*
X43951Y24838D01*
X44014Y24886D01*
X44062Y24949D01*
X44092Y25022D01*
X44103Y25100D01*
X44092Y25178D01*
X44062Y25251D01*
X44014Y25314D01*
X43951Y25362D01*
X43878Y25392D01*
X43800Y25403D01*
X43722Y25392D01*
X43649Y25362D01*
X43586Y25314D01*
X43583Y25310D01*
X43573Y25300D01*
X43562Y25291D01*
X43552Y25283D01*
X43542Y25277D01*
X43532Y25272D01*
X43523Y25268D01*
X43515Y25266D01*
X43506Y25264D01*
X43503Y25263D01*
X40400D01*
X40338Y25251D01*
X40285Y25215D01*
X39993Y24924D01*
X39946Y24947D01*
X39953Y25000D01*
X39942Y25078D01*
X39912Y25151D01*
X39864Y25214D01*
X39801Y25262D01*
X39728Y25292D01*
X39650Y25303D01*
X39572Y25292D01*
X39499Y25262D01*
X39436Y25214D01*
X39433Y25210D01*
X39420Y25198D01*
X39407Y25186D01*
X39395Y25177D01*
X39383Y25169D01*
X39373Y25163D01*
X39364Y25158D01*
X39355Y25155D01*
X39348Y25153D01*
X39345Y25153D01*
X38913D01*
X37553Y26513D01*
Y27035D01*
X37553Y27036D01*
X37556Y27048D01*
X37562Y27065D01*
X37572Y27086D01*
X37587Y27110D01*
X37605Y27137D01*
X37628Y27166D01*
X37688Y27234D01*
X37716Y27263D01*
X37728Y27272D01*
X37802Y27368D01*
X37848Y27480D01*
X37864Y27600D01*
X37848Y27720D01*
X37802Y27832D01*
X37728Y27928D01*
X37632Y28002D01*
X37520Y28048D01*
X37400Y28064D01*
D02*
G37*
G36*
X62680Y24740D02*
X62182D01*
Y24242D01*
X62275Y24254D01*
X62409Y24309D01*
X62524Y24398D01*
X62612Y24512D01*
X62668Y24646D01*
X62680Y24740D01*
D02*
G37*
G36*
X43800Y23603D02*
X43722Y23592D01*
X43649Y23562D01*
X43586Y23514D01*
X43583Y23510D01*
X43573Y23500D01*
X43562Y23491D01*
X43552Y23483D01*
X43542Y23477D01*
X43532Y23472D01*
X43523Y23468D01*
X43515Y23466D01*
X43506Y23464D01*
X43503Y23463D01*
X41408D01*
X41345Y23451D01*
X41293Y23415D01*
X39357Y21480D01*
X39336Y21460D01*
X39319Y21447D01*
X39318Y21446D01*
X38891D01*
Y20754D01*
X39524D01*
Y21178D01*
X39531Y21187D01*
X39556Y21218D01*
X41475Y23137D01*
X43503D01*
X43506Y23136D01*
X43515Y23134D01*
X43523Y23132D01*
X43532Y23128D01*
X43542Y23123D01*
X43552Y23117D01*
X43562Y23109D01*
X43573Y23100D01*
X43583Y23090D01*
X43586Y23086D01*
X43649Y23038D01*
X43722Y23008D01*
X43800Y22997D01*
X43878Y23008D01*
X43951Y23038D01*
X44014Y23086D01*
X44062Y23149D01*
X44092Y23222D01*
X44103Y23300D01*
X44092Y23378D01*
X44062Y23451D01*
X44014Y23514D01*
X43951Y23562D01*
X43878Y23592D01*
X43800Y23603D01*
D02*
G37*
G36*
X48600Y28203D02*
X48522Y28192D01*
X48449Y28162D01*
X48386Y28114D01*
X48338Y28051D01*
X48308Y27978D01*
X48297Y27900D01*
X48308Y27822D01*
X48338Y27749D01*
X48386Y27686D01*
X48449Y27638D01*
X48522Y27608D01*
X48600Y27597D01*
X48604Y27598D01*
X48613Y27598D01*
X48622Y27597D01*
X48631Y27595D01*
X48639Y27593D01*
X48648Y27589D01*
X48656Y27585D01*
X48664Y27581D01*
X48673Y27575D01*
X48674Y27573D01*
X49422Y26826D01*
Y23683D01*
X49421Y23682D01*
X49420Y23671D01*
X49417Y23662D01*
X49414Y23653D01*
X49410Y23645D01*
X49406Y23638D01*
X49401Y23630D01*
X49395Y23623D01*
X49389Y23616D01*
X49386Y23614D01*
X49338Y23551D01*
X49308Y23478D01*
X49297Y23400D01*
X49308Y23322D01*
X49338Y23249D01*
X49386Y23186D01*
X49449Y23138D01*
X49522Y23108D01*
X49600Y23097D01*
X49678Y23108D01*
X49751Y23138D01*
X49814Y23186D01*
X49862Y23249D01*
X49892Y23322D01*
X49903Y23400D01*
X49892Y23478D01*
X49862Y23551D01*
X49814Y23614D01*
X49811Y23616D01*
X49805Y23623D01*
X49799Y23630D01*
X49794Y23638D01*
X49790Y23645D01*
X49786Y23653D01*
X49783Y23662D01*
X49780Y23671D01*
X49779Y23682D01*
X49778Y23683D01*
Y26900D01*
X49778Y26900D01*
X49765Y26968D01*
X49726Y27026D01*
X49726Y27026D01*
X48927Y27826D01*
X48925Y27827D01*
X48919Y27836D01*
X48915Y27844D01*
X48911Y27852D01*
X48907Y27861D01*
X48905Y27869D01*
X48903Y27878D01*
X48902Y27887D01*
X48902Y27896D01*
X48903Y27900D01*
X48892Y27978D01*
X48862Y28051D01*
X48814Y28114D01*
X48751Y28162D01*
X48678Y28192D01*
X48600Y28203D01*
D02*
G37*
G36*
X38350Y27550D02*
X37943D01*
X37952Y27480D01*
X37998Y27368D01*
X38072Y27272D01*
X38168Y27198D01*
X38280Y27152D01*
X38350Y27143D01*
Y27550D01*
D02*
G37*
G36*
X38400Y29064D02*
X38280Y29048D01*
X38168Y29002D01*
X38072Y28928D01*
X37998Y28832D01*
X37952Y28720D01*
X37936Y28600D01*
X37952Y28480D01*
X37998Y28368D01*
X38072Y28272D01*
X38168Y28198D01*
X38280Y28152D01*
X38400Y28136D01*
X38520Y28152D01*
X38632Y28198D01*
X38728Y28272D01*
X38802Y28368D01*
X38848Y28480D01*
X38864Y28600D01*
X38848Y28720D01*
X38802Y28832D01*
X38728Y28928D01*
X38632Y29002D01*
X38520Y29048D01*
X38400Y29064D01*
D02*
G37*
G36*
X37400D02*
X37280Y29048D01*
X37168Y29002D01*
X37072Y28928D01*
X36998Y28832D01*
X36952Y28720D01*
X36936Y28600D01*
X36952Y28480D01*
X36998Y28368D01*
X37072Y28272D01*
X37168Y28198D01*
X37280Y28152D01*
X37400Y28136D01*
X37520Y28152D01*
X37632Y28198D01*
X37728Y28272D01*
X37802Y28368D01*
X37848Y28480D01*
X37864Y28600D01*
X37848Y28720D01*
X37802Y28832D01*
X37728Y28928D01*
X37632Y29002D01*
X37520Y29048D01*
X37400Y29064D01*
D02*
G37*
G36*
X40400Y28054D02*
X40283Y28038D01*
X40173Y27993D01*
X40079Y27921D01*
X40007Y27827D01*
X39962Y27717D01*
X39946Y27600D01*
X39962Y27483D01*
X40007Y27373D01*
X40079Y27279D01*
X40173Y27207D01*
X40283Y27162D01*
X40400Y27146D01*
X40517Y27162D01*
X40627Y27207D01*
X40721Y27279D01*
X40793Y27373D01*
X40838Y27483D01*
X40854Y27600D01*
X40838Y27717D01*
X40793Y27827D01*
X40721Y27921D01*
X40627Y27993D01*
X40517Y28038D01*
X40400Y28054D01*
D02*
G37*
G36*
X38857Y27550D02*
X38450D01*
Y27143D01*
X38520Y27152D01*
X38632Y27198D01*
X38728Y27272D01*
X38802Y27368D01*
X38848Y27480D01*
X38857Y27550D01*
D02*
G37*
G36*
X38350Y28057D02*
X38280Y28048D01*
X38168Y28002D01*
X38072Y27928D01*
X37998Y27832D01*
X37952Y27720D01*
X37943Y27650D01*
X38350D01*
Y28057D01*
D02*
G37*
G36*
X36400Y29064D02*
X36280Y29048D01*
X36168Y29002D01*
X36072Y28928D01*
X35998Y28832D01*
X35952Y28720D01*
X35936Y28600D01*
X35952Y28480D01*
X35998Y28368D01*
X36072Y28272D01*
X36168Y28198D01*
X36280Y28152D01*
X36400Y28136D01*
X36520Y28152D01*
X36632Y28198D01*
X36728Y28272D01*
X36802Y28368D01*
X36848Y28480D01*
X36864Y28600D01*
X36848Y28720D01*
X36802Y28832D01*
X36728Y28928D01*
X36632Y29002D01*
X36520Y29048D01*
X36400Y29064D01*
D02*
G37*
G36*
X38450Y28057D02*
Y27650D01*
X38857D01*
X38848Y27720D01*
X38802Y27832D01*
X38728Y27928D01*
X38632Y28002D01*
X38520Y28048D01*
X38450Y28057D01*
D02*
G37*
G36*
X40142Y21446D02*
X39876D01*
Y21150D01*
X40142D01*
Y21446D01*
D02*
G37*
G36*
X40509D02*
X40242D01*
Y21150D01*
X40509D01*
Y21446D01*
D02*
G37*
G36*
Y21050D02*
X40242D01*
Y20754D01*
X40509D01*
Y21050D01*
D02*
G37*
%LPD*%
G36*
X54856Y20630D02*
X54870Y20619D01*
X54885Y20610D01*
X54901Y20602D01*
X54918Y20595D01*
X54936Y20589D01*
X54955Y20585D01*
X54975Y20582D01*
X54996Y20580D01*
X55018Y20580D01*
X54820Y20382D01*
X54820Y20404D01*
X54818Y20425D01*
X54815Y20445D01*
X54811Y20464D01*
X54805Y20482D01*
X54798Y20499D01*
X54790Y20515D01*
X54781Y20530D01*
X54770Y20544D01*
X54758Y20557D01*
X54843Y20642D01*
X54856Y20630D01*
D02*
G37*
G36*
X53989Y21179D02*
X54044Y21132D01*
X54071Y21113D01*
X54097Y21097D01*
X54122Y21083D01*
X54146Y21073D01*
X54170Y21066D01*
X54194Y21061D01*
X54216Y21060D01*
Y20940D01*
X54194Y20939D01*
X54170Y20934D01*
X54146Y20927D01*
X54122Y20917D01*
X54097Y20903D01*
X54071Y20887D01*
X54044Y20868D01*
X54017Y20846D01*
X53961Y20793D01*
Y21207D01*
X53989Y21179D01*
D02*
G37*
G36*
X61500Y26394D02*
X61476Y26366D01*
X61457Y26336D01*
X61444Y26305D01*
X61436Y26271D01*
X61434Y26236D01*
X61438Y26200D01*
X61447Y26161D01*
X61462Y26121D01*
X61483Y26079D01*
X61509Y26035D01*
X60918Y26186D01*
X61325Y26431D01*
X61500Y26394D01*
D02*
G37*
G36*
X59811Y25475D02*
X59769Y25516D01*
X59687Y25584D01*
X59647Y25612D01*
X59608Y25636D01*
X59570Y25655D01*
X59532Y25670D01*
X59495Y25681D01*
X59459Y25688D01*
X59423Y25690D01*
Y25890D01*
X59459Y25892D01*
X59495Y25898D01*
X59532Y25909D01*
X59570Y25924D01*
X59608Y25944D01*
X59647Y25967D01*
X59687Y25995D01*
X59728Y26027D01*
X59769Y26064D01*
X59811Y26105D01*
Y25475D01*
D02*
G37*
G36*
X39321Y14590D02*
X39311Y14586D01*
X39302Y14581D01*
X39294Y14574D01*
X39288Y14565D01*
X39282Y14553D01*
X39278Y14540D01*
X39275Y14525D01*
X39273Y14507D01*
X39273Y14487D01*
X39153D01*
X39152Y14507D01*
X39150Y14525D01*
X39147Y14540D01*
X39143Y14553D01*
X39138Y14565D01*
X39131Y14574D01*
X39123Y14581D01*
X39114Y14586D01*
X39104Y14590D01*
X39093Y14591D01*
X39333D01*
X39321Y14590D01*
D02*
G37*
G36*
X38994Y13565D02*
X39040Y13526D01*
X39060Y13512D01*
X39078Y13501D01*
X39094Y13494D01*
X39108Y13491D01*
X39120Y13492D01*
X39130Y13496D01*
X39137Y13504D01*
X38998Y13306D01*
X39004Y13317D01*
X39006Y13329D01*
X39005Y13342D01*
X39001Y13357D01*
X38994Y13373D01*
X38984Y13391D01*
X38971Y13410D01*
X38954Y13431D01*
X38935Y13453D01*
X38912Y13476D01*
X38968Y13590D01*
X38994Y13565D01*
D02*
G37*
G36*
X52747Y19705D02*
X52707Y19704D01*
X52635Y19699D01*
X52603Y19693D01*
X52573Y19687D01*
X52546Y19678D01*
X52521Y19668D01*
X52499Y19656D01*
X52480Y19643D01*
X52463Y19628D01*
X52378Y19713D01*
X52393Y19730D01*
X52406Y19749D01*
X52418Y19771D01*
X52428Y19796D01*
X52437Y19823D01*
X52443Y19853D01*
X52449Y19885D01*
X52452Y19920D01*
X52455Y19997D01*
X52747Y19705D01*
D02*
G37*
G36*
X41568Y20473D02*
X41603Y20444D01*
X41620Y20432D01*
X41638Y20422D01*
X41655Y20414D01*
X41671Y20408D01*
X41688Y20404D01*
X41705Y20401D01*
X41722Y20400D01*
Y20300D01*
X41705Y20299D01*
X41688Y20296D01*
X41671Y20292D01*
X41655Y20286D01*
X41638Y20278D01*
X41620Y20268D01*
X41603Y20256D01*
X41586Y20242D01*
X41568Y20227D01*
X41551Y20210D01*
Y20490D01*
X41568Y20473D01*
D02*
G37*
G36*
X40686Y28810D02*
X40754Y28751D01*
X40786Y28727D01*
X40817Y28706D01*
X40847Y28690D01*
X40876Y28677D01*
X40903Y28667D01*
X40930Y28662D01*
X40955Y28660D01*
Y28540D01*
X40930Y28538D01*
X40903Y28533D01*
X40876Y28523D01*
X40847Y28510D01*
X40817Y28494D01*
X40786Y28473D01*
X40754Y28449D01*
X40720Y28422D01*
X40650Y28355D01*
Y28845D01*
X40686Y28810D01*
D02*
G37*
G36*
X36616Y27306D02*
X36554Y27236D01*
X36529Y27202D01*
X36508Y27170D01*
X36491Y27140D01*
X36477Y27110D01*
X36468Y27082D01*
X36462Y27055D01*
X36460Y27029D01*
X36340D01*
X36338Y27055D01*
X36332Y27082D01*
X36323Y27110D01*
X36309Y27140D01*
X36292Y27170D01*
X36271Y27202D01*
X36246Y27236D01*
X36184Y27306D01*
X36148Y27343D01*
X36652D01*
X36616Y27306D01*
D02*
G37*
G36*
X49561Y20660D02*
X49545Y20675D01*
X49529Y20689D01*
X49513Y20701D01*
X49497Y20711D01*
X49480Y20720D01*
X49463Y20727D01*
X49446Y20733D01*
X49429Y20737D01*
X49411Y20739D01*
X49393Y20740D01*
Y20860D01*
X49411Y20861D01*
X49429Y20863D01*
X49446Y20867D01*
X49463Y20873D01*
X49480Y20880D01*
X49497Y20889D01*
X49513Y20899D01*
X49529Y20911D01*
X49545Y20925D01*
X49561Y20940D01*
Y20660D01*
D02*
G37*
G36*
X54142Y23251D02*
X54124Y23231D01*
X54107Y23210D01*
X54092Y23187D01*
X54080Y23164D01*
X54069Y23140D01*
X54060Y23114D01*
X54053Y23088D01*
X54049Y23061D01*
X54046Y23032D01*
X54045Y23003D01*
X53753Y23295D01*
X53782Y23296D01*
X53811Y23299D01*
X53838Y23303D01*
X53864Y23310D01*
X53890Y23319D01*
X53914Y23330D01*
X53937Y23342D01*
X53960Y23357D01*
X53981Y23374D01*
X54001Y23392D01*
X54142Y23251D01*
D02*
G37*
G36*
X52480Y17357D02*
X52499Y17344D01*
X52521Y17332D01*
X52546Y17322D01*
X52573Y17313D01*
X52603Y17307D01*
X52635Y17301D01*
X52670Y17298D01*
X52747Y17295D01*
X52455Y17003D01*
X52454Y17043D01*
X52449Y17115D01*
X52443Y17147D01*
X52437Y17177D01*
X52428Y17204D01*
X52418Y17229D01*
X52406Y17251D01*
X52393Y17270D01*
X52378Y17287D01*
X52463Y17372D01*
X52480Y17357D01*
D02*
G37*
G36*
X53989Y17179D02*
X54044Y17132D01*
X54071Y17113D01*
X54097Y17097D01*
X54122Y17083D01*
X54146Y17073D01*
X54170Y17066D01*
X54194Y17061D01*
X54216Y17060D01*
Y16940D01*
X54194Y16939D01*
X54170Y16934D01*
X54146Y16927D01*
X54122Y16917D01*
X54097Y16903D01*
X54071Y16887D01*
X54044Y16868D01*
X54017Y16846D01*
X53961Y16793D01*
Y17207D01*
X53989Y17179D01*
D02*
G37*
G36*
Y22179D02*
X54044Y22132D01*
X54071Y22113D01*
X54097Y22097D01*
X54122Y22083D01*
X54146Y22073D01*
X54170Y22066D01*
X54194Y22061D01*
X54216Y22060D01*
Y21940D01*
X54194Y21939D01*
X54170Y21934D01*
X54146Y21927D01*
X54122Y21917D01*
X54097Y21903D01*
X54071Y21887D01*
X54044Y21868D01*
X54017Y21846D01*
X53961Y21793D01*
Y22207D01*
X53989Y22179D01*
D02*
G37*
G36*
X53750Y22900D02*
X53743Y22899D01*
X53734Y22894D01*
X53723Y22888D01*
X53709Y22878D01*
X53676Y22850D01*
X53637Y22814D01*
X53747Y22705D01*
X53705Y22704D01*
X53629Y22699D01*
X53595Y22694D01*
X53564Y22688D01*
X53536Y22680D01*
X53511Y22671D01*
X53489Y22660D01*
X53470Y22648D01*
X53454Y22634D01*
X53384Y22704D01*
X53398Y22720D01*
X53410Y22739D01*
X53421Y22761D01*
X53430Y22786D01*
X53438Y22814D01*
X53444Y22845D01*
X53449Y22879D01*
X53454Y22955D01*
X53455Y22997D01*
X53564Y22888D01*
X53638Y22973D01*
X53644Y22984D01*
X53649Y22993D01*
X53650Y23000D01*
X53750Y22900D01*
D02*
G37*
G36*
X39499Y18200D02*
X39480Y18181D01*
X39450Y18146D01*
X39439Y18130D01*
X39431Y18115D01*
X39425Y18102D01*
X39422Y18089D01*
X39421Y18078D01*
X39423Y18068D01*
X39427Y18059D01*
X39316Y18229D01*
X39322Y18222D01*
X39330Y18218D01*
X39340Y18218D01*
X39352Y18220D01*
X39365Y18226D01*
X39380Y18234D01*
X39397Y18246D01*
X39415Y18261D01*
X39457Y18301D01*
X39499Y18200D01*
D02*
G37*
G36*
X41297Y18379D02*
X41274Y18392D01*
X41210Y18424D01*
X41190Y18432D01*
X41154Y18444D01*
X41137Y18447D01*
X41122Y18449D01*
X41107Y18450D01*
X41080Y18550D01*
X41098Y18551D01*
X41114Y18554D01*
X41131Y18559D01*
X41146Y18566D01*
X41161Y18575D01*
X41176Y18586D01*
X41189Y18599D01*
X41202Y18614D01*
X41215Y18631D01*
X41227Y18650D01*
X41297Y18379D01*
D02*
G37*
G36*
X40412Y18094D02*
X40416Y18083D01*
X40422Y18074D01*
X40430Y18067D01*
X40441Y18060D01*
X40455Y18055D01*
X40470Y18050D01*
X40489Y18047D01*
X40509Y18046D01*
X40532Y18045D01*
Y17925D01*
X40509Y17924D01*
X40489Y17923D01*
X40470Y17920D01*
X40455Y17915D01*
X40441Y17910D01*
X40430Y17903D01*
X40422Y17896D01*
X40416Y17887D01*
X40412Y17876D01*
X40411Y17865D01*
Y18105D01*
X40412Y18094D01*
D02*
G37*
G36*
X45636Y17450D02*
X45650Y17439D01*
X45665Y17430D01*
X45681Y17422D01*
X45698Y17415D01*
X45716Y17409D01*
X45735Y17405D01*
X45755Y17402D01*
X45776Y17400D01*
X45798Y17400D01*
X45600Y17202D01*
X45600Y17224D01*
X45598Y17245D01*
X45595Y17265D01*
X45591Y17284D01*
X45585Y17302D01*
X45578Y17319D01*
X45570Y17335D01*
X45561Y17350D01*
X45550Y17364D01*
X45538Y17377D01*
X45623Y17462D01*
X45636Y17450D01*
D02*
G37*
G36*
X53142Y23251D02*
X53124Y23231D01*
X53107Y23210D01*
X53092Y23187D01*
X53080Y23164D01*
X53069Y23140D01*
X53060Y23114D01*
X53053Y23088D01*
X53049Y23061D01*
X53046Y23032D01*
X53045Y23003D01*
X52753Y23295D01*
X52782Y23296D01*
X52811Y23299D01*
X52838Y23303D01*
X52864Y23310D01*
X52890Y23319D01*
X52914Y23330D01*
X52937Y23342D01*
X52960Y23357D01*
X52981Y23374D01*
X53001Y23392D01*
X53142Y23251D01*
D02*
G37*
G36*
X53747Y17705D02*
X53707Y17704D01*
X53635Y17699D01*
X53603Y17693D01*
X53573Y17687D01*
X53546Y17678D01*
X53521Y17668D01*
X53499Y17656D01*
X53480Y17643D01*
X53463Y17628D01*
X53378Y17713D01*
X53393Y17730D01*
X53406Y17749D01*
X53418Y17771D01*
X53428Y17796D01*
X53437Y17823D01*
X53443Y17853D01*
X53449Y17885D01*
X53452Y17920D01*
X53455Y17997D01*
X53747Y17705D01*
D02*
G37*
G36*
X57148Y21610D02*
X57162Y21599D01*
X57177Y21590D01*
X57193Y21582D01*
X57210Y21575D01*
X57228Y21569D01*
X57247Y21565D01*
X57267Y21562D01*
X57288Y21560D01*
X57310Y21560D01*
X57112Y21362D01*
X57111Y21384D01*
X57110Y21405D01*
X57107Y21425D01*
X57102Y21444D01*
X57097Y21462D01*
X57090Y21479D01*
X57082Y21495D01*
X57072Y21510D01*
X57062Y21524D01*
X57049Y21537D01*
X57134Y21622D01*
X57148Y21610D01*
D02*
G37*
G36*
X38600Y15624D02*
X38602Y15603D01*
X38605Y15583D01*
X38609Y15564D01*
X38615Y15546D01*
X38622Y15529D01*
X38630Y15513D01*
X38639Y15498D01*
X38650Y15484D01*
X38662Y15471D01*
X38577Y15386D01*
X38564Y15398D01*
X38550Y15409D01*
X38535Y15418D01*
X38519Y15426D01*
X38502Y15433D01*
X38484Y15439D01*
X38465Y15443D01*
X38445Y15446D01*
X38424Y15448D01*
X38402Y15448D01*
X38600Y15646D01*
X38600Y15624D01*
D02*
G37*
G36*
X52357Y19523D02*
X52273Y19438D01*
X52085Y19420D01*
X52100Y19436D01*
X52111Y19451D01*
X52118Y19463D01*
X52120Y19474D01*
X52119Y19484D01*
X52113Y19491D01*
X52104Y19497D01*
X52090Y19502D01*
X52072Y19504D01*
X52050Y19505D01*
X52170Y19625D01*
X52194Y19626D01*
X52217Y19628D01*
X52239Y19633D01*
X52261Y19639D01*
X52281Y19646D01*
X52302Y19656D01*
X52321Y19667D01*
X52340Y19679D01*
X52358Y19694D01*
X52375Y19710D01*
X52357Y19523D01*
D02*
G37*
G36*
X38994Y15140D02*
X39040Y15101D01*
X39060Y15086D01*
X39078Y15076D01*
X39094Y15069D01*
X39108Y15066D01*
X39120Y15067D01*
X39130Y15071D01*
X39137Y15079D01*
X38998Y14881D01*
X39004Y14892D01*
X39006Y14904D01*
X39005Y14917D01*
X39001Y14932D01*
X38994Y14948D01*
X38984Y14966D01*
X38971Y14985D01*
X38954Y15005D01*
X38935Y15027D01*
X38912Y15051D01*
X38968Y15165D01*
X38994Y15140D01*
D02*
G37*
G36*
X37660Y15018D02*
X37661Y14994D01*
X37663Y14971D01*
X37668Y14949D01*
X37674Y14928D01*
X37681Y14907D01*
X37691Y14887D01*
X37702Y14867D01*
X37714Y14849D01*
X37729Y14831D01*
X37745Y14813D01*
X37558Y14831D01*
X37455Y15103D01*
X37471Y15088D01*
X37486Y15077D01*
X37498Y15070D01*
X37509Y15068D01*
X37519Y15069D01*
X37526Y15075D01*
X37532Y15085D01*
X37537Y15098D01*
X37539Y15116D01*
X37540Y15138D01*
X37660Y15018D01*
D02*
G37*
G36*
X52539Y21793D02*
X52509Y21823D01*
X52451Y21873D01*
X52424Y21894D01*
X52398Y21911D01*
X52373Y21925D01*
X52349Y21936D01*
X52325Y21944D01*
X52303Y21948D01*
X52282Y21950D01*
Y22050D01*
X52303Y22052D01*
X52325Y22056D01*
X52349Y22064D01*
X52373Y22075D01*
X52398Y22089D01*
X52424Y22106D01*
X52451Y22127D01*
X52509Y22177D01*
X52539Y22207D01*
Y21793D01*
D02*
G37*
G36*
X53987Y16182D02*
X54012Y16159D01*
X54038Y16140D01*
X54063Y16122D01*
X54088Y16108D01*
X54114Y16096D01*
X54139Y16087D01*
X54163Y16080D01*
X54188Y16076D01*
X54213Y16075D01*
Y15925D01*
X54188Y15924D01*
X54163Y15920D01*
X54139Y15913D01*
X54114Y15904D01*
X54088Y15892D01*
X54063Y15878D01*
X54038Y15860D01*
X54012Y15841D01*
X53987Y15818D01*
X53961Y15793D01*
Y16207D01*
X53987Y16182D01*
D02*
G37*
G36*
X59811Y24475D02*
X59769Y24516D01*
X59687Y24584D01*
X59647Y24612D01*
X59608Y24636D01*
X59570Y24655D01*
X59532Y24670D01*
X59495Y24681D01*
X59459Y24688D01*
X59423Y24690D01*
Y24890D01*
X59459Y24892D01*
X59495Y24898D01*
X59532Y24909D01*
X59570Y24924D01*
X59608Y24944D01*
X59647Y24967D01*
X59687Y24995D01*
X59728Y25027D01*
X59769Y25064D01*
X59811Y25105D01*
Y24475D01*
D02*
G37*
G36*
X48507Y21836D02*
X48496Y21824D01*
X48486Y21810D01*
X48477Y21795D01*
X48470Y21779D01*
X48464Y21761D01*
X48459Y21742D01*
X48455Y21722D01*
X48452Y21700D01*
X48450Y21677D01*
X48450Y21652D01*
X48252Y21850D01*
X48277Y21850D01*
X48322Y21855D01*
X48342Y21859D01*
X48361Y21864D01*
X48379Y21870D01*
X48395Y21877D01*
X48410Y21886D01*
X48424Y21896D01*
X48436Y21907D01*
X48507Y21836D01*
D02*
G37*
G36*
X61398Y24420D02*
X61317Y24328D01*
X61284Y24285D01*
X61256Y24245D01*
X61233Y24206D01*
X61215Y24170D01*
X61202Y24136D01*
X61194Y24104D01*
X61192Y24074D01*
X61072D01*
X61069Y24104D01*
X61062Y24136D01*
X61049Y24170D01*
X61031Y24206D01*
X61008Y24245D01*
X60980Y24285D01*
X60947Y24328D01*
X60865Y24420D01*
X60817Y24468D01*
X61447D01*
X61398Y24420D01*
D02*
G37*
G36*
X44757Y13160D02*
X44741Y13175D01*
X44725Y13189D01*
X44709Y13201D01*
X44693Y13211D01*
X44676Y13220D01*
X44659Y13227D01*
X44642Y13233D01*
X44625Y13237D01*
X44607Y13239D01*
X44589Y13240D01*
Y13360D01*
X44607Y13361D01*
X44625Y13363D01*
X44642Y13367D01*
X44659Y13373D01*
X44676Y13380D01*
X44693Y13389D01*
X44709Y13399D01*
X44725Y13411D01*
X44741Y13425D01*
X44757Y13440D01*
Y13160D01*
D02*
G37*
G36*
X40412Y13409D02*
X40416Y13398D01*
X40422Y13389D01*
X40430Y13382D01*
X40441Y13375D01*
X40455Y13370D01*
X40470Y13365D01*
X40489Y13362D01*
X40509Y13361D01*
X40532Y13360D01*
Y13240D01*
X40509Y13239D01*
X40489Y13238D01*
X40470Y13235D01*
X40455Y13230D01*
X40441Y13225D01*
X40430Y13218D01*
X40422Y13211D01*
X40416Y13202D01*
X40412Y13191D01*
X40411Y13180D01*
Y13420D01*
X40412Y13409D01*
D02*
G37*
G36*
X44722Y14695D02*
X44704Y14713D01*
X44669Y14741D01*
X44652Y14753D01*
X44635Y14763D01*
X44618Y14771D01*
X44601Y14777D01*
X44584Y14782D01*
X44567Y14785D01*
X44551Y14785D01*
Y14885D01*
X44567Y14886D01*
X44584Y14889D01*
X44601Y14894D01*
X44618Y14900D01*
X44635Y14908D01*
X44652Y14918D01*
X44669Y14930D01*
X44687Y14943D01*
X44704Y14958D01*
X44722Y14975D01*
Y14695D01*
D02*
G37*
G36*
X40412Y14926D02*
X40415Y14917D01*
X40420Y14910D01*
X40427Y14903D01*
X40436Y14898D01*
X40447Y14893D01*
X40461Y14890D01*
X40476Y14887D01*
X40493Y14886D01*
X40512Y14885D01*
Y14785D01*
X40493Y14785D01*
X40476Y14783D01*
X40461Y14781D01*
X40447Y14777D01*
X40436Y14773D01*
X40427Y14767D01*
X40420Y14761D01*
X40415Y14753D01*
X40412Y14745D01*
X40411Y14735D01*
Y14935D01*
X40412Y14926D01*
D02*
G37*
G36*
X45243Y11546D02*
X45227Y11561D01*
X45211Y11575D01*
X45195Y11587D01*
X45178Y11597D01*
X45162Y11606D01*
X45145Y11613D01*
X45128Y11619D01*
X45110Y11623D01*
X45093Y11625D01*
X45075Y11626D01*
Y11746D01*
X45093Y11747D01*
X45110Y11749D01*
X45128Y11753D01*
X45145Y11759D01*
X45162Y11766D01*
X45178Y11775D01*
X45195Y11785D01*
X45211Y11797D01*
X45227Y11811D01*
X45243Y11826D01*
Y11546D01*
D02*
G37*
G36*
X40419Y11794D02*
X40423Y11784D01*
X40429Y11775D01*
X40437Y11767D01*
X40448Y11761D01*
X40462Y11755D01*
X40477Y11751D01*
X40496Y11748D01*
X40516Y11746D01*
X40539Y11746D01*
Y11626D01*
X40516Y11625D01*
X40496Y11623D01*
X40477Y11620D01*
X40462Y11616D01*
X40448Y11611D01*
X40437Y11604D01*
X40429Y11596D01*
X40423Y11587D01*
X40419Y11577D01*
X40418Y11566D01*
Y11806D01*
X40419Y11794D01*
D02*
G37*
G36*
X44898Y16200D02*
X44876Y16200D01*
X44855Y16198D01*
X44835Y16195D01*
X44816Y16191D01*
X44798Y16185D01*
X44781Y16178D01*
X44765Y16170D01*
X44750Y16161D01*
X44736Y16150D01*
X44723Y16138D01*
X44638Y16223D01*
X44650Y16236D01*
X44661Y16250D01*
X44670Y16265D01*
X44678Y16281D01*
X44685Y16298D01*
X44691Y16316D01*
X44695Y16335D01*
X44698Y16355D01*
X44700Y16376D01*
X44700Y16398D01*
X44898Y16200D01*
D02*
G37*
G36*
X39321Y16165D02*
X39311Y16162D01*
X39302Y16158D01*
X39294Y16153D01*
X39288Y16146D01*
X39282Y16137D01*
X39278Y16127D01*
X39275Y16115D01*
X39273Y16102D01*
X39273Y16087D01*
X39153D01*
X39152Y16102D01*
X39150Y16115D01*
X39147Y16127D01*
X39143Y16137D01*
X39138Y16146D01*
X39131Y16153D01*
X39123Y16158D01*
X39114Y16162D01*
X39104Y16165D01*
X39093Y16165D01*
X39333D01*
X39321Y16165D01*
D02*
G37*
G36*
X43657Y24960D02*
X43641Y24975D01*
X43625Y24989D01*
X43609Y25001D01*
X43593Y25011D01*
X43576Y25020D01*
X43559Y25027D01*
X43542Y25033D01*
X43525Y25037D01*
X43507Y25039D01*
X43489Y25040D01*
Y25160D01*
X43507Y25161D01*
X43525Y25163D01*
X43542Y25167D01*
X43559Y25173D01*
X43576Y25180D01*
X43593Y25189D01*
X43609Y25199D01*
X43625Y25211D01*
X43641Y25225D01*
X43657Y25240D01*
Y24960D01*
D02*
G37*
G36*
X37614Y27304D02*
X37549Y27231D01*
X37523Y27197D01*
X37501Y27165D01*
X37482Y27134D01*
X37468Y27105D01*
X37458Y27078D01*
X37452Y27052D01*
X37450Y27027D01*
X37350D01*
X37348Y27052D01*
X37342Y27078D01*
X37332Y27105D01*
X37318Y27134D01*
X37299Y27165D01*
X37277Y27197D01*
X37251Y27231D01*
X37186Y27304D01*
X37148Y27343D01*
X37652D01*
X37614Y27304D01*
D02*
G37*
G36*
X38994Y19870D02*
X39040Y19830D01*
X39060Y19816D01*
X39078Y19806D01*
X39094Y19799D01*
X39108Y19796D01*
X39120Y19796D01*
X39130Y19801D01*
X39137Y19809D01*
X38998Y19611D01*
X39004Y19621D01*
X39006Y19633D01*
X39005Y19647D01*
X39001Y19661D01*
X38994Y19678D01*
X38984Y19695D01*
X38971Y19714D01*
X38954Y19735D01*
X38935Y19757D01*
X38912Y19780D01*
X38968Y19895D01*
X38994Y19870D01*
D02*
G37*
G36*
X39507Y24860D02*
X39490Y24877D01*
X39455Y24906D01*
X39437Y24918D01*
X39420Y24927D01*
X39403Y24936D01*
X39386Y24942D01*
X39370Y24946D01*
X39353Y24949D01*
X39336Y24950D01*
Y25050D01*
X39353Y25051D01*
X39370Y25054D01*
X39386Y25058D01*
X39403Y25064D01*
X39420Y25073D01*
X39437Y25082D01*
X39455Y25094D01*
X39472Y25108D01*
X39490Y25123D01*
X39507Y25140D01*
Y24860D01*
D02*
G37*
G36*
X43657Y23160D02*
X43641Y23175D01*
X43625Y23189D01*
X43609Y23201D01*
X43593Y23211D01*
X43576Y23220D01*
X43559Y23227D01*
X43542Y23233D01*
X43525Y23237D01*
X43507Y23239D01*
X43489Y23240D01*
Y23360D01*
X43507Y23361D01*
X43525Y23363D01*
X43542Y23367D01*
X43559Y23373D01*
X43576Y23380D01*
X43593Y23389D01*
X43609Y23399D01*
X43625Y23411D01*
X43641Y23425D01*
X43657Y23440D01*
Y23160D01*
D02*
G37*
G36*
X39508Y21315D02*
X39485Y21292D01*
X39450Y21249D01*
X39436Y21230D01*
X39426Y21213D01*
X39419Y21196D01*
X39415Y21182D01*
X39414Y21168D01*
X39417Y21156D01*
X39422Y21146D01*
X39283Y21344D01*
X39291Y21336D01*
X39301Y21331D01*
X39313Y21331D01*
X39327Y21334D01*
X39343Y21341D01*
X39361Y21351D01*
X39381Y21365D01*
X39403Y21383D01*
X39453Y21430D01*
X39508Y21315D01*
D02*
G37*
G36*
X48801Y27880D02*
X48802Y27862D01*
X48806Y27845D01*
X48811Y27829D01*
X48817Y27812D01*
X48824Y27796D01*
X48833Y27781D01*
X48844Y27766D01*
X48856Y27751D01*
X48869Y27737D01*
X48763Y27631D01*
X48749Y27644D01*
X48734Y27656D01*
X48719Y27667D01*
X48704Y27676D01*
X48688Y27683D01*
X48671Y27689D01*
X48655Y27694D01*
X48638Y27698D01*
X48620Y27699D01*
X48602Y27700D01*
X48800Y27898D01*
X48801Y27880D01*
D02*
G37*
G36*
X49676Y23686D02*
X49678Y23667D01*
X49681Y23649D01*
X49685Y23632D01*
X49691Y23615D01*
X49698Y23599D01*
X49707Y23584D01*
X49717Y23570D01*
X49728Y23556D01*
X49740Y23543D01*
X49460D01*
X49472Y23556D01*
X49483Y23570D01*
X49493Y23584D01*
X49502Y23599D01*
X49509Y23615D01*
X49515Y23632D01*
X49519Y23649D01*
X49522Y23667D01*
X49524Y23686D01*
X49525Y23705D01*
X49675D01*
X49676Y23686D01*
D02*
G37*
D10*
X39213Y19565D02*
D03*
X40197D02*
D03*
X39220Y11686D02*
D03*
X40204D02*
D03*
X39213Y14835D02*
D03*
X40197D02*
D03*
X39213Y16410D02*
D03*
X40197D02*
D03*
X39213Y13261D02*
D03*
X40197D02*
D03*
X39213Y17985D02*
D03*
X40197D02*
D03*
X39208Y21100D02*
D03*
X40192D02*
D03*
D11*
X23130Y10500D02*
D03*
X21070D02*
D03*
D12*
X14900Y21400D02*
Y30325D01*
X14250Y20750D02*
X14900Y21400D01*
X61206Y15290D02*
X62382D01*
X62132Y24790D02*
X62687Y24235D01*
X43035Y4094D02*
Y6825D01*
X39220Y10640D02*
X43035Y6825D01*
X39220Y10640D02*
Y11686D01*
X63340Y22340D02*
Y26040D01*
X57000Y16000D02*
X63340Y22340D01*
X53750Y16000D02*
X57000D01*
X62820Y26560D02*
X63340Y26040D01*
X61560Y26560D02*
X62820D01*
X61132Y26132D02*
X61560Y26560D01*
X61132Y25790D02*
Y26132D01*
X49600Y23400D02*
Y26900D01*
X48600Y27900D02*
X49600Y26900D01*
X15550Y24450D02*
Y26950D01*
X10840Y30505D02*
Y31390D01*
X9840Y30410D02*
Y31390D01*
Y30410D02*
X11500Y28750D01*
Y20200D02*
Y28750D01*
Y20200D02*
X12450Y19250D01*
X12950Y20750D02*
X14250D01*
X12450Y20250D02*
X12950Y20750D01*
X13450Y26250D02*
Y27895D01*
X10840Y30505D02*
X13450Y27895D01*
X15550Y24450D02*
X22900Y17100D01*
D13*
X12270Y32955D02*
X14900Y30325D01*
X52315Y19565D02*
X52750Y20000D01*
X42285Y19565D02*
X52315D01*
X41670Y18950D02*
X42285Y19565D01*
X52000Y19250D02*
X52750Y20000D01*
X52000Y17750D02*
Y19250D01*
X38779Y18950D02*
X41670D01*
X37600Y17771D02*
X38779Y18950D01*
X36400Y16073D02*
X37600Y14873D01*
X36400Y16073D02*
Y27600D01*
X38400Y15648D02*
X39213Y14835D01*
X37600Y14873D02*
Y17771D01*
Y14873D02*
X39213Y13261D01*
X53260Y17510D02*
X53750Y18000D01*
X53260Y16710D02*
Y17510D01*
X40400Y28600D02*
X42966D01*
X44950Y26616D01*
Y22350D02*
Y26616D01*
Y22350D02*
X46500Y20800D01*
X49704D01*
X52000Y17750D02*
X52750Y17000D01*
X53050Y16500D02*
X53260Y16710D01*
X48500Y16500D02*
X53050D01*
X46100Y14100D02*
X48500Y16500D01*
X53750Y21000D02*
X54400D01*
X55020Y20380D01*
X53750Y22000D02*
X56672D01*
X57312Y21360D01*
X61132Y23112D02*
Y24790D01*
X55020Y17000D02*
X61132Y23112D01*
X53750Y17000D02*
X55020D01*
X39600Y15700D02*
X44200D01*
X39213Y16087D02*
X39600Y15700D01*
X39213Y16087D02*
Y16410D01*
X39600Y14100D02*
X46100D01*
X39213Y14487D02*
X39600Y14100D01*
X39213Y14487D02*
Y14835D01*
X38300Y20478D02*
X39213Y19565D01*
X38300Y20478D02*
Y23000D01*
X40400Y25100D01*
X43800D01*
X41408Y23300D02*
X43800D01*
X39208Y21100D02*
X41408Y23300D01*
X40197Y17985D02*
X45015D01*
X45800Y17200D01*
X44200Y15700D02*
X44900Y16400D01*
X40204Y11686D02*
X45386D01*
X40357Y13300D02*
X44900D01*
X40257Y13200D02*
X40357Y13300D01*
X40197Y13261D02*
X40257Y13200D01*
X27565Y31997D02*
X27619Y32024D01*
X27700Y32105D01*
Y31537D01*
X28144Y32105D02*
X28063Y32078D01*
X28009Y31997D01*
X27982Y31862D01*
Y31780D01*
X28009Y31645D01*
X28063Y31564D01*
X28144Y31537D01*
X28198D01*
X28280Y31564D01*
X28334Y31645D01*
X28361Y31780D01*
Y31862D01*
X28334Y31997D01*
X28280Y32078D01*
X28198Y32105D01*
X28144D01*
X28515Y31970D02*
Y31997D01*
X28542Y32051D01*
X28569Y32078D01*
X28623Y32105D01*
X28732D01*
X28786Y32078D01*
X28813Y32051D01*
X28840Y31997D01*
Y31943D01*
X28813Y31889D01*
X28759Y31808D01*
X28488Y31537D01*
X28867D01*
X29373Y32105D02*
X29103Y31537D01*
X28994Y32105D02*
X29373D01*
X29663D02*
X29582Y32078D01*
X29528Y31997D01*
X29501Y31862D01*
Y31780D01*
X29528Y31645D01*
X29582Y31564D01*
X29663Y31537D01*
X29717D01*
X29799Y31564D01*
X29853Y31645D01*
X29880Y31780D01*
Y31862D01*
X29853Y31997D01*
X29799Y32078D01*
X29717Y32105D01*
X29663D01*
X30142D02*
X30061Y32078D01*
X30034Y32024D01*
Y31970D01*
X30061Y31916D01*
X30115Y31889D01*
X30224Y31862D01*
X30305Y31835D01*
X30359Y31780D01*
X30386Y31726D01*
Y31645D01*
X30359Y31591D01*
X30332Y31564D01*
X30251Y31537D01*
X30142D01*
X30061Y31564D01*
X30034Y31591D01*
X30007Y31645D01*
Y31726D01*
X30034Y31780D01*
X30088Y31835D01*
X30170Y31862D01*
X30278Y31889D01*
X30332Y31916D01*
X30359Y31970D01*
Y32024D01*
X30332Y32078D01*
X30251Y32105D01*
X30142D01*
X30960D02*
Y31537D01*
Y32105D02*
X31204D01*
X31285Y32078D01*
X31312Y32051D01*
X31339Y31997D01*
Y31943D01*
X31312Y31889D01*
X31285Y31862D01*
X31204Y31835D01*
X30960D01*
X31150D02*
X31339Y31537D01*
X31819Y32105D02*
X31467D01*
Y31537D01*
X31819D01*
X31467Y31835D02*
X31683D01*
X31913Y32105D02*
X32130Y31537D01*
X32347Y32105D02*
X32130Y31537D01*
X33273Y31970D02*
X33246Y32024D01*
X33191Y32078D01*
X33137Y32105D01*
X33029D01*
X32975Y32078D01*
X32921Y32024D01*
X32894Y31970D01*
X32866Y31889D01*
Y31753D01*
X32894Y31672D01*
X32921Y31618D01*
X32975Y31564D01*
X33029Y31537D01*
X33137D01*
X33191Y31564D01*
X33246Y31618D01*
X33273Y31672D01*
X33432Y31997D02*
X33487Y32024D01*
X33568Y32105D01*
Y31537D01*
X27696Y31135D02*
Y30566D01*
Y31135D02*
X27886D01*
X27967Y31108D01*
X28021Y31054D01*
X28048Y31000D01*
X28075Y30918D01*
Y30783D01*
X28048Y30702D01*
X28021Y30648D01*
X27967Y30593D01*
X27886Y30566D01*
X27696D01*
X28202Y31135D02*
Y30566D01*
Y31135D02*
X28419Y30566D01*
X28636Y31135D02*
X28419Y30566D01*
X28636Y31135D02*
Y30566D01*
X28798Y31135D02*
Y30566D01*
X29177Y31135D02*
Y30566D01*
X28798Y30864D02*
X29177D01*
X30133Y30945D02*
X30106Y30864D01*
X30052Y30810D01*
X29971Y30783D01*
X29943D01*
X29862Y30810D01*
X29808Y30864D01*
X29781Y30945D01*
Y30973D01*
X29808Y31054D01*
X29862Y31108D01*
X29943Y31135D01*
X29971D01*
X30052Y31108D01*
X30106Y31054D01*
X30133Y30945D01*
Y30810D01*
X30106Y30675D01*
X30052Y30593D01*
X29971Y30566D01*
X29916D01*
X29835Y30593D01*
X29808Y30648D01*
X30287Y30485D02*
X30666Y31135D01*
X30840D02*
X30758Y31108D01*
X30731Y31054D01*
Y31000D01*
X30758Y30945D01*
X30813Y30918D01*
X30921Y30891D01*
X31002Y30864D01*
X31056Y30810D01*
X31083Y30756D01*
Y30675D01*
X31056Y30621D01*
X31029Y30593D01*
X30948Y30566D01*
X30840D01*
X30758Y30593D01*
X30731Y30621D01*
X30704Y30675D01*
Y30756D01*
X30731Y30810D01*
X30786Y30864D01*
X30867Y30891D01*
X30975Y30918D01*
X31029Y30945D01*
X31056Y31000D01*
Y31054D01*
X31029Y31108D01*
X30948Y31135D01*
X30840D01*
X31211Y30485D02*
X31590Y31135D01*
X31655Y31000D02*
Y31027D01*
X31682Y31081D01*
X31709Y31108D01*
X31763Y31135D01*
X31871D01*
X31926Y31108D01*
X31953Y31081D01*
X31980Y31027D01*
Y30973D01*
X31953Y30918D01*
X31898Y30837D01*
X31628Y30566D01*
X32007D01*
X32296Y31135D02*
X32215Y31108D01*
X32161Y31027D01*
X32134Y30891D01*
Y30810D01*
X32161Y30675D01*
X32215Y30593D01*
X32296Y30566D01*
X32351D01*
X32432Y30593D01*
X32486Y30675D01*
X32513Y30810D01*
Y30891D01*
X32486Y31027D01*
X32432Y31108D01*
X32351Y31135D01*
X32296D01*
X32640Y31027D02*
X32695Y31054D01*
X32776Y31135D01*
Y30566D01*
X33436Y31135D02*
X33166Y30566D01*
X33057Y31135D02*
X33436D01*
D14*
X51296Y21500D02*
X53100D01*
X50146Y20350D02*
X51296Y21500D01*
X41408Y20350D02*
X50146D01*
X39728Y18500D02*
X41350D01*
X41400Y18550D01*
X39213Y17985D02*
X39728Y18500D01*
X53100Y21500D02*
X53260Y21660D01*
Y22510D01*
X53750Y23000D01*
X37400Y26450D02*
Y27600D01*
Y26450D02*
X38850Y25000D01*
X39650D01*
X48600Y22000D02*
X52750D01*
X48250Y21650D02*
X48600Y22000D01*
X40197Y14835D02*
X44865D01*
D15*
X38035Y4094D02*
Y11665D01*
X27690Y10500D02*
X32200Y5990D01*
X23130Y10500D02*
X27690D01*
D16*
X55540Y24790D02*
X60132D01*
X53750Y23000D02*
X55540Y24790D01*
X52750Y23000D02*
X55540Y25790D01*
X60132D01*
D17*
X12210Y33015D02*
X12270Y32955D01*
X10215Y33015D02*
X12210D01*
X9840Y32640D02*
X10215Y33015D01*
X9840Y32390D02*
Y32640D01*
D18*
X27200Y5990D02*
Y8950D01*
X7800Y32390D02*
X8840D01*
X21070Y10500D02*
Y12070D01*
X27800Y18800D01*
Y22100D01*
D19*
X40400Y27600D02*
D03*
Y28600D02*
D03*
D20*
X36400Y27600D02*
D03*
Y28600D02*
D03*
X37400Y27600D02*
D03*
Y28600D02*
D03*
X38400Y27600D02*
D03*
Y28600D02*
D03*
D21*
X58832Y12490D02*
D03*
X59832D02*
D03*
X62382Y15290D02*
D03*
Y16290D02*
D03*
X61132Y24790D02*
D03*
X60132D02*
D03*
Y25790D02*
D03*
X61132D02*
D03*
X62132D02*
D03*
Y24790D02*
D03*
D22*
X52750Y16000D02*
D03*
D23*
X53750D02*
D03*
X52750Y17000D02*
D03*
X53750D02*
D03*
X52750Y18000D02*
D03*
X53750D02*
D03*
X52750Y19000D02*
D03*
X53750D02*
D03*
X52750Y20000D02*
D03*
X53750D02*
D03*
X52750Y21000D02*
D03*
X53750D02*
D03*
X52750Y22000D02*
D03*
X53750D02*
D03*
X52750Y23000D02*
D03*
X53750D02*
D03*
D24*
X43035Y4094D02*
D03*
X38035D02*
D03*
D25*
X38200Y32000D02*
D03*
X36450D02*
D03*
D26*
X51250Y10617D02*
D03*
X67250D02*
D03*
Y30117D02*
D03*
X51250D02*
D03*
D27*
X27200Y5990D02*
D03*
X32200D02*
D03*
D28*
X9950Y15700D02*
D03*
X8950D02*
D03*
X8840Y31390D02*
D03*
Y32390D02*
D03*
X9840D02*
D03*
X10840D02*
D03*
Y31390D02*
D03*
X9840D02*
D03*
D29*
X13450Y26250D02*
D03*
X12450D02*
D03*
X13450Y25250D02*
D03*
X12450D02*
D03*
X13450Y24250D02*
D03*
X12450D02*
D03*
X13450Y23250D02*
D03*
X12450D02*
D03*
X13450Y22250D02*
D03*
X12450D02*
D03*
X13450Y21250D02*
D03*
X12450D02*
D03*
X13450Y20250D02*
D03*
X12450D02*
D03*
Y19250D02*
D03*
D30*
X13450D02*
D03*
D31*
X11973Y27400D02*
D03*
X23700Y30114D02*
D03*
X31450Y23880D02*
D03*
Y20380D02*
D03*
X15689Y12750D02*
D03*
X13295Y17081D02*
D03*
X13682Y30100D02*
D03*
X5600Y29900D02*
D03*
X30930Y28450D02*
D03*
X25426Y9630D02*
D03*
X32700Y10950D02*
D03*
X25100Y12850D02*
D03*
X25300Y19097D02*
D03*
X22200Y24050D02*
D03*
X18200Y17200D02*
D03*
X4700Y14750D02*
D03*
X3669Y24100D02*
D03*
X41400Y18550D02*
D03*
X41408Y20350D02*
D03*
X48021Y17800D02*
D03*
X41900Y17050D02*
D03*
X42050Y12500D02*
D03*
X36850Y12150D02*
D03*
X51400Y27300D02*
D03*
X51837Y24600D02*
D03*
X54250Y25744D02*
D03*
X44650Y28368D02*
D03*
X37274Y23630D02*
D03*
X42450Y24167D02*
D03*
X43833Y19000D02*
D03*
X53571Y29383D02*
D03*
X57600D02*
D03*
X67928Y27978D02*
D03*
X67850Y13514D02*
D03*
X54073Y13223D02*
D03*
X39650Y25000D02*
D03*
X38400Y15648D02*
D03*
X49704Y20800D02*
D03*
X48250Y21650D02*
D03*
X55020Y20380D02*
D03*
X57312Y21360D02*
D03*
X49600Y23400D02*
D03*
X48600Y27900D02*
D03*
X43800Y25100D02*
D03*
Y23300D02*
D03*
X45800Y17200D02*
D03*
X44900Y16400D02*
D03*
X44865Y14835D02*
D03*
X45386Y11686D02*
D03*
X44900Y13300D02*
D03*
X15550Y26950D02*
D03*
X22900Y17100D02*
D03*
D32*
X27800Y22100D02*
D03*
D33*
X30980Y18120D02*
D03*
M02*
