G04 Layer_Color=65535*
%FSLAX24Y24*%
%MOIN*%
G70*
G01*
G75*
%ADD13C,0.0120*%
%ADD14C,0.0100*%
%ADD40C,0.0040*%
%ADD41C,0.0079*%
%ADD42C,0.0080*%
%ADD43C,0.0070*%
G36*
X40341Y32356D02*
X40366Y32354D01*
X40399Y32346D01*
X40426Y32336D01*
X40459Y32321D01*
X40486Y32304D01*
X40519Y32281D01*
X40544Y32254D01*
X40564Y32231D01*
X40586Y32196D01*
X40604Y32156D01*
X40616Y32114D01*
X40624Y32071D01*
X40621Y32024D01*
X40619Y31989D01*
X40504Y31566D01*
X40494Y31539D01*
X40479Y31511D01*
X40459Y31476D01*
X40434Y31446D01*
X40404Y31421D01*
X40379Y31401D01*
X40356Y31386D01*
X40329Y31376D01*
X40291Y31361D01*
X40249Y31354D01*
X40226Y31351D01*
X39356D01*
X39626Y32359D01*
X40311D01*
X40341Y32356D01*
D02*
G37*
G36*
X41464Y31351D02*
X40601D01*
X40659Y31561D01*
X41521D01*
X41464Y31351D01*
D02*
G37*
G36*
X44866Y32411D02*
X44870Y32411D01*
X44875Y32410D01*
X44879Y32410D01*
X44884Y32409D01*
X44888Y32407D01*
X44888D01*
X44888Y32407D01*
X44890Y32407D01*
X44891Y32406D01*
X44894Y32404D01*
X44897Y32402D01*
X44899Y32400D01*
X44902Y32397D01*
X44904Y32393D01*
X44905Y32393D01*
X44905Y32392D01*
X44906Y32389D01*
X44908Y32387D01*
X44909Y32383D01*
X44910Y32379D01*
X44911Y32374D01*
X44911Y32369D01*
Y32369D01*
Y32368D01*
Y32367D01*
X44911Y32366D01*
X44910Y32364D01*
X44910Y32362D01*
X44910Y32360D01*
X44909Y32357D01*
X44908Y32352D01*
X44906Y32346D01*
X44904Y32343D01*
X44903Y32341D01*
X44901Y32338D01*
X44899Y32335D01*
X44898Y32335D01*
X44898Y32335D01*
X44897Y32334D01*
X44896Y32333D01*
X44895Y32332D01*
X44894Y32331D01*
X44892Y32330D01*
X44889Y32328D01*
X44887Y32327D01*
X44884Y32326D01*
X44881Y32324D01*
X44878Y32323D01*
X44874Y32322D01*
X44870Y32321D01*
X44866Y32320D01*
X44862Y32319D01*
X44862Y32319D01*
X44863Y32318D01*
X44864Y32317D01*
X44866Y32315D01*
X44867Y32313D01*
X44869Y32310D01*
X44871Y32307D01*
X44873Y32304D01*
X44874Y32304D01*
X44874Y32303D01*
X44875Y32302D01*
X44875Y32301D01*
X44876Y32299D01*
X44878Y32297D01*
X44879Y32294D01*
X44881Y32291D01*
X44882Y32287D01*
X44884Y32283D01*
X44886Y32279D01*
X44888Y32274D01*
X44891Y32269D01*
X44893Y32263D01*
X44896Y32258D01*
X44898Y32251D01*
X44863D01*
Y32252D01*
X44863Y32252D01*
X44862Y32253D01*
X44862Y32254D01*
X44861Y32255D01*
X44861Y32257D01*
X44860Y32259D01*
X44859Y32262D01*
X44858Y32264D01*
X44857Y32267D01*
X44855Y32271D01*
X44854Y32275D01*
X44852Y32279D01*
X44850Y32283D01*
X44848Y32288D01*
X44846Y32293D01*
Y32294D01*
X44846Y32294D01*
X44845Y32295D01*
X44845Y32296D01*
X44843Y32298D01*
X44842Y32302D01*
X44839Y32305D01*
X44837Y32309D01*
X44834Y32312D01*
X44833Y32313D01*
X44832Y32314D01*
X44831Y32314D01*
X44831Y32315D01*
X44830Y32315D01*
X44828Y32316D01*
X44826Y32316D01*
X44823Y32317D01*
X44819Y32317D01*
X44815Y32317D01*
X44802D01*
X44788Y32251D01*
X44755D01*
X44789Y32411D01*
X44864D01*
X44866Y32411D01*
D02*
G37*
G36*
X43004Y31559D02*
X42946Y31349D01*
X42116D01*
X42174Y31561D01*
X43004Y31559D01*
D02*
G37*
G36*
X43161Y32149D02*
X42116D01*
X41901Y31351D01*
X41694D01*
X41906Y32149D01*
X40816D01*
X40871Y32359D01*
X43216D01*
X43161Y32149D01*
D02*
G37*
G36*
X43054Y31749D02*
X42224D01*
X42281Y31959D01*
X43109D01*
X43054Y31749D01*
D02*
G37*
G36*
X43909Y31824D02*
X44264Y31351D01*
X44001D01*
X43746Y31694D01*
X43316Y31351D01*
X42981D01*
X43621Y31861D01*
X43251Y32359D01*
X43514D01*
X43786Y31991D01*
X44246Y32359D01*
X44581D01*
X43909Y31824D01*
D02*
G37*
G36*
X41571Y31749D02*
X40709D01*
X40766Y31959D01*
X41629D01*
X41571Y31749D01*
D02*
G37*
%LPC*%
G36*
X39789Y32154D02*
X39626Y31545D01*
X39631Y31561D01*
X40221D01*
X40246Y31566D01*
X40256Y31571D01*
X40271Y31581D01*
X40284Y31594D01*
X40294Y31606D01*
X40304Y31626D01*
X40311Y31651D01*
X40414Y32066D01*
X40411Y32079D01*
X40406Y32089D01*
X40399Y32101D01*
X40384Y32116D01*
X40374Y32129D01*
X40346Y32144D01*
X40331Y32149D01*
X40311Y32151D01*
X39789Y32149D01*
X39789Y32154D01*
D02*
G37*
G36*
X44857Y32384D02*
X44816D01*
X44807Y32341D01*
X44831D01*
X44833Y32342D01*
X44839Y32342D01*
X44845Y32342D01*
X44850Y32343D01*
X44853Y32343D01*
X44855Y32343D01*
X44858Y32344D01*
X44859Y32344D01*
X44860Y32345D01*
X44861Y32345D01*
X44862Y32346D01*
X44864Y32347D01*
X44867Y32348D01*
X44869Y32350D01*
X44871Y32352D01*
X44873Y32354D01*
X44873Y32355D01*
X44874Y32355D01*
X44875Y32357D01*
X44876Y32359D01*
X44876Y32361D01*
X44877Y32363D01*
X44878Y32366D01*
X44878Y32369D01*
Y32369D01*
Y32370D01*
X44878Y32372D01*
X44877Y32374D01*
X44876Y32376D01*
X44875Y32378D01*
X44873Y32380D01*
X44871Y32382D01*
X44871Y32382D01*
X44870Y32382D01*
X44869Y32383D01*
X44867Y32383D01*
X44864Y32383D01*
X44861Y32384D01*
X44857Y32384D01*
D02*
G37*
%LPD*%
D13*
X42985Y1424D02*
G03*
X42985Y6774I17J2675D01*
G01*
X38035D02*
G03*
X38035Y1424I-7J-2675D01*
G01*
Y6774D02*
X42985D01*
X38035Y1424D02*
X42985D01*
X43103Y362D02*
Y1004D01*
X43425Y683D02*
X42782D01*
X38475D02*
X37832D01*
X8000Y30505D02*
X8048Y30528D01*
X8119Y30600D01*
Y30100D01*
X6550Y31600D02*
Y31100D01*
X7012Y31481D02*
X6988Y31528D01*
X6940Y31576D01*
X6893Y31600D01*
X6798D01*
X6750Y31576D01*
X6702Y31528D01*
X6679Y31481D01*
X6655Y31409D01*
Y31290D01*
X6679Y31219D01*
X6702Y31171D01*
X6750Y31124D01*
X6798Y31100D01*
X6893D01*
X6940Y31124D01*
X6988Y31171D01*
X7012Y31219D01*
X7486Y31528D02*
X7438Y31576D01*
X7366Y31600D01*
X7271D01*
X7200Y31576D01*
X7152Y31528D01*
Y31481D01*
X7176Y31433D01*
X7200Y31409D01*
X7247Y31386D01*
X7390Y31338D01*
X7438Y31314D01*
X7462Y31290D01*
X7486Y31243D01*
Y31171D01*
X7438Y31124D01*
X7366Y31100D01*
X7271D01*
X7200Y31124D01*
X7152Y31171D01*
X7597Y31338D02*
X7812D01*
X7883Y31362D01*
X7907Y31386D01*
X7931Y31433D01*
Y31505D01*
X7907Y31552D01*
X7883Y31576D01*
X7812Y31600D01*
X7597D01*
Y31100D01*
X32419Y2903D02*
Y2260D01*
X32740Y2581D02*
X32097D01*
X27200D02*
X26557D01*
D14*
X36900Y29600D02*
Y29973D01*
X36400Y29100D02*
Y29600D01*
X37400D01*
Y29100D02*
Y29600D01*
X11950Y26750D02*
X13950D01*
X11950Y18750D02*
Y26750D01*
Y18750D02*
X13950D01*
Y26750D01*
X40382Y26942D02*
X40248D01*
X40315D01*
Y26609D01*
X40248Y26542D01*
X40182D01*
X40115Y26609D01*
X40715Y26542D02*
Y26942D01*
X40515Y26742D01*
X40781D01*
X38427Y29680D02*
X38293D01*
X38360D01*
Y29347D01*
X38293Y29280D01*
X38227D01*
X38160Y29347D01*
X38826Y29280D02*
X38560D01*
X38826Y29547D01*
Y29613D01*
X38760Y29680D01*
X38627D01*
X38560Y29613D01*
X35733Y6850D02*
X35617D01*
X35675D01*
Y6558D01*
X35617Y6500D01*
X35558D01*
X35500Y6558D01*
X36083Y6850D02*
X35850D01*
Y6675D01*
X35967Y6733D01*
X36025D01*
X36083Y6675D01*
Y6558D01*
X36025Y6500D01*
X35908D01*
X35850Y6558D01*
X22167Y11750D02*
X21900D01*
Y11550D01*
X22033D01*
X21900D01*
Y11350D01*
X22300D02*
X22433D01*
X22367D01*
Y11750D01*
X22300Y11683D01*
X63295Y16545D02*
Y16145D01*
X63162Y16545D02*
X63429D01*
X63724D02*
X63476D01*
Y16145D01*
X63724D01*
X63476Y16354D02*
X63628D01*
X64057Y16488D02*
X64019Y16526D01*
X63962Y16545D01*
X63886D01*
X63828Y16526D01*
X63790Y16488D01*
Y16450D01*
X63809Y16411D01*
X63828Y16392D01*
X63867Y16373D01*
X63981Y16335D01*
X64019Y16316D01*
X64038Y16297D01*
X64057Y16259D01*
Y16202D01*
X64019Y16164D01*
X63962Y16145D01*
X63886D01*
X63828Y16164D01*
X63790Y16202D01*
X64280Y16545D02*
Y16145D01*
X64146Y16545D02*
X64413D01*
X64775D02*
Y16145D01*
Y16545D02*
X64927Y16145D01*
X65080Y16545D02*
X64927Y16145D01*
X65080Y16545D02*
Y16145D01*
X65308Y16545D02*
X65270Y16526D01*
X65232Y16488D01*
X65213Y16450D01*
X65194Y16392D01*
Y16297D01*
X65213Y16240D01*
X65232Y16202D01*
X65270Y16164D01*
X65308Y16145D01*
X65384D01*
X65422Y16164D01*
X65460Y16202D01*
X65479Y16240D01*
X65499Y16297D01*
Y16392D01*
X65479Y16450D01*
X65460Y16488D01*
X65422Y16526D01*
X65384Y16545D01*
X65308D01*
X65592D02*
Y16145D01*
Y16545D02*
X65725D01*
X65782Y16526D01*
X65820Y16488D01*
X65839Y16450D01*
X65858Y16392D01*
Y16297D01*
X65839Y16240D01*
X65820Y16202D01*
X65782Y16164D01*
X65725Y16145D01*
X65592D01*
X66196Y16545D02*
X65948D01*
Y16145D01*
X66196D01*
X65948Y16354D02*
X66100D01*
X60562Y13235D02*
X60733D01*
X60790Y13254D01*
X60809Y13273D01*
X60828Y13311D01*
Y13369D01*
X60809Y13407D01*
X60790Y13426D01*
X60733Y13445D01*
X60562D01*
Y13045D01*
X61223D02*
X61070Y13445D01*
X60918Y13045D01*
X60975Y13178D02*
X61166D01*
X61316Y13445D02*
Y13045D01*
Y13445D02*
X61449D01*
X61506Y13426D01*
X61545Y13388D01*
X61564Y13349D01*
X61583Y13292D01*
Y13197D01*
X61564Y13140D01*
X61545Y13102D01*
X61506Y13064D01*
X61449Y13045D01*
X61316D01*
X57276Y13445D02*
X57238Y13426D01*
X57200Y13388D01*
X57181Y13349D01*
X57162Y13292D01*
Y13197D01*
X57181Y13140D01*
X57200Y13102D01*
X57238Y13064D01*
X57276Y13045D01*
X57352D01*
X57390Y13064D01*
X57428Y13102D01*
X57448Y13140D01*
X57467Y13197D01*
Y13292D01*
X57448Y13349D01*
X57428Y13388D01*
X57390Y13426D01*
X57352Y13445D01*
X57276D01*
X57560D02*
Y13045D01*
X57827Y13445D02*
X57560Y13178D01*
X57655Y13273D02*
X57827Y13045D01*
X58202Y13349D02*
X58183Y13388D01*
X58145Y13426D01*
X58106Y13445D01*
X58030D01*
X57992Y13426D01*
X57954Y13388D01*
X57935Y13349D01*
X57916Y13292D01*
Y13197D01*
X57935Y13140D01*
X57954Y13102D01*
X57992Y13064D01*
X58030Y13045D01*
X58106D01*
X58145Y13064D01*
X58183Y13102D01*
X58202Y13140D01*
X37780Y7744D02*
Y7244D01*
X38030D01*
X38113Y7328D01*
Y7411D01*
X38030Y7494D01*
X37780D01*
X38030D01*
X38113Y7578D01*
Y7661D01*
X38030Y7744D01*
X37780D01*
X38363Y7578D02*
X38529D01*
X38613Y7494D01*
Y7244D01*
X38363D01*
X38279Y7328D01*
X38363Y7411D01*
X38613D01*
X38863Y7661D02*
Y7578D01*
X38779D01*
X38946D01*
X38863D01*
Y7328D01*
X38946Y7244D01*
X39279Y7661D02*
Y7578D01*
X39196D01*
X39362D01*
X39279D01*
Y7328D01*
X39362Y7244D01*
X39862D02*
X39696D01*
X39612Y7328D01*
Y7494D01*
X39696Y7578D01*
X39862D01*
X39946Y7494D01*
Y7411D01*
X39612D01*
X40112Y7578D02*
Y7244D01*
Y7411D01*
X40196Y7494D01*
X40279Y7578D01*
X40362D01*
X40612D02*
Y7328D01*
X40695Y7244D01*
X40945D01*
Y7161D01*
X40862Y7078D01*
X40779D01*
X40945Y7244D02*
Y7578D01*
X41945Y7661D02*
X41862Y7744D01*
X41695D01*
X41612Y7661D01*
Y7328D01*
X41695Y7244D01*
X41862D01*
X41945Y7328D01*
X42112Y7244D02*
X42278D01*
X42195D01*
Y7744D01*
X42112D01*
X42528Y7244D02*
X42695D01*
X42611D01*
Y7578D01*
X42528D01*
X42945Y7078D02*
Y7578D01*
X43195D01*
X43278Y7494D01*
Y7328D01*
X43195Y7244D01*
X42945D01*
X36940Y19860D02*
X37273D01*
X37107D01*
Y19360D01*
X37773Y19860D02*
X37440D01*
Y19360D01*
X37773D01*
X37440Y19610D02*
X37606D01*
X38273Y19777D02*
X38190Y19860D01*
X38023D01*
X37940Y19777D01*
Y19693D01*
X38023Y19610D01*
X38190D01*
X38273Y19527D01*
Y19443D01*
X38190Y19360D01*
X38023D01*
X37940Y19443D01*
X38440Y19860D02*
X38773D01*
X38606D01*
Y19360D01*
X37150Y17700D02*
Y18200D01*
X37400D01*
X37483Y18117D01*
Y17950D01*
X37400Y17867D01*
X37150D01*
X37983Y18117D02*
X37900Y18200D01*
X37733D01*
X37650Y18117D01*
Y17783D01*
X37733Y17700D01*
X37900D01*
X37983Y17783D01*
Y17950D01*
X37816D01*
X38150Y17700D02*
Y18200D01*
X38316Y18033D01*
X38483Y18200D01*
Y17700D01*
X36150Y16164D02*
Y16664D01*
X36400D01*
X36483Y16581D01*
Y16414D01*
X36400Y16331D01*
X36150D01*
X36900Y16664D02*
X36733D01*
X36650Y16581D01*
Y16247D01*
X36733Y16164D01*
X36900D01*
X36983Y16247D01*
Y16581D01*
X36900Y16664D01*
X37150D02*
Y16164D01*
X37316Y16331D01*
X37483Y16164D01*
Y16664D01*
X37983D02*
X37650D01*
Y16164D01*
X37983D01*
X37650Y16414D02*
X37816D01*
X38149Y16164D02*
Y16664D01*
X38399D01*
X38483Y16581D01*
Y16414D01*
X38399Y16331D01*
X38149D01*
X38316D02*
X38483Y16164D01*
X35850Y14600D02*
Y14933D01*
X36017Y15100D01*
X36183Y14933D01*
Y14600D01*
Y14850D01*
X35850D01*
X36683Y15017D02*
X36600Y15100D01*
X36433D01*
X36350Y15017D01*
Y14683D01*
X36433Y14600D01*
X36600D01*
X36683Y14683D01*
X37350Y14600D02*
Y15100D01*
X37599D01*
X37683Y15017D01*
Y14850D01*
X37599Y14767D01*
X37350D01*
X37849Y15100D02*
Y14600D01*
X38016Y14767D01*
X38183Y14600D01*
Y15100D01*
X38349Y14600D02*
Y15100D01*
X38599D01*
X38682Y15017D01*
Y14850D01*
X38599Y14767D01*
X38349D01*
X38516D02*
X38682Y14600D01*
X36250Y13064D02*
Y13564D01*
X36500D01*
X36583Y13480D01*
Y13314D01*
X36500Y13230D01*
X36250D01*
X36417D02*
X36583Y13064D01*
X37083Y13564D02*
X36750D01*
Y13064D01*
X37083D01*
X36750Y13314D02*
X36916D01*
X37250Y13564D02*
Y13064D01*
X37583D01*
X37750D02*
Y13397D01*
X37916Y13564D01*
X38083Y13397D01*
Y13064D01*
Y13314D01*
X37750D01*
X38249Y13564D02*
Y13480D01*
X38416Y13314D01*
X38583Y13480D01*
Y13564D01*
X38416Y13314D02*
Y13064D01*
X36650Y11900D02*
Y11400D01*
X36900D01*
X36983Y11484D01*
Y11567D01*
X36900Y11650D01*
X36650D01*
X36900D01*
X36983Y11734D01*
Y11817D01*
X36900Y11900D01*
X36650D01*
X37150Y11400D02*
Y11734D01*
X37316Y11900D01*
X37483Y11734D01*
Y11400D01*
Y11650D01*
X37150D01*
X37650Y11900D02*
X37983D01*
X37816D01*
Y11400D01*
X38150Y11900D02*
X38483D01*
X38316D01*
Y11400D01*
X41521Y26664D02*
X41288D01*
X41171Y26781D01*
X41288Y26897D01*
X41521D01*
X41346D01*
Y26664D01*
X41230Y27247D02*
X41171Y27189D01*
Y27072D01*
X41230Y27014D01*
X41463D01*
X41521Y27072D01*
Y27189D01*
X41463Y27247D01*
X41521Y27714D02*
X41171D01*
Y27889D01*
X41230Y27947D01*
X41346D01*
X41405Y27889D01*
Y27714D01*
X41171Y28239D02*
Y28122D01*
X41230Y28064D01*
X41463D01*
X41521Y28122D01*
Y28239D01*
X41463Y28297D01*
X41230D01*
X41171Y28239D01*
Y28414D02*
X41521D01*
X41405Y28530D01*
X41521Y28647D01*
X41171D01*
Y28997D02*
Y28763D01*
X41521D01*
Y28997D01*
X41346Y28763D02*
Y28880D01*
X41521Y29113D02*
X41171D01*
Y29288D01*
X41230Y29347D01*
X41346D01*
X41405Y29288D01*
Y29113D01*
Y29230D02*
X41521Y29347D01*
X37470Y21380D02*
X37303D01*
X37220Y21297D01*
Y20963D01*
X37303Y20880D01*
X37470D01*
X37553Y20963D01*
Y21297D01*
X37470Y21380D01*
X37720D02*
Y20880D01*
Y21047D01*
X38053Y21380D01*
X37803Y21130D01*
X38053Y20880D01*
X38553Y21297D02*
X38470Y21380D01*
X38303D01*
X38220Y21297D01*
Y20963D01*
X38303Y20880D01*
X38470D01*
X38553Y20963D01*
D40*
X44953Y32331D02*
G03*
X44953Y32331I-120J0D01*
G01*
D41*
X39587Y19319D02*
X39823D01*
X39587Y19811D02*
X39823D01*
X39794Y19951D02*
Y20451D01*
X39544D02*
X39794Y20201D01*
X39544Y19951D02*
X39794Y20201D01*
X39544Y19951D02*
Y20451D01*
X39594Y11440D02*
X39830D01*
X39594Y11932D02*
X39830D01*
X39801Y12072D02*
Y12572D01*
X39551D02*
X39801Y12322D01*
X39551Y12072D02*
X39801Y12322D01*
X39551Y12072D02*
Y12572D01*
X39900Y29100D02*
X40900D01*
Y27100D02*
Y29100D01*
X39900Y27100D02*
X40900D01*
X39900D02*
Y29100D01*
X38900Y27100D02*
Y29100D01*
X35900Y27100D02*
Y29100D01*
X38900D01*
X35900Y27100D02*
X38900D01*
X36983D02*
X38900D01*
X39587Y14589D02*
X39823D01*
X39587Y15081D02*
X39823D01*
X39794Y15221D02*
Y15721D01*
X39544D02*
X39794Y15471D01*
X39544Y15221D02*
X39794Y15471D01*
X39544Y15221D02*
Y15721D01*
X39587Y16164D02*
X39823D01*
X39587Y16656D02*
X39823D01*
X39794Y16796D02*
Y17296D01*
X39544D02*
X39794Y17046D01*
X39544Y16796D02*
X39794Y17046D01*
X39544Y16796D02*
Y17296D01*
X39587Y13015D02*
X39823D01*
X39587Y13507D02*
X39823D01*
X39794Y13646D02*
Y14146D01*
X39544D02*
X39794Y13896D01*
X39544Y13646D02*
X39794Y13896D01*
X39544Y13646D02*
Y14146D01*
X39587Y17739D02*
X39823D01*
X39587Y18231D02*
X39823D01*
X39794Y18371D02*
Y18871D01*
X39544D02*
X39794Y18621D01*
X39544Y18371D02*
X39794Y18621D01*
X39544Y18371D02*
Y18871D01*
X39582Y20854D02*
X39818D01*
X39582Y21346D02*
X39818D01*
X39789Y21486D02*
Y21986D01*
X39539D02*
X39789Y21736D01*
X39539Y21486D02*
X39789Y21736D01*
X39539Y21486D02*
Y21986D01*
X21569Y9919D02*
X22631D01*
X21569Y11081D02*
X22631D01*
X63032Y26423D02*
X63069Y26442D01*
X63126Y26498D01*
Y26105D01*
X5767Y16065D02*
Y15715D01*
X5650Y16065D02*
X5883D01*
X6142D02*
X5925D01*
Y15715D01*
X6142D01*
X5925Y15898D02*
X6058D01*
X6433Y16015D02*
X6400Y16048D01*
X6350Y16065D01*
X6283D01*
X6233Y16048D01*
X6200Y16015D01*
Y15982D01*
X6217Y15948D01*
X6233Y15932D01*
X6267Y15915D01*
X6367Y15882D01*
X6400Y15865D01*
X6417Y15848D01*
X6433Y15815D01*
Y15765D01*
X6400Y15732D01*
X6350Y15715D01*
X6283D01*
X6233Y15732D01*
X6200Y15765D01*
X6628Y16065D02*
Y15715D01*
X6511Y16065D02*
X6745D01*
X7061D02*
Y15715D01*
Y16065D02*
X7195Y15715D01*
X7328Y16065D02*
X7195Y15715D01*
X7328Y16065D02*
Y15715D01*
X7528Y16065D02*
X7495Y16048D01*
X7461Y16015D01*
X7445Y15982D01*
X7428Y15932D01*
Y15848D01*
X7445Y15798D01*
X7461Y15765D01*
X7495Y15732D01*
X7528Y15715D01*
X7595D01*
X7628Y15732D01*
X7661Y15765D01*
X7678Y15798D01*
X7695Y15848D01*
Y15932D01*
X7678Y15982D01*
X7661Y16015D01*
X7628Y16048D01*
X7595Y16065D01*
X7528D01*
X7776D02*
Y15715D01*
Y16065D02*
X7893D01*
X7943Y16048D01*
X7976Y16015D01*
X7993Y15982D01*
X8009Y15932D01*
Y15848D01*
X7993Y15798D01*
X7976Y15765D01*
X7943Y15732D01*
X7893Y15715D01*
X7776D01*
X8304Y16065D02*
X8088D01*
Y15715D01*
X8304D01*
X8088Y15898D02*
X8221D01*
D42*
X39293Y31121D02*
Y30855D01*
X39426Y30721D01*
X39560Y30855D01*
Y31121D01*
X39893Y30721D02*
Y31121D01*
X39693Y30921D01*
X39959D01*
X40093Y31055D02*
X40159Y31121D01*
X40293D01*
X40359Y31055D01*
Y30788D01*
X40293Y30721D01*
X40159D01*
X40093Y30788D01*
Y31055D01*
X40893Y31121D02*
X41159D01*
X41026D01*
Y30721D01*
X41492D02*
X41359D01*
X41292Y30788D01*
Y30921D01*
X41359Y30988D01*
X41492D01*
X41559Y30921D01*
Y30855D01*
X41292D01*
X41692Y30721D02*
X41892D01*
X41959Y30788D01*
X41892Y30855D01*
X41759D01*
X41692Y30921D01*
X41759Y30988D01*
X41959D01*
X42159Y31055D02*
Y30988D01*
X42092D01*
X42225D01*
X42159D01*
Y30788D01*
X42225Y30721D01*
X42825Y31121D02*
Y30721D01*
Y30921D01*
X43092D01*
Y31121D01*
Y30721D01*
X43425D02*
X43292D01*
X43225Y30788D01*
Y30921D01*
X43292Y30988D01*
X43425D01*
X43492Y30921D01*
Y30855D01*
X43225D01*
X43692Y30988D02*
X43825D01*
X43892Y30921D01*
Y30721D01*
X43692D01*
X43625Y30788D01*
X43692Y30855D01*
X43892D01*
X44291Y31121D02*
Y30721D01*
X44092D01*
X44025Y30788D01*
Y30921D01*
X44092Y30988D01*
X44291D01*
X40159Y30049D02*
X40293D01*
X40226D01*
Y30449D01*
X40159Y30383D01*
X40493D02*
X40559Y30449D01*
X40693D01*
X40759Y30383D01*
Y30116D01*
X40693Y30049D01*
X40559D01*
X40493Y30116D01*
Y30383D01*
X41159Y30049D02*
X40893D01*
X41159Y30316D01*
Y30383D01*
X41092Y30449D01*
X40959D01*
X40893Y30383D01*
X41292Y30449D02*
X41559D01*
Y30383D01*
X41292Y30116D01*
Y30049D01*
X41692D02*
X41826D01*
X41759D01*
Y30449D01*
X41692Y30383D01*
X42025Y30049D02*
X42159D01*
X42092D01*
Y30449D01*
X42025Y30383D01*
X43025D02*
X42959Y30449D01*
X42825D01*
X42759Y30383D01*
Y30116D01*
X42825Y30049D01*
X42959D01*
X43025Y30116D01*
X43158Y30383D02*
X43225Y30449D01*
X43358D01*
X43425Y30383D01*
Y30116D01*
X43358Y30049D01*
X43225D01*
X43158Y30116D01*
Y30383D01*
X13567Y27400D02*
X13433D01*
X13500D01*
Y27067D01*
X13433Y27000D01*
X13367D01*
X13300Y27067D01*
X13700Y27000D02*
X13833D01*
X13767D01*
Y27400D01*
X13700Y27333D01*
X35770Y26500D02*
Y26900D01*
X35970D01*
X36037Y26833D01*
Y26700D01*
X35970Y26633D01*
X35770D01*
X35903D02*
X36037Y26500D01*
X36170Y26900D02*
Y26500D01*
X36436D01*
X36570Y26900D02*
Y26833D01*
X36703Y26700D01*
X36836Y26833D01*
Y26900D01*
X36703Y26700D02*
Y26500D01*
X38367Y26833D02*
X38300Y26900D01*
X38167D01*
X38100Y26833D01*
Y26567D01*
X38167Y26500D01*
X38300D01*
X38367Y26567D01*
Y26700D01*
X38233D01*
X38500Y26500D02*
Y26900D01*
X38766Y26500D01*
Y26900D01*
X38900D02*
Y26500D01*
X39100D01*
X39166Y26567D01*
Y26833D01*
X39100Y26900D01*
X38900D01*
X37346D02*
X37079D01*
Y26700D01*
X37212Y26767D01*
X37279D01*
X37346Y26700D01*
Y26567D01*
X37279Y26500D01*
X37146D01*
X37079Y26567D01*
X37479Y26900D02*
Y26633D01*
X37612Y26500D01*
X37746Y26633D01*
Y26900D01*
X35780Y30120D02*
Y30520D01*
X35980D01*
X36047Y30453D01*
Y30320D01*
X35980Y30253D01*
X35780D01*
X35913D02*
X36047Y30120D01*
X36380D02*
X36247D01*
X36180Y30187D01*
Y30320D01*
X36247Y30387D01*
X36380D01*
X36446Y30320D01*
Y30253D01*
X36180D01*
X36580Y30120D02*
Y30387D01*
X36646D01*
X36713Y30320D01*
Y30120D01*
Y30320D01*
X36780Y30387D01*
X36846Y30320D01*
Y30120D01*
X37046D02*
X37180D01*
X37246Y30187D01*
Y30320D01*
X37180Y30387D01*
X37046D01*
X36980Y30320D01*
Y30187D01*
X37046Y30120D01*
X37446Y30453D02*
Y30387D01*
X37379D01*
X37513D01*
X37446D01*
Y30187D01*
X37513Y30120D01*
X37913D02*
X37779D01*
X37713Y30187D01*
Y30320D01*
X37779Y30387D01*
X37913D01*
X37979Y30320D01*
Y30253D01*
X37713D01*
X51910Y15820D02*
X52043D01*
X51977D01*
Y16220D01*
X51910Y16153D01*
X9504Y26317D02*
X9618Y26017D01*
X9733Y26317D02*
X9618Y26017D01*
X9771Y26317D02*
Y26017D01*
Y26317D02*
X9871D01*
X9914Y26303D01*
X9943Y26274D01*
X9957Y26246D01*
X9971Y26203D01*
Y26131D01*
X9957Y26089D01*
X9943Y26060D01*
X9914Y26031D01*
X9871Y26017D01*
X9771D01*
X10038Y26317D02*
Y26017D01*
Y26317D02*
X10138D01*
X10181Y26303D01*
X10210Y26274D01*
X10224Y26246D01*
X10238Y26203D01*
Y26131D01*
X10224Y26089D01*
X10210Y26060D01*
X10181Y26031D01*
X10138Y26017D01*
X10038D01*
X9209Y20305D02*
Y20005D01*
Y20305D02*
X9309D01*
X9351Y20290D01*
X9380Y20262D01*
X9394Y20233D01*
X9409Y20190D01*
Y20119D01*
X9394Y20076D01*
X9380Y20048D01*
X9351Y20019D01*
X9309Y20005D01*
X9209D01*
X9704D02*
X9590Y20305D01*
X9476Y20005D01*
X9519Y20105D02*
X9661D01*
X9874Y20305D02*
Y20005D01*
X9774Y20305D02*
X9974D01*
X10238Y20005D02*
X10124Y20305D01*
X10010Y20005D01*
X10053Y20105D02*
X10196D01*
X9750Y19333D02*
X9736Y19362D01*
X9707Y19390D01*
X9678Y19405D01*
X9621D01*
X9593Y19390D01*
X9564Y19362D01*
X9550Y19333D01*
X9536Y19290D01*
Y19219D01*
X9550Y19176D01*
X9564Y19147D01*
X9593Y19119D01*
X9621Y19105D01*
X9678D01*
X9707Y19119D01*
X9736Y19147D01*
X9750Y19176D01*
X9834Y19405D02*
Y19105D01*
X10006D01*
X10038Y19405D02*
Y19105D01*
X10238Y19405D02*
X10038Y19205D01*
X10110Y19276D02*
X10238Y19105D01*
X15550Y22387D02*
Y22088D01*
Y22387D02*
X15679D01*
X15721Y22373D01*
X15736Y22359D01*
X15750Y22330D01*
Y22302D01*
X15736Y22273D01*
X15721Y22259D01*
X15679Y22245D01*
X15550D02*
X15679D01*
X15721Y22230D01*
X15736Y22216D01*
X15750Y22188D01*
Y22145D01*
X15736Y22116D01*
X15721Y22102D01*
X15679Y22088D01*
X15550D01*
X16046D02*
X15931Y22387D01*
X15817Y22088D01*
X15860Y22188D02*
X16003D01*
X16216Y22387D02*
Y22088D01*
X16116Y22387D02*
X16316D01*
X15764Y19316D02*
X15750Y19345D01*
X15721Y19373D01*
X15693Y19387D01*
X15636D01*
X15607Y19373D01*
X15579Y19345D01*
X15564Y19316D01*
X15550Y19273D01*
Y19202D01*
X15564Y19159D01*
X15579Y19130D01*
X15607Y19102D01*
X15636Y19088D01*
X15693D01*
X15721Y19102D01*
X15750Y19130D01*
X15764Y19159D01*
Y19202D01*
X15693D02*
X15764D01*
X15833Y19387D02*
Y19088D01*
Y19387D02*
X16033Y19088D01*
Y19387D02*
Y19088D01*
X16116Y19387D02*
Y19088D01*
Y19387D02*
X16216D01*
X16258Y19373D01*
X16287Y19345D01*
X16301Y19316D01*
X16316Y19273D01*
Y19202D01*
X16301Y19159D01*
X16287Y19130D01*
X16258Y19102D01*
X16216Y19088D01*
X16116D01*
X9457Y23400D02*
Y23100D01*
Y23400D02*
X9586D01*
X9628Y23386D01*
X9643Y23371D01*
X9657Y23343D01*
Y23314D01*
X9643Y23286D01*
X9628Y23271D01*
X9586Y23257D01*
X9457D01*
X9557D02*
X9657Y23100D01*
X9724Y23400D02*
Y23100D01*
Y23400D02*
X9838Y23100D01*
X9953Y23400D02*
X9838Y23100D01*
X9953Y23400D02*
Y23100D01*
X10138Y23400D02*
Y23100D01*
X10038Y23400D02*
X10238D01*
X15550Y20487D02*
Y20188D01*
Y20487D02*
X15679D01*
X15721Y20473D01*
X15736Y20459D01*
X15750Y20430D01*
Y20402D01*
X15736Y20373D01*
X15721Y20359D01*
X15679Y20345D01*
X15550D01*
X15650D02*
X15750Y20188D01*
X16003Y20487D02*
X15817D01*
Y20188D01*
X16003D01*
X15817Y20345D02*
X15931D01*
X16053Y20487D02*
Y20188D01*
X16224D01*
X16486D02*
X16371Y20487D01*
X16257Y20188D01*
X16300Y20288D02*
X16443D01*
X16556Y20487D02*
X16670Y20345D01*
Y20188D01*
X16784Y20487D02*
X16670Y20345D01*
X9798Y22005D02*
X9684Y22305D01*
X9570Y22005D01*
X9613Y22105D02*
X9756D01*
X10083Y22233D02*
X10068Y22262D01*
X10040Y22290D01*
X10011Y22305D01*
X9954D01*
X9926Y22290D01*
X9897Y22262D01*
X9883Y22233D01*
X9868Y22190D01*
Y22119D01*
X9883Y22076D01*
X9897Y22048D01*
X9926Y22019D01*
X9954Y22005D01*
X10011D01*
X10040Y22019D01*
X10068Y22048D01*
X10083Y22076D01*
X10167Y22247D02*
X10196Y22262D01*
X10238Y22305D01*
Y22005D01*
X9670Y21005D02*
X9556Y21305D01*
X9441Y21005D01*
X9484Y21105D02*
X9627D01*
X9954Y21233D02*
X9940Y21262D01*
X9911Y21290D01*
X9883Y21305D01*
X9826D01*
X9797Y21290D01*
X9768Y21262D01*
X9754Y21233D01*
X9740Y21190D01*
Y21119D01*
X9754Y21076D01*
X9768Y21047D01*
X9797Y21019D01*
X9826Y21005D01*
X9883D01*
X9911Y21019D01*
X9940Y21047D01*
X9954Y21076D01*
X10053Y21233D02*
Y21247D01*
X10067Y21276D01*
X10081Y21290D01*
X10110Y21305D01*
X10167D01*
X10196Y21290D01*
X10210Y21276D01*
X10224Y21247D01*
Y21219D01*
X10210Y21190D01*
X10181Y21147D01*
X10038Y21005D01*
X10238D01*
X15550Y26400D02*
Y26100D01*
Y26400D02*
X15664Y26100D01*
X15779Y26400D02*
X15664Y26100D01*
X15779Y26400D02*
Y26100D01*
X16078Y26329D02*
X16064Y26357D01*
X16036Y26386D01*
X16007Y26400D01*
X15950D01*
X15921Y26386D01*
X15893Y26357D01*
X15878Y26329D01*
X15864Y26286D01*
Y26214D01*
X15878Y26171D01*
X15893Y26143D01*
X15921Y26114D01*
X15950Y26100D01*
X16007D01*
X16036Y26114D01*
X16064Y26143D01*
X16078Y26171D01*
X16163Y26400D02*
Y26100D01*
X16334D01*
X16367Y26400D02*
Y26100D01*
Y26400D02*
X16496D01*
X16538Y26386D01*
X16553Y26371D01*
X16567Y26343D01*
Y26314D01*
X16553Y26286D01*
X16538Y26271D01*
X16496Y26257D01*
X16367D01*
X16467D02*
X16567Y26100D01*
X9174Y24500D02*
Y24200D01*
Y24500D02*
X9274D01*
X9317Y24486D01*
X9346Y24457D01*
X9360Y24429D01*
X9374Y24386D01*
Y24314D01*
X9360Y24271D01*
X9346Y24243D01*
X9317Y24214D01*
X9274Y24200D01*
X9174D01*
X9527Y24500D02*
X9499Y24486D01*
X9470Y24457D01*
X9456Y24429D01*
X9441Y24386D01*
Y24314D01*
X9456Y24271D01*
X9470Y24243D01*
X9499Y24214D01*
X9527Y24200D01*
X9584D01*
X9613Y24214D01*
X9641Y24243D01*
X9656Y24271D01*
X9670Y24314D01*
Y24386D01*
X9656Y24429D01*
X9641Y24457D01*
X9613Y24486D01*
X9584Y24500D01*
X9527D01*
X9826D02*
X9797Y24486D01*
X9768Y24457D01*
X9754Y24429D01*
X9740Y24386D01*
Y24314D01*
X9754Y24271D01*
X9768Y24243D01*
X9797Y24214D01*
X9826Y24200D01*
X9883D01*
X9911Y24214D01*
X9940Y24243D01*
X9954Y24271D01*
X9968Y24314D01*
Y24386D01*
X9954Y24429D01*
X9940Y24457D01*
X9911Y24486D01*
X9883Y24500D01*
X9826D01*
X10038D02*
Y24200D01*
Y24500D02*
X10167D01*
X10210Y24486D01*
X10224Y24471D01*
X10238Y24443D01*
Y24414D01*
X10224Y24386D01*
X10210Y24371D01*
X10167Y24357D01*
X10038D01*
X10138D02*
X10238Y24200D01*
X9400Y25400D02*
Y25100D01*
X9300Y25400D02*
X9500D01*
X9721D02*
X9536D01*
Y25100D01*
X9721D01*
X9536Y25257D02*
X9650D01*
X9971Y25357D02*
X9943Y25386D01*
X9900Y25400D01*
X9843D01*
X9800Y25386D01*
X9771Y25357D01*
Y25329D01*
X9786Y25300D01*
X9800Y25286D01*
X9828Y25271D01*
X9914Y25243D01*
X9943Y25229D01*
X9957Y25214D01*
X9971Y25186D01*
Y25143D01*
X9943Y25114D01*
X9900Y25100D01*
X9843D01*
X9800Y25114D01*
X9771Y25143D01*
X10138Y25400D02*
Y25100D01*
X10038Y25400D02*
X10238D01*
X15586Y24500D02*
X15557Y24486D01*
X15529Y24457D01*
X15514Y24429D01*
X15500Y24386D01*
Y24314D01*
X15514Y24271D01*
X15529Y24243D01*
X15557Y24214D01*
X15586Y24200D01*
X15643D01*
X15671Y24214D01*
X15700Y24243D01*
X15714Y24271D01*
X15729Y24314D01*
Y24386D01*
X15714Y24429D01*
X15700Y24457D01*
X15671Y24486D01*
X15643Y24500D01*
X15586D01*
X15799D02*
Y24200D01*
X15998Y24500D02*
X15799Y24300D01*
X15870Y24371D02*
X15998Y24200D01*
X16280Y24429D02*
X16266Y24457D01*
X16237Y24486D01*
X16208Y24500D01*
X16151D01*
X16123Y24486D01*
X16094Y24457D01*
X16080Y24429D01*
X16066Y24386D01*
Y24314D01*
X16080Y24271D01*
X16094Y24243D01*
X16123Y24214D01*
X16151Y24200D01*
X16208D01*
X16237Y24214D01*
X16266Y24243D01*
X16280Y24271D01*
X15721Y25387D02*
X15579D01*
X15564Y25259D01*
X15579Y25273D01*
X15621Y25287D01*
X15664D01*
X15707Y25273D01*
X15736Y25245D01*
X15750Y25202D01*
Y25173D01*
X15736Y25130D01*
X15707Y25102D01*
X15664Y25088D01*
X15621D01*
X15579Y25102D01*
X15564Y25116D01*
X15550Y25145D01*
X15817Y25387D02*
X15931Y25088D01*
X16046Y25387D02*
X15931Y25088D01*
X15764Y21316D02*
X15750Y21345D01*
X15721Y21373D01*
X15693Y21387D01*
X15636D01*
X15607Y21373D01*
X15579Y21345D01*
X15564Y21316D01*
X15550Y21273D01*
Y21202D01*
X15564Y21159D01*
X15579Y21130D01*
X15607Y21102D01*
X15636Y21088D01*
X15693D01*
X15721Y21102D01*
X15750Y21130D01*
X15764Y21159D01*
Y21202D01*
X15693D02*
X15764D01*
X15833Y21387D02*
Y21088D01*
Y21387D02*
X16033Y21088D01*
Y21387D02*
Y21088D01*
X16116Y21387D02*
Y21088D01*
Y21387D02*
X16216D01*
X16258Y21373D01*
X16287Y21345D01*
X16301Y21316D01*
X16316Y21273D01*
Y21202D01*
X16301Y21159D01*
X16287Y21130D01*
X16258Y21102D01*
X16216Y21088D01*
X16116D01*
X15550Y23387D02*
Y23088D01*
Y23387D02*
X15679D01*
X15721Y23373D01*
X15736Y23359D01*
X15750Y23330D01*
Y23302D01*
X15736Y23273D01*
X15721Y23259D01*
X15679Y23245D01*
X15550D01*
X15650D02*
X15750Y23088D01*
X16003Y23387D02*
X15817D01*
Y23088D01*
X16003D01*
X15817Y23245D02*
X15931D01*
X16053Y23387D02*
Y23088D01*
X16224D01*
X16486D02*
X16371Y23387D01*
X16257Y23088D01*
X16300Y23188D02*
X16443D01*
X16556Y23387D02*
X16670Y23245D01*
Y23088D01*
X16784Y23387D02*
X16670Y23245D01*
D43*
X14550Y19050D02*
X14683D01*
X14617D01*
Y19450D01*
X14550Y19383D01*
X11317Y19150D02*
X11050D01*
X11317Y19417D01*
Y19483D01*
X11250Y19550D01*
X11117D01*
X11050Y19483D01*
X14450Y26100D02*
X14573D01*
X14512D01*
Y26470D01*
X14450Y26408D01*
X15005Y26470D02*
X14758D01*
Y26285D01*
X14882Y26347D01*
X14943D01*
X15005Y26285D01*
Y26162D01*
X14943Y26100D01*
X14820D01*
X14758Y26162D01*
X10950Y26050D02*
X11083D01*
X11017D01*
Y26450D01*
X10950Y26383D01*
X11550Y26450D02*
X11417Y26383D01*
X11283Y26250D01*
Y26117D01*
X11350Y26050D01*
X11483D01*
X11550Y26117D01*
Y26183D01*
X11483Y26250D01*
X11283D01*
M02*
