G04 Layer_Color=16711935*
%FSLAX24Y24*%
%MOIN*%
G70*
G01*
G75*
%ADD45R,0.0781X0.1320*%
%ADD46C,0.0780*%
%ADD47C,0.0800*%
%ADD48C,0.0980*%
%ADD49R,0.0671X0.0671*%
%ADD50C,0.0671*%
%ADD51O,0.1580X0.1830*%
%ADD52C,0.1480*%
%ADD53C,0.1340*%
%ADD54O,0.1680X0.1980*%
%ADD55C,0.1000*%
%ADD56C,0.0640*%
%ADD57R,0.0640X0.0640*%
%ADD58C,0.0080*%
%ADD59R,0.0572X0.0671*%
%ADD60R,0.0651X0.0316*%
%ADD61R,0.0631X0.0474*%
%ADD62R,0.0671X0.0671*%
%ADD63R,0.0474X0.0631*%
D45*
X47370Y19000D02*
D03*
X49430D02*
D03*
D46*
X40400Y27600D02*
D03*
Y28600D02*
D03*
D47*
X36400Y27600D02*
D03*
Y28600D02*
D03*
X37400Y27600D02*
D03*
Y28600D02*
D03*
X38400Y27600D02*
D03*
Y28600D02*
D03*
D48*
X58832Y12490D02*
D03*
X59832D02*
D03*
X62382Y15290D02*
D03*
Y16290D02*
D03*
X61132Y24790D02*
D03*
X60132D02*
D03*
Y25790D02*
D03*
X61132D02*
D03*
X62132D02*
D03*
Y24790D02*
D03*
D49*
X52750Y16000D02*
D03*
D50*
X53750D02*
D03*
X52750Y17000D02*
D03*
X53750D02*
D03*
X52750Y18000D02*
D03*
X53750D02*
D03*
X52750Y19000D02*
D03*
X53750D02*
D03*
X52750Y20000D02*
D03*
X53750D02*
D03*
X52750Y21000D02*
D03*
X53750D02*
D03*
X52750Y22000D02*
D03*
X53750D02*
D03*
X52750Y23000D02*
D03*
X53750D02*
D03*
D51*
X43035Y4094D02*
D03*
X38035D02*
D03*
D52*
X38200Y32000D02*
D03*
X36450D02*
D03*
D53*
X51250Y10617D02*
D03*
X67250D02*
D03*
Y30117D02*
D03*
X51250D02*
D03*
D54*
X27200Y5990D02*
D03*
X32200D02*
D03*
D55*
X9950Y15700D02*
D03*
X8950D02*
D03*
X8840Y31390D02*
D03*
Y32390D02*
D03*
X9840D02*
D03*
X10840D02*
D03*
Y31390D02*
D03*
X9840D02*
D03*
D56*
X13450Y26250D02*
D03*
X12450D02*
D03*
X13450Y25250D02*
D03*
X12450D02*
D03*
X13450Y24250D02*
D03*
X12450D02*
D03*
X13450Y23250D02*
D03*
X12450D02*
D03*
X13450Y22250D02*
D03*
X12450D02*
D03*
X13450Y21250D02*
D03*
X12450D02*
D03*
X13450Y20250D02*
D03*
X12450D02*
D03*
Y19250D02*
D03*
D57*
X13450D02*
D03*
D58*
X18950Y10615D02*
D03*
X2950D02*
D03*
Y30115D02*
D03*
X18950D02*
D03*
D59*
X48013Y15438D02*
D03*
X47187D02*
D03*
Y11500D02*
D03*
X48013D02*
D03*
X47187Y14125D02*
D03*
X48013D02*
D03*
X52563Y28250D02*
D03*
X51737D02*
D03*
X47187Y12812D02*
D03*
X48013D02*
D03*
X47187Y16750D02*
D03*
X48013D02*
D03*
X52563Y26450D02*
D03*
X51737D02*
D03*
X48513Y26050D02*
D03*
X47687D02*
D03*
X46363Y23300D02*
D03*
X45537D02*
D03*
X48513Y24700D02*
D03*
X47687D02*
D03*
X30750Y19500D02*
D03*
X29923D02*
D03*
X30750Y21250D02*
D03*
X29923D02*
D03*
X29913Y15250D02*
D03*
X29087D02*
D03*
X27804D02*
D03*
X26977D02*
D03*
X30750Y23000D02*
D03*
X29923D02*
D03*
X30750Y24750D02*
D03*
X29923D02*
D03*
D60*
X47637Y31226D02*
D03*
Y31974D02*
D03*
X48563Y31600D02*
D03*
D61*
X50583Y26424D02*
D03*
Y25676D02*
D03*
X49717Y26050D02*
D03*
X50550Y28250D02*
D03*
Y27502D02*
D03*
X49684Y27876D02*
D03*
X48533Y23674D02*
D03*
Y22926D02*
D03*
X47667Y23300D02*
D03*
D62*
X32061Y19500D02*
D03*
X33439D02*
D03*
X32061Y21250D02*
D03*
X33439D02*
D03*
X32061Y23000D02*
D03*
X33439D02*
D03*
X32061Y24750D02*
D03*
X33439D02*
D03*
D63*
X29126Y17233D02*
D03*
X29874D02*
D03*
X29500Y16367D02*
D03*
X27026Y17283D02*
D03*
X27774D02*
D03*
X27400Y16417D02*
D03*
M02*
