G04 Layer_Color=2097348*
%FSLAX24Y24*%
%MOIN*%
G70*
G01*
G75*
%ADD12C,0.0150*%
%ADD14C,0.0100*%
%ADD16C,0.0200*%
%ADD42C,0.0080*%
%ADD66C,0.0050*%
%ADD67C,0.0020*%
%ADD68C,0.0030*%
%ADD69C,0.0160*%
%ADD70C,0.0240*%
D12*
X79260Y55971D02*
X160239D01*
X79260Y26172D02*
X160239D01*
X79260Y23689D02*
X160239D01*
Y58454D01*
X79260D02*
X160239D01*
X79260Y23689D02*
Y58454D01*
X147357Y23689D02*
Y58454D01*
X137801Y23689D02*
Y58454D01*
X125863Y23689D02*
Y58454D01*
X117698Y23689D02*
Y58454D01*
X97803Y23689D02*
Y58454D01*
X88170Y23689D02*
Y58454D01*
X47368Y35583D02*
X47535Y35750D01*
X47868D01*
X48035Y35583D01*
Y35417D01*
X47868Y35250D01*
X47702D01*
X47868D01*
X48035Y35083D01*
Y34917D01*
X47868Y34750D01*
X47535D01*
X47368Y34917D01*
X49034Y35750D02*
X48368D01*
Y35250D01*
X48701Y35417D01*
X48868D01*
X49034Y35250D01*
Y34917D01*
X48868Y34750D01*
X48535D01*
X48368Y34917D01*
X49368Y35583D02*
X49534Y35750D01*
X49868D01*
X50034Y35583D01*
Y34917D01*
X49868Y34750D01*
X49534D01*
X49368Y34917D01*
Y35583D01*
X50367D02*
X50534Y35750D01*
X50867D01*
X51034Y35583D01*
Y34917D01*
X50867Y34750D01*
X50534D01*
X50367Y34917D01*
Y35583D01*
X51367Y34750D02*
Y34917D01*
X51534D01*
Y34750D01*
X51367D01*
X52200Y35583D02*
X52367Y35750D01*
X52700D01*
X52867Y35583D01*
Y34917D01*
X52700Y34750D01*
X52367D01*
X52200Y34917D01*
Y35583D01*
X53200D02*
X53366Y35750D01*
X53700D01*
X53866Y35583D01*
Y34917D01*
X53700Y34750D01*
X53366D01*
X53200Y34917D01*
Y35583D01*
X54199Y34750D02*
Y35417D01*
X54366D01*
X54533Y35250D01*
Y34750D01*
Y35250D01*
X54699Y35417D01*
X54866Y35250D01*
Y34750D01*
X55199D02*
X55532D01*
X55366D01*
Y35417D01*
X55199D01*
X56032Y34750D02*
X56365D01*
X56199D01*
Y35750D01*
X56032D01*
X56865Y34750D02*
X57365D01*
X57532Y34917D01*
X57365Y35083D01*
X57032D01*
X56865Y35250D01*
X57032Y35417D01*
X57532D01*
X30517Y-7850D02*
X29851D01*
X30517Y-7183D01*
Y-7017D01*
X30351Y-6850D01*
X30017D01*
X29851Y-7017D01*
X30851Y-7850D02*
X31184D01*
X31017D01*
Y-6850D01*
X30851Y-7017D01*
X31684D02*
X31850Y-6850D01*
X32183D01*
X32350Y-7017D01*
Y-7183D01*
X32183Y-7350D01*
X32017D01*
X32183D01*
X32350Y-7517D01*
Y-7683D01*
X32183Y-7850D01*
X31850D01*
X31684Y-7683D01*
X32683D02*
X32850Y-7850D01*
X33183D01*
X33350Y-7683D01*
Y-7017D01*
X33183Y-6850D01*
X32850D01*
X32683Y-7017D01*
Y-7183D01*
X32850Y-7350D01*
X33350D01*
X33683Y-7850D02*
Y-7683D01*
X33850D01*
Y-7850D01*
X33683D01*
X34516Y-7017D02*
X34683Y-6850D01*
X35016D01*
X35182Y-7017D01*
Y-7183D01*
X35016Y-7350D01*
X35182Y-7517D01*
Y-7683D01*
X35016Y-7850D01*
X34683D01*
X34516Y-7683D01*
Y-7517D01*
X34683Y-7350D01*
X34516Y-7183D01*
Y-7017D01*
X34683Y-7350D02*
X35016D01*
X36016Y-7850D02*
Y-6850D01*
X35516Y-7350D01*
X36182D01*
X36515Y-7850D02*
Y-7183D01*
X36682D01*
X36849Y-7350D01*
Y-7850D01*
Y-7350D01*
X37015Y-7183D01*
X37182Y-7350D01*
Y-7850D01*
X37515D02*
X37848D01*
X37682D01*
Y-7183D01*
X37515D01*
X38348Y-7850D02*
X38681D01*
X38515D01*
Y-6850D01*
X38348D01*
X39181Y-7850D02*
X39681D01*
X39848Y-7683D01*
X39681Y-7517D01*
X39348D01*
X39181Y-7350D01*
X39348Y-7183D01*
X39848D01*
X29768Y44350D02*
X30435D01*
Y44183D01*
X29768Y43517D01*
Y43350D01*
X30768Y44183D02*
X30935Y44350D01*
X31268D01*
X31434Y44183D01*
Y43517D01*
X31268Y43350D01*
X30935D01*
X30768Y43517D01*
Y44183D01*
X32434Y43350D02*
X31768D01*
X32434Y44017D01*
Y44183D01*
X32267Y44350D01*
X31934D01*
X31768Y44183D01*
X32767D02*
X32934Y44350D01*
X33267D01*
X33434Y44183D01*
Y43517D01*
X33267Y43350D01*
X32934D01*
X32767Y43517D01*
Y44183D01*
X33767Y43350D02*
Y43517D01*
X33934D01*
Y43350D01*
X33767D01*
X34600Y44183D02*
X34767Y44350D01*
X35100D01*
X35267Y44183D01*
Y43517D01*
X35100Y43350D01*
X34767D01*
X34600Y43517D01*
Y44183D01*
X35600D02*
X35766Y44350D01*
X36100D01*
X36266Y44183D01*
Y43517D01*
X36100Y43350D01*
X35766D01*
X35600Y43517D01*
Y44183D01*
X36599Y43350D02*
Y44017D01*
X36766D01*
X36933Y43850D01*
Y43350D01*
Y43850D01*
X37099Y44017D01*
X37266Y43850D01*
Y43350D01*
X37599D02*
X37932D01*
X37766D01*
Y44017D01*
X37599D01*
X38432Y43350D02*
X38765D01*
X38599D01*
Y44350D01*
X38432D01*
X39265Y43350D02*
X39765D01*
X39932Y43517D01*
X39765Y43683D01*
X39432D01*
X39265Y43850D01*
X39432Y44017D01*
X39932D01*
X-3150Y16135D02*
Y15468D01*
X-3817Y16135D01*
X-3983D01*
X-4150Y15968D01*
Y15635D01*
X-3983Y15468D01*
X-3150Y16968D02*
X-4150D01*
X-3650Y16468D01*
Y17134D01*
X-3983Y17468D02*
X-4150Y17634D01*
Y17967D01*
X-3983Y18134D01*
X-3817D01*
X-3650Y17967D01*
X-3483Y18134D01*
X-3317D01*
X-3150Y17967D01*
Y17634D01*
X-3317Y17468D01*
X-3483D01*
X-3650Y17634D01*
X-3817Y17468D01*
X-3983D01*
X-3650Y17634D02*
Y17967D01*
X-3983Y18467D02*
X-4150Y18634D01*
Y18967D01*
X-3983Y19134D01*
X-3317D01*
X-3150Y18967D01*
Y18634D01*
X-3317Y18467D01*
X-3983D01*
X-3150Y19467D02*
X-3317D01*
Y19634D01*
X-3150D01*
Y19467D01*
X-3983Y20300D02*
X-4150Y20467D01*
Y20800D01*
X-3983Y20967D01*
X-3317D01*
X-3150Y20800D01*
Y20467D01*
X-3317Y20300D01*
X-3983D01*
Y21300D02*
X-4150Y21466D01*
Y21800D01*
X-3983Y21966D01*
X-3317D01*
X-3150Y21800D01*
Y21466D01*
X-3317Y21300D01*
X-3983D01*
X-3150Y22299D02*
X-3817D01*
Y22466D01*
X-3650Y22633D01*
X-3150D01*
X-3650D01*
X-3817Y22799D01*
X-3650Y22966D01*
X-3150D01*
Y23299D02*
Y23632D01*
Y23466D01*
X-3817D01*
Y23299D01*
X-3150Y24132D02*
Y24465D01*
Y24299D01*
X-4150D01*
Y24132D01*
X-3150Y24965D02*
Y25465D01*
X-3317Y25632D01*
X-3483Y25465D01*
Y25132D01*
X-3650Y24965D01*
X-3817Y25132D01*
Y25632D01*
X29916Y36950D02*
X29250D01*
X29916Y37616D01*
Y37783D01*
X29750Y37950D01*
X29417D01*
X29250Y37783D01*
X30250D02*
X30416Y37950D01*
X30750D01*
X30916Y37783D01*
Y37117D01*
X30750Y36950D01*
X30416D01*
X30250Y37117D01*
Y37783D01*
X31249Y36950D02*
Y37117D01*
X31416D01*
Y36950D01*
X31249D01*
X32082Y37783D02*
X32249Y37950D01*
X32582D01*
X32749Y37783D01*
Y37117D01*
X32582Y36950D01*
X32249D01*
X32082Y37117D01*
Y37783D01*
X33082D02*
X33249Y37950D01*
X33582D01*
X33749Y37783D01*
Y37117D01*
X33582Y36950D01*
X33249D01*
X33082Y37117D01*
Y37783D01*
D14*
X81333Y42368D02*
G03*
X81333Y42368I-552J0D01*
G01*
X81112Y27469D02*
G03*
X81112Y27469I-331J0D01*
G01*
X81333D02*
G03*
X81333Y27469I-552J0D01*
G01*
X80615Y54619D02*
X80781Y54454D01*
X80450Y54619D02*
X80615D01*
X80450D02*
X80615Y54785D01*
X80450Y54950D02*
X80615Y54785D01*
X80450Y54950D02*
X80615D01*
X80781Y55116D01*
X80946Y54950D01*
X81112D01*
X80946Y54785D02*
X81112Y54950D01*
X80946Y54785D02*
X81112Y54619D01*
X80946D02*
X81112D01*
X80781Y54454D02*
X80946Y54619D01*
X80505Y54509D02*
X80781Y54233D01*
X80229Y54509D02*
X80505D01*
X80229D02*
X80505Y54785D01*
X80229Y55061D02*
X80505Y54785D01*
X80229Y55061D02*
X80505D01*
X80781Y55336D01*
X81057Y55061D01*
X81333D01*
X81057Y54785D02*
X81333Y55061D01*
X81057Y54785D02*
X81333Y54509D01*
X81057D02*
X81333D01*
X80781Y54233D02*
X81057Y54509D01*
X80781Y51970D02*
X81112Y52632D01*
X80450D02*
X81112D01*
X80450D02*
X80781Y51970D01*
Y51750D02*
X81333Y52853D01*
X80229D02*
X81333D01*
X80229D02*
X80781Y51750D01*
X80229Y49266D02*
X81333D01*
Y50370D01*
X80229D02*
X81333D01*
X80229Y49266D02*
Y50370D01*
Y47059D02*
X80505D01*
X80229D02*
Y47611D01*
X80505D01*
Y47887D01*
X81057D01*
Y47611D02*
Y47887D01*
Y47611D02*
X81333D01*
Y47059D02*
Y47611D01*
X81057Y47059D02*
X81333D01*
X81057Y46783D02*
Y47059D01*
X80505Y46783D02*
X81057D01*
X80505D02*
Y47059D01*
X80229Y44300D02*
X80781Y44576D01*
X81333Y44300D01*
X81057Y44852D02*
X81333Y44300D01*
X81057Y44852D02*
X81333Y45403D01*
X80781Y45128D02*
X81333Y45403D01*
X80229D02*
X80781Y45128D01*
X80229Y45403D02*
X80505Y44852D01*
X80229Y44300D02*
X80505Y44852D01*
X80229Y39885D02*
X80781Y39333D01*
X81333Y39885D01*
X80781Y40437D02*
X81333Y39885D01*
X80229D02*
X80781Y40437D01*
X80229Y36850D02*
Y37126D01*
X80505Y37402D01*
X80229Y37678D02*
X80505Y37402D01*
X80229Y37678D02*
Y37954D01*
X80505D01*
X80781Y37678D01*
X81057Y37954D01*
X81333D01*
Y37678D02*
Y37954D01*
X81057Y37402D02*
X81333Y37678D01*
X81057Y37402D02*
X81333Y37126D01*
Y36850D02*
Y37126D01*
X81057Y36850D02*
X81333D01*
X80781Y37126D02*
X81057Y36850D01*
X80505D02*
X80781Y37126D01*
X80229Y36850D02*
X80505D01*
X80781Y34367D02*
X81333Y35470D01*
X80229D02*
X81333D01*
X80229D02*
X80781Y34367D01*
X80450Y32104D02*
X81112D01*
Y32766D01*
X80450D02*
X81112D01*
X80450Y32104D02*
Y32766D01*
X80229Y31883D02*
X81333D01*
Y32987D01*
X80229D02*
X81333D01*
X80229Y31883D02*
Y32987D01*
X80505Y29676D02*
X80781Y29400D01*
X80229Y29676D02*
X80505D01*
X80229D02*
X80505Y29952D01*
X80229Y30228D02*
X80505Y29952D01*
X80229Y30228D02*
X80505D01*
X80781Y30504D01*
X81057Y30228D01*
X81333D01*
X81057Y29952D02*
X81333Y30228D01*
X81057Y29952D02*
X81333Y29676D01*
X81057D02*
X81333D01*
X80781Y29400D02*
X81057Y29676D01*
X45798Y-7300D02*
Y-125D01*
X24400Y-7300D02*
Y-125D01*
X40098Y-7200D02*
X45798D01*
X24400D02*
X29601D01*
X45198Y-7000D02*
X45798Y-7200D01*
X45198Y-7400D02*
X45798Y-7200D01*
X24400D02*
X25000Y-7400D01*
X24400Y-7200D02*
X25000Y-7000D01*
X70200Y33326D02*
Y44100D01*
X0Y33325D02*
Y44100D01*
X40182Y44000D02*
X70200D01*
X0D02*
X29518D01*
X69600Y44200D02*
X70200Y44000D01*
X69600Y43800D02*
X70200Y44000D01*
X0D02*
X600Y43800D01*
X0Y44000D02*
X600Y44200D01*
X-3900Y33200D02*
X-125D01*
X-3900Y8400D02*
X-125D01*
X-3800Y25882D02*
Y33200D01*
Y8400D02*
Y15218D01*
X-4000Y32600D02*
X-3800Y33200D01*
X-3600Y32600D01*
X-3800Y8400D02*
X-3600Y9000D01*
X-4000D02*
X-3800Y8400D01*
X34300Y-1150D02*
X34750Y-1050D01*
Y-1500D02*
Y-1050D01*
X32650Y-3600D02*
X34750Y-1050D01*
X148102Y54233D02*
Y55226D01*
X148598D01*
X148764Y55060D01*
Y54729D01*
X148598Y54564D01*
X148102D01*
X148433D02*
X148764Y54233D01*
X149260D02*
X149591D01*
X149757Y54398D01*
Y54729D01*
X149591Y54895D01*
X149260D01*
X149095Y54729D01*
Y54398D01*
X149260Y54233D01*
X150088Y54895D02*
Y54398D01*
X150253Y54233D01*
X150750D01*
Y54895D01*
X151081Y54233D02*
Y54895D01*
X151577D01*
X151743Y54729D01*
Y54233D01*
X152736Y55226D02*
Y54233D01*
X152239D01*
X152074Y54398D01*
Y54729D01*
X152239Y54895D01*
X152736D01*
X153563Y54233D02*
X153232D01*
X153067Y54398D01*
Y54729D01*
X153232Y54895D01*
X153563D01*
X153729Y54729D01*
Y54564D01*
X153067D01*
X154722Y55226D02*
Y54233D01*
X154225D01*
X154060Y54398D01*
Y54729D01*
X154225Y54895D01*
X154722D01*
X148102Y51750D02*
Y52743D01*
X148598D01*
X148764Y52577D01*
Y52246D01*
X148598Y52081D01*
X148102D01*
X148433D02*
X148764Y51750D01*
X149260D02*
X149591D01*
X149757Y51915D01*
Y52246D01*
X149591Y52412D01*
X149260D01*
X149095Y52246D01*
Y51915D01*
X149260Y51750D01*
X150088Y52412D02*
Y51915D01*
X150253Y51750D01*
X150750D01*
Y52412D01*
X151081Y51750D02*
Y52412D01*
X151577D01*
X151743Y52246D01*
Y51750D01*
X152736Y52743D02*
Y51750D01*
X152239D01*
X152074Y51915D01*
Y52246D01*
X152239Y52412D01*
X152736D01*
X153563Y51750D02*
X153232D01*
X153067Y51915D01*
Y52246D01*
X153232Y52412D01*
X153563D01*
X153729Y52246D01*
Y52081D01*
X153067D01*
X154722Y52743D02*
Y51750D01*
X154225D01*
X154060Y51915D01*
Y52246D01*
X154225Y52412D01*
X154722D01*
X148102Y49266D02*
Y50259D01*
X148598D01*
X148764Y50094D01*
Y49763D01*
X148598Y49597D01*
X148102D01*
X148433D02*
X148764Y49266D01*
X149260D02*
X149591D01*
X149757Y49432D01*
Y49763D01*
X149591Y49928D01*
X149260D01*
X149095Y49763D01*
Y49432D01*
X149260Y49266D01*
X150088Y49928D02*
Y49432D01*
X150253Y49266D01*
X150750D01*
Y49928D01*
X151081Y49266D02*
Y49928D01*
X151577D01*
X151743Y49763D01*
Y49266D01*
X152736Y50259D02*
Y49266D01*
X152239D01*
X152074Y49432D01*
Y49763D01*
X152239Y49928D01*
X152736D01*
X153563Y49266D02*
X153232D01*
X153067Y49432D01*
Y49763D01*
X153232Y49928D01*
X153563D01*
X153729Y49763D01*
Y49597D01*
X153067D01*
X154722Y50259D02*
Y49266D01*
X154225D01*
X154060Y49432D01*
Y49763D01*
X154225Y49928D01*
X154722D01*
X148102Y46783D02*
Y47776D01*
X148598D01*
X148764Y47611D01*
Y47280D01*
X148598Y47114D01*
X148102D01*
X148433D02*
X148764Y46783D01*
X149260D02*
X149591D01*
X149757Y46949D01*
Y47280D01*
X149591Y47445D01*
X149260D01*
X149095Y47280D01*
Y46949D01*
X149260Y46783D01*
X150088Y47445D02*
Y46949D01*
X150253Y46783D01*
X150750D01*
Y47445D01*
X151081Y46783D02*
Y47445D01*
X151577D01*
X151743Y47280D01*
Y46783D01*
X152736Y47776D02*
Y46783D01*
X152239D01*
X152074Y46949D01*
Y47280D01*
X152239Y47445D01*
X152736D01*
X153563Y46783D02*
X153232D01*
X153067Y46949D01*
Y47280D01*
X153232Y47445D01*
X153563D01*
X153729Y47280D01*
Y47114D01*
X153067D01*
X154722Y47776D02*
Y46783D01*
X154225D01*
X154060Y46949D01*
Y47280D01*
X154225Y47445D01*
X154722D01*
X148102Y44300D02*
Y45293D01*
X148598D01*
X148764Y45127D01*
Y44796D01*
X148598Y44631D01*
X148102D01*
X148433D02*
X148764Y44300D01*
X149260D02*
X149591D01*
X149757Y44465D01*
Y44796D01*
X149591Y44962D01*
X149260D01*
X149095Y44796D01*
Y44465D01*
X149260Y44300D01*
X150088Y44962D02*
Y44465D01*
X150253Y44300D01*
X150750D01*
Y44962D01*
X151081Y44300D02*
Y44962D01*
X151577D01*
X151743Y44796D01*
Y44300D01*
X152736Y45293D02*
Y44300D01*
X152239D01*
X152074Y44465D01*
Y44796D01*
X152239Y44962D01*
X152736D01*
X153563Y44300D02*
X153232D01*
X153067Y44465D01*
Y44796D01*
X153232Y44962D01*
X153563D01*
X153729Y44796D01*
Y44631D01*
X153067D01*
X154722Y45293D02*
Y44300D01*
X154225D01*
X154060Y44465D01*
Y44796D01*
X154225Y44962D01*
X154722D01*
X148102Y41817D02*
Y42810D01*
X148598D01*
X148764Y42644D01*
Y42313D01*
X148598Y42148D01*
X148102D01*
X148433D02*
X148764Y41817D01*
X149260D02*
X149591D01*
X149757Y41982D01*
Y42313D01*
X149591Y42479D01*
X149260D01*
X149095Y42313D01*
Y41982D01*
X149260Y41817D01*
X150088Y42479D02*
Y41982D01*
X150253Y41817D01*
X150750D01*
Y42479D01*
X151081Y41817D02*
Y42479D01*
X151577D01*
X151743Y42313D01*
Y41817D01*
X152736Y42810D02*
Y41817D01*
X152239D01*
X152074Y41982D01*
Y42313D01*
X152239Y42479D01*
X152736D01*
X153563Y41817D02*
X153232D01*
X153067Y41982D01*
Y42313D01*
X153232Y42479D01*
X153563D01*
X153729Y42313D01*
Y42148D01*
X153067D01*
X154722Y42810D02*
Y41817D01*
X154225D01*
X154060Y41982D01*
Y42313D01*
X154225Y42479D01*
X154722D01*
X148102Y39333D02*
Y40326D01*
X148598D01*
X148764Y40161D01*
Y39830D01*
X148598Y39664D01*
X148102D01*
X148433D02*
X148764Y39333D01*
X149260D02*
X149591D01*
X149757Y39499D01*
Y39830D01*
X149591Y39995D01*
X149260D01*
X149095Y39830D01*
Y39499D01*
X149260Y39333D01*
X150088Y39995D02*
Y39499D01*
X150253Y39333D01*
X150750D01*
Y39995D01*
X151081Y39333D02*
Y39995D01*
X151577D01*
X151743Y39830D01*
Y39333D01*
X152736Y40326D02*
Y39333D01*
X152239D01*
X152074Y39499D01*
Y39830D01*
X152239Y39995D01*
X152736D01*
X153563Y39333D02*
X153232D01*
X153067Y39499D01*
Y39830D01*
X153232Y39995D01*
X153563D01*
X153729Y39830D01*
Y39664D01*
X153067D01*
X154722Y40326D02*
Y39333D01*
X154225D01*
X154060Y39499D01*
Y39830D01*
X154225Y39995D01*
X154722D01*
X148102Y36850D02*
Y37843D01*
X148598D01*
X148764Y37677D01*
Y37346D01*
X148598Y37181D01*
X148102D01*
X148433D02*
X148764Y36850D01*
X149260D02*
X149591D01*
X149757Y37016D01*
Y37346D01*
X149591Y37512D01*
X149260D01*
X149095Y37346D01*
Y37016D01*
X149260Y36850D01*
X150088Y37512D02*
Y37016D01*
X150253Y36850D01*
X150750D01*
Y37512D01*
X151081Y36850D02*
Y37512D01*
X151577D01*
X151743Y37346D01*
Y36850D01*
X152736Y37843D02*
Y36850D01*
X152239D01*
X152074Y37016D01*
Y37346D01*
X152239Y37512D01*
X152736D01*
X153563Y36850D02*
X153232D01*
X153067Y37016D01*
Y37346D01*
X153232Y37512D01*
X153563D01*
X153729Y37346D01*
Y37181D01*
X153067D01*
X154722Y37843D02*
Y36850D01*
X154225D01*
X154060Y37016D01*
Y37346D01*
X154225Y37512D01*
X154722D01*
X148102Y34367D02*
Y35360D01*
X148598D01*
X148764Y35194D01*
Y34863D01*
X148598Y34698D01*
X148102D01*
X148433D02*
X148764Y34367D01*
X149260D02*
X149591D01*
X149757Y34532D01*
Y34863D01*
X149591Y35029D01*
X149260D01*
X149095Y34863D01*
Y34532D01*
X149260Y34367D01*
X150088Y35029D02*
Y34532D01*
X150253Y34367D01*
X150750D01*
Y35029D01*
X151081Y34367D02*
Y35029D01*
X151577D01*
X151743Y34863D01*
Y34367D01*
X152736Y35360D02*
Y34367D01*
X152239D01*
X152074Y34532D01*
Y34863D01*
X152239Y35029D01*
X152736D01*
X153563Y34367D02*
X153232D01*
X153067Y34532D01*
Y34863D01*
X153232Y35029D01*
X153563D01*
X153729Y34863D01*
Y34698D01*
X153067D01*
X154722Y35360D02*
Y34367D01*
X154225D01*
X154060Y34532D01*
Y34863D01*
X154225Y35029D01*
X154722D01*
X148433Y31883D02*
X148102Y32214D01*
Y32545D01*
X148433Y32876D01*
X148929Y31883D02*
Y32876D01*
X149260Y32545D01*
X149591Y32876D01*
Y31883D01*
X149922D02*
X150253D01*
X150088D01*
Y32545D01*
X149922D01*
X150750D02*
X151412Y31883D01*
X151081Y32214D01*
X151412Y32545D01*
X150750Y31883D01*
X152239D02*
X151908D01*
X151743Y32049D01*
Y32380D01*
X151908Y32545D01*
X152239D01*
X152405Y32380D01*
Y32214D01*
X151743D01*
X153398Y32876D02*
Y31883D01*
X152901D01*
X152736Y32049D01*
Y32380D01*
X152901Y32545D01*
X153398D01*
X153729Y31883D02*
X154060Y32214D01*
Y32545D01*
X153729Y32876D01*
X148433Y29400D02*
X148102Y29731D01*
Y30062D01*
X148433Y30393D01*
X148929Y29400D02*
Y30393D01*
X149260Y30062D01*
X149591Y30393D01*
Y29400D01*
X149922D02*
X150253D01*
X150088D01*
Y30062D01*
X149922D01*
X150750D02*
X151412Y29400D01*
X151081Y29731D01*
X151412Y30062D01*
X150750Y29400D01*
X152239D02*
X151908D01*
X151743Y29566D01*
Y29897D01*
X151908Y30062D01*
X152239D01*
X152405Y29897D01*
Y29731D01*
X151743D01*
X153398Y30393D02*
Y29400D01*
X152901D01*
X152736Y29566D01*
Y29897D01*
X152901Y30062D01*
X153398D01*
X153729Y29400D02*
X154060Y29731D01*
Y30062D01*
X153729Y30393D01*
X148102Y26917D02*
Y27910D01*
X148598D01*
X148764Y27744D01*
Y27413D01*
X148598Y27248D01*
X148102D01*
X148433D02*
X148764Y26917D01*
X149260D02*
X149591D01*
X149757Y27082D01*
Y27413D01*
X149591Y27579D01*
X149260D01*
X149095Y27413D01*
Y27082D01*
X149260Y26917D01*
X150088Y27579D02*
Y27082D01*
X150253Y26917D01*
X150750D01*
Y27579D01*
X151081Y26917D02*
Y27579D01*
X151577D01*
X151743Y27413D01*
Y26917D01*
X152736Y27910D02*
Y26917D01*
X152239D01*
X152074Y27082D01*
Y27413D01*
X152239Y27579D01*
X152736D01*
X153563Y26917D02*
X153232D01*
X153067Y27082D01*
Y27413D01*
X153232Y27579D01*
X153563D01*
X153729Y27413D01*
Y27248D01*
X153067D01*
X154722Y27910D02*
Y26917D01*
X154225D01*
X154060Y27082D01*
Y27413D01*
X154225Y27579D01*
X154722D01*
X138546Y55226D02*
Y54564D01*
X138877Y54233D01*
X139208Y54564D01*
Y55226D01*
X139539Y54233D02*
X139870D01*
X139705D01*
Y54895D01*
X139539D01*
X140532D02*
X140863D01*
X141029Y54729D01*
Y54233D01*
X140532D01*
X140367Y54398D01*
X140532Y54564D01*
X141029D01*
X138546Y52743D02*
Y52081D01*
X138877Y51750D01*
X139208Y52081D01*
Y52743D01*
X139539Y51750D02*
X139870D01*
X139705D01*
Y52412D01*
X139539D01*
X140532D02*
X140863D01*
X141029Y52246D01*
Y51750D01*
X140532D01*
X140367Y51915D01*
X140532Y52081D01*
X141029D01*
X138546Y49266D02*
Y50259D01*
X139043D01*
X139208Y50094D01*
Y49763D01*
X139043Y49597D01*
X138546D01*
X139705Y49928D02*
X140036D01*
X140201Y49763D01*
Y49266D01*
X139705D01*
X139539Y49432D01*
X139705Y49597D01*
X140201D01*
X141194Y50259D02*
Y49266D01*
X140698D01*
X140532Y49432D01*
Y49763D01*
X140698Y49928D01*
X141194D01*
X138546Y46783D02*
Y47776D01*
X139043D01*
X139208Y47611D01*
Y47280D01*
X139043Y47114D01*
X138546D01*
X139705Y47445D02*
X140036D01*
X140201Y47280D01*
Y46783D01*
X139705D01*
X139539Y46949D01*
X139705Y47114D01*
X140201D01*
X141194Y47776D02*
Y46783D01*
X140698D01*
X140532Y46949D01*
Y47280D01*
X140698Y47445D01*
X141194D01*
X138546Y44300D02*
Y45293D01*
X139043D01*
X139208Y45127D01*
Y44796D01*
X139043Y44631D01*
X138546D01*
X139705Y44962D02*
X140036D01*
X140201Y44796D01*
Y44300D01*
X139705D01*
X139539Y44465D01*
X139705Y44631D01*
X140201D01*
X141194Y45293D02*
Y44300D01*
X140698D01*
X140532Y44465D01*
Y44796D01*
X140698Y44962D01*
X141194D01*
X138546Y41817D02*
Y42810D01*
X139043D01*
X139208Y42644D01*
Y42313D01*
X139043Y42148D01*
X138546D01*
X139705Y42479D02*
X140036D01*
X140201Y42313D01*
Y41817D01*
X139705D01*
X139539Y41982D01*
X139705Y42148D01*
X140201D01*
X141194Y42810D02*
Y41817D01*
X140698D01*
X140532Y41982D01*
Y42313D01*
X140698Y42479D01*
X141194D01*
X138546Y39333D02*
Y40326D01*
X139043D01*
X139208Y40161D01*
Y39830D01*
X139043Y39664D01*
X138546D01*
X139705Y39995D02*
X140036D01*
X140201Y39830D01*
Y39333D01*
X139705D01*
X139539Y39499D01*
X139705Y39664D01*
X140201D01*
X141194Y40326D02*
Y39333D01*
X140698D01*
X140532Y39499D01*
Y39830D01*
X140698Y39995D01*
X141194D01*
X138546Y36850D02*
Y37843D01*
X139043D01*
X139208Y37677D01*
Y37346D01*
X139043Y37181D01*
X138546D01*
X139705Y37512D02*
X140036D01*
X140201Y37346D01*
Y36850D01*
X139705D01*
X139539Y37016D01*
X139705Y37181D01*
X140201D01*
X141194Y37843D02*
Y36850D01*
X140698D01*
X140532Y37016D01*
Y37346D01*
X140698Y37512D01*
X141194D01*
X138546Y34367D02*
Y35360D01*
X139043D01*
X139208Y35194D01*
Y34863D01*
X139043Y34698D01*
X138546D01*
X139705Y35029D02*
X140036D01*
X140201Y34863D01*
Y34367D01*
X139705D01*
X139539Y34532D01*
X139705Y34698D01*
X140201D01*
X141194Y35360D02*
Y34367D01*
X140698D01*
X140532Y34532D01*
Y34863D01*
X140698Y35029D01*
X141194D01*
X138546Y31883D02*
Y32876D01*
X139043D01*
X139208Y32711D01*
Y32380D01*
X139043Y32214D01*
X138546D01*
X139705Y32545D02*
X140036D01*
X140201Y32380D01*
Y31883D01*
X139705D01*
X139539Y32049D01*
X139705Y32214D01*
X140201D01*
X141194Y32876D02*
Y31883D01*
X140698D01*
X140532Y32049D01*
Y32380D01*
X140698Y32545D01*
X141194D01*
X138546Y29400D02*
Y30393D01*
X139043D01*
X139208Y30228D01*
Y29897D01*
X139043Y29731D01*
X138546D01*
X139705Y30062D02*
X140036D01*
X140201Y29897D01*
Y29400D01*
X139705D01*
X139539Y29566D01*
X139705Y29731D01*
X140201D01*
X141194Y30393D02*
Y29400D01*
X140698D01*
X140532Y29566D01*
Y29897D01*
X140698Y30062D01*
X141194D01*
X138546Y27910D02*
Y27248D01*
X138877Y26917D01*
X139208Y27248D01*
Y27910D01*
X139539Y26917D02*
X139870D01*
X139705D01*
Y27579D01*
X139539D01*
X140532D02*
X140863D01*
X141029Y27413D01*
Y26917D01*
X140532D01*
X140367Y27082D01*
X140532Y27248D01*
X141029D01*
X126608Y54233D02*
Y55226D01*
X127105D01*
X127270Y55060D01*
Y54729D01*
X127105Y54564D01*
X126608D01*
X126939D02*
X127270Y54233D01*
X127767D02*
X128097D01*
X128263Y54398D01*
Y54729D01*
X128097Y54895D01*
X127767D01*
X127601Y54729D01*
Y54398D01*
X127767Y54233D01*
X128594Y54895D02*
Y54398D01*
X128759Y54233D01*
X129256D01*
Y54895D01*
X129587Y54233D02*
Y54895D01*
X130083D01*
X130249Y54729D01*
Y54233D01*
X131242Y55226D02*
Y54233D01*
X130745D01*
X130580Y54398D01*
Y54729D01*
X130745Y54895D01*
X131242D01*
X126608Y51750D02*
Y52743D01*
X127105D01*
X127270Y52577D01*
Y52246D01*
X127105Y52081D01*
X126608D01*
X126939D02*
X127270Y51750D01*
X127767D02*
X128097D01*
X128263Y51915D01*
Y52246D01*
X128097Y52412D01*
X127767D01*
X127601Y52246D01*
Y51915D01*
X127767Y51750D01*
X128594Y52412D02*
Y51915D01*
X128759Y51750D01*
X129256D01*
Y52412D01*
X129587Y51750D02*
Y52412D01*
X130083D01*
X130249Y52246D01*
Y51750D01*
X131242Y52743D02*
Y51750D01*
X130745D01*
X130580Y51915D01*
Y52246D01*
X130745Y52412D01*
X131242D01*
X126608Y49266D02*
Y50259D01*
X127105D01*
X127270Y50094D01*
Y49763D01*
X127105Y49597D01*
X126608D01*
X126939D02*
X127270Y49266D01*
X127767D02*
X128097D01*
X128263Y49432D01*
Y49763D01*
X128097Y49928D01*
X127767D01*
X127601Y49763D01*
Y49432D01*
X127767Y49266D01*
X128594Y49928D02*
Y49432D01*
X128759Y49266D01*
X129256D01*
Y49928D01*
X129587Y49266D02*
Y49928D01*
X130083D01*
X130249Y49763D01*
Y49266D01*
X131242Y50259D02*
Y49266D01*
X130745D01*
X130580Y49432D01*
Y49763D01*
X130745Y49928D01*
X131242D01*
X126608Y46783D02*
Y47776D01*
X127105D01*
X127270Y47611D01*
Y47280D01*
X127105Y47114D01*
X126608D01*
X126939D02*
X127270Y46783D01*
X127767D02*
X128097D01*
X128263Y46949D01*
Y47280D01*
X128097Y47445D01*
X127767D01*
X127601Y47280D01*
Y46949D01*
X127767Y46783D01*
X128594Y47445D02*
Y46949D01*
X128759Y46783D01*
X129256D01*
Y47445D01*
X129587Y46783D02*
Y47445D01*
X130083D01*
X130249Y47280D01*
Y46783D01*
X131242Y47776D02*
Y46783D01*
X130745D01*
X130580Y46949D01*
Y47280D01*
X130745Y47445D01*
X131242D01*
X126608Y44300D02*
Y45293D01*
X127105D01*
X127270Y45127D01*
Y44796D01*
X127105Y44631D01*
X126608D01*
X126939D02*
X127270Y44300D01*
X127767D02*
X128097D01*
X128263Y44465D01*
Y44796D01*
X128097Y44962D01*
X127767D01*
X127601Y44796D01*
Y44465D01*
X127767Y44300D01*
X128594Y44962D02*
Y44465D01*
X128759Y44300D01*
X129256D01*
Y44962D01*
X129587Y44300D02*
Y44962D01*
X130083D01*
X130249Y44796D01*
Y44300D01*
X131242Y45293D02*
Y44300D01*
X130745D01*
X130580Y44465D01*
Y44796D01*
X130745Y44962D01*
X131242D01*
X126608Y41817D02*
Y42810D01*
X127105D01*
X127270Y42644D01*
Y42313D01*
X127105Y42148D01*
X126608D01*
X126939D02*
X127270Y41817D01*
X127767D02*
X128097D01*
X128263Y41982D01*
Y42313D01*
X128097Y42479D01*
X127767D01*
X127601Y42313D01*
Y41982D01*
X127767Y41817D01*
X128594Y42479D02*
Y41982D01*
X128759Y41817D01*
X129256D01*
Y42479D01*
X129587Y41817D02*
Y42479D01*
X130083D01*
X130249Y42313D01*
Y41817D01*
X131242Y42810D02*
Y41817D01*
X130745D01*
X130580Y41982D01*
Y42313D01*
X130745Y42479D01*
X131242D01*
X126608Y39333D02*
Y40326D01*
X127105D01*
X127270Y40161D01*
Y39830D01*
X127105Y39664D01*
X126608D01*
X126939D02*
X127270Y39333D01*
X127767D02*
X128097D01*
X128263Y39499D01*
Y39830D01*
X128097Y39995D01*
X127767D01*
X127601Y39830D01*
Y39499D01*
X127767Y39333D01*
X128594Y39995D02*
Y39499D01*
X128759Y39333D01*
X129256D01*
Y39995D01*
X129587Y39333D02*
Y39995D01*
X130083D01*
X130249Y39830D01*
Y39333D01*
X131242Y40326D02*
Y39333D01*
X130745D01*
X130580Y39499D01*
Y39830D01*
X130745Y39995D01*
X131242D01*
X126608Y36850D02*
Y37843D01*
X127105D01*
X127270Y37677D01*
Y37346D01*
X127105Y37181D01*
X126608D01*
X126939D02*
X127270Y36850D01*
X127767D02*
X128097D01*
X128263Y37016D01*
Y37346D01*
X128097Y37512D01*
X127767D01*
X127601Y37346D01*
Y37016D01*
X127767Y36850D01*
X128594Y37512D02*
Y37016D01*
X128759Y36850D01*
X129256D01*
Y37512D01*
X129587Y36850D02*
Y37512D01*
X130083D01*
X130249Y37346D01*
Y36850D01*
X131242Y37843D02*
Y36850D01*
X130745D01*
X130580Y37016D01*
Y37346D01*
X130745Y37512D01*
X131242D01*
X126608Y34367D02*
Y35360D01*
X127105D01*
X127270Y35194D01*
Y34863D01*
X127105Y34698D01*
X126608D01*
X126939D02*
X127270Y34367D01*
X127767D02*
X128097D01*
X128263Y34532D01*
Y34863D01*
X128097Y35029D01*
X127767D01*
X127601Y34863D01*
Y34532D01*
X127767Y34367D01*
X128594Y35029D02*
Y34532D01*
X128759Y34367D01*
X129256D01*
Y35029D01*
X129587Y34367D02*
Y35029D01*
X130083D01*
X130249Y34863D01*
Y34367D01*
X131242Y35360D02*
Y34367D01*
X130745D01*
X130580Y34532D01*
Y34863D01*
X130745Y35029D01*
X131242D01*
X126608Y31883D02*
Y32876D01*
X127105D01*
X127270Y32711D01*
Y32380D01*
X127105Y32214D01*
X126608D01*
X126939D02*
X127270Y31883D01*
X127767D02*
X128097D01*
X128263Y32049D01*
Y32380D01*
X128097Y32545D01*
X127767D01*
X127601Y32380D01*
Y32049D01*
X127767Y31883D01*
X128594Y32545D02*
Y32049D01*
X128759Y31883D01*
X129256D01*
Y32545D01*
X129587Y31883D02*
Y32545D01*
X130083D01*
X130249Y32380D01*
Y31883D01*
X131242Y32876D02*
Y31883D01*
X130745D01*
X130580Y32049D01*
Y32380D01*
X130745Y32545D01*
X131242D01*
X126608Y29400D02*
Y30393D01*
X127105D01*
X127270Y30228D01*
Y29897D01*
X127105Y29731D01*
X126608D01*
X126939D02*
X127270Y29400D01*
X127767D02*
X128097D01*
X128263Y29566D01*
Y29897D01*
X128097Y30062D01*
X127767D01*
X127601Y29897D01*
Y29566D01*
X127767Y29400D01*
X128594Y30062D02*
Y29566D01*
X128759Y29400D01*
X129256D01*
Y30062D01*
X129587Y29400D02*
Y30062D01*
X130083D01*
X130249Y29897D01*
Y29400D01*
X131242Y30393D02*
Y29400D01*
X130745D01*
X130580Y29566D01*
Y29897D01*
X130745Y30062D01*
X131242D01*
X126608Y26917D02*
Y27910D01*
X127105D01*
X127270Y27744D01*
Y27413D01*
X127105Y27248D01*
X126608D01*
X126939D02*
X127270Y26917D01*
X127767D02*
X128097D01*
X128263Y27082D01*
Y27413D01*
X128097Y27579D01*
X127767D01*
X127601Y27413D01*
Y27082D01*
X127767Y26917D01*
X128594Y27579D02*
Y27082D01*
X128759Y26917D01*
X129256D01*
Y27579D01*
X129587Y26917D02*
Y27579D01*
X130083D01*
X130249Y27413D01*
Y26917D01*
X131242Y27910D02*
Y26917D01*
X130745D01*
X130580Y27082D01*
Y27413D01*
X130745Y27579D01*
X131242D01*
X118443Y54233D02*
Y55226D01*
X118939D01*
X119105Y55060D01*
Y54729D01*
X118939Y54564D01*
X118443D01*
X119436Y55226D02*
X120098D01*
X119767D01*
Y54233D01*
X120429Y55226D02*
Y54233D01*
Y54729D01*
X121091D01*
Y55226D01*
Y54233D01*
X118443Y51750D02*
Y52743D01*
X118939D01*
X119105Y52577D01*
Y52246D01*
X118939Y52081D01*
X118443D01*
X119436Y52743D02*
X120098D01*
X119767D01*
Y51750D01*
X120429Y52743D02*
Y51750D01*
Y52246D01*
X121091D01*
Y52743D01*
Y51750D01*
X118443Y49266D02*
Y50259D01*
X118939D01*
X119105Y50094D01*
Y49763D01*
X118939Y49597D01*
X118443D01*
X119436Y50259D02*
X120098D01*
X119767D01*
Y49266D01*
X120429Y50259D02*
Y49266D01*
Y49763D01*
X121091D01*
Y50259D01*
Y49266D01*
X118443Y46783D02*
Y47776D01*
X118939D01*
X119105Y47611D01*
Y47280D01*
X118939Y47114D01*
X118443D01*
X119436Y47776D02*
X120098D01*
X119767D01*
Y46783D01*
X120429Y47776D02*
Y46783D01*
Y47280D01*
X121091D01*
Y47776D01*
Y46783D01*
X118443Y44300D02*
Y45293D01*
X118939D01*
X119105Y45127D01*
Y44796D01*
X118939Y44631D01*
X118443D01*
X119436Y45293D02*
X120098D01*
X119767D01*
Y44300D01*
X120429Y45293D02*
Y44300D01*
Y44796D01*
X121091D01*
Y45293D01*
Y44300D01*
X118443Y41817D02*
Y42810D01*
X118939D01*
X119105Y42644D01*
Y42313D01*
X118939Y42148D01*
X118443D01*
X119436Y42810D02*
X120098D01*
X119767D01*
Y41817D01*
X120429Y42810D02*
Y41817D01*
Y42313D01*
X121091D01*
Y42810D01*
Y41817D01*
X118443Y39333D02*
Y40326D01*
X118939D01*
X119105Y40161D01*
Y39830D01*
X118939Y39664D01*
X118443D01*
X119436Y40326D02*
X120098D01*
X119767D01*
Y39333D01*
X120429Y40326D02*
Y39333D01*
Y39830D01*
X121091D01*
Y40326D01*
Y39333D01*
X118443Y36850D02*
Y37843D01*
X119105Y36850D01*
Y37843D01*
X119436Y36850D02*
Y37843D01*
X119932D01*
X120098Y37677D01*
Y37346D01*
X119932Y37181D01*
X119436D01*
X120429Y37843D02*
X121091D01*
X120760D01*
Y36850D01*
X121422Y37843D02*
Y36850D01*
Y37346D01*
X122084D01*
Y37843D01*
Y36850D01*
X118443Y34367D02*
Y35360D01*
X118939D01*
X119105Y35194D01*
Y34863D01*
X118939Y34698D01*
X118443D01*
X119436Y35360D02*
X120098D01*
X119767D01*
Y34367D01*
X120429Y35360D02*
Y34367D01*
Y34863D01*
X121091D01*
Y35360D01*
Y34367D01*
X118443Y31883D02*
Y32876D01*
X118939D01*
X119105Y32711D01*
Y32380D01*
X118939Y32214D01*
X118443D01*
X119436Y32876D02*
X120098D01*
X119767D01*
Y31883D01*
X120429Y32876D02*
Y31883D01*
Y32380D01*
X121091D01*
Y32876D01*
Y31883D01*
X118443Y29400D02*
Y30393D01*
X118939D01*
X119105Y30228D01*
Y29897D01*
X118939Y29731D01*
X118443D01*
X119436Y30393D02*
X120098D01*
X119767D01*
Y29400D01*
X120429Y30393D02*
Y29400D01*
Y29897D01*
X121091D01*
Y30393D01*
Y29400D01*
X118443Y26917D02*
Y27910D01*
X118939D01*
X119105Y27744D01*
Y27413D01*
X118939Y27248D01*
X118443D01*
X119436Y27910D02*
X120098D01*
X119767D01*
Y26917D01*
X120429Y27910D02*
Y26917D01*
Y27413D01*
X121091D01*
Y27910D01*
Y26917D01*
X99210Y54233D02*
X98548D01*
X99210Y54895D01*
Y55060D01*
X99045Y55226D01*
X98714D01*
X98548Y55060D01*
X99541D02*
X99707Y55226D01*
X100038D01*
X100203Y55060D01*
Y54895D01*
X100038Y54729D01*
X100203Y54564D01*
Y54398D01*
X100038Y54233D01*
X99707D01*
X99541Y54398D01*
Y54564D01*
X99707Y54729D01*
X99541Y54895D01*
Y55060D01*
X99707Y54729D02*
X100038D01*
X100534Y54233D02*
Y54398D01*
X100700D01*
Y54233D01*
X100534D01*
X101362Y55060D02*
X101527Y55226D01*
X101858D01*
X102024Y55060D01*
Y54398D01*
X101858Y54233D01*
X101527D01*
X101362Y54398D01*
Y55060D01*
X102355D02*
X102520Y55226D01*
X102851D01*
X103017Y55060D01*
Y54398D01*
X102851Y54233D01*
X102520D01*
X102355Y54398D01*
Y55060D01*
X103348Y54233D02*
Y54895D01*
X103513D01*
X103679Y54729D01*
Y54233D01*
Y54729D01*
X103844Y54895D01*
X104010Y54729D01*
Y54233D01*
X104341D02*
X104672D01*
X104506D01*
Y54895D01*
X104341D01*
X105168Y54233D02*
X105499D01*
X105334D01*
Y55226D01*
X105168D01*
X107320Y54233D02*
X106989Y54564D01*
Y54895D01*
X107320Y55226D01*
X107816Y55060D02*
X107982Y55226D01*
X108313D01*
X108478Y55060D01*
Y54398D01*
X108313Y54233D01*
X107982D01*
X107816Y54398D01*
Y55060D01*
X108809Y54233D02*
Y54398D01*
X108975D01*
Y54233D01*
X108809D01*
X109637Y55226D02*
X110299D01*
Y55060D01*
X109637Y54398D01*
Y54233D01*
X110630D02*
X110961D01*
X110795D01*
Y55226D01*
X110630Y55060D01*
X111457Y54233D02*
X111788D01*
X111623D01*
Y55226D01*
X111457Y55060D01*
X112285D02*
X112450Y55226D01*
X112781D01*
X112947Y55060D01*
Y54398D01*
X112781Y54233D01*
X112450D01*
X112285Y54398D01*
Y55060D01*
X113278Y54233D02*
Y54895D01*
X113443D01*
X113609Y54729D01*
Y54233D01*
Y54729D01*
X113774Y54895D01*
X113940Y54729D01*
Y54233D01*
X114271D02*
Y54895D01*
X114436D01*
X114602Y54729D01*
Y54233D01*
Y54729D01*
X114767Y54895D01*
X114933Y54729D01*
Y54233D01*
X115264D02*
X115595Y54564D01*
Y54895D01*
X115264Y55226D01*
X98548Y51750D02*
X98879D01*
X98714D01*
Y52743D01*
X98548Y52577D01*
X99376D02*
X99541Y52743D01*
X99872D01*
X100038Y52577D01*
Y52412D01*
X99872Y52246D01*
X100038Y52081D01*
Y51915D01*
X99872Y51750D01*
X99541D01*
X99376Y51915D01*
Y52081D01*
X99541Y52246D01*
X99376Y52412D01*
Y52577D01*
X99541Y52246D02*
X99872D01*
X100369Y51750D02*
Y51915D01*
X100534D01*
Y51750D01*
X100369D01*
X101196Y52577D02*
X101362Y52743D01*
X101693D01*
X101858Y52577D01*
Y51915D01*
X101693Y51750D01*
X101362D01*
X101196Y51915D01*
Y52577D01*
X102189D02*
X102355Y52743D01*
X102686D01*
X102851Y52577D01*
Y51915D01*
X102686Y51750D01*
X102355D01*
X102189Y51915D01*
Y52577D01*
X103182Y51750D02*
Y52412D01*
X103348D01*
X103513Y52246D01*
Y51750D01*
Y52246D01*
X103679Y52412D01*
X103844Y52246D01*
Y51750D01*
X104175D02*
X104506D01*
X104341D01*
Y52412D01*
X104175D01*
X105003Y51750D02*
X105334D01*
X105168D01*
Y52743D01*
X105003D01*
X107154Y51750D02*
X106823Y52081D01*
Y52412D01*
X107154Y52743D01*
X107651Y52577D02*
X107816Y52743D01*
X108147D01*
X108313Y52577D01*
Y51915D01*
X108147Y51750D01*
X107816D01*
X107651Y51915D01*
Y52577D01*
X108644Y51750D02*
Y51915D01*
X108809D01*
Y51750D01*
X108644D01*
X109968D02*
Y52743D01*
X109471Y52246D01*
X110133D01*
X111126Y52743D02*
X110464D01*
Y52246D01*
X110795Y52412D01*
X110961D01*
X111126Y52246D01*
Y51915D01*
X110961Y51750D01*
X110630D01*
X110464Y51915D01*
X111457Y52743D02*
X112119D01*
Y52577D01*
X111457Y51915D01*
Y51750D01*
X112450Y52577D02*
X112616Y52743D01*
X112947D01*
X113112Y52577D01*
Y51915D01*
X112947Y51750D01*
X112616D01*
X112450Y51915D01*
Y52577D01*
X113443Y51750D02*
Y52412D01*
X113609D01*
X113774Y52246D01*
Y51750D01*
Y52246D01*
X113940Y52412D01*
X114105Y52246D01*
Y51750D01*
X114436D02*
Y52412D01*
X114602D01*
X114767Y52246D01*
Y51750D01*
Y52246D01*
X114933Y52412D01*
X115098Y52246D01*
Y51750D01*
X115429D02*
X115760Y52081D01*
Y52412D01*
X115429Y52743D01*
X99045Y49266D02*
Y50259D01*
X98548Y49763D01*
X99210D01*
X99541Y50094D02*
X99707Y50259D01*
X100038D01*
X100203Y50094D01*
Y49928D01*
X100038Y49763D01*
X100203Y49597D01*
Y49432D01*
X100038Y49266D01*
X99707D01*
X99541Y49432D01*
Y49597D01*
X99707Y49763D01*
X99541Y49928D01*
Y50094D01*
X99707Y49763D02*
X100038D01*
X100534Y49266D02*
Y49432D01*
X100700D01*
Y49266D01*
X100534D01*
X101362Y50094D02*
X101527Y50259D01*
X101858D01*
X102024Y50094D01*
Y49432D01*
X101858Y49266D01*
X101527D01*
X101362Y49432D01*
Y50094D01*
X102355D02*
X102520Y50259D01*
X102851D01*
X103017Y50094D01*
Y49432D01*
X102851Y49266D01*
X102520D01*
X102355Y49432D01*
Y50094D01*
X103348Y49266D02*
Y49928D01*
X103513D01*
X103679Y49763D01*
Y49266D01*
Y49763D01*
X103844Y49928D01*
X104010Y49763D01*
Y49266D01*
X104341D02*
X104672D01*
X104506D01*
Y49928D01*
X104341D01*
X105168Y49266D02*
X105499D01*
X105334D01*
Y50259D01*
X105168D01*
X107320Y49266D02*
X106989Y49597D01*
Y49928D01*
X107320Y50259D01*
X107816Y49266D02*
X108147D01*
X107982D01*
Y50259D01*
X107816Y50094D01*
X108644Y49266D02*
Y49432D01*
X108809D01*
Y49266D01*
X108644D01*
X110133D02*
X109471D01*
X110133Y49928D01*
Y50094D01*
X109968Y50259D01*
X109637D01*
X109471Y50094D01*
X110464Y49266D02*
X110795D01*
X110630D01*
Y50259D01*
X110464Y50094D01*
X111292Y49432D02*
X111457Y49266D01*
X111788D01*
X111954Y49432D01*
Y50094D01*
X111788Y50259D01*
X111457D01*
X111292Y50094D01*
Y49928D01*
X111457Y49763D01*
X111954D01*
X112285Y50094D02*
X112450Y50259D01*
X112781D01*
X112947Y50094D01*
Y49432D01*
X112781Y49266D01*
X112450D01*
X112285Y49432D01*
Y50094D01*
X113278Y49266D02*
Y49928D01*
X113443D01*
X113609Y49763D01*
Y49266D01*
Y49763D01*
X113774Y49928D01*
X113940Y49763D01*
Y49266D01*
X114271D02*
Y49928D01*
X114436D01*
X114602Y49763D01*
Y49266D01*
Y49763D01*
X114767Y49928D01*
X114933Y49763D01*
Y49266D01*
X115264D02*
X115595Y49597D01*
Y49928D01*
X115264Y50259D01*
X98548Y46783D02*
X98879D01*
X98714D01*
Y47776D01*
X98548Y47611D01*
X100038Y46783D02*
X99376D01*
X100038Y47445D01*
Y47611D01*
X99872Y47776D01*
X99541D01*
X99376Y47611D01*
X100369Y47776D02*
X101031D01*
Y47611D01*
X100369Y46949D01*
Y46783D01*
X101362D02*
Y46949D01*
X101527D01*
Y46783D01*
X101362D01*
X102189Y47611D02*
X102355Y47776D01*
X102686D01*
X102851Y47611D01*
Y46949D01*
X102686Y46783D01*
X102355D01*
X102189Y46949D01*
Y47611D01*
X103182D02*
X103348Y47776D01*
X103679D01*
X103844Y47611D01*
Y46949D01*
X103679Y46783D01*
X103348D01*
X103182Y46949D01*
Y47611D01*
X104175Y46783D02*
Y47445D01*
X104341D01*
X104506Y47280D01*
Y46783D01*
Y47280D01*
X104672Y47445D01*
X104837Y47280D01*
Y46783D01*
X105168D02*
X105499D01*
X105334D01*
Y47445D01*
X105168D01*
X105996Y46783D02*
X106327D01*
X106161D01*
Y47776D01*
X105996D01*
X108147Y46783D02*
X107816Y47114D01*
Y47445D01*
X108147Y47776D01*
X108644Y47611D02*
X108809Y47776D01*
X109140D01*
X109306Y47611D01*
Y47445D01*
X109140Y47280D01*
X108975D01*
X109140D01*
X109306Y47114D01*
Y46949D01*
X109140Y46783D01*
X108809D01*
X108644Y46949D01*
X109637Y46783D02*
Y46949D01*
X109802D01*
Y46783D01*
X109637D01*
X111126D02*
X110464D01*
X111126Y47445D01*
Y47611D01*
X110961Y47776D01*
X110630D01*
X110464Y47611D01*
X112119Y46783D02*
X111457D01*
X112119Y47445D01*
Y47611D01*
X111954Y47776D01*
X111623D01*
X111457Y47611D01*
X113112Y47776D02*
X112781Y47611D01*
X112450Y47280D01*
Y46949D01*
X112616Y46783D01*
X112947D01*
X113112Y46949D01*
Y47114D01*
X112947Y47280D01*
X112450D01*
X113443Y47611D02*
X113609Y47776D01*
X113940D01*
X114105Y47611D01*
Y46949D01*
X113940Y46783D01*
X113609D01*
X113443Y46949D01*
Y47611D01*
X114436Y46783D02*
Y47445D01*
X114602D01*
X114767Y47280D01*
Y46783D01*
Y47280D01*
X114933Y47445D01*
X115098Y47280D01*
Y46783D01*
X115429D02*
Y47445D01*
X115595D01*
X115760Y47280D01*
Y46783D01*
Y47280D01*
X115926Y47445D01*
X116091Y47280D01*
Y46783D01*
X116422D02*
X116753Y47114D01*
Y47445D01*
X116422Y47776D01*
X98548Y44465D02*
X98714Y44300D01*
X99045D01*
X99210Y44465D01*
Y45127D01*
X99045Y45293D01*
X98714D01*
X98548Y45127D01*
Y44962D01*
X98714Y44796D01*
X99210D01*
X99541Y45127D02*
X99707Y45293D01*
X100038D01*
X100203Y45127D01*
Y44465D01*
X100038Y44300D01*
X99707D01*
X99541Y44465D01*
Y45127D01*
X100534Y44300D02*
Y44465D01*
X100700D01*
Y44300D01*
X100534D01*
X101362Y45127D02*
X101527Y45293D01*
X101858D01*
X102024Y45127D01*
Y44465D01*
X101858Y44300D01*
X101527D01*
X101362Y44465D01*
Y45127D01*
X102355D02*
X102520Y45293D01*
X102851D01*
X103017Y45127D01*
Y44465D01*
X102851Y44300D01*
X102520D01*
X102355Y44465D01*
Y45127D01*
X103348Y44300D02*
Y44962D01*
X103513D01*
X103679Y44796D01*
Y44300D01*
Y44796D01*
X103844Y44962D01*
X104010Y44796D01*
Y44300D01*
X104341D02*
X104672D01*
X104506D01*
Y44962D01*
X104341D01*
X105168Y44300D02*
X105499D01*
X105334D01*
Y45293D01*
X105168D01*
X107320Y44300D02*
X106989Y44631D01*
Y44962D01*
X107320Y45293D01*
X108478Y44300D02*
X107816D01*
X108478Y44962D01*
Y45127D01*
X108313Y45293D01*
X107982D01*
X107816Y45127D01*
X108809Y44300D02*
Y44465D01*
X108975D01*
Y44300D01*
X108809D01*
X110299D02*
X109637D01*
X110299Y44962D01*
Y45127D01*
X110133Y45293D01*
X109802D01*
X109637Y45127D01*
X110630D02*
X110795Y45293D01*
X111126D01*
X111292Y45127D01*
Y44962D01*
X111126Y44796D01*
X111292Y44631D01*
Y44465D01*
X111126Y44300D01*
X110795D01*
X110630Y44465D01*
Y44631D01*
X110795Y44796D01*
X110630Y44962D01*
Y45127D01*
X110795Y44796D02*
X111126D01*
X112285Y45293D02*
X111954Y45127D01*
X111623Y44796D01*
Y44465D01*
X111788Y44300D01*
X112119D01*
X112285Y44465D01*
Y44631D01*
X112119Y44796D01*
X111623D01*
X112616Y45127D02*
X112781Y45293D01*
X113112D01*
X113278Y45127D01*
Y44465D01*
X113112Y44300D01*
X112781D01*
X112616Y44465D01*
Y45127D01*
X113609Y44300D02*
Y44962D01*
X113774D01*
X113940Y44796D01*
Y44300D01*
Y44796D01*
X114105Y44962D01*
X114271Y44796D01*
Y44300D01*
X114602D02*
Y44962D01*
X114767D01*
X114933Y44796D01*
Y44300D01*
Y44796D01*
X115098Y44962D01*
X115264Y44796D01*
Y44300D01*
X115595D02*
X115926Y44631D01*
Y44962D01*
X115595Y45293D01*
X99210Y42810D02*
X98548D01*
Y42313D01*
X98879Y42479D01*
X99045D01*
X99210Y42313D01*
Y41982D01*
X99045Y41817D01*
X98714D01*
X98548Y41982D01*
X99541Y42644D02*
X99707Y42810D01*
X100038D01*
X100203Y42644D01*
Y41982D01*
X100038Y41817D01*
X99707D01*
X99541Y41982D01*
Y42644D01*
X100534Y41817D02*
Y41982D01*
X100700D01*
Y41817D01*
X100534D01*
X101362Y42644D02*
X101527Y42810D01*
X101858D01*
X102024Y42644D01*
Y41982D01*
X101858Y41817D01*
X101527D01*
X101362Y41982D01*
Y42644D01*
X102355D02*
X102520Y42810D01*
X102851D01*
X103017Y42644D01*
Y41982D01*
X102851Y41817D01*
X102520D01*
X102355Y41982D01*
Y42644D01*
X103348Y41817D02*
Y42479D01*
X103513D01*
X103679Y42313D01*
Y41817D01*
Y42313D01*
X103844Y42479D01*
X104010Y42313D01*
Y41817D01*
X104341D02*
X104672D01*
X104506D01*
Y42479D01*
X104341D01*
X105168Y41817D02*
X105499D01*
X105334D01*
Y42810D01*
X105168D01*
X107320Y41817D02*
X106989Y42148D01*
Y42479D01*
X107320Y42810D01*
X107816Y41817D02*
X108147D01*
X107982D01*
Y42810D01*
X107816Y42644D01*
X108644Y41817D02*
Y41982D01*
X108809D01*
Y41817D01*
X108644D01*
X110133D02*
X109471D01*
X110133Y42479D01*
Y42644D01*
X109968Y42810D01*
X109637D01*
X109471Y42644D01*
X110464Y42810D02*
X111126D01*
Y42644D01*
X110464Y41982D01*
Y41817D01*
X111457Y42644D02*
X111623Y42810D01*
X111954D01*
X112119Y42644D01*
Y41982D01*
X111954Y41817D01*
X111623D01*
X111457Y41982D01*
Y42644D01*
X112450D02*
X112616Y42810D01*
X112947D01*
X113112Y42644D01*
Y41982D01*
X112947Y41817D01*
X112616D01*
X112450Y41982D01*
Y42644D01*
X113443Y41817D02*
Y42479D01*
X113609D01*
X113774Y42313D01*
Y41817D01*
Y42313D01*
X113940Y42479D01*
X114105Y42313D01*
Y41817D01*
X114436D02*
Y42479D01*
X114602D01*
X114767Y42313D01*
Y41817D01*
Y42313D01*
X114933Y42479D01*
X115098Y42313D01*
Y41817D01*
X115429D02*
X115760Y42148D01*
Y42479D01*
X115429Y42810D01*
X98548Y40326D02*
X99210D01*
Y40161D01*
X98548Y39499D01*
Y39333D01*
X99541Y40161D02*
X99707Y40326D01*
X100038D01*
X100203Y40161D01*
Y39499D01*
X100038Y39333D01*
X99707D01*
X99541Y39499D01*
Y40161D01*
X100534Y39333D02*
Y39499D01*
X100700D01*
Y39333D01*
X100534D01*
X101362Y40161D02*
X101527Y40326D01*
X101858D01*
X102024Y40161D01*
Y39499D01*
X101858Y39333D01*
X101527D01*
X101362Y39499D01*
Y40161D01*
X102355D02*
X102520Y40326D01*
X102851D01*
X103017Y40161D01*
Y39499D01*
X102851Y39333D01*
X102520D01*
X102355Y39499D01*
Y40161D01*
X103348Y39333D02*
Y39995D01*
X103513D01*
X103679Y39830D01*
Y39333D01*
Y39830D01*
X103844Y39995D01*
X104010Y39830D01*
Y39333D01*
X104341D02*
X104672D01*
X104506D01*
Y39995D01*
X104341D01*
X105168Y39333D02*
X105499D01*
X105334D01*
Y40326D01*
X105168D01*
X107320Y39333D02*
X106989Y39664D01*
Y39995D01*
X107320Y40326D01*
X107816Y39333D02*
X108147D01*
X107982D01*
Y40326D01*
X107816Y40161D01*
X108644Y39333D02*
Y39499D01*
X108809D01*
Y39333D01*
X108644D01*
X109471Y40326D02*
X110133D01*
Y40161D01*
X109471Y39499D01*
Y39333D01*
X110464Y40326D02*
X111126D01*
Y40161D01*
X110464Y39499D01*
Y39333D01*
X111457Y40161D02*
X111623Y40326D01*
X111954D01*
X112119Y40161D01*
Y39995D01*
X111954Y39830D01*
X112119Y39664D01*
Y39499D01*
X111954Y39333D01*
X111623D01*
X111457Y39499D01*
Y39664D01*
X111623Y39830D01*
X111457Y39995D01*
Y40161D01*
X111623Y39830D02*
X111954D01*
X112450Y40161D02*
X112616Y40326D01*
X112947D01*
X113112Y40161D01*
Y39499D01*
X112947Y39333D01*
X112616D01*
X112450Y39499D01*
Y40161D01*
X113443Y39333D02*
Y39995D01*
X113609D01*
X113774Y39830D01*
Y39333D01*
Y39830D01*
X113940Y39995D01*
X114105Y39830D01*
Y39333D01*
X114436D02*
Y39995D01*
X114602D01*
X114767Y39830D01*
Y39333D01*
Y39830D01*
X114933Y39995D01*
X115098Y39830D01*
Y39333D01*
X115429D02*
X115760Y39664D01*
Y39995D01*
X115429Y40326D01*
X98548Y36850D02*
X98879D01*
X98714D01*
Y37843D01*
X98548Y37677D01*
X100038Y36850D02*
X99376D01*
X100038Y37512D01*
Y37677D01*
X99872Y37843D01*
X99541D01*
X99376Y37677D01*
X101031Y37843D02*
X100700Y37677D01*
X100369Y37346D01*
Y37016D01*
X100534Y36850D01*
X100865D01*
X101031Y37016D01*
Y37181D01*
X100865Y37346D01*
X100369D01*
X101362Y36850D02*
Y37016D01*
X101527D01*
Y36850D01*
X101362D01*
X102189Y37677D02*
X102355Y37843D01*
X102686D01*
X102851Y37677D01*
Y37016D01*
X102686Y36850D01*
X102355D01*
X102189Y37016D01*
Y37677D01*
X103182D02*
X103348Y37843D01*
X103679D01*
X103844Y37677D01*
Y37016D01*
X103679Y36850D01*
X103348D01*
X103182Y37016D01*
Y37677D01*
X104175Y36850D02*
Y37512D01*
X104341D01*
X104506Y37346D01*
Y36850D01*
Y37346D01*
X104672Y37512D01*
X104837Y37346D01*
Y36850D01*
X105168D02*
X105499D01*
X105334D01*
Y37512D01*
X105168D01*
X105996Y36850D02*
X106327D01*
X106161D01*
Y37843D01*
X105996D01*
X108147Y36850D02*
X107816Y37181D01*
Y37512D01*
X108147Y37843D01*
X108644Y37677D02*
X108809Y37843D01*
X109140D01*
X109306Y37677D01*
Y37512D01*
X109140Y37346D01*
X108975D01*
X109140D01*
X109306Y37181D01*
Y37016D01*
X109140Y36850D01*
X108809D01*
X108644Y37016D01*
X109637Y36850D02*
Y37016D01*
X109802D01*
Y36850D01*
X109637D01*
X111126D02*
X110464D01*
X111126Y37512D01*
Y37677D01*
X110961Y37843D01*
X110630D01*
X110464Y37677D01*
X111457D02*
X111623Y37843D01*
X111954D01*
X112119Y37677D01*
Y37016D01*
X111954Y36850D01*
X111623D01*
X111457Y37016D01*
Y37677D01*
X112450D02*
X112616Y37843D01*
X112947D01*
X113112Y37677D01*
Y37016D01*
X112947Y36850D01*
X112616D01*
X112450Y37016D01*
Y37677D01*
X113443D02*
X113609Y37843D01*
X113940D01*
X114105Y37677D01*
Y37016D01*
X113940Y36850D01*
X113609D01*
X113443Y37016D01*
Y37677D01*
X114436Y36850D02*
Y37512D01*
X114602D01*
X114767Y37346D01*
Y36850D01*
Y37346D01*
X114933Y37512D01*
X115098Y37346D01*
Y36850D01*
X115429D02*
Y37512D01*
X115595D01*
X115760Y37346D01*
Y36850D01*
Y37346D01*
X115926Y37512D01*
X116091Y37346D01*
Y36850D01*
X116422D02*
X116753Y37181D01*
Y37512D01*
X116422Y37843D01*
X99210Y35360D02*
X98879Y35194D01*
X98548Y34863D01*
Y34532D01*
X98714Y34367D01*
X99045D01*
X99210Y34532D01*
Y34698D01*
X99045Y34863D01*
X98548D01*
X99541Y35194D02*
X99707Y35360D01*
X100038D01*
X100203Y35194D01*
Y35029D01*
X100038Y34863D01*
X100203Y34698D01*
Y34532D01*
X100038Y34367D01*
X99707D01*
X99541Y34532D01*
Y34698D01*
X99707Y34863D01*
X99541Y35029D01*
Y35194D01*
X99707Y34863D02*
X100038D01*
X100534Y34367D02*
Y34532D01*
X100700D01*
Y34367D01*
X100534D01*
X101362Y35194D02*
X101527Y35360D01*
X101858D01*
X102024Y35194D01*
Y34532D01*
X101858Y34367D01*
X101527D01*
X101362Y34532D01*
Y35194D01*
X102355D02*
X102520Y35360D01*
X102851D01*
X103017Y35194D01*
Y34532D01*
X102851Y34367D01*
X102520D01*
X102355Y34532D01*
Y35194D01*
X103348Y34367D02*
Y35029D01*
X103513D01*
X103679Y34863D01*
Y34367D01*
Y34863D01*
X103844Y35029D01*
X104010Y34863D01*
Y34367D01*
X104341D02*
X104672D01*
X104506D01*
Y35029D01*
X104341D01*
X105168Y34367D02*
X105499D01*
X105334D01*
Y35360D01*
X105168D01*
X107320Y34367D02*
X106989Y34698D01*
Y35029D01*
X107320Y35360D01*
X107816Y34367D02*
X108147D01*
X107982D01*
Y35360D01*
X107816Y35194D01*
X108644Y34367D02*
Y34532D01*
X108809D01*
Y34367D01*
X108644D01*
X109471Y35360D02*
X110133D01*
Y35194D01*
X109471Y34532D01*
Y34367D01*
X111126D02*
X110464D01*
X111126Y35029D01*
Y35194D01*
X110961Y35360D01*
X110630D01*
X110464Y35194D01*
X111457Y35360D02*
X112119D01*
Y35194D01*
X111457Y34532D01*
Y34367D01*
X112450Y35194D02*
X112616Y35360D01*
X112947D01*
X113112Y35194D01*
Y34532D01*
X112947Y34367D01*
X112616D01*
X112450Y34532D01*
Y35194D01*
X113443Y34367D02*
Y35029D01*
X113609D01*
X113774Y34863D01*
Y34367D01*
Y34863D01*
X113940Y35029D01*
X114105Y34863D01*
Y34367D01*
X114436D02*
Y35029D01*
X114602D01*
X114767Y34863D01*
Y34367D01*
Y34863D01*
X114933Y35029D01*
X115098Y34863D01*
Y34367D01*
X115429D02*
X115760Y34698D01*
Y35029D01*
X115429Y35360D01*
X98548Y32711D02*
X98714Y32876D01*
X99045D01*
X99210Y32711D01*
Y32545D01*
X99045Y32380D01*
X98879D01*
X99045D01*
X99210Y32214D01*
Y32049D01*
X99045Y31883D01*
X98714D01*
X98548Y32049D01*
X100038Y31883D02*
Y32876D01*
X99541Y32380D01*
X100203D01*
X100534Y31883D02*
Y32049D01*
X100700D01*
Y31883D01*
X100534D01*
X101362Y32711D02*
X101527Y32876D01*
X101858D01*
X102024Y32711D01*
Y32049D01*
X101858Y31883D01*
X101527D01*
X101362Y32049D01*
Y32711D01*
X102355D02*
X102520Y32876D01*
X102851D01*
X103017Y32711D01*
Y32049D01*
X102851Y31883D01*
X102520D01*
X102355Y32049D01*
Y32711D01*
X103348Y31883D02*
Y32545D01*
X103513D01*
X103679Y32380D01*
Y31883D01*
Y32380D01*
X103844Y32545D01*
X104010Y32380D01*
Y31883D01*
X104341D02*
X104672D01*
X104506D01*
Y32545D01*
X104341D01*
X105168Y31883D02*
X105499D01*
X105334D01*
Y32876D01*
X105168D01*
X107320Y31883D02*
X106989Y32214D01*
Y32545D01*
X107320Y32876D01*
X107816Y32711D02*
X107982Y32876D01*
X108313D01*
X108478Y32711D01*
Y32049D01*
X108313Y31883D01*
X107982D01*
X107816Y32049D01*
Y32711D01*
X108809Y31883D02*
Y32049D01*
X108975D01*
Y31883D01*
X108809D01*
X109637Y32711D02*
X109802Y32876D01*
X110133D01*
X110299Y32711D01*
Y32545D01*
X110133Y32380D01*
X110299Y32214D01*
Y32049D01*
X110133Y31883D01*
X109802D01*
X109637Y32049D01*
Y32214D01*
X109802Y32380D01*
X109637Y32545D01*
Y32711D01*
X109802Y32380D02*
X110133D01*
X111292Y32876D02*
X110961Y32711D01*
X110630Y32380D01*
Y32049D01*
X110795Y31883D01*
X111126D01*
X111292Y32049D01*
Y32214D01*
X111126Y32380D01*
X110630D01*
X112119Y31883D02*
Y32876D01*
X111623Y32380D01*
X112285D01*
X112616Y32711D02*
X112781Y32876D01*
X113112D01*
X113278Y32711D01*
Y32049D01*
X113112Y31883D01*
X112781D01*
X112616Y32049D01*
Y32711D01*
X113609Y31883D02*
Y32545D01*
X113774D01*
X113940Y32380D01*
Y31883D01*
Y32380D01*
X114105Y32545D01*
X114271Y32380D01*
Y31883D01*
X114602D02*
Y32545D01*
X114767D01*
X114933Y32380D01*
Y31883D01*
Y32380D01*
X115098Y32545D01*
X115264Y32380D01*
Y31883D01*
X115595D02*
X115926Y32214D01*
Y32545D01*
X115595Y32876D01*
X98548Y30228D02*
X98714Y30393D01*
X99045D01*
X99210Y30228D01*
Y30062D01*
X99045Y29897D01*
X98879D01*
X99045D01*
X99210Y29731D01*
Y29566D01*
X99045Y29400D01*
X98714D01*
X98548Y29566D01*
X100203Y30393D02*
X99541D01*
Y29897D01*
X99872Y30062D01*
X100038D01*
X100203Y29897D01*
Y29566D01*
X100038Y29400D01*
X99707D01*
X99541Y29566D01*
X100534Y29400D02*
Y29566D01*
X100700D01*
Y29400D01*
X100534D01*
X101858D02*
Y30393D01*
X101362Y29897D01*
X102024D01*
X102355Y30228D02*
X102520Y30393D01*
X102851D01*
X103017Y30228D01*
Y30062D01*
X102851Y29897D01*
X102686D01*
X102851D01*
X103017Y29731D01*
Y29566D01*
X102851Y29400D01*
X102520D01*
X102355Y29566D01*
X103348Y29400D02*
Y30062D01*
X103513D01*
X103679Y29897D01*
Y29400D01*
Y29897D01*
X103844Y30062D01*
X104010Y29897D01*
Y29400D01*
X104341D02*
X104672D01*
X104506D01*
Y30062D01*
X104341D01*
X105168Y29400D02*
X105499D01*
X105334D01*
Y30393D01*
X105168D01*
X107320Y29400D02*
X106989Y29731D01*
Y30062D01*
X107320Y30393D01*
X107816Y30228D02*
X107982Y30393D01*
X108313D01*
X108478Y30228D01*
Y29566D01*
X108313Y29400D01*
X107982D01*
X107816Y29566D01*
Y30228D01*
X108809Y29400D02*
Y29566D01*
X108975D01*
Y29400D01*
X108809D01*
X109637Y29566D02*
X109802Y29400D01*
X110133D01*
X110299Y29566D01*
Y30228D01*
X110133Y30393D01*
X109802D01*
X109637Y30228D01*
Y30062D01*
X109802Y29897D01*
X110299D01*
X110630Y30228D02*
X110795Y30393D01*
X111126D01*
X111292Y30228D01*
Y29566D01*
X111126Y29400D01*
X110795D01*
X110630Y29566D01*
Y30228D01*
X111623D02*
X111788Y30393D01*
X112119D01*
X112285Y30228D01*
Y29566D01*
X112119Y29400D01*
X111788D01*
X111623Y29566D01*
Y30228D01*
X112616D02*
X112781Y30393D01*
X113112D01*
X113278Y30228D01*
Y29566D01*
X113112Y29400D01*
X112781D01*
X112616Y29566D01*
Y30228D01*
X113609Y29400D02*
Y30062D01*
X113774D01*
X113940Y29897D01*
Y29400D01*
Y29897D01*
X114105Y30062D01*
X114271Y29897D01*
Y29400D01*
X114602D02*
Y30062D01*
X114767D01*
X114933Y29897D01*
Y29400D01*
Y29897D01*
X115098Y30062D01*
X115264Y29897D01*
Y29400D01*
X115595D02*
X115926Y29731D01*
Y30062D01*
X115595Y30393D01*
X99210Y26917D02*
X98548D01*
X99210Y27579D01*
Y27744D01*
X99045Y27910D01*
X98714D01*
X98548Y27744D01*
X99541D02*
X99707Y27910D01*
X100038D01*
X100203Y27744D01*
Y27082D01*
X100038Y26917D01*
X99707D01*
X99541Y27082D01*
Y27744D01*
X100534Y26917D02*
Y27082D01*
X100700D01*
Y26917D01*
X100534D01*
X101362Y27744D02*
X101527Y27910D01*
X101858D01*
X102024Y27744D01*
Y27082D01*
X101858Y26917D01*
X101527D01*
X101362Y27082D01*
Y27744D01*
X102355D02*
X102520Y27910D01*
X102851D01*
X103017Y27744D01*
Y27082D01*
X102851Y26917D01*
X102520D01*
X102355Y27082D01*
Y27744D01*
X103348Y26917D02*
Y27579D01*
X103513D01*
X103679Y27413D01*
Y26917D01*
Y27413D01*
X103844Y27579D01*
X104010Y27413D01*
Y26917D01*
X104341D02*
X104672D01*
X104506D01*
Y27579D01*
X104341D01*
X105168Y26917D02*
X105499D01*
X105334D01*
Y27910D01*
X105168D01*
X107320Y26917D02*
X106989Y27248D01*
Y27579D01*
X107320Y27910D01*
X107816Y27744D02*
X107982Y27910D01*
X108313D01*
X108478Y27744D01*
Y27082D01*
X108313Y26917D01*
X107982D01*
X107816Y27082D01*
Y27744D01*
X108809Y26917D02*
Y27082D01*
X108975D01*
Y26917D01*
X108809D01*
X110299Y27910D02*
X109637D01*
Y27413D01*
X109968Y27579D01*
X110133D01*
X110299Y27413D01*
Y27082D01*
X110133Y26917D01*
X109802D01*
X109637Y27082D01*
X110630Y27744D02*
X110795Y27910D01*
X111126D01*
X111292Y27744D01*
Y27082D01*
X111126Y26917D01*
X110795D01*
X110630Y27082D01*
Y27744D01*
X111623D02*
X111788Y27910D01*
X112119D01*
X112285Y27744D01*
Y27579D01*
X112119Y27413D01*
X112285Y27248D01*
Y27082D01*
X112119Y26917D01*
X111788D01*
X111623Y27082D01*
Y27248D01*
X111788Y27413D01*
X111623Y27579D01*
Y27744D01*
X111788Y27413D02*
X112119D01*
X112616Y27744D02*
X112781Y27910D01*
X113112D01*
X113278Y27744D01*
Y27082D01*
X113112Y26917D01*
X112781D01*
X112616Y27082D01*
Y27744D01*
X113609Y26917D02*
Y27579D01*
X113774D01*
X113940Y27413D01*
Y26917D01*
Y27413D01*
X114105Y27579D01*
X114271Y27413D01*
Y26917D01*
X114602D02*
Y27579D01*
X114767D01*
X114933Y27413D01*
Y26917D01*
Y27413D01*
X115098Y27579D01*
X115264Y27413D01*
Y26917D01*
X115595D02*
X115926Y27248D01*
Y27579D01*
X115595Y27910D01*
X88915Y24434D02*
X89246D01*
X89080D01*
Y25427D01*
X88915Y25261D01*
X90404Y24434D02*
X89742D01*
X90404Y25096D01*
Y25261D01*
X90239Y25427D01*
X89908D01*
X89742Y25261D01*
X91397Y25427D02*
X91066Y25261D01*
X90735Y24930D01*
Y24599D01*
X90900Y24434D01*
X91231D01*
X91397Y24599D01*
Y24765D01*
X91231Y24930D01*
X90735D01*
X92721Y25427D02*
X93383D01*
X93052D01*
Y24434D01*
X93879D02*
X94210D01*
X94376Y24599D01*
Y24930D01*
X94210Y25096D01*
X93879D01*
X93714Y24930D01*
Y24599D01*
X93879Y24434D01*
X94872Y25261D02*
Y25096D01*
X94707D01*
X95038D01*
X94872D01*
Y24599D01*
X95038Y24434D01*
X95700Y25096D02*
X96031D01*
X96196Y24930D01*
Y24434D01*
X95700D01*
X95534Y24599D01*
X95700Y24765D01*
X96196D01*
X96527Y24434D02*
X96858D01*
X96693D01*
Y25427D01*
X96527D01*
X88915Y54233D02*
X89246D01*
X89080D01*
Y55226D01*
X88915Y55060D01*
X89577Y51750D02*
X88915D01*
X89577Y52412D01*
Y52577D01*
X89411Y52743D01*
X89080D01*
X88915Y52577D01*
X89577Y49266D02*
X88915D01*
X89577Y49928D01*
Y50094D01*
X89411Y50259D01*
X89080D01*
X88915Y50094D01*
X89577Y46783D02*
X88915D01*
X89577Y47445D01*
Y47611D01*
X89411Y47776D01*
X89080D01*
X88915Y47611D01*
X89411Y44300D02*
Y45293D01*
X88915Y44796D01*
X89577D01*
Y42810D02*
X89246Y42644D01*
X88915Y42313D01*
Y41982D01*
X89080Y41817D01*
X89411D01*
X89577Y41982D01*
Y42148D01*
X89411Y42313D01*
X88915D01*
Y40161D02*
X89080Y40326D01*
X89411D01*
X89577Y40161D01*
Y39995D01*
X89411Y39830D01*
X89577Y39664D01*
Y39499D01*
X89411Y39333D01*
X89080D01*
X88915Y39499D01*
Y39664D01*
X89080Y39830D01*
X88915Y39995D01*
Y40161D01*
X89080Y39830D02*
X89411D01*
X88915Y37677D02*
X89080Y37843D01*
X89411D01*
X89577Y37677D01*
Y37512D01*
X89411Y37346D01*
X89577Y37181D01*
Y37016D01*
X89411Y36850D01*
X89080D01*
X88915Y37016D01*
Y37181D01*
X89080Y37346D01*
X88915Y37512D01*
Y37677D01*
X89080Y37346D02*
X89411D01*
X88915Y34367D02*
X89246D01*
X89080D01*
Y35360D01*
X88915Y35194D01*
X89742D02*
X89908Y35360D01*
X90239D01*
X90404Y35194D01*
Y34532D01*
X90239Y34367D01*
X89908D01*
X89742Y34532D01*
Y35194D01*
X88915Y31883D02*
X89246D01*
X89080D01*
Y32876D01*
X88915Y32711D01*
X90404Y32876D02*
X90073Y32711D01*
X89742Y32380D01*
Y32049D01*
X89908Y31883D01*
X90239D01*
X90404Y32049D01*
Y32214D01*
X90239Y32380D01*
X89742D01*
X88915Y29400D02*
X89246D01*
X89080D01*
Y30393D01*
X88915Y30228D01*
X90404Y30393D02*
X90073Y30228D01*
X89742Y29897D01*
Y29566D01*
X89908Y29400D01*
X90239D01*
X90404Y29566D01*
Y29731D01*
X90239Y29897D01*
X89742D01*
X89577Y27910D02*
X88915D01*
Y27413D01*
X89246Y27579D01*
X89411D01*
X89577Y27413D01*
Y27082D01*
X89411Y26917D01*
X89080D01*
X88915Y27082D01*
X89908Y26917D02*
X90239D01*
X90073D01*
Y27910D01*
X89908Y27744D01*
D16*
X35099Y-1250D02*
Y37150D01*
D42*
X26667Y-3850D02*
X26400D01*
X26667Y-3583D01*
Y-3517D01*
X26600Y-3450D01*
X26467D01*
X26400Y-3517D01*
X26800D02*
X26867Y-3450D01*
X27000D01*
X27066Y-3517D01*
Y-3783D01*
X27000Y-3850D01*
X26867D01*
X26800Y-3783D01*
Y-3517D01*
X27200Y-3850D02*
Y-3450D01*
X27333Y-3583D01*
X27466Y-3450D01*
Y-3850D01*
X27600Y-3450D02*
X27733D01*
X27666D01*
Y-3850D01*
X27600D01*
X27733D01*
X27933Y-3450D02*
Y-3850D01*
X28199D01*
X28999Y-3517D02*
X28933Y-3450D01*
X28799D01*
X28733Y-3517D01*
Y-3583D01*
X28799Y-3650D01*
X28933D01*
X28999Y-3717D01*
Y-3783D01*
X28933Y-3850D01*
X28799D01*
X28733Y-3783D01*
X29399Y-3517D02*
X29332Y-3450D01*
X29199D01*
X29132Y-3517D01*
Y-3783D01*
X29199Y-3850D01*
X29332D01*
X29399Y-3783D01*
X29732Y-3450D02*
X29599D01*
X29532Y-3517D01*
Y-3783D01*
X29599Y-3850D01*
X29732D01*
X29799Y-3783D01*
Y-3517D01*
X29732Y-3450D01*
X29932Y-3850D02*
Y-3450D01*
X30132D01*
X30199Y-3517D01*
Y-3650D01*
X30132Y-3717D01*
X29932D01*
X30065D02*
X30199Y-3850D01*
X30599Y-3450D02*
X30332D01*
Y-3850D01*
X30599D01*
X30332Y-3650D02*
X30465D01*
X31132Y-3450D02*
Y-3850D01*
X31398D01*
X31532Y-3450D02*
X31665D01*
X31598D01*
Y-3850D01*
X31532D01*
X31665D01*
X31865D02*
Y-3450D01*
X32131Y-3850D01*
Y-3450D01*
X32531D02*
X32265D01*
Y-3850D01*
X32531D01*
X32265Y-3650D02*
X32398D01*
D66*
X57782Y35400D02*
X70200D01*
X35200D02*
X47118D01*
X69800Y35533D02*
X70200Y35400D01*
X69800Y35267D02*
X70200Y35400D01*
X35200D02*
X35600Y35267D01*
X35200Y35400D02*
X35600Y35533D01*
X34007Y37500D02*
X35007D01*
X35207D02*
X36207D01*
X34607Y37633D02*
X35007Y37500D01*
X34607Y37367D02*
X35007Y37500D01*
X35207D02*
X35607Y37367D01*
X35207Y37500D02*
X35607Y37633D01*
X0Y33200D02*
X35200D01*
X0Y8400D02*
Y33200D01*
Y8400D02*
X23550D01*
X24400D01*
Y0D02*
Y8400D01*
Y0D02*
X45798D01*
X35200Y33201D02*
X70200D01*
Y8402D02*
Y33201D01*
X45798Y8402D02*
X70200D01*
X45798Y0D02*
Y8402D01*
D67*
X22960Y17100D02*
G03*
X22960Y17100I-60J0D01*
G01*
X23000D02*
G03*
X23000Y17100I-100J0D01*
G01*
X44960Y13300D02*
G03*
X44960Y13300I-60J0D01*
G01*
X45000D02*
G03*
X45000Y13300I-100J0D01*
G01*
X45446Y11686D02*
G03*
X45446Y11686I-60J0D01*
G01*
X45486D02*
G03*
X45486Y11686I-100J0D01*
G01*
X44925Y14835D02*
G03*
X44925Y14835I-60J0D01*
G01*
X44965D02*
G03*
X44965Y14835I-100J0D01*
G01*
X44960Y16400D02*
G03*
X44960Y16400I-60J0D01*
G01*
X45000D02*
G03*
X45000Y16400I-100J0D01*
G01*
X45860Y17200D02*
G03*
X45860Y17200I-60J0D01*
G01*
X45900D02*
G03*
X45900Y17200I-100J0D01*
G01*
X43860Y23300D02*
G03*
X43860Y23300I-60J0D01*
G01*
X43900D02*
G03*
X43900Y23300I-100J0D01*
G01*
X43860Y25100D02*
G03*
X43860Y25100I-60J0D01*
G01*
X43900D02*
G03*
X43900Y25100I-100J0D01*
G01*
X48660Y27900D02*
G03*
X48660Y27900I-60J0D01*
G01*
X48700D02*
G03*
X48700Y27900I-100J0D01*
G01*
X49660Y23400D02*
G03*
X49660Y23400I-60J0D01*
G01*
X49700D02*
G03*
X49700Y23400I-100J0D01*
G01*
X57372Y21360D02*
G03*
X57372Y21360I-60J0D01*
G01*
X57412D02*
G03*
X57412Y21360I-100J0D01*
G01*
X55080Y20380D02*
G03*
X55080Y20380I-60J0D01*
G01*
X55120D02*
G03*
X55120Y20380I-100J0D01*
G01*
X48310Y21650D02*
G03*
X48310Y21650I-60J0D01*
G01*
X48350D02*
G03*
X48350Y21650I-100J0D01*
G01*
X49764Y20800D02*
G03*
X49764Y20800I-60J0D01*
G01*
X49804D02*
G03*
X49804Y20800I-100J0D01*
G01*
X38460Y15648D02*
G03*
X38460Y15648I-60J0D01*
G01*
X38500D02*
G03*
X38500Y15648I-100J0D01*
G01*
X39710Y25000D02*
G03*
X39710Y25000I-60J0D01*
G01*
X39750D02*
G03*
X39750Y25000I-100J0D01*
G01*
X54133Y13223D02*
G03*
X54133Y13223I-60J0D01*
G01*
X54173D02*
G03*
X54173Y13223I-100J0D01*
G01*
X67910Y13514D02*
G03*
X67910Y13514I-60J0D01*
G01*
X67950D02*
G03*
X67950Y13514I-100J0D01*
G01*
X67988Y27978D02*
G03*
X67988Y27978I-60J0D01*
G01*
X68028D02*
G03*
X68028Y27978I-100J0D01*
G01*
X57660Y29383D02*
G03*
X57660Y29383I-60J0D01*
G01*
X57700D02*
G03*
X57700Y29383I-100J0D01*
G01*
X53631D02*
G03*
X53631Y29383I-60J0D01*
G01*
X53671D02*
G03*
X53671Y29383I-100J0D01*
G01*
X43893Y19000D02*
G03*
X43893Y19000I-60J0D01*
G01*
X43933D02*
G03*
X43933Y19000I-100J0D01*
G01*
X42510Y24167D02*
G03*
X42510Y24167I-60J0D01*
G01*
X42550D02*
G03*
X42550Y24167I-100J0D01*
G01*
X37334Y23630D02*
G03*
X37334Y23630I-60J0D01*
G01*
X37374D02*
G03*
X37374Y23630I-100J0D01*
G01*
X44710Y28368D02*
G03*
X44710Y28368I-60J0D01*
G01*
X44750D02*
G03*
X44750Y28368I-100J0D01*
G01*
X54310Y25744D02*
G03*
X54310Y25744I-60J0D01*
G01*
X54350D02*
G03*
X54350Y25744I-100J0D01*
G01*
X51897Y24600D02*
G03*
X51897Y24600I-60J0D01*
G01*
X51937D02*
G03*
X51937Y24600I-100J0D01*
G01*
X51460Y27300D02*
G03*
X51460Y27300I-60J0D01*
G01*
X51500D02*
G03*
X51500Y27300I-100J0D01*
G01*
X36910Y12150D02*
G03*
X36910Y12150I-60J0D01*
G01*
X36950D02*
G03*
X36950Y12150I-100J0D01*
G01*
X42110Y12500D02*
G03*
X42110Y12500I-60J0D01*
G01*
X42150D02*
G03*
X42150Y12500I-100J0D01*
G01*
X41960Y17050D02*
G03*
X41960Y17050I-60J0D01*
G01*
X42000D02*
G03*
X42000Y17050I-100J0D01*
G01*
X48081Y17800D02*
G03*
X48081Y17800I-60J0D01*
G01*
X48121D02*
G03*
X48121Y17800I-100J0D01*
G01*
X41468Y20350D02*
G03*
X41468Y20350I-60J0D01*
G01*
X41508D02*
G03*
X41508Y20350I-100J0D01*
G01*
X41460Y18550D02*
G03*
X41460Y18550I-60J0D01*
G01*
X41500D02*
G03*
X41500Y18550I-100J0D01*
G01*
X3729Y24100D02*
G03*
X3729Y24100I-60J0D01*
G01*
X3769D02*
G03*
X3769Y24100I-100J0D01*
G01*
X4760Y14750D02*
G03*
X4760Y14750I-60J0D01*
G01*
X4800D02*
G03*
X4800Y14750I-100J0D01*
G01*
X18260Y17200D02*
G03*
X18260Y17200I-60J0D01*
G01*
X18300D02*
G03*
X18300Y17200I-100J0D01*
G01*
X22260Y24050D02*
G03*
X22260Y24050I-60J0D01*
G01*
X22300D02*
G03*
X22300Y24050I-100J0D01*
G01*
X25360Y19097D02*
G03*
X25360Y19097I-60J0D01*
G01*
X25400D02*
G03*
X25400Y19097I-100J0D01*
G01*
X25160Y12850D02*
G03*
X25160Y12850I-60J0D01*
G01*
X25200D02*
G03*
X25200Y12850I-100J0D01*
G01*
X32760Y10950D02*
G03*
X32760Y10950I-60J0D01*
G01*
X32800D02*
G03*
X32800Y10950I-100J0D01*
G01*
X25486Y9630D02*
G03*
X25486Y9630I-60J0D01*
G01*
X25526D02*
G03*
X25526Y9630I-100J0D01*
G01*
X30990Y28450D02*
G03*
X30990Y28450I-60J0D01*
G01*
X31030D02*
G03*
X31030Y28450I-100J0D01*
G01*
X5660Y29900D02*
G03*
X5660Y29900I-60J0D01*
G01*
X5700D02*
G03*
X5700Y29900I-100J0D01*
G01*
X13742Y30100D02*
G03*
X13742Y30100I-60J0D01*
G01*
X13782D02*
G03*
X13782Y30100I-100J0D01*
G01*
X13355Y17081D02*
G03*
X13355Y17081I-60J0D01*
G01*
X13395D02*
G03*
X13395Y17081I-100J0D01*
G01*
X15748Y12750D02*
G03*
X15748Y12750I-60J0D01*
G01*
X15789D02*
G03*
X15789Y12750I-100J0D01*
G01*
X31510Y20380D02*
G03*
X31510Y20380I-60J0D01*
G01*
X31550D02*
G03*
X31550Y20380I-100J0D01*
G01*
X31510Y23880D02*
G03*
X31510Y23880I-60J0D01*
G01*
X31550D02*
G03*
X31550Y23880I-100J0D01*
G01*
X23760Y30114D02*
G03*
X23760Y30114I-60J0D01*
G01*
X23800D02*
G03*
X23800Y30114I-100J0D01*
G01*
X12033Y27400D02*
G03*
X12033Y27400I-60J0D01*
G01*
X12073D02*
G03*
X12073Y27400I-100J0D01*
G01*
X38500Y28600D02*
G03*
X38500Y28600I-100J0D01*
G01*
Y27600D02*
G03*
X38500Y27600I-100J0D01*
G01*
X37500Y28600D02*
G03*
X37500Y28600I-100J0D01*
G01*
Y27600D02*
G03*
X37500Y27600I-100J0D01*
G01*
X36500Y28600D02*
G03*
X36500Y28600I-100J0D01*
G01*
Y27600D02*
G03*
X36500Y27600I-100J0D01*
G01*
X30980Y18060D02*
X31040Y18180D01*
X30920D02*
X31040D01*
X30920D02*
X30980Y18060D01*
Y18020D02*
X31080Y18220D01*
X30880D02*
X31080D01*
X30880D02*
X30980Y18020D01*
X27770Y22070D02*
X27800Y22040D01*
X27740Y22070D02*
X27770D01*
X27740D02*
X27770Y22100D01*
X27740Y22130D02*
X27770Y22100D01*
X27740Y22130D02*
X27770D01*
X27800Y22160D01*
X27830Y22130D01*
X27860D01*
X27830Y22100D02*
X27860Y22130D01*
X27830Y22100D02*
X27860Y22070D01*
X27830D02*
X27860D01*
X27800Y22040D02*
X27830Y22070D01*
X27750Y22050D02*
X27800Y22000D01*
X27700Y22050D02*
X27750D01*
X27700D02*
X27750Y22100D01*
X27700Y22150D02*
X27750Y22100D01*
X27700Y22150D02*
X27750D01*
X27800Y22200D01*
X27850Y22150D01*
X27900D01*
X27850Y22100D02*
X27900Y22150D01*
X27850Y22100D02*
X27900Y22050D01*
X27850D02*
X27900D01*
X27800Y22000D02*
X27850Y22050D01*
X15550Y26890D02*
X15610Y27010D01*
X15490D02*
X15610D01*
X15490D02*
X15550Y26890D01*
Y26850D02*
X15650Y27050D01*
X15450D02*
X15650D01*
X15450D02*
X15550Y26850D01*
X18850Y30015D02*
Y30065D01*
X18900Y30115D01*
X18850Y30165D02*
X18900Y30115D01*
X18850Y30165D02*
Y30215D01*
X18900D01*
X18950Y30165D01*
X19000Y30215D01*
X19050D01*
Y30165D02*
Y30215D01*
X19000Y30115D02*
X19050Y30165D01*
X19000Y30115D02*
X19050Y30065D01*
Y30015D02*
Y30065D01*
X19000Y30015D02*
X19050D01*
X18950Y30065D02*
X19000Y30015D01*
X18900D02*
X18950Y30065D01*
X18850Y30015D02*
X18900D01*
X2850D02*
Y30065D01*
X2900Y30115D01*
X2850Y30165D02*
X2900Y30115D01*
X2850Y30165D02*
Y30215D01*
X2900D01*
X2950Y30165D01*
X3000Y30215D01*
X3050D01*
Y30165D02*
Y30215D01*
X3000Y30115D02*
X3050Y30165D01*
X3000Y30115D02*
X3050Y30065D01*
Y30015D02*
Y30065D01*
X3000Y30015D02*
X3050D01*
X2950Y30065D02*
X3000Y30015D01*
X2900D02*
X2950Y30065D01*
X2850Y30015D02*
X2900D01*
X2850Y10515D02*
Y10565D01*
X2900Y10615D01*
X2850Y10665D02*
X2900Y10615D01*
X2850Y10665D02*
Y10715D01*
X2900D01*
X2950Y10665D01*
X3000Y10715D01*
X3050D01*
Y10665D02*
Y10715D01*
X3000Y10615D02*
X3050Y10665D01*
X3000Y10615D02*
X3050Y10565D01*
Y10515D02*
Y10565D01*
X3000Y10515D02*
X3050D01*
X2950Y10565D02*
X3000Y10515D01*
X2900D02*
X2950Y10565D01*
X2850Y10515D02*
X2900D01*
X18850D02*
Y10565D01*
X18900Y10615D01*
X18850Y10665D02*
X18900Y10615D01*
X18850Y10665D02*
Y10715D01*
X18900D01*
X18950Y10665D01*
X19000Y10715D01*
X19050D01*
Y10665D02*
Y10715D01*
X19000Y10615D02*
X19050Y10665D01*
X19000Y10615D02*
X19050Y10565D01*
Y10515D02*
Y10565D01*
X19000Y10515D02*
X19050D01*
X18950Y10565D02*
X19000Y10515D01*
X18900D02*
X18950Y10565D01*
X18850Y10515D02*
X18900D01*
X12390Y19190D02*
X12510D01*
Y19310D01*
X12390D02*
X12510D01*
X12390Y19190D02*
Y19310D01*
X12350Y19150D02*
X12550D01*
Y19350D01*
X12350D02*
X12550D01*
X12350Y19150D02*
Y19350D01*
X13390Y19190D02*
X13510D01*
Y19310D01*
X13390D02*
X13510D01*
X13390Y19190D02*
Y19310D01*
X13350Y19150D02*
X13550D01*
Y19350D01*
X13350D02*
X13550D01*
X13350Y19150D02*
Y19350D01*
X12390Y20190D02*
X12510D01*
Y20310D01*
X12390D02*
X12510D01*
X12390Y20190D02*
Y20310D01*
X12350Y20150D02*
X12550D01*
Y20350D01*
X12350D02*
X12550D01*
X12350Y20150D02*
Y20350D01*
X13390Y20190D02*
X13510D01*
Y20310D01*
X13390D02*
X13510D01*
X13390Y20190D02*
Y20310D01*
X13350Y20150D02*
X13550D01*
Y20350D01*
X13350D02*
X13550D01*
X13350Y20150D02*
Y20350D01*
X12390Y21190D02*
X12510D01*
Y21310D01*
X12390D02*
X12510D01*
X12390Y21190D02*
Y21310D01*
X12350Y21150D02*
X12550D01*
Y21350D01*
X12350D02*
X12550D01*
X12350Y21150D02*
Y21350D01*
X13390Y21190D02*
X13510D01*
Y21310D01*
X13390D02*
X13510D01*
X13390Y21190D02*
Y21310D01*
X13350Y21150D02*
X13550D01*
Y21350D01*
X13350D02*
X13550D01*
X13350Y21150D02*
Y21350D01*
X12390Y22190D02*
X12510D01*
Y22310D01*
X12390D02*
X12510D01*
X12390Y22190D02*
Y22310D01*
X12350Y22150D02*
X12550D01*
Y22350D01*
X12350D02*
X12550D01*
X12350Y22150D02*
Y22350D01*
X13390Y22190D02*
X13510D01*
Y22310D01*
X13390D02*
X13510D01*
X13390Y22190D02*
Y22310D01*
X13350Y22150D02*
X13550D01*
Y22350D01*
X13350D02*
X13550D01*
X13350Y22150D02*
Y22350D01*
X12390Y23190D02*
X12510D01*
Y23310D01*
X12390D02*
X12510D01*
X12390Y23190D02*
Y23310D01*
X12350Y23150D02*
X12550D01*
Y23350D01*
X12350D02*
X12550D01*
X12350Y23150D02*
Y23350D01*
X13390Y23190D02*
X13510D01*
Y23310D01*
X13390D02*
X13510D01*
X13390Y23190D02*
Y23310D01*
X13350Y23150D02*
X13550D01*
Y23350D01*
X13350D02*
X13550D01*
X13350Y23150D02*
Y23350D01*
X12390Y24190D02*
X12510D01*
Y24310D01*
X12390D02*
X12510D01*
X12390Y24190D02*
Y24310D01*
X12350Y24150D02*
X12550D01*
Y24350D01*
X12350D02*
X12550D01*
X12350Y24150D02*
Y24350D01*
X13390Y24190D02*
X13510D01*
Y24310D01*
X13390D02*
X13510D01*
X13390Y24190D02*
Y24310D01*
X13350Y24150D02*
X13550D01*
Y24350D01*
X13350D02*
X13550D01*
X13350Y24150D02*
Y24350D01*
X12390Y25190D02*
X12510D01*
Y25310D01*
X12390D02*
X12510D01*
X12390Y25190D02*
Y25310D01*
X12350Y25150D02*
X12550D01*
Y25350D01*
X12350D02*
X12550D01*
X12350Y25150D02*
Y25350D01*
X13390Y25190D02*
X13510D01*
Y25310D01*
X13390D02*
X13510D01*
X13390Y25190D02*
Y25310D01*
X13350Y25150D02*
X13550D01*
Y25350D01*
X13350D02*
X13550D01*
X13350Y25150D02*
Y25350D01*
X12390Y26190D02*
X12510D01*
Y26310D01*
X12390D02*
X12510D01*
X12390Y26190D02*
Y26310D01*
X12350Y26150D02*
X12550D01*
Y26350D01*
X12350D02*
X12550D01*
X12350Y26150D02*
Y26350D01*
X13390Y26190D02*
X13510D01*
Y26310D01*
X13390D02*
X13510D01*
X13390Y26190D02*
Y26310D01*
X13350Y26150D02*
X13550D01*
Y26350D01*
X13350D02*
X13550D01*
X13350Y26150D02*
Y26350D01*
X9740Y31390D02*
X9840Y31290D01*
X9940Y31390D01*
X9840Y31490D02*
X9940Y31390D01*
X9740D02*
X9840Y31490D01*
X10740Y31390D02*
X10840Y31290D01*
X10940Y31390D01*
X10840Y31490D02*
X10940Y31390D01*
X10740D02*
X10840Y31490D01*
X10740Y32390D02*
X10840Y32290D01*
X10940Y32390D01*
X10840Y32490D02*
X10940Y32390D01*
X10740D02*
X10840Y32490D01*
X9740Y32390D02*
X9840Y32290D01*
X9940Y32390D01*
X9840Y32490D02*
X9940Y32390D01*
X9740D02*
X9840Y32490D01*
X8740Y32390D02*
X8840Y32290D01*
X8940Y32390D01*
X8840Y32490D02*
X8940Y32390D01*
X8740D02*
X8840Y32490D01*
X8740Y31390D02*
X8840Y31290D01*
X8940Y31390D01*
X8840Y31490D02*
X8940Y31390D01*
X8740D02*
X8840Y31490D01*
X8850Y15700D02*
X8950Y15600D01*
X9050Y15700D01*
X8950Y15800D02*
X9050Y15700D01*
X8850D02*
X8950Y15800D01*
X9850Y15700D02*
X9950Y15600D01*
X10050Y15700D01*
X9950Y15800D02*
X10050Y15700D01*
X9850D02*
X9950Y15800D01*
X32100Y5890D02*
X32200Y5940D01*
X32300Y5890D01*
X32250Y5990D02*
X32300Y5890D01*
X32250Y5990D02*
X32300Y6090D01*
X32200Y6040D02*
X32300Y6090D01*
X32100D02*
X32200Y6040D01*
X32100Y6090D02*
X32150Y5990D01*
X32100Y5890D02*
X32150Y5990D01*
X27100Y5890D02*
X27200Y5940D01*
X27300Y5890D01*
X27250Y5990D02*
X27300Y5890D01*
X27250Y5990D02*
X27300Y6090D01*
X27200Y6040D02*
X27300Y6090D01*
X27100D02*
X27200Y6040D01*
X27100Y6090D02*
X27150Y5990D01*
X27100Y5890D02*
X27150Y5990D01*
X51150Y30017D02*
Y30067D01*
X51200Y30117D01*
X51150Y30167D02*
X51200Y30117D01*
X51150Y30167D02*
Y30217D01*
X51200D01*
X51250Y30167D01*
X51300Y30217D01*
X51350D01*
Y30167D02*
Y30217D01*
X51300Y30117D02*
X51350Y30167D01*
X51300Y30117D02*
X51350Y30067D01*
Y30017D02*
Y30067D01*
X51300Y30017D02*
X51350D01*
X51250Y30067D02*
X51300Y30017D01*
X51200D02*
X51250Y30067D01*
X51150Y30017D02*
X51200D01*
X67150D02*
Y30067D01*
X67200Y30117D01*
X67150Y30167D02*
X67200Y30117D01*
X67150Y30167D02*
Y30217D01*
X67200D01*
X67250Y30167D01*
X67300Y30217D01*
X67350D01*
Y30167D02*
Y30217D01*
X67300Y30117D02*
X67350Y30167D01*
X67300Y30117D02*
X67350Y30067D01*
Y30017D02*
Y30067D01*
X67300Y30017D02*
X67350D01*
X67250Y30067D02*
X67300Y30017D01*
X67200D02*
X67250Y30067D01*
X67150Y30017D02*
X67200D01*
X67150Y10517D02*
Y10567D01*
X67200Y10617D01*
X67150Y10667D02*
X67200Y10617D01*
X67150Y10667D02*
Y10717D01*
X67200D01*
X67250Y10667D01*
X67300Y10717D01*
X67350D01*
Y10667D02*
Y10717D01*
X67300Y10617D02*
X67350Y10667D01*
X67300Y10617D02*
X67350Y10567D01*
Y10517D02*
Y10567D01*
X67300Y10517D02*
X67350D01*
X67250Y10567D02*
X67300Y10517D01*
X67200D02*
X67250Y10567D01*
X67150Y10517D02*
X67200D01*
X51150D02*
Y10567D01*
X51200Y10617D01*
X51150Y10667D02*
X51200Y10617D01*
X51150Y10667D02*
Y10717D01*
X51200D01*
X51250Y10667D01*
X51300Y10717D01*
X51350D01*
Y10667D02*
Y10717D01*
X51300Y10617D02*
X51350Y10667D01*
X51300Y10617D02*
X51350Y10567D01*
Y10517D02*
Y10567D01*
X51300Y10517D02*
X51350D01*
X51250Y10567D02*
X51300Y10517D01*
X51200D02*
X51250Y10567D01*
X51150Y10517D02*
X51200D01*
X36350Y31950D02*
X36400D01*
X36350D02*
Y32050D01*
X36400D01*
Y32100D01*
X36500D01*
Y32050D02*
Y32100D01*
Y32050D02*
X36550D01*
Y31950D02*
Y32050D01*
X36500Y31950D02*
X36550D01*
X36500Y31900D02*
Y31950D01*
X36400Y31900D02*
X36500D01*
X36400D02*
Y31950D01*
X38100D02*
X38150D01*
X38100D02*
Y32050D01*
X38150D01*
Y32100D01*
X38250D01*
Y32050D02*
Y32100D01*
Y32050D02*
X38300D01*
Y31950D02*
Y32050D01*
X38250Y31950D02*
X38300D01*
X38250Y31900D02*
Y31950D01*
X38150Y31900D02*
X38250D01*
X38150D02*
Y31950D01*
X37935Y3994D02*
X38035Y4044D01*
X38135Y3994D01*
X38085Y4094D02*
X38135Y3994D01*
X38085Y4094D02*
X38135Y4194D01*
X38035Y4144D02*
X38135Y4194D01*
X37935D02*
X38035Y4144D01*
X37935Y4194D02*
X37985Y4094D01*
X37935Y3994D02*
X37985Y4094D01*
X42935Y3994D02*
X43035Y4044D01*
X43135Y3994D01*
X43085Y4094D02*
X43135Y3994D01*
X43085Y4094D02*
X43135Y4194D01*
X43035Y4144D02*
X43135Y4194D01*
X42935D02*
X43035Y4144D01*
X42935Y4194D02*
X42985Y4094D01*
X42935Y3994D02*
X42985Y4094D01*
X53700Y22950D02*
X53750Y22900D01*
X53650Y22950D02*
X53700D01*
X53650D02*
X53700Y23000D01*
X53650Y23050D02*
X53700Y23000D01*
X53650Y23050D02*
X53700D01*
X53750Y23100D01*
X53800Y23050D01*
X53850D01*
X53800Y23000D02*
X53850Y23050D01*
X53800Y23000D02*
X53850Y22950D01*
X53800D02*
X53850D01*
X53750Y22900D02*
X53800Y22950D01*
X52700D02*
X52750Y22900D01*
X52650Y22950D02*
X52700D01*
X52650D02*
X52700Y23000D01*
X52650Y23050D02*
X52700Y23000D01*
X52650Y23050D02*
X52700D01*
X52750Y23100D01*
X52800Y23050D01*
X52850D01*
X52800Y23000D02*
X52850Y23050D01*
X52800Y23000D02*
X52850Y22950D01*
X52800D02*
X52850D01*
X52750Y22900D02*
X52800Y22950D01*
X53700Y21950D02*
X53750Y21900D01*
X53650Y21950D02*
X53700D01*
X53650D02*
X53700Y22000D01*
X53650Y22050D02*
X53700Y22000D01*
X53650Y22050D02*
X53700D01*
X53750Y22100D01*
X53800Y22050D01*
X53850D01*
X53800Y22000D02*
X53850Y22050D01*
X53800Y22000D02*
X53850Y21950D01*
X53800D02*
X53850D01*
X53750Y21900D02*
X53800Y21950D01*
X52700D02*
X52750Y21900D01*
X52650Y21950D02*
X52700D01*
X52650D02*
X52700Y22000D01*
X52650Y22050D02*
X52700Y22000D01*
X52650Y22050D02*
X52700D01*
X52750Y22100D01*
X52800Y22050D01*
X52850D01*
X52800Y22000D02*
X52850Y22050D01*
X52800Y22000D02*
X52850Y21950D01*
X52800D02*
X52850D01*
X52750Y21900D02*
X52800Y21950D01*
X53700Y20950D02*
X53750Y20900D01*
X53650Y20950D02*
X53700D01*
X53650D02*
X53700Y21000D01*
X53650Y21050D02*
X53700Y21000D01*
X53650Y21050D02*
X53700D01*
X53750Y21100D01*
X53800Y21050D01*
X53850D01*
X53800Y21000D02*
X53850Y21050D01*
X53800Y21000D02*
X53850Y20950D01*
X53800D02*
X53850D01*
X53750Y20900D02*
X53800Y20950D01*
X52700D02*
X52750Y20900D01*
X52650Y20950D02*
X52700D01*
X52650D02*
X52700Y21000D01*
X52650Y21050D02*
X52700Y21000D01*
X52650Y21050D02*
X52700D01*
X52750Y21100D01*
X52800Y21050D01*
X52850D01*
X52800Y21000D02*
X52850Y21050D01*
X52800Y21000D02*
X52850Y20950D01*
X52800D02*
X52850D01*
X52750Y20900D02*
X52800Y20950D01*
X53700Y19950D02*
X53750Y19900D01*
X53650Y19950D02*
X53700D01*
X53650D02*
X53700Y20000D01*
X53650Y20050D02*
X53700Y20000D01*
X53650Y20050D02*
X53700D01*
X53750Y20100D01*
X53800Y20050D01*
X53850D01*
X53800Y20000D02*
X53850Y20050D01*
X53800Y20000D02*
X53850Y19950D01*
X53800D02*
X53850D01*
X53750Y19900D02*
X53800Y19950D01*
X52700D02*
X52750Y19900D01*
X52650Y19950D02*
X52700D01*
X52650D02*
X52700Y20000D01*
X52650Y20050D02*
X52700Y20000D01*
X52650Y20050D02*
X52700D01*
X52750Y20100D01*
X52800Y20050D01*
X52850D01*
X52800Y20000D02*
X52850Y20050D01*
X52800Y20000D02*
X52850Y19950D01*
X52800D02*
X52850D01*
X52750Y19900D02*
X52800Y19950D01*
X53700Y18950D02*
X53750Y18900D01*
X53650Y18950D02*
X53700D01*
X53650D02*
X53700Y19000D01*
X53650Y19050D02*
X53700Y19000D01*
X53650Y19050D02*
X53700D01*
X53750Y19100D01*
X53800Y19050D01*
X53850D01*
X53800Y19000D02*
X53850Y19050D01*
X53800Y19000D02*
X53850Y18950D01*
X53800D02*
X53850D01*
X53750Y18900D02*
X53800Y18950D01*
X52700D02*
X52750Y18900D01*
X52650Y18950D02*
X52700D01*
X52650D02*
X52700Y19000D01*
X52650Y19050D02*
X52700Y19000D01*
X52650Y19050D02*
X52700D01*
X52750Y19100D01*
X52800Y19050D01*
X52850D01*
X52800Y19000D02*
X52850Y19050D01*
X52800Y19000D02*
X52850Y18950D01*
X52800D02*
X52850D01*
X52750Y18900D02*
X52800Y18950D01*
X53700Y17950D02*
X53750Y17900D01*
X53650Y17950D02*
X53700D01*
X53650D02*
X53700Y18000D01*
X53650Y18050D02*
X53700Y18000D01*
X53650Y18050D02*
X53700D01*
X53750Y18100D01*
X53800Y18050D01*
X53850D01*
X53800Y18000D02*
X53850Y18050D01*
X53800Y18000D02*
X53850Y17950D01*
X53800D02*
X53850D01*
X53750Y17900D02*
X53800Y17950D01*
X52700D02*
X52750Y17900D01*
X52650Y17950D02*
X52700D01*
X52650D02*
X52700Y18000D01*
X52650Y18050D02*
X52700Y18000D01*
X52650Y18050D02*
X52700D01*
X52750Y18100D01*
X52800Y18050D01*
X52850D01*
X52800Y18000D02*
X52850Y18050D01*
X52800Y18000D02*
X52850Y17950D01*
X52800D02*
X52850D01*
X52750Y17900D02*
X52800Y17950D01*
X53700Y16950D02*
X53750Y16900D01*
X53650Y16950D02*
X53700D01*
X53650D02*
X53700Y17000D01*
X53650Y17050D02*
X53700Y17000D01*
X53650Y17050D02*
X53700D01*
X53750Y17100D01*
X53800Y17050D01*
X53850D01*
X53800Y17000D02*
X53850Y17050D01*
X53800Y17000D02*
X53850Y16950D01*
X53800D02*
X53850D01*
X53750Y16900D02*
X53800Y16950D01*
X52700D02*
X52750Y16900D01*
X52650Y16950D02*
X52700D01*
X52650D02*
X52700Y17000D01*
X52650Y17050D02*
X52700Y17000D01*
X52650Y17050D02*
X52700D01*
X52750Y17100D01*
X52800Y17050D01*
X52850D01*
X52800Y17000D02*
X52850Y17050D01*
X52800Y17000D02*
X52850Y16950D01*
X52800D02*
X52850D01*
X52750Y16900D02*
X52800Y16950D01*
X53700Y15950D02*
X53750Y15900D01*
X53650Y15950D02*
X53700D01*
X53650D02*
X53700Y16000D01*
X53650Y16050D02*
X53700Y16000D01*
X53650Y16050D02*
X53700D01*
X53750Y16100D01*
X53800Y16050D01*
X53850D01*
X53800Y16000D02*
X53850Y16050D01*
X53800Y16000D02*
X53850Y15950D01*
X53800D02*
X53850D01*
X53750Y15900D02*
X53800Y15950D01*
X52700D02*
X52750Y15900D01*
X52650Y15950D02*
X52700D01*
X52650D02*
X52700Y16000D01*
X52650Y16050D02*
X52700Y16000D01*
X52650Y16050D02*
X52700D01*
X52750Y16100D01*
X52800Y16050D01*
X52850D01*
X52800Y16000D02*
X52850Y16050D01*
X52800Y16000D02*
X52850Y15950D01*
X52800D02*
X52850D01*
X52750Y15900D02*
X52800Y15950D01*
X62132Y24690D02*
X62232Y24890D01*
X62032D02*
X62232D01*
X62032D02*
X62132Y24690D01*
Y25690D02*
X62232Y25890D01*
X62032D02*
X62232D01*
X62032D02*
X62132Y25690D01*
X61132D02*
X61232Y25890D01*
X61032D02*
X61232D01*
X61032D02*
X61132Y25690D01*
X60132D02*
X60232Y25890D01*
X60032D02*
X60232D01*
X60032D02*
X60132Y25690D01*
Y24690D02*
X60232Y24890D01*
X60032D02*
X60232D01*
X60032D02*
X60132Y24690D01*
X61132D02*
X61232Y24890D01*
X61032D02*
X61232D01*
X61032D02*
X61132Y24690D01*
X62382Y16190D02*
X62482Y16390D01*
X62282D02*
X62482D01*
X62282D02*
X62382Y16190D01*
Y15190D02*
X62482Y15390D01*
X62282D02*
X62482D01*
X62282D02*
X62382Y15190D01*
X59832Y12390D02*
X59932Y12590D01*
X59732D02*
X59932D01*
X59732D02*
X59832Y12390D01*
X58832D02*
X58932Y12590D01*
X58732D02*
X58932D01*
X58732D02*
X58832Y12390D01*
X40300Y28500D02*
X40500D01*
Y28700D01*
X40300D02*
X40500D01*
X40300Y28500D02*
Y28700D01*
Y27500D02*
X40500D01*
Y27700D01*
X40300D02*
X40500D01*
X40300Y27500D02*
Y27700D01*
D68*
X70200Y33326D02*
Y35500D01*
X35200Y33326D02*
Y35500D01*
X35207Y36450D02*
Y37600D01*
X35007Y36450D02*
Y37600D01*
D69*
X148102Y56716D02*
Y57908D01*
X148697D01*
X148896Y57709D01*
Y57312D01*
X148697Y57113D01*
X148102D01*
X149492Y57510D02*
X149889D01*
X150088Y57312D01*
Y56716D01*
X149492D01*
X149293Y56915D01*
X149492Y57113D01*
X150088D01*
X151279Y57908D02*
Y56716D01*
X150683D01*
X150485Y56915D01*
Y57312D01*
X150683Y57510D01*
X151279D01*
X153662Y57709D02*
X153464Y57908D01*
X153067D01*
X152868Y57709D01*
Y57510D01*
X153067Y57312D01*
X153464D01*
X153662Y57113D01*
Y56915D01*
X153464Y56716D01*
X153067D01*
X152868Y56915D01*
X154060Y57908D02*
Y56716D01*
Y57312D01*
X154258Y57510D01*
X154655D01*
X154854Y57312D01*
Y56716D01*
X155450Y57510D02*
X155847D01*
X156045Y57312D01*
Y56716D01*
X155450D01*
X155251Y56915D01*
X155450Y57113D01*
X156045D01*
X156443Y56319D02*
Y57510D01*
X157038D01*
X157237Y57312D01*
Y56915D01*
X157038Y56716D01*
X156443D01*
X158230D02*
X157833D01*
X157634Y56915D01*
Y57312D01*
X157833Y57510D01*
X158230D01*
X158429Y57312D01*
Y57113D01*
X157634D01*
X138546Y57908D02*
Y57113D01*
X138944Y56716D01*
X139341Y57113D01*
Y57908D01*
X139738Y56716D02*
X140135D01*
X139937D01*
Y57510D01*
X139738D01*
X140930D02*
X141327D01*
X141525Y57312D01*
Y56716D01*
X140930D01*
X140731Y56915D01*
X140930Y57113D01*
X141525D01*
X141923Y56716D02*
X142717Y57510D01*
X143114Y56716D02*
Y57908D01*
X143710D01*
X143909Y57709D01*
Y57312D01*
X143710Y57113D01*
X143114D01*
X144504Y57510D02*
X144901D01*
X145100Y57312D01*
Y56716D01*
X144504D01*
X144306Y56915D01*
X144504Y57113D01*
X145100D01*
X146292Y57908D02*
Y56716D01*
X145696D01*
X145497Y56915D01*
Y57312D01*
X145696Y57510D01*
X146292D01*
X126608Y57908D02*
Y56716D01*
Y57312D01*
X127402D01*
Y57908D01*
Y56716D01*
X127998D02*
X128395D01*
X128594Y56915D01*
Y57312D01*
X128395Y57510D01*
X127998D01*
X127800Y57312D01*
Y56915D01*
X127998Y56716D01*
X128991D02*
X129388D01*
X129190D01*
Y57908D01*
X128991D01*
X130580Y56716D02*
X130183D01*
X129984Y56915D01*
Y57312D01*
X130183Y57510D01*
X130580D01*
X130779Y57312D01*
Y57113D01*
X129984D01*
X132367Y57908D02*
X133162D01*
X132765D01*
Y56716D01*
X133559Y57510D02*
Y56915D01*
X133757Y56716D01*
X134353D01*
Y56517D01*
X134155Y56319D01*
X133956D01*
X134353Y56716D02*
Y57510D01*
X134750Y56319D02*
Y57510D01*
X135346D01*
X135545Y57312D01*
Y56915D01*
X135346Y56716D01*
X134750D01*
X136538D02*
X136141D01*
X135942Y56915D01*
Y57312D01*
X136141Y57510D01*
X136538D01*
X136736Y57312D01*
Y57113D01*
X135942D01*
X118443Y56716D02*
Y57908D01*
X119039D01*
X119237Y57709D01*
Y57312D01*
X119039Y57113D01*
X118443D01*
X119635Y56716D02*
X120032D01*
X119833D01*
Y57908D01*
X119635D01*
X120826Y57510D02*
X121223D01*
X121422Y57312D01*
Y56716D01*
X120826D01*
X120628Y56915D01*
X120826Y57113D01*
X121422D01*
X122018Y57709D02*
Y57510D01*
X121819D01*
X122216D01*
X122018D01*
Y56915D01*
X122216Y56716D01*
X123408D02*
X123011D01*
X122812Y56915D01*
Y57312D01*
X123011Y57510D01*
X123408D01*
X123606Y57312D01*
Y57113D01*
X122812D01*
X124798Y57908D02*
Y56716D01*
X124202D01*
X124004Y56915D01*
Y57312D01*
X124202Y57510D01*
X124798D01*
X98548Y57908D02*
Y56716D01*
Y57312D01*
X99343D01*
Y57908D01*
Y56716D01*
X99939D02*
X100336D01*
X100534Y56915D01*
Y57312D01*
X100336Y57510D01*
X99939D01*
X99740Y57312D01*
Y56915D01*
X99939Y56716D01*
X100932D02*
X101329D01*
X101130D01*
Y57908D01*
X100932D01*
X102520Y56716D02*
X102123D01*
X101924Y56915D01*
Y57312D01*
X102123Y57510D01*
X102520D01*
X102719Y57312D01*
Y57113D01*
X101924D01*
X105102Y57709D02*
X104903Y57908D01*
X104506D01*
X104308Y57709D01*
Y57510D01*
X104506Y57312D01*
X104903D01*
X105102Y57113D01*
Y56915D01*
X104903Y56716D01*
X104506D01*
X104308Y56915D01*
X105499Y56716D02*
X105896D01*
X105698D01*
Y57510D01*
X105499D01*
X106492D02*
X107287D01*
X106492Y56716D01*
X107287D01*
X108280D02*
X107882D01*
X107684Y56915D01*
Y57312D01*
X107882Y57510D01*
X108280D01*
X108478Y57312D01*
Y57113D01*
X107684D01*
X89709Y57709D02*
X89510Y57908D01*
X89113D01*
X88915Y57709D01*
Y56915D01*
X89113Y56716D01*
X89510D01*
X89709Y56915D01*
X90305Y56716D02*
X90702D01*
X90900Y56915D01*
Y57312D01*
X90702Y57510D01*
X90305D01*
X90106Y57312D01*
Y56915D01*
X90305Y56716D01*
X91298Y57510D02*
Y56915D01*
X91496Y56716D01*
X92092D01*
Y57510D01*
X92489Y56716D02*
Y57510D01*
X93085D01*
X93284Y57312D01*
Y56716D01*
X93879Y57709D02*
Y57510D01*
X93681D01*
X94078D01*
X93879D01*
Y56915D01*
X94078Y56716D01*
X81544Y57709D02*
X81345Y57908D01*
X80948D01*
X80749Y57709D01*
Y57510D01*
X80948Y57312D01*
X81345D01*
X81544Y57113D01*
Y56915D01*
X81345Y56716D01*
X80948D01*
X80749Y56915D01*
X81941Y57510D02*
Y56915D01*
X82140Y56716D01*
X82735D01*
Y56517D01*
X82537Y56319D01*
X82338D01*
X82735Y56716D02*
Y57510D01*
X83133Y56716D02*
Y57510D01*
X83331D01*
X83530Y57312D01*
Y56716D01*
Y57312D01*
X83728Y57510D01*
X83927Y57312D01*
Y56716D01*
X84324Y57908D02*
Y56716D01*
X84920D01*
X85119Y56915D01*
Y57113D01*
Y57312D01*
X84920Y57510D01*
X84324D01*
X85714Y56716D02*
X86112D01*
X86310Y56915D01*
Y57312D01*
X86112Y57510D01*
X85714D01*
X85516Y57312D01*
Y56915D01*
X85714Y56716D01*
X86707D02*
X87105D01*
X86906D01*
Y57908D01*
X86707D01*
D70*
X79390Y19003D02*
Y17654D01*
X80065D01*
X80290Y17879D01*
Y18779D01*
X80065Y19003D01*
X79390D01*
X80964Y18554D02*
X81414D01*
X81639Y18329D01*
Y17654D01*
X80964D01*
X80740Y17879D01*
X80964Y18104D01*
X81639D01*
X82089Y17654D02*
Y18554D01*
X82764D01*
X82989Y18329D01*
Y17654D01*
X83439D02*
X83889D01*
X83664D01*
Y18554D01*
X83439D01*
X85238Y17654D02*
X84788D01*
X84563Y17879D01*
Y18329D01*
X84788Y18554D01*
X85238D01*
X85463Y18329D01*
Y18104D01*
X84563D01*
X85913Y17654D02*
X86363D01*
X86138D01*
Y19003D01*
X85913D01*
X88387D02*
Y17654D01*
Y18329D01*
X89287D01*
Y19003D01*
Y17654D01*
X89962Y18554D02*
X90411D01*
X90636Y18329D01*
Y17654D01*
X89962D01*
X89737Y17879D01*
X89962Y18104D01*
X90636D01*
X91086Y19003D02*
Y17654D01*
Y18329D01*
X91311Y18554D01*
X91761D01*
X91986Y18329D01*
Y17654D01*
X92661Y18554D02*
X93111D01*
X93335Y18329D01*
Y17654D01*
X92661D01*
X92436Y17879D01*
X92661Y18104D01*
X93335D01*
X93785Y17204D02*
X94010D01*
X94235Y17429D01*
Y18554D01*
X96484Y18329D02*
X97384D01*
X99633Y17654D02*
X99184Y18104D01*
Y18554D01*
X99633Y19003D01*
X100308Y18779D02*
X100533Y19003D01*
X100983D01*
X101208Y18779D01*
Y18554D01*
X100983Y18329D01*
X101208Y18104D01*
Y17879D01*
X100983Y17654D01*
X100533D01*
X100308Y17879D01*
Y18104D01*
X100533Y18329D01*
X100308Y18554D01*
Y18779D01*
X100533Y18329D02*
X100983D01*
X101658Y18779D02*
X101883Y19003D01*
X102333D01*
X102558Y18779D01*
Y18554D01*
X102333Y18329D01*
X102108D01*
X102333D01*
X102558Y18104D01*
Y17879D01*
X102333Y17654D01*
X101883D01*
X101658Y17879D01*
X103007Y18779D02*
X103232Y19003D01*
X103682D01*
X103907Y18779D01*
Y17879D01*
X103682Y17654D01*
X103232D01*
X103007Y17879D01*
Y18779D01*
X104357Y17654D02*
X104807Y18104D01*
Y18554D01*
X104357Y19003D01*
X107731D02*
X107281Y18779D01*
X106831Y18329D01*
Y17879D01*
X107056Y17654D01*
X107506D01*
X107731Y17879D01*
Y18104D01*
X107506Y18329D01*
X106831D01*
X109080Y17654D02*
X108181D01*
X109080Y18554D01*
Y18779D01*
X108855Y19003D01*
X108406D01*
X108181Y18779D01*
X109530Y17879D02*
X109755Y17654D01*
X110205D01*
X110430Y17879D01*
Y18779D01*
X110205Y19003D01*
X109755D01*
X109530Y18779D01*
Y18554D01*
X109755Y18329D01*
X110430D01*
X110880D02*
X111780D01*
X113129Y17654D02*
X112229D01*
X113129Y18554D01*
Y18779D01*
X112904Y19003D01*
X112454D01*
X112229Y18779D01*
X113579Y17879D02*
X113804Y17654D01*
X114254D01*
X114479Y17879D01*
Y18779D01*
X114254Y19003D01*
X113804D01*
X113579Y18779D01*
Y18554D01*
X113804Y18329D01*
X114479D01*
X114929Y18779D02*
X115153Y19003D01*
X115603D01*
X115828Y18779D01*
Y17879D01*
X115603Y17654D01*
X115153D01*
X114929Y17879D01*
Y18779D01*
X116278D02*
X116503Y19003D01*
X116953D01*
X117178Y18779D01*
Y17879D01*
X116953Y17654D01*
X116503D01*
X116278Y17879D01*
Y18779D01*
X118977Y18554D02*
X119877Y17654D01*
X119427Y18104D01*
X119877Y18554D01*
X118977Y17654D01*
X121002D02*
Y19003D01*
X120327Y18329D01*
X121226D01*
X121676Y18779D02*
X121901Y19003D01*
X122351D01*
X122576Y18779D01*
Y18554D01*
X122351Y18329D01*
X122126D01*
X122351D01*
X122576Y18104D01*
Y17879D01*
X122351Y17654D01*
X121901D01*
X121676Y17879D01*
X123026Y19003D02*
X123926D01*
Y18779D01*
X123026Y17879D01*
Y17654D01*
X124375Y18779D02*
X124600Y19003D01*
X125050D01*
X125275Y18779D01*
Y17879D01*
X125050Y17654D01*
X124600D01*
X124375Y17879D01*
Y18779D01*
X79390Y16358D02*
Y15009D01*
X80065D01*
X80290Y15233D01*
Y16133D01*
X80065Y16358D01*
X79390D01*
X81414Y15009D02*
X80964D01*
X80740Y15233D01*
Y15683D01*
X80964Y15908D01*
X81414D01*
X81639Y15683D01*
Y15458D01*
X80740D01*
X82314Y16133D02*
Y15908D01*
X82089D01*
X82539D01*
X82314D01*
Y15233D01*
X82539Y15009D01*
X83889D02*
X83439D01*
X83214Y15233D01*
Y15683D01*
X83439Y15908D01*
X83889D01*
X84113Y15683D01*
Y15458D01*
X83214D01*
X84563Y15908D02*
X85463Y15009D01*
X85013Y15458D01*
X85463Y15908D01*
X84563Y15009D01*
X88162Y16133D02*
X87937Y16358D01*
X87487D01*
X87262Y16133D01*
Y15233D01*
X87487Y15009D01*
X87937D01*
X88162Y15233D01*
X88837Y15009D02*
X89287D01*
X89512Y15233D01*
Y15683D01*
X89287Y15908D01*
X88837D01*
X88612Y15683D01*
Y15233D01*
X88837Y15009D01*
X89962Y15908D02*
Y15009D01*
Y15458D01*
X90187Y15683D01*
X90411Y15908D01*
X90636D01*
X91311Y14559D02*
Y15908D01*
X91986D01*
X92211Y15683D01*
Y15233D01*
X91986Y15009D01*
X91311D01*
X79390Y12363D02*
Y13713D01*
X80065D01*
X80290Y13488D01*
Y13038D01*
X80065Y12813D01*
X79390D01*
X80740Y12363D02*
X81639Y13263D01*
X82089Y12363D02*
Y13713D01*
X82989Y12363D01*
Y13713D01*
X84788Y12363D02*
X85238D01*
X85013D01*
Y13713D01*
X84788Y13488D01*
X85913D02*
X86138Y13713D01*
X86588D01*
X86813Y13488D01*
Y12588D01*
X86588Y12363D01*
X86138D01*
X85913Y12588D01*
Y13488D01*
X88162Y13713D02*
X87712Y13488D01*
X87262Y13038D01*
Y12588D01*
X87487Y12363D01*
X87937D01*
X88162Y12588D01*
Y12813D01*
X87937Y13038D01*
X87262D01*
X88612Y13713D02*
X89512D01*
Y13488D01*
X88612Y12588D01*
Y12363D01*
X90861Y13713D02*
X89962D01*
Y13038D01*
X90411Y13263D01*
X90636D01*
X90861Y13038D01*
Y12588D01*
X90636Y12363D01*
X90187D01*
X89962Y12588D01*
X92211Y13713D02*
X91761Y13488D01*
X91311Y13038D01*
Y12588D01*
X91536Y12363D01*
X91986D01*
X92211Y12588D01*
Y12813D01*
X91986Y13038D01*
X91311D01*
X80290Y11292D02*
X80065Y11517D01*
X79615D01*
X79390Y11292D01*
Y10393D01*
X79615Y10168D01*
X80065D01*
X80290Y10393D01*
Y10843D01*
X79840D01*
X80740Y10168D02*
Y11517D01*
X81414D01*
X81639Y11292D01*
Y10843D01*
X81414Y10618D01*
X80740D01*
X81189D02*
X81639Y10168D01*
X82989Y11517D02*
X82089D01*
Y10168D01*
X82989D01*
X82089Y10843D02*
X82539D01*
X84338Y11517D02*
X83439D01*
Y10168D01*
X84338D01*
X83439Y10843D02*
X83889D01*
X84788Y10168D02*
Y11517D01*
X85688Y10168D01*
Y11517D01*
X87487Y10168D02*
Y11517D01*
X87937Y11067D01*
X88387Y11517D01*
Y10168D01*
X88837D02*
Y11067D01*
X89287Y11517D01*
X89737Y11067D01*
Y10168D01*
Y10843D01*
X88837D01*
X91086Y11292D02*
X90861Y11517D01*
X90411D01*
X90187Y11292D01*
Y11067D01*
X90411Y10843D01*
X90861D01*
X91086Y10618D01*
Y10393D01*
X90861Y10168D01*
X90411D01*
X90187Y10393D01*
X91536Y11517D02*
Y10168D01*
Y10618D01*
X92436Y11517D01*
X91761Y10843D01*
X92436Y10168D01*
X92886D02*
X93785Y11067D01*
X94235Y11517D02*
Y10168D01*
X94685Y10618D01*
X95135Y10168D01*
Y11517D01*
X95585D02*
Y10168D01*
Y10843D01*
X96484D01*
Y11517D01*
Y10168D01*
X96934Y11517D02*
X97384D01*
X97159D01*
Y10168D01*
X96934D01*
X97384D01*
X98059Y11517D02*
X98959D01*
X98509D01*
Y10168D01*
X100308Y11517D02*
X99409D01*
Y10168D01*
X100308D01*
X99409Y10843D02*
X99858D01*
X103007Y11292D02*
X102782Y11517D01*
X102333D01*
X102108Y11292D01*
Y11067D01*
X102333Y10843D01*
X102782D01*
X103007Y10618D01*
Y10393D01*
X102782Y10168D01*
X102333D01*
X102108Y10393D01*
X103457Y11517D02*
X103907D01*
X103682D01*
Y10168D01*
X103457D01*
X103907D01*
X104582Y11517D02*
Y10168D01*
X105482D01*
X105931Y11517D02*
Y10168D01*
Y10618D01*
X106831Y11517D01*
X106156Y10843D01*
X106831Y10168D01*
X107506Y9943D02*
X107731Y10168D01*
Y10393D01*
X107506D01*
Y10168D01*
X107731D01*
X107506Y9943D01*
X107281Y9718D01*
X109980Y11517D02*
Y10168D01*
X110655D01*
X110880Y10393D01*
Y10618D01*
X110655Y10843D01*
X109980D01*
X110655D01*
X110880Y11067D01*
Y11292D01*
X110655Y11517D01*
X109980D01*
X112004D02*
X111555D01*
X111330Y11292D01*
Y10393D01*
X111555Y10168D01*
X112004D01*
X112229Y10393D01*
Y11292D01*
X112004Y11517D01*
X112679D02*
X113579D01*
X113129D01*
Y10168D01*
X114029Y11517D02*
Y10168D01*
Y10843D01*
X114929D01*
Y11517D01*
Y10168D01*
X117628Y11292D02*
X117403Y11517D01*
X116953D01*
X116728Y11292D01*
Y11067D01*
X116953Y10843D01*
X117403D01*
X117628Y10618D01*
Y10393D01*
X117403Y10168D01*
X116953D01*
X116728Y10393D01*
X118077Y11517D02*
X118527D01*
X118302D01*
Y10168D01*
X118077D01*
X118527D01*
X119202Y11517D02*
Y10168D01*
X119877D01*
X120102Y10393D01*
Y11292D01*
X119877Y11517D01*
X119202D01*
X121451D02*
X120552D01*
Y10168D01*
X121451D01*
X120552Y10843D02*
X121002D01*
X122801Y11292D02*
X122576Y11517D01*
X122126D01*
X121901Y11292D01*
Y11067D01*
X122126Y10843D01*
X122576D01*
X122801Y10618D01*
Y10393D01*
X122576Y10168D01*
X122126D01*
X121901Y10393D01*
X79390Y9322D02*
X80290D01*
X79840D01*
Y7972D01*
X80740Y9322D02*
Y7972D01*
X81189Y8422D01*
X81639Y7972D01*
Y9322D01*
X82764D02*
X82314D01*
X82089Y9097D01*
Y8197D01*
X82314Y7972D01*
X82764D01*
X82989Y8197D01*
Y9097D01*
X82764Y9322D01*
X83439Y8647D02*
X84338D01*
X85688Y9097D02*
X85463Y9322D01*
X85013D01*
X84788Y9097D01*
Y8872D01*
X85013Y8647D01*
X85463D01*
X85688Y8422D01*
Y8197D01*
X85463Y7972D01*
X85013D01*
X84788Y8197D01*
X86138Y9322D02*
X86588D01*
X86363D01*
Y7972D01*
X86138D01*
X86588D01*
X87262Y9322D02*
Y7972D01*
X87937D01*
X88162Y8197D01*
Y9097D01*
X87937Y9322D01*
X87262D01*
X89512D02*
X88612D01*
Y7972D01*
X89512D01*
X88612Y8647D02*
X89062D01*
X89962Y9322D02*
Y7972D01*
X90636D01*
X90861Y8197D01*
Y9097D01*
X90636Y9322D01*
X89962D01*
X93560Y9097D02*
X93335Y9322D01*
X92886D01*
X92661Y9097D01*
Y8197D01*
X92886Y7972D01*
X93335D01*
X93560Y8197D01*
X94685Y9322D02*
X94235D01*
X94010Y9097D01*
Y8197D01*
X94235Y7972D01*
X94685D01*
X94910Y8197D01*
Y9097D01*
X94685Y9322D01*
X95360Y7972D02*
Y9322D01*
X96035D01*
X96260Y9097D01*
Y8647D01*
X96035Y8422D01*
X95360D01*
X96709Y7972D02*
Y9322D01*
X97384D01*
X97609Y9097D01*
Y8647D01*
X97384Y8422D01*
X96709D01*
X98959Y9322D02*
X98059D01*
Y7972D01*
X98959D01*
X98059Y8647D02*
X98509D01*
X99409Y7972D02*
Y9322D01*
X100083D01*
X100308Y9097D01*
Y8647D01*
X100083Y8422D01*
X99409D01*
X99858D02*
X100308Y7972D01*
X80290Y7126D02*
X79390D01*
Y6452D01*
X79840D01*
X79390D01*
Y5777D01*
X80740D02*
Y7126D01*
X81414D01*
X81639Y6901D01*
Y6452D01*
X81414Y6227D01*
X80740D01*
X81189D02*
X81639Y5777D01*
X82764D02*
Y7126D01*
X82089Y6452D01*
X82989D01*
X83664Y5552D02*
X83889Y5777D01*
Y6002D01*
X83664D01*
Y5777D01*
X83889D01*
X83664Y5552D01*
X83439Y5327D01*
X86138Y5777D02*
X86588D01*
X86363D01*
Y7126D01*
X86138Y6901D01*
X87262Y5777D02*
Y6002D01*
X87487D01*
Y5777D01*
X87262D01*
X89287Y7126D02*
X88837Y6901D01*
X88387Y6452D01*
Y6002D01*
X88612Y5777D01*
X89062D01*
X89287Y6002D01*
Y6227D01*
X89062Y6452D01*
X88387D01*
X89737Y5777D02*
Y6676D01*
X89962D01*
X90187Y6452D01*
Y5777D01*
Y6452D01*
X90411Y6676D01*
X90636Y6452D01*
Y5777D01*
X91086D02*
Y6676D01*
X91311D01*
X91536Y6452D01*
Y5777D01*
Y6452D01*
X91761Y6676D01*
X91986Y6452D01*
Y5777D01*
X93785Y7126D02*
X94685D01*
X94235D01*
Y5777D01*
X95135Y7126D02*
Y5777D01*
Y6452D01*
X96035D01*
Y7126D01*
Y5777D01*
X96484Y7126D02*
X96934D01*
X96709D01*
Y5777D01*
X96484D01*
X96934D01*
X98509Y6901D02*
X98284Y7126D01*
X97834D01*
X97609Y6901D01*
Y6002D01*
X97834Y5777D01*
X98284D01*
X98509Y6002D01*
X98959Y7126D02*
Y5777D01*
Y6227D01*
X99858Y7126D01*
X99184Y6452D01*
X99858Y5777D01*
X100308D02*
Y7126D01*
X101208Y5777D01*
Y7126D01*
X102558D02*
X101658D01*
Y5777D01*
X102558D01*
X101658Y6452D02*
X102108D01*
X103907Y6901D02*
X103682Y7126D01*
X103232D01*
X103007Y6901D01*
Y6676D01*
X103232Y6452D01*
X103682D01*
X103907Y6227D01*
Y6002D01*
X103682Y5777D01*
X103232D01*
X103007Y6002D01*
X105257Y6901D02*
X105032Y7126D01*
X104582D01*
X104357Y6901D01*
Y6676D01*
X104582Y6452D01*
X105032D01*
X105257Y6227D01*
Y6002D01*
X105032Y5777D01*
X104582D01*
X104357Y6002D01*
X79390Y4931D02*
Y3581D01*
X80290D01*
X81639Y4931D02*
X80740D01*
Y3581D01*
X81639D01*
X80740Y4256D02*
X81189D01*
X82089Y3581D02*
Y4481D01*
X82539Y4931D01*
X82989Y4481D01*
Y3581D01*
Y4256D01*
X82089D01*
X83439Y4931D02*
Y3581D01*
X84113D01*
X84338Y3806D01*
Y4706D01*
X84113Y4931D01*
X83439D01*
X87038D02*
X86138D01*
Y4256D01*
X86588D01*
X86138D01*
Y3581D01*
X87487D02*
Y4931D01*
X88162D01*
X88387Y4706D01*
Y4256D01*
X88162Y4031D01*
X87487D01*
X87937D02*
X88387Y3581D01*
X89737Y4931D02*
X88837D01*
Y3581D01*
X89737D01*
X88837Y4256D02*
X89287D01*
X91086Y4931D02*
X90187D01*
Y3581D01*
X91086D01*
X90187Y4256D02*
X90636D01*
X92886D02*
X93785D01*
X95585Y3581D02*
Y4931D01*
X96260D01*
X96484Y4706D01*
Y4256D01*
X96260Y4031D01*
X95585D01*
X96035D02*
X96484Y3581D01*
X97609Y4931D02*
X97159D01*
X96934Y4706D01*
Y3806D01*
X97159Y3581D01*
X97609D01*
X97834Y3806D01*
Y4706D01*
X97609Y4931D01*
X98284D02*
Y3581D01*
Y4256D01*
X99184D01*
Y4931D01*
Y3581D01*
X100533Y4706D02*
X100308Y4931D01*
X99858D01*
X99633Y4706D01*
Y4481D01*
X99858Y4256D01*
X100308D01*
X100533Y4031D01*
Y3806D01*
X100308Y3581D01*
X99858D01*
X99633Y3806D01*
X80290Y1386D02*
X79390D01*
X80290Y2286D01*
Y2510D01*
X80065Y2735D01*
X79615D01*
X79390Y2510D01*
X80740D02*
X80964Y2735D01*
X81414D01*
X81639Y2510D01*
Y1611D01*
X81414Y1386D01*
X80964D01*
X80740Y1611D01*
Y2510D01*
X82089Y1386D02*
Y2735D01*
X82539Y2286D01*
X82989Y2735D01*
Y1386D01*
X83439Y2735D02*
X83889D01*
X83664D01*
Y1386D01*
X83439D01*
X83889D01*
X84563Y2735D02*
Y1386D01*
X85463D01*
X87262Y2735D02*
Y1836D01*
X87712Y1386D01*
X88162Y1836D01*
Y2735D01*
X89512D02*
X88612D01*
Y1386D01*
X89512D01*
X88612Y2061D02*
X89062D01*
X89962Y1386D02*
Y2735D01*
X90636D01*
X90861Y2510D01*
Y2061D01*
X90636Y1836D01*
X89962D01*
X90411D02*
X90861Y1386D01*
X91311Y2735D02*
X92211D01*
X91761D01*
Y1386D01*
X92661Y2735D02*
X93111D01*
X92886D01*
Y1386D01*
X92661D01*
X93111D01*
X94685Y2510D02*
X94460Y2735D01*
X94010D01*
X93785Y2510D01*
Y1611D01*
X94010Y1386D01*
X94460D01*
X94685Y1611D01*
X95135Y1386D02*
Y2286D01*
X95585Y2735D01*
X96035Y2286D01*
Y1386D01*
Y2061D01*
X95135D01*
X96484Y2735D02*
Y1386D01*
X97384D01*
X100083Y2510D02*
X99858Y2735D01*
X99409D01*
X99184Y2510D01*
Y2286D01*
X99409Y2061D01*
X99858D01*
X100083Y1836D01*
Y1611D01*
X99858Y1386D01*
X99409D01*
X99184Y1611D01*
X101433Y2510D02*
X101208Y2735D01*
X100758D01*
X100533Y2510D01*
Y1611D01*
X100758Y1386D01*
X101208D01*
X101433Y1611D01*
X102558Y2735D02*
X102108D01*
X101883Y2510D01*
Y1611D01*
X102108Y1386D01*
X102558D01*
X102782Y1611D01*
Y2510D01*
X102558Y2735D01*
X103232Y1386D02*
Y2735D01*
X103907D01*
X104132Y2510D01*
Y2061D01*
X103907Y1836D01*
X103232D01*
X103682D02*
X104132Y1386D01*
X105482Y2735D02*
X104582D01*
Y1386D01*
X105482D01*
X104582Y2061D02*
X105032D01*
X107281Y2735D02*
Y1386D01*
X108181D01*
X108631Y2735D02*
X109080D01*
X108855D01*
Y1386D01*
X108631D01*
X109080D01*
X109755D02*
Y2735D01*
X110655Y1386D01*
Y2735D01*
X112004D02*
X111105D01*
Y1386D01*
X112004D01*
X111105Y2061D02*
X111555D01*
X113804Y1386D02*
Y2286D01*
X114254Y2735D01*
X114704Y2286D01*
Y1386D01*
Y2061D01*
X113804D01*
X116053Y2510D02*
X115828Y2735D01*
X115378D01*
X115153Y2510D01*
Y2286D01*
X115378Y2061D01*
X115828D01*
X116053Y1836D01*
Y1611D01*
X115828Y1386D01*
X115378D01*
X115153Y1611D01*
X118752Y2510D02*
X118527Y2735D01*
X118077D01*
X117853Y2510D01*
Y2286D01*
X118077Y2061D01*
X118527D01*
X118752Y1836D01*
Y1611D01*
X118527Y1386D01*
X118077D01*
X117853Y1611D01*
X119202Y2735D02*
Y1386D01*
Y2061D01*
X120102D01*
Y2735D01*
Y1386D01*
X121226Y2735D02*
X120777D01*
X120552Y2510D01*
Y1611D01*
X120777Y1386D01*
X121226D01*
X121451Y1611D01*
Y2510D01*
X121226Y2735D01*
X121901D02*
Y1386D01*
X122351Y1836D01*
X122801Y1386D01*
Y2735D01*
X123251Y1386D02*
Y2735D01*
X124151Y1386D01*
Y2735D01*
M02*
